<?xml version="1.0" encoding="utf-8" standalone="no"?>
<!DOCTYPE svg PUBLIC "-//W3C//DTD SVG 1.1//EN"
  "http://www.w3.org/Graphics/SVG/1.1/DTD/svg11.dtd">
<!-- Created with matplotlib (http://matplotlib.org/) -->
<svg height="335pt" version="1.1" viewBox="0 0 457 335" width="457pt" xmlns="http://www.w3.org/2000/svg" xmlns:xlink="http://www.w3.org/1999/xlink">
 <defs>
  <style type="text/css">
*{stroke-linecap:butt;stroke-linejoin:round;}
  </style>
 </defs>
 <g id="figure_1">
  <g id="patch_1">
   <path d="M 0 335.442266 
L 457.275 335.442266 
L 457.275 0 
L 0 0 
z
" style="fill:#ffffff;"/>
  </g>
  <g id="axes_1">
   <g id="patch_2">
    <path d="M 49.27 289.052578 
L 439.87 289.052578 
L 439.87 11.852578 
L 49.27 11.852578 
z
" style="fill:#ffffff;"/>
   </g>
   <g id="matplotlib.axis_1">
    <g id="xtick_1">
     <g id="line2d_1">
      <defs>
       <path d="M 0 0 
L 0 3.5 
" id="m2a420123e2" style="stroke:#000000;stroke-width:0.8;"/>
      </defs>
      <g>
       <use style="stroke:#000000;stroke-width:0.8;" x="49.27" xlink:href="#m2a420123e2" y="289.052578"/>
      </g>
     </g>
     <g id="text_1">
      <!-- $\mathdefault{10^{-2}}$ -->
      <defs>
       <path d="M 37.25 0 
L 28.46875 0 
L 28.46875 56 
Q 25.296875 52.984375 20.140625 49.953125 
Q 14.984375 46.921875 10.890625 45.40625 
L 10.890625 53.90625 
Q 18.265625 57.375 23.78125 62.296875 
Q 29.296875 67.234375 31.59375 71.875 
L 37.25 71.875 
z
" id="ArialMT-31"/>
       <path d="M 4.15625 35.296875 
Q 4.15625 48 6.765625 55.734375 
Q 9.375 63.484375 14.515625 67.671875 
Q 19.671875 71.875 27.484375 71.875 
Q 33.25 71.875 37.59375 69.546875 
Q 41.9375 67.234375 44.765625 62.859375 
Q 47.609375 58.5 49.21875 52.21875 
Q 50.828125 45.953125 50.828125 35.296875 
Q 50.828125 22.703125 48.234375 14.96875 
Q 45.65625 7.234375 40.5 3 
Q 35.359375 -1.21875 27.484375 -1.21875 
Q 17.140625 -1.21875 11.234375 6.203125 
Q 4.15625 15.140625 4.15625 35.296875 
z
M 13.1875 35.296875 
Q 13.1875 17.671875 17.3125 11.828125 
Q 21.4375 6 27.484375 6 
Q 33.546875 6 37.671875 11.859375 
Q 41.796875 17.71875 41.796875 35.296875 
Q 41.796875 52.984375 37.671875 58.78125 
Q 33.546875 64.59375 27.390625 64.59375 
Q 21.34375 64.59375 17.71875 59.46875 
Q 13.1875 52.9375 13.1875 35.296875 
z
" id="ArialMT-30"/>
       <path d="M 52.828125 31.203125 
L 5.5625 31.203125 
L 5.5625 39.40625 
L 52.828125 39.40625 
z
" id="ArialMT-2212"/>
       <path d="M 50.34375 8.453125 
L 50.34375 0 
L 3.03125 0 
Q 2.9375 3.171875 4.046875 6.109375 
Q 5.859375 10.9375 9.828125 15.625 
Q 13.8125 20.3125 21.34375 26.46875 
Q 33.015625 36.03125 37.109375 41.625 
Q 41.21875 47.21875 41.21875 52.203125 
Q 41.21875 57.421875 37.46875 61 
Q 33.734375 64.59375 27.734375 64.59375 
Q 21.390625 64.59375 17.578125 60.78125 
Q 13.765625 56.984375 13.71875 50.25 
L 4.6875 51.171875 
Q 5.609375 61.28125 11.65625 66.578125 
Q 17.71875 71.875 27.9375 71.875 
Q 38.234375 71.875 44.234375 66.15625 
Q 50.25 60.453125 50.25 52 
Q 50.25 47.703125 48.484375 43.546875 
Q 46.734375 39.40625 42.65625 34.8125 
Q 38.578125 30.21875 29.109375 22.21875 
Q 21.1875 15.578125 18.9375 13.203125 
Q 16.703125 10.84375 15.234375 8.453125 
z
" id="ArialMT-32"/>
      </defs>
      <g transform="translate(36.4 309.458828)scale(0.13 -0.13)">
       <use transform="translate(0 0.99375)" xlink:href="#ArialMT-31"/>
       <use transform="translate(55.615234 0.99375)" xlink:href="#ArialMT-30"/>
       <use transform="translate(112.972813 70.6875)scale(0.7)" xlink:href="#ArialMT-2212"/>
       <use transform="translate(153.851719 70.6875)scale(0.7)" xlink:href="#ArialMT-32"/>
      </g>
     </g>
    </g>
    <g id="xtick_2">
     <g id="line2d_2">
      <g>
       <use style="stroke:#000000;stroke-width:0.8;" x="127.39" xlink:href="#m2a420123e2" y="289.052578"/>
      </g>
     </g>
     <g id="text_2">
      <!-- $\mathdefault{10^{-1}}$ -->
      <g transform="translate(114.52 309.458828)scale(0.13 -0.13)">
       <use transform="translate(0 0.99375)" xlink:href="#ArialMT-31"/>
       <use transform="translate(55.615234 0.99375)" xlink:href="#ArialMT-30"/>
       <use transform="translate(112.972813 70.6875)scale(0.7)" xlink:href="#ArialMT-2212"/>
       <use transform="translate(153.851719 70.6875)scale(0.7)" xlink:href="#ArialMT-31"/>
      </g>
     </g>
    </g>
    <g id="xtick_3">
     <g id="line2d_3">
      <g>
       <use style="stroke:#000000;stroke-width:0.8;" x="205.51" xlink:href="#m2a420123e2" y="289.052578"/>
      </g>
     </g>
     <g id="text_3">
      <!-- $\mathdefault{10^{0}}$ -->
      <g transform="translate(195.305 309.458828)scale(0.13 -0.13)">
       <use transform="translate(0 0.99375)" xlink:href="#ArialMT-31"/>
       <use transform="translate(55.615234 0.99375)" xlink:href="#ArialMT-30"/>
       <use transform="translate(112.972813 70.6875)scale(0.7)" xlink:href="#ArialMT-30"/>
      </g>
     </g>
    </g>
    <g id="xtick_4">
     <g id="line2d_4">
      <g>
       <use style="stroke:#000000;stroke-width:0.8;" x="283.63" xlink:href="#m2a420123e2" y="289.052578"/>
      </g>
     </g>
     <g id="text_4">
      <!-- $\mathdefault{10^{1}}$ -->
      <g transform="translate(273.425 309.458828)scale(0.13 -0.13)">
       <use transform="translate(0 0.99375)" xlink:href="#ArialMT-31"/>
       <use transform="translate(55.615234 0.99375)" xlink:href="#ArialMT-30"/>
       <use transform="translate(112.972813 70.6875)scale(0.7)" xlink:href="#ArialMT-31"/>
      </g>
     </g>
    </g>
    <g id="xtick_5">
     <g id="line2d_5">
      <g>
       <use style="stroke:#000000;stroke-width:0.8;" x="361.75" xlink:href="#m2a420123e2" y="289.052578"/>
      </g>
     </g>
     <g id="text_5">
      <!-- $\mathdefault{10^{2}}$ -->
      <g transform="translate(351.545 309.458828)scale(0.13 -0.13)">
       <use transform="translate(0 0.99375)" xlink:href="#ArialMT-31"/>
       <use transform="translate(55.615234 0.99375)" xlink:href="#ArialMT-30"/>
       <use transform="translate(112.972813 70.6875)scale(0.7)" xlink:href="#ArialMT-32"/>
      </g>
     </g>
    </g>
    <g id="xtick_6">
     <g id="line2d_6">
      <g>
       <use style="stroke:#000000;stroke-width:0.8;" x="439.87" xlink:href="#m2a420123e2" y="289.052578"/>
      </g>
     </g>
     <g id="text_6">
      <!-- $\mathdefault{10^{3}}$ -->
      <defs>
       <path d="M 4.203125 18.890625 
L 12.984375 20.0625 
Q 14.5 12.59375 18.140625 9.296875 
Q 21.78125 6 27 6 
Q 33.203125 6 37.46875 10.296875 
Q 41.75 14.59375 41.75 20.953125 
Q 41.75 27 37.796875 30.921875 
Q 33.84375 34.859375 27.734375 34.859375 
Q 25.25 34.859375 21.53125 33.890625 
L 22.515625 41.609375 
Q 23.390625 41.5 23.921875 41.5 
Q 29.546875 41.5 34.03125 44.421875 
Q 38.53125 47.359375 38.53125 53.46875 
Q 38.53125 58.296875 35.25 61.46875 
Q 31.984375 64.65625 26.8125 64.65625 
Q 21.6875 64.65625 18.265625 61.421875 
Q 14.84375 58.203125 13.875 51.765625 
L 5.078125 53.328125 
Q 6.6875 62.15625 12.390625 67.015625 
Q 18.109375 71.875 26.609375 71.875 
Q 32.46875 71.875 37.390625 69.359375 
Q 42.328125 66.84375 44.9375 62.5 
Q 47.5625 58.15625 47.5625 53.265625 
Q 47.5625 48.640625 45.0625 44.828125 
Q 42.578125 41.015625 37.703125 38.765625 
Q 44.046875 37.3125 47.5625 32.6875 
Q 51.078125 28.078125 51.078125 21.140625 
Q 51.078125 11.765625 44.234375 5.25 
Q 37.40625 -1.265625 26.953125 -1.265625 
Q 17.53125 -1.265625 11.296875 4.34375 
Q 5.078125 9.96875 4.203125 18.890625 
z
" id="ArialMT-33"/>
      </defs>
      <g transform="translate(429.665 309.458828)scale(0.13 -0.13)">
       <use transform="translate(0 0.99375)" xlink:href="#ArialMT-31"/>
       <use transform="translate(55.615234 0.99375)" xlink:href="#ArialMT-30"/>
       <use transform="translate(112.972813 70.6875)scale(0.7)" xlink:href="#ArialMT-33"/>
      </g>
     </g>
    </g>
    <g id="xtick_7">
     <g id="line2d_7">
      <defs>
       <path d="M 0 0 
L 0 2 
" id="mf3761c0430" style="stroke:#000000;stroke-width:0.6;"/>
      </defs>
      <g>
       <use style="stroke:#000000;stroke-width:0.6;" x="72.786463" xlink:href="#mf3761c0430" y="289.052578"/>
      </g>
     </g>
    </g>
    <g id="xtick_8">
     <g id="line2d_8">
      <g>
       <use style="stroke:#000000;stroke-width:0.6;" x="86.542712" xlink:href="#mf3761c0430" y="289.052578"/>
      </g>
     </g>
    </g>
    <g id="xtick_9">
     <g id="line2d_9">
      <g>
       <use style="stroke:#000000;stroke-width:0.6;" x="96.302927" xlink:href="#mf3761c0430" y="289.052578"/>
      </g>
     </g>
    </g>
    <g id="xtick_10">
     <g id="line2d_10">
      <g>
       <use style="stroke:#000000;stroke-width:0.6;" x="103.873537" xlink:href="#mf3761c0430" y="289.052578"/>
      </g>
     </g>
    </g>
    <g id="xtick_11">
     <g id="line2d_11">
      <g>
       <use style="stroke:#000000;stroke-width:0.6;" x="110.059176" xlink:href="#mf3761c0430" y="289.052578"/>
      </g>
     </g>
    </g>
    <g id="xtick_12">
     <g id="line2d_12">
      <g>
       <use style="stroke:#000000;stroke-width:0.6;" x="115.289059" xlink:href="#mf3761c0430" y="289.052578"/>
      </g>
     </g>
    </g>
    <g id="xtick_13">
     <g id="line2d_13">
      <g>
       <use style="stroke:#000000;stroke-width:0.6;" x="119.81939" xlink:href="#mf3761c0430" y="289.052578"/>
      </g>
     </g>
    </g>
    <g id="xtick_14">
     <g id="line2d_14">
      <g>
       <use style="stroke:#000000;stroke-width:0.6;" x="123.815425" xlink:href="#mf3761c0430" y="289.052578"/>
      </g>
     </g>
    </g>
    <g id="xtick_15">
     <g id="line2d_15">
      <g>
       <use style="stroke:#000000;stroke-width:0.6;" x="150.906463" xlink:href="#mf3761c0430" y="289.052578"/>
      </g>
     </g>
    </g>
    <g id="xtick_16">
     <g id="line2d_16">
      <g>
       <use style="stroke:#000000;stroke-width:0.6;" x="164.662712" xlink:href="#mf3761c0430" y="289.052578"/>
      </g>
     </g>
    </g>
    <g id="xtick_17">
     <g id="line2d_17">
      <g>
       <use style="stroke:#000000;stroke-width:0.6;" x="174.422927" xlink:href="#mf3761c0430" y="289.052578"/>
      </g>
     </g>
    </g>
    <g id="xtick_18">
     <g id="line2d_18">
      <g>
       <use style="stroke:#000000;stroke-width:0.6;" x="181.993537" xlink:href="#mf3761c0430" y="289.052578"/>
      </g>
     </g>
    </g>
    <g id="xtick_19">
     <g id="line2d_19">
      <g>
       <use style="stroke:#000000;stroke-width:0.6;" x="188.179176" xlink:href="#mf3761c0430" y="289.052578"/>
      </g>
     </g>
    </g>
    <g id="xtick_20">
     <g id="line2d_20">
      <g>
       <use style="stroke:#000000;stroke-width:0.6;" x="193.409059" xlink:href="#mf3761c0430" y="289.052578"/>
      </g>
     </g>
    </g>
    <g id="xtick_21">
     <g id="line2d_21">
      <g>
       <use style="stroke:#000000;stroke-width:0.6;" x="197.93939" xlink:href="#mf3761c0430" y="289.052578"/>
      </g>
     </g>
    </g>
    <g id="xtick_22">
     <g id="line2d_22">
      <g>
       <use style="stroke:#000000;stroke-width:0.6;" x="201.935425" xlink:href="#mf3761c0430" y="289.052578"/>
      </g>
     </g>
    </g>
    <g id="xtick_23">
     <g id="line2d_23">
      <g>
       <use style="stroke:#000000;stroke-width:0.6;" x="229.026463" xlink:href="#mf3761c0430" y="289.052578"/>
      </g>
     </g>
    </g>
    <g id="xtick_24">
     <g id="line2d_24">
      <g>
       <use style="stroke:#000000;stroke-width:0.6;" x="242.782712" xlink:href="#mf3761c0430" y="289.052578"/>
      </g>
     </g>
    </g>
    <g id="xtick_25">
     <g id="line2d_25">
      <g>
       <use style="stroke:#000000;stroke-width:0.6;" x="252.542927" xlink:href="#mf3761c0430" y="289.052578"/>
      </g>
     </g>
    </g>
    <g id="xtick_26">
     <g id="line2d_26">
      <g>
       <use style="stroke:#000000;stroke-width:0.6;" x="260.113537" xlink:href="#mf3761c0430" y="289.052578"/>
      </g>
     </g>
    </g>
    <g id="xtick_27">
     <g id="line2d_27">
      <g>
       <use style="stroke:#000000;stroke-width:0.6;" x="266.299176" xlink:href="#mf3761c0430" y="289.052578"/>
      </g>
     </g>
    </g>
    <g id="xtick_28">
     <g id="line2d_28">
      <g>
       <use style="stroke:#000000;stroke-width:0.6;" x="271.529059" xlink:href="#mf3761c0430" y="289.052578"/>
      </g>
     </g>
    </g>
    <g id="xtick_29">
     <g id="line2d_29">
      <g>
       <use style="stroke:#000000;stroke-width:0.6;" x="276.05939" xlink:href="#mf3761c0430" y="289.052578"/>
      </g>
     </g>
    </g>
    <g id="xtick_30">
     <g id="line2d_30">
      <g>
       <use style="stroke:#000000;stroke-width:0.6;" x="280.055425" xlink:href="#mf3761c0430" y="289.052578"/>
      </g>
     </g>
    </g>
    <g id="xtick_31">
     <g id="line2d_31">
      <g>
       <use style="stroke:#000000;stroke-width:0.6;" x="307.146463" xlink:href="#mf3761c0430" y="289.052578"/>
      </g>
     </g>
    </g>
    <g id="xtick_32">
     <g id="line2d_32">
      <g>
       <use style="stroke:#000000;stroke-width:0.6;" x="320.902712" xlink:href="#mf3761c0430" y="289.052578"/>
      </g>
     </g>
    </g>
    <g id="xtick_33">
     <g id="line2d_33">
      <g>
       <use style="stroke:#000000;stroke-width:0.6;" x="330.662927" xlink:href="#mf3761c0430" y="289.052578"/>
      </g>
     </g>
    </g>
    <g id="xtick_34">
     <g id="line2d_34">
      <g>
       <use style="stroke:#000000;stroke-width:0.6;" x="338.233537" xlink:href="#mf3761c0430" y="289.052578"/>
      </g>
     </g>
    </g>
    <g id="xtick_35">
     <g id="line2d_35">
      <g>
       <use style="stroke:#000000;stroke-width:0.6;" x="344.419176" xlink:href="#mf3761c0430" y="289.052578"/>
      </g>
     </g>
    </g>
    <g id="xtick_36">
     <g id="line2d_36">
      <g>
       <use style="stroke:#000000;stroke-width:0.6;" x="349.649059" xlink:href="#mf3761c0430" y="289.052578"/>
      </g>
     </g>
    </g>
    <g id="xtick_37">
     <g id="line2d_37">
      <g>
       <use style="stroke:#000000;stroke-width:0.6;" x="354.17939" xlink:href="#mf3761c0430" y="289.052578"/>
      </g>
     </g>
    </g>
    <g id="xtick_38">
     <g id="line2d_38">
      <g>
       <use style="stroke:#000000;stroke-width:0.6;" x="358.175425" xlink:href="#mf3761c0430" y="289.052578"/>
      </g>
     </g>
    </g>
    <g id="xtick_39">
     <g id="line2d_39">
      <g>
       <use style="stroke:#000000;stroke-width:0.6;" x="385.266463" xlink:href="#mf3761c0430" y="289.052578"/>
      </g>
     </g>
    </g>
    <g id="xtick_40">
     <g id="line2d_40">
      <g>
       <use style="stroke:#000000;stroke-width:0.6;" x="399.022712" xlink:href="#mf3761c0430" y="289.052578"/>
      </g>
     </g>
    </g>
    <g id="xtick_41">
     <g id="line2d_41">
      <g>
       <use style="stroke:#000000;stroke-width:0.6;" x="408.782927" xlink:href="#mf3761c0430" y="289.052578"/>
      </g>
     </g>
    </g>
    <g id="xtick_42">
     <g id="line2d_42">
      <g>
       <use style="stroke:#000000;stroke-width:0.6;" x="416.353537" xlink:href="#mf3761c0430" y="289.052578"/>
      </g>
     </g>
    </g>
    <g id="xtick_43">
     <g id="line2d_43">
      <g>
       <use style="stroke:#000000;stroke-width:0.6;" x="422.539176" xlink:href="#mf3761c0430" y="289.052578"/>
      </g>
     </g>
    </g>
    <g id="xtick_44">
     <g id="line2d_44">
      <g>
       <use style="stroke:#000000;stroke-width:0.6;" x="427.769059" xlink:href="#mf3761c0430" y="289.052578"/>
      </g>
     </g>
    </g>
    <g id="xtick_45">
     <g id="line2d_45">
      <g>
       <use style="stroke:#000000;stroke-width:0.6;" x="432.29939" xlink:href="#mf3761c0430" y="289.052578"/>
      </g>
     </g>
    </g>
    <g id="xtick_46">
     <g id="line2d_46">
      <g>
       <use style="stroke:#000000;stroke-width:0.6;" x="436.295425" xlink:href="#mf3761c0430" y="289.052578"/>
      </g>
     </g>
    </g>
    <g id="text_7">
     <!-- Tempo (s) -->
     <defs>
      <path d="M 25.921875 0 
L 25.921875 63.140625 
L 2.34375 63.140625 
L 2.34375 71.578125 
L 59.078125 71.578125 
L 59.078125 63.140625 
L 35.40625 63.140625 
L 35.40625 0 
z
" id="ArialMT-54"/>
      <path d="M 42.09375 16.703125 
L 51.171875 15.578125 
Q 49.03125 7.625 43.21875 3.21875 
Q 37.40625 -1.171875 28.375 -1.171875 
Q 17 -1.171875 10.328125 5.828125 
Q 3.65625 12.84375 3.65625 25.484375 
Q 3.65625 38.578125 10.390625 45.796875 
Q 17.140625 53.03125 27.875 53.03125 
Q 38.28125 53.03125 44.875 45.953125 
Q 51.46875 38.875 51.46875 26.03125 
Q 51.46875 25.25 51.421875 23.6875 
L 12.75 23.6875 
Q 13.234375 15.140625 17.578125 10.59375 
Q 21.921875 6.0625 28.421875 6.0625 
Q 33.25 6.0625 36.671875 8.59375 
Q 40.09375 11.140625 42.09375 16.703125 
z
M 13.234375 30.90625 
L 42.1875 30.90625 
Q 41.609375 37.453125 38.875 40.71875 
Q 34.671875 45.796875 27.984375 45.796875 
Q 21.921875 45.796875 17.796875 41.75 
Q 13.671875 37.703125 13.234375 30.90625 
z
" id="ArialMT-65"/>
      <path d="M 6.59375 0 
L 6.59375 51.859375 
L 14.453125 51.859375 
L 14.453125 44.578125 
Q 16.890625 48.390625 20.9375 50.703125 
Q 25 53.03125 30.171875 53.03125 
Q 35.9375 53.03125 39.625 50.640625 
Q 43.3125 48.25 44.828125 43.953125 
Q 50.984375 53.03125 60.84375 53.03125 
Q 68.5625 53.03125 72.703125 48.75 
Q 76.859375 44.484375 76.859375 35.59375 
L 76.859375 0 
L 68.109375 0 
L 68.109375 32.671875 
Q 68.109375 37.9375 67.25 40.25 
Q 66.40625 42.578125 64.15625 43.984375 
Q 61.921875 45.40625 58.890625 45.40625 
Q 53.421875 45.40625 49.796875 41.765625 
Q 46.1875 38.140625 46.1875 30.125 
L 46.1875 0 
L 37.40625 0 
L 37.40625 33.6875 
Q 37.40625 39.546875 35.25 42.46875 
Q 33.109375 45.40625 28.21875 45.40625 
Q 24.515625 45.40625 21.359375 43.453125 
Q 18.21875 41.5 16.796875 37.734375 
Q 15.375 33.984375 15.375 26.90625 
L 15.375 0 
z
" id="ArialMT-6d"/>
      <path d="M 6.59375 -19.875 
L 6.59375 51.859375 
L 14.59375 51.859375 
L 14.59375 45.125 
Q 17.4375 49.078125 21 51.046875 
Q 24.5625 53.03125 29.640625 53.03125 
Q 36.28125 53.03125 41.359375 49.609375 
Q 46.4375 46.1875 49.015625 39.953125 
Q 51.609375 33.734375 51.609375 26.3125 
Q 51.609375 18.359375 48.75 11.984375 
Q 45.90625 5.609375 40.453125 2.21875 
Q 35.015625 -1.171875 29 -1.171875 
Q 24.609375 -1.171875 21.109375 0.6875 
Q 17.625 2.546875 15.375 5.375 
L 15.375 -19.875 
z
M 14.546875 25.640625 
Q 14.546875 15.625 18.59375 10.84375 
Q 22.65625 6.0625 28.421875 6.0625 
Q 34.28125 6.0625 38.453125 11.015625 
Q 42.625 15.96875 42.625 26.375 
Q 42.625 36.28125 38.546875 41.203125 
Q 34.46875 46.140625 28.8125 46.140625 
Q 23.1875 46.140625 18.859375 40.890625 
Q 14.546875 35.640625 14.546875 25.640625 
z
" id="ArialMT-70"/>
      <path d="M 3.328125 25.921875 
Q 3.328125 40.328125 11.328125 47.265625 
Q 18.015625 53.03125 27.640625 53.03125 
Q 38.328125 53.03125 45.109375 46.015625 
Q 51.90625 39.015625 51.90625 26.65625 
Q 51.90625 16.65625 48.90625 10.90625 
Q 45.90625 5.171875 40.15625 2 
Q 34.421875 -1.171875 27.640625 -1.171875 
Q 16.75 -1.171875 10.03125 5.8125 
Q 3.328125 12.796875 3.328125 25.921875 
z
M 12.359375 25.921875 
Q 12.359375 15.96875 16.703125 11.015625 
Q 21.046875 6.0625 27.640625 6.0625 
Q 34.1875 6.0625 38.53125 11.03125 
Q 42.875 16.015625 42.875 26.21875 
Q 42.875 35.84375 38.5 40.796875 
Q 34.125 45.75 27.640625 45.75 
Q 21.046875 45.75 16.703125 40.8125 
Q 12.359375 35.890625 12.359375 25.921875 
z
" id="ArialMT-6f"/>
      <path id="ArialMT-20"/>
      <path d="M 23.390625 -21.046875 
Q 16.109375 -11.859375 11.078125 0.4375 
Q 6.0625 12.75 6.0625 25.921875 
Q 6.0625 37.546875 9.8125 48.1875 
Q 14.203125 60.546875 23.390625 72.796875 
L 29.6875 72.796875 
Q 23.78125 62.640625 21.875 58.296875 
Q 18.890625 51.5625 17.1875 44.234375 
Q 15.09375 35.109375 15.09375 25.875 
Q 15.09375 2.390625 29.6875 -21.046875 
z
" id="ArialMT-28"/>
      <path d="M 3.078125 15.484375 
L 11.765625 16.84375 
Q 12.5 11.625 15.84375 8.84375 
Q 19.1875 6.0625 25.203125 6.0625 
Q 31.25 6.0625 34.171875 8.515625 
Q 37.109375 10.984375 37.109375 14.3125 
Q 37.109375 17.28125 34.515625 19 
Q 32.71875 20.171875 25.53125 21.96875 
Q 15.875 24.421875 12.140625 26.203125 
Q 8.40625 27.984375 6.46875 31.125 
Q 4.546875 34.28125 4.546875 38.09375 
Q 4.546875 41.546875 6.125 44.5 
Q 7.71875 47.46875 10.453125 49.421875 
Q 12.5 50.921875 16.03125 51.96875 
Q 19.578125 53.03125 23.640625 53.03125 
Q 29.734375 53.03125 34.34375 51.265625 
Q 38.96875 49.515625 41.15625 46.5 
Q 43.359375 43.5 44.1875 38.484375 
L 35.59375 37.3125 
Q 35.015625 41.3125 32.203125 43.546875 
Q 29.390625 45.796875 24.265625 45.796875 
Q 18.21875 45.796875 15.625 43.796875 
Q 13.03125 41.796875 13.03125 39.109375 
Q 13.03125 37.40625 14.109375 36.03125 
Q 15.1875 34.625 17.484375 33.6875 
Q 18.796875 33.203125 25.25 31.453125 
Q 34.578125 28.953125 38.25 27.359375 
Q 41.9375 25.78125 44.03125 22.75 
Q 46.140625 19.734375 46.140625 15.234375 
Q 46.140625 10.84375 43.578125 6.953125 
Q 41.015625 3.078125 36.171875 0.953125 
Q 31.34375 -1.171875 25.25 -1.171875 
Q 15.140625 -1.171875 9.84375 3.03125 
Q 4.546875 7.234375 3.078125 15.484375 
z
" id="ArialMT-73"/>
      <path d="M 12.359375 -21.046875 
L 6.0625 -21.046875 
Q 20.65625 2.390625 20.65625 25.875 
Q 20.65625 35.0625 18.5625 44.09375 
Q 16.890625 51.421875 13.921875 58.15625 
Q 12.015625 62.546875 6.0625 72.796875 
L 12.359375 72.796875 
Q 21.53125 60.546875 25.921875 48.1875 
Q 29.6875 37.546875 29.6875 25.921875 
Q 29.6875 12.75 24.625 0.4375 
Q 19.578125 -11.859375 12.359375 -21.046875 
z
" id="ArialMT-29"/>
     </defs>
     <g transform="translate(214.968594 325.506172)scale(0.13 -0.13)">
      <use xlink:href="#ArialMT-54"/>
      <use x="60.912109" xlink:href="#ArialMT-65"/>
      <use x="116.527344" xlink:href="#ArialMT-6d"/>
      <use x="199.828125" xlink:href="#ArialMT-70"/>
      <use x="255.443359" xlink:href="#ArialMT-6f"/>
      <use x="311.058594" xlink:href="#ArialMT-20"/>
      <use x="338.841797" xlink:href="#ArialMT-28"/>
      <use x="372.142578" xlink:href="#ArialMT-73"/>
      <use x="422.142578" xlink:href="#ArialMT-29"/>
     </g>
    </g>
   </g>
   <g id="matplotlib.axis_2">
    <g id="ytick_1">
     <g id="line2d_47">
      <defs>
       <path d="M 0 0 
L -3.5 0 
" id="m3da1ae7f65" style="stroke:#000000;stroke-width:0.8;"/>
      </defs>
      <g>
       <use style="stroke:#000000;stroke-width:0.8;" x="49.27" xlink:href="#m3da1ae7f65" y="289.052578"/>
      </g>
     </g>
     <g id="text_8">
      <!-- 0.0 -->
      <defs>
       <path d="M 9.078125 0 
L 9.078125 10.015625 
L 19.09375 10.015625 
L 19.09375 0 
z
" id="ArialMT-2e"/>
      </defs>
      <g transform="translate(24.2 293.705156)scale(0.13 -0.13)">
       <use xlink:href="#ArialMT-30"/>
       <use x="55.615234" xlink:href="#ArialMT-2e"/>
       <use x="83.398438" xlink:href="#ArialMT-30"/>
      </g>
     </g>
    </g>
    <g id="ytick_2">
     <g id="line2d_48">
      <g>
       <use style="stroke:#000000;stroke-width:0.8;" x="49.27" xlink:href="#m3da1ae7f65" y="249.452578"/>
      </g>
     </g>
     <g id="text_9">
      <!-- 0.2 -->
      <g transform="translate(24.2 254.105156)scale(0.13 -0.13)">
       <use xlink:href="#ArialMT-30"/>
       <use x="55.615234" xlink:href="#ArialMT-2e"/>
       <use x="83.398438" xlink:href="#ArialMT-32"/>
      </g>
     </g>
    </g>
    <g id="ytick_3">
     <g id="line2d_49">
      <g>
       <use style="stroke:#000000;stroke-width:0.8;" x="49.27" xlink:href="#m3da1ae7f65" y="209.852578"/>
      </g>
     </g>
     <g id="text_10">
      <!-- 0.4 -->
      <defs>
       <path d="M 32.328125 0 
L 32.328125 17.140625 
L 1.265625 17.140625 
L 1.265625 25.203125 
L 33.9375 71.578125 
L 41.109375 71.578125 
L 41.109375 25.203125 
L 50.78125 25.203125 
L 50.78125 17.140625 
L 41.109375 17.140625 
L 41.109375 0 
z
M 32.328125 25.203125 
L 32.328125 57.46875 
L 9.90625 25.203125 
z
" id="ArialMT-34"/>
      </defs>
      <g transform="translate(24.2 214.505156)scale(0.13 -0.13)">
       <use xlink:href="#ArialMT-30"/>
       <use x="55.615234" xlink:href="#ArialMT-2e"/>
       <use x="83.398438" xlink:href="#ArialMT-34"/>
      </g>
     </g>
    </g>
    <g id="ytick_4">
     <g id="line2d_50">
      <g>
       <use style="stroke:#000000;stroke-width:0.8;" x="49.27" xlink:href="#m3da1ae7f65" y="170.252578"/>
      </g>
     </g>
     <g id="text_11">
      <!-- 0.6 -->
      <defs>
       <path d="M 49.75 54.046875 
L 41.015625 53.375 
Q 39.84375 58.546875 37.703125 60.890625 
Q 34.125 64.65625 28.90625 64.65625 
Q 24.703125 64.65625 21.53125 62.3125 
Q 17.390625 59.28125 14.984375 53.46875 
Q 12.59375 47.65625 12.5 36.921875 
Q 15.671875 41.75 20.265625 44.09375 
Q 24.859375 46.4375 29.890625 46.4375 
Q 38.671875 46.4375 44.84375 39.96875 
Q 51.03125 33.5 51.03125 23.25 
Q 51.03125 16.5 48.125 10.71875 
Q 45.21875 4.9375 40.140625 1.859375 
Q 35.0625 -1.21875 28.609375 -1.21875 
Q 17.625 -1.21875 10.6875 6.859375 
Q 3.765625 14.9375 3.765625 33.5 
Q 3.765625 54.25 11.421875 63.671875 
Q 18.109375 71.875 29.4375 71.875 
Q 37.890625 71.875 43.28125 67.140625 
Q 48.6875 62.40625 49.75 54.046875 
z
M 13.875 23.1875 
Q 13.875 18.65625 15.796875 14.5 
Q 17.71875 10.359375 21.1875 8.171875 
Q 24.65625 6 28.46875 6 
Q 34.03125 6 38.03125 10.484375 
Q 42.046875 14.984375 42.046875 22.703125 
Q 42.046875 30.125 38.078125 34.390625 
Q 34.125 38.671875 28.125 38.671875 
Q 22.171875 38.671875 18.015625 34.390625 
Q 13.875 30.125 13.875 23.1875 
z
" id="ArialMT-36"/>
      </defs>
      <g transform="translate(24.2 174.905156)scale(0.13 -0.13)">
       <use xlink:href="#ArialMT-30"/>
       <use x="55.615234" xlink:href="#ArialMT-2e"/>
       <use x="83.398438" xlink:href="#ArialMT-36"/>
      </g>
     </g>
    </g>
    <g id="ytick_5">
     <g id="line2d_51">
      <g>
       <use style="stroke:#000000;stroke-width:0.8;" x="49.27" xlink:href="#m3da1ae7f65" y="130.652578"/>
      </g>
     </g>
     <g id="text_12">
      <!-- 0.8 -->
      <defs>
       <path d="M 17.671875 38.8125 
Q 12.203125 40.828125 9.5625 44.53125 
Q 6.9375 48.25 6.9375 53.421875 
Q 6.9375 61.234375 12.546875 66.546875 
Q 18.171875 71.875 27.484375 71.875 
Q 36.859375 71.875 42.578125 66.421875 
Q 48.296875 60.984375 48.296875 53.171875 
Q 48.296875 48.1875 45.671875 44.5 
Q 43.0625 40.828125 37.75 38.8125 
Q 44.34375 36.671875 47.78125 31.875 
Q 51.21875 27.09375 51.21875 20.453125 
Q 51.21875 11.28125 44.71875 5.03125 
Q 38.234375 -1.21875 27.640625 -1.21875 
Q 17.046875 -1.21875 10.546875 5.046875 
Q 4.046875 11.328125 4.046875 20.703125 
Q 4.046875 27.6875 7.59375 32.390625 
Q 11.140625 37.109375 17.671875 38.8125 
z
M 15.921875 53.71875 
Q 15.921875 48.640625 19.1875 45.40625 
Q 22.46875 42.1875 27.6875 42.1875 
Q 32.765625 42.1875 36.015625 45.375 
Q 39.265625 48.578125 39.265625 53.21875 
Q 39.265625 58.0625 35.90625 61.359375 
Q 32.5625 64.65625 27.59375 64.65625 
Q 22.5625 64.65625 19.234375 61.421875 
Q 15.921875 58.203125 15.921875 53.71875 
z
M 13.09375 20.65625 
Q 13.09375 16.890625 14.875 13.375 
Q 16.65625 9.859375 20.171875 7.921875 
Q 23.6875 6 27.734375 6 
Q 34.03125 6 38.125 10.046875 
Q 42.234375 14.109375 42.234375 20.359375 
Q 42.234375 26.703125 38.015625 30.859375 
Q 33.796875 35.015625 27.4375 35.015625 
Q 21.234375 35.015625 17.15625 30.90625 
Q 13.09375 26.8125 13.09375 20.65625 
z
" id="ArialMT-38"/>
      </defs>
      <g transform="translate(24.2 135.305156)scale(0.13 -0.13)">
       <use xlink:href="#ArialMT-30"/>
       <use x="55.615234" xlink:href="#ArialMT-2e"/>
       <use x="83.398438" xlink:href="#ArialMT-38"/>
      </g>
     </g>
    </g>
    <g id="ytick_6">
     <g id="line2d_52">
      <g>
       <use style="stroke:#000000;stroke-width:0.8;" x="49.27" xlink:href="#m3da1ae7f65" y="91.052578"/>
      </g>
     </g>
     <g id="text_13">
      <!-- 1.0 -->
      <g transform="translate(24.2 95.705156)scale(0.13 -0.13)">
       <use xlink:href="#ArialMT-31"/>
       <use x="55.615234" xlink:href="#ArialMT-2e"/>
       <use x="83.398438" xlink:href="#ArialMT-30"/>
      </g>
     </g>
    </g>
    <g id="ytick_7">
     <g id="line2d_53">
      <g>
       <use style="stroke:#000000;stroke-width:0.8;" x="49.27" xlink:href="#m3da1ae7f65" y="51.452578"/>
      </g>
     </g>
     <g id="text_14">
      <!-- 1.2 -->
      <g transform="translate(24.2 56.105156)scale(0.13 -0.13)">
       <use xlink:href="#ArialMT-31"/>
       <use x="55.615234" xlink:href="#ArialMT-2e"/>
       <use x="83.398438" xlink:href="#ArialMT-32"/>
      </g>
     </g>
    </g>
    <g id="ytick_8">
     <g id="line2d_54">
      <g>
       <use style="stroke:#000000;stroke-width:0.8;" x="49.27" xlink:href="#m3da1ae7f65" y="11.852578"/>
      </g>
     </g>
     <g id="text_15">
      <!-- 1.4 -->
      <g transform="translate(24.2 16.505156)scale(0.13 -0.13)">
       <use xlink:href="#ArialMT-31"/>
       <use x="55.615234" xlink:href="#ArialMT-2e"/>
       <use x="83.398438" xlink:href="#ArialMT-34"/>
      </g>
     </g>
    </g>
    <g id="text_16">
     <!-- Carbono médio em $\alpha' + \theta$ (%) -->
     <defs>
      <path d="M 58.796875 25.09375 
L 68.265625 22.703125 
Q 65.28125 11.03125 57.546875 4.90625 
Q 49.8125 -1.21875 38.625 -1.21875 
Q 27.046875 -1.21875 19.796875 3.484375 
Q 12.546875 8.203125 8.765625 17.140625 
Q 4.984375 26.078125 4.984375 36.328125 
Q 4.984375 47.515625 9.25 55.828125 
Q 13.53125 64.15625 21.40625 68.46875 
Q 29.296875 72.796875 38.765625 72.796875 
Q 49.515625 72.796875 56.828125 67.328125 
Q 64.15625 61.859375 67.046875 51.953125 
L 57.71875 49.75 
Q 55.21875 57.5625 50.484375 61.125 
Q 45.75 64.703125 38.578125 64.703125 
Q 30.328125 64.703125 24.78125 60.734375 
Q 19.234375 56.78125 16.984375 50.109375 
Q 14.75 43.453125 14.75 36.375 
Q 14.75 27.25 17.40625 20.4375 
Q 20.0625 13.625 25.671875 10.25 
Q 31.296875 6.890625 37.84375 6.890625 
Q 45.796875 6.890625 51.3125 11.46875 
Q 56.84375 16.0625 58.796875 25.09375 
z
" id="ArialMT-43"/>
      <path d="M 40.4375 6.390625 
Q 35.546875 2.25 31.03125 0.53125 
Q 26.515625 -1.171875 21.34375 -1.171875 
Q 12.796875 -1.171875 8.203125 3 
Q 3.609375 7.171875 3.609375 13.671875 
Q 3.609375 17.484375 5.34375 20.625 
Q 7.078125 23.78125 9.890625 25.6875 
Q 12.703125 27.59375 16.21875 28.5625 
Q 18.796875 29.25 24.03125 29.890625 
Q 34.671875 31.15625 39.703125 32.90625 
Q 39.75 34.71875 39.75 35.203125 
Q 39.75 40.578125 37.25 42.78125 
Q 33.890625 45.75 27.25 45.75 
Q 21.046875 45.75 18.09375 43.578125 
Q 15.140625 41.40625 13.71875 35.890625 
L 5.125 37.0625 
Q 6.296875 42.578125 8.984375 45.96875 
Q 11.671875 49.359375 16.75 51.1875 
Q 21.828125 53.03125 28.515625 53.03125 
Q 35.15625 53.03125 39.296875 51.46875 
Q 43.453125 49.90625 45.40625 47.53125 
Q 47.359375 45.171875 48.140625 41.546875 
Q 48.578125 39.3125 48.578125 33.453125 
L 48.578125 21.734375 
Q 48.578125 9.46875 49.140625 6.21875 
Q 49.703125 2.984375 51.375 0 
L 42.1875 0 
Q 40.828125 2.734375 40.4375 6.390625 
z
M 39.703125 26.03125 
Q 34.90625 24.078125 25.34375 22.703125 
Q 19.921875 21.921875 17.671875 20.9375 
Q 15.4375 19.96875 14.203125 18.09375 
Q 12.984375 16.21875 12.984375 13.921875 
Q 12.984375 10.40625 15.640625 8.0625 
Q 18.3125 5.71875 23.4375 5.71875 
Q 28.515625 5.71875 32.46875 7.9375 
Q 36.421875 10.15625 38.28125 14.015625 
Q 39.703125 17 39.703125 22.796875 
z
" id="ArialMT-61"/>
      <path d="M 6.5 0 
L 6.5 51.859375 
L 14.40625 51.859375 
L 14.40625 44 
Q 17.4375 49.515625 20 51.265625 
Q 22.5625 53.03125 25.640625 53.03125 
Q 30.078125 53.03125 34.671875 50.203125 
L 31.640625 42.046875 
Q 28.421875 43.953125 25.203125 43.953125 
Q 22.3125 43.953125 20.015625 42.21875 
Q 17.71875 40.484375 16.75 37.40625 
Q 15.28125 32.71875 15.28125 27.15625 
L 15.28125 0 
z
" id="ArialMT-72"/>
      <path d="M 14.703125 0 
L 6.546875 0 
L 6.546875 71.578125 
L 15.328125 71.578125 
L 15.328125 46.046875 
Q 20.90625 53.03125 29.546875 53.03125 
Q 34.328125 53.03125 38.59375 51.09375 
Q 42.875 49.171875 45.625 45.671875 
Q 48.390625 42.1875 49.953125 37.25 
Q 51.515625 32.328125 51.515625 26.703125 
Q 51.515625 13.375 44.921875 6.09375 
Q 38.328125 -1.171875 29.109375 -1.171875 
Q 19.921875 -1.171875 14.703125 6.5 
z
M 14.59375 26.3125 
Q 14.59375 17 17.140625 12.84375 
Q 21.296875 6.0625 28.375 6.0625 
Q 34.125 6.0625 38.328125 11.0625 
Q 42.53125 16.0625 42.53125 25.984375 
Q 42.53125 36.140625 38.5 40.96875 
Q 34.46875 45.796875 28.765625 45.796875 
Q 23 45.796875 18.796875 40.796875 
Q 14.59375 35.796875 14.59375 26.3125 
z
" id="ArialMT-62"/>
      <path d="M 6.59375 0 
L 6.59375 51.859375 
L 14.5 51.859375 
L 14.5 44.484375 
Q 20.21875 53.03125 31 53.03125 
Q 35.6875 53.03125 39.625 51.34375 
Q 43.5625 49.65625 45.515625 46.921875 
Q 47.46875 44.1875 48.25 40.4375 
Q 48.734375 37.984375 48.734375 31.890625 
L 48.734375 0 
L 39.9375 0 
L 39.9375 31.546875 
Q 39.9375 36.921875 38.90625 39.578125 
Q 37.890625 42.234375 35.28125 43.8125 
Q 32.671875 45.40625 29.15625 45.40625 
Q 23.53125 45.40625 19.453125 41.84375 
Q 15.375 38.28125 15.375 28.328125 
L 15.375 0 
z
" id="ArialMT-6e"/>
      <path d="M 42.09375 16.703125 
L 51.171875 15.578125 
Q 49.03125 7.625 43.21875 3.21875 
Q 37.40625 -1.171875 28.375 -1.171875 
Q 17 -1.171875 10.328125 5.828125 
Q 3.65625 12.84375 3.65625 25.484375 
Q 3.65625 38.578125 10.390625 45.796875 
Q 17.140625 53.03125 27.875 53.03125 
Q 38.28125 53.03125 44.875 45.953125 
Q 51.46875 38.875 51.46875 26.03125 
Q 51.46875 25.25 51.421875 23.6875 
L 12.75 23.6875 
Q 13.234375 15.140625 17.578125 10.59375 
Q 21.921875 6.0625 28.421875 6.0625 
Q 33.25 6.0625 36.671875 8.59375 
Q 40.09375 11.140625 42.09375 16.703125 
z
M 13.234375 30.90625 
L 42.1875 30.90625 
Q 41.609375 37.453125 38.875 40.71875 
Q 34.671875 45.796875 27.984375 45.796875 
Q 21.921875 45.796875 17.796875 41.75 
Q 13.671875 37.703125 13.234375 30.90625 
z
M 22.71875 58.296875 
L 29.203125 71.96875 
L 40.734375 71.96875 
L 29.984375 58.296875 
z
" id="ArialMT-e9"/>
      <path d="M 40.234375 0 
L 40.234375 6.546875 
Q 35.296875 -1.171875 25.734375 -1.171875 
Q 19.53125 -1.171875 14.328125 2.25 
Q 9.125 5.671875 6.265625 11.796875 
Q 3.421875 17.921875 3.421875 25.875 
Q 3.421875 33.640625 6 39.96875 
Q 8.59375 46.296875 13.765625 49.65625 
Q 18.953125 53.03125 25.34375 53.03125 
Q 30.03125 53.03125 33.6875 51.046875 
Q 37.359375 49.078125 39.65625 45.90625 
L 39.65625 71.578125 
L 48.390625 71.578125 
L 48.390625 0 
z
M 12.453125 25.875 
Q 12.453125 15.921875 16.640625 10.984375 
Q 20.84375 6.0625 26.5625 6.0625 
Q 32.328125 6.0625 36.34375 10.765625 
Q 40.375 15.484375 40.375 25.140625 
Q 40.375 35.796875 36.265625 40.765625 
Q 32.171875 45.75 26.171875 45.75 
Q 20.3125 45.75 16.375 40.96875 
Q 12.453125 36.1875 12.453125 25.875 
z
" id="ArialMT-64"/>
      <path d="M 6.640625 61.46875 
L 6.640625 71.578125 
L 15.4375 71.578125 
L 15.4375 61.46875 
z
M 6.640625 0 
L 6.640625 51.859375 
L 15.4375 51.859375 
L 15.4375 0 
z
" id="ArialMT-69"/>
      <path d="M 40.921875 25.4375 
L 40.96875 36.71875 
Q 41.015625 48.25 32.328125 48.296875 
Q 25.828125 48.34375 21.78125 42.921875 
Q 16.703125 36.234375 14.984375 27.296875 
Q 12.890625 16.546875 15.53125 11.421875 
Q 18.265625 6.203125 24.171875 6.203125 
Q 30.71875 6.203125 36.234375 16.609375 
z
M 33.84375 55.90625 
Q 49.078125 56.15625 48.875 40.375 
Q 48.875 40.375 56.5 54.6875 
L 64.5 54.6875 
L 48.734375 25.046875 
L 48.578125 14.359375 
Q 48.578125 11.96875 49.90625 9.96875 
Q 51.421875 7.625 52.984375 7.625 
L 57.328125 7.625 
L 55.859375 0 
L 50.4375 0 
Q 45.84375 0 42.53125 4.109375 
Q 40.96875 6.15625 40.921875 10.453125 
Q 37.75 5.21875 32.28125 0.78125 
Q 29.6875 -1.265625 22.703125 -1.21875 
Q 11.28125 -1.125 7.125 6.203125 
Q 2.875 13.8125 5.515625 27.296875 
Q 8.34375 41.796875 15.765625 48.390625 
Q 24.125 55.765625 33.84375 55.90625 
z
" id="DejaVuSans-Oblique-3b1"/>
      <path d="M 3.515625 5.421875 
Q 2.875 5.609375 2.875 6.390625 
L 15.09375 51.8125 
Q 15.671875 53.65625 17.078125 54.78125 
Q 18.5 55.90625 20.3125 55.90625 
Q 22.65625 55.90625 24.4375 54.359375 
Q 26.21875 52.828125 26.21875 50.484375 
Q 26.21875 49.46875 25.6875 48.1875 
L 7.625 4.984375 
Q 7.28125 4.296875 6.6875 4.296875 
Q 6.15625 4.296875 5 4.78125 
Q 3.859375 5.28125 3.515625 5.421875 
z
" id="Cmsy10-30"/>
      <path d="M 46 62.703125 
L 46 35.5 
L 73.1875 35.5 
L 73.1875 27.203125 
L 46 27.203125 
L 46 0 
L 37.796875 0 
L 37.796875 27.203125 
L 10.59375 27.203125 
L 10.59375 35.5 
L 37.796875 35.5 
L 37.796875 62.703125 
z
" id="DejaVuSans-2b"/>
      <path d="M 45.515625 34.671875 
L 14.453125 34.671875 
Q 12.359375 20.0625 14.5 13.875 
Q 17.1875 6.25 24.46875 6.25 
Q 31.78125 6.25 37.359375 13.921875 
Q 42.234375 20.65625 45.515625 34.671875 
z
M 47.015625 42.96875 
Q 48.34375 56.84375 46.625 61.71875 
Q 43.953125 69.4375 36.765625 69.4375 
Q 29.296875 69.4375 23.828125 61.8125 
Q 19.53125 55.671875 16.15625 42.96875 
z
M 38.1875 76.765625 
Q 49.90625 76.765625 54.59375 66.40625 
Q 59.28125 56.109375 55.71875 37.84375 
Q 52.203125 19.625 43.453125 9.28125 
Q 34.765625 -1.125 23.046875 -1.125 
Q 11.28125 -1.125 6.640625 9.28125 
Q 2 19.625 5.515625 37.84375 
Q 9.078125 56.109375 17.71875 66.40625 
Q 26.421875 76.765625 38.1875 76.765625 
z
" id="DejaVuSans-Oblique-3b8"/>
      <path d="M 5.8125 54.390625 
Q 5.8125 62.0625 9.671875 67.421875 
Q 13.53125 72.796875 20.84375 72.796875 
Q 27.59375 72.796875 32 67.984375 
Q 36.421875 63.1875 36.421875 53.859375 
Q 36.421875 44.78125 31.953125 39.875 
Q 27.484375 34.96875 20.953125 34.96875 
Q 14.453125 34.96875 10.125 39.796875 
Q 5.8125 44.625 5.8125 54.390625 
z
M 21.09375 66.75 
Q 17.828125 66.75 15.65625 63.90625 
Q 13.484375 61.078125 13.484375 53.515625 
Q 13.484375 46.625 15.671875 43.8125 
Q 17.875 41.015625 21.09375 41.015625 
Q 24.421875 41.015625 26.59375 43.84375 
Q 28.765625 46.6875 28.765625 54.203125 
Q 28.765625 61.140625 26.5625 63.9375 
Q 24.359375 66.75 21.09375 66.75 
z
M 21.140625 -2.640625 
L 60.296875 72.796875 
L 67.4375 72.796875 
L 28.421875 -2.640625 
z
M 52.09375 16.796875 
Q 52.09375 24.515625 55.953125 29.859375 
Q 59.8125 35.203125 67.1875 35.203125 
Q 73.921875 35.203125 78.34375 30.390625 
Q 82.765625 25.59375 82.765625 16.265625 
Q 82.765625 7.171875 78.296875 2.265625 
Q 73.828125 -2.640625 67.234375 -2.640625 
Q 60.75 -2.640625 56.421875 2.21875 
Q 52.09375 7.078125 52.09375 16.796875 
z
M 67.4375 29.15625 
Q 64.109375 29.15625 61.9375 26.3125 
Q 59.765625 23.484375 59.765625 15.921875 
Q 59.765625 9.078125 61.953125 6.25 
Q 64.15625 3.421875 67.390625 3.421875 
Q 70.75 3.421875 72.921875 6.25 
Q 75.09375 9.078125 75.09375 16.609375 
Q 75.09375 23.53125 72.890625 26.34375 
Q 70.703125 29.15625 67.4375 29.15625 
z
" id="ArialMT-25"/>
     </defs>
     <g transform="translate(17.34 237.487578)rotate(-90)scale(0.13 -0.13)">
      <use transform="translate(0 0.584375)" xlink:href="#ArialMT-43"/>
      <use transform="translate(72.216797 0.584375)" xlink:href="#ArialMT-61"/>
      <use transform="translate(127.832031 0.584375)" xlink:href="#ArialMT-72"/>
      <use transform="translate(161.132812 0.584375)" xlink:href="#ArialMT-62"/>
      <use transform="translate(216.748047 0.584375)" xlink:href="#ArialMT-6f"/>
      <use transform="translate(272.363281 0.584375)" xlink:href="#ArialMT-6e"/>
      <use transform="translate(327.978516 0.584375)" xlink:href="#ArialMT-6f"/>
      <use transform="translate(383.59375 0.584375)" xlink:href="#ArialMT-20"/>
      <use transform="translate(411.376953 0.584375)" xlink:href="#ArialMT-6d"/>
      <use transform="translate(494.677734 0.584375)" xlink:href="#ArialMT-e9"/>
      <use transform="translate(550.292969 0.584375)" xlink:href="#ArialMT-64"/>
      <use transform="translate(605.908203 0.584375)" xlink:href="#ArialMT-69"/>
      <use transform="translate(628.125 0.584375)" xlink:href="#ArialMT-6f"/>
      <use transform="translate(683.740234 0.584375)" xlink:href="#ArialMT-20"/>
      <use transform="translate(711.523438 0.584375)" xlink:href="#ArialMT-65"/>
      <use transform="translate(767.138672 0.584375)" xlink:href="#ArialMT-6d"/>
      <use transform="translate(850.439453 0.584375)" xlink:href="#ArialMT-20"/>
      <use transform="translate(878.222656 0.584375)" xlink:href="#DejaVuSans-Oblique-3b1"/>
      <use transform="translate(948.812396 38.865625)scale(0.7)" xlink:href="#Cmsy10-30"/>
      <use transform="translate(990.272357 0.584375)" xlink:href="#DejaVuSans-2b"/>
      <use transform="translate(1093.543841 0.584375)" xlink:href="#DejaVuSans-Oblique-3b8"/>
      <use transform="translate(1154.725482 0.584375)" xlink:href="#ArialMT-20"/>
      <use transform="translate(1182.508685 0.584375)" xlink:href="#ArialMT-28"/>
      <use transform="translate(1215.809466 0.584375)" xlink:href="#ArialMT-25"/>
      <use transform="translate(1304.725482 0.584375)" xlink:href="#ArialMT-29"/>
     </g>
    </g>
   </g>
   <g id="line2d_55">
    <path clip-path="url(#p57f3a876c7)" d="M 47.529768 139.114701 
L 114.055211 138.92678 
L 153.985494 138.5956 
L 183.745641 138.130593 
L 207.805461 137.538926 
L 228.685485 136.801865 
L 246.5265 135.951367 
L 261.444181 135.038859 
L 275.178675 133.996 
L 288.59226 132.747511 
L 301.018451 131.344996 
L 311.180174 129.986768 
L 319.180332 128.74647 
L 325.243797 127.645234 
L 329.838746 126.635886 
L 333.71096 125.574211 
L 336.894477 124.470698 
L 339.344905 123.420534 
L 341.990488 122.029813 
L 344.155217 120.647685 
L 346.358708 118.971813 
L 348.625659 116.938749 
L 350.834925 114.608732 
L 352.946484 112.010126 
L 354.998515 109.093845 
L 356.990129 105.848266 
L 358.893436 102.311256 
L 360.665854 98.573842 
L 362.416856 94.381922 
L 364.110399 89.746033 
L 365.655442 84.876925 
L 367.149096 79.385937 
L 368.785797 72.391317 
L 369.857811 66.680977 
L 370.734665 60.773444 
L 371.583079 53.345056 
L 372.013252 47.384908 
L 372.157104 43.032746 
L 372.356236 43.054677 
L 439.87 43.054677 
L 439.87 43.054677 
" style="fill:none;stroke:#1f77b4;stroke-linecap:square;"/>
   </g>
   <g id="line2d_56">
    <path clip-path="url(#p57f3a876c7)" d="M 47.529768 139.157411 
L 321.524628 139.046309 
L 326.775919 138.804577 
L 330.330514 138.452529 
L 333.407238 137.943667 
L 335.993231 137.313139 
L 338.638238 136.424511 
L 340.869722 135.446901 
L 343.306995 134.10619 
L 345.53711 132.603411 
L 347.801519 130.785212 
L 349.89294 128.827763 
L 352.0508 126.516627 
L 354.30004 123.768688 
L 356.36568 120.918504 
L 358.64711 117.372827 
L 360.720105 113.745715 
L 362.949904 109.366633 
L 365.351706 104.10201 
L 367.206918 99.475181 
L 368.924756 94.595855 
L 370.533611 89.349089 
L 371.981899 83.869143 
L 373.286474 78.063674 
L 374.42619 71.977061 
L 375.675462 63.928661 
L 376.388102 57.746402 
L 376.999614 50.347924 
L 377.290558 44.272133 
L 377.344163 42.277164 
L 377.451122 42.287062 
L 439.87 42.287062 
L 439.87 42.287062 
" style="fill:none;stroke:#ff7f0e;stroke-linecap:square;"/>
   </g>
   <g id="line2d_57">
    <path clip-path="url(#p57f3a876c7)" d="M 47.529768 139.331833 
L 89.776309 139.649815 
L 138.070611 140.257426 
L 169.404428 140.858193 
L 193.578272 141.534849 
L 216.41276 142.430128 
L 232.321689 143.25486 
L 249.663287 144.401728 
L 259.748561 145.215607 
L 278.255619 147.061929 
L 289.101358 148.401153 
L 301.109776 150.154239 
L 311.187704 151.862682 
L 323.769358 153.970581 
L 327.477218 154.348704 
L 330.274794 154.457475 
L 332.898883 154.374432 
L 335.452548 154.086646 
L 337.744877 153.632567 
L 340.178409 152.936955 
L 342.61937 152.007652 
L 345.118728 150.812712 
L 347.62706 149.368496 
L 350.225737 147.617269 
L 352.926688 145.523708 
L 355.611826 143.161427 
L 358.307108 140.494021 
L 360.92582 137.593401 
L 363.51821 134.386027 
L 365.956483 131.02088 
L 368.343134 127.347319 
L 370.638203 123.398877 
L 372.836781 119.161967 
L 374.947531 114.599495 
L 376.902075 109.857131 
L 378.760401 104.758237 
L 380.492926 99.350735 
L 382.094727 93.622818 
L 383.570843 87.511986 
L 384.891198 81.0969 
L 386.054526 74.33986 
L 387.115089 66.821366 
L 387.908926 59.564604 
L 388.523184 51.869191 
L 388.913903 44.403428 
L 389.209682 39.274604 
L 439.87 39.274604 
L 439.87 39.274604 
" style="fill:none;stroke:#2ca02c;stroke-linecap:square;"/>
   </g>
   <g id="line2d_58">
    <path clip-path="url(#p57f3a876c7)" d="M 49.099939 140.015933 
L 78.759393 140.7369 
L 135.365312 142.350368 
L 158.204565 143.400863 
L 174.507638 144.399936 
L 188.348388 145.458591 
L 200.412738 146.574742 
L 211.822628 147.828987 
L 223.442748 149.341851 
L 233.768179 150.920976 
L 243.176237 152.583749 
L 251.814206 154.326134 
L 260.079593 156.213088 
L 268.008294 158.250907 
L 275.460409 160.394181 
L 282.40369 162.612587 
L 288.985665 164.933774 
L 295.835952 167.597874 
L 302.147627 170.293412 
L 308.720896 173.336792 
L 321.905556 179.518446 
L 325.595222 180.938233 
L 328.878024 181.97 
L 332.075029 182.745438 
L 335.404642 183.324806 
L 339.170439 183.746329 
L 343.676008 184.018732 
L 350.01063 184.166204 
L 364.092989 184.214907 
L 439.87 184.389505 
L 439.87 184.389505 
" style="fill:none;stroke:#d62728;stroke-linecap:square;"/>
   </g>
   <g id="line2d_59">
    <path clip-path="url(#p57f3a876c7)" d="M 49.099939 140.903728 
L 88.305555 142.203024 
L 109.200216 142.887223 
L 126.946056 143.701899 
L 143.335853 144.689751 
L 154.827021 145.547725 
L 167.947675 146.728425 
L 179.966393 148.033532 
L 190.894791 149.440403 
L 200.824218 150.931426 
L 210.720491 152.65127 
L 219.277556 154.354106 
L 227.304083 156.158004 
L 234.56993 157.984909 
L 242.212496 160.128289 
L 249.389811 162.371691 
L 256.159884 164.714877 
L 262.78737 167.244557 
L 269.222934 169.946621 
L 275.417218 172.798106 
L 281.367941 175.790703 
L 286.879014 178.802954 
L 292.334955 182.031616 
L 297.712636 185.469023 
L 303.29748 189.30567 
L 310.38006 194.463963 
L 318.257705 200.14441 
L 322.77275 203.116552 
L 327.416605 205.899053 
L 334.996547 210.119443 
L 341.157295 213.664308 
L 345.668166 216.516544 
L 349.745855 219.357413 
L 353.645094 222.34823 
L 357.432258 225.539731 
L 361.029944 228.85711 
L 364.627037 232.474439 
L 368.273225 236.470665 
L 371.805785 240.681009 
L 375.233741 245.10671 
L 378.698697 249.942159 
L 382.150559 255.143257 
L 385.604049 260.752978 
L 389.058323 266.793667 
L 392.502948 273.269227 
L 395.953264 280.232253 
L 398.920778 286.62199 
L 399.050973 288.575192 
L 399.242525 288.662321 
L 400.467343 288.721436 
L 408.612866 288.791329 
L 439.87 288.822223 
L 439.87 288.822223 
" style="fill:none;stroke:#9467bd;stroke-linecap:square;"/>
   </g>
   <g id="line2d_60">
    <path clip-path="url(#p57f3a876c7)" d="M 49.099939 144.777852 
L 59.072596 145.031529 
L 68.927978 145.519162 
L 82.141382 146.4031 
L 93.10324 147.358864 
L 104.143874 148.536343 
L 114.405235 149.851357 
L 123.777707 151.259446 
L 133.405578 152.938925 
L 142.919826 154.861944 
L 151.193625 156.775213 
L 158.626025 158.708643 
L 166.623599 161.042724 
L 173.341408 163.228773 
L 180.477552 165.801078 
L 187.980688 168.813255 
L 193.060736 171.049225 
L 200.2804 174.527053 
L 205.71464 177.397681 
L 213.524178 181.942388 
L 218.208365 184.926598 
L 223.51267 188.560331 
L 230.021072 193.41824 
L 235.127178 197.563073 
L 239.799813 201.633436 
L 244.270666 205.793483 
L 248.574976 210.059824 
L 252.846904 214.563392 
L 257.442845 219.727098 
L 262.500825 225.817176 
L 266.61436 231.105353 
L 270.823852 236.84795 
L 275.934052 244.297351 
L 280.773436 251.862372 
L 285.204433 259.232713 
L 290.12522 267.872308 
L 296.223197 279.053557 
L 299.774591 285.908638 
L 300.003595 286.709726 
L 300.433249 287.468841 
L 300.924843 287.905353 
L 301.557748 288.15958 
L 302.601589 288.308927 
L 305.38301 288.411658 
L 317.528593 288.561781 
L 350.273354 288.736832 
L 410.591368 288.82055 
L 439.87 288.822299 
L 439.87 288.822299 
" style="fill:none;stroke:#8c564b;stroke-linecap:square;"/>
   </g>
   <g id="line2d_61">
    <path clip-path="url(#p57f3a876c7)" d="M 49.099939 148.723682 
L 57.777512 150.2838 
L 65.637313 151.901674 
L 73.789307 153.818795 
L 81.028919 155.746259 
L 88.19802 157.879563 
L 95.0942 160.168769 
L 101.702022 162.602042 
L 107.869572 165.104218 
L 113.954537 167.811766 
L 119.670633 170.590499 
L 125.54246 173.702999 
L 131.006958 176.854173 
L 136.173611 180.077417 
L 141.371679 183.57799 
L 146.675306 187.436414 
L 151.41159 191.144913 
L 156.34171 195.287729 
L 161.388379 199.848179 
L 166.31802 204.637533 
L 171.199931 209.729781 
L 175.610548 214.649497 
L 179.969995 219.829198 
L 183.954424 224.855601 
L 188.292078 230.664013 
L 192.388156 236.489657 
L 196.514637 242.712845 
L 200.460018 249.014332 
L 204.691034 256.17557 
L 208.897461 263.732768 
L 213.094178 271.731588 
L 214.993431 275.216951 
L 216.523292 277.408474 
L 218.18619 279.410325 
L 219.904816 281.136477 
L 221.667237 282.594064 
L 223.492707 283.817004 
L 225.423604 284.842664 
L 227.508705 285.696096 
L 229.814526 286.39625 
L 232.459948 286.961902 
L 235.647521 287.407541 
L 239.775108 287.747222 
L 245.87207 288.004877 
L 257.446515 288.233543 
L 282.073192 288.471118 
L 338.297937 288.71942 
L 408.952139 288.820578 
L 439.87 288.822301 
L 439.87 288.822301 
" style="fill:none;stroke:#e377c2;stroke-linecap:square;"/>
   </g>
   <g id="line2d_62">
    <path clip-path="url(#p57f3a876c7)" d="M 49.099939 158.966394 
L 56.431023 161.201069 
L 63.363835 163.546764 
L 70.049636 166.045105 
L 76.479576 168.689404 
L 82.58906 171.442392 
L 88.46622 174.332166 
L 94.203674 177.40204 
L 99.767059 180.633602 
L 105.106173 183.990323 
L 110.368757 187.563392 
L 115.385855 191.232905 
L 120.47044 195.233438 
L 125.362857 199.368916 
L 130.157771 203.708798 
L 134.96061 208.355368 
L 139.761278 213.309303 
L 144.68688 218.711535 
L 149.9604 224.832779 
L 155.868724 232.04387 
L 163.977293 242.326755 
L 174.252866 255.303586 
L 179.348529 261.368528 
L 183.519352 265.998095 
L 187.233112 269.796222 
L 190.632805 272.962639 
L 193.842484 275.653444 
L 196.927851 277.952003 
L 199.916284 279.903734 
L 202.883326 281.576287 
L 205.679213 282.917613 
L 208.589031 284.06595 
L 211.695639 285.058401 
L 215.057504 285.895961 
L 218.696033 286.571148 
L 222.908611 287.117872 
L 227.993071 287.53947 
L 234.713689 287.856455 
L 245.498328 288.114327 
L 267.62982 288.384053 
L 300.51688 288.565576 
L 383.934462 288.80574 
L 439.87 288.822301 
L 439.87 288.822301 
" style="fill:none;stroke:#7f7f7f;stroke-linecap:square;"/>
   </g>
   <g id="line2d_63">
    <path clip-path="url(#p57f3a876c7)" d="M 49.27 139.157411 
L 439.87 139.157411 
" style="fill:none;stroke:#000000;stroke-dasharray:1,1.65;stroke-dashoffset:0;"/>
   </g>
   <g id="line2d_64">
    <path clip-path="url(#p57f3a876c7)" style="fill:none;stroke:#000000;stroke-dasharray:1,1.65;stroke-dashoffset:0;"/>
   </g>
   <g id="patch_3">
    <path d="M 49.27 289.052578 
L 49.27 11.852578 
" style="fill:none;stroke:#000000;stroke-linecap:square;stroke-linejoin:miter;stroke-width:0.8;"/>
   </g>
   <g id="patch_4">
    <path d="M 439.87 289.052578 
L 439.87 11.852578 
" style="fill:none;stroke:#000000;stroke-linecap:square;stroke-linejoin:miter;stroke-width:0.8;"/>
   </g>
   <g id="patch_5">
    <path d="M 49.27 289.052578 
L 439.87 289.052578 
" style="fill:none;stroke:#000000;stroke-linecap:square;stroke-linejoin:miter;stroke-width:0.8;"/>
   </g>
   <g id="patch_6">
    <path d="M 49.27 11.852578 
L 439.87 11.852578 
" style="fill:none;stroke:#000000;stroke-linecap:square;stroke-linejoin:miter;stroke-width:0.8;"/>
   </g>
   <g id="legend_1">
    <g id="patch_7">
     <path d="M 55.77 97.321484 
L 367.25 97.321484 
L 367.25 18.352578 
L 55.77 18.352578 
z
" style="fill:#ffffff;opacity:0.8;stroke:#cccccc;stroke-linejoin:miter;"/>
    </g>
    <g id="line2d_65">
     <path d="M 60.97 28.492578 
L 86.97 28.492578 
" style="fill:none;stroke:#1f77b4;stroke-linecap:square;"/>
    </g>
    <g id="line2d_66"/>
    <g id="text_17">
     <!-- $\alpha'-\theta$ ortho -->
     <defs>
      <path d="M 10.59375 35.5 
L 73.1875 35.5 
L 73.1875 27.203125 
L 10.59375 27.203125 
z
" id="DejaVuSans-2212"/>
      <path d="M 25.78125 7.859375 
L 27.046875 0.09375 
Q 23.34375 -0.6875 20.40625 -0.6875 
Q 15.625 -0.6875 12.984375 0.828125 
Q 10.359375 2.34375 9.28125 4.8125 
Q 8.203125 7.28125 8.203125 15.1875 
L 8.203125 45.015625 
L 1.765625 45.015625 
L 1.765625 51.859375 
L 8.203125 51.859375 
L 8.203125 64.703125 
L 16.9375 69.96875 
L 16.9375 51.859375 
L 25.78125 51.859375 
L 25.78125 45.015625 
L 16.9375 45.015625 
L 16.9375 14.703125 
Q 16.9375 10.9375 17.40625 9.859375 
Q 17.875 8.796875 18.921875 8.15625 
Q 19.96875 7.515625 21.921875 7.515625 
Q 23.390625 7.515625 25.78125 7.859375 
z
" id="ArialMT-74"/>
      <path d="M 6.59375 0 
L 6.59375 71.578125 
L 15.375 71.578125 
L 15.375 45.90625 
Q 21.53125 53.03125 30.90625 53.03125 
Q 36.671875 53.03125 40.921875 50.75 
Q 45.171875 48.484375 47 44.484375 
Q 48.828125 40.484375 48.828125 32.859375 
L 48.828125 0 
L 40.046875 0 
L 40.046875 32.859375 
Q 40.046875 39.453125 37.1875 42.453125 
Q 34.328125 45.453125 29.109375 45.453125 
Q 25.203125 45.453125 21.75 43.421875 
Q 18.3125 41.40625 16.84375 37.9375 
Q 15.375 34.46875 15.375 28.375 
L 15.375 0 
z
" id="ArialMT-68"/>
     </defs>
     <g transform="translate(97.37 33.042578)scale(0.13 -0.13)">
      <use transform="translate(0 0.584375)" xlink:href="#DejaVuSans-Oblique-3b1"/>
      <use transform="translate(70.58974 38.865625)scale(0.7)" xlink:href="#Cmsy10-30"/>
      <use transform="translate(112.049701 0.584375)" xlink:href="#DejaVuSans-2212"/>
      <use transform="translate(215.321185 0.584375)" xlink:href="#DejaVuSans-Oblique-3b8"/>
      <use transform="translate(276.502826 0.584375)" xlink:href="#ArialMT-20"/>
      <use transform="translate(304.286029 0.584375)" xlink:href="#ArialMT-6f"/>
      <use transform="translate(359.901263 0.584375)" xlink:href="#ArialMT-72"/>
      <use transform="translate(393.202044 0.584375)" xlink:href="#ArialMT-74"/>
      <use transform="translate(420.985247 0.584375)" xlink:href="#ArialMT-68"/>
      <use transform="translate(476.600482 0.584375)" xlink:href="#ArialMT-6f"/>
     </g>
    </g>
    <g id="line2d_67">
     <path d="M 60.97 47.066328 
L 86.97 47.066328 
" style="fill:none;stroke:#ff7f0e;stroke-linecap:square;"/>
    </g>
    <g id="line2d_68"/>
    <g id="text_18">
     <!-- $\mu_C =$ 16,4 kJ/mol -->
     <defs>
      <path d="M -1.3125 -20.796875 
L 13.375 54.6875 
L 22.40625 54.6875 
L 15.765625 20.65625 
Q 15.578125 19.625 15.421875 18.359375 
Q 15.28125 17.09375 15.28125 15.828125 
Q 15.28125 11.28125 18.140625 8.828125 
Q 21 6.390625 26.3125 6.390625 
Q 33.546875 6.390625 37.984375 10.484375 
Q 42.4375 14.59375 44 22.796875 
L 50.203125 54.6875 
L 59.1875 54.6875 
L 51.03125 12.640625 
Q 50.828125 11.71875 50.75 11.03125 
Q 50.6875 10.359375 50.6875 9.8125 
Q 50.6875 8.296875 51.296875 7.59375 
Q 51.90625 6.890625 53.21875 6.890625 
Q 53.71875 6.890625 54.5625 7.125 
Q 55.421875 7.375 56.984375 8.015625 
L 55.609375 0.78125 
Q 53.46875 -0.296875 51.515625 -0.859375 
Q 49.5625 -1.421875 47.703125 -1.421875 
Q 44.484375 -1.421875 42.65625 0.625 
Q 40.828125 2.6875 40.828125 6.296875 
Q 38.09375 2.390625 34.296875 0.484375 
Q 30.515625 -1.421875 25.390625 -1.421875 
Q 20.84375 -1.421875 17.453125 0.671875 
Q 14.0625 2.78125 12.984375 6.203125 
L 7.71875 -20.796875 
z
" id="DejaVuSans-Oblique-3bc"/>
      <path d="M 69.484375 67.28125 
L 67.484375 56.890625 
Q 62.796875 61.625 57.546875 63.921875 
Q 52.296875 66.21875 46.1875 66.21875 
Q 37.84375 66.21875 31.515625 62.203125 
Q 25.203125 58.203125 20.609375 50 
Q 17.671875 44.734375 16.125 38.84375 
Q 14.59375 32.953125 14.59375 27 
Q 14.59375 17.046875 19.75 11.8125 
Q 24.90625 6.59375 34.71875 6.59375 
Q 41.5 6.59375 47.75 8.765625 
Q 54 10.9375 59.90625 15.28125 
L 57.625 3.609375 
Q 51.8125 1.125 45.875 -0.140625 
Q 39.9375 -1.421875 33.984375 -1.421875 
Q 19.96875 -1.421875 12.078125 6.1875 
Q 4.203125 13.8125 4.203125 27.390625 
Q 4.203125 36.078125 7.203125 44.46875 
Q 10.203125 52.875 15.828125 59.8125 
Q 21.78125 67.1875 29.421875 70.703125 
Q 37.0625 74.21875 47.21875 74.21875 
Q 53.46875 74.21875 59.0625 72.484375 
Q 64.65625 70.75 69.484375 67.28125 
z
" id="DejaVuSans-Oblique-43"/>
      <path d="M 10.59375 45.40625 
L 73.1875 45.40625 
L 73.1875 37.203125 
L 10.59375 37.203125 
z
M 10.59375 25.484375 
L 73.1875 25.484375 
L 73.1875 17.1875 
L 10.59375 17.1875 
z
" id="DejaVuSans-3d"/>
      <path d="M 8.890625 0 
L 8.890625 10.015625 
L 18.890625 10.015625 
L 18.890625 0 
Q 18.890625 -5.515625 16.9375 -8.90625 
Q 14.984375 -12.3125 10.75 -14.15625 
L 8.296875 -10.40625 
Q 11.078125 -9.1875 12.390625 -6.8125 
Q 13.71875 -4.4375 13.875 0 
z
" id="ArialMT-2c"/>
      <path d="M 6.640625 0 
L 6.640625 71.578125 
L 15.4375 71.578125 
L 15.4375 30.765625 
L 36.234375 51.859375 
L 47.609375 51.859375 
L 27.78125 32.625 
L 49.609375 0 
L 38.765625 0 
L 21.625 26.515625 
L 15.4375 20.5625 
L 15.4375 0 
z
" id="ArialMT-6b"/>
      <path d="M 2.875 20.3125 
L 11.421875 21.484375 
Q 11.765625 13.28125 14.5 10.25 
Q 17.234375 7.234375 22.078125 7.234375 
Q 25.640625 7.234375 28.21875 8.859375 
Q 30.8125 10.5 31.78125 13.296875 
Q 32.765625 16.109375 32.765625 22.265625 
L 32.765625 71.578125 
L 42.234375 71.578125 
L 42.234375 22.796875 
Q 42.234375 13.8125 40.0625 8.875 
Q 37.890625 3.953125 33.171875 1.359375 
Q 28.46875 -1.21875 22.125 -1.21875 
Q 12.703125 -1.21875 7.6875 4.203125 
Q 2.6875 9.625 2.875 20.3125 
z
" id="ArialMT-4a"/>
      <path d="M 0 -1.21875 
L 20.75 72.796875 
L 27.78125 72.796875 
L 7.078125 -1.21875 
z
" id="ArialMT-2f"/>
      <path d="M 6.390625 0 
L 6.390625 71.578125 
L 15.1875 71.578125 
L 15.1875 0 
z
" id="ArialMT-6c"/>
     </defs>
     <g transform="translate(97.37 51.616328)scale(0.13 -0.13)">
      <use transform="translate(0 0.203125)" xlink:href="#DejaVuSans-Oblique-3bc"/>
      <use transform="translate(63.623047 -16.203125)scale(0.7)" xlink:href="#DejaVuSans-Oblique-43"/>
      <use transform="translate(134.716797 0.203125)" xlink:href="#DejaVuSans-3d"/>
      <use transform="translate(237.988281 0.203125)" xlink:href="#ArialMT-20"/>
      <use transform="translate(265.771484 0.203125)" xlink:href="#ArialMT-31"/>
      <use transform="translate(321.386719 0.203125)" xlink:href="#ArialMT-36"/>
      <use transform="translate(377.001953 0.203125)" xlink:href="#ArialMT-2c"/>
      <use transform="translate(404.785156 0.203125)" xlink:href="#ArialMT-34"/>
      <use transform="translate(460.400391 0.203125)" xlink:href="#ArialMT-20"/>
      <use transform="translate(488.183594 0.203125)" xlink:href="#ArialMT-6b"/>
      <use transform="translate(538.183594 0.203125)" xlink:href="#ArialMT-4a"/>
      <use transform="translate(588.183594 0.203125)" xlink:href="#ArialMT-2f"/>
      <use transform="translate(615.966797 0.203125)" xlink:href="#ArialMT-6d"/>
      <use transform="translate(699.267578 0.203125)" xlink:href="#ArialMT-6f"/>
      <use transform="translate(754.882812 0.203125)" xlink:href="#ArialMT-6c"/>
     </g>
    </g>
    <g id="line2d_69">
     <path d="M 60.97 65.786328 
L 86.97 65.786328 
" style="fill:none;stroke:#2ca02c;stroke-linecap:square;"/>
    </g>
    <g id="line2d_70"/>
    <g id="text_19">
     <!-- $\mu_C =$ 20,0 kJ/mol -->
     <g transform="translate(97.37 70.336328)scale(0.13 -0.13)">
      <use transform="translate(0 0.203125)" xlink:href="#DejaVuSans-Oblique-3bc"/>
      <use transform="translate(63.623047 -16.203125)scale(0.7)" xlink:href="#DejaVuSans-Oblique-43"/>
      <use transform="translate(134.716797 0.203125)" xlink:href="#DejaVuSans-3d"/>
      <use transform="translate(237.988281 0.203125)" xlink:href="#ArialMT-20"/>
      <use transform="translate(265.771484 0.203125)" xlink:href="#ArialMT-32"/>
      <use transform="translate(321.386719 0.203125)" xlink:href="#ArialMT-30"/>
      <use transform="translate(377.001953 0.203125)" xlink:href="#ArialMT-2c"/>
      <use transform="translate(404.785156 0.203125)" xlink:href="#ArialMT-30"/>
      <use transform="translate(460.400391 0.203125)" xlink:href="#ArialMT-20"/>
      <use transform="translate(488.183594 0.203125)" xlink:href="#ArialMT-6b"/>
      <use transform="translate(538.183594 0.203125)" xlink:href="#ArialMT-4a"/>
      <use transform="translate(588.183594 0.203125)" xlink:href="#ArialMT-2f"/>
      <use transform="translate(615.966797 0.203125)" xlink:href="#ArialMT-6d"/>
      <use transform="translate(699.267578 0.203125)" xlink:href="#ArialMT-6f"/>
      <use transform="translate(754.882812 0.203125)" xlink:href="#ArialMT-6c"/>
     </g>
    </g>
    <g id="line2d_71">
     <path d="M 60.97 84.506328 
L 86.97 84.506328 
" style="fill:none;stroke:#d62728;stroke-linecap:square;"/>
    </g>
    <g id="line2d_72"/>
    <g id="text_20">
     <!-- $\mu_C =$ 23,2 kJ/mol -->
     <g transform="translate(97.37 89.056328)scale(0.13 -0.13)">
      <use transform="translate(0 0.203125)" xlink:href="#DejaVuSans-Oblique-3bc"/>
      <use transform="translate(63.623047 -16.203125)scale(0.7)" xlink:href="#DejaVuSans-Oblique-43"/>
      <use transform="translate(134.716797 0.203125)" xlink:href="#DejaVuSans-3d"/>
      <use transform="translate(237.988281 0.203125)" xlink:href="#ArialMT-20"/>
      <use transform="translate(265.771484 0.203125)" xlink:href="#ArialMT-32"/>
      <use transform="translate(321.386719 0.203125)" xlink:href="#ArialMT-33"/>
      <use transform="translate(377.001953 0.203125)" xlink:href="#ArialMT-2c"/>
      <use transform="translate(404.785156 0.203125)" xlink:href="#ArialMT-32"/>
      <use transform="translate(460.400391 0.203125)" xlink:href="#ArialMT-20"/>
      <use transform="translate(488.183594 0.203125)" xlink:href="#ArialMT-6b"/>
      <use transform="translate(538.183594 0.203125)" xlink:href="#ArialMT-4a"/>
      <use transform="translate(588.183594 0.203125)" xlink:href="#ArialMT-2f"/>
      <use transform="translate(615.966797 0.203125)" xlink:href="#ArialMT-6d"/>
      <use transform="translate(699.267578 0.203125)" xlink:href="#ArialMT-6f"/>
      <use transform="translate(754.882812 0.203125)" xlink:href="#ArialMT-6c"/>
     </g>
    </g>
    <g id="line2d_73">
     <path d="M 224.51 28.492578 
L 250.51 28.492578 
" style="fill:none;stroke:#9467bd;stroke-linecap:square;"/>
    </g>
    <g id="line2d_74"/>
    <g id="text_21">
     <!-- $\mu_C =$ 25,0 kJ/mol -->
     <defs>
      <path d="M 4.15625 18.75 
L 13.375 19.53125 
Q 14.40625 12.796875 18.140625 9.390625 
Q 21.875 6 27.15625 6 
Q 33.5 6 37.890625 10.78125 
Q 42.28125 15.578125 42.28125 23.484375 
Q 42.28125 31 38.0625 35.34375 
Q 33.84375 39.703125 27 39.703125 
Q 22.75 39.703125 19.328125 37.765625 
Q 15.921875 35.84375 13.96875 32.765625 
L 5.71875 33.84375 
L 12.640625 70.609375 
L 48.25 70.609375 
L 48.25 62.203125 
L 19.671875 62.203125 
L 15.828125 42.96875 
Q 22.265625 47.46875 29.34375 47.46875 
Q 38.71875 47.46875 45.15625 40.96875 
Q 51.609375 34.46875 51.609375 24.265625 
Q 51.609375 14.546875 45.953125 7.46875 
Q 39.0625 -1.21875 27.15625 -1.21875 
Q 17.390625 -1.21875 11.203125 4.25 
Q 5.03125 9.71875 4.15625 18.75 
z
" id="ArialMT-35"/>
     </defs>
     <g transform="translate(260.91 33.042578)scale(0.13 -0.13)">
      <use transform="translate(0 0.203125)" xlink:href="#DejaVuSans-Oblique-3bc"/>
      <use transform="translate(63.623047 -16.203125)scale(0.7)" xlink:href="#DejaVuSans-Oblique-43"/>
      <use transform="translate(134.716797 0.203125)" xlink:href="#DejaVuSans-3d"/>
      <use transform="translate(237.988281 0.203125)" xlink:href="#ArialMT-20"/>
      <use transform="translate(265.771484 0.203125)" xlink:href="#ArialMT-32"/>
      <use transform="translate(321.386719 0.203125)" xlink:href="#ArialMT-35"/>
      <use transform="translate(377.001953 0.203125)" xlink:href="#ArialMT-2c"/>
      <use transform="translate(404.785156 0.203125)" xlink:href="#ArialMT-30"/>
      <use transform="translate(460.400391 0.203125)" xlink:href="#ArialMT-20"/>
      <use transform="translate(488.183594 0.203125)" xlink:href="#ArialMT-6b"/>
      <use transform="translate(538.183594 0.203125)" xlink:href="#ArialMT-4a"/>
      <use transform="translate(588.183594 0.203125)" xlink:href="#ArialMT-2f"/>
      <use transform="translate(615.966797 0.203125)" xlink:href="#ArialMT-6d"/>
      <use transform="translate(699.267578 0.203125)" xlink:href="#ArialMT-6f"/>
      <use transform="translate(754.882812 0.203125)" xlink:href="#ArialMT-6c"/>
     </g>
    </g>
    <g id="line2d_75">
     <path d="M 224.51 47.212578 
L 250.51 47.212578 
" style="fill:none;stroke:#8c564b;stroke-linecap:square;"/>
    </g>
    <g id="line2d_76"/>
    <g id="text_22">
     <!-- $\mu_C =$ 30,0 kJ/mol -->
     <g transform="translate(260.91 51.762578)scale(0.13 -0.13)">
      <use transform="translate(0 0.203125)" xlink:href="#DejaVuSans-Oblique-3bc"/>
      <use transform="translate(63.623047 -16.203125)scale(0.7)" xlink:href="#DejaVuSans-Oblique-43"/>
      <use transform="translate(134.716797 0.203125)" xlink:href="#DejaVuSans-3d"/>
      <use transform="translate(237.988281 0.203125)" xlink:href="#ArialMT-20"/>
      <use transform="translate(265.771484 0.203125)" xlink:href="#ArialMT-33"/>
      <use transform="translate(321.386719 0.203125)" xlink:href="#ArialMT-30"/>
      <use transform="translate(377.001953 0.203125)" xlink:href="#ArialMT-2c"/>
      <use transform="translate(404.785156 0.203125)" xlink:href="#ArialMT-30"/>
      <use transform="translate(460.400391 0.203125)" xlink:href="#ArialMT-20"/>
      <use transform="translate(488.183594 0.203125)" xlink:href="#ArialMT-6b"/>
      <use transform="translate(538.183594 0.203125)" xlink:href="#ArialMT-4a"/>
      <use transform="translate(588.183594 0.203125)" xlink:href="#ArialMT-2f"/>
      <use transform="translate(615.966797 0.203125)" xlink:href="#ArialMT-6d"/>
      <use transform="translate(699.267578 0.203125)" xlink:href="#ArialMT-6f"/>
      <use transform="translate(754.882812 0.203125)" xlink:href="#ArialMT-6c"/>
     </g>
    </g>
    <g id="line2d_77">
     <path d="M 224.51 66.582578 
L 250.51 66.582578 
" style="fill:none;stroke:#e377c2;stroke-linecap:square;"/>
    </g>
    <g id="line2d_78"/>
    <g id="text_23">
     <!-- $\alpha'-\theta$ para -->
     <g transform="translate(260.91 71.132578)scale(0.13 -0.13)">
      <use transform="translate(0 0.584375)" xlink:href="#DejaVuSans-Oblique-3b1"/>
      <use transform="translate(70.58974 38.865625)scale(0.7)" xlink:href="#Cmsy10-30"/>
      <use transform="translate(112.049701 0.584375)" xlink:href="#DejaVuSans-2212"/>
      <use transform="translate(215.321185 0.584375)" xlink:href="#DejaVuSans-Oblique-3b8"/>
      <use transform="translate(276.502826 0.584375)" xlink:href="#ArialMT-20"/>
      <use transform="translate(304.286029 0.584375)" xlink:href="#ArialMT-70"/>
      <use transform="translate(359.901263 0.584375)" xlink:href="#ArialMT-61"/>
      <use transform="translate(415.516497 0.584375)" xlink:href="#ArialMT-72"/>
      <use transform="translate(448.817279 0.584375)" xlink:href="#ArialMT-61"/>
     </g>
    </g>
    <g id="line2d_79">
     <path d="M 224.51 84.987734 
L 250.51 84.987734 
" style="fill:none;stroke:#7f7f7f;stroke-linecap:square;"/>
    </g>
    <g id="line2d_80"/>
    <g id="text_24">
     <!-- Sem carbonetos -->
     <defs>
      <path d="M 4.5 23 
L 13.421875 23.78125 
Q 14.0625 18.40625 16.375 14.96875 
Q 18.703125 11.53125 23.578125 9.40625 
Q 28.46875 7.28125 34.578125 7.28125 
Q 39.984375 7.28125 44.140625 8.890625 
Q 48.296875 10.5 50.3125 13.296875 
Q 52.34375 16.109375 52.34375 19.4375 
Q 52.34375 22.796875 50.390625 25.3125 
Q 48.4375 27.828125 43.953125 29.546875 
Q 41.0625 30.671875 31.203125 33.03125 
Q 21.34375 35.40625 17.390625 37.5 
Q 12.25 40.1875 9.734375 44.15625 
Q 7.234375 48.140625 7.234375 53.078125 
Q 7.234375 58.5 10.296875 63.203125 
Q 13.375 67.921875 19.28125 70.359375 
Q 25.203125 72.796875 32.421875 72.796875 
Q 40.375 72.796875 46.453125 70.234375 
Q 52.546875 67.671875 55.8125 62.6875 
Q 59.078125 57.71875 59.328125 51.421875 
L 50.25 50.734375 
Q 49.515625 57.515625 45.28125 60.984375 
Q 41.0625 64.453125 32.8125 64.453125 
Q 24.21875 64.453125 20.28125 61.296875 
Q 16.359375 58.15625 16.359375 53.71875 
Q 16.359375 49.859375 19.140625 47.359375 
Q 21.875 44.875 33.421875 42.265625 
Q 44.96875 39.65625 49.265625 37.703125 
Q 55.515625 34.8125 58.484375 30.390625 
Q 61.46875 25.984375 61.46875 20.21875 
Q 61.46875 14.5 58.203125 9.4375 
Q 54.9375 4.390625 48.796875 1.578125 
Q 42.671875 -1.21875 35.015625 -1.21875 
Q 25.296875 -1.21875 18.71875 1.609375 
Q 12.15625 4.4375 8.421875 10.125 
Q 4.6875 15.828125 4.5 23 
z
" id="ArialMT-53"/>
      <path d="M 40.4375 19 
L 49.078125 17.875 
Q 47.65625 8.9375 41.8125 3.875 
Q 35.984375 -1.171875 27.484375 -1.171875 
Q 16.84375 -1.171875 10.375 5.78125 
Q 3.90625 12.75 3.90625 25.734375 
Q 3.90625 34.125 6.6875 40.421875 
Q 9.46875 46.734375 15.15625 49.875 
Q 20.84375 53.03125 27.546875 53.03125 
Q 35.984375 53.03125 41.359375 48.75 
Q 46.734375 44.484375 48.25 36.625 
L 39.703125 35.296875 
Q 38.484375 40.53125 35.375 43.15625 
Q 32.28125 45.796875 27.875 45.796875 
Q 21.234375 45.796875 17.078125 41.03125 
Q 12.9375 36.28125 12.9375 25.984375 
Q 12.9375 15.53125 16.9375 10.796875 
Q 20.953125 6.0625 27.390625 6.0625 
Q 32.5625 6.0625 36.03125 9.234375 
Q 39.5 12.40625 40.4375 19 
z
" id="ArialMT-63"/>
     </defs>
     <g transform="translate(260.91 89.537734)scale(0.13 -0.13)">
      <use xlink:href="#ArialMT-53"/>
      <use x="66.699219" xlink:href="#ArialMT-65"/>
      <use x="122.314453" xlink:href="#ArialMT-6d"/>
      <use x="205.615234" xlink:href="#ArialMT-20"/>
      <use x="233.398438" xlink:href="#ArialMT-63"/>
      <use x="283.398438" xlink:href="#ArialMT-61"/>
      <use x="339.013672" xlink:href="#ArialMT-72"/>
      <use x="372.314453" xlink:href="#ArialMT-62"/>
      <use x="427.929688" xlink:href="#ArialMT-6f"/>
      <use x="483.544922" xlink:href="#ArialMT-6e"/>
      <use x="539.160156" xlink:href="#ArialMT-65"/>
      <use x="594.775391" xlink:href="#ArialMT-74"/>
      <use x="622.558594" xlink:href="#ArialMT-6f"/>
      <use x="678.173828" xlink:href="#ArialMT-73"/>
     </g>
    </g>
   </g>
  </g>
 </g>
 <defs>
  <clipPath id="p57f3a876c7">
   <rect height="277.2" width="390.6" x="49.27" y="11.852578"/>
  </clipPath>
 </defs>
</svg>
