<?xml version="1.0" encoding="utf-8" standalone="no"?>
<!DOCTYPE svg PUBLIC "-//W3C//DTD SVG 1.1//EN"
  "http://www.w3.org/Graphics/SVG/1.1/DTD/svg11.dtd">
<!-- Created with matplotlib (http://matplotlib.org/) -->
<svg height="335pt" version="1.1" viewBox="0 0 457 335" width="457pt" xmlns="http://www.w3.org/2000/svg" xmlns:xlink="http://www.w3.org/1999/xlink">
 <defs>
  <style type="text/css">
*{stroke-linecap:butt;stroke-linejoin:round;}
  </style>
 </defs>
 <g id="figure_1">
  <g id="patch_1">
   <path d="M 0 335.442266 
L 457.275 335.442266 
L 457.275 0 
L 0 0 
z
" style="fill:#ffffff;"/>
  </g>
  <g id="axes_1">
   <g id="patch_2">
    <path d="M 49.27 289.052578 
L 439.87 289.052578 
L 439.87 11.852578 
L 49.27 11.852578 
z
" style="fill:#ffffff;"/>
   </g>
   <g id="matplotlib.axis_1">
    <g id="xtick_1">
     <g id="line2d_1">
      <defs>
       <path d="M 0 0 
L 0 3.5 
" id="m7d66d1f976" style="stroke:#000000;stroke-width:0.8;"/>
      </defs>
      <g>
       <use style="stroke:#000000;stroke-width:0.8;" x="49.27" xlink:href="#m7d66d1f976" y="289.052578"/>
      </g>
     </g>
     <g id="text_1">
      <!-- $\mathdefault{10^{-2}}$ -->
      <defs>
       <path d="M 37.25 0 
L 28.46875 0 
L 28.46875 56 
Q 25.296875 52.984375 20.140625 49.953125 
Q 14.984375 46.921875 10.890625 45.40625 
L 10.890625 53.90625 
Q 18.265625 57.375 23.78125 62.296875 
Q 29.296875 67.234375 31.59375 71.875 
L 37.25 71.875 
z
" id="ArialMT-31"/>
       <path d="M 4.15625 35.296875 
Q 4.15625 48 6.765625 55.734375 
Q 9.375 63.484375 14.515625 67.671875 
Q 19.671875 71.875 27.484375 71.875 
Q 33.25 71.875 37.59375 69.546875 
Q 41.9375 67.234375 44.765625 62.859375 
Q 47.609375 58.5 49.21875 52.21875 
Q 50.828125 45.953125 50.828125 35.296875 
Q 50.828125 22.703125 48.234375 14.96875 
Q 45.65625 7.234375 40.5 3 
Q 35.359375 -1.21875 27.484375 -1.21875 
Q 17.140625 -1.21875 11.234375 6.203125 
Q 4.15625 15.140625 4.15625 35.296875 
z
M 13.1875 35.296875 
Q 13.1875 17.671875 17.3125 11.828125 
Q 21.4375 6 27.484375 6 
Q 33.546875 6 37.671875 11.859375 
Q 41.796875 17.71875 41.796875 35.296875 
Q 41.796875 52.984375 37.671875 58.78125 
Q 33.546875 64.59375 27.390625 64.59375 
Q 21.34375 64.59375 17.71875 59.46875 
Q 13.1875 52.9375 13.1875 35.296875 
z
" id="ArialMT-30"/>
       <path d="M 52.828125 31.203125 
L 5.5625 31.203125 
L 5.5625 39.40625 
L 52.828125 39.40625 
z
" id="ArialMT-2212"/>
       <path d="M 50.34375 8.453125 
L 50.34375 0 
L 3.03125 0 
Q 2.9375 3.171875 4.046875 6.109375 
Q 5.859375 10.9375 9.828125 15.625 
Q 13.8125 20.3125 21.34375 26.46875 
Q 33.015625 36.03125 37.109375 41.625 
Q 41.21875 47.21875 41.21875 52.203125 
Q 41.21875 57.421875 37.46875 61 
Q 33.734375 64.59375 27.734375 64.59375 
Q 21.390625 64.59375 17.578125 60.78125 
Q 13.765625 56.984375 13.71875 50.25 
L 4.6875 51.171875 
Q 5.609375 61.28125 11.65625 66.578125 
Q 17.71875 71.875 27.9375 71.875 
Q 38.234375 71.875 44.234375 66.15625 
Q 50.25 60.453125 50.25 52 
Q 50.25 47.703125 48.484375 43.546875 
Q 46.734375 39.40625 42.65625 34.8125 
Q 38.578125 30.21875 29.109375 22.21875 
Q 21.1875 15.578125 18.9375 13.203125 
Q 16.703125 10.84375 15.234375 8.453125 
z
" id="ArialMT-32"/>
      </defs>
      <g transform="translate(36.4 309.458828)scale(0.13 -0.13)">
       <use transform="translate(0 0.99375)" xlink:href="#ArialMT-31"/>
       <use transform="translate(55.615234 0.99375)" xlink:href="#ArialMT-30"/>
       <use transform="translate(112.972813 70.6875)scale(0.7)" xlink:href="#ArialMT-2212"/>
       <use transform="translate(153.851719 70.6875)scale(0.7)" xlink:href="#ArialMT-32"/>
      </g>
     </g>
    </g>
    <g id="xtick_2">
     <g id="line2d_2">
      <g>
       <use style="stroke:#000000;stroke-width:0.8;" x="114.37" xlink:href="#m7d66d1f976" y="289.052578"/>
      </g>
     </g>
     <g id="text_2">
      <!-- $\mathdefault{10^{-1}}$ -->
      <g transform="translate(101.5 309.458828)scale(0.13 -0.13)">
       <use transform="translate(0 0.99375)" xlink:href="#ArialMT-31"/>
       <use transform="translate(55.615234 0.99375)" xlink:href="#ArialMT-30"/>
       <use transform="translate(112.972813 70.6875)scale(0.7)" xlink:href="#ArialMT-2212"/>
       <use transform="translate(153.851719 70.6875)scale(0.7)" xlink:href="#ArialMT-31"/>
      </g>
     </g>
    </g>
    <g id="xtick_3">
     <g id="line2d_3">
      <g>
       <use style="stroke:#000000;stroke-width:0.8;" x="179.47" xlink:href="#m7d66d1f976" y="289.052578"/>
      </g>
     </g>
     <g id="text_3">
      <!-- $\mathdefault{10^{0}}$ -->
      <g transform="translate(169.265 309.458828)scale(0.13 -0.13)">
       <use transform="translate(0 0.99375)" xlink:href="#ArialMT-31"/>
       <use transform="translate(55.615234 0.99375)" xlink:href="#ArialMT-30"/>
       <use transform="translate(112.972813 70.6875)scale(0.7)" xlink:href="#ArialMT-30"/>
      </g>
     </g>
    </g>
    <g id="xtick_4">
     <g id="line2d_4">
      <g>
       <use style="stroke:#000000;stroke-width:0.8;" x="244.57" xlink:href="#m7d66d1f976" y="289.052578"/>
      </g>
     </g>
     <g id="text_4">
      <!-- $\mathdefault{10^{1}}$ -->
      <g transform="translate(234.365 309.458828)scale(0.13 -0.13)">
       <use transform="translate(0 0.99375)" xlink:href="#ArialMT-31"/>
       <use transform="translate(55.615234 0.99375)" xlink:href="#ArialMT-30"/>
       <use transform="translate(112.972813 70.6875)scale(0.7)" xlink:href="#ArialMT-31"/>
      </g>
     </g>
    </g>
    <g id="xtick_5">
     <g id="line2d_5">
      <g>
       <use style="stroke:#000000;stroke-width:0.8;" x="309.67" xlink:href="#m7d66d1f976" y="289.052578"/>
      </g>
     </g>
     <g id="text_5">
      <!-- $\mathdefault{10^{2}}$ -->
      <g transform="translate(299.465 309.458828)scale(0.13 -0.13)">
       <use transform="translate(0 0.99375)" xlink:href="#ArialMT-31"/>
       <use transform="translate(55.615234 0.99375)" xlink:href="#ArialMT-30"/>
       <use transform="translate(112.972813 70.6875)scale(0.7)" xlink:href="#ArialMT-32"/>
      </g>
     </g>
    </g>
    <g id="xtick_6">
     <g id="line2d_6">
      <g>
       <use style="stroke:#000000;stroke-width:0.8;" x="374.77" xlink:href="#m7d66d1f976" y="289.052578"/>
      </g>
     </g>
     <g id="text_6">
      <!-- $\mathdefault{10^{3}}$ -->
      <defs>
       <path d="M 4.203125 18.890625 
L 12.984375 20.0625 
Q 14.5 12.59375 18.140625 9.296875 
Q 21.78125 6 27 6 
Q 33.203125 6 37.46875 10.296875 
Q 41.75 14.59375 41.75 20.953125 
Q 41.75 27 37.796875 30.921875 
Q 33.84375 34.859375 27.734375 34.859375 
Q 25.25 34.859375 21.53125 33.890625 
L 22.515625 41.609375 
Q 23.390625 41.5 23.921875 41.5 
Q 29.546875 41.5 34.03125 44.421875 
Q 38.53125 47.359375 38.53125 53.46875 
Q 38.53125 58.296875 35.25 61.46875 
Q 31.984375 64.65625 26.8125 64.65625 
Q 21.6875 64.65625 18.265625 61.421875 
Q 14.84375 58.203125 13.875 51.765625 
L 5.078125 53.328125 
Q 6.6875 62.15625 12.390625 67.015625 
Q 18.109375 71.875 26.609375 71.875 
Q 32.46875 71.875 37.390625 69.359375 
Q 42.328125 66.84375 44.9375 62.5 
Q 47.5625 58.15625 47.5625 53.265625 
Q 47.5625 48.640625 45.0625 44.828125 
Q 42.578125 41.015625 37.703125 38.765625 
Q 44.046875 37.3125 47.5625 32.6875 
Q 51.078125 28.078125 51.078125 21.140625 
Q 51.078125 11.765625 44.234375 5.25 
Q 37.40625 -1.265625 26.953125 -1.265625 
Q 17.53125 -1.265625 11.296875 4.34375 
Q 5.078125 9.96875 4.203125 18.890625 
z
" id="ArialMT-33"/>
      </defs>
      <g transform="translate(364.565 309.458828)scale(0.13 -0.13)">
       <use transform="translate(0 0.99375)" xlink:href="#ArialMT-31"/>
       <use transform="translate(55.615234 0.99375)" xlink:href="#ArialMT-30"/>
       <use transform="translate(112.972813 70.6875)scale(0.7)" xlink:href="#ArialMT-33"/>
      </g>
     </g>
    </g>
    <g id="xtick_7">
     <g id="line2d_7">
      <g>
       <use style="stroke:#000000;stroke-width:0.8;" x="439.87" xlink:href="#m7d66d1f976" y="289.052578"/>
      </g>
     </g>
     <g id="text_7">
      <!-- $\mathdefault{10^{4}}$ -->
      <defs>
       <path d="M 32.328125 0 
L 32.328125 17.140625 
L 1.265625 17.140625 
L 1.265625 25.203125 
L 33.9375 71.578125 
L 41.109375 71.578125 
L 41.109375 25.203125 
L 50.78125 25.203125 
L 50.78125 17.140625 
L 41.109375 17.140625 
L 41.109375 0 
z
M 32.328125 25.203125 
L 32.328125 57.46875 
L 9.90625 25.203125 
z
" id="ArialMT-34"/>
      </defs>
      <g transform="translate(429.665 309.328828)scale(0.13 -0.13)">
       <use transform="translate(0 0.201563)" xlink:href="#ArialMT-31"/>
       <use transform="translate(55.615234 0.201563)" xlink:href="#ArialMT-30"/>
       <use transform="translate(112.972813 69.895313)scale(0.7)" xlink:href="#ArialMT-34"/>
      </g>
     </g>
    </g>
    <g id="xtick_8">
     <g id="line2d_8">
      <defs>
       <path d="M 0 0 
L 0 2 
" id="m9ae0652968" style="stroke:#000000;stroke-width:0.6;"/>
      </defs>
      <g>
       <use style="stroke:#000000;stroke-width:0.6;" x="68.867053" xlink:href="#m9ae0652968" y="289.052578"/>
      </g>
     </g>
    </g>
    <g id="xtick_9">
     <g id="line2d_9">
      <g>
       <use style="stroke:#000000;stroke-width:0.6;" x="80.330594" xlink:href="#m9ae0652968" y="289.052578"/>
      </g>
     </g>
    </g>
    <g id="xtick_10">
     <g id="line2d_10">
      <g>
       <use style="stroke:#000000;stroke-width:0.6;" x="88.464105" xlink:href="#m9ae0652968" y="289.052578"/>
      </g>
     </g>
    </g>
    <g id="xtick_11">
     <g id="line2d_11">
      <g>
       <use style="stroke:#000000;stroke-width:0.6;" x="94.772947" xlink:href="#m9ae0652968" y="289.052578"/>
      </g>
     </g>
    </g>
    <g id="xtick_12">
     <g id="line2d_12">
      <g>
       <use style="stroke:#000000;stroke-width:0.6;" x="99.927646" xlink:href="#m9ae0652968" y="289.052578"/>
      </g>
     </g>
    </g>
    <g id="xtick_13">
     <g id="line2d_13">
      <g>
       <use style="stroke:#000000;stroke-width:0.6;" x="104.285882" xlink:href="#m9ae0652968" y="289.052578"/>
      </g>
     </g>
    </g>
    <g id="xtick_14">
     <g id="line2d_14">
      <g>
       <use style="stroke:#000000;stroke-width:0.6;" x="108.061158" xlink:href="#m9ae0652968" y="289.052578"/>
      </g>
     </g>
    </g>
    <g id="xtick_15">
     <g id="line2d_15">
      <g>
       <use style="stroke:#000000;stroke-width:0.6;" x="111.391187" xlink:href="#m9ae0652968" y="289.052578"/>
      </g>
     </g>
    </g>
    <g id="xtick_16">
     <g id="line2d_16">
      <g>
       <use style="stroke:#000000;stroke-width:0.6;" x="133.967053" xlink:href="#m9ae0652968" y="289.052578"/>
      </g>
     </g>
    </g>
    <g id="xtick_17">
     <g id="line2d_17">
      <g>
       <use style="stroke:#000000;stroke-width:0.6;" x="145.430594" xlink:href="#m9ae0652968" y="289.052578"/>
      </g>
     </g>
    </g>
    <g id="xtick_18">
     <g id="line2d_18">
      <g>
       <use style="stroke:#000000;stroke-width:0.6;" x="153.564105" xlink:href="#m9ae0652968" y="289.052578"/>
      </g>
     </g>
    </g>
    <g id="xtick_19">
     <g id="line2d_19">
      <g>
       <use style="stroke:#000000;stroke-width:0.6;" x="159.872947" xlink:href="#m9ae0652968" y="289.052578"/>
      </g>
     </g>
    </g>
    <g id="xtick_20">
     <g id="line2d_20">
      <g>
       <use style="stroke:#000000;stroke-width:0.6;" x="165.027646" xlink:href="#m9ae0652968" y="289.052578"/>
      </g>
     </g>
    </g>
    <g id="xtick_21">
     <g id="line2d_21">
      <g>
       <use style="stroke:#000000;stroke-width:0.6;" x="169.385882" xlink:href="#m9ae0652968" y="289.052578"/>
      </g>
     </g>
    </g>
    <g id="xtick_22">
     <g id="line2d_22">
      <g>
       <use style="stroke:#000000;stroke-width:0.6;" x="173.161158" xlink:href="#m9ae0652968" y="289.052578"/>
      </g>
     </g>
    </g>
    <g id="xtick_23">
     <g id="line2d_23">
      <g>
       <use style="stroke:#000000;stroke-width:0.6;" x="176.491187" xlink:href="#m9ae0652968" y="289.052578"/>
      </g>
     </g>
    </g>
    <g id="xtick_24">
     <g id="line2d_24">
      <g>
       <use style="stroke:#000000;stroke-width:0.6;" x="199.067053" xlink:href="#m9ae0652968" y="289.052578"/>
      </g>
     </g>
    </g>
    <g id="xtick_25">
     <g id="line2d_25">
      <g>
       <use style="stroke:#000000;stroke-width:0.6;" x="210.530594" xlink:href="#m9ae0652968" y="289.052578"/>
      </g>
     </g>
    </g>
    <g id="xtick_26">
     <g id="line2d_26">
      <g>
       <use style="stroke:#000000;stroke-width:0.6;" x="218.664105" xlink:href="#m9ae0652968" y="289.052578"/>
      </g>
     </g>
    </g>
    <g id="xtick_27">
     <g id="line2d_27">
      <g>
       <use style="stroke:#000000;stroke-width:0.6;" x="224.972947" xlink:href="#m9ae0652968" y="289.052578"/>
      </g>
     </g>
    </g>
    <g id="xtick_28">
     <g id="line2d_28">
      <g>
       <use style="stroke:#000000;stroke-width:0.6;" x="230.127646" xlink:href="#m9ae0652968" y="289.052578"/>
      </g>
     </g>
    </g>
    <g id="xtick_29">
     <g id="line2d_29">
      <g>
       <use style="stroke:#000000;stroke-width:0.6;" x="234.485882" xlink:href="#m9ae0652968" y="289.052578"/>
      </g>
     </g>
    </g>
    <g id="xtick_30">
     <g id="line2d_30">
      <g>
       <use style="stroke:#000000;stroke-width:0.6;" x="238.261158" xlink:href="#m9ae0652968" y="289.052578"/>
      </g>
     </g>
    </g>
    <g id="xtick_31">
     <g id="line2d_31">
      <g>
       <use style="stroke:#000000;stroke-width:0.6;" x="241.591187" xlink:href="#m9ae0652968" y="289.052578"/>
      </g>
     </g>
    </g>
    <g id="xtick_32">
     <g id="line2d_32">
      <g>
       <use style="stroke:#000000;stroke-width:0.6;" x="264.167053" xlink:href="#m9ae0652968" y="289.052578"/>
      </g>
     </g>
    </g>
    <g id="xtick_33">
     <g id="line2d_33">
      <g>
       <use style="stroke:#000000;stroke-width:0.6;" x="275.630594" xlink:href="#m9ae0652968" y="289.052578"/>
      </g>
     </g>
    </g>
    <g id="xtick_34">
     <g id="line2d_34">
      <g>
       <use style="stroke:#000000;stroke-width:0.6;" x="283.764105" xlink:href="#m9ae0652968" y="289.052578"/>
      </g>
     </g>
    </g>
    <g id="xtick_35">
     <g id="line2d_35">
      <g>
       <use style="stroke:#000000;stroke-width:0.6;" x="290.072947" xlink:href="#m9ae0652968" y="289.052578"/>
      </g>
     </g>
    </g>
    <g id="xtick_36">
     <g id="line2d_36">
      <g>
       <use style="stroke:#000000;stroke-width:0.6;" x="295.227646" xlink:href="#m9ae0652968" y="289.052578"/>
      </g>
     </g>
    </g>
    <g id="xtick_37">
     <g id="line2d_37">
      <g>
       <use style="stroke:#000000;stroke-width:0.6;" x="299.585882" xlink:href="#m9ae0652968" y="289.052578"/>
      </g>
     </g>
    </g>
    <g id="xtick_38">
     <g id="line2d_38">
      <g>
       <use style="stroke:#000000;stroke-width:0.6;" x="303.361158" xlink:href="#m9ae0652968" y="289.052578"/>
      </g>
     </g>
    </g>
    <g id="xtick_39">
     <g id="line2d_39">
      <g>
       <use style="stroke:#000000;stroke-width:0.6;" x="306.691187" xlink:href="#m9ae0652968" y="289.052578"/>
      </g>
     </g>
    </g>
    <g id="xtick_40">
     <g id="line2d_40">
      <g>
       <use style="stroke:#000000;stroke-width:0.6;" x="329.267053" xlink:href="#m9ae0652968" y="289.052578"/>
      </g>
     </g>
    </g>
    <g id="xtick_41">
     <g id="line2d_41">
      <g>
       <use style="stroke:#000000;stroke-width:0.6;" x="340.730594" xlink:href="#m9ae0652968" y="289.052578"/>
      </g>
     </g>
    </g>
    <g id="xtick_42">
     <g id="line2d_42">
      <g>
       <use style="stroke:#000000;stroke-width:0.6;" x="348.864105" xlink:href="#m9ae0652968" y="289.052578"/>
      </g>
     </g>
    </g>
    <g id="xtick_43">
     <g id="line2d_43">
      <g>
       <use style="stroke:#000000;stroke-width:0.6;" x="355.172947" xlink:href="#m9ae0652968" y="289.052578"/>
      </g>
     </g>
    </g>
    <g id="xtick_44">
     <g id="line2d_44">
      <g>
       <use style="stroke:#000000;stroke-width:0.6;" x="360.327646" xlink:href="#m9ae0652968" y="289.052578"/>
      </g>
     </g>
    </g>
    <g id="xtick_45">
     <g id="line2d_45">
      <g>
       <use style="stroke:#000000;stroke-width:0.6;" x="364.685882" xlink:href="#m9ae0652968" y="289.052578"/>
      </g>
     </g>
    </g>
    <g id="xtick_46">
     <g id="line2d_46">
      <g>
       <use style="stroke:#000000;stroke-width:0.6;" x="368.461158" xlink:href="#m9ae0652968" y="289.052578"/>
      </g>
     </g>
    </g>
    <g id="xtick_47">
     <g id="line2d_47">
      <g>
       <use style="stroke:#000000;stroke-width:0.6;" x="371.791187" xlink:href="#m9ae0652968" y="289.052578"/>
      </g>
     </g>
    </g>
    <g id="xtick_48">
     <g id="line2d_48">
      <g>
       <use style="stroke:#000000;stroke-width:0.6;" x="394.367053" xlink:href="#m9ae0652968" y="289.052578"/>
      </g>
     </g>
    </g>
    <g id="xtick_49">
     <g id="line2d_49">
      <g>
       <use style="stroke:#000000;stroke-width:0.6;" x="405.830594" xlink:href="#m9ae0652968" y="289.052578"/>
      </g>
     </g>
    </g>
    <g id="xtick_50">
     <g id="line2d_50">
      <g>
       <use style="stroke:#000000;stroke-width:0.6;" x="413.964105" xlink:href="#m9ae0652968" y="289.052578"/>
      </g>
     </g>
    </g>
    <g id="xtick_51">
     <g id="line2d_51">
      <g>
       <use style="stroke:#000000;stroke-width:0.6;" x="420.272947" xlink:href="#m9ae0652968" y="289.052578"/>
      </g>
     </g>
    </g>
    <g id="xtick_52">
     <g id="line2d_52">
      <g>
       <use style="stroke:#000000;stroke-width:0.6;" x="425.427646" xlink:href="#m9ae0652968" y="289.052578"/>
      </g>
     </g>
    </g>
    <g id="xtick_53">
     <g id="line2d_53">
      <g>
       <use style="stroke:#000000;stroke-width:0.6;" x="429.785882" xlink:href="#m9ae0652968" y="289.052578"/>
      </g>
     </g>
    </g>
    <g id="xtick_54">
     <g id="line2d_54">
      <g>
       <use style="stroke:#000000;stroke-width:0.6;" x="433.561158" xlink:href="#m9ae0652968" y="289.052578"/>
      </g>
     </g>
    </g>
    <g id="xtick_55">
     <g id="line2d_55">
      <g>
       <use style="stroke:#000000;stroke-width:0.6;" x="436.891187" xlink:href="#m9ae0652968" y="289.052578"/>
      </g>
     </g>
    </g>
    <g id="text_8">
     <!-- Tempo (s) -->
     <defs>
      <path d="M 25.921875 0 
L 25.921875 63.140625 
L 2.34375 63.140625 
L 2.34375 71.578125 
L 59.078125 71.578125 
L 59.078125 63.140625 
L 35.40625 63.140625 
L 35.40625 0 
z
" id="ArialMT-54"/>
      <path d="M 42.09375 16.703125 
L 51.171875 15.578125 
Q 49.03125 7.625 43.21875 3.21875 
Q 37.40625 -1.171875 28.375 -1.171875 
Q 17 -1.171875 10.328125 5.828125 
Q 3.65625 12.84375 3.65625 25.484375 
Q 3.65625 38.578125 10.390625 45.796875 
Q 17.140625 53.03125 27.875 53.03125 
Q 38.28125 53.03125 44.875 45.953125 
Q 51.46875 38.875 51.46875 26.03125 
Q 51.46875 25.25 51.421875 23.6875 
L 12.75 23.6875 
Q 13.234375 15.140625 17.578125 10.59375 
Q 21.921875 6.0625 28.421875 6.0625 
Q 33.25 6.0625 36.671875 8.59375 
Q 40.09375 11.140625 42.09375 16.703125 
z
M 13.234375 30.90625 
L 42.1875 30.90625 
Q 41.609375 37.453125 38.875 40.71875 
Q 34.671875 45.796875 27.984375 45.796875 
Q 21.921875 45.796875 17.796875 41.75 
Q 13.671875 37.703125 13.234375 30.90625 
z
" id="ArialMT-65"/>
      <path d="M 6.59375 0 
L 6.59375 51.859375 
L 14.453125 51.859375 
L 14.453125 44.578125 
Q 16.890625 48.390625 20.9375 50.703125 
Q 25 53.03125 30.171875 53.03125 
Q 35.9375 53.03125 39.625 50.640625 
Q 43.3125 48.25 44.828125 43.953125 
Q 50.984375 53.03125 60.84375 53.03125 
Q 68.5625 53.03125 72.703125 48.75 
Q 76.859375 44.484375 76.859375 35.59375 
L 76.859375 0 
L 68.109375 0 
L 68.109375 32.671875 
Q 68.109375 37.9375 67.25 40.25 
Q 66.40625 42.578125 64.15625 43.984375 
Q 61.921875 45.40625 58.890625 45.40625 
Q 53.421875 45.40625 49.796875 41.765625 
Q 46.1875 38.140625 46.1875 30.125 
L 46.1875 0 
L 37.40625 0 
L 37.40625 33.6875 
Q 37.40625 39.546875 35.25 42.46875 
Q 33.109375 45.40625 28.21875 45.40625 
Q 24.515625 45.40625 21.359375 43.453125 
Q 18.21875 41.5 16.796875 37.734375 
Q 15.375 33.984375 15.375 26.90625 
L 15.375 0 
z
" id="ArialMT-6d"/>
      <path d="M 6.59375 -19.875 
L 6.59375 51.859375 
L 14.59375 51.859375 
L 14.59375 45.125 
Q 17.4375 49.078125 21 51.046875 
Q 24.5625 53.03125 29.640625 53.03125 
Q 36.28125 53.03125 41.359375 49.609375 
Q 46.4375 46.1875 49.015625 39.953125 
Q 51.609375 33.734375 51.609375 26.3125 
Q 51.609375 18.359375 48.75 11.984375 
Q 45.90625 5.609375 40.453125 2.21875 
Q 35.015625 -1.171875 29 -1.171875 
Q 24.609375 -1.171875 21.109375 0.6875 
Q 17.625 2.546875 15.375 5.375 
L 15.375 -19.875 
z
M 14.546875 25.640625 
Q 14.546875 15.625 18.59375 10.84375 
Q 22.65625 6.0625 28.421875 6.0625 
Q 34.28125 6.0625 38.453125 11.015625 
Q 42.625 15.96875 42.625 26.375 
Q 42.625 36.28125 38.546875 41.203125 
Q 34.46875 46.140625 28.8125 46.140625 
Q 23.1875 46.140625 18.859375 40.890625 
Q 14.546875 35.640625 14.546875 25.640625 
z
" id="ArialMT-70"/>
      <path d="M 3.328125 25.921875 
Q 3.328125 40.328125 11.328125 47.265625 
Q 18.015625 53.03125 27.640625 53.03125 
Q 38.328125 53.03125 45.109375 46.015625 
Q 51.90625 39.015625 51.90625 26.65625 
Q 51.90625 16.65625 48.90625 10.90625 
Q 45.90625 5.171875 40.15625 2 
Q 34.421875 -1.171875 27.640625 -1.171875 
Q 16.75 -1.171875 10.03125 5.8125 
Q 3.328125 12.796875 3.328125 25.921875 
z
M 12.359375 25.921875 
Q 12.359375 15.96875 16.703125 11.015625 
Q 21.046875 6.0625 27.640625 6.0625 
Q 34.1875 6.0625 38.53125 11.03125 
Q 42.875 16.015625 42.875 26.21875 
Q 42.875 35.84375 38.5 40.796875 
Q 34.125 45.75 27.640625 45.75 
Q 21.046875 45.75 16.703125 40.8125 
Q 12.359375 35.890625 12.359375 25.921875 
z
" id="ArialMT-6f"/>
      <path id="ArialMT-20"/>
      <path d="M 23.390625 -21.046875 
Q 16.109375 -11.859375 11.078125 0.4375 
Q 6.0625 12.75 6.0625 25.921875 
Q 6.0625 37.546875 9.8125 48.1875 
Q 14.203125 60.546875 23.390625 72.796875 
L 29.6875 72.796875 
Q 23.78125 62.640625 21.875 58.296875 
Q 18.890625 51.5625 17.1875 44.234375 
Q 15.09375 35.109375 15.09375 25.875 
Q 15.09375 2.390625 29.6875 -21.046875 
z
" id="ArialMT-28"/>
      <path d="M 3.078125 15.484375 
L 11.765625 16.84375 
Q 12.5 11.625 15.84375 8.84375 
Q 19.1875 6.0625 25.203125 6.0625 
Q 31.25 6.0625 34.171875 8.515625 
Q 37.109375 10.984375 37.109375 14.3125 
Q 37.109375 17.28125 34.515625 19 
Q 32.71875 20.171875 25.53125 21.96875 
Q 15.875 24.421875 12.140625 26.203125 
Q 8.40625 27.984375 6.46875 31.125 
Q 4.546875 34.28125 4.546875 38.09375 
Q 4.546875 41.546875 6.125 44.5 
Q 7.71875 47.46875 10.453125 49.421875 
Q 12.5 50.921875 16.03125 51.96875 
Q 19.578125 53.03125 23.640625 53.03125 
Q 29.734375 53.03125 34.34375 51.265625 
Q 38.96875 49.515625 41.15625 46.5 
Q 43.359375 43.5 44.1875 38.484375 
L 35.59375 37.3125 
Q 35.015625 41.3125 32.203125 43.546875 
Q 29.390625 45.796875 24.265625 45.796875 
Q 18.21875 45.796875 15.625 43.796875 
Q 13.03125 41.796875 13.03125 39.109375 
Q 13.03125 37.40625 14.109375 36.03125 
Q 15.1875 34.625 17.484375 33.6875 
Q 18.796875 33.203125 25.25 31.453125 
Q 34.578125 28.953125 38.25 27.359375 
Q 41.9375 25.78125 44.03125 22.75 
Q 46.140625 19.734375 46.140625 15.234375 
Q 46.140625 10.84375 43.578125 6.953125 
Q 41.015625 3.078125 36.171875 0.953125 
Q 31.34375 -1.171875 25.25 -1.171875 
Q 15.140625 -1.171875 9.84375 3.03125 
Q 4.546875 7.234375 3.078125 15.484375 
z
" id="ArialMT-73"/>
      <path d="M 12.359375 -21.046875 
L 6.0625 -21.046875 
Q 20.65625 2.390625 20.65625 25.875 
Q 20.65625 35.0625 18.5625 44.09375 
Q 16.890625 51.421875 13.921875 58.15625 
Q 12.015625 62.546875 6.0625 72.796875 
L 12.359375 72.796875 
Q 21.53125 60.546875 25.921875 48.1875 
Q 29.6875 37.546875 29.6875 25.921875 
Q 29.6875 12.75 24.625 0.4375 
Q 19.578125 -11.859375 12.359375 -21.046875 
z
" id="ArialMT-29"/>
     </defs>
     <g transform="translate(214.968594 325.506172)scale(0.13 -0.13)">
      <use xlink:href="#ArialMT-54"/>
      <use x="60.912109" xlink:href="#ArialMT-65"/>
      <use x="116.527344" xlink:href="#ArialMT-6d"/>
      <use x="199.828125" xlink:href="#ArialMT-70"/>
      <use x="255.443359" xlink:href="#ArialMT-6f"/>
      <use x="311.058594" xlink:href="#ArialMT-20"/>
      <use x="338.841797" xlink:href="#ArialMT-28"/>
      <use x="372.142578" xlink:href="#ArialMT-73"/>
      <use x="422.142578" xlink:href="#ArialMT-29"/>
     </g>
    </g>
   </g>
   <g id="matplotlib.axis_2">
    <g id="ytick_1">
     <g id="line2d_56">
      <defs>
       <path d="M 0 0 
L -3.5 0 
" id="m446c6e5402" style="stroke:#000000;stroke-width:0.8;"/>
      </defs>
      <g>
       <use style="stroke:#000000;stroke-width:0.8;" x="49.27" xlink:href="#m446c6e5402" y="289.052578"/>
      </g>
     </g>
     <g id="text_9">
      <!-- 0.0 -->
      <defs>
       <path d="M 9.078125 0 
L 9.078125 10.015625 
L 19.09375 10.015625 
L 19.09375 0 
z
" id="ArialMT-2e"/>
      </defs>
      <g transform="translate(24.2 293.705156)scale(0.13 -0.13)">
       <use xlink:href="#ArialMT-30"/>
       <use x="55.615234" xlink:href="#ArialMT-2e"/>
       <use x="83.398438" xlink:href="#ArialMT-30"/>
      </g>
     </g>
    </g>
    <g id="ytick_2">
     <g id="line2d_57">
      <g>
       <use style="stroke:#000000;stroke-width:0.8;" x="49.27" xlink:href="#m446c6e5402" y="249.452578"/>
      </g>
     </g>
     <g id="text_10">
      <!-- 0.2 -->
      <g transform="translate(24.2 254.105156)scale(0.13 -0.13)">
       <use xlink:href="#ArialMT-30"/>
       <use x="55.615234" xlink:href="#ArialMT-2e"/>
       <use x="83.398438" xlink:href="#ArialMT-32"/>
      </g>
     </g>
    </g>
    <g id="ytick_3">
     <g id="line2d_58">
      <g>
       <use style="stroke:#000000;stroke-width:0.8;" x="49.27" xlink:href="#m446c6e5402" y="209.852578"/>
      </g>
     </g>
     <g id="text_11">
      <!-- 0.4 -->
      <g transform="translate(24.2 214.505156)scale(0.13 -0.13)">
       <use xlink:href="#ArialMT-30"/>
       <use x="55.615234" xlink:href="#ArialMT-2e"/>
       <use x="83.398438" xlink:href="#ArialMT-34"/>
      </g>
     </g>
    </g>
    <g id="ytick_4">
     <g id="line2d_59">
      <g>
       <use style="stroke:#000000;stroke-width:0.8;" x="49.27" xlink:href="#m446c6e5402" y="170.252578"/>
      </g>
     </g>
     <g id="text_12">
      <!-- 0.6 -->
      <defs>
       <path d="M 49.75 54.046875 
L 41.015625 53.375 
Q 39.84375 58.546875 37.703125 60.890625 
Q 34.125 64.65625 28.90625 64.65625 
Q 24.703125 64.65625 21.53125 62.3125 
Q 17.390625 59.28125 14.984375 53.46875 
Q 12.59375 47.65625 12.5 36.921875 
Q 15.671875 41.75 20.265625 44.09375 
Q 24.859375 46.4375 29.890625 46.4375 
Q 38.671875 46.4375 44.84375 39.96875 
Q 51.03125 33.5 51.03125 23.25 
Q 51.03125 16.5 48.125 10.71875 
Q 45.21875 4.9375 40.140625 1.859375 
Q 35.0625 -1.21875 28.609375 -1.21875 
Q 17.625 -1.21875 10.6875 6.859375 
Q 3.765625 14.9375 3.765625 33.5 
Q 3.765625 54.25 11.421875 63.671875 
Q 18.109375 71.875 29.4375 71.875 
Q 37.890625 71.875 43.28125 67.140625 
Q 48.6875 62.40625 49.75 54.046875 
z
M 13.875 23.1875 
Q 13.875 18.65625 15.796875 14.5 
Q 17.71875 10.359375 21.1875 8.171875 
Q 24.65625 6 28.46875 6 
Q 34.03125 6 38.03125 10.484375 
Q 42.046875 14.984375 42.046875 22.703125 
Q 42.046875 30.125 38.078125 34.390625 
Q 34.125 38.671875 28.125 38.671875 
Q 22.171875 38.671875 18.015625 34.390625 
Q 13.875 30.125 13.875 23.1875 
z
" id="ArialMT-36"/>
      </defs>
      <g transform="translate(24.2 174.905156)scale(0.13 -0.13)">
       <use xlink:href="#ArialMT-30"/>
       <use x="55.615234" xlink:href="#ArialMT-2e"/>
       <use x="83.398438" xlink:href="#ArialMT-36"/>
      </g>
     </g>
    </g>
    <g id="ytick_5">
     <g id="line2d_60">
      <g>
       <use style="stroke:#000000;stroke-width:0.8;" x="49.27" xlink:href="#m446c6e5402" y="130.652578"/>
      </g>
     </g>
     <g id="text_13">
      <!-- 0.8 -->
      <defs>
       <path d="M 17.671875 38.8125 
Q 12.203125 40.828125 9.5625 44.53125 
Q 6.9375 48.25 6.9375 53.421875 
Q 6.9375 61.234375 12.546875 66.546875 
Q 18.171875 71.875 27.484375 71.875 
Q 36.859375 71.875 42.578125 66.421875 
Q 48.296875 60.984375 48.296875 53.171875 
Q 48.296875 48.1875 45.671875 44.5 
Q 43.0625 40.828125 37.75 38.8125 
Q 44.34375 36.671875 47.78125 31.875 
Q 51.21875 27.09375 51.21875 20.453125 
Q 51.21875 11.28125 44.71875 5.03125 
Q 38.234375 -1.21875 27.640625 -1.21875 
Q 17.046875 -1.21875 10.546875 5.046875 
Q 4.046875 11.328125 4.046875 20.703125 
Q 4.046875 27.6875 7.59375 32.390625 
Q 11.140625 37.109375 17.671875 38.8125 
z
M 15.921875 53.71875 
Q 15.921875 48.640625 19.1875 45.40625 
Q 22.46875 42.1875 27.6875 42.1875 
Q 32.765625 42.1875 36.015625 45.375 
Q 39.265625 48.578125 39.265625 53.21875 
Q 39.265625 58.0625 35.90625 61.359375 
Q 32.5625 64.65625 27.59375 64.65625 
Q 22.5625 64.65625 19.234375 61.421875 
Q 15.921875 58.203125 15.921875 53.71875 
z
M 13.09375 20.65625 
Q 13.09375 16.890625 14.875 13.375 
Q 16.65625 9.859375 20.171875 7.921875 
Q 23.6875 6 27.734375 6 
Q 34.03125 6 38.125 10.046875 
Q 42.234375 14.109375 42.234375 20.359375 
Q 42.234375 26.703125 38.015625 30.859375 
Q 33.796875 35.015625 27.4375 35.015625 
Q 21.234375 35.015625 17.15625 30.90625 
Q 13.09375 26.8125 13.09375 20.65625 
z
" id="ArialMT-38"/>
      </defs>
      <g transform="translate(24.2 135.305156)scale(0.13 -0.13)">
       <use xlink:href="#ArialMT-30"/>
       <use x="55.615234" xlink:href="#ArialMT-2e"/>
       <use x="83.398438" xlink:href="#ArialMT-38"/>
      </g>
     </g>
    </g>
    <g id="ytick_6">
     <g id="line2d_61">
      <g>
       <use style="stroke:#000000;stroke-width:0.8;" x="49.27" xlink:href="#m446c6e5402" y="91.052578"/>
      </g>
     </g>
     <g id="text_14">
      <!-- 1.0 -->
      <g transform="translate(24.2 95.705156)scale(0.13 -0.13)">
       <use xlink:href="#ArialMT-31"/>
       <use x="55.615234" xlink:href="#ArialMT-2e"/>
       <use x="83.398438" xlink:href="#ArialMT-30"/>
      </g>
     </g>
    </g>
    <g id="ytick_7">
     <g id="line2d_62">
      <g>
       <use style="stroke:#000000;stroke-width:0.8;" x="49.27" xlink:href="#m446c6e5402" y="51.452578"/>
      </g>
     </g>
     <g id="text_15">
      <!-- 1.2 -->
      <g transform="translate(24.2 56.105156)scale(0.13 -0.13)">
       <use xlink:href="#ArialMT-31"/>
       <use x="55.615234" xlink:href="#ArialMT-2e"/>
       <use x="83.398438" xlink:href="#ArialMT-32"/>
      </g>
     </g>
    </g>
    <g id="ytick_8">
     <g id="line2d_63">
      <g>
       <use style="stroke:#000000;stroke-width:0.8;" x="49.27" xlink:href="#m446c6e5402" y="11.852578"/>
      </g>
     </g>
     <g id="text_16">
      <!-- 1.4 -->
      <g transform="translate(24.2 16.505156)scale(0.13 -0.13)">
       <use xlink:href="#ArialMT-31"/>
       <use x="55.615234" xlink:href="#ArialMT-2e"/>
       <use x="83.398438" xlink:href="#ArialMT-34"/>
      </g>
     </g>
    </g>
    <g id="text_17">
     <!-- Carbono médio em $\alpha' + \theta$ (%) -->
     <defs>
      <path d="M 58.796875 25.09375 
L 68.265625 22.703125 
Q 65.28125 11.03125 57.546875 4.90625 
Q 49.8125 -1.21875 38.625 -1.21875 
Q 27.046875 -1.21875 19.796875 3.484375 
Q 12.546875 8.203125 8.765625 17.140625 
Q 4.984375 26.078125 4.984375 36.328125 
Q 4.984375 47.515625 9.25 55.828125 
Q 13.53125 64.15625 21.40625 68.46875 
Q 29.296875 72.796875 38.765625 72.796875 
Q 49.515625 72.796875 56.828125 67.328125 
Q 64.15625 61.859375 67.046875 51.953125 
L 57.71875 49.75 
Q 55.21875 57.5625 50.484375 61.125 
Q 45.75 64.703125 38.578125 64.703125 
Q 30.328125 64.703125 24.78125 60.734375 
Q 19.234375 56.78125 16.984375 50.109375 
Q 14.75 43.453125 14.75 36.375 
Q 14.75 27.25 17.40625 20.4375 
Q 20.0625 13.625 25.671875 10.25 
Q 31.296875 6.890625 37.84375 6.890625 
Q 45.796875 6.890625 51.3125 11.46875 
Q 56.84375 16.0625 58.796875 25.09375 
z
" id="ArialMT-43"/>
      <path d="M 40.4375 6.390625 
Q 35.546875 2.25 31.03125 0.53125 
Q 26.515625 -1.171875 21.34375 -1.171875 
Q 12.796875 -1.171875 8.203125 3 
Q 3.609375 7.171875 3.609375 13.671875 
Q 3.609375 17.484375 5.34375 20.625 
Q 7.078125 23.78125 9.890625 25.6875 
Q 12.703125 27.59375 16.21875 28.5625 
Q 18.796875 29.25 24.03125 29.890625 
Q 34.671875 31.15625 39.703125 32.90625 
Q 39.75 34.71875 39.75 35.203125 
Q 39.75 40.578125 37.25 42.78125 
Q 33.890625 45.75 27.25 45.75 
Q 21.046875 45.75 18.09375 43.578125 
Q 15.140625 41.40625 13.71875 35.890625 
L 5.125 37.0625 
Q 6.296875 42.578125 8.984375 45.96875 
Q 11.671875 49.359375 16.75 51.1875 
Q 21.828125 53.03125 28.515625 53.03125 
Q 35.15625 53.03125 39.296875 51.46875 
Q 43.453125 49.90625 45.40625 47.53125 
Q 47.359375 45.171875 48.140625 41.546875 
Q 48.578125 39.3125 48.578125 33.453125 
L 48.578125 21.734375 
Q 48.578125 9.46875 49.140625 6.21875 
Q 49.703125 2.984375 51.375 0 
L 42.1875 0 
Q 40.828125 2.734375 40.4375 6.390625 
z
M 39.703125 26.03125 
Q 34.90625 24.078125 25.34375 22.703125 
Q 19.921875 21.921875 17.671875 20.9375 
Q 15.4375 19.96875 14.203125 18.09375 
Q 12.984375 16.21875 12.984375 13.921875 
Q 12.984375 10.40625 15.640625 8.0625 
Q 18.3125 5.71875 23.4375 5.71875 
Q 28.515625 5.71875 32.46875 7.9375 
Q 36.421875 10.15625 38.28125 14.015625 
Q 39.703125 17 39.703125 22.796875 
z
" id="ArialMT-61"/>
      <path d="M 6.5 0 
L 6.5 51.859375 
L 14.40625 51.859375 
L 14.40625 44 
Q 17.4375 49.515625 20 51.265625 
Q 22.5625 53.03125 25.640625 53.03125 
Q 30.078125 53.03125 34.671875 50.203125 
L 31.640625 42.046875 
Q 28.421875 43.953125 25.203125 43.953125 
Q 22.3125 43.953125 20.015625 42.21875 
Q 17.71875 40.484375 16.75 37.40625 
Q 15.28125 32.71875 15.28125 27.15625 
L 15.28125 0 
z
" id="ArialMT-72"/>
      <path d="M 14.703125 0 
L 6.546875 0 
L 6.546875 71.578125 
L 15.328125 71.578125 
L 15.328125 46.046875 
Q 20.90625 53.03125 29.546875 53.03125 
Q 34.328125 53.03125 38.59375 51.09375 
Q 42.875 49.171875 45.625 45.671875 
Q 48.390625 42.1875 49.953125 37.25 
Q 51.515625 32.328125 51.515625 26.703125 
Q 51.515625 13.375 44.921875 6.09375 
Q 38.328125 -1.171875 29.109375 -1.171875 
Q 19.921875 -1.171875 14.703125 6.5 
z
M 14.59375 26.3125 
Q 14.59375 17 17.140625 12.84375 
Q 21.296875 6.0625 28.375 6.0625 
Q 34.125 6.0625 38.328125 11.0625 
Q 42.53125 16.0625 42.53125 25.984375 
Q 42.53125 36.140625 38.5 40.96875 
Q 34.46875 45.796875 28.765625 45.796875 
Q 23 45.796875 18.796875 40.796875 
Q 14.59375 35.796875 14.59375 26.3125 
z
" id="ArialMT-62"/>
      <path d="M 6.59375 0 
L 6.59375 51.859375 
L 14.5 51.859375 
L 14.5 44.484375 
Q 20.21875 53.03125 31 53.03125 
Q 35.6875 53.03125 39.625 51.34375 
Q 43.5625 49.65625 45.515625 46.921875 
Q 47.46875 44.1875 48.25 40.4375 
Q 48.734375 37.984375 48.734375 31.890625 
L 48.734375 0 
L 39.9375 0 
L 39.9375 31.546875 
Q 39.9375 36.921875 38.90625 39.578125 
Q 37.890625 42.234375 35.28125 43.8125 
Q 32.671875 45.40625 29.15625 45.40625 
Q 23.53125 45.40625 19.453125 41.84375 
Q 15.375 38.28125 15.375 28.328125 
L 15.375 0 
z
" id="ArialMT-6e"/>
      <path d="M 42.09375 16.703125 
L 51.171875 15.578125 
Q 49.03125 7.625 43.21875 3.21875 
Q 37.40625 -1.171875 28.375 -1.171875 
Q 17 -1.171875 10.328125 5.828125 
Q 3.65625 12.84375 3.65625 25.484375 
Q 3.65625 38.578125 10.390625 45.796875 
Q 17.140625 53.03125 27.875 53.03125 
Q 38.28125 53.03125 44.875 45.953125 
Q 51.46875 38.875 51.46875 26.03125 
Q 51.46875 25.25 51.421875 23.6875 
L 12.75 23.6875 
Q 13.234375 15.140625 17.578125 10.59375 
Q 21.921875 6.0625 28.421875 6.0625 
Q 33.25 6.0625 36.671875 8.59375 
Q 40.09375 11.140625 42.09375 16.703125 
z
M 13.234375 30.90625 
L 42.1875 30.90625 
Q 41.609375 37.453125 38.875 40.71875 
Q 34.671875 45.796875 27.984375 45.796875 
Q 21.921875 45.796875 17.796875 41.75 
Q 13.671875 37.703125 13.234375 30.90625 
z
M 22.71875 58.296875 
L 29.203125 71.96875 
L 40.734375 71.96875 
L 29.984375 58.296875 
z
" id="ArialMT-e9"/>
      <path d="M 40.234375 0 
L 40.234375 6.546875 
Q 35.296875 -1.171875 25.734375 -1.171875 
Q 19.53125 -1.171875 14.328125 2.25 
Q 9.125 5.671875 6.265625 11.796875 
Q 3.421875 17.921875 3.421875 25.875 
Q 3.421875 33.640625 6 39.96875 
Q 8.59375 46.296875 13.765625 49.65625 
Q 18.953125 53.03125 25.34375 53.03125 
Q 30.03125 53.03125 33.6875 51.046875 
Q 37.359375 49.078125 39.65625 45.90625 
L 39.65625 71.578125 
L 48.390625 71.578125 
L 48.390625 0 
z
M 12.453125 25.875 
Q 12.453125 15.921875 16.640625 10.984375 
Q 20.84375 6.0625 26.5625 6.0625 
Q 32.328125 6.0625 36.34375 10.765625 
Q 40.375 15.484375 40.375 25.140625 
Q 40.375 35.796875 36.265625 40.765625 
Q 32.171875 45.75 26.171875 45.75 
Q 20.3125 45.75 16.375 40.96875 
Q 12.453125 36.1875 12.453125 25.875 
z
" id="ArialMT-64"/>
      <path d="M 6.640625 61.46875 
L 6.640625 71.578125 
L 15.4375 71.578125 
L 15.4375 61.46875 
z
M 6.640625 0 
L 6.640625 51.859375 
L 15.4375 51.859375 
L 15.4375 0 
z
" id="ArialMT-69"/>
      <path d="M 40.921875 25.4375 
L 40.96875 36.71875 
Q 41.015625 48.25 32.328125 48.296875 
Q 25.828125 48.34375 21.78125 42.921875 
Q 16.703125 36.234375 14.984375 27.296875 
Q 12.890625 16.546875 15.53125 11.421875 
Q 18.265625 6.203125 24.171875 6.203125 
Q 30.71875 6.203125 36.234375 16.609375 
z
M 33.84375 55.90625 
Q 49.078125 56.15625 48.875 40.375 
Q 48.875 40.375 56.5 54.6875 
L 64.5 54.6875 
L 48.734375 25.046875 
L 48.578125 14.359375 
Q 48.578125 11.96875 49.90625 9.96875 
Q 51.421875 7.625 52.984375 7.625 
L 57.328125 7.625 
L 55.859375 0 
L 50.4375 0 
Q 45.84375 0 42.53125 4.109375 
Q 40.96875 6.15625 40.921875 10.453125 
Q 37.75 5.21875 32.28125 0.78125 
Q 29.6875 -1.265625 22.703125 -1.21875 
Q 11.28125 -1.125 7.125 6.203125 
Q 2.875 13.8125 5.515625 27.296875 
Q 8.34375 41.796875 15.765625 48.390625 
Q 24.125 55.765625 33.84375 55.90625 
z
" id="DejaVuSans-Oblique-3b1"/>
      <path d="M 3.515625 5.421875 
Q 2.875 5.609375 2.875 6.390625 
L 15.09375 51.8125 
Q 15.671875 53.65625 17.078125 54.78125 
Q 18.5 55.90625 20.3125 55.90625 
Q 22.65625 55.90625 24.4375 54.359375 
Q 26.21875 52.828125 26.21875 50.484375 
Q 26.21875 49.46875 25.6875 48.1875 
L 7.625 4.984375 
Q 7.28125 4.296875 6.6875 4.296875 
Q 6.15625 4.296875 5 4.78125 
Q 3.859375 5.28125 3.515625 5.421875 
z
" id="Cmsy10-30"/>
      <path d="M 46 62.703125 
L 46 35.5 
L 73.1875 35.5 
L 73.1875 27.203125 
L 46 27.203125 
L 46 0 
L 37.796875 0 
L 37.796875 27.203125 
L 10.59375 27.203125 
L 10.59375 35.5 
L 37.796875 35.5 
L 37.796875 62.703125 
z
" id="DejaVuSans-2b"/>
      <path d="M 45.515625 34.671875 
L 14.453125 34.671875 
Q 12.359375 20.0625 14.5 13.875 
Q 17.1875 6.25 24.46875 6.25 
Q 31.78125 6.25 37.359375 13.921875 
Q 42.234375 20.65625 45.515625 34.671875 
z
M 47.015625 42.96875 
Q 48.34375 56.84375 46.625 61.71875 
Q 43.953125 69.4375 36.765625 69.4375 
Q 29.296875 69.4375 23.828125 61.8125 
Q 19.53125 55.671875 16.15625 42.96875 
z
M 38.1875 76.765625 
Q 49.90625 76.765625 54.59375 66.40625 
Q 59.28125 56.109375 55.71875 37.84375 
Q 52.203125 19.625 43.453125 9.28125 
Q 34.765625 -1.125 23.046875 -1.125 
Q 11.28125 -1.125 6.640625 9.28125 
Q 2 19.625 5.515625 37.84375 
Q 9.078125 56.109375 17.71875 66.40625 
Q 26.421875 76.765625 38.1875 76.765625 
z
" id="DejaVuSans-Oblique-3b8"/>
      <path d="M 5.8125 54.390625 
Q 5.8125 62.0625 9.671875 67.421875 
Q 13.53125 72.796875 20.84375 72.796875 
Q 27.59375 72.796875 32 67.984375 
Q 36.421875 63.1875 36.421875 53.859375 
Q 36.421875 44.78125 31.953125 39.875 
Q 27.484375 34.96875 20.953125 34.96875 
Q 14.453125 34.96875 10.125 39.796875 
Q 5.8125 44.625 5.8125 54.390625 
z
M 21.09375 66.75 
Q 17.828125 66.75 15.65625 63.90625 
Q 13.484375 61.078125 13.484375 53.515625 
Q 13.484375 46.625 15.671875 43.8125 
Q 17.875 41.015625 21.09375 41.015625 
Q 24.421875 41.015625 26.59375 43.84375 
Q 28.765625 46.6875 28.765625 54.203125 
Q 28.765625 61.140625 26.5625 63.9375 
Q 24.359375 66.75 21.09375 66.75 
z
M 21.140625 -2.640625 
L 60.296875 72.796875 
L 67.4375 72.796875 
L 28.421875 -2.640625 
z
M 52.09375 16.796875 
Q 52.09375 24.515625 55.953125 29.859375 
Q 59.8125 35.203125 67.1875 35.203125 
Q 73.921875 35.203125 78.34375 30.390625 
Q 82.765625 25.59375 82.765625 16.265625 
Q 82.765625 7.171875 78.296875 2.265625 
Q 73.828125 -2.640625 67.234375 -2.640625 
Q 60.75 -2.640625 56.421875 2.21875 
Q 52.09375 7.078125 52.09375 16.796875 
z
M 67.4375 29.15625 
Q 64.109375 29.15625 61.9375 26.3125 
Q 59.765625 23.484375 59.765625 15.921875 
Q 59.765625 9.078125 61.953125 6.25 
Q 64.15625 3.421875 67.390625 3.421875 
Q 70.75 3.421875 72.921875 6.25 
Q 75.09375 9.078125 75.09375 16.609375 
Q 75.09375 23.53125 72.890625 26.34375 
Q 70.703125 29.15625 67.4375 29.15625 
z
" id="ArialMT-25"/>
     </defs>
     <g transform="translate(17.34 237.487578)rotate(-90)scale(0.13 -0.13)">
      <use transform="translate(0 0.584375)" xlink:href="#ArialMT-43"/>
      <use transform="translate(72.216797 0.584375)" xlink:href="#ArialMT-61"/>
      <use transform="translate(127.832031 0.584375)" xlink:href="#ArialMT-72"/>
      <use transform="translate(161.132812 0.584375)" xlink:href="#ArialMT-62"/>
      <use transform="translate(216.748047 0.584375)" xlink:href="#ArialMT-6f"/>
      <use transform="translate(272.363281 0.584375)" xlink:href="#ArialMT-6e"/>
      <use transform="translate(327.978516 0.584375)" xlink:href="#ArialMT-6f"/>
      <use transform="translate(383.59375 0.584375)" xlink:href="#ArialMT-20"/>
      <use transform="translate(411.376953 0.584375)" xlink:href="#ArialMT-6d"/>
      <use transform="translate(494.677734 0.584375)" xlink:href="#ArialMT-e9"/>
      <use transform="translate(550.292969 0.584375)" xlink:href="#ArialMT-64"/>
      <use transform="translate(605.908203 0.584375)" xlink:href="#ArialMT-69"/>
      <use transform="translate(628.125 0.584375)" xlink:href="#ArialMT-6f"/>
      <use transform="translate(683.740234 0.584375)" xlink:href="#ArialMT-20"/>
      <use transform="translate(711.523438 0.584375)" xlink:href="#ArialMT-65"/>
      <use transform="translate(767.138672 0.584375)" xlink:href="#ArialMT-6d"/>
      <use transform="translate(850.439453 0.584375)" xlink:href="#ArialMT-20"/>
      <use transform="translate(878.222656 0.584375)" xlink:href="#DejaVuSans-Oblique-3b1"/>
      <use transform="translate(948.812396 38.865625)scale(0.7)" xlink:href="#Cmsy10-30"/>
      <use transform="translate(990.272357 0.584375)" xlink:href="#DejaVuSans-2b"/>
      <use transform="translate(1093.543841 0.584375)" xlink:href="#DejaVuSans-Oblique-3b8"/>
      <use transform="translate(1154.725482 0.584375)" xlink:href="#ArialMT-20"/>
      <use transform="translate(1182.508685 0.584375)" xlink:href="#ArialMT-28"/>
      <use transform="translate(1215.809466 0.584375)" xlink:href="#ArialMT-25"/>
      <use transform="translate(1304.725482 0.584375)" xlink:href="#ArialMT-29"/>
     </g>
    </g>
   </g>
   <g id="line2d_64">
    <path clip-path="url(#pefd67cfba1)" d="M 49.128283 139.132973 
L 110.155119 138.982288 
L 143.429456 138.684532 
L 167.914424 138.238876 
L 186.920316 137.675227 
L 205.488759 136.856124 
L 219.568348 135.995874 
L 232.04053 135.011113 
L 242.805581 133.953075 
L 253.880263 132.61951 
L 264.378306 131.078709 
L 272.91236 129.588987 
L 280.980952 127.952312 
L 288.443624 126.211383 
L 295.625364 124.300416 
L 302.463541 122.237126 
L 309.012136 120.009421 
L 314.682982 117.857563 
L 320.427406 115.443138 
L 325.821045 112.938498 
L 330.606058 110.504662 
L 335.694391 107.676987 
L 340.31764 104.874254 
L 344.406151 102.194483 
L 348.74724 99.125673 
L 353.387455 95.570574 
L 358.424962 91.363682 
L 362.766273 87.427508 
L 367.962008 82.317856 
L 373.568697 76.304171 
L 377.961469 71.235209 
L 382.704908 65.433844 
L 388.102352 58.476554 
L 395.072071 49.093451 
L 409.055715 30.116081 
L 414.266414 23.487305 
L 418.254608 18.746743 
L 422.286061 14.328921 
L 425.785843 10.848893 
L 428.709466 8.221469 
L 431.207587 6.190296 
L 433.983838 4.171893 
L 436.527599 2.545831 
L 439.87 0.730786 
L 439.87 0.730786 
" style="fill:none;stroke:#1f77b4;stroke-linecap:square;"/>
   </g>
   <g id="line2d_65">
    <path clip-path="url(#pefd67cfba1)" d="M 29.672947 139.157411 
L 439.87 139.157411 
L 439.87 139.157411 
" style="fill:none;stroke:#ff7f0e;stroke-linecap:square;"/>
   </g>
   <g id="line2d_66">
    <path clip-path="url(#pefd67cfba1)" d="M 49.128283 139.26883 
L 85.445998 139.509649 
L 109.491023 139.874083 
L 133.316422 140.442131 
L 175.090552 141.88183 
L 190.961799 142.700652 
L 205.205748 143.645701 
L 218.164955 144.731276 
L 230.080486 145.969521 
L 240.190552 147.242067 
L 250.261462 148.754599 
L 259.861778 150.467679 
L 266.668289 151.869692 
L 274.279429 153.649739 
L 281.252619 155.503046 
L 287.899323 157.49372 
L 294.317866 159.64944 
L 300.362705 161.913855 
L 306.184042 164.333421 
L 312.002522 167.011252 
L 317.636921 169.87764 
L 322.709737 172.711272 
L 327.487583 175.619849 
L 332.243038 178.76587 
L 336.575815 181.868345 
L 340.852843 185.168815 
L 345.390139 188.946752 
L 350.283889 193.359262 
L 354.101146 197.049916 
L 358.026518 201.064356 
L 364.178509 207.730705 
L 377.872939 222.828769 
L 381.572111 226.469337 
L 384.783348 229.310862 
L 387.621938 231.527377 
L 390.372829 233.385073 
L 393.04306 234.905438 
L 395.618286 236.111346 
L 398.19529 237.076396 
L 401.119109 237.907663 
L 404.121291 238.513086 
L 407.774288 238.984488 
L 411.575945 239.256974 
L 417.829357 239.434885 
L 428.732533 239.48096 
L 439.87 239.482115 
L 439.87 239.482115 
" style="fill:none;stroke:#2ca02c;stroke-linecap:square;"/>
   </g>
   <g id="line2d_67">
    <path clip-path="url(#pefd67cfba1)" d="M 47.819807 139.645857 
L 67.416859 140.072984 
L 83.025257 140.634139 
L 98.228354 141.410503 
L 134.665176 143.633845 
L 150.070151 144.690716 
L 162.695832 145.788752 
L 173.772953 146.974265 
L 184.542117 148.372618 
L 194.1208 149.861216 
L 202.522459 151.391524 
L 210.341479 153.034696 
L 217.802945 154.828531 
L 224.745857 156.723113 
L 231.191172 158.70133 
L 237.436408 160.844038 
L 243.327367 163.092128 
L 249.069247 165.518496 
L 254.849932 168.220641 
L 260.132096 170.940536 
L 265.47908 173.962266 
L 270.419293 177.016959 
L 275.155413 180.20318 
L 279.826809 183.614377 
L 284.427729 187.256571 
L 288.859842 191.05163 
L 293.226509 195.087485 
L 297.42534 199.267205 
L 301.592977 203.727471 
L 305.748947 208.506975 
L 309.825073 213.5397 
L 313.854026 218.873779 
L 317.775225 224.432314 
L 321.822469 230.575585 
L 325.668934 236.822156 
L 329.548374 243.551861 
L 333.432785 250.750038 
L 337.260623 258.318962 
L 341.151533 266.514272 
L 345.205717 275.584647 
L 349.802556 286.436322 
L 349.891302 286.650414 
L 350.013724 288.763311 
L 350.304048 288.80522 
L 353.145497 288.847606 
L 374.77 288.880874 
L 374.77 288.880874 
" style="fill:none;stroke:#d62728;stroke-linecap:square;"/>
   </g>
   <g id="line2d_68">
    <path clip-path="url(#pefd67cfba1)" d="M 47.819807 140.225728 
L 61.660594 140.804607 
L 74.021752 141.540275 
L 87.013912 142.549511 
L 116.935859 144.99947 
L 134.939669 146.317712 
L 145.288876 147.333899 
L 155.311362 148.533683 
L 164.360135 149.833246 
L 172.894853 151.27622 
L 180.889784 152.847913 
L 188.473506 154.563633 
L 195.275617 156.313691 
L 201.697388 158.172409 
L 208.121916 160.256213 
L 214.193735 162.455416 
L 220.009851 164.794702 
L 225.532818 167.248978 
L 231.009061 169.929273 
L 236.114236 172.670652 
L 241.084042 175.585314 
L 246.097131 178.793467 
L 250.765525 182.044311 
L 255.191806 185.380717 
L 259.713235 189.065025 
L 264.103368 192.930396 
L 268.179878 196.794318 
L 272.388778 201.080344 
L 276.512009 205.593033 
L 280.627785 210.430093 
L 284.634099 215.480204 
L 288.652499 220.908048 
L 292.58712 226.5986 
L 296.517173 232.679188 
L 300.362705 239.038259 
L 304.179701 245.776811 
L 307.995716 252.966113 
L 311.793481 260.599022 
L 315.580229 268.714779 
L 319.333991 277.288811 
L 323.081634 286.406808 
L 323.15192 286.583355 
L 323.29197 288.507985 
L 323.474739 288.679686 
L 324.194225 288.731034 
L 329.576353 288.801085 
L 355.983936 288.876673 
L 374.77 288.879962 
L 374.77 288.879962 
" style="fill:none;stroke:#9467bd;stroke-linecap:square;"/>
   </g>
   <g id="line2d_69">
    <path clip-path="url(#pefd67cfba1)" d="M 49.128283 144.757825 
L 57.43883 145.016648 
L 65.730732 145.512779 
L 76.447407 146.372159 
L 85.524533 147.31701 
L 94.602801 148.470744 
L 103.445534 149.823984 
L 111.84306 151.34345 
L 119.512916 152.957795 
L 126.678393 154.687182 
L 134.108063 156.735189 
L 140.557216 158.749051 
L 146.629936 160.86948 
L 152.520187 163.157302 
L 158.093477 165.553473 
L 163.527809 168.128519 
L 168.794086 170.870532 
L 173.876516 173.76875 
L 178.826601 176.851039 
L 183.605217 180.090937 
L 188.473506 183.68194 
L 192.811172 187.148769 
L 196.992483 190.747851 
L 201.242939 194.68515 
L 205.545023 198.976245 
L 209.71797 203.455193 
L 213.818707 208.183312 
L 217.875719 213.202752 
L 221.899735 218.540777 
L 225.808651 224.092459 
L 229.724254 230.040234 
L 233.624722 236.375435 
L 237.418209 242.955594 
L 241.259402 250.066736 
L 245.060491 257.57609 
L 248.839239 265.536886 
L 252.600837 273.983206 
L 256.352161 282.957084 
L 257.439878 285.919613 
L 257.725372 286.913735 
L 258.139532 287.623923 
L 258.608005 288.001253 
L 259.254458 288.217375 
L 260.480494 288.347363 
L 264.587992 288.471396 
L 297.857981 288.729592 
L 349.040259 288.864449 
L 374.77 288.867959 
L 374.77 288.867959 
" style="fill:none;stroke:#8c564b;stroke-linecap:square;"/>
   </g>
   <g id="line2d_70">
    <path clip-path="url(#pefd67cfba1)" d="M 49.128283 148.911055 
L 56.46939 150.499677 
L 63.083413 152.141711 
L 69.839669 154.056062 
L 75.956646 156.019191 
L 81.978006 158.181278 
L 87.856838 160.538948 
L 93.441546 163.027819 
L 98.675164 165.601354 
L 103.735299 168.331985 
L 108.655656 171.236372 
L 113.362728 174.264746 
L 118.000006 177.50726 
L 122.718272 181.092079 
L 127.248843 184.827585 
L 131.354965 188.48067 
L 135.614465 192.559377 
L 139.819875 196.893276 
L 143.9804 201.504427 
L 148.039453 206.337027 
L 152.039413 211.445035 
L 156.00057 216.865102 
L 159.901206 222.577805 
L 163.799781 228.684688 
L 167.636506 235.10783 
L 171.46812 241.958147 
L 175.238705 249.151627 
L 179.028343 256.862272 
L 182.800029 265.045076 
L 188.069679 276.578755 
L 189.532905 278.815803 
L 191.046406 280.729389 
L 192.580953 282.3159 
L 194.154458 283.626359 
L 195.804091 284.710933 
L 197.56473 285.600561 
L 199.418269 286.296809 
L 201.568289 286.853788 
L 204.221752 287.300595 
L 207.708416 287.644413 
L 212.923795 287.911749 
L 223.012242 288.167515 
L 243.621263 288.443885 
L 277.099629 288.658995 
L 345.007935 288.85805 
L 374.77 288.863058 
L 374.77 288.863058 
" style="fill:none;stroke:#e377c2;stroke-linecap:square;"/>
   </g>
   <g id="line2d_71">
    <path clip-path="url(#pefd67cfba1)" d="M 49.128283 158.85953 
L 55.007659 161.003718 
L 61.014862 163.431446 
L 66.66288 165.96267 
L 71.881184 168.536575 
L 76.929795 171.259628 
L 81.978006 174.233013 
L 86.976687 177.447861 
L 91.825531 180.846611 
L 96.579941 184.470458 
L 101.081789 188.189466 
L 105.433562 192.071521 
L 109.658515 196.131017 
L 113.913981 200.530839 
L 118.136439 205.222807 
L 122.219363 210.081598 
L 126.421117 215.419442 
L 130.878077 221.445351 
L 135.581105 228.171106 
L 141.259436 236.678461 
L 155.922649 258.80886 
L 159.884254 264.256303 
L 163.310835 268.595747 
L 166.362157 272.10914 
L 169.197445 275.042082 
L 171.876025 277.500008 
L 174.495107 279.601213 
L 177.012535 281.340315 
L 179.496846 282.795402 
L 182.034568 284.029476 
L 184.721132 285.082237 
L 187.505093 285.930867 
L 190.537795 286.61949 
L 193.980691 287.165931 
L 198.06271 287.580783 
L 203.463633 287.891471 
L 212.004102 288.133582 
L 230.488169 288.390646 
L 266.548995 288.651842 
L 327.844375 288.853789 
L 374.77 288.882475 
L 374.77 288.882475 
" style="fill:none;stroke:#7f7f7f;stroke-linecap:square;"/>
   </g>
   <g id="line2d_72">
    <path clip-path="url(#pefd67cfba1)" d="M 49.27 139.157411 
L 439.87 139.157411 
" style="fill:none;stroke:#000000;stroke-dasharray:1,1.65;stroke-dashoffset:0;"/>
   </g>
   <g id="line2d_73">
    <path clip-path="url(#pefd67cfba1)" style="fill:none;stroke:#000000;stroke-dasharray:1,1.65;stroke-dashoffset:0;"/>
   </g>
   <g id="patch_3">
    <path d="M 49.27 289.052578 
L 49.27 11.852578 
" style="fill:none;stroke:#000000;stroke-linecap:square;stroke-linejoin:miter;stroke-width:0.8;"/>
   </g>
   <g id="patch_4">
    <path d="M 439.87 289.052578 
L 439.87 11.852578 
" style="fill:none;stroke:#000000;stroke-linecap:square;stroke-linejoin:miter;stroke-width:0.8;"/>
   </g>
   <g id="patch_5">
    <path d="M 49.27 289.052578 
L 439.87 289.052578 
" style="fill:none;stroke:#000000;stroke-linecap:square;stroke-linejoin:miter;stroke-width:0.8;"/>
   </g>
   <g id="patch_6">
    <path d="M 49.27 11.852578 
L 439.87 11.852578 
" style="fill:none;stroke:#000000;stroke-linecap:square;stroke-linejoin:miter;stroke-width:0.8;"/>
   </g>
   <g id="legend_1">
    <g id="patch_7">
     <path d="M 55.77 97.321484 
L 367.25 97.321484 
L 367.25 18.352578 
L 55.77 18.352578 
z
" style="fill:#ffffff;opacity:0.8;stroke:#cccccc;stroke-linejoin:miter;"/>
    </g>
    <g id="line2d_74">
     <path d="M 60.97 28.492578 
L 86.97 28.492578 
" style="fill:none;stroke:#1f77b4;stroke-linecap:square;"/>
    </g>
    <g id="line2d_75"/>
    <g id="text_18">
     <!-- $\alpha'-\theta$ ortho -->
     <defs>
      <path d="M 10.59375 35.5 
L 73.1875 35.5 
L 73.1875 27.203125 
L 10.59375 27.203125 
z
" id="DejaVuSans-2212"/>
      <path d="M 25.78125 7.859375 
L 27.046875 0.09375 
Q 23.34375 -0.6875 20.40625 -0.6875 
Q 15.625 -0.6875 12.984375 0.828125 
Q 10.359375 2.34375 9.28125 4.8125 
Q 8.203125 7.28125 8.203125 15.1875 
L 8.203125 45.015625 
L 1.765625 45.015625 
L 1.765625 51.859375 
L 8.203125 51.859375 
L 8.203125 64.703125 
L 16.9375 69.96875 
L 16.9375 51.859375 
L 25.78125 51.859375 
L 25.78125 45.015625 
L 16.9375 45.015625 
L 16.9375 14.703125 
Q 16.9375 10.9375 17.40625 9.859375 
Q 17.875 8.796875 18.921875 8.15625 
Q 19.96875 7.515625 21.921875 7.515625 
Q 23.390625 7.515625 25.78125 7.859375 
z
" id="ArialMT-74"/>
      <path d="M 6.59375 0 
L 6.59375 71.578125 
L 15.375 71.578125 
L 15.375 45.90625 
Q 21.53125 53.03125 30.90625 53.03125 
Q 36.671875 53.03125 40.921875 50.75 
Q 45.171875 48.484375 47 44.484375 
Q 48.828125 40.484375 48.828125 32.859375 
L 48.828125 0 
L 40.046875 0 
L 40.046875 32.859375 
Q 40.046875 39.453125 37.1875 42.453125 
Q 34.328125 45.453125 29.109375 45.453125 
Q 25.203125 45.453125 21.75 43.421875 
Q 18.3125 41.40625 16.84375 37.9375 
Q 15.375 34.46875 15.375 28.375 
L 15.375 0 
z
" id="ArialMT-68"/>
     </defs>
     <g transform="translate(97.37 33.042578)scale(0.13 -0.13)">
      <use transform="translate(0 0.584375)" xlink:href="#DejaVuSans-Oblique-3b1"/>
      <use transform="translate(70.58974 38.865625)scale(0.7)" xlink:href="#Cmsy10-30"/>
      <use transform="translate(112.049701 0.584375)" xlink:href="#DejaVuSans-2212"/>
      <use transform="translate(215.321185 0.584375)" xlink:href="#DejaVuSans-Oblique-3b8"/>
      <use transform="translate(276.502826 0.584375)" xlink:href="#ArialMT-20"/>
      <use transform="translate(304.286029 0.584375)" xlink:href="#ArialMT-6f"/>
      <use transform="translate(359.901263 0.584375)" xlink:href="#ArialMT-72"/>
      <use transform="translate(393.202044 0.584375)" xlink:href="#ArialMT-74"/>
      <use transform="translate(420.985247 0.584375)" xlink:href="#ArialMT-68"/>
      <use transform="translate(476.600482 0.584375)" xlink:href="#ArialMT-6f"/>
     </g>
    </g>
    <g id="line2d_76">
     <path d="M 60.97 47.066328 
L 86.97 47.066328 
" style="fill:none;stroke:#ff7f0e;stroke-linecap:square;"/>
    </g>
    <g id="line2d_77"/>
    <g id="text_19">
     <!-- $\mu_C =$ 16,4 kJ/mol -->
     <defs>
      <path d="M -1.3125 -20.796875 
L 13.375 54.6875 
L 22.40625 54.6875 
L 15.765625 20.65625 
Q 15.578125 19.625 15.421875 18.359375 
Q 15.28125 17.09375 15.28125 15.828125 
Q 15.28125 11.28125 18.140625 8.828125 
Q 21 6.390625 26.3125 6.390625 
Q 33.546875 6.390625 37.984375 10.484375 
Q 42.4375 14.59375 44 22.796875 
L 50.203125 54.6875 
L 59.1875 54.6875 
L 51.03125 12.640625 
Q 50.828125 11.71875 50.75 11.03125 
Q 50.6875 10.359375 50.6875 9.8125 
Q 50.6875 8.296875 51.296875 7.59375 
Q 51.90625 6.890625 53.21875 6.890625 
Q 53.71875 6.890625 54.5625 7.125 
Q 55.421875 7.375 56.984375 8.015625 
L 55.609375 0.78125 
Q 53.46875 -0.296875 51.515625 -0.859375 
Q 49.5625 -1.421875 47.703125 -1.421875 
Q 44.484375 -1.421875 42.65625 0.625 
Q 40.828125 2.6875 40.828125 6.296875 
Q 38.09375 2.390625 34.296875 0.484375 
Q 30.515625 -1.421875 25.390625 -1.421875 
Q 20.84375 -1.421875 17.453125 0.671875 
Q 14.0625 2.78125 12.984375 6.203125 
L 7.71875 -20.796875 
z
" id="DejaVuSans-Oblique-3bc"/>
      <path d="M 69.484375 67.28125 
L 67.484375 56.890625 
Q 62.796875 61.625 57.546875 63.921875 
Q 52.296875 66.21875 46.1875 66.21875 
Q 37.84375 66.21875 31.515625 62.203125 
Q 25.203125 58.203125 20.609375 50 
Q 17.671875 44.734375 16.125 38.84375 
Q 14.59375 32.953125 14.59375 27 
Q 14.59375 17.046875 19.75 11.8125 
Q 24.90625 6.59375 34.71875 6.59375 
Q 41.5 6.59375 47.75 8.765625 
Q 54 10.9375 59.90625 15.28125 
L 57.625 3.609375 
Q 51.8125 1.125 45.875 -0.140625 
Q 39.9375 -1.421875 33.984375 -1.421875 
Q 19.96875 -1.421875 12.078125 6.1875 
Q 4.203125 13.8125 4.203125 27.390625 
Q 4.203125 36.078125 7.203125 44.46875 
Q 10.203125 52.875 15.828125 59.8125 
Q 21.78125 67.1875 29.421875 70.703125 
Q 37.0625 74.21875 47.21875 74.21875 
Q 53.46875 74.21875 59.0625 72.484375 
Q 64.65625 70.75 69.484375 67.28125 
z
" id="DejaVuSans-Oblique-43"/>
      <path d="M 10.59375 45.40625 
L 73.1875 45.40625 
L 73.1875 37.203125 
L 10.59375 37.203125 
z
M 10.59375 25.484375 
L 73.1875 25.484375 
L 73.1875 17.1875 
L 10.59375 17.1875 
z
" id="DejaVuSans-3d"/>
      <path d="M 8.890625 0 
L 8.890625 10.015625 
L 18.890625 10.015625 
L 18.890625 0 
Q 18.890625 -5.515625 16.9375 -8.90625 
Q 14.984375 -12.3125 10.75 -14.15625 
L 8.296875 -10.40625 
Q 11.078125 -9.1875 12.390625 -6.8125 
Q 13.71875 -4.4375 13.875 0 
z
" id="ArialMT-2c"/>
      <path d="M 6.640625 0 
L 6.640625 71.578125 
L 15.4375 71.578125 
L 15.4375 30.765625 
L 36.234375 51.859375 
L 47.609375 51.859375 
L 27.78125 32.625 
L 49.609375 0 
L 38.765625 0 
L 21.625 26.515625 
L 15.4375 20.5625 
L 15.4375 0 
z
" id="ArialMT-6b"/>
      <path d="M 2.875 20.3125 
L 11.421875 21.484375 
Q 11.765625 13.28125 14.5 10.25 
Q 17.234375 7.234375 22.078125 7.234375 
Q 25.640625 7.234375 28.21875 8.859375 
Q 30.8125 10.5 31.78125 13.296875 
Q 32.765625 16.109375 32.765625 22.265625 
L 32.765625 71.578125 
L 42.234375 71.578125 
L 42.234375 22.796875 
Q 42.234375 13.8125 40.0625 8.875 
Q 37.890625 3.953125 33.171875 1.359375 
Q 28.46875 -1.21875 22.125 -1.21875 
Q 12.703125 -1.21875 7.6875 4.203125 
Q 2.6875 9.625 2.875 20.3125 
z
" id="ArialMT-4a"/>
      <path d="M 0 -1.21875 
L 20.75 72.796875 
L 27.78125 72.796875 
L 7.078125 -1.21875 
z
" id="ArialMT-2f"/>
      <path d="M 6.390625 0 
L 6.390625 71.578125 
L 15.1875 71.578125 
L 15.1875 0 
z
" id="ArialMT-6c"/>
     </defs>
     <g transform="translate(97.37 51.616328)scale(0.13 -0.13)">
      <use transform="translate(0 0.203125)" xlink:href="#DejaVuSans-Oblique-3bc"/>
      <use transform="translate(63.623047 -16.203125)scale(0.7)" xlink:href="#DejaVuSans-Oblique-43"/>
      <use transform="translate(134.716797 0.203125)" xlink:href="#DejaVuSans-3d"/>
      <use transform="translate(237.988281 0.203125)" xlink:href="#ArialMT-20"/>
      <use transform="translate(265.771484 0.203125)" xlink:href="#ArialMT-31"/>
      <use transform="translate(321.386719 0.203125)" xlink:href="#ArialMT-36"/>
      <use transform="translate(377.001953 0.203125)" xlink:href="#ArialMT-2c"/>
      <use transform="translate(404.785156 0.203125)" xlink:href="#ArialMT-34"/>
      <use transform="translate(460.400391 0.203125)" xlink:href="#ArialMT-20"/>
      <use transform="translate(488.183594 0.203125)" xlink:href="#ArialMT-6b"/>
      <use transform="translate(538.183594 0.203125)" xlink:href="#ArialMT-4a"/>
      <use transform="translate(588.183594 0.203125)" xlink:href="#ArialMT-2f"/>
      <use transform="translate(615.966797 0.203125)" xlink:href="#ArialMT-6d"/>
      <use transform="translate(699.267578 0.203125)" xlink:href="#ArialMT-6f"/>
      <use transform="translate(754.882812 0.203125)" xlink:href="#ArialMT-6c"/>
     </g>
    </g>
    <g id="line2d_78">
     <path d="M 60.97 65.786328 
L 86.97 65.786328 
" style="fill:none;stroke:#2ca02c;stroke-linecap:square;"/>
    </g>
    <g id="line2d_79"/>
    <g id="text_20">
     <!-- $\mu_C =$ 20,0 kJ/mol -->
     <g transform="translate(97.37 70.336328)scale(0.13 -0.13)">
      <use transform="translate(0 0.203125)" xlink:href="#DejaVuSans-Oblique-3bc"/>
      <use transform="translate(63.623047 -16.203125)scale(0.7)" xlink:href="#DejaVuSans-Oblique-43"/>
      <use transform="translate(134.716797 0.203125)" xlink:href="#DejaVuSans-3d"/>
      <use transform="translate(237.988281 0.203125)" xlink:href="#ArialMT-20"/>
      <use transform="translate(265.771484 0.203125)" xlink:href="#ArialMT-32"/>
      <use transform="translate(321.386719 0.203125)" xlink:href="#ArialMT-30"/>
      <use transform="translate(377.001953 0.203125)" xlink:href="#ArialMT-2c"/>
      <use transform="translate(404.785156 0.203125)" xlink:href="#ArialMT-30"/>
      <use transform="translate(460.400391 0.203125)" xlink:href="#ArialMT-20"/>
      <use transform="translate(488.183594 0.203125)" xlink:href="#ArialMT-6b"/>
      <use transform="translate(538.183594 0.203125)" xlink:href="#ArialMT-4a"/>
      <use transform="translate(588.183594 0.203125)" xlink:href="#ArialMT-2f"/>
      <use transform="translate(615.966797 0.203125)" xlink:href="#ArialMT-6d"/>
      <use transform="translate(699.267578 0.203125)" xlink:href="#ArialMT-6f"/>
      <use transform="translate(754.882812 0.203125)" xlink:href="#ArialMT-6c"/>
     </g>
    </g>
    <g id="line2d_80">
     <path d="M 60.97 84.506328 
L 86.97 84.506328 
" style="fill:none;stroke:#d62728;stroke-linecap:square;"/>
    </g>
    <g id="line2d_81"/>
    <g id="text_21">
     <!-- $\mu_C =$ 23,2 kJ/mol -->
     <g transform="translate(97.37 89.056328)scale(0.13 -0.13)">
      <use transform="translate(0 0.203125)" xlink:href="#DejaVuSans-Oblique-3bc"/>
      <use transform="translate(63.623047 -16.203125)scale(0.7)" xlink:href="#DejaVuSans-Oblique-43"/>
      <use transform="translate(134.716797 0.203125)" xlink:href="#DejaVuSans-3d"/>
      <use transform="translate(237.988281 0.203125)" xlink:href="#ArialMT-20"/>
      <use transform="translate(265.771484 0.203125)" xlink:href="#ArialMT-32"/>
      <use transform="translate(321.386719 0.203125)" xlink:href="#ArialMT-33"/>
      <use transform="translate(377.001953 0.203125)" xlink:href="#ArialMT-2c"/>
      <use transform="translate(404.785156 0.203125)" xlink:href="#ArialMT-32"/>
      <use transform="translate(460.400391 0.203125)" xlink:href="#ArialMT-20"/>
      <use transform="translate(488.183594 0.203125)" xlink:href="#ArialMT-6b"/>
      <use transform="translate(538.183594 0.203125)" xlink:href="#ArialMT-4a"/>
      <use transform="translate(588.183594 0.203125)" xlink:href="#ArialMT-2f"/>
      <use transform="translate(615.966797 0.203125)" xlink:href="#ArialMT-6d"/>
      <use transform="translate(699.267578 0.203125)" xlink:href="#ArialMT-6f"/>
      <use transform="translate(754.882812 0.203125)" xlink:href="#ArialMT-6c"/>
     </g>
    </g>
    <g id="line2d_82">
     <path d="M 224.51 28.492578 
L 250.51 28.492578 
" style="fill:none;stroke:#9467bd;stroke-linecap:square;"/>
    </g>
    <g id="line2d_83"/>
    <g id="text_22">
     <!-- $\mu_C =$ 25,0 kJ/mol -->
     <defs>
      <path d="M 4.15625 18.75 
L 13.375 19.53125 
Q 14.40625 12.796875 18.140625 9.390625 
Q 21.875 6 27.15625 6 
Q 33.5 6 37.890625 10.78125 
Q 42.28125 15.578125 42.28125 23.484375 
Q 42.28125 31 38.0625 35.34375 
Q 33.84375 39.703125 27 39.703125 
Q 22.75 39.703125 19.328125 37.765625 
Q 15.921875 35.84375 13.96875 32.765625 
L 5.71875 33.84375 
L 12.640625 70.609375 
L 48.25 70.609375 
L 48.25 62.203125 
L 19.671875 62.203125 
L 15.828125 42.96875 
Q 22.265625 47.46875 29.34375 47.46875 
Q 38.71875 47.46875 45.15625 40.96875 
Q 51.609375 34.46875 51.609375 24.265625 
Q 51.609375 14.546875 45.953125 7.46875 
Q 39.0625 -1.21875 27.15625 -1.21875 
Q 17.390625 -1.21875 11.203125 4.25 
Q 5.03125 9.71875 4.15625 18.75 
z
" id="ArialMT-35"/>
     </defs>
     <g transform="translate(260.91 33.042578)scale(0.13 -0.13)">
      <use transform="translate(0 0.203125)" xlink:href="#DejaVuSans-Oblique-3bc"/>
      <use transform="translate(63.623047 -16.203125)scale(0.7)" xlink:href="#DejaVuSans-Oblique-43"/>
      <use transform="translate(134.716797 0.203125)" xlink:href="#DejaVuSans-3d"/>
      <use transform="translate(237.988281 0.203125)" xlink:href="#ArialMT-20"/>
      <use transform="translate(265.771484 0.203125)" xlink:href="#ArialMT-32"/>
      <use transform="translate(321.386719 0.203125)" xlink:href="#ArialMT-35"/>
      <use transform="translate(377.001953 0.203125)" xlink:href="#ArialMT-2c"/>
      <use transform="translate(404.785156 0.203125)" xlink:href="#ArialMT-30"/>
      <use transform="translate(460.400391 0.203125)" xlink:href="#ArialMT-20"/>
      <use transform="translate(488.183594 0.203125)" xlink:href="#ArialMT-6b"/>
      <use transform="translate(538.183594 0.203125)" xlink:href="#ArialMT-4a"/>
      <use transform="translate(588.183594 0.203125)" xlink:href="#ArialMT-2f"/>
      <use transform="translate(615.966797 0.203125)" xlink:href="#ArialMT-6d"/>
      <use transform="translate(699.267578 0.203125)" xlink:href="#ArialMT-6f"/>
      <use transform="translate(754.882812 0.203125)" xlink:href="#ArialMT-6c"/>
     </g>
    </g>
    <g id="line2d_84">
     <path d="M 224.51 47.212578 
L 250.51 47.212578 
" style="fill:none;stroke:#8c564b;stroke-linecap:square;"/>
    </g>
    <g id="line2d_85"/>
    <g id="text_23">
     <!-- $\mu_C =$ 30,0 kJ/mol -->
     <g transform="translate(260.91 51.762578)scale(0.13 -0.13)">
      <use transform="translate(0 0.203125)" xlink:href="#DejaVuSans-Oblique-3bc"/>
      <use transform="translate(63.623047 -16.203125)scale(0.7)" xlink:href="#DejaVuSans-Oblique-43"/>
      <use transform="translate(134.716797 0.203125)" xlink:href="#DejaVuSans-3d"/>
      <use transform="translate(237.988281 0.203125)" xlink:href="#ArialMT-20"/>
      <use transform="translate(265.771484 0.203125)" xlink:href="#ArialMT-33"/>
      <use transform="translate(321.386719 0.203125)" xlink:href="#ArialMT-30"/>
      <use transform="translate(377.001953 0.203125)" xlink:href="#ArialMT-2c"/>
      <use transform="translate(404.785156 0.203125)" xlink:href="#ArialMT-30"/>
      <use transform="translate(460.400391 0.203125)" xlink:href="#ArialMT-20"/>
      <use transform="translate(488.183594 0.203125)" xlink:href="#ArialMT-6b"/>
      <use transform="translate(538.183594 0.203125)" xlink:href="#ArialMT-4a"/>
      <use transform="translate(588.183594 0.203125)" xlink:href="#ArialMT-2f"/>
      <use transform="translate(615.966797 0.203125)" xlink:href="#ArialMT-6d"/>
      <use transform="translate(699.267578 0.203125)" xlink:href="#ArialMT-6f"/>
      <use transform="translate(754.882812 0.203125)" xlink:href="#ArialMT-6c"/>
     </g>
    </g>
    <g id="line2d_86">
     <path d="M 224.51 66.582578 
L 250.51 66.582578 
" style="fill:none;stroke:#e377c2;stroke-linecap:square;"/>
    </g>
    <g id="line2d_87"/>
    <g id="text_24">
     <!-- $\alpha'-\theta$ para -->
     <g transform="translate(260.91 71.132578)scale(0.13 -0.13)">
      <use transform="translate(0 0.584375)" xlink:href="#DejaVuSans-Oblique-3b1"/>
      <use transform="translate(70.58974 38.865625)scale(0.7)" xlink:href="#Cmsy10-30"/>
      <use transform="translate(112.049701 0.584375)" xlink:href="#DejaVuSans-2212"/>
      <use transform="translate(215.321185 0.584375)" xlink:href="#DejaVuSans-Oblique-3b8"/>
      <use transform="translate(276.502826 0.584375)" xlink:href="#ArialMT-20"/>
      <use transform="translate(304.286029 0.584375)" xlink:href="#ArialMT-70"/>
      <use transform="translate(359.901263 0.584375)" xlink:href="#ArialMT-61"/>
      <use transform="translate(415.516497 0.584375)" xlink:href="#ArialMT-72"/>
      <use transform="translate(448.817279 0.584375)" xlink:href="#ArialMT-61"/>
     </g>
    </g>
    <g id="line2d_88">
     <path d="M 224.51 84.987734 
L 250.51 84.987734 
" style="fill:none;stroke:#7f7f7f;stroke-linecap:square;"/>
    </g>
    <g id="line2d_89"/>
    <g id="text_25">
     <!-- Sem carbonetos -->
     <defs>
      <path d="M 4.5 23 
L 13.421875 23.78125 
Q 14.0625 18.40625 16.375 14.96875 
Q 18.703125 11.53125 23.578125 9.40625 
Q 28.46875 7.28125 34.578125 7.28125 
Q 39.984375 7.28125 44.140625 8.890625 
Q 48.296875 10.5 50.3125 13.296875 
Q 52.34375 16.109375 52.34375 19.4375 
Q 52.34375 22.796875 50.390625 25.3125 
Q 48.4375 27.828125 43.953125 29.546875 
Q 41.0625 30.671875 31.203125 33.03125 
Q 21.34375 35.40625 17.390625 37.5 
Q 12.25 40.1875 9.734375 44.15625 
Q 7.234375 48.140625 7.234375 53.078125 
Q 7.234375 58.5 10.296875 63.203125 
Q 13.375 67.921875 19.28125 70.359375 
Q 25.203125 72.796875 32.421875 72.796875 
Q 40.375 72.796875 46.453125 70.234375 
Q 52.546875 67.671875 55.8125 62.6875 
Q 59.078125 57.71875 59.328125 51.421875 
L 50.25 50.734375 
Q 49.515625 57.515625 45.28125 60.984375 
Q 41.0625 64.453125 32.8125 64.453125 
Q 24.21875 64.453125 20.28125 61.296875 
Q 16.359375 58.15625 16.359375 53.71875 
Q 16.359375 49.859375 19.140625 47.359375 
Q 21.875 44.875 33.421875 42.265625 
Q 44.96875 39.65625 49.265625 37.703125 
Q 55.515625 34.8125 58.484375 30.390625 
Q 61.46875 25.984375 61.46875 20.21875 
Q 61.46875 14.5 58.203125 9.4375 
Q 54.9375 4.390625 48.796875 1.578125 
Q 42.671875 -1.21875 35.015625 -1.21875 
Q 25.296875 -1.21875 18.71875 1.609375 
Q 12.15625 4.4375 8.421875 10.125 
Q 4.6875 15.828125 4.5 23 
z
" id="ArialMT-53"/>
      <path d="M 40.4375 19 
L 49.078125 17.875 
Q 47.65625 8.9375 41.8125 3.875 
Q 35.984375 -1.171875 27.484375 -1.171875 
Q 16.84375 -1.171875 10.375 5.78125 
Q 3.90625 12.75 3.90625 25.734375 
Q 3.90625 34.125 6.6875 40.421875 
Q 9.46875 46.734375 15.15625 49.875 
Q 20.84375 53.03125 27.546875 53.03125 
Q 35.984375 53.03125 41.359375 48.75 
Q 46.734375 44.484375 48.25 36.625 
L 39.703125 35.296875 
Q 38.484375 40.53125 35.375 43.15625 
Q 32.28125 45.796875 27.875 45.796875 
Q 21.234375 45.796875 17.078125 41.03125 
Q 12.9375 36.28125 12.9375 25.984375 
Q 12.9375 15.53125 16.9375 10.796875 
Q 20.953125 6.0625 27.390625 6.0625 
Q 32.5625 6.0625 36.03125 9.234375 
Q 39.5 12.40625 40.4375 19 
z
" id="ArialMT-63"/>
     </defs>
     <g transform="translate(260.91 89.537734)scale(0.13 -0.13)">
      <use xlink:href="#ArialMT-53"/>
      <use x="66.699219" xlink:href="#ArialMT-65"/>
      <use x="122.314453" xlink:href="#ArialMT-6d"/>
      <use x="205.615234" xlink:href="#ArialMT-20"/>
      <use x="233.398438" xlink:href="#ArialMT-63"/>
      <use x="283.398438" xlink:href="#ArialMT-61"/>
      <use x="339.013672" xlink:href="#ArialMT-72"/>
      <use x="372.314453" xlink:href="#ArialMT-62"/>
      <use x="427.929688" xlink:href="#ArialMT-6f"/>
      <use x="483.544922" xlink:href="#ArialMT-6e"/>
      <use x="539.160156" xlink:href="#ArialMT-65"/>
      <use x="594.775391" xlink:href="#ArialMT-74"/>
      <use x="622.558594" xlink:href="#ArialMT-6f"/>
      <use x="678.173828" xlink:href="#ArialMT-73"/>
     </g>
    </g>
   </g>
  </g>
 </g>
 <defs>
  <clipPath id="pefd67cfba1">
   <rect height="277.2" width="390.6" x="49.27" y="11.852578"/>
  </clipPath>
 </defs>
</svg>
