<?xml version="1.0" encoding="utf-8" standalone="no"?>
<!DOCTYPE svg PUBLIC "-//W3C//DTD SVG 1.1//EN"
  "http://www.w3.org/Graphics/SVG/1.1/DTD/svg11.dtd">
<!-- Created with matplotlib (http://matplotlib.org/) -->
<svg height="274pt" version="1.1" viewBox="0 0 394 274" width="394pt" xmlns="http://www.w3.org/2000/svg" xmlns:xlink="http://www.w3.org/1999/xlink">
 <defs>
  <style type="text/css">
*{stroke-linecap:butt;stroke-linejoin:round;}
  </style>
 </defs>
 <g id="figure_1">
  <g id="patch_1">
   <path d="M 0 274.748594 
L 394.379062 274.748594 
L 394.379062 0 
L 0 0 
z
" style="fill:#ffffff;"/>
  </g>
  <g id="axes_1">
   <g id="patch_2">
    <path d="M 63.291719 232.46 
L 342.291719 232.46 
L 342.291719 10.7 
L 63.291719 10.7 
z
" style="fill:#ffffff;"/>
   </g>
   <g id="matplotlib.axis_1">
    <g id="xtick_1">
     <g id="line2d_1">
      <defs>
       <path d="M 0 0 
L 0 3.5 
" id="mb6e9b9a17c" style="stroke:#000000;stroke-width:0.8;"/>
      </defs>
      <g>
       <use style="stroke:#000000;stroke-width:0.8;" x="75.973537" xlink:href="#mb6e9b9a17c" y="232.46"/>
      </g>
     </g>
     <g id="text_1">
      <!-- 0 -->
      <defs>
       <path d="M 4.15625 35.296875 
Q 4.15625 48 6.765625 55.734375 
Q 9.375 63.484375 14.515625 67.671875 
Q 19.671875 71.875 27.484375 71.875 
Q 33.25 71.875 37.59375 69.546875 
Q 41.9375 67.234375 44.765625 62.859375 
Q 47.609375 58.5 49.21875 52.21875 
Q 50.828125 45.953125 50.828125 35.296875 
Q 50.828125 22.703125 48.234375 14.96875 
Q 45.65625 7.234375 40.5 3 
Q 35.359375 -1.21875 27.484375 -1.21875 
Q 17.140625 -1.21875 11.234375 6.203125 
Q 4.15625 15.140625 4.15625 35.296875 
z
M 13.1875 35.296875 
Q 13.1875 17.671875 17.3125 11.828125 
Q 21.4375 6 27.484375 6 
Q 33.546875 6 37.671875 11.859375 
Q 41.796875 17.71875 41.796875 35.296875 
Q 41.796875 52.984375 37.671875 58.78125 
Q 33.546875 64.59375 27.390625 64.59375 
Q 21.34375 64.59375 17.71875 59.46875 
Q 13.1875 52.9375 13.1875 35.296875 
z
" id="ArialMT-30"/>
      </defs>
      <g transform="translate(72.358928 248.765156)scale(0.13 -0.13)">
       <use xlink:href="#ArialMT-30"/>
      </g>
     </g>
    </g>
    <g id="xtick_2">
     <g id="line2d_2">
      <g>
       <use style="stroke:#000000;stroke-width:0.8;" x="116.138592" xlink:href="#mb6e9b9a17c" y="232.46"/>
      </g>
     </g>
     <g id="text_2">
      <!-- 25 -->
      <defs>
       <path d="M 50.34375 8.453125 
L 50.34375 0 
L 3.03125 0 
Q 2.9375 3.171875 4.046875 6.109375 
Q 5.859375 10.9375 9.828125 15.625 
Q 13.8125 20.3125 21.34375 26.46875 
Q 33.015625 36.03125 37.109375 41.625 
Q 41.21875 47.21875 41.21875 52.203125 
Q 41.21875 57.421875 37.46875 61 
Q 33.734375 64.59375 27.734375 64.59375 
Q 21.390625 64.59375 17.578125 60.78125 
Q 13.765625 56.984375 13.71875 50.25 
L 4.6875 51.171875 
Q 5.609375 61.28125 11.65625 66.578125 
Q 17.71875 71.875 27.9375 71.875 
Q 38.234375 71.875 44.234375 66.15625 
Q 50.25 60.453125 50.25 52 
Q 50.25 47.703125 48.484375 43.546875 
Q 46.734375 39.40625 42.65625 34.8125 
Q 38.578125 30.21875 29.109375 22.21875 
Q 21.1875 15.578125 18.9375 13.203125 
Q 16.703125 10.84375 15.234375 8.453125 
z
" id="ArialMT-32"/>
       <path d="M 4.15625 18.75 
L 13.375 19.53125 
Q 14.40625 12.796875 18.140625 9.390625 
Q 21.875 6 27.15625 6 
Q 33.5 6 37.890625 10.78125 
Q 42.28125 15.578125 42.28125 23.484375 
Q 42.28125 31 38.0625 35.34375 
Q 33.84375 39.703125 27 39.703125 
Q 22.75 39.703125 19.328125 37.765625 
Q 15.921875 35.84375 13.96875 32.765625 
L 5.71875 33.84375 
L 12.640625 70.609375 
L 48.25 70.609375 
L 48.25 62.203125 
L 19.671875 62.203125 
L 15.828125 42.96875 
Q 22.265625 47.46875 29.34375 47.46875 
Q 38.71875 47.46875 45.15625 40.96875 
Q 51.609375 34.46875 51.609375 24.265625 
Q 51.609375 14.546875 45.953125 7.46875 
Q 39.0625 -1.21875 27.15625 -1.21875 
Q 17.390625 -1.21875 11.203125 4.25 
Q 5.03125 9.71875 4.15625 18.75 
z
" id="ArialMT-35"/>
      </defs>
      <g transform="translate(108.909374 248.765156)scale(0.13 -0.13)">
       <use xlink:href="#ArialMT-32"/>
       <use x="55.615234" xlink:href="#ArialMT-35"/>
      </g>
     </g>
    </g>
    <g id="xtick_3">
     <g id="line2d_3">
      <g>
       <use style="stroke:#000000;stroke-width:0.8;" x="156.303648" xlink:href="#mb6e9b9a17c" y="232.46"/>
      </g>
     </g>
     <g id="text_3">
      <!-- 50 -->
      <g transform="translate(149.074429 248.765156)scale(0.13 -0.13)">
       <use xlink:href="#ArialMT-35"/>
       <use x="55.615234" xlink:href="#ArialMT-30"/>
      </g>
     </g>
    </g>
    <g id="xtick_4">
     <g id="line2d_4">
      <g>
       <use style="stroke:#000000;stroke-width:0.8;" x="196.468704" xlink:href="#mb6e9b9a17c" y="232.46"/>
      </g>
     </g>
     <g id="text_4">
      <!-- 75 -->
      <defs>
       <path d="M 4.734375 62.203125 
L 4.734375 70.65625 
L 51.078125 70.65625 
L 51.078125 63.8125 
Q 44.234375 56.546875 37.515625 44.484375 
Q 30.8125 32.421875 27.15625 19.671875 
Q 24.515625 10.6875 23.78125 0 
L 14.75 0 
Q 14.890625 8.453125 18.0625 20.40625 
Q 21.234375 32.375 27.171875 43.484375 
Q 33.109375 54.59375 39.796875 62.203125 
z
" id="ArialMT-37"/>
      </defs>
      <g transform="translate(189.239485 248.765156)scale(0.13 -0.13)">
       <use xlink:href="#ArialMT-37"/>
       <use x="55.615234" xlink:href="#ArialMT-35"/>
      </g>
     </g>
    </g>
    <g id="xtick_5">
     <g id="line2d_5">
      <g>
       <use style="stroke:#000000;stroke-width:0.8;" x="236.633759" xlink:href="#mb6e9b9a17c" y="232.46"/>
      </g>
     </g>
     <g id="text_5">
      <!-- 100 -->
      <defs>
       <path d="M 37.25 0 
L 28.46875 0 
L 28.46875 56 
Q 25.296875 52.984375 20.140625 49.953125 
Q 14.984375 46.921875 10.890625 45.40625 
L 10.890625 53.90625 
Q 18.265625 57.375 23.78125 62.296875 
Q 29.296875 67.234375 31.59375 71.875 
L 37.25 71.875 
z
" id="ArialMT-31"/>
      </defs>
      <g transform="translate(225.789931 248.765156)scale(0.13 -0.13)">
       <use xlink:href="#ArialMT-31"/>
       <use x="55.615234" xlink:href="#ArialMT-30"/>
       <use x="111.230469" xlink:href="#ArialMT-30"/>
      </g>
     </g>
    </g>
    <g id="xtick_6">
     <g id="line2d_6">
      <g>
       <use style="stroke:#000000;stroke-width:0.8;" x="276.798815" xlink:href="#mb6e9b9a17c" y="232.46"/>
      </g>
     </g>
     <g id="text_6">
      <!-- 125 -->
      <g transform="translate(265.954986 248.765156)scale(0.13 -0.13)">
       <use xlink:href="#ArialMT-31"/>
       <use x="55.615234" xlink:href="#ArialMT-32"/>
       <use x="111.230469" xlink:href="#ArialMT-35"/>
      </g>
     </g>
    </g>
    <g id="xtick_7">
     <g id="line2d_7">
      <g>
       <use style="stroke:#000000;stroke-width:0.8;" x="316.96387" xlink:href="#mb6e9b9a17c" y="232.46"/>
      </g>
     </g>
     <g id="text_7">
      <!-- 150 -->
      <g transform="translate(306.120042 248.765156)scale(0.13 -0.13)">
       <use xlink:href="#ArialMT-31"/>
       <use x="55.615234" xlink:href="#ArialMT-35"/>
       <use x="111.230469" xlink:href="#ArialMT-30"/>
      </g>
     </g>
    </g>
    <g id="text_8">
     <!-- Tempo (min) -->
     <defs>
      <path d="M 25.921875 0 
L 25.921875 63.140625 
L 2.34375 63.140625 
L 2.34375 71.578125 
L 59.078125 71.578125 
L 59.078125 63.140625 
L 35.40625 63.140625 
L 35.40625 0 
z
" id="ArialMT-54"/>
      <path d="M 42.09375 16.703125 
L 51.171875 15.578125 
Q 49.03125 7.625 43.21875 3.21875 
Q 37.40625 -1.171875 28.375 -1.171875 
Q 17 -1.171875 10.328125 5.828125 
Q 3.65625 12.84375 3.65625 25.484375 
Q 3.65625 38.578125 10.390625 45.796875 
Q 17.140625 53.03125 27.875 53.03125 
Q 38.28125 53.03125 44.875 45.953125 
Q 51.46875 38.875 51.46875 26.03125 
Q 51.46875 25.25 51.421875 23.6875 
L 12.75 23.6875 
Q 13.234375 15.140625 17.578125 10.59375 
Q 21.921875 6.0625 28.421875 6.0625 
Q 33.25 6.0625 36.671875 8.59375 
Q 40.09375 11.140625 42.09375 16.703125 
z
M 13.234375 30.90625 
L 42.1875 30.90625 
Q 41.609375 37.453125 38.875 40.71875 
Q 34.671875 45.796875 27.984375 45.796875 
Q 21.921875 45.796875 17.796875 41.75 
Q 13.671875 37.703125 13.234375 30.90625 
z
" id="ArialMT-65"/>
      <path d="M 6.59375 0 
L 6.59375 51.859375 
L 14.453125 51.859375 
L 14.453125 44.578125 
Q 16.890625 48.390625 20.9375 50.703125 
Q 25 53.03125 30.171875 53.03125 
Q 35.9375 53.03125 39.625 50.640625 
Q 43.3125 48.25 44.828125 43.953125 
Q 50.984375 53.03125 60.84375 53.03125 
Q 68.5625 53.03125 72.703125 48.75 
Q 76.859375 44.484375 76.859375 35.59375 
L 76.859375 0 
L 68.109375 0 
L 68.109375 32.671875 
Q 68.109375 37.9375 67.25 40.25 
Q 66.40625 42.578125 64.15625 43.984375 
Q 61.921875 45.40625 58.890625 45.40625 
Q 53.421875 45.40625 49.796875 41.765625 
Q 46.1875 38.140625 46.1875 30.125 
L 46.1875 0 
L 37.40625 0 
L 37.40625 33.6875 
Q 37.40625 39.546875 35.25 42.46875 
Q 33.109375 45.40625 28.21875 45.40625 
Q 24.515625 45.40625 21.359375 43.453125 
Q 18.21875 41.5 16.796875 37.734375 
Q 15.375 33.984375 15.375 26.90625 
L 15.375 0 
z
" id="ArialMT-6d"/>
      <path d="M 6.59375 -19.875 
L 6.59375 51.859375 
L 14.59375 51.859375 
L 14.59375 45.125 
Q 17.4375 49.078125 21 51.046875 
Q 24.5625 53.03125 29.640625 53.03125 
Q 36.28125 53.03125 41.359375 49.609375 
Q 46.4375 46.1875 49.015625 39.953125 
Q 51.609375 33.734375 51.609375 26.3125 
Q 51.609375 18.359375 48.75 11.984375 
Q 45.90625 5.609375 40.453125 2.21875 
Q 35.015625 -1.171875 29 -1.171875 
Q 24.609375 -1.171875 21.109375 0.6875 
Q 17.625 2.546875 15.375 5.375 
L 15.375 -19.875 
z
M 14.546875 25.640625 
Q 14.546875 15.625 18.59375 10.84375 
Q 22.65625 6.0625 28.421875 6.0625 
Q 34.28125 6.0625 38.453125 11.015625 
Q 42.625 15.96875 42.625 26.375 
Q 42.625 36.28125 38.546875 41.203125 
Q 34.46875 46.140625 28.8125 46.140625 
Q 23.1875 46.140625 18.859375 40.890625 
Q 14.546875 35.640625 14.546875 25.640625 
z
" id="ArialMT-70"/>
      <path d="M 3.328125 25.921875 
Q 3.328125 40.328125 11.328125 47.265625 
Q 18.015625 53.03125 27.640625 53.03125 
Q 38.328125 53.03125 45.109375 46.015625 
Q 51.90625 39.015625 51.90625 26.65625 
Q 51.90625 16.65625 48.90625 10.90625 
Q 45.90625 5.171875 40.15625 2 
Q 34.421875 -1.171875 27.640625 -1.171875 
Q 16.75 -1.171875 10.03125 5.8125 
Q 3.328125 12.796875 3.328125 25.921875 
z
M 12.359375 25.921875 
Q 12.359375 15.96875 16.703125 11.015625 
Q 21.046875 6.0625 27.640625 6.0625 
Q 34.1875 6.0625 38.53125 11.03125 
Q 42.875 16.015625 42.875 26.21875 
Q 42.875 35.84375 38.5 40.796875 
Q 34.125 45.75 27.640625 45.75 
Q 21.046875 45.75 16.703125 40.8125 
Q 12.359375 35.890625 12.359375 25.921875 
z
" id="ArialMT-6f"/>
      <path id="ArialMT-20"/>
      <path d="M 23.390625 -21.046875 
Q 16.109375 -11.859375 11.078125 0.4375 
Q 6.0625 12.75 6.0625 25.921875 
Q 6.0625 37.546875 9.8125 48.1875 
Q 14.203125 60.546875 23.390625 72.796875 
L 29.6875 72.796875 
Q 23.78125 62.640625 21.875 58.296875 
Q 18.890625 51.5625 17.1875 44.234375 
Q 15.09375 35.109375 15.09375 25.875 
Q 15.09375 2.390625 29.6875 -21.046875 
z
" id="ArialMT-28"/>
      <path d="M 6.640625 61.46875 
L 6.640625 71.578125 
L 15.4375 71.578125 
L 15.4375 61.46875 
z
M 6.640625 0 
L 6.640625 51.859375 
L 15.4375 51.859375 
L 15.4375 0 
z
" id="ArialMT-69"/>
      <path d="M 6.59375 0 
L 6.59375 51.859375 
L 14.5 51.859375 
L 14.5 44.484375 
Q 20.21875 53.03125 31 53.03125 
Q 35.6875 53.03125 39.625 51.34375 
Q 43.5625 49.65625 45.515625 46.921875 
Q 47.46875 44.1875 48.25 40.4375 
Q 48.734375 37.984375 48.734375 31.890625 
L 48.734375 0 
L 39.9375 0 
L 39.9375 31.546875 
Q 39.9375 36.921875 38.90625 39.578125 
Q 37.890625 42.234375 35.28125 43.8125 
Q 32.671875 45.40625 29.15625 45.40625 
Q 23.53125 45.40625 19.453125 41.84375 
Q 15.375 38.28125 15.375 28.328125 
L 15.375 0 
z
" id="ArialMT-6e"/>
      <path d="M 12.359375 -21.046875 
L 6.0625 -21.046875 
Q 20.65625 2.390625 20.65625 25.875 
Q 20.65625 35.0625 18.5625 44.09375 
Q 16.890625 51.421875 13.921875 58.15625 
Q 12.015625 62.546875 6.0625 72.796875 
L 12.359375 72.796875 
Q 21.53125 60.546875 25.921875 48.1875 
Q 29.6875 37.546875 29.6875 25.921875 
Q 29.6875 12.75 24.625 0.4375 
Q 19.578125 -11.859375 12.359375 -21.046875 
z
" id="ArialMT-29"/>
     </defs>
     <g transform="translate(165.967187 264.8125)scale(0.13 -0.13)">
      <use xlink:href="#ArialMT-54"/>
      <use x="60.912109" xlink:href="#ArialMT-65"/>
      <use x="116.527344" xlink:href="#ArialMT-6d"/>
      <use x="199.828125" xlink:href="#ArialMT-70"/>
      <use x="255.443359" xlink:href="#ArialMT-6f"/>
      <use x="311.058594" xlink:href="#ArialMT-20"/>
      <use x="338.841797" xlink:href="#ArialMT-28"/>
      <use x="372.142578" xlink:href="#ArialMT-6d"/>
      <use x="455.443359" xlink:href="#ArialMT-69"/>
      <use x="477.660156" xlink:href="#ArialMT-6e"/>
      <use x="533.275391" xlink:href="#ArialMT-29"/>
     </g>
    </g>
   </g>
   <g id="matplotlib.axis_2">
    <g id="ytick_1">
     <g id="line2d_8">
      <defs>
       <path d="M 0 0 
L -3.5 0 
" id="mc7d5cdc069" style="stroke:#000000;stroke-width:0.8;"/>
      </defs>
      <g>
       <use style="stroke:#000000;stroke-width:0.8;" x="63.291719" xlink:href="#mc7d5cdc069" y="231.55545"/>
      </g>
     </g>
     <g id="text_9">
      <!-- −0.25 -->
      <defs>
       <path d="M 52.828125 31.203125 
L 5.5625 31.203125 
L 5.5625 39.40625 
L 52.828125 39.40625 
z
" id="ArialMT-2212"/>
       <path d="M 9.078125 0 
L 9.078125 10.015625 
L 19.09375 10.015625 
L 19.09375 0 
z
" id="ArialMT-2e"/>
      </defs>
      <g transform="translate(23.399687 236.208028)scale(0.13 -0.13)">
       <use xlink:href="#ArialMT-2212"/>
       <use x="58.398438" xlink:href="#ArialMT-30"/>
       <use x="114.013672" xlink:href="#ArialMT-2e"/>
       <use x="141.796875" xlink:href="#ArialMT-32"/>
       <use x="197.412109" xlink:href="#ArialMT-35"/>
      </g>
     </g>
    </g>
    <g id="ytick_2">
     <g id="line2d_9">
      <g>
       <use style="stroke:#000000;stroke-width:0.8;" x="63.291719" xlink:href="#mc7d5cdc069" y="197.756552"/>
      </g>
     </g>
     <g id="text_10">
      <!-- 0.00 -->
      <g transform="translate(30.9925 202.40913)scale(0.13 -0.13)">
       <use xlink:href="#ArialMT-30"/>
       <use x="55.615234" xlink:href="#ArialMT-2e"/>
       <use x="83.398438" xlink:href="#ArialMT-30"/>
       <use x="139.013672" xlink:href="#ArialMT-30"/>
      </g>
     </g>
    </g>
    <g id="ytick_3">
     <g id="line2d_10">
      <g>
       <use style="stroke:#000000;stroke-width:0.8;" x="63.291719" xlink:href="#mc7d5cdc069" y="163.957653"/>
      </g>
     </g>
     <g id="text_11">
      <!-- 0.25 -->
      <g transform="translate(30.9925 168.610231)scale(0.13 -0.13)">
       <use xlink:href="#ArialMT-30"/>
       <use x="55.615234" xlink:href="#ArialMT-2e"/>
       <use x="83.398438" xlink:href="#ArialMT-32"/>
       <use x="139.013672" xlink:href="#ArialMT-35"/>
      </g>
     </g>
    </g>
    <g id="ytick_4">
     <g id="line2d_11">
      <g>
       <use style="stroke:#000000;stroke-width:0.8;" x="63.291719" xlink:href="#mc7d5cdc069" y="130.158755"/>
      </g>
     </g>
     <g id="text_12">
      <!-- 0.50 -->
      <g transform="translate(30.9925 134.811333)scale(0.13 -0.13)">
       <use xlink:href="#ArialMT-30"/>
       <use x="55.615234" xlink:href="#ArialMT-2e"/>
       <use x="83.398438" xlink:href="#ArialMT-35"/>
       <use x="139.013672" xlink:href="#ArialMT-30"/>
      </g>
     </g>
    </g>
    <g id="ytick_5">
     <g id="line2d_12">
      <g>
       <use style="stroke:#000000;stroke-width:0.8;" x="63.291719" xlink:href="#mc7d5cdc069" y="96.359857"/>
      </g>
     </g>
     <g id="text_13">
      <!-- 0.75 -->
      <g transform="translate(30.9925 101.012435)scale(0.13 -0.13)">
       <use xlink:href="#ArialMT-30"/>
       <use x="55.615234" xlink:href="#ArialMT-2e"/>
       <use x="83.398438" xlink:href="#ArialMT-37"/>
       <use x="139.013672" xlink:href="#ArialMT-35"/>
      </g>
     </g>
    </g>
    <g id="ytick_6">
     <g id="line2d_13">
      <g>
       <use style="stroke:#000000;stroke-width:0.8;" x="63.291719" xlink:href="#mc7d5cdc069" y="62.560959"/>
      </g>
     </g>
     <g id="text_14">
      <!-- 1.00 -->
      <g transform="translate(30.9925 67.213537)scale(0.13 -0.13)">
       <use xlink:href="#ArialMT-31"/>
       <use x="55.615234" xlink:href="#ArialMT-2e"/>
       <use x="83.398438" xlink:href="#ArialMT-30"/>
       <use x="139.013672" xlink:href="#ArialMT-30"/>
      </g>
     </g>
    </g>
    <g id="ytick_7">
     <g id="line2d_14">
      <g>
       <use style="stroke:#000000;stroke-width:0.8;" x="63.291719" xlink:href="#mc7d5cdc069" y="28.76206"/>
      </g>
     </g>
     <g id="text_15">
      <!-- 1.25 -->
      <g transform="translate(30.9925 33.414638)scale(0.13 -0.13)">
       <use xlink:href="#ArialMT-31"/>
       <use x="55.615234" xlink:href="#ArialMT-2e"/>
       <use x="83.398438" xlink:href="#ArialMT-32"/>
       <use x="139.013672" xlink:href="#ArialMT-35"/>
      </g>
     </g>
    </g>
    <g id="text_16">
     <!-- Dilatação relativa (%) -->
     <defs>
      <path d="M 7.71875 0 
L 7.71875 71.578125 
L 32.375 71.578125 
Q 40.71875 71.578125 45.125 70.5625 
Q 51.265625 69.140625 55.609375 65.4375 
Q 61.28125 60.640625 64.078125 53.1875 
Q 66.890625 45.75 66.890625 36.1875 
Q 66.890625 28.03125 64.984375 21.734375 
Q 63.09375 15.4375 60.109375 11.296875 
Q 57.125 7.171875 53.578125 4.796875 
Q 50.046875 2.4375 45.046875 1.21875 
Q 40.046875 0 33.546875 0 
z
M 17.1875 8.453125 
L 32.46875 8.453125 
Q 39.546875 8.453125 43.578125 9.765625 
Q 47.609375 11.078125 50 13.484375 
Q 53.375 16.84375 55.25 22.53125 
Q 57.125 28.21875 57.125 36.328125 
Q 57.125 47.5625 53.4375 53.59375 
Q 49.75 59.625 44.484375 61.671875 
Q 40.671875 63.140625 32.234375 63.140625 
L 17.1875 63.140625 
z
" id="ArialMT-44"/>
      <path d="M 6.390625 0 
L 6.390625 71.578125 
L 15.1875 71.578125 
L 15.1875 0 
z
" id="ArialMT-6c"/>
      <path d="M 40.4375 6.390625 
Q 35.546875 2.25 31.03125 0.53125 
Q 26.515625 -1.171875 21.34375 -1.171875 
Q 12.796875 -1.171875 8.203125 3 
Q 3.609375 7.171875 3.609375 13.671875 
Q 3.609375 17.484375 5.34375 20.625 
Q 7.078125 23.78125 9.890625 25.6875 
Q 12.703125 27.59375 16.21875 28.5625 
Q 18.796875 29.25 24.03125 29.890625 
Q 34.671875 31.15625 39.703125 32.90625 
Q 39.75 34.71875 39.75 35.203125 
Q 39.75 40.578125 37.25 42.78125 
Q 33.890625 45.75 27.25 45.75 
Q 21.046875 45.75 18.09375 43.578125 
Q 15.140625 41.40625 13.71875 35.890625 
L 5.125 37.0625 
Q 6.296875 42.578125 8.984375 45.96875 
Q 11.671875 49.359375 16.75 51.1875 
Q 21.828125 53.03125 28.515625 53.03125 
Q 35.15625 53.03125 39.296875 51.46875 
Q 43.453125 49.90625 45.40625 47.53125 
Q 47.359375 45.171875 48.140625 41.546875 
Q 48.578125 39.3125 48.578125 33.453125 
L 48.578125 21.734375 
Q 48.578125 9.46875 49.140625 6.21875 
Q 49.703125 2.984375 51.375 0 
L 42.1875 0 
Q 40.828125 2.734375 40.4375 6.390625 
z
M 39.703125 26.03125 
Q 34.90625 24.078125 25.34375 22.703125 
Q 19.921875 21.921875 17.671875 20.9375 
Q 15.4375 19.96875 14.203125 18.09375 
Q 12.984375 16.21875 12.984375 13.921875 
Q 12.984375 10.40625 15.640625 8.0625 
Q 18.3125 5.71875 23.4375 5.71875 
Q 28.515625 5.71875 32.46875 7.9375 
Q 36.421875 10.15625 38.28125 14.015625 
Q 39.703125 17 39.703125 22.796875 
z
" id="ArialMT-61"/>
      <path d="M 25.78125 7.859375 
L 27.046875 0.09375 
Q 23.34375 -0.6875 20.40625 -0.6875 
Q 15.625 -0.6875 12.984375 0.828125 
Q 10.359375 2.34375 9.28125 4.8125 
Q 8.203125 7.28125 8.203125 15.1875 
L 8.203125 45.015625 
L 1.765625 45.015625 
L 1.765625 51.859375 
L 8.203125 51.859375 
L 8.203125 64.703125 
L 16.9375 69.96875 
L 16.9375 51.859375 
L 25.78125 51.859375 
L 25.78125 45.015625 
L 16.9375 45.015625 
L 16.9375 14.703125 
Q 16.9375 10.9375 17.40625 9.859375 
Q 17.875 8.796875 18.921875 8.15625 
Q 19.96875 7.515625 21.921875 7.515625 
Q 23.390625 7.515625 25.78125 7.859375 
z
" id="ArialMT-74"/>
      <path d="M 40.4375 19 
L 49.078125 17.875 
Q 47.65625 8.9375 41.8125 3.875 
Q 35.984375 -1.171875 27.484375 -1.171875 
Q 16.84375 -1.171875 10.375 5.78125 
Q 3.90625 12.75 3.90625 25.734375 
Q 3.90625 34.125 6.6875 40.421875 
Q 9.46875 46.734375 15.15625 49.875 
Q 20.84375 53.03125 27.546875 53.03125 
Q 35.984375 53.03125 41.359375 48.75 
Q 46.734375 44.484375 48.25 36.625 
L 39.703125 35.296875 
Q 38.484375 40.53125 35.375 43.15625 
Q 32.28125 45.796875 27.875 45.796875 
Q 21.234375 45.796875 17.078125 41.03125 
Q 12.9375 36.28125 12.9375 25.984375 
Q 12.9375 15.53125 16.9375 10.796875 
Q 20.953125 6.0625 27.390625 6.0625 
Q 32.5625 6.0625 36.03125 9.234375 
Q 39.5 12.40625 40.4375 19 
z
M 20.046875 -6.515625 
L 22.59375 2.125 
L 29.125 2.125 
L 27.515625 -3.109375 
Q 31.671875 -3.59375 33.765625 -5.65625 
Q 35.875 -7.734375 35.875 -10.28125 
Q 35.875 -13.9375 32.359375 -16.75 
Q 28.84375 -19.5625 21.75 -19.5625 
Q 17.75 -19.5625 14.71875 -18.96875 
L 15.265625 -13.265625 
Q 18.390625 -13.453125 19.859375 -13.453125 
Q 24.4375 -13.453125 26.296875 -12.1875 
Q 27.71875 -11.203125 27.71875 -9.796875 
Q 27.71875 -8.90625 27.15625 -8.21875 
Q 26.59375 -7.546875 25.078125 -7.046875 
Q 23.5625 -6.5625 20.046875 -6.515625 
z
" id="ArialMT-e7"/>
      <path d="M 40.4375 6.390625 
Q 35.546875 2.25 31.03125 0.53125 
Q 26.515625 -1.171875 21.34375 -1.171875 
Q 12.796875 -1.171875 8.203125 3 
Q 3.609375 7.171875 3.609375 13.671875 
Q 3.609375 17.484375 5.34375 20.625 
Q 7.078125 23.78125 9.890625 25.6875 
Q 12.703125 27.59375 16.21875 28.5625 
Q 18.796875 29.25 24.03125 29.890625 
Q 34.671875 31.15625 39.703125 32.90625 
Q 39.75 34.71875 39.75 35.203125 
Q 39.75 40.578125 37.25 42.78125 
Q 33.890625 45.75 27.25 45.75 
Q 21.046875 45.75 18.09375 43.578125 
Q 15.140625 41.40625 13.71875 35.890625 
L 5.125 37.0625 
Q 6.296875 42.578125 8.984375 45.96875 
Q 11.671875 49.359375 16.75 51.1875 
Q 21.828125 53.03125 28.515625 53.03125 
Q 35.15625 53.03125 39.296875 51.46875 
Q 43.453125 49.90625 45.40625 47.53125 
Q 47.359375 45.171875 48.140625 41.546875 
Q 48.578125 39.3125 48.578125 33.453125 
L 48.578125 21.734375 
Q 48.578125 9.46875 49.140625 6.21875 
Q 49.703125 2.984375 51.375 0 
L 42.1875 0 
Q 40.828125 2.734375 40.4375 6.390625 
z
M 39.703125 26.03125 
Q 34.90625 24.078125 25.34375 22.703125 
Q 19.921875 21.921875 17.671875 20.9375 
Q 15.4375 19.96875 14.203125 18.09375 
Q 12.984375 16.21875 12.984375 13.921875 
Q 12.984375 10.40625 15.640625 8.0625 
Q 18.3125 5.71875 23.4375 5.71875 
Q 28.515625 5.71875 32.46875 7.9375 
Q 36.421875 10.15625 38.28125 14.015625 
Q 39.703125 17 39.703125 22.796875 
z
M 11.21875 59.515625 
Q 11.171875 64.59375 14 67.625 
Q 16.78125 70.65625 21.125 70.65625 
Q 24.15625 70.65625 29.375 68.015625 
Q 32.265625 66.546875 33.96875 66.546875 
Q 35.53125 66.546875 36.359375 67.40625 
Q 37.1875 68.265625 37.53125 70.796875 
L 43.890625 70.796875 
Q 43.734375 65.234375 41.078125 62.453125 
Q 38.421875 59.671875 34.3125 59.671875 
Q 31.234375 59.671875 26.203125 62.40625 
Q 22.9375 64.15625 21.421875 64.15625 
Q 19.765625 64.15625 18.734375 62.984375 
Q 17.65625 61.8125 17.71875 59.515625 
z
" id="ArialMT-e3"/>
      <path d="M 6.5 0 
L 6.5 51.859375 
L 14.40625 51.859375 
L 14.40625 44 
Q 17.4375 49.515625 20 51.265625 
Q 22.5625 53.03125 25.640625 53.03125 
Q 30.078125 53.03125 34.671875 50.203125 
L 31.640625 42.046875 
Q 28.421875 43.953125 25.203125 43.953125 
Q 22.3125 43.953125 20.015625 42.21875 
Q 17.71875 40.484375 16.75 37.40625 
Q 15.28125 32.71875 15.28125 27.15625 
L 15.28125 0 
z
" id="ArialMT-72"/>
      <path d="M 21 0 
L 1.265625 51.859375 
L 10.546875 51.859375 
L 21.6875 20.796875 
Q 23.484375 15.765625 25 10.359375 
Q 26.171875 14.453125 28.265625 20.21875 
L 39.796875 51.859375 
L 48.828125 51.859375 
L 29.203125 0 
z
" id="ArialMT-76"/>
      <path d="M 5.8125 54.390625 
Q 5.8125 62.0625 9.671875 67.421875 
Q 13.53125 72.796875 20.84375 72.796875 
Q 27.59375 72.796875 32 67.984375 
Q 36.421875 63.1875 36.421875 53.859375 
Q 36.421875 44.78125 31.953125 39.875 
Q 27.484375 34.96875 20.953125 34.96875 
Q 14.453125 34.96875 10.125 39.796875 
Q 5.8125 44.625 5.8125 54.390625 
z
M 21.09375 66.75 
Q 17.828125 66.75 15.65625 63.90625 
Q 13.484375 61.078125 13.484375 53.515625 
Q 13.484375 46.625 15.671875 43.8125 
Q 17.875 41.015625 21.09375 41.015625 
Q 24.421875 41.015625 26.59375 43.84375 
Q 28.765625 46.6875 28.765625 54.203125 
Q 28.765625 61.140625 26.5625 63.9375 
Q 24.359375 66.75 21.09375 66.75 
z
M 21.140625 -2.640625 
L 60.296875 72.796875 
L 67.4375 72.796875 
L 28.421875 -2.640625 
z
M 52.09375 16.796875 
Q 52.09375 24.515625 55.953125 29.859375 
Q 59.8125 35.203125 67.1875 35.203125 
Q 73.921875 35.203125 78.34375 30.390625 
Q 82.765625 25.59375 82.765625 16.265625 
Q 82.765625 7.171875 78.296875 2.265625 
Q 73.828125 -2.640625 67.234375 -2.640625 
Q 60.75 -2.640625 56.421875 2.21875 
Q 52.09375 7.078125 52.09375 16.796875 
z
M 67.4375 29.15625 
Q 64.109375 29.15625 61.9375 26.3125 
Q 59.765625 23.484375 59.765625 15.921875 
Q 59.765625 9.078125 61.953125 6.25 
Q 64.15625 3.421875 67.390625 3.421875 
Q 70.75 3.421875 72.921875 6.25 
Q 75.09375 9.078125 75.09375 16.609375 
Q 75.09375 23.53125 72.890625 26.34375 
Q 70.703125 29.15625 67.4375 29.15625 
z
" id="ArialMT-25"/>
     </defs>
     <g transform="translate(16.663594 183.349297)rotate(-90)scale(0.13 -0.13)">
      <use xlink:href="#ArialMT-44"/>
      <use x="72.216797" xlink:href="#ArialMT-69"/>
      <use x="94.433594" xlink:href="#ArialMT-6c"/>
      <use x="116.650391" xlink:href="#ArialMT-61"/>
      <use x="172.265625" xlink:href="#ArialMT-74"/>
      <use x="200.048828" xlink:href="#ArialMT-61"/>
      <use x="255.664062" xlink:href="#ArialMT-e7"/>
      <use x="305.664062" xlink:href="#ArialMT-e3"/>
      <use x="361.279297" xlink:href="#ArialMT-6f"/>
      <use x="416.894531" xlink:href="#ArialMT-20"/>
      <use x="444.677734" xlink:href="#ArialMT-72"/>
      <use x="477.978516" xlink:href="#ArialMT-65"/>
      <use x="533.59375" xlink:href="#ArialMT-6c"/>
      <use x="555.810547" xlink:href="#ArialMT-61"/>
      <use x="611.425781" xlink:href="#ArialMT-74"/>
      <use x="639.208984" xlink:href="#ArialMT-69"/>
      <use x="661.425781" xlink:href="#ArialMT-76"/>
      <use x="711.425781" xlink:href="#ArialMT-61"/>
      <use x="767.041016" xlink:href="#ArialMT-20"/>
      <use x="794.824219" xlink:href="#ArialMT-28"/>
      <use x="828.125" xlink:href="#ArialMT-25"/>
      <use x="917.041016" xlink:href="#ArialMT-29"/>
     </g>
    </g>
   </g>
   <g id="line2d_15">
    <path clip-path="url(#p2fa7b3ce72)" d="M 75.973537 197.756552 
L 76.066154 198.189862 
L 76.084949 197.996484 
L 76.08629 198.007226 
L 76.09703 197.255201 
L 77.146659 126.042011 
L 78.328631 35.917178 
L 78.376847 35.938674 
L 78.714235 32.858939 
L 79.244426 28.55092 
L 79.678207 26.273352 
L 80.449369 24.099653 
L 80.97955 23.122014 
L 82.425494 21.739712 
L 82.473677 21.793431 
L 82.521892 21.736143 
L 82.762864 21.539176 
L 83.003861 21.489047 
L 83.196659 21.338639 
L 83.244855 21.385199 
L 83.871432 21.184642 
L 84.06421 21.159577 
L 84.208811 21.116607 
L 84.257008 21.206138 
L 84.305194 21.138102 
L 84.449789 21.091522 
L 85.943927 20.976947 
L 86.088544 20.951883 
L 86.763305 20.783569 
L 86.859713 20.898164 
L 86.907892 20.801475 
L 86.95609 20.855193 
L 87.148907 20.840877 
L 87.197099 20.837287 
L 87.245286 20.959041 
L 87.293473 20.790727 
L 87.438076 20.851604 
L 87.582686 20.833718 
L 88.257448 20.908912 
L 88.402045 20.876689 
L 88.594834 20.887416 
L 88.643024 20.808633 
L 88.691245 20.851604 
L 88.835829 20.891006 
L 89.414197 20.794317 
L 89.462391 20.898143 
L 89.510589 20.858783 
L 89.607002 20.876689 
L 89.655198 20.951883 
L 89.703391 20.8731 
L 90.474568 20.862352 
L 90.619142 20.912501 
L 90.76374 20.883827 
L 90.908341 20.930408 
L 91.052944 20.876689 
L 91.101146 20.966199 
L 91.149332 20.905322 
L 92.49889 20.980537 
L 92.547084 21.044982 
L 92.595274 20.991284 
L 92.884467 20.998443 
L 93.077246 21.062888 
L 93.221848 20.948293 
L 93.414639 21.052161 
L 93.559229 21.027097 
L 93.848423 21.016349 
L 94.282211 21.009191 
L 94.716001 21.027097 
L 94.860592 21.095132 
L 95.00518 21.009191 
L 95.053385 21.116607 
L 95.149779 21.066478 
L 95.246172 21.10229 
L 95.390753 21.091542 
L 95.438975 21.027097 
L 95.487164 21.095132 
L 98.764635 21.155988 
L 98.861021 21.209727 
L 99.005608 21.159577 
L 99.150222 21.191821 
L 99.487593 21.134513 
L 99.728601 21.227633 
L 99.873191 21.152419 
L 100.114159 21.256267 
L 100.258781 21.259856 
L 100.306971 21.191821 
L 100.355159 21.249108 
L 101.12632 21.313595 
L 101.270923 21.245519 
L 101.704697 21.320733 
L 101.75292 21.227633 
L 101.801112 21.292079 
L 101.945709 21.320733 
L 102.090307 21.274173 
L 102.138501 21.388768 
L 102.186688 21.327891 
L 102.234882 21.224044 
L 102.283075 21.352956 
L 102.572284 21.317143 
L 102.716865 21.352956 
L 104.837578 21.410264 
L 104.885771 21.506953 
L 104.933967 21.392357 
L 105.46415 21.446076 
L 105.608768 21.410264 
L 105.753356 21.492636 
L 105.897938 21.399516 
L 106.187125 21.460393 
L 106.283517 21.463982 
L 106.476314 21.431739 
L 106.717295 21.47473 
L 107.247478 21.431739 
L 107.392086 21.489047 
L 107.536678 21.463982 
L 107.681263 21.460393 
L 107.87406 21.496205 
L 108.259639 21.435328 
L 108.500633 21.557061 
L 108.597021 21.481888 
L 108.645244 21.532017 
L 111.729909 21.592894 
L 111.778105 21.646612 
L 111.826311 21.600052 
L 112.308292 21.56783 
L 112.452883 21.6108 
L 112.597478 21.6108 
L 112.742079 21.617959 
L 112.93487 21.660929 
L 114.718185 21.7039 
L 114.766388 21.782683 
L 114.814584 21.732554 
L 115.007388 21.721806 
L 115.200179 21.768366 
L 115.441156 21.682425 
L 115.633957 21.75046 
L 115.778558 21.739712 
L 115.87495 21.718237 
L 116.067738 21.682425 
L 116.164121 21.732533 
L 116.21232 21.617959 
L 116.260513 21.736143 
L 116.983507 21.736143 
L 117.610079 21.793431 
L 117.754677 21.682425 
L 117.899259 21.764797 
L 118.670413 21.782683 
L 118.766838 21.847149 
L 118.815031 21.804178 
L 118.959603 21.786272 
L 119.297011 21.79702 
L 119.345214 21.754049 
L 119.393407 21.854307 
L 122.526274 21.897278 
L 122.622663 21.986809 
L 122.670866 21.943838 
L 122.863664 21.908026 
L 122.91186 21.976061 
L 122.960059 21.922363 
L 124.165001 21.900888 
L 124.309586 21.93668 
L 125.128985 22.011873 
L 125.177158 22.062023 
L 125.225358 21.943859 
L 125.321753 21.993967 
L 125.466361 21.836422 
L 125.514554 21.918774 
L 126.382117 21.986809 
L 126.528787 21.965334 
L 126.576552 43.387294 
L 126.889341 222.38 
L 126.999141 211.962663 
L 127.625726 193.287374 
L 127.754246 192.757376 
L 127.759594 192.832578 
L 127.850642 192.563998 
L 127.855986 192.581902 
L 127.925624 192.43866 
L 128.188021 192.087716 
L 127.936316 192.463728 
L 128.209437 192.116363 
L 128.214814 192.177242 
L 128.289774 192.044742 
L 128.311187 192.084134 
L 128.434382 191.894337 
L 128.337983 192.091296 
L 128.450421 191.9015 
L 128.514712 191.965958 
L 128.520693 191.704541 
L 128.862227 162.221574 
L 129.247838 160.395229 
L 131.754111 151.299312 
L 133.296478 147.345806 
L 134.260439 145.394118 
L 134.838799 144.348444 
L 137.152317 141.505079 
L 138.501866 140.240962 
L 139.273037 139.689471 
L 140.42977 138.898052 
L 141.200953 138.525622 
L 141.393724 138.296432 
L 141.586535 138.321507 
L 142.164914 137.952656 
L 142.550496 137.863126 
L 142.936078 137.630356 
L 143.514471 137.501434 
L 144.092817 137.236441 
L 147.948669 136.104826 
L 148.527055 135.918606 
L 151.226148 135.385021 
L 151.804528 135.231034 
L 152.190123 135.223876 
L 152.96126 135.055562 
L 154.31083 134.794149 
L 154.696412 134.758337 
L 157.395485 134.396645 
L 159.130636 134.185371 
L 159.708996 134.117325 
L 163.564835 133.762802 
L 163.757639 133.787866 
L 163.950423 133.687598 
L 164.336018 133.694756 
L 166.263928 133.547938 
L 167.035118 133.440501 
L 168.191857 133.404689 
L 169.54142 133.257871 
L 170.312571 133.236386 
L 170.505375 133.118211 
L 170.698153 133.239965 
L 171.083761 133.111043 
L 172.240507 133.07523 
L 174.361214 132.953477 
L 175.325175 132.849629 
L 175.903561 132.874694 
L 176.096332 132.828144 
L 176.28913 132.896179 
L 176.674738 132.838882 
L 179.181027 132.717128 
L 179.566622 132.663409 
L 179.952178 132.70997 
L 180.723355 132.677736 
L 180.916146 132.699222 
L 181.10893 132.498685 
L 181.301747 132.609691 
L 181.88012 132.573889 
L 182.458506 132.520171 
L 183.22967 132.480779 
L 200.388157 131.940036 
L 201.737713 131.911382 
L 202.123321 131.839768 
L 202.316092 131.897065 
L 202.701687 131.864832 
L 203.665636 131.857674 
L 205.400761 131.775301 
L 217.353879 131.392134 
L 217.739474 131.467338 
L 218.510651 131.377807 
L 218.896219 131.420778 
L 219.089017 131.345574 
L 219.474612 131.377807 
L 224.872798 131.238148 
L 225.065569 131.291856 
L 225.25838 131.170102 
L 225.451164 131.266791 
L 225.836746 131.2274 
L 226.222341 131.248885 
L 226.800734 131.191587 
L 232.777286 131.044769 
L 232.970057 131.127132 
L 233.355652 131.044769 
L 236.633131 131.037601 
L 237.211498 130.991051 
L 237.982662 130.955239 
L 240.681748 130.919426 
L 241.260141 130.912268 
L 241.645723 130.908689 
L 242.031291 130.880035 
L 244.730391 130.822737 
L 246.272719 130.822737 
L 246.658314 130.865718 
L 247.043909 130.779767 
L 249.164616 130.790514 
L 249.935793 130.758281 
L 251.092525 130.815579 
L 252.442082 130.700984 
L 252.634866 130.769029 
L 253.213259 130.71889 
L 254.370017 130.675919 
L 254.755599 130.67234 
L 255.141194 130.683077 
L 255.719548 130.66875 
L 255.912345 130.726048 
L 256.29794 130.683077 
L 256.683509 130.693825 
L 257.069104 130.700984 
L 257.454699 130.629359 
L 258.225837 130.654434 
L 258.804229 130.572061 
L 259.189824 130.615042 
L 259.960988 130.647265 
L 261.117734 130.572061 
L 261.310544 130.658013 
L 261.888924 130.622201 
L 262.467277 130.640107 
L 263.431251 130.618621 
L 263.624036 130.536259 
L 263.81682 130.593547 
L 264.009605 130.53267 
L 264.3952 130.607874 
L 264.780795 130.575651 
L 265.359174 130.536259 
L 265.744743 130.568482 
L 265.93754 130.607874 
L 266.515907 130.478962 
L 266.708704 130.554155 
L 266.901489 130.507605 
L 267.287097 130.529091 
L 267.86545 130.507605 
L 268.636627 130.521932 
L 269.215019 130.493278 
L 269.407804 130.600715 
L 269.793386 130.43957 
L 269.986196 130.536259 
L 270.371765 130.461056 
L 271.142942 130.539839 
L 271.914093 130.496868 
L 278.85462 130.446729 
L 279.432999 130.324975 
L 280.011365 130.432402 
L 280.589758 130.357198 
L 281.360935 130.353619 
L 285.987931 130.264098 
L 286.566297 130.34646 
L 287.337487 130.2999 
L 287.530258 130.335712 
L 287.723056 130.242603 
L 287.91588 130.39301 
L 288.301448 130.317806 
L 288.879815 130.2999 
L 290.036574 130.260509 
L 290.229384 130.314227 
L 290.422142 130.249771 
L 290.807737 130.314227 
L 291.000548 130.246192 
L 291.386117 130.271257 
L 292.350065 130.213959 
L 293.31404 130.203211 
L 293.699648 130.11727 
L 294.085216 130.21038 
L 295.62757 130.106522 
L 296.205937 130.21038 
L 296.591505 130.120849 
L 297.748264 130.185305 
L 297.941062 130.110111 
L 298.133859 130.203211 
L 298.326631 130.124428 
L 298.712226 130.131597 
L 304.110399 130.049224 
L 304.303196 130.149503 
L 305.267157 129.984768 
L 305.845524 130.042066 
L 306.61674 130.06713 
L 306.809485 130.106522 
L 307.19508 130.052814 
L 307.387904 130.113691 
L 307.580675 129.995516 
L 307.966244 130.020581 
L 308.737408 130.031328 
L 309.701369 130.063551 
L 312.400508 130.06713 
L 312.978848 130.049224 
L 313.171646 129.963283 
L 313.750012 130.034908 
L 313.942809 129.916733 
L 314.135607 129.984768 
L 314.521202 129.956125 
L 315.485137 129.991927 
L 315.677935 129.909565 
L 315.870732 129.995516 
L 316.256327 129.97761 
L 317.605857 130.027739 
L 317.798655 129.934639 
L 318.569819 130.038487 
L 318.955414 129.981189 
L 319.148211 130.052814 
L 319.53378 129.966862 
L 320.304944 129.970441 
L 320.690565 129.956125 
L 320.883336 130.009833 
L 321.268905 129.938219 
L 321.6545 129.841529 
L 321.657193 129.995516 
L 322.165951 148.122898 
L 322.674708 159.385367 
L 323.263796 167.679129 
L 323.87966 173.025669 
L 324.736514 177.33012 
L 325.459485 179.314034 
L 325.620146 179.64349 
L 326.71799 181.129636 
L 326.744767 181.097406 
L 326.77157 181.183352 
L 326.798321 181.154703 
L 327.360631 181.530717 
L 327.735505 181.716932 
L 327.842638 181.716932 
L 328.083602 181.817203 
L 328.324593 181.831527 
L 328.351369 181.97835 
L 328.431699 181.924634 
L 329.609901 182.085782 
L 329.609901 182.085782 
" style="fill:none;stroke:#000000;stroke-linecap:square;"/>
   </g>
   <g id="patch_3">
    <path d="M 63.291719 232.46 
L 63.291719 10.7 
" style="fill:none;stroke:#000000;stroke-linecap:square;stroke-linejoin:miter;stroke-width:0.8;"/>
   </g>
   <g id="patch_4">
    <path d="M 342.291719 232.46 
L 342.291719 10.7 
" style="fill:none;stroke:#000000;stroke-linecap:square;stroke-linejoin:miter;stroke-width:0.8;"/>
   </g>
   <g id="patch_5">
    <path d="M 63.291719 232.46 
L 342.291719 232.46 
" style="fill:none;stroke:#000000;stroke-linecap:square;stroke-linejoin:miter;stroke-width:0.8;"/>
   </g>
   <g id="patch_6">
    <path d="M 63.291719 10.7 
L 342.291719 10.7 
" style="fill:none;stroke:#000000;stroke-linecap:square;stroke-linejoin:miter;stroke-width:0.8;"/>
   </g>
   <g id="legend_1">
    <g id="patch_7">
     <path d="M 214.60125 57.877812 
L 335.791719 57.877812 
L 335.791719 17.2 
L 214.60125 17.2 
z
" style="fill:#ffffff;opacity:0.8;stroke:#cccccc;stroke-linejoin:miter;"/>
    </g>
    <g id="line2d_16">
     <path d="M 219.80125 27.155156 
L 245.80125 27.155156 
" style="fill:none;stroke:#000000;stroke-linecap:square;"/>
    </g>
    <g id="line2d_17"/>
    <g id="text_17">
     <!-- Dilatação -->
     <g transform="translate(256.20125 31.705156)scale(0.13 -0.13)">
      <use xlink:href="#ArialMT-44"/>
      <use x="72.216797" xlink:href="#ArialMT-69"/>
      <use x="94.433594" xlink:href="#ArialMT-6c"/>
      <use x="116.650391" xlink:href="#ArialMT-61"/>
      <use x="172.265625" xlink:href="#ArialMT-74"/>
      <use x="200.048828" xlink:href="#ArialMT-61"/>
      <use x="255.664062" xlink:href="#ArialMT-e7"/>
      <use x="305.664062" xlink:href="#ArialMT-e3"/>
      <use x="361.279297" xlink:href="#ArialMT-6f"/>
     </g>
    </g>
    <g id="line2d_18">
     <path d="M 219.80125 45.544062 
L 245.80125 45.544062 
" style="fill:none;stroke:#000000;stroke-dasharray:3.7,1.6;stroke-dashoffset:0;"/>
    </g>
    <g id="line2d_19"/>
    <g id="text_18">
     <!-- Temperatura -->
     <defs>
      <path d="M 40.578125 0 
L 40.578125 7.625 
Q 34.515625 -1.171875 24.125 -1.171875 
Q 19.53125 -1.171875 15.546875 0.578125 
Q 11.578125 2.34375 9.640625 5 
Q 7.71875 7.671875 6.9375 11.53125 
Q 6.390625 14.109375 6.390625 19.734375 
L 6.390625 51.859375 
L 15.1875 51.859375 
L 15.1875 23.09375 
Q 15.1875 16.21875 15.71875 13.8125 
Q 16.546875 10.359375 19.234375 8.375 
Q 21.921875 6.390625 25.875 6.390625 
Q 29.828125 6.390625 33.296875 8.421875 
Q 36.765625 10.453125 38.203125 13.9375 
Q 39.65625 17.4375 39.65625 24.078125 
L 39.65625 51.859375 
L 48.4375 51.859375 
L 48.4375 0 
z
" id="ArialMT-75"/>
     </defs>
     <g transform="translate(256.20125 50.094062)scale(0.13 -0.13)">
      <use xlink:href="#ArialMT-54"/>
      <use x="60.912109" xlink:href="#ArialMT-65"/>
      <use x="116.527344" xlink:href="#ArialMT-6d"/>
      <use x="199.828125" xlink:href="#ArialMT-70"/>
      <use x="255.443359" xlink:href="#ArialMT-65"/>
      <use x="311.058594" xlink:href="#ArialMT-72"/>
      <use x="344.359375" xlink:href="#ArialMT-61"/>
      <use x="399.974609" xlink:href="#ArialMT-74"/>
      <use x="427.757812" xlink:href="#ArialMT-75"/>
      <use x="483.373047" xlink:href="#ArialMT-72"/>
      <use x="516.673828" xlink:href="#ArialMT-61"/>
     </g>
    </g>
   </g>
  </g>
  <g id="axes_2">
   <g id="matplotlib.axis_3">
    <g id="ytick_8">
     <g id="line2d_20">
      <defs>
       <path d="M 0 0 
L 3.5 0 
" id="m17a92e8edd" style="stroke:#000000;stroke-width:0.8;"/>
      </defs>
      <g>
       <use style="stroke:#000000;stroke-width:0.8;" x="342.291719" xlink:href="#m17a92e8edd" y="231.757513"/>
      </g>
     </g>
     <g id="text_19">
      <!-- 0 -->
      <g transform="translate(349.291719 236.410091)scale(0.13 -0.13)">
       <use xlink:href="#ArialMT-30"/>
      </g>
     </g>
    </g>
    <g id="ytick_9">
     <g id="line2d_21">
      <g>
       <use style="stroke:#000000;stroke-width:0.8;" x="342.291719" xlink:href="#m17a92e8edd" y="183.8179"/>
      </g>
     </g>
     <g id="text_20">
      <!-- 200 -->
      <g transform="translate(349.291719 188.470478)scale(0.13 -0.13)">
       <use xlink:href="#ArialMT-32"/>
       <use x="55.615234" xlink:href="#ArialMT-30"/>
       <use x="111.230469" xlink:href="#ArialMT-30"/>
      </g>
     </g>
    </g>
    <g id="ytick_10">
     <g id="line2d_22">
      <g>
       <use style="stroke:#000000;stroke-width:0.8;" x="342.291719" xlink:href="#m17a92e8edd" y="135.878287"/>
      </g>
     </g>
     <g id="text_21">
      <!-- 400 -->
      <defs>
       <path d="M 32.328125 0 
L 32.328125 17.140625 
L 1.265625 17.140625 
L 1.265625 25.203125 
L 33.9375 71.578125 
L 41.109375 71.578125 
L 41.109375 25.203125 
L 50.78125 25.203125 
L 50.78125 17.140625 
L 41.109375 17.140625 
L 41.109375 0 
z
M 32.328125 25.203125 
L 32.328125 57.46875 
L 9.90625 25.203125 
z
" id="ArialMT-34"/>
      </defs>
      <g transform="translate(349.291719 140.530866)scale(0.13 -0.13)">
       <use xlink:href="#ArialMT-34"/>
       <use x="55.615234" xlink:href="#ArialMT-30"/>
       <use x="111.230469" xlink:href="#ArialMT-30"/>
      </g>
     </g>
    </g>
    <g id="ytick_11">
     <g id="line2d_23">
      <g>
       <use style="stroke:#000000;stroke-width:0.8;" x="342.291719" xlink:href="#m17a92e8edd" y="87.938675"/>
      </g>
     </g>
     <g id="text_22">
      <!-- 600 -->
      <defs>
       <path d="M 49.75 54.046875 
L 41.015625 53.375 
Q 39.84375 58.546875 37.703125 60.890625 
Q 34.125 64.65625 28.90625 64.65625 
Q 24.703125 64.65625 21.53125 62.3125 
Q 17.390625 59.28125 14.984375 53.46875 
Q 12.59375 47.65625 12.5 36.921875 
Q 15.671875 41.75 20.265625 44.09375 
Q 24.859375 46.4375 29.890625 46.4375 
Q 38.671875 46.4375 44.84375 39.96875 
Q 51.03125 33.5 51.03125 23.25 
Q 51.03125 16.5 48.125 10.71875 
Q 45.21875 4.9375 40.140625 1.859375 
Q 35.0625 -1.21875 28.609375 -1.21875 
Q 17.625 -1.21875 10.6875 6.859375 
Q 3.765625 14.9375 3.765625 33.5 
Q 3.765625 54.25 11.421875 63.671875 
Q 18.109375 71.875 29.4375 71.875 
Q 37.890625 71.875 43.28125 67.140625 
Q 48.6875 62.40625 49.75 54.046875 
z
M 13.875 23.1875 
Q 13.875 18.65625 15.796875 14.5 
Q 17.71875 10.359375 21.1875 8.171875 
Q 24.65625 6 28.46875 6 
Q 34.03125 6 38.03125 10.484375 
Q 42.046875 14.984375 42.046875 22.703125 
Q 42.046875 30.125 38.078125 34.390625 
Q 34.125 38.671875 28.125 38.671875 
Q 22.171875 38.671875 18.015625 34.390625 
Q 13.875 30.125 13.875 23.1875 
z
" id="ArialMT-36"/>
      </defs>
      <g transform="translate(349.291719 92.591253)scale(0.13 -0.13)">
       <use xlink:href="#ArialMT-36"/>
       <use x="55.615234" xlink:href="#ArialMT-30"/>
       <use x="111.230469" xlink:href="#ArialMT-30"/>
      </g>
     </g>
    </g>
    <g id="ytick_12">
     <g id="line2d_24">
      <g>
       <use style="stroke:#000000;stroke-width:0.8;" x="342.291719" xlink:href="#m17a92e8edd" y="39.999062"/>
      </g>
     </g>
     <g id="text_23">
      <!-- 800 -->
      <defs>
       <path d="M 17.671875 38.8125 
Q 12.203125 40.828125 9.5625 44.53125 
Q 6.9375 48.25 6.9375 53.421875 
Q 6.9375 61.234375 12.546875 66.546875 
Q 18.171875 71.875 27.484375 71.875 
Q 36.859375 71.875 42.578125 66.421875 
Q 48.296875 60.984375 48.296875 53.171875 
Q 48.296875 48.1875 45.671875 44.5 
Q 43.0625 40.828125 37.75 38.8125 
Q 44.34375 36.671875 47.78125 31.875 
Q 51.21875 27.09375 51.21875 20.453125 
Q 51.21875 11.28125 44.71875 5.03125 
Q 38.234375 -1.21875 27.640625 -1.21875 
Q 17.046875 -1.21875 10.546875 5.046875 
Q 4.046875 11.328125 4.046875 20.703125 
Q 4.046875 27.6875 7.59375 32.390625 
Q 11.140625 37.109375 17.671875 38.8125 
z
M 15.921875 53.71875 
Q 15.921875 48.640625 19.1875 45.40625 
Q 22.46875 42.1875 27.6875 42.1875 
Q 32.765625 42.1875 36.015625 45.375 
Q 39.265625 48.578125 39.265625 53.21875 
Q 39.265625 58.0625 35.90625 61.359375 
Q 32.5625 64.65625 27.59375 64.65625 
Q 22.5625 64.65625 19.234375 61.421875 
Q 15.921875 58.203125 15.921875 53.71875 
z
M 13.09375 20.65625 
Q 13.09375 16.890625 14.875 13.375 
Q 16.65625 9.859375 20.171875 7.921875 
Q 23.6875 6 27.734375 6 
Q 34.03125 6 38.125 10.046875 
Q 42.234375 14.109375 42.234375 20.359375 
Q 42.234375 26.703125 38.015625 30.859375 
Q 33.796875 35.015625 27.4375 35.015625 
Q 21.234375 35.015625 17.15625 30.90625 
Q 13.09375 26.8125 13.09375 20.65625 
z
" id="ArialMT-38"/>
      </defs>
      <g transform="translate(349.291719 44.65164)scale(0.13 -0.13)">
       <use xlink:href="#ArialMT-38"/>
       <use x="55.615234" xlink:href="#ArialMT-30"/>
       <use x="111.230469" xlink:href="#ArialMT-30"/>
      </g>
     </g>
    </g>
    <g id="text_24">
     <!-- Temperatura (°C) -->
     <defs>
      <path d="M 6.25 59.28125 
Q 6.25 64.890625 10.21875 68.84375 
Q 14.203125 72.796875 19.78125 72.796875 
Q 25.4375 72.796875 29.390625 68.84375 
Q 33.34375 64.890625 33.34375 59.28125 
Q 33.34375 53.65625 29.359375 49.671875 
Q 25.390625 45.703125 19.78125 45.703125 
Q 14.203125 45.703125 10.21875 49.65625 
Q 6.25 53.609375 6.25 59.28125 
z
M 11.578125 59.28125 
Q 11.578125 55.859375 13.984375 53.4375 
Q 16.40625 51.03125 19.828125 51.03125 
Q 23.1875 51.03125 25.609375 53.4375 
Q 28.03125 55.859375 28.03125 59.28125 
Q 28.03125 62.703125 25.609375 65.109375 
Q 23.1875 67.53125 19.828125 67.53125 
Q 16.40625 67.53125 13.984375 65.109375 
Q 11.578125 62.703125 11.578125 59.28125 
z
" id="ArialMT-b0"/>
      <path d="M 58.796875 25.09375 
L 68.265625 22.703125 
Q 65.28125 11.03125 57.546875 4.90625 
Q 49.8125 -1.21875 38.625 -1.21875 
Q 27.046875 -1.21875 19.796875 3.484375 
Q 12.546875 8.203125 8.765625 17.140625 
Q 4.984375 26.078125 4.984375 36.328125 
Q 4.984375 47.515625 9.25 55.828125 
Q 13.53125 64.15625 21.40625 68.46875 
Q 29.296875 72.796875 38.765625 72.796875 
Q 49.515625 72.796875 56.828125 67.328125 
Q 64.15625 61.859375 67.046875 51.953125 
L 57.71875 49.75 
Q 55.21875 57.5625 50.484375 61.125 
Q 45.75 64.703125 38.578125 64.703125 
Q 30.328125 64.703125 24.78125 60.734375 
Q 19.234375 56.78125 16.984375 50.109375 
Q 14.75 43.453125 14.75 36.375 
Q 14.75 27.25 17.40625 20.4375 
Q 20.0625 13.625 25.671875 10.25 
Q 31.296875 6.890625 37.84375 6.890625 
Q 45.796875 6.890625 51.3125 11.46875 
Q 56.84375 16.0625 58.796875 25.09375 
z
" id="ArialMT-43"/>
     </defs>
     <g transform="translate(384.442969 172.202812)rotate(-90)scale(0.13 -0.13)">
      <use xlink:href="#ArialMT-54"/>
      <use x="60.912109" xlink:href="#ArialMT-65"/>
      <use x="116.527344" xlink:href="#ArialMT-6d"/>
      <use x="199.828125" xlink:href="#ArialMT-70"/>
      <use x="255.443359" xlink:href="#ArialMT-65"/>
      <use x="311.058594" xlink:href="#ArialMT-72"/>
      <use x="344.359375" xlink:href="#ArialMT-61"/>
      <use x="399.974609" xlink:href="#ArialMT-74"/>
      <use x="427.757812" xlink:href="#ArialMT-75"/>
      <use x="483.373047" xlink:href="#ArialMT-72"/>
      <use x="516.673828" xlink:href="#ArialMT-61"/>
      <use x="572.289062" xlink:href="#ArialMT-20"/>
      <use x="600.072266" xlink:href="#ArialMT-28"/>
      <use x="633.373047" xlink:href="#ArialMT-b0"/>
      <use x="673.363281" xlink:href="#ArialMT-43"/>
      <use x="745.580078" xlink:href="#ArialMT-29"/>
     </g>
    </g>
   </g>
   <g id="line2d_25">
    <path clip-path="url(#p2fa7b3ce72)" d="M 75.973537 222.361712 
L 76.000384 222.38 
L 76.087634 221.708305 
L 76.539919 181.057291 
L 78.425028 20.823305 
L 78.473227 20.83457 
L 81.316934 20.830108 
L 81.557923 20.796532 
L 81.798893 20.819911 
L 82.425494 20.826743 
L 82.762864 20.83931 
L 83.100257 20.831512 
L 83.630437 20.798609 
L 83.823218 20.843772 
L 84.160622 20.803408 
L 84.305194 20.800936 
L 84.49799 20.828996 
L 84.979991 20.830503 
L 85.076376 20.844211 
L 85.269182 20.78 
L 85.413753 20.821213 
L 86.666926 20.821915 
L 87.100688 20.79877 
L 87.293473 20.82291 
L 87.438076 20.844562 
L 87.679068 20.835755 
L 88.88402 20.844782 
L 89.028627 20.823129 
L 89.269613 20.812727 
L 90.233583 20.833736 
L 90.570952 20.803306 
L 90.860142 20.827401 
L 91.245739 20.816268 
L 91.534902 20.845616 
L 91.727705 20.801565 
L 91.920501 20.827138 
L 92.450666 20.833721 
L 92.643476 20.788924 
L 92.836272 20.823071 
L 109.560996 20.818755 
L 109.753774 20.81283 
L 110.717748 20.837803 
L 110.910529 20.81046 
L 111.055121 20.820613 
L 111.488922 20.827284 
L 111.87451 20.84187 
L 112.019105 20.805734 
L 112.163697 20.822954 
L 115.971339 20.839091 
L 116.21232 20.79801 
L 116.405114 20.824841 
L 116.694317 20.794162 
L 117.031699 20.845777 
L 117.465487 20.816692 
L 117.899259 20.838067 
L 118.140252 20.816048 
L 118.429436 20.817526 
L 119.248815 20.841665 
L 119.393407 20.83299 
L 120.019976 20.808251 
L 120.164574 20.846991 
L 120.357361 20.813708 
L 121.080323 20.834687 
L 121.417718 20.810328 
L 121.658715 20.84743 
L 121.8515 20.824461 
L 123.731213 20.815858 
L 124.213197 20.825748 
L 124.405988 20.83122 
L 125.369953 20.81065 
L 125.562747 20.822061 
L 126.044734 20.789114 
L 126.285731 20.857422 
L 126.430313 20.826245 
L 126.528499 20.814615 
L 126.530228 20.919643 
L 126.547196 26.605787 
L 126.797391 140.988315 
L 126.90808 185.724955 
L 127.020554 184.431047 
L 127.416864 191.066517 
L 127.470394 191.003049 
L 127.577514 191.024156 
L 127.497194 190.993104 
L 127.582861 191.00562 
L 128.043416 190.995671 
L 128.04879 190.975786 
L 128.054137 191.029935 
L 128.150536 191.018267 
L 128.386172 191.005744 
L 128.391517 191.021212 
L 128.514712 191.02146 
L 128.407585 190.979834 
L 128.516657 190.994325 
L 128.675333 176.626925 
L 128.862227 159.899657 
L 129.440633 159.856638 
L 130.211783 159.849403 
L 132.525301 159.847611 
L 133.296478 159.871597 
L 134.838799 159.838592 
L 137.923481 159.865357 
L 141.008149 159.857281 
L 147.370316 159.846331 
L 215.233172 159.823413 
L 216.968297 159.840164 
L 218.703435 159.870763 
L 219.474612 159.847399 
L 220.438573 159.861012 
L 221.595306 159.846901 
L 224.487216 159.84124 
L 227.186303 159.853529 
L 228.150264 159.848482 
L 229.885402 159.871729 
L 230.463782 159.832805 
L 235.090778 159.863411 
L 236.633131 159.830033 
L 237.404282 159.868956 
L 242.995253 159.840625 
L 244.152025 159.8687 
L 244.537607 159.850391 
L 252.442082 159.843025 
L 253.020461 159.8599 
L 253.791625 159.848569 
L 256.683509 159.844846 
L 258.418634 159.848935 
L 259.76819 159.851466 
L 261.503316 159.862673 
L 263.238441 159.845673 
L 265.93754 159.853865 
L 275.191585 159.840003 
L 275.962749 159.845548 
L 277.119494 159.849893 
L 277.890658 159.833969 
L 278.661822 159.846748 
L 282.903275 159.845424 
L 284.060021 159.864465 
L 285.409577 159.839389 
L 286.180741 159.857589 
L 287.91588 159.819748 
L 288.687017 159.867471 
L 291.193345 159.840713 
L 293.121255 159.846258 
L 308.544636 159.84974 
L 309.315826 159.862526 
L 310.279762 159.841057 
L 312.014913 159.844202 
L 318.18425 159.843456 
L 320.883336 159.845029 
L 321.6545 159.852015 
L 322.005291 175.197932 
L 322.567601 191.00239 
L 323.103135 200.694928 
L 323.719 208.06034 
L 324.174204 211.776262 
L 324.870398 215.515094 
L 325.807609 218.345052 
L 326.048573 218.779241 
L 326.369919 219.30446 
L 326.905427 219.949446 
L 327.494515 220.412637 
L 327.628398 220.462851 
L 327.869389 220.624757 
L 328.003272 220.66647 
L 328.244263 220.775243 
L 328.431699 220.848116 
L 329.609901 221.090207 
L 329.609901 221.090207 
" style="fill:none;stroke:#000000;stroke-dasharray:3.7,1.6;stroke-dashoffset:0;"/>
   </g>
   <g id="patch_8">
    <path d="M 63.291719 232.46 
L 63.291719 10.7 
" style="fill:none;stroke:#000000;stroke-linecap:square;stroke-linejoin:miter;stroke-width:0.8;"/>
   </g>
   <g id="patch_9">
    <path d="M 342.291719 232.46 
L 342.291719 10.7 
" style="fill:none;stroke:#000000;stroke-linecap:square;stroke-linejoin:miter;stroke-width:0.8;"/>
   </g>
   <g id="patch_10">
    <path d="M 63.291719 232.46 
L 342.291719 232.46 
" style="fill:none;stroke:#000000;stroke-linecap:square;stroke-linejoin:miter;stroke-width:0.8;"/>
   </g>
   <g id="patch_11">
    <path d="M 63.291719 10.7 
L 342.291719 10.7 
" style="fill:none;stroke:#000000;stroke-linecap:square;stroke-linejoin:miter;stroke-width:0.8;"/>
   </g>
  </g>
 </g>
 <defs>
  <clipPath id="p2fa7b3ce72">
   <rect height="221.76" width="279" x="63.291719" y="10.7"/>
  </clipPath>
 </defs>
</svg>
