<?xml version="1.0" encoding="utf-8" standalone="no"?>
<!DOCTYPE svg PUBLIC "-//W3C//DTD SVG 1.1//EN"
  "http://www.w3.org/Graphics/SVG/1.1/DTD/svg11.dtd">
<!-- Created with matplotlib (http://matplotlib.org/) -->
<svg height="274pt" version="1.1" viewBox="0 0 408 274" width="408pt" xmlns="http://www.w3.org/2000/svg" xmlns:xlink="http://www.w3.org/1999/xlink">
 <defs>
  <style type="text/css">
*{stroke-linecap:butt;stroke-linejoin:round;}
  </style>
 </defs>
 <g id="figure_1">
  <g id="patch_1">
   <path d="M 0 274.748594 
L 408.906328 274.748594 
L 408.906328 0 
L 0 0 
z
" style="fill:#ffffff;"/>
  </g>
  <g id="axes_1">
   <g id="patch_2">
    <path d="M 56.0625 232.46 
L 390.8625 232.46 
L 390.8625 10.7 
L 56.0625 10.7 
z
" style="fill:#ffffff;"/>
   </g>
   <g id="matplotlib.axis_1">
    <g id="xtick_1">
     <g id="line2d_1">
      <defs>
       <path d="M 0 0 
L 0 3.5 
" id="m224a876600" style="stroke:#000000;stroke-width:0.8;"/>
      </defs>
      <g>
       <use style="stroke:#000000;stroke-width:0.8;" x="56.0625" xlink:href="#m224a876600" y="232.46"/>
      </g>
     </g>
     <g id="text_1">
      <!-- 0 -->
      <defs>
       <path d="M 4.15625 35.296875 
Q 4.15625 48 6.765625 55.734375 
Q 9.375 63.484375 14.515625 67.671875 
Q 19.671875 71.875 27.484375 71.875 
Q 33.25 71.875 37.59375 69.546875 
Q 41.9375 67.234375 44.765625 62.859375 
Q 47.609375 58.5 49.21875 52.21875 
Q 50.828125 45.953125 50.828125 35.296875 
Q 50.828125 22.703125 48.234375 14.96875 
Q 45.65625 7.234375 40.5 3 
Q 35.359375 -1.21875 27.484375 -1.21875 
Q 17.140625 -1.21875 11.234375 6.203125 
Q 4.15625 15.140625 4.15625 35.296875 
z
M 13.1875 35.296875 
Q 13.1875 17.671875 17.3125 11.828125 
Q 21.4375 6 27.484375 6 
Q 33.546875 6 37.671875 11.859375 
Q 41.796875 17.71875 41.796875 35.296875 
Q 41.796875 52.984375 37.671875 58.78125 
Q 33.546875 64.59375 27.390625 64.59375 
Q 21.34375 64.59375 17.71875 59.46875 
Q 13.1875 52.9375 13.1875 35.296875 
z
" id="ArialMT-30"/>
      </defs>
      <g transform="translate(52.447891 248.765156)scale(0.13 -0.13)">
       <use xlink:href="#ArialMT-30"/>
      </g>
     </g>
    </g>
    <g id="xtick_2">
     <g id="line2d_2">
      <g>
       <use style="stroke:#000000;stroke-width:0.8;" x="123.0225" xlink:href="#m224a876600" y="232.46"/>
      </g>
     </g>
     <g id="text_2">
      <!-- 100 -->
      <defs>
       <path d="M 37.25 0 
L 28.46875 0 
L 28.46875 56 
Q 25.296875 52.984375 20.140625 49.953125 
Q 14.984375 46.921875 10.890625 45.40625 
L 10.890625 53.90625 
Q 18.265625 57.375 23.78125 62.296875 
Q 29.296875 67.234375 31.59375 71.875 
L 37.25 71.875 
z
" id="ArialMT-31"/>
      </defs>
      <g transform="translate(112.178672 248.765156)scale(0.13 -0.13)">
       <use xlink:href="#ArialMT-31"/>
       <use x="55.615234" xlink:href="#ArialMT-30"/>
       <use x="111.230469" xlink:href="#ArialMT-30"/>
      </g>
     </g>
    </g>
    <g id="xtick_3">
     <g id="line2d_3">
      <g>
       <use style="stroke:#000000;stroke-width:0.8;" x="189.9825" xlink:href="#m224a876600" y="232.46"/>
      </g>
     </g>
     <g id="text_3">
      <!-- 200 -->
      <defs>
       <path d="M 50.34375 8.453125 
L 50.34375 0 
L 3.03125 0 
Q 2.9375 3.171875 4.046875 6.109375 
Q 5.859375 10.9375 9.828125 15.625 
Q 13.8125 20.3125 21.34375 26.46875 
Q 33.015625 36.03125 37.109375 41.625 
Q 41.21875 47.21875 41.21875 52.203125 
Q 41.21875 57.421875 37.46875 61 
Q 33.734375 64.59375 27.734375 64.59375 
Q 21.390625 64.59375 17.578125 60.78125 
Q 13.765625 56.984375 13.71875 50.25 
L 4.6875 51.171875 
Q 5.609375 61.28125 11.65625 66.578125 
Q 17.71875 71.875 27.9375 71.875 
Q 38.234375 71.875 44.234375 66.15625 
Q 50.25 60.453125 50.25 52 
Q 50.25 47.703125 48.484375 43.546875 
Q 46.734375 39.40625 42.65625 34.8125 
Q 38.578125 30.21875 29.109375 22.21875 
Q 21.1875 15.578125 18.9375 13.203125 
Q 16.703125 10.84375 15.234375 8.453125 
z
" id="ArialMT-32"/>
      </defs>
      <g transform="translate(179.138672 248.765156)scale(0.13 -0.13)">
       <use xlink:href="#ArialMT-32"/>
       <use x="55.615234" xlink:href="#ArialMT-30"/>
       <use x="111.230469" xlink:href="#ArialMT-30"/>
      </g>
     </g>
    </g>
    <g id="xtick_4">
     <g id="line2d_4">
      <g>
       <use style="stroke:#000000;stroke-width:0.8;" x="256.9425" xlink:href="#m224a876600" y="232.46"/>
      </g>
     </g>
     <g id="text_4">
      <!-- 300 -->
      <defs>
       <path d="M 4.203125 18.890625 
L 12.984375 20.0625 
Q 14.5 12.59375 18.140625 9.296875 
Q 21.78125 6 27 6 
Q 33.203125 6 37.46875 10.296875 
Q 41.75 14.59375 41.75 20.953125 
Q 41.75 27 37.796875 30.921875 
Q 33.84375 34.859375 27.734375 34.859375 
Q 25.25 34.859375 21.53125 33.890625 
L 22.515625 41.609375 
Q 23.390625 41.5 23.921875 41.5 
Q 29.546875 41.5 34.03125 44.421875 
Q 38.53125 47.359375 38.53125 53.46875 
Q 38.53125 58.296875 35.25 61.46875 
Q 31.984375 64.65625 26.8125 64.65625 
Q 21.6875 64.65625 18.265625 61.421875 
Q 14.84375 58.203125 13.875 51.765625 
L 5.078125 53.328125 
Q 6.6875 62.15625 12.390625 67.015625 
Q 18.109375 71.875 26.609375 71.875 
Q 32.46875 71.875 37.390625 69.359375 
Q 42.328125 66.84375 44.9375 62.5 
Q 47.5625 58.15625 47.5625 53.265625 
Q 47.5625 48.640625 45.0625 44.828125 
Q 42.578125 41.015625 37.703125 38.765625 
Q 44.046875 37.3125 47.5625 32.6875 
Q 51.078125 28.078125 51.078125 21.140625 
Q 51.078125 11.765625 44.234375 5.25 
Q 37.40625 -1.265625 26.953125 -1.265625 
Q 17.53125 -1.265625 11.296875 4.34375 
Q 5.078125 9.96875 4.203125 18.890625 
z
" id="ArialMT-33"/>
      </defs>
      <g transform="translate(246.098672 248.765156)scale(0.13 -0.13)">
       <use xlink:href="#ArialMT-33"/>
       <use x="55.615234" xlink:href="#ArialMT-30"/>
       <use x="111.230469" xlink:href="#ArialMT-30"/>
      </g>
     </g>
    </g>
    <g id="xtick_5">
     <g id="line2d_5">
      <g>
       <use style="stroke:#000000;stroke-width:0.8;" x="323.9025" xlink:href="#m224a876600" y="232.46"/>
      </g>
     </g>
     <g id="text_5">
      <!-- 400 -->
      <defs>
       <path d="M 32.328125 0 
L 32.328125 17.140625 
L 1.265625 17.140625 
L 1.265625 25.203125 
L 33.9375 71.578125 
L 41.109375 71.578125 
L 41.109375 25.203125 
L 50.78125 25.203125 
L 50.78125 17.140625 
L 41.109375 17.140625 
L 41.109375 0 
z
M 32.328125 25.203125 
L 32.328125 57.46875 
L 9.90625 25.203125 
z
" id="ArialMT-34"/>
      </defs>
      <g transform="translate(313.058672 248.765156)scale(0.13 -0.13)">
       <use xlink:href="#ArialMT-34"/>
       <use x="55.615234" xlink:href="#ArialMT-30"/>
       <use x="111.230469" xlink:href="#ArialMT-30"/>
      </g>
     </g>
    </g>
    <g id="xtick_6">
     <g id="line2d_6">
      <g>
       <use style="stroke:#000000;stroke-width:0.8;" x="390.8625" xlink:href="#m224a876600" y="232.46"/>
      </g>
     </g>
     <g id="text_6">
      <!-- 500 -->
      <defs>
       <path d="M 4.15625 18.75 
L 13.375 19.53125 
Q 14.40625 12.796875 18.140625 9.390625 
Q 21.875 6 27.15625 6 
Q 33.5 6 37.890625 10.78125 
Q 42.28125 15.578125 42.28125 23.484375 
Q 42.28125 31 38.0625 35.34375 
Q 33.84375 39.703125 27 39.703125 
Q 22.75 39.703125 19.328125 37.765625 
Q 15.921875 35.84375 13.96875 32.765625 
L 5.71875 33.84375 
L 12.640625 70.609375 
L 48.25 70.609375 
L 48.25 62.203125 
L 19.671875 62.203125 
L 15.828125 42.96875 
Q 22.265625 47.46875 29.34375 47.46875 
Q 38.71875 47.46875 45.15625 40.96875 
Q 51.609375 34.46875 51.609375 24.265625 
Q 51.609375 14.546875 45.953125 7.46875 
Q 39.0625 -1.21875 27.15625 -1.21875 
Q 17.390625 -1.21875 11.203125 4.25 
Q 5.03125 9.71875 4.15625 18.75 
z
" id="ArialMT-35"/>
      </defs>
      <g transform="translate(380.018672 248.765156)scale(0.13 -0.13)">
       <use xlink:href="#ArialMT-35"/>
       <use x="55.615234" xlink:href="#ArialMT-30"/>
       <use x="111.230469" xlink:href="#ArialMT-30"/>
      </g>
     </g>
    </g>
    <g id="text_7">
     <!-- Tempo de partição (min) -->
     <defs>
      <path d="M 25.921875 0 
L 25.921875 63.140625 
L 2.34375 63.140625 
L 2.34375 71.578125 
L 59.078125 71.578125 
L 59.078125 63.140625 
L 35.40625 63.140625 
L 35.40625 0 
z
" id="ArialMT-54"/>
      <path d="M 42.09375 16.703125 
L 51.171875 15.578125 
Q 49.03125 7.625 43.21875 3.21875 
Q 37.40625 -1.171875 28.375 -1.171875 
Q 17 -1.171875 10.328125 5.828125 
Q 3.65625 12.84375 3.65625 25.484375 
Q 3.65625 38.578125 10.390625 45.796875 
Q 17.140625 53.03125 27.875 53.03125 
Q 38.28125 53.03125 44.875 45.953125 
Q 51.46875 38.875 51.46875 26.03125 
Q 51.46875 25.25 51.421875 23.6875 
L 12.75 23.6875 
Q 13.234375 15.140625 17.578125 10.59375 
Q 21.921875 6.0625 28.421875 6.0625 
Q 33.25 6.0625 36.671875 8.59375 
Q 40.09375 11.140625 42.09375 16.703125 
z
M 13.234375 30.90625 
L 42.1875 30.90625 
Q 41.609375 37.453125 38.875 40.71875 
Q 34.671875 45.796875 27.984375 45.796875 
Q 21.921875 45.796875 17.796875 41.75 
Q 13.671875 37.703125 13.234375 30.90625 
z
" id="ArialMT-65"/>
      <path d="M 6.59375 0 
L 6.59375 51.859375 
L 14.453125 51.859375 
L 14.453125 44.578125 
Q 16.890625 48.390625 20.9375 50.703125 
Q 25 53.03125 30.171875 53.03125 
Q 35.9375 53.03125 39.625 50.640625 
Q 43.3125 48.25 44.828125 43.953125 
Q 50.984375 53.03125 60.84375 53.03125 
Q 68.5625 53.03125 72.703125 48.75 
Q 76.859375 44.484375 76.859375 35.59375 
L 76.859375 0 
L 68.109375 0 
L 68.109375 32.671875 
Q 68.109375 37.9375 67.25 40.25 
Q 66.40625 42.578125 64.15625 43.984375 
Q 61.921875 45.40625 58.890625 45.40625 
Q 53.421875 45.40625 49.796875 41.765625 
Q 46.1875 38.140625 46.1875 30.125 
L 46.1875 0 
L 37.40625 0 
L 37.40625 33.6875 
Q 37.40625 39.546875 35.25 42.46875 
Q 33.109375 45.40625 28.21875 45.40625 
Q 24.515625 45.40625 21.359375 43.453125 
Q 18.21875 41.5 16.796875 37.734375 
Q 15.375 33.984375 15.375 26.90625 
L 15.375 0 
z
" id="ArialMT-6d"/>
      <path d="M 6.59375 -19.875 
L 6.59375 51.859375 
L 14.59375 51.859375 
L 14.59375 45.125 
Q 17.4375 49.078125 21 51.046875 
Q 24.5625 53.03125 29.640625 53.03125 
Q 36.28125 53.03125 41.359375 49.609375 
Q 46.4375 46.1875 49.015625 39.953125 
Q 51.609375 33.734375 51.609375 26.3125 
Q 51.609375 18.359375 48.75 11.984375 
Q 45.90625 5.609375 40.453125 2.21875 
Q 35.015625 -1.171875 29 -1.171875 
Q 24.609375 -1.171875 21.109375 0.6875 
Q 17.625 2.546875 15.375 5.375 
L 15.375 -19.875 
z
M 14.546875 25.640625 
Q 14.546875 15.625 18.59375 10.84375 
Q 22.65625 6.0625 28.421875 6.0625 
Q 34.28125 6.0625 38.453125 11.015625 
Q 42.625 15.96875 42.625 26.375 
Q 42.625 36.28125 38.546875 41.203125 
Q 34.46875 46.140625 28.8125 46.140625 
Q 23.1875 46.140625 18.859375 40.890625 
Q 14.546875 35.640625 14.546875 25.640625 
z
" id="ArialMT-70"/>
      <path d="M 3.328125 25.921875 
Q 3.328125 40.328125 11.328125 47.265625 
Q 18.015625 53.03125 27.640625 53.03125 
Q 38.328125 53.03125 45.109375 46.015625 
Q 51.90625 39.015625 51.90625 26.65625 
Q 51.90625 16.65625 48.90625 10.90625 
Q 45.90625 5.171875 40.15625 2 
Q 34.421875 -1.171875 27.640625 -1.171875 
Q 16.75 -1.171875 10.03125 5.8125 
Q 3.328125 12.796875 3.328125 25.921875 
z
M 12.359375 25.921875 
Q 12.359375 15.96875 16.703125 11.015625 
Q 21.046875 6.0625 27.640625 6.0625 
Q 34.1875 6.0625 38.53125 11.03125 
Q 42.875 16.015625 42.875 26.21875 
Q 42.875 35.84375 38.5 40.796875 
Q 34.125 45.75 27.640625 45.75 
Q 21.046875 45.75 16.703125 40.8125 
Q 12.359375 35.890625 12.359375 25.921875 
z
" id="ArialMT-6f"/>
      <path id="ArialMT-20"/>
      <path d="M 40.234375 0 
L 40.234375 6.546875 
Q 35.296875 -1.171875 25.734375 -1.171875 
Q 19.53125 -1.171875 14.328125 2.25 
Q 9.125 5.671875 6.265625 11.796875 
Q 3.421875 17.921875 3.421875 25.875 
Q 3.421875 33.640625 6 39.96875 
Q 8.59375 46.296875 13.765625 49.65625 
Q 18.953125 53.03125 25.34375 53.03125 
Q 30.03125 53.03125 33.6875 51.046875 
Q 37.359375 49.078125 39.65625 45.90625 
L 39.65625 71.578125 
L 48.390625 71.578125 
L 48.390625 0 
z
M 12.453125 25.875 
Q 12.453125 15.921875 16.640625 10.984375 
Q 20.84375 6.0625 26.5625 6.0625 
Q 32.328125 6.0625 36.34375 10.765625 
Q 40.375 15.484375 40.375 25.140625 
Q 40.375 35.796875 36.265625 40.765625 
Q 32.171875 45.75 26.171875 45.75 
Q 20.3125 45.75 16.375 40.96875 
Q 12.453125 36.1875 12.453125 25.875 
z
" id="ArialMT-64"/>
      <path d="M 40.4375 6.390625 
Q 35.546875 2.25 31.03125 0.53125 
Q 26.515625 -1.171875 21.34375 -1.171875 
Q 12.796875 -1.171875 8.203125 3 
Q 3.609375 7.171875 3.609375 13.671875 
Q 3.609375 17.484375 5.34375 20.625 
Q 7.078125 23.78125 9.890625 25.6875 
Q 12.703125 27.59375 16.21875 28.5625 
Q 18.796875 29.25 24.03125 29.890625 
Q 34.671875 31.15625 39.703125 32.90625 
Q 39.75 34.71875 39.75 35.203125 
Q 39.75 40.578125 37.25 42.78125 
Q 33.890625 45.75 27.25 45.75 
Q 21.046875 45.75 18.09375 43.578125 
Q 15.140625 41.40625 13.71875 35.890625 
L 5.125 37.0625 
Q 6.296875 42.578125 8.984375 45.96875 
Q 11.671875 49.359375 16.75 51.1875 
Q 21.828125 53.03125 28.515625 53.03125 
Q 35.15625 53.03125 39.296875 51.46875 
Q 43.453125 49.90625 45.40625 47.53125 
Q 47.359375 45.171875 48.140625 41.546875 
Q 48.578125 39.3125 48.578125 33.453125 
L 48.578125 21.734375 
Q 48.578125 9.46875 49.140625 6.21875 
Q 49.703125 2.984375 51.375 0 
L 42.1875 0 
Q 40.828125 2.734375 40.4375 6.390625 
z
M 39.703125 26.03125 
Q 34.90625 24.078125 25.34375 22.703125 
Q 19.921875 21.921875 17.671875 20.9375 
Q 15.4375 19.96875 14.203125 18.09375 
Q 12.984375 16.21875 12.984375 13.921875 
Q 12.984375 10.40625 15.640625 8.0625 
Q 18.3125 5.71875 23.4375 5.71875 
Q 28.515625 5.71875 32.46875 7.9375 
Q 36.421875 10.15625 38.28125 14.015625 
Q 39.703125 17 39.703125 22.796875 
z
" id="ArialMT-61"/>
      <path d="M 6.5 0 
L 6.5 51.859375 
L 14.40625 51.859375 
L 14.40625 44 
Q 17.4375 49.515625 20 51.265625 
Q 22.5625 53.03125 25.640625 53.03125 
Q 30.078125 53.03125 34.671875 50.203125 
L 31.640625 42.046875 
Q 28.421875 43.953125 25.203125 43.953125 
Q 22.3125 43.953125 20.015625 42.21875 
Q 17.71875 40.484375 16.75 37.40625 
Q 15.28125 32.71875 15.28125 27.15625 
L 15.28125 0 
z
" id="ArialMT-72"/>
      <path d="M 25.78125 7.859375 
L 27.046875 0.09375 
Q 23.34375 -0.6875 20.40625 -0.6875 
Q 15.625 -0.6875 12.984375 0.828125 
Q 10.359375 2.34375 9.28125 4.8125 
Q 8.203125 7.28125 8.203125 15.1875 
L 8.203125 45.015625 
L 1.765625 45.015625 
L 1.765625 51.859375 
L 8.203125 51.859375 
L 8.203125 64.703125 
L 16.9375 69.96875 
L 16.9375 51.859375 
L 25.78125 51.859375 
L 25.78125 45.015625 
L 16.9375 45.015625 
L 16.9375 14.703125 
Q 16.9375 10.9375 17.40625 9.859375 
Q 17.875 8.796875 18.921875 8.15625 
Q 19.96875 7.515625 21.921875 7.515625 
Q 23.390625 7.515625 25.78125 7.859375 
z
" id="ArialMT-74"/>
      <path d="M 6.640625 61.46875 
L 6.640625 71.578125 
L 15.4375 71.578125 
L 15.4375 61.46875 
z
M 6.640625 0 
L 6.640625 51.859375 
L 15.4375 51.859375 
L 15.4375 0 
z
" id="ArialMT-69"/>
      <path d="M 40.4375 19 
L 49.078125 17.875 
Q 47.65625 8.9375 41.8125 3.875 
Q 35.984375 -1.171875 27.484375 -1.171875 
Q 16.84375 -1.171875 10.375 5.78125 
Q 3.90625 12.75 3.90625 25.734375 
Q 3.90625 34.125 6.6875 40.421875 
Q 9.46875 46.734375 15.15625 49.875 
Q 20.84375 53.03125 27.546875 53.03125 
Q 35.984375 53.03125 41.359375 48.75 
Q 46.734375 44.484375 48.25 36.625 
L 39.703125 35.296875 
Q 38.484375 40.53125 35.375 43.15625 
Q 32.28125 45.796875 27.875 45.796875 
Q 21.234375 45.796875 17.078125 41.03125 
Q 12.9375 36.28125 12.9375 25.984375 
Q 12.9375 15.53125 16.9375 10.796875 
Q 20.953125 6.0625 27.390625 6.0625 
Q 32.5625 6.0625 36.03125 9.234375 
Q 39.5 12.40625 40.4375 19 
z
M 20.046875 -6.515625 
L 22.59375 2.125 
L 29.125 2.125 
L 27.515625 -3.109375 
Q 31.671875 -3.59375 33.765625 -5.65625 
Q 35.875 -7.734375 35.875 -10.28125 
Q 35.875 -13.9375 32.359375 -16.75 
Q 28.84375 -19.5625 21.75 -19.5625 
Q 17.75 -19.5625 14.71875 -18.96875 
L 15.265625 -13.265625 
Q 18.390625 -13.453125 19.859375 -13.453125 
Q 24.4375 -13.453125 26.296875 -12.1875 
Q 27.71875 -11.203125 27.71875 -9.796875 
Q 27.71875 -8.90625 27.15625 -8.21875 
Q 26.59375 -7.546875 25.078125 -7.046875 
Q 23.5625 -6.5625 20.046875 -6.515625 
z
" id="ArialMT-e7"/>
      <path d="M 40.4375 6.390625 
Q 35.546875 2.25 31.03125 0.53125 
Q 26.515625 -1.171875 21.34375 -1.171875 
Q 12.796875 -1.171875 8.203125 3 
Q 3.609375 7.171875 3.609375 13.671875 
Q 3.609375 17.484375 5.34375 20.625 
Q 7.078125 23.78125 9.890625 25.6875 
Q 12.703125 27.59375 16.21875 28.5625 
Q 18.796875 29.25 24.03125 29.890625 
Q 34.671875 31.15625 39.703125 32.90625 
Q 39.75 34.71875 39.75 35.203125 
Q 39.75 40.578125 37.25 42.78125 
Q 33.890625 45.75 27.25 45.75 
Q 21.046875 45.75 18.09375 43.578125 
Q 15.140625 41.40625 13.71875 35.890625 
L 5.125 37.0625 
Q 6.296875 42.578125 8.984375 45.96875 
Q 11.671875 49.359375 16.75 51.1875 
Q 21.828125 53.03125 28.515625 53.03125 
Q 35.15625 53.03125 39.296875 51.46875 
Q 43.453125 49.90625 45.40625 47.53125 
Q 47.359375 45.171875 48.140625 41.546875 
Q 48.578125 39.3125 48.578125 33.453125 
L 48.578125 21.734375 
Q 48.578125 9.46875 49.140625 6.21875 
Q 49.703125 2.984375 51.375 0 
L 42.1875 0 
Q 40.828125 2.734375 40.4375 6.390625 
z
M 39.703125 26.03125 
Q 34.90625 24.078125 25.34375 22.703125 
Q 19.921875 21.921875 17.671875 20.9375 
Q 15.4375 19.96875 14.203125 18.09375 
Q 12.984375 16.21875 12.984375 13.921875 
Q 12.984375 10.40625 15.640625 8.0625 
Q 18.3125 5.71875 23.4375 5.71875 
Q 28.515625 5.71875 32.46875 7.9375 
Q 36.421875 10.15625 38.28125 14.015625 
Q 39.703125 17 39.703125 22.796875 
z
M 11.21875 59.515625 
Q 11.171875 64.59375 14 67.625 
Q 16.78125 70.65625 21.125 70.65625 
Q 24.15625 70.65625 29.375 68.015625 
Q 32.265625 66.546875 33.96875 66.546875 
Q 35.53125 66.546875 36.359375 67.40625 
Q 37.1875 68.265625 37.53125 70.796875 
L 43.890625 70.796875 
Q 43.734375 65.234375 41.078125 62.453125 
Q 38.421875 59.671875 34.3125 59.671875 
Q 31.234375 59.671875 26.203125 62.40625 
Q 22.9375 64.15625 21.421875 64.15625 
Q 19.765625 64.15625 18.734375 62.984375 
Q 17.65625 61.8125 17.71875 59.515625 
z
" id="ArialMT-e3"/>
      <path d="M 23.390625 -21.046875 
Q 16.109375 -11.859375 11.078125 0.4375 
Q 6.0625 12.75 6.0625 25.921875 
Q 6.0625 37.546875 9.8125 48.1875 
Q 14.203125 60.546875 23.390625 72.796875 
L 29.6875 72.796875 
Q 23.78125 62.640625 21.875 58.296875 
Q 18.890625 51.5625 17.1875 44.234375 
Q 15.09375 35.109375 15.09375 25.875 
Q 15.09375 2.390625 29.6875 -21.046875 
z
" id="ArialMT-28"/>
      <path d="M 6.59375 0 
L 6.59375 51.859375 
L 14.5 51.859375 
L 14.5 44.484375 
Q 20.21875 53.03125 31 53.03125 
Q 35.6875 53.03125 39.625 51.34375 
Q 43.5625 49.65625 45.515625 46.921875 
Q 47.46875 44.1875 48.25 40.4375 
Q 48.734375 37.984375 48.734375 31.890625 
L 48.734375 0 
L 39.9375 0 
L 39.9375 31.546875 
Q 39.9375 36.921875 38.90625 39.578125 
Q 37.890625 42.234375 35.28125 43.8125 
Q 32.671875 45.40625 29.15625 45.40625 
Q 23.53125 45.40625 19.453125 41.84375 
Q 15.375 38.28125 15.375 28.328125 
L 15.375 0 
z
" id="ArialMT-6e"/>
      <path d="M 12.359375 -21.046875 
L 6.0625 -21.046875 
Q 20.65625 2.390625 20.65625 25.875 
Q 20.65625 35.0625 18.5625 44.09375 
Q 16.890625 51.421875 13.921875 58.15625 
Q 12.015625 62.546875 6.0625 72.796875 
L 12.359375 72.796875 
Q 21.53125 60.546875 25.921875 48.1875 
Q 29.6875 37.546875 29.6875 25.921875 
Q 29.6875 12.75 24.625 0.4375 
Q 19.578125 -11.859375 12.359375 -21.046875 
z
" id="ArialMT-29"/>
     </defs>
     <g transform="translate(152.674453 264.8125)scale(0.13 -0.13)">
      <use xlink:href="#ArialMT-54"/>
      <use x="60.912109" xlink:href="#ArialMT-65"/>
      <use x="116.527344" xlink:href="#ArialMT-6d"/>
      <use x="199.828125" xlink:href="#ArialMT-70"/>
      <use x="255.443359" xlink:href="#ArialMT-6f"/>
      <use x="311.058594" xlink:href="#ArialMT-20"/>
      <use x="338.841797" xlink:href="#ArialMT-64"/>
      <use x="394.457031" xlink:href="#ArialMT-65"/>
      <use x="450.072266" xlink:href="#ArialMT-20"/>
      <use x="477.855469" xlink:href="#ArialMT-70"/>
      <use x="533.470703" xlink:href="#ArialMT-61"/>
      <use x="589.085938" xlink:href="#ArialMT-72"/>
      <use x="622.386719" xlink:href="#ArialMT-74"/>
      <use x="650.169922" xlink:href="#ArialMT-69"/>
      <use x="672.386719" xlink:href="#ArialMT-e7"/>
      <use x="722.386719" xlink:href="#ArialMT-e3"/>
      <use x="778.001953" xlink:href="#ArialMT-6f"/>
      <use x="833.617188" xlink:href="#ArialMT-20"/>
      <use x="861.400391" xlink:href="#ArialMT-28"/>
      <use x="894.701172" xlink:href="#ArialMT-6d"/>
      <use x="978.001953" xlink:href="#ArialMT-69"/>
      <use x="1000.21875" xlink:href="#ArialMT-6e"/>
      <use x="1055.833984" xlink:href="#ArialMT-29"/>
     </g>
    </g>
   </g>
   <g id="matplotlib.axis_2">
    <g id="ytick_1">
     <g id="line2d_7">
      <defs>
       <path d="M 0 0 
L -3.5 0 
" id="m74e33404a1" style="stroke:#000000;stroke-width:0.8;"/>
      </defs>
      <g>
       <use style="stroke:#000000;stroke-width:0.8;" x="56.0625" xlink:href="#m74e33404a1" y="213.98"/>
      </g>
     </g>
     <g id="text_8">
      <!-- −0.2 -->
      <defs>
       <path d="M 52.828125 31.203125 
L 5.5625 31.203125 
L 5.5625 39.40625 
L 52.828125 39.40625 
z
" id="ArialMT-2212"/>
       <path d="M 9.078125 0 
L 9.078125 10.015625 
L 19.09375 10.015625 
L 19.09375 0 
z
" id="ArialMT-2e"/>
      </defs>
      <g transform="translate(23.399688 218.632578)scale(0.13 -0.13)">
       <use xlink:href="#ArialMT-2212"/>
       <use x="58.398438" xlink:href="#ArialMT-30"/>
       <use x="114.013672" xlink:href="#ArialMT-2e"/>
       <use x="141.796875" xlink:href="#ArialMT-32"/>
      </g>
     </g>
    </g>
    <g id="ytick_2">
     <g id="line2d_8">
      <g>
       <use style="stroke:#000000;stroke-width:0.8;" x="56.0625" xlink:href="#m74e33404a1" y="177.02"/>
      </g>
     </g>
     <g id="text_9">
      <!-- 0.0 -->
      <g transform="translate(30.9925 181.672578)scale(0.13 -0.13)">
       <use xlink:href="#ArialMT-30"/>
       <use x="55.615234" xlink:href="#ArialMT-2e"/>
       <use x="83.398438" xlink:href="#ArialMT-30"/>
      </g>
     </g>
    </g>
    <g id="ytick_3">
     <g id="line2d_9">
      <g>
       <use style="stroke:#000000;stroke-width:0.8;" x="56.0625" xlink:href="#m74e33404a1" y="140.06"/>
      </g>
     </g>
     <g id="text_10">
      <!-- 0.2 -->
      <g transform="translate(30.9925 144.712578)scale(0.13 -0.13)">
       <use xlink:href="#ArialMT-30"/>
       <use x="55.615234" xlink:href="#ArialMT-2e"/>
       <use x="83.398438" xlink:href="#ArialMT-32"/>
      </g>
     </g>
    </g>
    <g id="ytick_4">
     <g id="line2d_10">
      <g>
       <use style="stroke:#000000;stroke-width:0.8;" x="56.0625" xlink:href="#m74e33404a1" y="103.1"/>
      </g>
     </g>
     <g id="text_11">
      <!-- 0.4 -->
      <g transform="translate(30.9925 107.752578)scale(0.13 -0.13)">
       <use xlink:href="#ArialMT-30"/>
       <use x="55.615234" xlink:href="#ArialMT-2e"/>
       <use x="83.398438" xlink:href="#ArialMT-34"/>
      </g>
     </g>
    </g>
    <g id="ytick_5">
     <g id="line2d_11">
      <g>
       <use style="stroke:#000000;stroke-width:0.8;" x="56.0625" xlink:href="#m74e33404a1" y="66.14"/>
      </g>
     </g>
     <g id="text_12">
      <!-- 0.6 -->
      <defs>
       <path d="M 49.75 54.046875 
L 41.015625 53.375 
Q 39.84375 58.546875 37.703125 60.890625 
Q 34.125 64.65625 28.90625 64.65625 
Q 24.703125 64.65625 21.53125 62.3125 
Q 17.390625 59.28125 14.984375 53.46875 
Q 12.59375 47.65625 12.5 36.921875 
Q 15.671875 41.75 20.265625 44.09375 
Q 24.859375 46.4375 29.890625 46.4375 
Q 38.671875 46.4375 44.84375 39.96875 
Q 51.03125 33.5 51.03125 23.25 
Q 51.03125 16.5 48.125 10.71875 
Q 45.21875 4.9375 40.140625 1.859375 
Q 35.0625 -1.21875 28.609375 -1.21875 
Q 17.625 -1.21875 10.6875 6.859375 
Q 3.765625 14.9375 3.765625 33.5 
Q 3.765625 54.25 11.421875 63.671875 
Q 18.109375 71.875 29.4375 71.875 
Q 37.890625 71.875 43.28125 67.140625 
Q 48.6875 62.40625 49.75 54.046875 
z
M 13.875 23.1875 
Q 13.875 18.65625 15.796875 14.5 
Q 17.71875 10.359375 21.1875 8.171875 
Q 24.65625 6 28.46875 6 
Q 34.03125 6 38.03125 10.484375 
Q 42.046875 14.984375 42.046875 22.703125 
Q 42.046875 30.125 38.078125 34.390625 
Q 34.125 38.671875 28.125 38.671875 
Q 22.171875 38.671875 18.015625 34.390625 
Q 13.875 30.125 13.875 23.1875 
z
" id="ArialMT-36"/>
      </defs>
      <g transform="translate(30.9925 70.792578)scale(0.13 -0.13)">
       <use xlink:href="#ArialMT-30"/>
       <use x="55.615234" xlink:href="#ArialMT-2e"/>
       <use x="83.398438" xlink:href="#ArialMT-36"/>
      </g>
     </g>
    </g>
    <g id="ytick_6">
     <g id="line2d_12">
      <g>
       <use style="stroke:#000000;stroke-width:0.8;" x="56.0625" xlink:href="#m74e33404a1" y="29.18"/>
      </g>
     </g>
     <g id="text_13">
      <!-- 0.8 -->
      <defs>
       <path d="M 17.671875 38.8125 
Q 12.203125 40.828125 9.5625 44.53125 
Q 6.9375 48.25 6.9375 53.421875 
Q 6.9375 61.234375 12.546875 66.546875 
Q 18.171875 71.875 27.484375 71.875 
Q 36.859375 71.875 42.578125 66.421875 
Q 48.296875 60.984375 48.296875 53.171875 
Q 48.296875 48.1875 45.671875 44.5 
Q 43.0625 40.828125 37.75 38.8125 
Q 44.34375 36.671875 47.78125 31.875 
Q 51.21875 27.09375 51.21875 20.453125 
Q 51.21875 11.28125 44.71875 5.03125 
Q 38.234375 -1.21875 27.640625 -1.21875 
Q 17.046875 -1.21875 10.546875 5.046875 
Q 4.046875 11.328125 4.046875 20.703125 
Q 4.046875 27.6875 7.59375 32.390625 
Q 11.140625 37.109375 17.671875 38.8125 
z
M 15.921875 53.71875 
Q 15.921875 48.640625 19.1875 45.40625 
Q 22.46875 42.1875 27.6875 42.1875 
Q 32.765625 42.1875 36.015625 45.375 
Q 39.265625 48.578125 39.265625 53.21875 
Q 39.265625 58.0625 35.90625 61.359375 
Q 32.5625 64.65625 27.59375 64.65625 
Q 22.5625 64.65625 19.234375 61.421875 
Q 15.921875 58.203125 15.921875 53.71875 
z
M 13.09375 20.65625 
Q 13.09375 16.890625 14.875 13.375 
Q 16.65625 9.859375 20.171875 7.921875 
Q 23.6875 6 27.734375 6 
Q 34.03125 6 38.125 10.046875 
Q 42.234375 14.109375 42.234375 20.359375 
Q 42.234375 26.703125 38.015625 30.859375 
Q 33.796875 35.015625 27.4375 35.015625 
Q 21.234375 35.015625 17.15625 30.90625 
Q 13.09375 26.8125 13.09375 20.65625 
z
" id="ArialMT-38"/>
      </defs>
      <g transform="translate(30.9925 33.832578)scale(0.13 -0.13)">
       <use xlink:href="#ArialMT-30"/>
       <use x="55.615234" xlink:href="#ArialMT-2e"/>
       <use x="83.398438" xlink:href="#ArialMT-38"/>
      </g>
     </g>
    </g>
    <g id="text_14">
     <!-- Dilatação relativa (%) -->
     <defs>
      <path d="M 7.71875 0 
L 7.71875 71.578125 
L 32.375 71.578125 
Q 40.71875 71.578125 45.125 70.5625 
Q 51.265625 69.140625 55.609375 65.4375 
Q 61.28125 60.640625 64.078125 53.1875 
Q 66.890625 45.75 66.890625 36.1875 
Q 66.890625 28.03125 64.984375 21.734375 
Q 63.09375 15.4375 60.109375 11.296875 
Q 57.125 7.171875 53.578125 4.796875 
Q 50.046875 2.4375 45.046875 1.21875 
Q 40.046875 0 33.546875 0 
z
M 17.1875 8.453125 
L 32.46875 8.453125 
Q 39.546875 8.453125 43.578125 9.765625 
Q 47.609375 11.078125 50 13.484375 
Q 53.375 16.84375 55.25 22.53125 
Q 57.125 28.21875 57.125 36.328125 
Q 57.125 47.5625 53.4375 53.59375 
Q 49.75 59.625 44.484375 61.671875 
Q 40.671875 63.140625 32.234375 63.140625 
L 17.1875 63.140625 
z
" id="ArialMT-44"/>
      <path d="M 6.390625 0 
L 6.390625 71.578125 
L 15.1875 71.578125 
L 15.1875 0 
z
" id="ArialMT-6c"/>
      <path d="M 21 0 
L 1.265625 51.859375 
L 10.546875 51.859375 
L 21.6875 20.796875 
Q 23.484375 15.765625 25 10.359375 
Q 26.171875 14.453125 28.265625 20.21875 
L 39.796875 51.859375 
L 48.828125 51.859375 
L 29.203125 0 
z
" id="ArialMT-76"/>
      <path d="M 5.8125 54.390625 
Q 5.8125 62.0625 9.671875 67.421875 
Q 13.53125 72.796875 20.84375 72.796875 
Q 27.59375 72.796875 32 67.984375 
Q 36.421875 63.1875 36.421875 53.859375 
Q 36.421875 44.78125 31.953125 39.875 
Q 27.484375 34.96875 20.953125 34.96875 
Q 14.453125 34.96875 10.125 39.796875 
Q 5.8125 44.625 5.8125 54.390625 
z
M 21.09375 66.75 
Q 17.828125 66.75 15.65625 63.90625 
Q 13.484375 61.078125 13.484375 53.515625 
Q 13.484375 46.625 15.671875 43.8125 
Q 17.875 41.015625 21.09375 41.015625 
Q 24.421875 41.015625 26.59375 43.84375 
Q 28.765625 46.6875 28.765625 54.203125 
Q 28.765625 61.140625 26.5625 63.9375 
Q 24.359375 66.75 21.09375 66.75 
z
M 21.140625 -2.640625 
L 60.296875 72.796875 
L 67.4375 72.796875 
L 28.421875 -2.640625 
z
M 52.09375 16.796875 
Q 52.09375 24.515625 55.953125 29.859375 
Q 59.8125 35.203125 67.1875 35.203125 
Q 73.921875 35.203125 78.34375 30.390625 
Q 82.765625 25.59375 82.765625 16.265625 
Q 82.765625 7.171875 78.296875 2.265625 
Q 73.828125 -2.640625 67.234375 -2.640625 
Q 60.75 -2.640625 56.421875 2.21875 
Q 52.09375 7.078125 52.09375 16.796875 
z
M 67.4375 29.15625 
Q 64.109375 29.15625 61.9375 26.3125 
Q 59.765625 23.484375 59.765625 15.921875 
Q 59.765625 9.078125 61.953125 6.25 
Q 64.15625 3.421875 67.390625 3.421875 
Q 70.75 3.421875 72.921875 6.25 
Q 75.09375 9.078125 75.09375 16.609375 
Q 75.09375 23.53125 72.890625 26.34375 
Q 70.703125 29.15625 67.4375 29.15625 
z
" id="ArialMT-25"/>
     </defs>
     <g transform="translate(16.663594 183.349297)rotate(-90)scale(0.13 -0.13)">
      <use xlink:href="#ArialMT-44"/>
      <use x="72.216797" xlink:href="#ArialMT-69"/>
      <use x="94.433594" xlink:href="#ArialMT-6c"/>
      <use x="116.650391" xlink:href="#ArialMT-61"/>
      <use x="172.265625" xlink:href="#ArialMT-74"/>
      <use x="200.048828" xlink:href="#ArialMT-61"/>
      <use x="255.664062" xlink:href="#ArialMT-e7"/>
      <use x="305.664062" xlink:href="#ArialMT-e3"/>
      <use x="361.279297" xlink:href="#ArialMT-6f"/>
      <use x="416.894531" xlink:href="#ArialMT-20"/>
      <use x="444.677734" xlink:href="#ArialMT-72"/>
      <use x="477.978516" xlink:href="#ArialMT-65"/>
      <use x="533.59375" xlink:href="#ArialMT-6c"/>
      <use x="555.810547" xlink:href="#ArialMT-61"/>
      <use x="611.425781" xlink:href="#ArialMT-74"/>
      <use x="639.208984" xlink:href="#ArialMT-69"/>
      <use x="661.425781" xlink:href="#ArialMT-76"/>
      <use x="711.425781" xlink:href="#ArialMT-61"/>
      <use x="767.041016" xlink:href="#ArialMT-20"/>
      <use x="794.824219" xlink:href="#ArialMT-28"/>
      <use x="828.125" xlink:href="#ArialMT-25"/>
      <use x="917.041016" xlink:href="#ArialMT-29"/>
     </g>
    </g>
   </g>
   <g id="line2d_13">
    <path clip-path="url(#p18e0fa332f)" d="M 409.906328 85.028492 
L 409.468013 85.351385 
L 409.005333 85.855569 
L 405.023616 88.175805 
L 404.190335 88.861107 
L 402.882891 89.507242 
L 400.006643 91.38203 
L 399.768907 91.621884 
L 398.926921 91.998796 
L 398.378989 92.561718 
L 397.628631 92.963106 
L 396.626377 93.672884 
L 394.115581 95.229497 
L 393.492368 95.665146 
L 392.78527 96.262342 
L 392.283827 96.389601 
L 388.609425 98.714729 
L 388.27295 99.067165 
L 387.107464 99.674146 
L 386.381403 100.183223 
L 385.888174 100.653147 
L 383.857918 101.872002 
L 383.559001 102.13144 
L 383.129323 102.234236 
L 382.2875 102.709053 
L 381.57276 103.306235 
L 379.372264 104.583827 
L 379.121715 104.93137 
L 378.574273 105.269129 
L 378.309666 105.616672 
L 376.462769 106.742529 
L 376.147934 106.977491 
L 375.724346 107.129226 
L 375.066352 107.589365 
L 373.500594 108.62221 
L 372.722568 108.969753 
L 372.073321 109.513091 
L 370.62028 110.457831 
L 369.829115 110.815159 
L 369.013081 111.334035 
L 368.229865 111.789267 
L 365.71674 113.370357 
L 365.112489 113.923479 
L 362.403907 115.568198 
L 362.172874 115.984277 
L 361.474216 116.366096 
L 361.090373 116.659794 
L 360.201572 117.031814 
L 358.85712 117.991231 
L 354.514058 120.796068 
L 354.239173 121.079968 
L 353.427879 121.412834 
L 352.725053 121.98554 
L 352.349363 122.181349 
L 352.051488 122.494631 
L 351.314066 122.812806 
L 350.987665 123.189718 
L 350.197051 123.561737 
L 349.474015 124.080599 
L 347.815892 125.279884 
L 347.480418 125.382681 
L 346.693442 126.009235 
L 345.86997 126.537896 
L 345.518904 126.812011 
L 345.089512 126.885439 
L 344.769548 127.208507 
L 343.827085 127.702906 
L 343.218053 128.138555 
L 339.405125 130.71333 
L 339.104349 131.026605 
L 337.525962 131.858756 
L 336.035608 132.852441 
L 335.156717 133.292989 
L 333.626658 134.281782 
L 332.323627 135.167771 
L 331.929649 135.324412 
L 330.244022 136.474738 
L 329.874483 136.646063 
L 328.728001 137.634849 
L 327.198474 138.579589 
L 325.423997 139.788652 
L 324.669982 140.199832 
L 323.964192 140.733385 
L 321.567462 142.241046 
L 321.234236 142.534745 
L 320.462422 143.038929 
L 319.029182 143.920026 
L 318.776549 144.228416 
L 318.218624 144.659172 
L 317.257709 145.290629 
L 315.698286 146.166833 
L 314.672205 146.989193 
L 314.003606 147.302475 
L 313.76871 147.625543 
L 313.049373 147.968194 
L 312.673601 148.29616 
L 311.913354 148.66328 
L 311.574467 149.098936 
L 310.228626 149.823398 
L 309.034327 150.831767 
L 307.382478 151.698179 
L 307.024934 151.845029 
L 305.768842 152.814238 
L 297.582324 158.296637 
L 293.894313 160.89588 
L 291.209067 162.633604 
L 290.549685 163.172053 
L 288.045653 164.728663 
L 287.1723 165.467806 
L 283.720676 167.763562 
L 282.249878 168.713191 
L 282.039585 168.943257 
L 281.608212 169.173319 
L 281.328748 169.501286 
L 280.618749 169.92715 
L 280.313171 170.196376 
L 278.712674 171.160689 
L 278.486402 171.415228 
L 277.251459 172.100529 
L 277.001667 172.36486 
L 272.772753 174.743827 
L 271.956576 175.243116 
L 270.42196 176.182956 
L 269.77071 176.721405 
L 267.376984 178.464025 
L 266.473368 178.855624 
L 266.121648 179.139535 
L 265.203257 179.648614 
L 263.858703 180.583558 
L 263.128392 180.994738 
L 262.743016 181.298228 
L 261.459909 181.900312 
L 260.071687 182.820572 
L 258.911923 183.647828 
L 257.746641 184.293966 
L 256.725403 184.989056 
L 255.899458 185.478556 
L 255.675516 185.70862 
L 254.520145 186.428185 
L 254.18322 186.73657 
L 253.455034 186.96174 
L 253.001714 186.72678 
L 252.641043 186.863841 
L 252.355184 187.598089 
L 251.96376 187.828154 
L 251.139899 188.552614 
L 249.153843 189.844894 
L 248.781239 189.986848 
L 247.674707 190.995217 
L 245.841563 192.096592 
L 245.562856 192.346236 
L 244.718458 192.767206 
L 244.116905 193.271392 
L 242.278039 194.397241 
L 241.574211 194.832896 
L 240.254404 195.758049 
L 238.942586 196.384609 
L 238.705586 196.624465 
L 237.993605 197.089489 
L 237.448063 197.539829 
L 235.987441 198.411138 
L 234.931546 199.067068 
L 234.173627 199.566357 
L 229.988852 202.194971 
L 228.844598 202.826425 
L 227.44061 203.761369 
L 226.342129 204.324294 
L 224.407691 205.626364 
L 223.97364 205.836848 
L 223.39712 206.301874 
L 222.003666 207.114444 
L 221.150625 207.887853 
L 220.074898 208.485042 
L 216.825556 210.398985 
L 215.406692 211.255611 
L 212.880202 212.650686 
L 212.577873 212.738794 
L 212.0727 213.282139 
L 208.30059 215.328246 
L 207.563996 215.817746 
L 206.584894 216.287667 
L 205.710805 216.782063 
L 202.75286 218.054762 
L 202.57182 218.162451 
L 202.054355 218.245664 
L 201.260799 218.475734 
L 200.475335 218.514891 
L 199.743379 218.588315 
L 199.244081 218.534471 
L 198.891738 218.534471 
L 198.746131 218.37783 
L 198.553372 218.465942 
L 197.429062 218.025394 
L 196.83556 217.893229 
L 196.571944 217.692531 
L 196.123691 217.672951 
L 194.762596 216.958281 
L 194.353894 216.762483 
L 194.137359 216.522628 
L 194.062109 216.424728 
L 193.881488 216.419832 
L 193.508996 216.101657 
L 192.613318 215.582788 
L 192.479891 215.607264 
L 192.367 215.465307 
L 189.803851 214.496098 
L 188.840667 214.246454 
L 186.561191 213.252769 
L 184.655116 211.965385 
L 193.511356 208.426303 
L 194.030629 207.907433 
L 193.626321 207.393458 
L 192.295826 206.664104 
L 190.604406 205.494199 
L 189.702577 204.662049 
L 189.483171 204.353665 
L 188.513755 203.506831 
L 187.470611 202.317346 
L 186.040722 200.799897 
L 183.922833 198.259394 
L 183.698134 198.146809 
L 183.198029 197.368504 
L 182.653325 196.834949 
L 181.200049 195.048275 
L 180.67722 194.490246 
L 176.928386 190.192438 
L 176.365577 189.570773 
L 175.201787 188.337234 
L 175.069156 188.004375 
L 174.43591 187.529559 
L 174.208657 187.1967 
L 173.912437 186.97153 
L 173.766728 186.668041 
L 173.491087 186.535876 
L 171.09406 184.068797 
L 170.777897 183.877892 
L 170.557428 183.564611 
L 170.285137 183.383497 
L 169.733384 182.624773 
L 169.828752 181.821993 
L 169.764597 181.445078 
L 169.930587 180.735303 
L 169.915159 179.795465 
L 169.938823 179.129745 
L 169.85172 179.129745 
L 169.900784 179.06611 
L 169.867485 178.659825 
L 169.991666 178.542346 
L 169.938823 178.488499 
L 169.866423 178.444445 
L 169.906914 178.41997 
L 169.934705 178.278015 
L 169.859588 178.101796 
L 169.896308 178.204591 
L 169.918235 177.96963 
L 169.85925 178.003895 
L 169.967298 177.857045 
L 169.847235 177.749355 
L 169.923047 177.798305 
L 169.927512 177.817885 
L 169.898331 177.573135 
L 169.953893 177.612295 
L 169.803699 177.573135 
L 169.882903 177.524186 
L 169.935757 177.30391 
L 169.847919 177.406705 
L 169.882903 177.186431 
L 169.882536 177.2158 
L 169.955988 177.176641 
L 169.832512 177.137481 
L 169.906567 177.117901 
L 169.823582 176.995526 
L 169.923047 177.113005 
L 169.887379 177.03958 
L 169.85925 177.02 
L 170.135648 176.80462 
L 170.494684 176.838886 
L 171.850824 176.364072 
L 173.715284 175.561291 
L 174.085927 175.360597 
L 174.413667 175.350807 
L 175.691318 174.650822 
L 177.784921 173.774618 
L 179.022132 173.084422 
L 182.103533 171.674665 
L 184.131766 170.627136 
L 184.454755 170.543919 
L 185.482879 170.015259 
L 186.476684 169.594291 
L 186.821108 169.339749 
L 187.509989 169.099895 
L 187.797942 168.869832 
L 188.555217 168.590814 
L 188.841372 168.37054 
L 189.180259 168.302011 
L 189.481771 168.086629 
L 189.82168 168.032785 
L 190.880242 167.406227 
L 192.576761 166.671977 
L 193.238085 166.319537 
L 194.216717 165.830037 
L 194.472598 165.609763 
L 195.54951 165.174107 
L 195.919529 165.051734 
L 196.225895 164.83146 
L 197.295747 164.434964 
L 197.981183 164.033573 
L 198.323371 163.95036 
L 199.224944 163.31401 
L 200.299046 162.971359 
L 201.324708 162.408434 
L 201.627722 162.359485 
L 202.616939 161.772084 
L 202.986488 161.728028 
L 204.345254 160.89588 
L 204.589049 160.8763 
L 206.342601 160.009884 
L 207.062051 159.725978 
L 207.304303 159.681921 
L 209.023494 158.795925 
L 211.077904 157.924617 
L 211.341122 157.621127 
L 211.705235 157.572178 
L 213.685539 156.647022 
L 218.482554 154.488332 
L 218.828389 154.40022 
L 219.10916 154.160365 
L 219.763587 153.940088 
L 220.798905 153.362482 
L 221.809517 152.961087 
L 222.49337 152.608651 
L 223.505188 152.266 
L 223.771736 151.972302 
L 224.198686 151.908665 
L 224.810773 151.556222 
L 225.788393 151.145043 
L 232.261299 148.193364 
L 232.872742 147.94861 
L 233.266762 147.694071 
L 233.960781 147.503169 
L 234.928174 146.857028 
L 236.319809 146.362635 
L 237.266543 145.843766 
L 238.596629 145.231892 
L 239.286173 145.011615 
L 239.593141 144.69344 
L 239.900804 144.668964 
L 242.329105 143.533322 
L 243.297173 143.029137 
L 249.721434 139.930609 
L 249.981239 139.695647 
L 250.731167 139.397049 
L 251.366233 139.044613 
L 251.723347 138.941816 
L 253.405153 138.006875 
L 256.105888 136.695016 
L 256.798457 136.36215 
L 257.019293 133.865703 
L 256.918632 132.867125 
L 256.960033 131.031504 
L 256.932651 106.316665 
L 257.038032 106.169809 
L 256.890576 105.714576 
L 256.979098 105.562827 
L 256.909437 105.181023 
L 256.977137 105.034167 
L 256.893968 104.882432 
L 256.951491 104.48103 
L 256.916834 104.162855 
L 256.924252 102.855895 
L 257.002332 102.748206 
L 256.931629 102.709053 
L 256.891884 101.563612 
L 257.013101 101.455923 
L 256.911766 101.426554 
L 256.957519 101.074118 
L 256.911766 100.4084 
L 256.946771 100.300711 
L 256.958214 100.046166 
L 256.888512 99.95806 
L 256.891884 99.962953 
L 256.978771 99.874847 
L 256.879745 99.747574 
L 256.938004 99.590933 
L 256.942725 99.360864 
L 257.043038 99.228699 
L 256.918469 99.106332 
L 256.898933 98.87137 
L 256.950122 98.900739 
L 256.843699 98.822418 
L 256.961218 98.797942 
L 256.956845 98.469983 
L 256.876047 98.499351 
L 256.949795 98.406339 
L 256.943072 97.916846 
L 256.964917 97.93643 
L 256.934633 97.623147 
L 256.972661 97.672099 
L 256.886795 96.815465 
L 256.915097 96.888893 
L 256.989173 96.580517 
L 256.921493 96.746943 
L 256.92182 96.516874 
L 257.02385 96.575611 
L 256.879418 96.438553 
L 256.965959 96.492398 
L 256.937657 96.09101 
L 256.942377 96.139962 
L 256.864603 96.115486 
L 256.965959 96.115486 
L 256.926888 96.071426 
L 256.979711 96.02738 
L 256.946423 96.032273 
L 256.90631 95.929476 
L 256.907026 96.007797 
L 256.915118 95.356756 
L 257.010425 95.479136 
L 256.888185 95.293126 
L 256.954842 95.293126 
L 256.84844 95.160961 
L 256.965959 95.307818 
L 256.965959 95.180545 
L 256.944441 94.681253 
L 256.909069 94.681253 
L 256.853834 94.695944 
L 257.037705 94.749788 
L 256.912441 94.602932 
L 256.893947 94.612717 
L 257.006031 94.470767 
L 256.88653 94.319018 
L 256.987558 94.309233 
L 256.976115 94.319018 
L 256.9613 93.91763 
L 256.841124 94.049795 
L 256.949856 93.800156 
L 256.931363 93.937214 
L 256.876476 93.805049 
L 256.965346 93.883369 
L 256.962342 93.746312 
L 256.923292 93.756097 
L 256.895664 93.579872 
L 256.939108 93.858893 
L 256.943481 93.643515 
L 257.005786 93.623931 
L 256.925355 93.364493 
L 257.044857 93.359601 
L 256.866054 93.3694 
L 256.940824 93.256804 
L 256.932753 93.100163 
L 257.02195 93.251912 
L 256.925703 93.163807 
L 256.977218 92.762419 
L 256.872185 92.845632 
L 257.025035 92.723251 
L 256.897135 92.68899 
L 256.988662 92.679206 
L 256.911582 92.791787 
L 256.974214 92.728144 
L 257.021684 92.855416 
L 256.947282 92.463813 
L 256.972559 92.54704 
L 256.858759 92.542134 
L 256.969555 92.297387 
L 256.88138 92.365923 
L 256.915016 92.194591 
L 256.953739 92.307172 
L 257.006644 92.400184 
L 256.931547 92.101593 
L 256.460224 92.312079 
L 252.213368 93.946999 
L 244.7872 97.172807 
L 237.959499 100.153855 
L 228.387109 104.260759 
L 222.471362 106.972584 
L 216.813081 109.415201 
L 211.472168 111.799052 
L 206.34443 114.006706 
L 199.203906 117.090551 
L 190.334506 120.947802 
L 182.297906 124.2813 
L 178.542104 126.107133 
L 176.781492 126.787542 
L 175.021932 127.60011 
L 173.232722 128.280512 
L 171.560888 129.107764 
L 165.144423 131.790227 
L 162.096596 133.116771 
L 160.580116 133.713961 
L 157.815442 134.971976 
L 155.025765 136.11251 
L 152.490775 137.257937 
L 145.072117 140.278152 
L 142.836278 141.208201 
L 131.865366 145.785022 
L 128.365445 147.023461 
L 125.981446 148.061198 
L 123.644523 148.981455 
L 118.118964 151.130358 
L 111.880413 153.582753 
L 110.430595 154.106521 
L 109.880246 154.25337 
L 109.544445 154.517701 
L 90.433146 161.860193 
L 90.21338 161.894461 
L 87.980581 162.785349 
L 87.859264 162.731505 
L 87.718641 162.888143 
L 87.512997 162.946883 
L 87.43473 163.04968 
L 87.427629 163.010519 
L 87.267026 163.034995 
L 87.112922 163.034995 
L 87.151188 163.054576 
L 86.815134 163.221005 
L 86.819185 163.103524 
L 86.741628 163.235689 
L 86.717911 163.201425 
L 86.67049 163.167161 
L 86.644436 163.367855 
L 86.594318 163.265058 
L 86.504214 163.431487 
L 86.534337 163.436383 
L 86.367359 163.377643 
L 86.368081 163.397223 
L 86.292857 163.279746 
L 86.246813 163.348274 
L 85.896658 163.5196 
L 85.943045 163.514704 
L 85.861772 163.514704 
L 85.861772 163.514704 
" style="fill:none;stroke:#1f77b4;stroke-linecap:square;"/>
   </g>
   <g id="line2d_14">
    <path clip-path="url(#p18e0fa332f)" d="M 191.499501 213.673737 
L 189.472433 212.890538 
L 188.055254 212.366773 
L 185.410898 211.128338 
L 192.326182 207.261291 
L 192.680303 206.434036 
L 192.42814 205.998382 
L 191.259272 205.092808 
L 189.532725 203.829898 
L 186.842912 201.289394 
L 185.275928 199.73768 
L 185.07901 199.350976 
L 184.471041 198.743996 
L 183.72101 197.848211 
L 180.115862 193.643409 
L 179.559326 193.139224 
L 179.075497 192.502874 
L 178.542911 191.87142 
L 177.513662 190.721096 
L 176.723018 189.903631 
L 176.477906 189.502241 
L 175.122552 188.141433 
L 173.812931 186.805098 
L 173.312744 186.222593 
L 172.267332 185.209328 
L 172.066787 184.915629 
L 171.791104 184.73941 
L 171.017512 183.936629 
L 170.000811 182.913575 
L 169.823183 182.683511 
L 169.724055 181.841572 
L 169.762421 181.381442 
L 169.874249 180.490552 
L 169.861549 179.212958 
L 169.945944 179.183588 
L 169.890393 179.164008 
L 169.901335 178.777302 
L 169.873912 178.836043 
L 169.888972 177.519289 
L 169.877672 177.519289 
L 169.830008 177.465444 
L 169.930547 177.47034 
L 169.893805 177.401808 
L 169.910296 176.936783 
L 169.881085 177.445864 
L 169.90063 176.936783 
L 170.256968 176.931888 
L 170.594333 176.75567 
L 171.584643 176.554972 
L 172.401045 176.266169 
L 173.099121 175.992051 
L 178.905492 173.363435 
L 179.528174 173.177426 
L 180.525677 172.53618 
L 181.617292 172.100528 
L 182.21957 171.777457 
L 183.374011 171.332013 
L 183.618235 171.111739 
L 183.933019 171.033418 
L 185.263933 170.343224 
L 185.954019 170.044629 
L 186.25975 169.770507 
L 187.264753 169.418068 
L 187.599247 169.099893 
L 187.938542 169.046048 
L 188.595483 168.688713 
L 189.639547 168.233481 
L 189.989315 168.081735 
L 190.655349 167.64608 
L 191.657256 167.25448 
L 192.007637 166.99015 
L 192.401483 166.946093 
L 192.653278 166.711135 
L 196.083261 165.130049 
L 196.314714 164.924459 
L 196.689851 164.875511 
L 197.998175 164.14126 
L 199.079644 163.720292 
L 212.443812 157.52812 
L 213.534824 157.126729 
L 213.811814 156.857506 
L 214.830212 156.465906 
L 215.551379 156.064515 
L 216.237347 155.829557 
L 217.52214 155.227471 
L 218.867715 154.654758 
L 219.213213 154.405112 
L 219.576999 154.317003 
L 219.854296 154.126097 
L 222.224237 153.151993 
L 222.897545 152.819134 
L 225.326582 151.7765 
L 225.60953 151.575803 
L 226.610742 151.174415 
L 227.306028 150.846448 
L 227.998137 150.577225 
L 238.782032 145.574536 
L 239.061597 145.393419 
L 239.728459 145.119304 
L 244.796457 142.750123 
L 245.816776 142.324259 
L 246.446773 142.001192 
L 246.804113 141.893503 
L 247.514582 141.487215 
L 248.477398 141.022191 
L 253.88322 138.403364 
L 254.252228 138.349519 
L 254.565878 138.070505 
L 254.888642 137.967715 
L 255.540995 137.556535 
L 257.919885 136.460054 
L 258.244611 136.146771 
L 258.7049 136.083135 
L 258.995929 135.828596 
L 259.233338 135.784544 
L 259.55459 135.58385 
L 259.955598 135.495737 
L 260.940074 134.86428 
L 261.949195 134.374787 
L 262.66467 134.032136 
L 263.019803 133.914655 
L 263.645284 133.542635 
L 265.650324 132.519582 
L 265.988986 132.240568 
L 266.668252 132.000713 
L 267.012881 131.716799 
L 267.351707 131.643378 
L 269.672359 130.409842 
L 271.068653 129.753909 
L 272.716374 128.779801 
L 273.436999 128.495887 
L 281.138625 124.286199 
L 281.417741 123.982702 
L 282.130294 123.659634 
L 282.406018 123.449149 
L 283.182021 123.077129 
L 283.814961 122.665957 
L 284.490181 122.284138 
L 285.491066 121.819121 
L 287.23953 120.879274 
L 288.499954 120.052022 
L 288.90932 119.924749 
L 289.127459 119.665311 
L 289.569398 119.533146 
L 291.546708 118.250662 
L 292.557872 117.682848 
L 294.573129 116.439517 
L 294.955787 116.361196 
L 295.172107 116.062605 
L 295.898924 115.641633 
L 296.327927 115.445825 
L 296.900361 115.005284 
L 298.267945 114.222078 
L 298.954485 113.761953 
L 299.958885 113.14028 
L 302.320753 111.686478 
L 302.991498 111.221446 
L 303.635554 110.756429 
L 307.02614 108.602619 
L 307.197647 103.795735 
L 307.181382 94.416929 
L 307.1672 90.623293 
L 307.132952 84.166798 
L 307.230343 83.691982 
L 307.149524 83.383606 
L 307.194909 83.251441 
L 307.129641 82.889206 
L 307.208764 81.689935 
L 307.127618 81.724196 
L 307.197504 81.59203 
L 307.145764 80.534709 
L 307.268637 80.544508 
L 307.150444 80.451496 
L 307.13383 79.95711 
L 307.137815 79.986479 
L 307.229546 79.942419 
L 307.175231 79.873883 
L 307.1136 79.844515 
L 307.201694 79.844515 
L 307.221576 79.780886 
L 307.193009 79.379498 
L 307.216897 79.38439 
L 307.096639 79.252225 
L 307.196994 79.213072 
L 307.119506 78.914466 
L 307.085727 78.943835 
L 307.19164 78.821469 
L 307.138673 78.547339 
L 307.142004 78.655028 
L 307.263488 78.566923 
L 307.142004 78.537555 
L 307.164155 78.136167 
L 307.147869 78.165535 
L 307.148584 78.018679 
L 307.13663 78.03337 
L 307.214138 77.959942 
L 307.186306 77.955049 
L 307.179706 77.715195 
L 307.170694 77.778824 
L 307.24857 77.720088 
L 307.144926 77.720088 
L 307.151833 77.529185 
L 307.179052 77.53897 
L 307.186306 77.279546 
L 307.117401 77.211011 
L 307.247222 77.201226 
L 307.097518 77.108214 
L 307.113437 77.08863 
L 307.174699 76.86836 
L 307.125023 76.892836 
L 307.093513 76.814529 
L 307.159149 76.804716 
L 307.224682 76.814529 
L 307.139572 76.697041 
L 307.212749 76.604029 
L 307.154142 76.819407 
L 307.167752 76.599151 
L 307.150464 75.439019 
L 307.154428 76.638304 
L 307.174332 75.512433 
L 307.26643 75.468387 
L 307.201571 75.546708 
L 307.205515 75.33133 
L 307.171409 75.370497 
L 307.263488 75.404772 
L 307.162398 75.321545 
L 307.155838 75.003356 
L 307.136282 75.316639 
L 307.251186 75.111073 
L 307.105835 74.939727 
L 307.163481 74.915265 
L 307.229055 74.905452 
L 307.129355 74.905452 
L 307.179052 74.836944 
L 307.141309 74.778207 
L 307.114458 74.890789 
L 307.068419 74.885882 
L 307.178705 74.905452 
L 307.118423 74.543245 
L 307.149238 74.587291 
L 307.218123 74.518769 
L 307.141309 74.484508 
L 307.172779 74.318054 
L 307.235084 74.347451 
L 307.127087 74.205487 
L 307.157575 74.283807 
L 307.193009 74.073322 
L 307.093349 74.264224 
L 307.185775 74.078214 
L 307.143026 73.926465 
L 307.239068 74.107583 
L 307.178827 73.931358 
L 307.243727 73.906882 
L 307.143373 73.946035 
L 307.154939 73.892204 
L 307.15026 69.873405 
L 306.978405 70.000692 
L 307.288357 69.834238 
L 307.094024 69.878311 
L 307.128476 69.74124 
L 307.117197 69.790192 
L 307.239743 69.790192 
L 307.08209 69.804883 
L 307.189719 69.560123 
L 307.158577 69.897881 
L 307.178112 69.751025 
L 307.218246 69.785314 
L 307.098662 69.687409 
L 307.242501 69.452433 
L 307.114949 69.535646 
L 306.483541 69.623766 
L 300.440752 72.007617 
L 285.599839 78.478818 
L 272.22149 84.411559 
L 222.477002 106.155124 
L 216.665145 108.622203 
L 208.631549 112.215138 
L 205.969169 113.267553 
L 201.044509 115.377303 
L 198.687341 116.33672 
L 194.170228 118.485624 
L 189.681059 120.335936 
L 183.434007 123.077129 
L 181.436078 123.7918 
L 179.442553 124.790384 
L 162.251112 132.093718 
L 159.24156 133.400678 
L 157.69454 133.929339 
L 153.505842 135.76496 
L 152.121941 136.278936 
L 150.74837 136.964238 
L 149.43595 137.429263 
L 146.869306 138.506161 
L 138.625853 141.893503 
L 134.351247 143.56269 
L 132.346243 144.326313 
L 130.433546 145.226993 
L 128.539476 145.882919 
L 125.865352 146.984293 
L 124.192864 147.625543 
L 123.297008 147.850713 
L 121.776415 148.560483 
L 118.757631 149.76955 
L 115.929124 150.81708 
L 114.661261 151.355528 
L 113.424786 151.830345 
L 110.909566 152.745709 
L 94.348772 159.207103 
L 94.07102 159.192419 
L 92.290858 159.823873 
L 92.229498 160.009883 
L 91.893204 160.014779 
L 90.942074 160.465119 
L 90.387538 160.611968 
L 90.005402 160.744133 
L 89.658558 160.856718 
L 89.385297 161.023148 
L 86.463447 162.070677 
L 86.181274 162.193054 
L 86.147802 162.168578 
L 85.275557 162.618918 
L 85.202108 162.540597 
L 84.402156 162.84898 
L 84.352083 162.819612 
L 84.348382 162.8294 
L 84.060354 163.05457 
L 83.807921 163.157367 
L 83.441792 163.294428 
L 83.412065 163.235688 
L 83.123092 163.372745 
L 82.96712 163.397221 
L 82.918123 163.490226 
L 82.889663 163.411905 
L 82.816272 163.353165 
L 82.648824 163.52449 
L 82.643705 163.519598 
L 82.442483 163.593023 
L 82.279116 163.656656 
L 82.178341 163.734976 
L 82.15397 163.7105 
L 81.683553 163.87693 
L 81.739411 163.901406 
" style="fill:none;stroke:#ff7f0e;stroke-linecap:square;"/>
   </g>
   <g id="line2d_15">
    <path clip-path="url(#p18e0fa332f)" d="M 409.906328 87.02547 
L 407.378088 88.73872 
L 405.983714 89.335902 
L 405.233275 89.796041 
L 404.450345 90.4177 
L 404.197978 90.564556 
L 403.856721 91.019788 
L 403.564425 91.171551 
L 403.052988 91.700212 
L 401.269908 92.600864 
L 400.243603 93.105048 
L 399.702822 93.300857 
L 398.435307 94.186846 
L 397.577484 94.642078 
L 397.367232 94.896624 
L 396.736376 95.25398 
L 396.568098 95.547665 
L 395.439476 96.536464 
L 393.66083 97.412668 
L 391.705855 98.342703 
L 390.794249 99.121002 
L 389.733367 99.860163 
L 389.247065 99.997206 
L 388.226992 100.946839 
L 386.67517 101.86221 
L 385.642469 102.611155 
L 384.280852 103.462883 
L 383.787541 104.040496 
L 382.892691 104.539774 
L 381.935311 104.902009 
L 381.303882 105.499191 
L 380.491465 106.047421 
L 380.301138 106.199184 
L 379.218187 106.683799 
L 378.517813 107.422932 
L 376.781324 108.372564 
L 375.783524 109.35155 
L 374.715225 109.772522 
L 371.636675 111.740308 
L 370.1115 112.626297 
L 369.627242 112.822105 
L 369.002169 113.301814 
L 366.82366 114.833937 
L 366.501182 115.117865 
L 365.834381 115.4801 
L 365.567281 115.852119 
L 364.544858 116.463993 
L 363.782178 116.973056 
L 362.621985 117.584958 
L 361.766778 118.084236 
L 360.850982 118.475825 
L 360.066601 118.984916 
L 359.608928 119.396074 
L 359.552794 119.670218 
L 356.867058 120.982056 
L 356.653415 121.285554 
L 354.398521 122.837275 
L 354.350848 123.018392 
L 353.616368 123.498101 
L 352.350548 124.467303 
L 350.735972 125.500148 
L 350.336885 125.637219 
L 348.896718 126.684756 
L 348.350216 126.895228 
L 347.766972 127.453271 
L 345.859017 128.46164 
L 343.677565 129.724526 
L 343.187013 129.983979 
L 342.652955 130.522424 
L 342.042043 130.806324 
L 340.73043 131.80003 
L 339.296332 132.529377 
L 338.78369 132.935658 
L 338.030512 133.640529 
L 337.04902 134.139807 
L 334.526433 135.466365 
L 333.785128 136.156546 
L 333.51153 136.332785 
L 332.822272 136.533471 
L 331.230746 137.908953 
L 330.982588 138.369092 
L 324.798903 142.03055 
L 324.379729 142.466212 
L 322.56097 143.665484 
L 318.284485 145.98572 
L 317.403101 146.876615 
L 316.454814 147.625532 
L 315.342152 148.090549 
L 314.319238 148.790542 
L 313.742125 149.270251 
L 309.522223 152.02615 
L 308.540158 152.510736 
L 308.038755 152.887662 
L 306.746963 154.160362 
L 305.639164 154.855448 
L 302.548824 156.651902 
L 301.377494 157.288252 
L 301.18312 157.508536 
L 300.470526 157.949078 
L 299.90177 158.467953 
L 299.015216 159.104303 
L 298.351236 159.579133 
L 295.206989 161.365802 
L 295.043145 161.664393 
L 294.044814 162.271361 
L 293.754193 162.50143 
L 293.329481 162.614026 
L 291.703073 163.857343 
L 289.816411 164.914664 
L 288.96623 165.306253 
L 288.29238 166.025844 
L 287.655639 166.441909 
L 287.326765 166.701333 
L 283.763854 168.453741 
L 283.556341 168.659334 
L 281.18869 170.137627 
L 281.003696 170.313866 
L 280.5478 170.592859 
L 280.020691 170.778883 
L 278.111571 172.14458 
L 277.057739 172.585121 
L 276.41826 172.65855 
L 274.502437 174.587197 
L 273.754981 174.959188 
L 272.924316 175.404635 
L 272.034105 175.899035 
L 270.765404 176.692026 
L 269.640808 177.308806 
L 268.95486 177.768917 
L 268.098692 178.449341 
L 266.366495 179.477279 
L 265.548213 179.942297 
L 264.647723 180.309438 
L 264.149364 180.813622 
L 263.849119 181.043692 
L 261.715873 182.081415 
L 260.154242 183.172997 
L 259.263254 183.564615 
L 258.045333 184.205843 
L 257.187449 185.033094 
L 256.752172 185.209333 
L 256.37307 185.542186 
L 255.691148 185.889729 
L 254.089446 187.000909 
L 250.563318 188.831623 
L 250.296524 189.169382 
L 247.493902 190.765149 
L 246.791198 191.171429 
L 245.91337 191.783302 
L 245.232939 192.267917 
L 244.658156 192.693767 
L 243.775689 193.369284 
L 238.499932 196.462914 
L 238.24401 196.722366 
L 235.024911 198.577556 
L 234.484335 199.086647 
L 234.109095 199.223691 
L 233.797877 199.527188 
L 233.048214 199.850256 
L 232.771509 200.114586 
L 231.641416 200.746057 
L 230.150571 201.568403 
L 229.88484 201.818042 
L 229.112659 202.180276 
L 228.382061 202.6502 
L 227.759359 203.154385 
L 226.815149 203.531311 
L 225.432801 204.407515 
L 224.167237 205.21029 
L 223.408512 205.885807 
L 222.582955 206.331227 
L 222.286429 206.571081 
L 221.244307 206.918653 
L 220.616731 207.427715 
L 219.340398 208.250089 
L 219.054855 208.48013 
L 216.963305 209.517882 
L 216.180396 210.154232 
L 215.976724 210.413656 
L 214.938505 210.991268 
L 214.225083 211.485668 
L 213.249843 212.063281 
L 212.618619 212.508729 
L 212.014931 212.910102 
L 211.078405 213.502406 
L 210.309482 213.845071 
L 208.473385 215.029651 
L 207.497624 215.538714 
L 207.379206 215.749214 
L 205.770382 216.571559 
L 204.165839 217.442885 
L 203.570978 217.692524 
L 203.033467 217.883426 
L 202.263615 218.186924 
L 202.102019 218.328874 
L 199.395337 218.828152 
L 199.174542 218.754752 
L 198.829382 218.833058 
L 198.755204 218.779228 
L 198.522444 218.813489 
L 198.338216 218.700893 
L 198.082539 218.730276 
L 195.25043 217.824689 
L 195.026804 217.66317 
L 193.537216 216.69394 
L 193.110951 216.542205 
L 192.985401 216.400255 
L 191.589127 216.14571 
L 190.549815 215.719832 
L 189.695537 215.435932 
L 186.352493 214.46673 
L 184.458331 213.585619 
L 183.218054 212.836702 
L 182.803549 212.557681 
L 192.79725 209.150769 
L 193.772908 208.54868 
L 193.901861 208.28435 
L 192.396293 207.094863 
L 192.016782 206.933316 
L 190.223321 205.239645 
L 189.604154 204.583725 
L 189.269752 204.290012 
L 189.065396 203.9229 
L 188.734387 203.678139 
L 178.298799 191.626661 
L 177.759705 190.990312 
L 177.299774 190.471436 
L 176.265621 189.443497 
L 175.461786 188.552602 
L 175.272215 188.440034 
L 175.012737 188.023941 
L 174.519426 187.544233 
L 169.692739 182.649243 
L 169.637525 182.433865 
L 169.835403 181.939465 
L 169.728745 181.650659 
L 169.935573 181.058355 
L 169.843291 180.495433 
L 169.961597 180.48077 
L 169.870714 180.172366 
L 169.88273 179.859084 
L 169.950297 179.751395 
L 169.918746 179.751395 
L 169.867312 179.526232 
L 169.937229 179.575184 
L 169.862132 178.870312 
L 169.882362 178.870312 
L 169.890617 178.664719 
L 169.914975 178.708765 
L 169.841891 178.20458 
L 169.850821 178.248654 
L 169.960902 178.101797 
L 169.925928 178.101797 
L 169.925234 178.121367 
L 169.835056 177.998987 
L 169.96502 177.950034 
L 169.916998 177.90111 
L 169.917346 177.950034 
L 169.91051 177.715087 
L 169.920064 177.02 
L 169.932069 177.103213 
L 170.270506 177.029785 
L 171.666106 176.5256 
L 172.529814 176.192748 
L 177.931376 173.70118 
L 178.249746 173.500493 
L 178.984543 173.309591 
L 179.255607 173.025691 
L 180.011186 172.736884 
L 189.665396 167.998508 
L 190.105884 167.851652 
L 190.439897 167.548182 
L 191.4604 167.21533 
L 191.734805 166.926524 
L 192.117003 166.823713 
L 192.786235 166.481076 
L 196.093703 164.91957 
L 196.804878 164.572027 
L 201.800323 162.173484 
L 202.876264 161.6693 
L 203.227381 161.605656 
L 204.156868 161.091687 
L 206.913349 159.911985 
L 207.5675 159.598703 
L 208.06736 159.407801 
L 208.215409 159.197301 
L 208.960116 158.908523 
L 210.941626 158.027412 
L 213.222481 156.926045 
L 214.265564 156.456122 
L 219.329802 154.135886 
L 219.982779 153.856864 
L 221.011251 153.406538 
L 225.367165 151.399585 
L 225.69843 151.1793 
L 226.394565 150.959044 
L 228.468929 149.99472 
L 230.751797 148.937399 
L 242.901702 143.332632 
L 243.896968 142.794186 
L 247.952004 140.860661 
L 248.251085 140.596331 
L 249.334505 140.20962 
L 250.598322 139.587961 
L 259.682285 134.98175 
L 260.056953 134.85937 
L 261.007508 134.247525 
L 261.657634 133.948905 
L 263.405321 133.077608 
L 263.655236 132.911182 
L 264.439453 132.592993 
L 281.533196 123.331675 
L 282.508702 122.719801 
L 284.223857 121.779954 
L 285.24015 121.172958 
L 285.61962 121.016345 
L 285.963084 120.737324 
L 286.551436 120.477872 
L 288.619701 119.234555 
L 290.574063 118.054853 
L 291.242703 117.726908 
L 292.651544 116.831106 
L 293.363668 116.478684 
L 293.715878 116.145804 
L 294.318351 115.847213 
L 298.060268 113.487838 
L 298.345821 113.218601 
L 299.064954 112.905318 
L 299.712117 112.420732 
L 300.422974 111.965499 
L 301.35383 111.319336 
L 302.387227 110.6928 
L 304.064946 109.601189 
L 304.391388 109.29772 
L 305.093806 108.911009 
L 305.432039 108.729892 
L 305.775544 108.382348 
L 306.083902 108.274659 
L 307.800651 107.075388 
L 308.135288 106.933438 
L 308.743543 106.419469 
L 309.187321 106.238323 
L 309.436725 105.949517 
L 310.179399 105.489406 
L 312.514375 103.849594 
L 313.470713 103.130031 
L 314.862553 102.190184 
L 315.875964 101.36781 
L 316.220634 101.220954 
L 316.801957 100.73146 
L 317.508237 100.222398 
L 319.257232 99.037789 
L 320.182264 98.181183 
L 320.875956 97.721044 
L 322.222124 96.761627 
L 325.574886 94.206444 
L 326.577528 93.433022 
L 326.872113 93.11974 
L 328.277072 92.194584 
L 328.914548 91.675736 
L 329.367154 91.426069 
L 329.981723 90.858269 
L 332.700298 88.772981 
L 332.915126 88.489081 
L 333.335997 88.352009 
L 334.63725 87.20169 
L 335.004071 86.996097 
L 335.358692 86.599601 
L 336.008736 86.256964 
L 336.99636 85.390545 
L 352.105742 73.857943 
L 352.492957 73.701274 
L 353.167093 73.108998 
L 354.15627 72.438388 
L 354.847775 71.899914 
L 355.862393 71.180351 
L 356.158653 70.857312 
L 356.540228 70.725147 
L 357.20239 70.181795 
L 357.378127 63.86725 
L 357.294774 62.109935 
L 357.395701 60.533738 
L 357.319602 60.328173 
L 357.394046 59.946341 
L 357.341427 59.946341 
L 357.382602 59.853343 
L 357.445929 59.760345 
L 357.37827 59.98548 
L 357.37404 59.921865 
L 357.439962 60.225362 
L 357.356303 60.220456 
L 357.40036 60.52886 
L 357.328532 60.572906 
L 357.362168 60.597382 
L 357.391532 61.052614 
L 357.457474 61.48337 
L 357.324834 61.605751 
L 357.393085 61.933725 
L 357.350643 61.958201 
L 357.421489 62.521122 
L 357.382929 62.790359 
L 357.412641 63.103641 
L 357.370178 63.529491 
L 357.452795 63.764439 
L 357.365887 63.960248 
L 357.373407 64.229484 
L 357.386301 78.278131 
L 357.421918 78.136181 
L 357.486941 78.111705 
L 357.343184 78.165535 
L 357.392819 78.101892 
L 357.336992 77.999081 
L 357.41963 78.204703 
L 357.394536 78.092107 
L 357.496443 78.038276 
L 357.33734 78.038276 
L 357.387343 77.974605 
L 357.315475 78.048033 
L 357.477868 77.989324 
L 357.364783 77.925681 
L 357.380927 77.592801 
L 357.338647 78.048033 
L 357.38158 77.690705 
L 357.469796 77.705396 
L 357.35804 77.592801 
L 357.393719 77.671135 
L 356.539799 77.803301 
L 348.78819 80.710934 
L 329.311429 88.733813 
L 306.351329 98.166492 
L 296.056168 102.444701 
L 272.667229 111.896949 
L 264.200532 115.264722 
L 260.224966 116.958393 
L 245.113111 122.910703 
L 238.154363 125.695956 
L 234.749821 126.958871 
L 228.390991 129.553194 
L 219.353792 133.043347 
L 205.882128 138.364214 
L 203.388396 139.225727 
L 196.221093 142.020765 
L 191.65697 143.734005 
L 187.430171 145.364061 
L 183.357255 146.945137 
L 179.441163 148.394047 
L 177.583978 149.177253 
L 173.851001 150.523381 
L 167.155777 152.98066 
L 132.101426 165.771298 
L 131.11575 166.055198 
L 130.289738 166.427218 
L 128.483322 167.043998 
L 114.121262 172.007509 
L 112.98766 172.345267 
L 112.449607 172.648765 
L 110.794274 173.079521 
L 109.837804 173.520062 
L 108.864827 173.818682 
L 108.347071 173.931249 
L 107.915595 174.195579 
L 107.050436 174.45991 
L 103.013337 175.894157 
L 102.640641 175.899035 
L 101.33951 176.496218 
L 98.580777 177.323498 
L 97.608004 177.729778 
L 96.830163 177.925558 
L 96.392559 178.126273 
L 92.6634 179.271686 
L 92.398042 179.536016 
L 92.088913 179.467495 
L 91.92981 179.653518 
L 91.508461 179.697564 
L 91.254723 179.859084 
L 91.118023 179.854205 
L 90.85617 179.996155 
L 90.271169 180.123414 
L 90.15592 180.319223 
L 90.002628 180.226225 
L 88.743575 180.666766 
L 88.217249 180.803838 
L 88.22539 180.833192 
L 87.913982 180.950694 
L 87.653089 180.931096 
L 87.589691 181.029 
L 87.550392 180.960479 
L 87.184514 181.112213 
L 87.068333 181.249285 
L 87.024963 181.180735 
L 86.997505 181.254163 
L 86.799373 181.224809 
L 86.518922 181.376544 
L 86.580203 181.38145 
L 86.363126 181.464663 
L 86.249313 181.503802 
L 85.960777 181.557661 
L 86.023779 181.596828 
L 85.766779 181.567446 
L 85.680405 181.670257 
L 85.689577 181.606613 
L 85.513142 181.675135 
L 85.536504 181.689826 
L 85.540226 181.675135 
L 85.454909 181.82687 
L 85.275478 181.851346 
L 85.343571 181.866037 
" style="fill:none;stroke:#2ca02c;stroke-linecap:square;"/>
   </g>
   <g id="line2d_16">
    <path clip-path="url(#p18e0fa332f)" d="M 169.8945 177.282264 
L 390.8625 74.031931 
" style="fill:none;stroke:#000000;stroke-dasharray:1,1.65;stroke-dashoffset:0;"/>
   </g>
   <g id="patch_3">
    <path d="M 56.0625 232.46 
L 56.0625 10.7 
" style="fill:none;stroke:#000000;stroke-linecap:square;stroke-linejoin:miter;stroke-width:0.8;"/>
   </g>
   <g id="patch_4">
    <path d="M 390.8625 232.46 
L 390.8625 10.7 
" style="fill:none;stroke:#000000;stroke-linecap:square;stroke-linejoin:miter;stroke-width:0.8;"/>
   </g>
   <g id="patch_5">
    <path d="M 56.0625 232.46 
L 390.8625 232.46 
" style="fill:none;stroke:#000000;stroke-linecap:square;stroke-linejoin:miter;stroke-width:0.8;"/>
   </g>
   <g id="patch_6">
    <path d="M 56.0625 10.7 
L 390.8625 10.7 
" style="fill:none;stroke:#000000;stroke-linecap:square;stroke-linejoin:miter;stroke-width:0.8;"/>
   </g>
   <g id="text_15">
    <!-- $T_T =$170 °C -->
    <defs>
     <path d="M 5.90625 72.90625 
L 67.578125 72.90625 
L 66.015625 64.59375 
L 39.984375 64.59375 
L 27.484375 0 
L 17.578125 0 
L 30.078125 64.59375 
L 4.296875 64.59375 
z
" id="DejaVuSans-Oblique-54"/>
     <path d="M 10.59375 45.40625 
L 73.1875 45.40625 
L 73.1875 37.203125 
L 10.59375 37.203125 
z
M 10.59375 25.484375 
L 73.1875 25.484375 
L 73.1875 17.1875 
L 10.59375 17.1875 
z
" id="DejaVuSans-3d"/>
     <path d="M 4.734375 62.203125 
L 4.734375 70.65625 
L 51.078125 70.65625 
L 51.078125 63.8125 
Q 44.234375 56.546875 37.515625 44.484375 
Q 30.8125 32.421875 27.15625 19.671875 
Q 24.515625 10.6875 23.78125 0 
L 14.75 0 
Q 14.890625 8.453125 18.0625 20.40625 
Q 21.234375 32.375 27.171875 43.484375 
Q 33.109375 54.59375 39.796875 62.203125 
z
" id="ArialMT-37"/>
     <path d="M 6.25 59.28125 
Q 6.25 64.890625 10.21875 68.84375 
Q 14.203125 72.796875 19.78125 72.796875 
Q 25.4375 72.796875 29.390625 68.84375 
Q 33.34375 64.890625 33.34375 59.28125 
Q 33.34375 53.65625 29.359375 49.671875 
Q 25.390625 45.703125 19.78125 45.703125 
Q 14.203125 45.703125 10.21875 49.65625 
Q 6.25 53.609375 6.25 59.28125 
z
M 11.578125 59.28125 
Q 11.578125 55.859375 13.984375 53.4375 
Q 16.40625 51.03125 19.828125 51.03125 
Q 23.1875 51.03125 25.609375 53.4375 
Q 28.03125 55.859375 28.03125 59.28125 
Q 28.03125 62.703125 25.609375 65.109375 
Q 23.1875 67.53125 19.828125 67.53125 
Q 16.40625 67.53125 13.984375 65.109375 
Q 11.578125 62.703125 11.578125 59.28125 
z
" id="ArialMT-b0"/>
     <path d="M 58.796875 25.09375 
L 68.265625 22.703125 
Q 65.28125 11.03125 57.546875 4.90625 
Q 49.8125 -1.21875 38.625 -1.21875 
Q 27.046875 -1.21875 19.796875 3.484375 
Q 12.546875 8.203125 8.765625 17.140625 
Q 4.984375 26.078125 4.984375 36.328125 
Q 4.984375 47.515625 9.25 55.828125 
Q 13.53125 64.15625 21.40625 68.46875 
Q 29.296875 72.796875 38.765625 72.796875 
Q 49.515625 72.796875 56.828125 67.328125 
Q 64.15625 61.859375 67.046875 51.953125 
L 57.71875 49.75 
Q 55.21875 57.5625 50.484375 61.125 
Q 45.75 64.703125 38.578125 64.703125 
Q 30.328125 64.703125 24.78125 60.734375 
Q 19.234375 56.78125 16.984375 50.109375 
Q 14.75 43.453125 14.75 36.375 
Q 14.75 27.25 17.40625 20.4375 
Q 20.0625 13.625 25.671875 10.25 
Q 31.296875 6.890625 37.84375 6.890625 
Q 45.796875 6.890625 51.3125 11.46875 
Q 56.84375 16.0625 58.796875 25.09375 
z
" id="ArialMT-43"/>
    </defs>
    <g transform="translate(314.3565 225.44105)scale(0.13 -0.13)">
     <use transform="translate(0 0.09375)" xlink:href="#DejaVuSans-Oblique-54"/>
     <use transform="translate(61.083984 -16.3125)scale(0.7)" xlink:href="#DejaVuSans-Oblique-54"/>
     <use transform="translate(126.05957 0.09375)" xlink:href="#DejaVuSans-3d"/>
     <use transform="translate(229.331055 0.09375)" xlink:href="#ArialMT-31"/>
     <use transform="translate(284.946289 0.09375)" xlink:href="#ArialMT-37"/>
     <use transform="translate(340.561523 0.09375)" xlink:href="#ArialMT-30"/>
     <use transform="translate(396.176758 0.09375)" xlink:href="#ArialMT-20"/>
     <use transform="translate(423.959961 0.09375)" xlink:href="#ArialMT-b0"/>
     <use transform="translate(463.950195 0.09375)" xlink:href="#ArialMT-43"/>
    </g>
   </g>
   <g id="patch_7">
    <path d="M 270.3345 229.340387 
Q 270.3345 180.977292 270.3345 131.496163 
" style="fill:none;stroke:#000000;stroke-linecap:round;"/>
    <path d="M 272.9345 224.140387 
L 270.3345 229.340387 
L 267.7345 224.140387 
" style="fill:none;stroke:#000000;stroke-linecap:round;"/>
   </g>
   <g id="text_16">
    <!-- 320 °C -->
    <g transform="translate(223.752875 229.87625)scale(0.13 -0.13)">
     <use xlink:href="#ArialMT-33"/>
     <use x="55.615234" xlink:href="#ArialMT-32"/>
     <use x="111.230469" xlink:href="#ArialMT-30"/>
     <use x="166.845703" xlink:href="#ArialMT-20"/>
     <use x="194.628906" xlink:href="#ArialMT-b0"/>
     <use x="234.619141" xlink:href="#ArialMT-43"/>
    </g>
   </g>
   <g id="legend_1">
    <g id="patch_8">
     <path d="M 62.5625 76.266719 
L 179.0425 76.266719 
L 179.0425 17.2 
L 62.5625 17.2 
z
" style="fill:#ffffff;opacity:0.8;stroke:#cccccc;stroke-linejoin:miter;"/>
    </g>
    <g id="line2d_17">
     <path d="M 67.7625 27.155156 
L 93.7625 27.155156 
" style="fill:none;stroke:#1f77b4;stroke-linecap:square;"/>
    </g>
    <g id="line2d_18"/>
    <g id="text_17">
     <!-- $T_P =$300 °C -->
     <defs>
      <path d="M 16.890625 72.90625 
L 39.703125 72.90625 
Q 49.65625 72.90625 54.875 68.265625 
Q 60.109375 63.625 60.109375 54.6875 
Q 60.109375 42.671875 52.390625 35.984375 
Q 44.671875 29.296875 30.71875 29.296875 
L 18.3125 29.296875 
L 12.59375 0 
L 2.6875 0 
z
M 25.203125 64.796875 
L 19.921875 37.40625 
L 32.328125 37.40625 
Q 40.71875 37.40625 45.203125 41.703125 
Q 49.703125 46 49.703125 54 
Q 49.703125 59.125 46.65625 61.953125 
Q 43.609375 64.796875 38.09375 64.796875 
z
" id="DejaVuSans-Oblique-50"/>
     </defs>
     <g transform="translate(104.1625 31.705156)scale(0.13 -0.13)">
      <use transform="translate(0 0.09375)" xlink:href="#DejaVuSans-Oblique-54"/>
      <use transform="translate(61.083984 -16.3125)scale(0.7)" xlink:href="#DejaVuSans-Oblique-50"/>
      <use transform="translate(125.512695 0.09375)" xlink:href="#DejaVuSans-3d"/>
      <use transform="translate(228.78418 0.09375)" xlink:href="#ArialMT-33"/>
      <use transform="translate(284.399414 0.09375)" xlink:href="#ArialMT-30"/>
      <use transform="translate(340.014648 0.09375)" xlink:href="#ArialMT-30"/>
      <use transform="translate(395.629883 0.09375)" xlink:href="#ArialMT-20"/>
      <use transform="translate(423.413086 0.09375)" xlink:href="#ArialMT-b0"/>
      <use transform="translate(463.40332 0.09375)" xlink:href="#ArialMT-43"/>
     </g>
    </g>
    <g id="line2d_19">
     <path d="M 67.7625 45.544062 
L 93.7625 45.544062 
" style="fill:none;stroke:#ff7f0e;stroke-linecap:square;"/>
    </g>
    <g id="line2d_20"/>
    <g id="text_18">
     <!-- $T_P =$375 °C -->
     <g transform="translate(104.1625 50.094062)scale(0.13 -0.13)">
      <use transform="translate(0 0.09375)" xlink:href="#DejaVuSans-Oblique-54"/>
      <use transform="translate(61.083984 -16.3125)scale(0.7)" xlink:href="#DejaVuSans-Oblique-50"/>
      <use transform="translate(125.512695 0.09375)" xlink:href="#DejaVuSans-3d"/>
      <use transform="translate(228.78418 0.09375)" xlink:href="#ArialMT-33"/>
      <use transform="translate(284.399414 0.09375)" xlink:href="#ArialMT-37"/>
      <use transform="translate(340.014648 0.09375)" xlink:href="#ArialMT-35"/>
      <use transform="translate(395.629883 0.09375)" xlink:href="#ArialMT-20"/>
      <use transform="translate(423.413086 0.09375)" xlink:href="#ArialMT-b0"/>
      <use transform="translate(463.40332 0.09375)" xlink:href="#ArialMT-43"/>
     </g>
    </g>
    <g id="line2d_21">
     <path d="M 67.7625 63.932969 
L 93.7625 63.932969 
" style="fill:none;stroke:#2ca02c;stroke-linecap:square;"/>
    </g>
    <g id="line2d_22"/>
    <g id="text_19">
     <!-- $T_P =$450 °C -->
     <g transform="translate(104.1625 68.482969)scale(0.13 -0.13)">
      <use transform="translate(0 0.09375)" xlink:href="#DejaVuSans-Oblique-54"/>
      <use transform="translate(61.083984 -16.3125)scale(0.7)" xlink:href="#DejaVuSans-Oblique-50"/>
      <use transform="translate(125.512695 0.09375)" xlink:href="#DejaVuSans-3d"/>
      <use transform="translate(228.78418 0.09375)" xlink:href="#ArialMT-34"/>
      <use transform="translate(284.399414 0.09375)" xlink:href="#ArialMT-35"/>
      <use transform="translate(340.014648 0.09375)" xlink:href="#ArialMT-30"/>
      <use transform="translate(395.629883 0.09375)" xlink:href="#ArialMT-20"/>
      <use transform="translate(423.413086 0.09375)" xlink:href="#ArialMT-b0"/>
      <use transform="translate(463.40332 0.09375)" xlink:href="#ArialMT-43"/>
     </g>
    </g>
   </g>
  </g>
 </g>
 <defs>
  <clipPath id="p18e0fa332f">
   <rect height="221.76" width="334.8" x="56.0625" y="10.7"/>
  </clipPath>
 </defs>
</svg>
