<?xml version="1.0" encoding="utf-8" standalone="no"?>
<!DOCTYPE svg PUBLIC "-//W3C//DTD SVG 1.1//EN"
  "http://www.w3.org/Graphics/SVG/1.1/DTD/svg11.dtd">
<!-- Created with matplotlib (http://matplotlib.org/) -->
<svg height="274pt" version="1.1" viewBox="0 0 408 274" width="408pt" xmlns="http://www.w3.org/2000/svg" xmlns:xlink="http://www.w3.org/1999/xlink">
 <defs>
  <style type="text/css">
*{stroke-linecap:butt;stroke-linejoin:round;}
  </style>
 </defs>
 <g id="figure_1">
  <g id="patch_1">
   <path d="M 0 274.748594 
L 408.906328 274.748594 
L 408.906328 0 
L 0 0 
z
" style="fill:#ffffff;"/>
  </g>
  <g id="axes_1">
   <g id="patch_2">
    <path d="M 56.0625 232.46 
L 390.8625 232.46 
L 390.8625 10.7 
L 56.0625 10.7 
z
" style="fill:#ffffff;"/>
   </g>
   <g id="matplotlib.axis_1">
    <g id="xtick_1">
     <g id="line2d_1">
      <defs>
       <path d="M 0 0 
L 0 3.5 
" id="me3dd8e33e4" style="stroke:#000000;stroke-width:0.8;"/>
      </defs>
      <g>
       <use style="stroke:#000000;stroke-width:0.8;" x="56.0625" xlink:href="#me3dd8e33e4" y="232.46"/>
      </g>
     </g>
     <g id="text_1">
      <!-- 0 -->
      <defs>
       <path d="M 4.15625 35.296875 
Q 4.15625 48 6.765625 55.734375 
Q 9.375 63.484375 14.515625 67.671875 
Q 19.671875 71.875 27.484375 71.875 
Q 33.25 71.875 37.59375 69.546875 
Q 41.9375 67.234375 44.765625 62.859375 
Q 47.609375 58.5 49.21875 52.21875 
Q 50.828125 45.953125 50.828125 35.296875 
Q 50.828125 22.703125 48.234375 14.96875 
Q 45.65625 7.234375 40.5 3 
Q 35.359375 -1.21875 27.484375 -1.21875 
Q 17.140625 -1.21875 11.234375 6.203125 
Q 4.15625 15.140625 4.15625 35.296875 
z
M 13.1875 35.296875 
Q 13.1875 17.671875 17.3125 11.828125 
Q 21.4375 6 27.484375 6 
Q 33.546875 6 37.671875 11.859375 
Q 41.796875 17.71875 41.796875 35.296875 
Q 41.796875 52.984375 37.671875 58.78125 
Q 33.546875 64.59375 27.390625 64.59375 
Q 21.34375 64.59375 17.71875 59.46875 
Q 13.1875 52.9375 13.1875 35.296875 
z
" id="ArialMT-30"/>
      </defs>
      <g transform="translate(52.447891 248.765156)scale(0.13 -0.13)">
       <use xlink:href="#ArialMT-30"/>
      </g>
     </g>
    </g>
    <g id="xtick_2">
     <g id="line2d_2">
      <g>
       <use style="stroke:#000000;stroke-width:0.8;" x="123.0225" xlink:href="#me3dd8e33e4" y="232.46"/>
      </g>
     </g>
     <g id="text_2">
      <!-- 100 -->
      <defs>
       <path d="M 37.25 0 
L 28.46875 0 
L 28.46875 56 
Q 25.296875 52.984375 20.140625 49.953125 
Q 14.984375 46.921875 10.890625 45.40625 
L 10.890625 53.90625 
Q 18.265625 57.375 23.78125 62.296875 
Q 29.296875 67.234375 31.59375 71.875 
L 37.25 71.875 
z
" id="ArialMT-31"/>
      </defs>
      <g transform="translate(112.178672 248.765156)scale(0.13 -0.13)">
       <use xlink:href="#ArialMT-31"/>
       <use x="55.615234" xlink:href="#ArialMT-30"/>
       <use x="111.230469" xlink:href="#ArialMT-30"/>
      </g>
     </g>
    </g>
    <g id="xtick_3">
     <g id="line2d_3">
      <g>
       <use style="stroke:#000000;stroke-width:0.8;" x="189.9825" xlink:href="#me3dd8e33e4" y="232.46"/>
      </g>
     </g>
     <g id="text_3">
      <!-- 200 -->
      <defs>
       <path d="M 50.34375 8.453125 
L 50.34375 0 
L 3.03125 0 
Q 2.9375 3.171875 4.046875 6.109375 
Q 5.859375 10.9375 9.828125 15.625 
Q 13.8125 20.3125 21.34375 26.46875 
Q 33.015625 36.03125 37.109375 41.625 
Q 41.21875 47.21875 41.21875 52.203125 
Q 41.21875 57.421875 37.46875 61 
Q 33.734375 64.59375 27.734375 64.59375 
Q 21.390625 64.59375 17.578125 60.78125 
Q 13.765625 56.984375 13.71875 50.25 
L 4.6875 51.171875 
Q 5.609375 61.28125 11.65625 66.578125 
Q 17.71875 71.875 27.9375 71.875 
Q 38.234375 71.875 44.234375 66.15625 
Q 50.25 60.453125 50.25 52 
Q 50.25 47.703125 48.484375 43.546875 
Q 46.734375 39.40625 42.65625 34.8125 
Q 38.578125 30.21875 29.109375 22.21875 
Q 21.1875 15.578125 18.9375 13.203125 
Q 16.703125 10.84375 15.234375 8.453125 
z
" id="ArialMT-32"/>
      </defs>
      <g transform="translate(179.138672 248.765156)scale(0.13 -0.13)">
       <use xlink:href="#ArialMT-32"/>
       <use x="55.615234" xlink:href="#ArialMT-30"/>
       <use x="111.230469" xlink:href="#ArialMT-30"/>
      </g>
     </g>
    </g>
    <g id="xtick_4">
     <g id="line2d_4">
      <g>
       <use style="stroke:#000000;stroke-width:0.8;" x="256.9425" xlink:href="#me3dd8e33e4" y="232.46"/>
      </g>
     </g>
     <g id="text_4">
      <!-- 300 -->
      <defs>
       <path d="M 4.203125 18.890625 
L 12.984375 20.0625 
Q 14.5 12.59375 18.140625 9.296875 
Q 21.78125 6 27 6 
Q 33.203125 6 37.46875 10.296875 
Q 41.75 14.59375 41.75 20.953125 
Q 41.75 27 37.796875 30.921875 
Q 33.84375 34.859375 27.734375 34.859375 
Q 25.25 34.859375 21.53125 33.890625 
L 22.515625 41.609375 
Q 23.390625 41.5 23.921875 41.5 
Q 29.546875 41.5 34.03125 44.421875 
Q 38.53125 47.359375 38.53125 53.46875 
Q 38.53125 58.296875 35.25 61.46875 
Q 31.984375 64.65625 26.8125 64.65625 
Q 21.6875 64.65625 18.265625 61.421875 
Q 14.84375 58.203125 13.875 51.765625 
L 5.078125 53.328125 
Q 6.6875 62.15625 12.390625 67.015625 
Q 18.109375 71.875 26.609375 71.875 
Q 32.46875 71.875 37.390625 69.359375 
Q 42.328125 66.84375 44.9375 62.5 
Q 47.5625 58.15625 47.5625 53.265625 
Q 47.5625 48.640625 45.0625 44.828125 
Q 42.578125 41.015625 37.703125 38.765625 
Q 44.046875 37.3125 47.5625 32.6875 
Q 51.078125 28.078125 51.078125 21.140625 
Q 51.078125 11.765625 44.234375 5.25 
Q 37.40625 -1.265625 26.953125 -1.265625 
Q 17.53125 -1.265625 11.296875 4.34375 
Q 5.078125 9.96875 4.203125 18.890625 
z
" id="ArialMT-33"/>
      </defs>
      <g transform="translate(246.098672 248.765156)scale(0.13 -0.13)">
       <use xlink:href="#ArialMT-33"/>
       <use x="55.615234" xlink:href="#ArialMT-30"/>
       <use x="111.230469" xlink:href="#ArialMT-30"/>
      </g>
     </g>
    </g>
    <g id="xtick_5">
     <g id="line2d_5">
      <g>
       <use style="stroke:#000000;stroke-width:0.8;" x="323.9025" xlink:href="#me3dd8e33e4" y="232.46"/>
      </g>
     </g>
     <g id="text_5">
      <!-- 400 -->
      <defs>
       <path d="M 32.328125 0 
L 32.328125 17.140625 
L 1.265625 17.140625 
L 1.265625 25.203125 
L 33.9375 71.578125 
L 41.109375 71.578125 
L 41.109375 25.203125 
L 50.78125 25.203125 
L 50.78125 17.140625 
L 41.109375 17.140625 
L 41.109375 0 
z
M 32.328125 25.203125 
L 32.328125 57.46875 
L 9.90625 25.203125 
z
" id="ArialMT-34"/>
      </defs>
      <g transform="translate(313.058672 248.765156)scale(0.13 -0.13)">
       <use xlink:href="#ArialMT-34"/>
       <use x="55.615234" xlink:href="#ArialMT-30"/>
       <use x="111.230469" xlink:href="#ArialMT-30"/>
      </g>
     </g>
    </g>
    <g id="xtick_6">
     <g id="line2d_6">
      <g>
       <use style="stroke:#000000;stroke-width:0.8;" x="390.8625" xlink:href="#me3dd8e33e4" y="232.46"/>
      </g>
     </g>
     <g id="text_6">
      <!-- 500 -->
      <defs>
       <path d="M 4.15625 18.75 
L 13.375 19.53125 
Q 14.40625 12.796875 18.140625 9.390625 
Q 21.875 6 27.15625 6 
Q 33.5 6 37.890625 10.78125 
Q 42.28125 15.578125 42.28125 23.484375 
Q 42.28125 31 38.0625 35.34375 
Q 33.84375 39.703125 27 39.703125 
Q 22.75 39.703125 19.328125 37.765625 
Q 15.921875 35.84375 13.96875 32.765625 
L 5.71875 33.84375 
L 12.640625 70.609375 
L 48.25 70.609375 
L 48.25 62.203125 
L 19.671875 62.203125 
L 15.828125 42.96875 
Q 22.265625 47.46875 29.34375 47.46875 
Q 38.71875 47.46875 45.15625 40.96875 
Q 51.609375 34.46875 51.609375 24.265625 
Q 51.609375 14.546875 45.953125 7.46875 
Q 39.0625 -1.21875 27.15625 -1.21875 
Q 17.390625 -1.21875 11.203125 4.25 
Q 5.03125 9.71875 4.15625 18.75 
z
" id="ArialMT-35"/>
      </defs>
      <g transform="translate(380.018672 248.765156)scale(0.13 -0.13)">
       <use xlink:href="#ArialMT-35"/>
       <use x="55.615234" xlink:href="#ArialMT-30"/>
       <use x="111.230469" xlink:href="#ArialMT-30"/>
      </g>
     </g>
    </g>
    <g id="text_7">
     <!-- Temperatura de partição (°C) -->
     <defs>
      <path d="M 25.921875 0 
L 25.921875 63.140625 
L 2.34375 63.140625 
L 2.34375 71.578125 
L 59.078125 71.578125 
L 59.078125 63.140625 
L 35.40625 63.140625 
L 35.40625 0 
z
" id="ArialMT-54"/>
      <path d="M 42.09375 16.703125 
L 51.171875 15.578125 
Q 49.03125 7.625 43.21875 3.21875 
Q 37.40625 -1.171875 28.375 -1.171875 
Q 17 -1.171875 10.328125 5.828125 
Q 3.65625 12.84375 3.65625 25.484375 
Q 3.65625 38.578125 10.390625 45.796875 
Q 17.140625 53.03125 27.875 53.03125 
Q 38.28125 53.03125 44.875 45.953125 
Q 51.46875 38.875 51.46875 26.03125 
Q 51.46875 25.25 51.421875 23.6875 
L 12.75 23.6875 
Q 13.234375 15.140625 17.578125 10.59375 
Q 21.921875 6.0625 28.421875 6.0625 
Q 33.25 6.0625 36.671875 8.59375 
Q 40.09375 11.140625 42.09375 16.703125 
z
M 13.234375 30.90625 
L 42.1875 30.90625 
Q 41.609375 37.453125 38.875 40.71875 
Q 34.671875 45.796875 27.984375 45.796875 
Q 21.921875 45.796875 17.796875 41.75 
Q 13.671875 37.703125 13.234375 30.90625 
z
" id="ArialMT-65"/>
      <path d="M 6.59375 0 
L 6.59375 51.859375 
L 14.453125 51.859375 
L 14.453125 44.578125 
Q 16.890625 48.390625 20.9375 50.703125 
Q 25 53.03125 30.171875 53.03125 
Q 35.9375 53.03125 39.625 50.640625 
Q 43.3125 48.25 44.828125 43.953125 
Q 50.984375 53.03125 60.84375 53.03125 
Q 68.5625 53.03125 72.703125 48.75 
Q 76.859375 44.484375 76.859375 35.59375 
L 76.859375 0 
L 68.109375 0 
L 68.109375 32.671875 
Q 68.109375 37.9375 67.25 40.25 
Q 66.40625 42.578125 64.15625 43.984375 
Q 61.921875 45.40625 58.890625 45.40625 
Q 53.421875 45.40625 49.796875 41.765625 
Q 46.1875 38.140625 46.1875 30.125 
L 46.1875 0 
L 37.40625 0 
L 37.40625 33.6875 
Q 37.40625 39.546875 35.25 42.46875 
Q 33.109375 45.40625 28.21875 45.40625 
Q 24.515625 45.40625 21.359375 43.453125 
Q 18.21875 41.5 16.796875 37.734375 
Q 15.375 33.984375 15.375 26.90625 
L 15.375 0 
z
" id="ArialMT-6d"/>
      <path d="M 6.59375 -19.875 
L 6.59375 51.859375 
L 14.59375 51.859375 
L 14.59375 45.125 
Q 17.4375 49.078125 21 51.046875 
Q 24.5625 53.03125 29.640625 53.03125 
Q 36.28125 53.03125 41.359375 49.609375 
Q 46.4375 46.1875 49.015625 39.953125 
Q 51.609375 33.734375 51.609375 26.3125 
Q 51.609375 18.359375 48.75 11.984375 
Q 45.90625 5.609375 40.453125 2.21875 
Q 35.015625 -1.171875 29 -1.171875 
Q 24.609375 -1.171875 21.109375 0.6875 
Q 17.625 2.546875 15.375 5.375 
L 15.375 -19.875 
z
M 14.546875 25.640625 
Q 14.546875 15.625 18.59375 10.84375 
Q 22.65625 6.0625 28.421875 6.0625 
Q 34.28125 6.0625 38.453125 11.015625 
Q 42.625 15.96875 42.625 26.375 
Q 42.625 36.28125 38.546875 41.203125 
Q 34.46875 46.140625 28.8125 46.140625 
Q 23.1875 46.140625 18.859375 40.890625 
Q 14.546875 35.640625 14.546875 25.640625 
z
" id="ArialMT-70"/>
      <path d="M 6.5 0 
L 6.5 51.859375 
L 14.40625 51.859375 
L 14.40625 44 
Q 17.4375 49.515625 20 51.265625 
Q 22.5625 53.03125 25.640625 53.03125 
Q 30.078125 53.03125 34.671875 50.203125 
L 31.640625 42.046875 
Q 28.421875 43.953125 25.203125 43.953125 
Q 22.3125 43.953125 20.015625 42.21875 
Q 17.71875 40.484375 16.75 37.40625 
Q 15.28125 32.71875 15.28125 27.15625 
L 15.28125 0 
z
" id="ArialMT-72"/>
      <path d="M 40.4375 6.390625 
Q 35.546875 2.25 31.03125 0.53125 
Q 26.515625 -1.171875 21.34375 -1.171875 
Q 12.796875 -1.171875 8.203125 3 
Q 3.609375 7.171875 3.609375 13.671875 
Q 3.609375 17.484375 5.34375 20.625 
Q 7.078125 23.78125 9.890625 25.6875 
Q 12.703125 27.59375 16.21875 28.5625 
Q 18.796875 29.25 24.03125 29.890625 
Q 34.671875 31.15625 39.703125 32.90625 
Q 39.75 34.71875 39.75 35.203125 
Q 39.75 40.578125 37.25 42.78125 
Q 33.890625 45.75 27.25 45.75 
Q 21.046875 45.75 18.09375 43.578125 
Q 15.140625 41.40625 13.71875 35.890625 
L 5.125 37.0625 
Q 6.296875 42.578125 8.984375 45.96875 
Q 11.671875 49.359375 16.75 51.1875 
Q 21.828125 53.03125 28.515625 53.03125 
Q 35.15625 53.03125 39.296875 51.46875 
Q 43.453125 49.90625 45.40625 47.53125 
Q 47.359375 45.171875 48.140625 41.546875 
Q 48.578125 39.3125 48.578125 33.453125 
L 48.578125 21.734375 
Q 48.578125 9.46875 49.140625 6.21875 
Q 49.703125 2.984375 51.375 0 
L 42.1875 0 
Q 40.828125 2.734375 40.4375 6.390625 
z
M 39.703125 26.03125 
Q 34.90625 24.078125 25.34375 22.703125 
Q 19.921875 21.921875 17.671875 20.9375 
Q 15.4375 19.96875 14.203125 18.09375 
Q 12.984375 16.21875 12.984375 13.921875 
Q 12.984375 10.40625 15.640625 8.0625 
Q 18.3125 5.71875 23.4375 5.71875 
Q 28.515625 5.71875 32.46875 7.9375 
Q 36.421875 10.15625 38.28125 14.015625 
Q 39.703125 17 39.703125 22.796875 
z
" id="ArialMT-61"/>
      <path d="M 25.78125 7.859375 
L 27.046875 0.09375 
Q 23.34375 -0.6875 20.40625 -0.6875 
Q 15.625 -0.6875 12.984375 0.828125 
Q 10.359375 2.34375 9.28125 4.8125 
Q 8.203125 7.28125 8.203125 15.1875 
L 8.203125 45.015625 
L 1.765625 45.015625 
L 1.765625 51.859375 
L 8.203125 51.859375 
L 8.203125 64.703125 
L 16.9375 69.96875 
L 16.9375 51.859375 
L 25.78125 51.859375 
L 25.78125 45.015625 
L 16.9375 45.015625 
L 16.9375 14.703125 
Q 16.9375 10.9375 17.40625 9.859375 
Q 17.875 8.796875 18.921875 8.15625 
Q 19.96875 7.515625 21.921875 7.515625 
Q 23.390625 7.515625 25.78125 7.859375 
z
" id="ArialMT-74"/>
      <path d="M 40.578125 0 
L 40.578125 7.625 
Q 34.515625 -1.171875 24.125 -1.171875 
Q 19.53125 -1.171875 15.546875 0.578125 
Q 11.578125 2.34375 9.640625 5 
Q 7.71875 7.671875 6.9375 11.53125 
Q 6.390625 14.109375 6.390625 19.734375 
L 6.390625 51.859375 
L 15.1875 51.859375 
L 15.1875 23.09375 
Q 15.1875 16.21875 15.71875 13.8125 
Q 16.546875 10.359375 19.234375 8.375 
Q 21.921875 6.390625 25.875 6.390625 
Q 29.828125 6.390625 33.296875 8.421875 
Q 36.765625 10.453125 38.203125 13.9375 
Q 39.65625 17.4375 39.65625 24.078125 
L 39.65625 51.859375 
L 48.4375 51.859375 
L 48.4375 0 
z
" id="ArialMT-75"/>
      <path id="ArialMT-20"/>
      <path d="M 40.234375 0 
L 40.234375 6.546875 
Q 35.296875 -1.171875 25.734375 -1.171875 
Q 19.53125 -1.171875 14.328125 2.25 
Q 9.125 5.671875 6.265625 11.796875 
Q 3.421875 17.921875 3.421875 25.875 
Q 3.421875 33.640625 6 39.96875 
Q 8.59375 46.296875 13.765625 49.65625 
Q 18.953125 53.03125 25.34375 53.03125 
Q 30.03125 53.03125 33.6875 51.046875 
Q 37.359375 49.078125 39.65625 45.90625 
L 39.65625 71.578125 
L 48.390625 71.578125 
L 48.390625 0 
z
M 12.453125 25.875 
Q 12.453125 15.921875 16.640625 10.984375 
Q 20.84375 6.0625 26.5625 6.0625 
Q 32.328125 6.0625 36.34375 10.765625 
Q 40.375 15.484375 40.375 25.140625 
Q 40.375 35.796875 36.265625 40.765625 
Q 32.171875 45.75 26.171875 45.75 
Q 20.3125 45.75 16.375 40.96875 
Q 12.453125 36.1875 12.453125 25.875 
z
" id="ArialMT-64"/>
      <path d="M 6.640625 61.46875 
L 6.640625 71.578125 
L 15.4375 71.578125 
L 15.4375 61.46875 
z
M 6.640625 0 
L 6.640625 51.859375 
L 15.4375 51.859375 
L 15.4375 0 
z
" id="ArialMT-69"/>
      <path d="M 40.4375 19 
L 49.078125 17.875 
Q 47.65625 8.9375 41.8125 3.875 
Q 35.984375 -1.171875 27.484375 -1.171875 
Q 16.84375 -1.171875 10.375 5.78125 
Q 3.90625 12.75 3.90625 25.734375 
Q 3.90625 34.125 6.6875 40.421875 
Q 9.46875 46.734375 15.15625 49.875 
Q 20.84375 53.03125 27.546875 53.03125 
Q 35.984375 53.03125 41.359375 48.75 
Q 46.734375 44.484375 48.25 36.625 
L 39.703125 35.296875 
Q 38.484375 40.53125 35.375 43.15625 
Q 32.28125 45.796875 27.875 45.796875 
Q 21.234375 45.796875 17.078125 41.03125 
Q 12.9375 36.28125 12.9375 25.984375 
Q 12.9375 15.53125 16.9375 10.796875 
Q 20.953125 6.0625 27.390625 6.0625 
Q 32.5625 6.0625 36.03125 9.234375 
Q 39.5 12.40625 40.4375 19 
z
M 20.046875 -6.515625 
L 22.59375 2.125 
L 29.125 2.125 
L 27.515625 -3.109375 
Q 31.671875 -3.59375 33.765625 -5.65625 
Q 35.875 -7.734375 35.875 -10.28125 
Q 35.875 -13.9375 32.359375 -16.75 
Q 28.84375 -19.5625 21.75 -19.5625 
Q 17.75 -19.5625 14.71875 -18.96875 
L 15.265625 -13.265625 
Q 18.390625 -13.453125 19.859375 -13.453125 
Q 24.4375 -13.453125 26.296875 -12.1875 
Q 27.71875 -11.203125 27.71875 -9.796875 
Q 27.71875 -8.90625 27.15625 -8.21875 
Q 26.59375 -7.546875 25.078125 -7.046875 
Q 23.5625 -6.5625 20.046875 -6.515625 
z
" id="ArialMT-e7"/>
      <path d="M 40.4375 6.390625 
Q 35.546875 2.25 31.03125 0.53125 
Q 26.515625 -1.171875 21.34375 -1.171875 
Q 12.796875 -1.171875 8.203125 3 
Q 3.609375 7.171875 3.609375 13.671875 
Q 3.609375 17.484375 5.34375 20.625 
Q 7.078125 23.78125 9.890625 25.6875 
Q 12.703125 27.59375 16.21875 28.5625 
Q 18.796875 29.25 24.03125 29.890625 
Q 34.671875 31.15625 39.703125 32.90625 
Q 39.75 34.71875 39.75 35.203125 
Q 39.75 40.578125 37.25 42.78125 
Q 33.890625 45.75 27.25 45.75 
Q 21.046875 45.75 18.09375 43.578125 
Q 15.140625 41.40625 13.71875 35.890625 
L 5.125 37.0625 
Q 6.296875 42.578125 8.984375 45.96875 
Q 11.671875 49.359375 16.75 51.1875 
Q 21.828125 53.03125 28.515625 53.03125 
Q 35.15625 53.03125 39.296875 51.46875 
Q 43.453125 49.90625 45.40625 47.53125 
Q 47.359375 45.171875 48.140625 41.546875 
Q 48.578125 39.3125 48.578125 33.453125 
L 48.578125 21.734375 
Q 48.578125 9.46875 49.140625 6.21875 
Q 49.703125 2.984375 51.375 0 
L 42.1875 0 
Q 40.828125 2.734375 40.4375 6.390625 
z
M 39.703125 26.03125 
Q 34.90625 24.078125 25.34375 22.703125 
Q 19.921875 21.921875 17.671875 20.9375 
Q 15.4375 19.96875 14.203125 18.09375 
Q 12.984375 16.21875 12.984375 13.921875 
Q 12.984375 10.40625 15.640625 8.0625 
Q 18.3125 5.71875 23.4375 5.71875 
Q 28.515625 5.71875 32.46875 7.9375 
Q 36.421875 10.15625 38.28125 14.015625 
Q 39.703125 17 39.703125 22.796875 
z
M 11.21875 59.515625 
Q 11.171875 64.59375 14 67.625 
Q 16.78125 70.65625 21.125 70.65625 
Q 24.15625 70.65625 29.375 68.015625 
Q 32.265625 66.546875 33.96875 66.546875 
Q 35.53125 66.546875 36.359375 67.40625 
Q 37.1875 68.265625 37.53125 70.796875 
L 43.890625 70.796875 
Q 43.734375 65.234375 41.078125 62.453125 
Q 38.421875 59.671875 34.3125 59.671875 
Q 31.234375 59.671875 26.203125 62.40625 
Q 22.9375 64.15625 21.421875 64.15625 
Q 19.765625 64.15625 18.734375 62.984375 
Q 17.65625 61.8125 17.71875 59.515625 
z
" id="ArialMT-e3"/>
      <path d="M 3.328125 25.921875 
Q 3.328125 40.328125 11.328125 47.265625 
Q 18.015625 53.03125 27.640625 53.03125 
Q 38.328125 53.03125 45.109375 46.015625 
Q 51.90625 39.015625 51.90625 26.65625 
Q 51.90625 16.65625 48.90625 10.90625 
Q 45.90625 5.171875 40.15625 2 
Q 34.421875 -1.171875 27.640625 -1.171875 
Q 16.75 -1.171875 10.03125 5.8125 
Q 3.328125 12.796875 3.328125 25.921875 
z
M 12.359375 25.921875 
Q 12.359375 15.96875 16.703125 11.015625 
Q 21.046875 6.0625 27.640625 6.0625 
Q 34.1875 6.0625 38.53125 11.03125 
Q 42.875 16.015625 42.875 26.21875 
Q 42.875 35.84375 38.5 40.796875 
Q 34.125 45.75 27.640625 45.75 
Q 21.046875 45.75 16.703125 40.8125 
Q 12.359375 35.890625 12.359375 25.921875 
z
" id="ArialMT-6f"/>
      <path d="M 23.390625 -21.046875 
Q 16.109375 -11.859375 11.078125 0.4375 
Q 6.0625 12.75 6.0625 25.921875 
Q 6.0625 37.546875 9.8125 48.1875 
Q 14.203125 60.546875 23.390625 72.796875 
L 29.6875 72.796875 
Q 23.78125 62.640625 21.875 58.296875 
Q 18.890625 51.5625 17.1875 44.234375 
Q 15.09375 35.109375 15.09375 25.875 
Q 15.09375 2.390625 29.6875 -21.046875 
z
" id="ArialMT-28"/>
      <path d="M 6.25 59.28125 
Q 6.25 64.890625 10.21875 68.84375 
Q 14.203125 72.796875 19.78125 72.796875 
Q 25.4375 72.796875 29.390625 68.84375 
Q 33.34375 64.890625 33.34375 59.28125 
Q 33.34375 53.65625 29.359375 49.671875 
Q 25.390625 45.703125 19.78125 45.703125 
Q 14.203125 45.703125 10.21875 49.65625 
Q 6.25 53.609375 6.25 59.28125 
z
M 11.578125 59.28125 
Q 11.578125 55.859375 13.984375 53.4375 
Q 16.40625 51.03125 19.828125 51.03125 
Q 23.1875 51.03125 25.609375 53.4375 
Q 28.03125 55.859375 28.03125 59.28125 
Q 28.03125 62.703125 25.609375 65.109375 
Q 23.1875 67.53125 19.828125 67.53125 
Q 16.40625 67.53125 13.984375 65.109375 
Q 11.578125 62.703125 11.578125 59.28125 
z
" id="ArialMT-b0"/>
      <path d="M 58.796875 25.09375 
L 68.265625 22.703125 
Q 65.28125 11.03125 57.546875 4.90625 
Q 49.8125 -1.21875 38.625 -1.21875 
Q 27.046875 -1.21875 19.796875 3.484375 
Q 12.546875 8.203125 8.765625 17.140625 
Q 4.984375 26.078125 4.984375 36.328125 
Q 4.984375 47.515625 9.25 55.828125 
Q 13.53125 64.15625 21.40625 68.46875 
Q 29.296875 72.796875 38.765625 72.796875 
Q 49.515625 72.796875 56.828125 67.328125 
Q 64.15625 61.859375 67.046875 51.953125 
L 57.71875 49.75 
Q 55.21875 57.5625 50.484375 61.125 
Q 45.75 64.703125 38.578125 64.703125 
Q 30.328125 64.703125 24.78125 60.734375 
Q 19.234375 56.78125 16.984375 50.109375 
Q 14.75 43.453125 14.75 36.375 
Q 14.75 27.25 17.40625 20.4375 
Q 20.0625 13.625 25.671875 10.25 
Q 31.296875 6.890625 37.84375 6.890625 
Q 45.796875 6.890625 51.3125 11.46875 
Q 56.84375 16.0625 58.796875 25.09375 
z
" id="ArialMT-43"/>
      <path d="M 12.359375 -21.046875 
L 6.0625 -21.046875 
Q 20.65625 2.390625 20.65625 25.875 
Q 20.65625 35.0625 18.5625 44.09375 
Q 16.890625 51.421875 13.921875 58.15625 
Q 12.015625 62.546875 6.0625 72.796875 
L 12.359375 72.796875 
Q 21.53125 60.546875 25.921875 48.1875 
Q 29.6875 37.546875 29.6875 25.921875 
Q 29.6875 12.75 24.625 0.4375 
Q 19.578125 -11.859375 12.359375 -21.046875 
z
" id="ArialMT-29"/>
     </defs>
     <g transform="translate(138.876172 264.8125)scale(0.13 -0.13)">
      <use xlink:href="#ArialMT-54"/>
      <use x="60.912109" xlink:href="#ArialMT-65"/>
      <use x="116.527344" xlink:href="#ArialMT-6d"/>
      <use x="199.828125" xlink:href="#ArialMT-70"/>
      <use x="255.443359" xlink:href="#ArialMT-65"/>
      <use x="311.058594" xlink:href="#ArialMT-72"/>
      <use x="344.359375" xlink:href="#ArialMT-61"/>
      <use x="399.974609" xlink:href="#ArialMT-74"/>
      <use x="427.757812" xlink:href="#ArialMT-75"/>
      <use x="483.373047" xlink:href="#ArialMT-72"/>
      <use x="516.673828" xlink:href="#ArialMT-61"/>
      <use x="572.289062" xlink:href="#ArialMT-20"/>
      <use x="600.072266" xlink:href="#ArialMT-64"/>
      <use x="655.6875" xlink:href="#ArialMT-65"/>
      <use x="711.302734" xlink:href="#ArialMT-20"/>
      <use x="739.085938" xlink:href="#ArialMT-70"/>
      <use x="794.701172" xlink:href="#ArialMT-61"/>
      <use x="850.316406" xlink:href="#ArialMT-72"/>
      <use x="883.617188" xlink:href="#ArialMT-74"/>
      <use x="911.400391" xlink:href="#ArialMT-69"/>
      <use x="933.617188" xlink:href="#ArialMT-e7"/>
      <use x="983.617188" xlink:href="#ArialMT-e3"/>
      <use x="1039.232422" xlink:href="#ArialMT-6f"/>
      <use x="1094.847656" xlink:href="#ArialMT-20"/>
      <use x="1122.630859" xlink:href="#ArialMT-28"/>
      <use x="1155.931641" xlink:href="#ArialMT-b0"/>
      <use x="1195.921875" xlink:href="#ArialMT-43"/>
      <use x="1268.138672" xlink:href="#ArialMT-29"/>
     </g>
    </g>
   </g>
   <g id="matplotlib.axis_2">
    <g id="ytick_1">
     <g id="line2d_7">
      <defs>
       <path d="M 0 0 
L -3.5 0 
" id="m7e26f4027c" style="stroke:#000000;stroke-width:0.8;"/>
      </defs>
      <g>
       <use style="stroke:#000000;stroke-width:0.8;" x="56.0625" xlink:href="#m7e26f4027c" y="213.98"/>
      </g>
     </g>
     <g id="text_8">
      <!-- −0.2 -->
      <defs>
       <path d="M 52.828125 31.203125 
L 5.5625 31.203125 
L 5.5625 39.40625 
L 52.828125 39.40625 
z
" id="ArialMT-2212"/>
       <path d="M 9.078125 0 
L 9.078125 10.015625 
L 19.09375 10.015625 
L 19.09375 0 
z
" id="ArialMT-2e"/>
      </defs>
      <g transform="translate(23.399688 218.632578)scale(0.13 -0.13)">
       <use xlink:href="#ArialMT-2212"/>
       <use x="58.398438" xlink:href="#ArialMT-30"/>
       <use x="114.013672" xlink:href="#ArialMT-2e"/>
       <use x="141.796875" xlink:href="#ArialMT-32"/>
      </g>
     </g>
    </g>
    <g id="ytick_2">
     <g id="line2d_8">
      <g>
       <use style="stroke:#000000;stroke-width:0.8;" x="56.0625" xlink:href="#m7e26f4027c" y="177.02"/>
      </g>
     </g>
     <g id="text_9">
      <!-- 0.0 -->
      <g transform="translate(30.9925 181.672578)scale(0.13 -0.13)">
       <use xlink:href="#ArialMT-30"/>
       <use x="55.615234" xlink:href="#ArialMT-2e"/>
       <use x="83.398438" xlink:href="#ArialMT-30"/>
      </g>
     </g>
    </g>
    <g id="ytick_3">
     <g id="line2d_9">
      <g>
       <use style="stroke:#000000;stroke-width:0.8;" x="56.0625" xlink:href="#m7e26f4027c" y="140.06"/>
      </g>
     </g>
     <g id="text_10">
      <!-- 0.2 -->
      <g transform="translate(30.9925 144.712578)scale(0.13 -0.13)">
       <use xlink:href="#ArialMT-30"/>
       <use x="55.615234" xlink:href="#ArialMT-2e"/>
       <use x="83.398438" xlink:href="#ArialMT-32"/>
      </g>
     </g>
    </g>
    <g id="ytick_4">
     <g id="line2d_10">
      <g>
       <use style="stroke:#000000;stroke-width:0.8;" x="56.0625" xlink:href="#m7e26f4027c" y="103.1"/>
      </g>
     </g>
     <g id="text_11">
      <!-- 0.4 -->
      <g transform="translate(30.9925 107.752578)scale(0.13 -0.13)">
       <use xlink:href="#ArialMT-30"/>
       <use x="55.615234" xlink:href="#ArialMT-2e"/>
       <use x="83.398438" xlink:href="#ArialMT-34"/>
      </g>
     </g>
    </g>
    <g id="ytick_5">
     <g id="line2d_11">
      <g>
       <use style="stroke:#000000;stroke-width:0.8;" x="56.0625" xlink:href="#m7e26f4027c" y="66.14"/>
      </g>
     </g>
     <g id="text_12">
      <!-- 0.6 -->
      <defs>
       <path d="M 49.75 54.046875 
L 41.015625 53.375 
Q 39.84375 58.546875 37.703125 60.890625 
Q 34.125 64.65625 28.90625 64.65625 
Q 24.703125 64.65625 21.53125 62.3125 
Q 17.390625 59.28125 14.984375 53.46875 
Q 12.59375 47.65625 12.5 36.921875 
Q 15.671875 41.75 20.265625 44.09375 
Q 24.859375 46.4375 29.890625 46.4375 
Q 38.671875 46.4375 44.84375 39.96875 
Q 51.03125 33.5 51.03125 23.25 
Q 51.03125 16.5 48.125 10.71875 
Q 45.21875 4.9375 40.140625 1.859375 
Q 35.0625 -1.21875 28.609375 -1.21875 
Q 17.625 -1.21875 10.6875 6.859375 
Q 3.765625 14.9375 3.765625 33.5 
Q 3.765625 54.25 11.421875 63.671875 
Q 18.109375 71.875 29.4375 71.875 
Q 37.890625 71.875 43.28125 67.140625 
Q 48.6875 62.40625 49.75 54.046875 
z
M 13.875 23.1875 
Q 13.875 18.65625 15.796875 14.5 
Q 17.71875 10.359375 21.1875 8.171875 
Q 24.65625 6 28.46875 6 
Q 34.03125 6 38.03125 10.484375 
Q 42.046875 14.984375 42.046875 22.703125 
Q 42.046875 30.125 38.078125 34.390625 
Q 34.125 38.671875 28.125 38.671875 
Q 22.171875 38.671875 18.015625 34.390625 
Q 13.875 30.125 13.875 23.1875 
z
" id="ArialMT-36"/>
      </defs>
      <g transform="translate(30.9925 70.792578)scale(0.13 -0.13)">
       <use xlink:href="#ArialMT-30"/>
       <use x="55.615234" xlink:href="#ArialMT-2e"/>
       <use x="83.398438" xlink:href="#ArialMT-36"/>
      </g>
     </g>
    </g>
    <g id="ytick_6">
     <g id="line2d_12">
      <g>
       <use style="stroke:#000000;stroke-width:0.8;" x="56.0625" xlink:href="#m7e26f4027c" y="29.18"/>
      </g>
     </g>
     <g id="text_13">
      <!-- 0.8 -->
      <defs>
       <path d="M 17.671875 38.8125 
Q 12.203125 40.828125 9.5625 44.53125 
Q 6.9375 48.25 6.9375 53.421875 
Q 6.9375 61.234375 12.546875 66.546875 
Q 18.171875 71.875 27.484375 71.875 
Q 36.859375 71.875 42.578125 66.421875 
Q 48.296875 60.984375 48.296875 53.171875 
Q 48.296875 48.1875 45.671875 44.5 
Q 43.0625 40.828125 37.75 38.8125 
Q 44.34375 36.671875 47.78125 31.875 
Q 51.21875 27.09375 51.21875 20.453125 
Q 51.21875 11.28125 44.71875 5.03125 
Q 38.234375 -1.21875 27.640625 -1.21875 
Q 17.046875 -1.21875 10.546875 5.046875 
Q 4.046875 11.328125 4.046875 20.703125 
Q 4.046875 27.6875 7.59375 32.390625 
Q 11.140625 37.109375 17.671875 38.8125 
z
M 15.921875 53.71875 
Q 15.921875 48.640625 19.1875 45.40625 
Q 22.46875 42.1875 27.6875 42.1875 
Q 32.765625 42.1875 36.015625 45.375 
Q 39.265625 48.578125 39.265625 53.21875 
Q 39.265625 58.0625 35.90625 61.359375 
Q 32.5625 64.65625 27.59375 64.65625 
Q 22.5625 64.65625 19.234375 61.421875 
Q 15.921875 58.203125 15.921875 53.71875 
z
M 13.09375 20.65625 
Q 13.09375 16.890625 14.875 13.375 
Q 16.65625 9.859375 20.171875 7.921875 
Q 23.6875 6 27.734375 6 
Q 34.03125 6 38.125 10.046875 
Q 42.234375 14.109375 42.234375 20.359375 
Q 42.234375 26.703125 38.015625 30.859375 
Q 33.796875 35.015625 27.4375 35.015625 
Q 21.234375 35.015625 17.15625 30.90625 
Q 13.09375 26.8125 13.09375 20.65625 
z
" id="ArialMT-38"/>
      </defs>
      <g transform="translate(30.9925 33.832578)scale(0.13 -0.13)">
       <use xlink:href="#ArialMT-30"/>
       <use x="55.615234" xlink:href="#ArialMT-2e"/>
       <use x="83.398438" xlink:href="#ArialMT-38"/>
      </g>
     </g>
    </g>
    <g id="text_14">
     <!-- Dilatação relativa (%) -->
     <defs>
      <path d="M 7.71875 0 
L 7.71875 71.578125 
L 32.375 71.578125 
Q 40.71875 71.578125 45.125 70.5625 
Q 51.265625 69.140625 55.609375 65.4375 
Q 61.28125 60.640625 64.078125 53.1875 
Q 66.890625 45.75 66.890625 36.1875 
Q 66.890625 28.03125 64.984375 21.734375 
Q 63.09375 15.4375 60.109375 11.296875 
Q 57.125 7.171875 53.578125 4.796875 
Q 50.046875 2.4375 45.046875 1.21875 
Q 40.046875 0 33.546875 0 
z
M 17.1875 8.453125 
L 32.46875 8.453125 
Q 39.546875 8.453125 43.578125 9.765625 
Q 47.609375 11.078125 50 13.484375 
Q 53.375 16.84375 55.25 22.53125 
Q 57.125 28.21875 57.125 36.328125 
Q 57.125 47.5625 53.4375 53.59375 
Q 49.75 59.625 44.484375 61.671875 
Q 40.671875 63.140625 32.234375 63.140625 
L 17.1875 63.140625 
z
" id="ArialMT-44"/>
      <path d="M 6.390625 0 
L 6.390625 71.578125 
L 15.1875 71.578125 
L 15.1875 0 
z
" id="ArialMT-6c"/>
      <path d="M 21 0 
L 1.265625 51.859375 
L 10.546875 51.859375 
L 21.6875 20.796875 
Q 23.484375 15.765625 25 10.359375 
Q 26.171875 14.453125 28.265625 20.21875 
L 39.796875 51.859375 
L 48.828125 51.859375 
L 29.203125 0 
z
" id="ArialMT-76"/>
      <path d="M 5.8125 54.390625 
Q 5.8125 62.0625 9.671875 67.421875 
Q 13.53125 72.796875 20.84375 72.796875 
Q 27.59375 72.796875 32 67.984375 
Q 36.421875 63.1875 36.421875 53.859375 
Q 36.421875 44.78125 31.953125 39.875 
Q 27.484375 34.96875 20.953125 34.96875 
Q 14.453125 34.96875 10.125 39.796875 
Q 5.8125 44.625 5.8125 54.390625 
z
M 21.09375 66.75 
Q 17.828125 66.75 15.65625 63.90625 
Q 13.484375 61.078125 13.484375 53.515625 
Q 13.484375 46.625 15.671875 43.8125 
Q 17.875 41.015625 21.09375 41.015625 
Q 24.421875 41.015625 26.59375 43.84375 
Q 28.765625 46.6875 28.765625 54.203125 
Q 28.765625 61.140625 26.5625 63.9375 
Q 24.359375 66.75 21.09375 66.75 
z
M 21.140625 -2.640625 
L 60.296875 72.796875 
L 67.4375 72.796875 
L 28.421875 -2.640625 
z
M 52.09375 16.796875 
Q 52.09375 24.515625 55.953125 29.859375 
Q 59.8125 35.203125 67.1875 35.203125 
Q 73.921875 35.203125 78.34375 30.390625 
Q 82.765625 25.59375 82.765625 16.265625 
Q 82.765625 7.171875 78.296875 2.265625 
Q 73.828125 -2.640625 67.234375 -2.640625 
Q 60.75 -2.640625 56.421875 2.21875 
Q 52.09375 7.078125 52.09375 16.796875 
z
M 67.4375 29.15625 
Q 64.109375 29.15625 61.9375 26.3125 
Q 59.765625 23.484375 59.765625 15.921875 
Q 59.765625 9.078125 61.953125 6.25 
Q 64.15625 3.421875 67.390625 3.421875 
Q 70.75 3.421875 72.921875 6.25 
Q 75.09375 9.078125 75.09375 16.609375 
Q 75.09375 23.53125 72.890625 26.34375 
Q 70.703125 29.15625 67.4375 29.15625 
z
" id="ArialMT-25"/>
     </defs>
     <g transform="translate(16.663594 183.349297)rotate(-90)scale(0.13 -0.13)">
      <use xlink:href="#ArialMT-44"/>
      <use x="72.216797" xlink:href="#ArialMT-69"/>
      <use x="94.433594" xlink:href="#ArialMT-6c"/>
      <use x="116.650391" xlink:href="#ArialMT-61"/>
      <use x="172.265625" xlink:href="#ArialMT-74"/>
      <use x="200.048828" xlink:href="#ArialMT-61"/>
      <use x="255.664062" xlink:href="#ArialMT-e7"/>
      <use x="305.664062" xlink:href="#ArialMT-e3"/>
      <use x="361.279297" xlink:href="#ArialMT-6f"/>
      <use x="416.894531" xlink:href="#ArialMT-20"/>
      <use x="444.677734" xlink:href="#ArialMT-72"/>
      <use x="477.978516" xlink:href="#ArialMT-65"/>
      <use x="533.59375" xlink:href="#ArialMT-6c"/>
      <use x="555.810547" xlink:href="#ArialMT-61"/>
      <use x="611.425781" xlink:href="#ArialMT-74"/>
      <use x="639.208984" xlink:href="#ArialMT-69"/>
      <use x="661.425781" xlink:href="#ArialMT-76"/>
      <use x="711.425781" xlink:href="#ArialMT-61"/>
      <use x="767.041016" xlink:href="#ArialMT-20"/>
      <use x="794.824219" xlink:href="#ArialMT-28"/>
      <use x="828.125" xlink:href="#ArialMT-25"/>
      <use x="917.041016" xlink:href="#ArialMT-29"/>
     </g>
    </g>
   </g>
   <g id="line2d_13">
    <path clip-path="url(#p655a5590b9)" d="M 409.906328 86.818319 
L 409.090545 87.176198 
L 407.59919 88.364957 
L 406.54215 88.954466 
L 405.87067 89.427045 
L 404.988142 90.109118 
L 404.555665 90.303999 
L 403.659077 90.986072 
L 403.128473 91.210182 
L 402.822364 91.526861 
L 402.015525 91.965338 
L 401.632418 92.194316 
L 401.146565 92.330732 
L 400.864895 92.647405 
L 398.64239 93.948225 
L 397.563772 94.391566 
L 396.910295 95.04929 
L 396.71255 95.190567 
L 396.643603 95.395193 
L 396.042377 95.955473 
L 393.408566 97.378078 
L 392.929089 97.592452 
L 392.382321 98.074774 
L 391.834675 98.274525 
L 391.009282 98.976083 
L 390.777349 99.195324 
L 386.112218 102.021058 
L 384.99361 102.932115 
L 382.437143 104.603202 
L 382.002704 104.817563 
L 381.26193 105.54836 
L 380.703556 105.767595 
L 380.187276 106.274278 
L 378.885757 106.980715 
L 378.068129 107.492265 
L 377.060419 107.994084 
L 376.535189 108.242553 
L 376.391371 108.471532 
L 375.150584 109.216941 
L 374.282789 109.684651 
L 373.998993 109.976972 
L 373.154678 110.342364 
L 372.125736 111.063418 
L 371.274534 111.516507 
L 371.024987 111.964727 
L 370.247309 112.481156 
L 369.395187 112.909886 
L 368.126813 113.816068 
L 367.392109 114.512764 
L 365.809696 115.433563 
L 365.619818 115.672284 
L 364.908859 116.154612 
L 364.62535 116.393339 
L 363.579447 116.817198 
L 362.314077 117.772105 
L 360.696619 118.707515 
L 359.953394 119.223946 
L 354.704223 122.497905 
L 353.431537 123.155618 
L 352.180492 124.37848 
L 349.268668 126.195718 
L 348.11015 126.595219 
L 347.676917 127.082416 
L 346.44459 128.012964 
L 345.968689 128.178606 
L 345.129155 128.704779 
L 344.372647 129.17249 
L 343.735068 129.669428 
L 342.16275 130.502532 
L 340.986598 131.525644 
L 340.166313 131.852065 
L 339.941206 132.129768 
L 337.727182 133.640074 
L 336.982076 134.180862 
L 336.467104 134.312404 
L 335.038074 135.316027 
L 334.629117 135.481676 
L 333.534151 136.353755 
L 332.350213 137.021213 
L 331.73454 137.527896 
L 331.388194 137.805599 
L 330.114712 138.434082 
L 329.223826 139.062566 
L 329.036849 139.296417 
L 326.796056 140.382866 
L 325.571698 141.513158 
L 324.284565 142.166003 
L 322.552613 143.257325 
L 322.000164 143.705544 
L 320.526811 144.548391 
L 320.030149 144.7725 
L 319.812705 145.055076 
L 318.060236 146.107417 
L 316.793415 147.047707 
L 314.164406 148.509296 
L 313.847935 148.786997 
L 312.985964 149.157266 
L 311.983853 149.863701 
L 310.918497 150.302178 
L 309.341888 151.617606 
L 308.976027 151.822226 
L 308.432733 151.963515 
L 307.241459 152.689437 
L 307.107122 152.89893 
L 304.933088 154.467703 
L 304.391797 154.896435 
L 303.187424 155.490813 
L 302.567235 155.992624 
L 300.267672 157.064455 
L 299.831925 157.4737 
L 298.879551 157.94628 
L 298.394864 158.12167 
L 298.15394 158.336038 
L 297.619576 158.555276 
L 297.053293 159.232477 
L 295.686752 159.929167 
L 294.588312 160.606369 
L 294.088666 160.942537 
L 291.863485 162.184884 
L 291.532506 162.486945 
L 291.199954 162.633104 
L 290.190588 163.378515 
L 289.370447 164.011869 
L 289.091658 164.270083 
L 288.131294 164.615991 
L 287.604777 165.137292 
L 285.692469 165.95578 
L 284.881728 166.969147 
L 284.114552 167.34429 
L 283.266824 167.768151 
L 279.619887 170.23336 
L 278.745982 170.623118 
L 278.125323 171.076209 
L 277.751227 171.563405 
L 276.633967 172.187016 
L 275.555349 172.825243 
L 275.301919 173.093201 
L 274.784393 173.258847 
L 274.000585 173.741171 
L 273.217511 174.174775 
L 273.153612 174.423246 
L 271.701552 175.300198 
L 270.420713 175.938425 
L 269.480682 176.639987 
L 268.726095 177.326932 
L 267.147872 178.228246 
L 266.305681 178.871345 
L 265.388823 179.295204 
L 265.077196 179.587522 
L 263.82754 180.22575 
L 260.961817 182.237869 
L 260.109368 182.734809 
L 258.971203 183.441242 
L 258.553439 183.894335 
L 256.497823 185.014886 
L 256.102578 185.253611 
L 256.005984 185.492337 
L 255.508238 185.633624 
L 253.122278 187.280345 
L 244.226884 193.209522 
L 243.428792 193.609023 
L 243.120598 193.891597 
L 241.623806 194.783164 
L 240.780635 195.362926 
L 238.841925 196.498094 
L 237.490812 197.506592 
L 232.367211 200.790288 
L 231.671925 201.238511 
L 229.937418 202.344443 
L 228.820363 202.972929 
L 228.613912 203.216524 
L 227.242865 204.078861 
L 226.750279 204.614778 
L 225.281912 205.408908 
L 224.121872 206.280988 
L 219.660137 208.984923 
L 219.44163 209.189548 
L 219.064715 209.340576 
L 218.365648 209.837516 
L 214.051726 212.546325 
L 213.555585 212.867877 
L 209.524866 215.11385 
L 208.091351 215.664382 
L 207.566816 215.907978 
L 206.024097 216.507229 
L 203.602683 217.111351 
L 201.079136 217.291614 
L 199.850507 217.203921 
L 199.470649 216.960319 
L 199.093437 217.009042 
L 198.06424 216.594924 
L 197.483029 216.336712 
L 197.485931 216.234399 
L 196.518273 216.000548 
L 194.939518 215.708227 
L 194.19477 215.415909 
L 192.224642 214.704604 
L 191.583293 214.651011 
L 191.024357 214.44152 
L 190.350322 214.358696 
L 187.841887 213.384301 
L 184.22836 211.128588 
L 181.833612 209.087235 
L 181.661175 208.809533 
L 188.924888 205.009407 
L 190.286996 203.893729 
L 190.53736 203.494228 
L 189.971527 203.143448 
L 188.403981 202.217776 
L 188.308316 201.983919 
L 187.166994 201.228765 
L 187.033035 200.926706 
L 185.912434 200.02052 
L 183.07915 197.253247 
L 182.771406 196.848876 
L 181.741095 195.932948 
L 181.61675 195.611397 
L 179.904722 193.964676 
L 179.739978 193.62851 
L 179.383354 193.321576 
L 179.260062 192.985412 
L 177.35134 191.080475 
L 176.230412 189.745557 
L 175.831734 189.448369 
L 175.572715 189.043995 
L 174.706412 188.176788 
L 173.495296 186.944181 
L 173.429252 186.588528 
L 172.73982 186.101333 
L 171.41522 184.683591 
L 171.026177 184.396146 
L 170.861515 184.098958 
L 170.502919 183.869974 
L 169.73085 182.988149 
L 169.592262 182.71532 
L 169.840553 181.482715 
L 169.742079 181.268349 
L 169.905065 181.161165 
L 169.944442 180.761664 
L 169.939017 179.719065 
L 170.020837 179.665473 
L 169.836803 179.55342 
L 169.861938 179.53393 
L 169.937637 179.304949 
L 169.825288 179.251357 
L 169.987559 179.217254 
L 170.050365 179.114943 
L 169.789947 179.012632 
L 169.977025 178.691082 
L 169.782846 178.544923 
L 170.04356 178.413381 
L 169.927798 178.427997 
L 169.781466 178.36466 
L 170.066293 178.301326 
L 169.916968 178.208757 
L 169.661597 178.218502 
L 170.007258 178.096704 
L 169.779801 177.906696 
L 169.902694 177.974904 
L 169.962445 177.872593 
L 169.962445 177.89208 
L 169.774672 177.853104 
L 169.982818 177.81413 
L 169.961771 177.823873 
L 169.905739 177.672843 
L 169.742079 177.658227 
L 169.972969 177.560788 
L 169.920002 177.590019 
L 169.979773 177.575403 
L 169.796434 177.468219 
L 169.992668 177.385398 
L 169.737338 177.458477 
L 169.833452 177.390269 
L 169.780465 177.351293 
L 169.920013 177.365909 
L 170.001822 177.365909 
L 169.77131 177.331806 
L 169.829017 177.263598 
L 169.952984 177.210006 
L 169.843986 177.185647 
L 169.713603 177.229495 
L 170.043274 177.171031 
L 169.901008 177.088208 
L 169.806274 177.068719 
L 170.037838 177.02 
L 170.139337 176.927434 
L 170.544687 176.800763 
L 171.259202 176.72281 
L 171.785382 176.445109 
L 173.034445 175.982272 
L 174.274589 175.460974 
L 174.476452 175.417126 
L 174.720941 175.197887 
L 175.213516 175.100447 
L 175.36699 174.886081 
L 177.525576 173.979898 
L 178.085279 173.721684 
L 179.248455 173.258847 
L 179.503959 173.06397 
L 181.749452 172.060345 
L 184.141615 170.891075 
L 184.689997 170.798508 
L 185.435471 170.272337 
L 190.241988 167.963028 
L 190.579179 167.763277 
L 191.089962 167.665838 
L 191.202076 167.500192 
L 191.920709 167.164026 
L 192.632608 166.881453 
L 193.684171 166.442976 
L 195.634508 165.463713 
L 196.03619 165.332171 
L 196.196193 165.142163 
L 197.06079 164.791383 
L 197.356631 164.693943 
L 197.527914 164.479577 
L 198.655575 164.026485 
L 198.950681 163.826734 
L 199.622754 163.583137 
L 202.770873 162.087447 
L 203.077494 162.043597 
L 203.263775 161.790255 
L 203.74741 161.751281 
L 203.992554 161.556402 
L 204.753977 161.220238 
L 206.045492 160.606369 
L 206.777551 160.255591 
L 207.470671 159.934041 
L 207.762385 159.86096 
L 207.879168 159.666082 
L 208.571154 159.495564 
L 208.725854 159.320174 
L 210.025493 158.71605 
L 218.542029 154.808738 
L 218.781124 154.623604 
L 219.560018 154.360519 
L 224.185843 152.241216 
L 224.699221 152.109675 
L 225.205436 151.744276 
L 228.288962 150.394746 
L 228.92932 150.141402 
L 230.022181 149.624974 
L 230.621854 149.386248 
L 231.254304 148.991621 
L 232.598919 148.363136 
L 232.984642 148.280314 
L 234.08678 147.749267 
L 239.25219 145.225592 
L 239.734426 145.103794 
L 239.936176 144.933278 
L 242.148096 143.895548 
L 243.439765 143.247578 
L 243.823731 143.155012 
L 244.429268 142.760383 
L 245.391062 142.326777 
L 250.849606 139.681304 
L 251.40279 139.335396 
L 252.590202 138.896917 
L 252.730404 138.658194 
L 253.788301 138.170997 
L 254.045838 137.985864 
L 254.894118 137.630207 
L 255.178751 137.527896 
L 255.425785 137.313532 
L 255.850947 137.211219 
L 257.342241 136.31965 
L 257.084868 136.012719 
L 257.066252 136.03708 
L 256.886407 136.032208 
L 257.034783 135.973743 
L 256.802176 136.012719 
L 257.068949 135.87143 
L 256.84235 135.837329 
L 256.898423 135.79348 
L 257.039564 135.705785 
L 256.860373 135.759379 
L 256.976667 135.759379 
L 256.823489 135.661937 
L 256.973949 135.61809 
L 256.951185 135.5645 
L 256.883117 135.579116 
L 256.860966 135.598601 
L 256.967961 135.588856 
L 257.049495 135.627834 
L 256.86303 135.515777 
L 256.933182 135.457314 
L 257.079739 135.398851 
L 256.88373 135.437825 
L 256.913708 135.364749 
L 257.035396 135.281926 
L 256.90443 135.359878 
L 256.889718 135.316027 
L 256.844189 135.277054 
L 257.011426 135.301413 
L 256.901733 135.306282 
L 257.0375 135.25269 
L 256.881033 135.262437 
L 256.927195 135.247819 
L 256.979936 135.140639 
L 256.859127 135.238075 
L 256.97873 135.228334 
L 256.806099 135.203972 
L 257.027324 135.194229 
L 256.864256 135.121148 
L 257.04079 135.101663 
L 256.826186 135.111405 
L 256.843556 135.013968 
L 257.066885 135.043201 
L 256.836097 134.984734 
L 257.031493 134.89217 
L 256.843556 134.823962 
L 257.071646 134.85319 
L 256.9425 134.794728 
L 257.104321 134.770366 
L 256.854325 134.755756 
L 256.98202 134.716776 
L 256.852874 134.648568 
L 257.097701 134.692419 
L 256.877722 134.609596 
L 257.083621 134.633952 
L 256.757833 134.575491 
L 256.965877 134.575491 
L 257.052172 134.492669 
L 256.947261 134.502408 
L 256.83342 134.541388 
L 257.068091 134.409845 
L 256.979936 134.404974 
L 256.834871 134.331891 
L 257.079473 134.385483 
L 257.02669 134.32702 
L 256.909805 134.21984 
L 257.10285 134.312404 
L 256.973949 134.224711 
L 256.814191 134.27343 
L 257.046165 134.22958 
L 256.994649 134.17599 
L 256.882259 134.073679 
L 257.018006 134.166244 
L 256.929626 134.068806 
L 257.05487 133.985984 
L 256.801931 134.054192 
L 257.026731 133.990856 
L 257.035375 133.917775 
L 256.919715 133.995727 
L 257.006031 133.956753 
L 256.818707 133.912903 
L 257.084234 133.942137 
L 256.861559 133.864185 
L 257.118401 133.742387 
L 256.746451 133.8788 
L 256.92509 133.737515 
L 256.893028 133.722898 
L 256.847479 133.834957 
L 257.048004 133.669307 
L 256.955701 133.718026 
L 256.769848 133.625458 
L 256.995262 133.625458 
L 257.025485 133.605971 
L 256.859474 133.591355 
L 256.872103 133.571866 
L 257.001862 133.640074 
L 256.842718 133.581609 
L 256.962567 133.586484 
L 257.093552 133.581609 
L 256.787259 133.605971 
L 256.919715 133.513403 
L 256.967083 133.528019 
L 256.980549 133.454941 
L 257.098334 133.406221 
L 256.860087 133.430577 
L 256.96978 133.396476 
L 256.840858 133.323397 
L 257.036009 133.3575 
L 257.100153 133.323397 
L 256.894234 133.381858 
L 256.974541 133.313652 
L 256.822018 133.196726 
L 257.027324 133.250318 
L 256.975175 133.235702 
L 257.018619 133.143136 
L 256.977852 133.211342 
L 256.850177 133.182108 
L 257.088771 133.15775 
L 257.073465 133.118775 
L 256.882259 133.162621 
L 256.891557 133.070056 
L 256.868793 133.001849 
L 257.122917 133.00672 
L 256.838795 132.962871 
L 256.888267 132.982361 
L 257.018006 132.792354 
L 256.892783 133.011591 
L 256.929034 132.80697 
L 256.85079 132.826455 
L 257.078839 132.76312 
L 256.994404 132.719275 
L 256.846008 132.573114 
L 257.076163 132.777736 
L 256.875393 132.553627 
L 257.036601 132.597477 
L 256.848705 132.587732 
L 256.935634 132.495162 
L 257.093552 132.461059 
L 256.829231 132.495162 
L 256.9491 132.456188 
L 256.987783 132.363621 
L 256.906249 132.465934 
L 256.908946 132.465934 
L 256.835505 132.436701 
L 256.903552 132.397726 
L 257.018006 132.319774 
L 256.810615 132.363621 
L 256.891557 132.314903 
L 256.747084 132.295412 
L 256.997939 132.295412 
L 256.911644 132.23695 
L 257.06147 132.251566 
L 256.877477 132.227204 
L 256.902918 132.154127 
L 256.947629 132.071305 
L 256.851403 132.163871 
L 256.807938 132.09079 
L 257.031227 132.149255 
L 257.001862 132.027454 
L 256.828639 131.973863 
L 257.001249 132.0372 
L 256.95239 131.978739 
L 256.834626 132.027454 
L 257.036622 131.930018 
L 256.785174 131.905656 
L 256.941008 131.817961 
L 257.050701 131.778986 
L 256.849952 131.793604 
L 256.961095 131.735139 
L 256.89548 131.696163 
L 257.021929 131.78386 
L 256.967716 131.749753 
L 256.106297 131.876422 
L 252.776484 133.182108 
L 241.942933 138.497416 
L 236.94241 140.957757 
L 220.670841 149.050082 
L 218.639298 150.199867 
L 185.276153 166.637855 
L 181.967724 168.143291 
L 180.641807 168.893572 
L 179.075272 169.556159 
L 176.043845 171.085954 
L 171.818629 173.171152 
L 170.215108 173.746044 
L 165.08692 176.284333 
L 163.725262 176.805634 
L 161.314576 177.984649 
L 157.832259 179.43162 
L 156.627733 179.75317 
L 155.689613 180.12831 
L 152.663539 180.790896 
L 147.382582 181.19527 
L 145.631963 181.156293 
L 144.270663 180.971159 
L 141.173359 180.469347 
L 139.749779 180.079589 
L 136.397447 179.129559 
L 135.900647 178.905448 
L 135.118095 178.744674 
L 134.65986 178.515692 
L 133.290606 178.237989 
L 132.105151 177.848233 
L 130.810493 177.526683 
L 130.488715 177.31719 
L 129.73825 177.205134 
L 129.196713 177.010255 
L 127.909555 176.737426 
L 121.130177 175.348918 
L 120.722002 175.387894 
L 112.743211 174.106569 
L 108.741535 173.502447 
L 108.272577 173.409878 
L 107.450601 173.405007 
L 106.87144 173.258847 
L 99.063145 172.255224 
L 98.413648 172.0506 
L 97.028886 171.97265 
L 96.885134 171.899571 
L 96.620126 171.919058 
L 95.167026 171.680332 
L 93.811982 171.509815 
L 93.542761 171.407502 
L 93.0137 171.388015 
L 93.020295 171.339296 
L 91.515588 171.129801 
L 91.147469 171.134673 
L 90.537837 171.042106 
L 88.96425 170.798508 
L 88.350779 170.740045 
L 87.864176 170.632861 
L 87.747211 170.642606 
L 87.358721 170.53055 
L 85.82136 170.403879 
L 85.94197 170.399008 
L 79.668199 169.565904 
L 79.637396 169.629238 
L 79.231032 169.522056 
L 79.278696 169.45872 
L 78.962741 169.424615 
L 76.912593 169.205377 
L 77.031519 169.117682 
L 77.022752 169.083579 
L 76.912593 169.132298 
L 76.358194 169.049476 
L 76.202728 168.966653 
L 76.241754 168.937419 
L 75.838861 168.952035 
L 75.978751 168.947164 
L 75.498222 168.883829 
L 75.311985 168.796134 
L 75.333527 168.830237 
L 75.080407 168.83998 
L 75.195157 168.81075 
L 74.493242 168.684077 
L 74.650474 168.718182 
L 74.756567 168.625615 
L 74.597562 168.640231 
L 74.21295 168.684077 
L 74.183398 168.620742 
L 73.800422 168.606126 
L 74.275051 168.596382 
L 73.853765 168.547663 
L 73.463351 168.39176 
L 73.623247 168.425863 
L 73.087417 168.372273 
L 73.156471 168.284578 
L 73.096262 168.289449 
L 72.867014 168.265089 
L 73.095358 168.304065 
L 73.059619 168.260218 
L 72.848367 168.31381 
L 72.937357 168.21637 
L 72.750495 168.226115 
L 72.619843 168.192012 
L 72.711949 168.09457 
L 72.621987 168.128673 
L 72.353782 168.075083 
L 72.859083 168.075083 
L 72.396369 168.040978 
L 72.387485 167.928925 
L 72.342142 167.933796 
L 72.209203 167.987388 
L 72.394243 167.914309 
L 72.259754 168.002004 
L 72.132896 167.831485 
L 72.197259 167.86559 
L 71.98143 167.831485 
L 72.271697 167.802254 
L 72.055645 167.807125 
L 72.072506 167.729174 
L 72.025907 167.724301 
L 71.833605 167.74379 
L 72.167534 167.729174 
L 71.912131 167.714559 
L 71.907858 167.607375 
L 71.98913 167.714559 
L 71.806903 167.709685 
L 71.991254 167.704814 
L 71.782058 167.631735 
L 71.971337 167.62199 
L 71.651023 167.534295 
L 71.655941 167.54404 
L 71.81461 167.480705 
L 71.730501 167.495319 
L 71.422842 167.461216 
L 71.758141 167.393008 
L 71.647036 167.383264 
L 71.7511 167.373521 
L 71.574601 167.339416 
L 71.515014 167.456345 
L 71.748047 167.354032 
L 71.661794 167.383264 
L 71.447456 167.363777 
L 71.69065 167.329674 
L 71.536825 167.339416 
L 71.732107 167.310187 
L 71.464346 167.280955 
L 71.515947 167.241977 
L 71.440412 167.271209 
L 71.617022 167.183514 
L 71.453315 167.212745 
" style="fill:none;stroke:#1f77b4;stroke-linecap:square;"/>
   </g>
   <g id="line2d_14">
    <path clip-path="url(#p655a5590b9)" d="M 56.0625 230.220136 
L 256.9425 131.196472 
" style="fill:none;stroke:#000000;stroke-dasharray:1,1.65;stroke-dashoffset:0;"/>
   </g>
   <g id="line2d_15">
    <path clip-path="url(#p655a5590b9)" d="M 409.906328 87.021034 
L 408.048668 87.986258 
L 407.343308 88.650172 
L 406.425673 89.133468 
L 406.092017 89.35803 
L 405.207936 89.758334 
L 404.934276 89.973131 
L 404.486759 90.17329 
L 403.585758 90.851853 
L 401.278777 92.140639 
L 400.987666 92.389611 
L 400.321499 92.760627 
L 398.886972 93.859021 
L 394.223026 96.373141 
L 394.035621 96.622111 
L 391.935642 97.935302 
L 390.714206 98.64316 
L 389.926903 99.321731 
L 386.396852 101.259791 
L 385.999747 101.689385 
L 385.373999 102.138508 
L 384.677936 102.602282 
L 381.86007 103.915471 
L 381.719848 104.174207 
L 378.020844 106.527223 
L 376.342941 107.366886 
L 375.144515 108.226075 
L 374.84147 108.435997 
L 373.853969 108.904644 
L 373.034012 109.500221 
L 372.302863 109.895641 
L 370.504089 111.203957 
L 370.284581 111.413875 
L 368.251341 112.600145 
L 364.92678 114.743245 
L 364.409274 114.904338 
L 363.660184 115.641491 
L 362.372316 116.363987 
L 360.615678 117.35987 
L 359.556677 118.121433 
L 357.985892 118.775582 
L 356.113636 120.147366 
L 354.928799 121.182296 
L 353.049002 122.275815 
L 352.890614 122.500376 
L 352.559757 122.768872 
L 351.237906 123.442557 
L 350.544664 123.896559 
L 349.394238 124.64347 
L 349.227921 124.892442 
L 347.584737 125.73211 
L 347.248506 126.039658 
L 346.828801 126.147058 
L 342.84502 128.617236 
L 340.99328 129.735159 
L 340.220567 130.399079 
L 339.930805 130.584587 
L 339.672083 130.89214 
L 339.005793 131.277801 
L 338.151117 131.780622 
L 337.288942 132.161397 
L 337.046097 132.464071 
L 335.814179 133.084053 
L 334.915426 133.523417 
L 334.213968 134.162927 
L 332.491313 135.095344 
L 331.188099 135.983826 
L 330.570382 136.320668 
L 327.335937 138.414949 
L 323.977577 140.641039 
L 323.522274 140.787491 
L 323.028963 141.119453 
L 322.565098 141.295194 
L 321.120905 142.471701 
L 318.674376 143.838598 
L 316.538003 145.24943 
L 314.287749 146.640735 
L 313.525212 147.319303 
L 312.669453 147.836767 
L 312.275945 148.022274 
L 312.056764 148.27613 
L 309.049919 150.072621 
L 308.231739 150.770718 
L 306.789242 151.703134 
L 306.095039 152.142496 
L 305.162834 152.60138 
L 304.522701 153.01633 
L 304.346105 153.2653 
L 303.501769 153.694897 
L 302.840772 154.217247 
L 301.715236 154.856759 
L 301.24614 155.340055 
L 300.485198 155.823349 
L 299.482596 156.26759 
L 299.203112 156.501917 
L 298.85787 156.609315 
L 298.693781 156.87293 
L 297.627852 157.527087 
L 297.498603 157.961565 
L 297.132314 158.449744 
L 296.744445 158.420453 
L 296.402759 158.605959 
L 295.702037 159.333343 
L 295.305381 159.362634 
L 294.956114 159.587195 
L 294.096104 159.880101 
L 293.641251 160.168125 
L 293.185438 160.255999 
L 292.19947 160.851574 
L 291.923787 161.164008 
L 291.566775 161.295815 
L 290.998448 161.749819 
L 290.639781 161.910918 
L 289.924285 162.472322 
L 289.481795 162.569958 
L 288.959528 163.019081 
L 287.979445 163.726939 
L 287.096058 164.15165 
L 284.298137 165.782162 
L 284.153439 166.089716 
L 281.765272 167.578655 
L 281.302735 168.03266 
L 280.36299 168.681935 
L 278.814724 169.526482 
L 277.987185 170.024422 
L 276.559401 170.873851 
L 275.889699 171.308329 
L 274.897397 171.679343 
L 274.616687 171.977131 
L 273.812954 172.387201 
L 273.067379 173.051121 
L 267.333172 176.526943 
L 266.218426 177.239681 
L 266.040809 177.45936 
L 265.122602 177.840139 
L 259.789628 181.34525 
L 259.261211 181.857837 
L 258.93156 182.009171 
L 258.788191 182.316723 
L 255.742132 184.030225 
L 254.823353 184.489111 
L 254.538025 184.708791 
L 254.102422 184.884535 
L 253.846377 185.20185 
L 252.903158 185.729081 
L 252.029866 186.485757 
L 248.617027 188.531218 
L 247.856595 189.02916 
L 247.120624 189.400173 
L 244.26526 191.191785 
L 244.10961 191.391937 
L 240.594782 193.388582 
L 240.300872 193.676606 
L 239.442845 194.096438 
L 238.011669 195.038619 
L 237.669022 195.194838 
L 237.375439 195.521915 
L 236.81831 195.858758 
L 236.555052 196.083319 
L 234.173689 197.416043 
L 233.510791 197.894455 
L 232.548323 198.338698 
L 232.309933 198.573023 
L 231.945994 198.714596 
L 231.143937 199.25647 
L 230.219477 199.769057 
L 229.06852 200.325579 
L 228.036452 201.257997 
L 227.321814 201.73641 
L 227.107292 201.946327 
L 225.453093 202.732292 
L 224.75139 203.230234 
L 222.749201 204.611775 
L 220.209705 206.090951 
L 219.946088 206.383857 
L 217.458609 207.672647 
L 206.163594 214.834201 
L 205.352546 215.32726 
L 205.120941 215.507886 
L 202.099383 216.855259 
L 201.789421 217.065173 
L 198.825284 217.924362 
L 197.189947 217.997591 
L 196.833598 217.934127 
L 196.660548 218.026878 
L 196.30324 217.895075 
L 195.59841 217.685157 
L 195.587713 217.641219 
L 195.239804 217.509414 
L 194.492553 217.250677 
L 194.021066 217.079817 
L 193.354092 216.650221 
L 193.372258 216.586761 
L 192.656752 216.249913 
L 192.391348 216.025353 
L 192.316557 215.859373 
L 191.605597 215.48836 
L 191.31561 215.32726 
L 190.258387 215.146637 
L 189.342816 214.917193 
L 187.043682 214.053118 
L 186.231357 213.603999 
L 185.203355 213.257391 
L 183.647303 212.588585 
L 190.846474 209.029777 
L 191.85539 207.643356 
L 191.893163 207.311392 
L 191.786362 206.920853 
L 191.584437 206.769518 
L 191.494485 206.549839 
L 190.296937 205.466085 
L 189.902744 205.270814 
L 189.713888 204.914446 
L 187.757441 203.074017 
L 186.197507 201.384923 
L 185.81911 201.13107 
L 185.341686 200.408569 
L 184.675284 199.730004 
L 184.240416 199.075845 
L 183.729889 198.73412 
L 182.99165 197.679659 
L 182.437883 197.294 
L 182.32491 196.927866 
L 180.176031 194.530914 
L 179.596977 193.862112 
L 176.463428 190.112914 
L 175.944951 189.849296 
L 175.57292 189.175614 
L 175.20993 188.936407 
L 174.967055 188.570274 
L 174.528366 188.272485 
L 173.793998 187.320539 
L 170.523772 183.82519 
L 170.102851 183.634801 
L 169.709281 183.063635 
L 169.598567 182.751201 
L 170.002323 181.423359 
L 169.791122 181.149979 
L 169.882811 181.01329 
L 169.838703 180.759437 
L 169.90249 180.632511 
L 169.783356 180.52023 
L 169.919124 179.983237 
L 169.763678 179.978354 
L 169.952412 179.846547 
L 169.831899 179.768438 
L 169.906934 179.734267 
L 169.828159 178.977592 
L 170.027427 178.948301 
L 169.803045 178.899483 
L 170.026466 178.508941 
L 169.750773 178.430833 
L 169.875036 178.338079 
L 170.005378 178.206272 
L 169.860752 178.279497 
L 169.838703 178.23068 
L 170.021327 178.211152 
L 169.837038 178.255089 
L 169.97724 178.059818 
L 169.796966 178.084226 
L 169.943962 178.04029 
L 170.003028 177.918246 
L 169.941878 177.928011 
L 169.774488 177.913366 
L 169.943247 177.86943 
L 169.864502 177.835256 
L 169.915813 177.771794 
L 169.782672 177.78644 
L 169.796966 177.722976 
L 169.81125 177.776675 
L 169.958225 177.742503 
L 169.754513 177.771794 
L 169.905974 177.737621 
L 169.847858 177.654631 
L 169.925663 177.679039 
L 169.728714 177.688804 
L 170.024801 177.659513 
L 169.853682 177.591169 
L 169.984729 177.561878 
L 169.675707 177.537468 
L 170.025067 177.547233 
L 169.998308 177.439832 
L 169.733149 177.493532 
L 170.052929 177.45936 
L 169.863531 177.444715 
L 169.868936 177.381253 
L 169.951451 177.425187 
L 169.981684 177.395898 
L 169.749118 177.425187 
L 169.990829 177.351962 
L 169.97725 177.29338 
L 169.982369 177.283617 
L 169.846182 177.327552 
L 169.97255 177.278735 
L 169.776296 177.239681 
L 169.847592 177.220153 
L 169.942991 177.034645 
L 169.804445 177.112755 
L 169.720949 177.073701 
L 171.130424 176.800321 
L 172.945565 176.194983 
L 173.031973 176.014355 
L 173.823731 175.760505 
L 180.608703 172.641051 
L 180.814714 172.460426 
L 181.616015 172.162639 
L 183.254019 171.357146 
L 183.691993 171.244865 
L 184.120026 170.864087 
L 185.007377 170.585826 
L 185.258814 170.385674 
L 185.712901 170.248983 
L 185.955807 170.024422 
L 187.024116 169.589946 
L 187.51616 169.262867 
L 188.002799 169.160349 
L 188.271851 168.926024 
L 188.737932 168.823506 
L 189.265727 168.462256 
L 190.056729 168.125413 
L 190.602229 167.764163 
L 191.99742 167.236932 
L 192.263008 167.002606 
L 193.303567 166.582773 
L 197.809584 164.415269 
L 199.318524 163.692765 
L 200.033233 163.34128 
L 200.669167 163.023963 
L 203.177071 161.901155 
L 204.128117 161.378805 
L 205.418907 160.812521 
L 217.581707 155.154547 
L 218.356258 154.905577 
L 218.905039 154.622432 
L 219.522163 154.290474 
L 219.720011 154.124494 
L 221.678613 153.309236 
L 223.629522 152.337766 
L 224.438251 152.171785 
L 224.625636 151.91793 
L 225.31847 151.600616 
L 226.300096 151.205194 
L 227.563923 150.580324 
L 228.339782 150.253246 
L 228.914443 149.940812 
L 243.546536 143.02334 
L 244.125243 142.701145 
L 251.491251 139.13257 
L 251.954748 138.981236 
L 252.21063 138.74203 
L 252.5967 138.605339 
L 252.865108 138.390541 
L 253.514396 138.161097 
L 254.587722 137.555757 
L 255.954366 136.901602 
L 256.23812 136.647749 
L 257.189023 136.242562 
L 257.652193 136.061935 
L 257.912141 135.837377 
L 258.662703 135.549348 
L 259.330136 135.139281 
L 260.300595 134.572994 
L 260.63378 134.509532 
L 262.296153 133.591758 
L 262.938922 133.352553 
L 268.026579 130.584587 
L 268.455071 130.447898 
L 268.685451 130.174523 
L 269.359362 129.876735 
L 270.078557 129.530127 
L 270.677658 129.13958 
L 271.514372 128.792975 
L 272.000592 128.392674 
L 272.718969 128.104645 
L 276.433586 125.966431 
L 277.156377 125.639354 
L 277.369632 125.439201 
L 279.08113 124.472612 
L 280.474093 123.686646 
L 281.828353 122.973904 
L 282.871415 122.314868 
L 283.238952 122.153769 
L 283.819498 121.733935 
L 290.899239 117.574673 
L 291.545931 117.169482 
L 292.962272 116.339578 
L 294.181439 115.563383 
L 295.636932 114.679782 
L 296.539834 113.971923 
L 297.524637 113.615551 
L 297.650902 113.3617 
L 299.380934 112.380468 
L 299.99062 111.853233 
L 301.594836 110.798766 
L 302.366935 110.339886 
L 302.665955 110.08603 
L 303.136665 109.905406 
L 303.39835 109.67108 
L 303.553571 109.358646 
L 304.148217 109.221962 
L 305.026454 108.435997 
L 305.409316 108.338361 
L 306.047345 107.811125 
L 306.523572 107.645147 
L 306.747147 107.371767 
L 307.400113 107.039803 
L 307.509826 106.771309 
L 307.677124 106.639498 
L 307.486061 106.395413 
L 307.504043 106.331951 
L 307.338135 106.331951 
L 307.365926 106.224556 
L 307.349129 106.195261 
L 307.387321 105.956054 
L 307.07267 105.853533 
L 307.192212 105.819365 
L 307.05906 105.790071 
L 307.193397 105.702198 
L 307.156635 105.672917 
L 307.170224 105.340953 
L 307.283963 105.345834 
L 307.172227 105.248197 
L 307.111434 105.160324 
L 307.178602 104.979702 
L 307.277383 104.877181 
L 307.167016 104.935763 
L 307.221781 104.340185 
L 307.006073 104.154683 
L 307.126821 104.159556 
L 307.219185 103.993584 
L 307.049456 103.886184 
L 307.19399 103.739728 
L 307.130029 103.720198 
L 307.207599 103.598158 
L 307.230179 103.520052 
L 307.227012 103.539576 
L 307.105631 103.398007 
L 307.347126 103.32478 
L 307.173412 103.261316 
L 307.128824 103.202734 
L 307.27677 103.192975 
L 307.020868 103.114862 
L 307.168794 103.114862 
L 307.31296 103.061164 
L 307.131439 103.012346 
L 307.009261 102.875662 
L 307.08164 102.821957 
L 307.197995 102.587636 
L 307.067438 102.612041 
L 307.246977 102.465585 
L 307.131439 102.206851 
L 307.252208 102.099456 
L 307.092634 102.10434 
L 307.123041 101.953006 
L 307.151445 101.953006 
L 307.246977 101.884659 
L 307.143618 101.860243 
L 307.095229 101.655211 
L 307.15404 101.655211 
L 307.284556 101.601514 
L 307.17801 101.567346 
L 306.984065 101.459939 
L 307.179215 101.43553 
L 307.279386 101.396482 
L 307.237985 101.386717 
L 307.054462 101.230499 
L 307.152017 101.230499 
L 307.256785 101.240262 
L 307.104854 101.15727 
L 307.214199 101.132861 
L 307.117258 100.976654 
L 307.252167 100.932714 
L 307.055852 100.957118 
L 307.08164 100.815549 
L 307.035887 100.815549 
L 307.259993 100.698387 
L 307.073855 100.581222 
L 307.00029 100.581222 
L 307.221168 100.561698 
L 307.234184 100.429888 
L 306.997675 100.434774 
L 307.115235 100.356666 
L 307.283166 100.166272 
L 307.223783 100.244385 
L 307.069482 100.200447 
L 307.128824 100.078402 
L 307.283166 100.136978 
L 306.9603 100.029583 
L 307.146234 99.985645 
L 307.114642 99.770848 
L 307.172819 99.712265 
L 307.311754 99.741559 
L 307.119036 99.673211 
L 307.336133 99.599984 
L 307.031269 99.609754 
L 307.187021 99.536522 
L 307.099051 99.531641 
L 307.212197 99.477938 
L 307.134627 99.394952 
L 307.18179 99.365658 
L 307.308342 99.341255 
L 307.123041 99.380307 
L 307.190802 99.272907 
L 307.24058 99.214323 
L 307.179788 99.170396 
L 307.090039 99.170396 
L 307.133238 99.067875 
L 307.124206 98.979997 
L 307.123041 99.019062 
L 307.262568 98.994648 
L 307.179788 98.960478 
L 307.077043 98.906775 
L 307.174618 98.887246 
L 307.29418 98.848192 
L 307.143026 98.804259 
L 307.187594 98.672454 
L 307.241786 98.652925 
L 307.119036 98.628516 
L 307.161008 98.633401 
L 307.089446 98.569933 
L 307.106836 98.569933 
L 307.237985 98.423484 
L 307.167629 98.384431 
L 307.090632 98.325847 
L 307.274768 98.262385 
L 307.2114 98.262385 
L 307.003478 98.179393 
L 307.110024 98.115931 
L 307.260586 98.10128 
L 307.003478 98.071991 
L 307.233388 97.769324 
L 307.07643 97.617984 
L 307.184978 97.657049 
L 307.274768 97.632633 
L 307.155225 97.578936 
L 307.172002 97.574055 
L 307.05904 97.534997 
L 307.104241 97.471533 
L 307.194603 97.364139 
L 307.213382 97.320201 
L 307.163011 97.320201 
L 307.068051 97.237209 
L 307.11642 97.251858 
L 307.287764 97.134691 
L 307.246977 97.105404 
L 307.015637 97.051699 
L 307.190209 96.998002 
L 307.132604 96.92478 
L 307.279958 96.905251 
L 307.079638 96.900367 
L 307.138428 96.851548 
L 307.252208 96.407309 
L 307.163011 96.407309 
L 307.132604 96.221801 
L 307.165606 96.133929 
L 307.075857 96.119285 
L 307.136609 96.163218 
L 307.197995 96.050937 
L 307.224396 95.914248 
L 307.054462 95.948427 
L 307.203001 95.811732 
L 307.019683 95.816611 
L 307.255375 95.782443 
L 307.205004 95.753154 
L 307.148216 95.460246 
L 307.200386 95.45536 
L 307.073242 95.406547 
L 307.073855 95.3382 
L 307.230792 95.230804 
L 307.177805 95.260098 
L 307.244381 95.157577 
L 307.213382 95.211274 
L 307.015657 95.157577 
L 307.255968 95.133167 
L 307.130029 95.108764 
L 307.222394 94.952545 
L 307.232774 94.986713 
L 307.044041 94.850023 
L 307.264366 94.81097 
L 307.161008 94.757272 
L 307.227012 94.713332 
L 307.131215 94.767032 
L 307.092655 94.654751 
L 307.230792 94.68404 
L 307.006666 94.679165 
L 307.106019 94.552235 
L 307.070054 94.503416 
L 307.306932 94.420424 
L 307.148829 94.4009 
L 307.1992 94.308149 
L 307.222394 94.259331 
L 307.096435 94.308149 
L 307.169407 94.259331 
L 307.122223 94.103117 
L 307.21657 94.176339 
L 307.082846 94.029888 
L 307.029267 94.078702 
L 307.199793 93.844375 
L 307.157228 93.815086 
L 307.126821 93.834616 
L 307.236575 93.790678 
L 307.126208 93.71257 
L 307.194603 93.649103 
L 307.357323 93.727216 
L 307.030677 93.58076 
L 307.115235 93.541708 
L 307.259156 93.458716 
L 307.229362 93.395258 
L 307.01486 93.23416 
L 307.235983 93.151172 
L 307.094432 93.141402 
L 307.221188 93.073055 
L 307.079638 93.077939 
L 307.19777 92.780156 
L 307.171409 92.79968 
L 307.049252 92.750862 
L 307.231978 92.711808 
L 307.250185 92.648346 
L 307.337338 92.604408 
L 307.102831 92.643462 
L 307.168794 92.584884 
L 307.159823 92.169934 
L 307.283779 92.086942 
L 307.096435 92.208988 
L 307.185591 92.082058 
L 307.036255 92.018599 
L 307.306339 92.062534 
L 307.245567 92.043004 
L 307.341119 91.955131 
L 307.196605 91.994191 
L 307.108042 91.769624 
L 307.172002 91.784275 
L 307.29418 91.769624 
L 307.121631 91.75498 
L 307.175803 91.725691 
L 307.192008 91.637813 
L 307.074427 91.691522 
L 307.219778 91.476719 
L 307.02847 91.671994 
L 307.128027 91.442552 
L 307.062861 91.466955 
L 307.290727 91.427903 
L 307.189412 91.374203 
L 307.096435 91.320506 
L 307.15639 91.34003 
L 307.242379 91.203341 
L 307.186204 91.217985 
L 307.082846 91.203341 
L 307.318538 91.193582 
L 307.248182 91.149642 
L 307.042059 91.022712 
L 307.262343 91.056891 
L 307.305746 91.052007 
L 307.077656 91.017837 
L 307.197198 90.939726 
L 307.066641 91.017837 
L 307.119036 90.929961 
L 307.290155 90.954369 
L 307.072445 90.915315 
L 307.205597 90.851853 
L 307.119036 90.739573 
L 307.168794 90.705399 
L 307.251963 90.734688 
L 307.047842 90.602883 
L 307.266962 90.583354 
L 307.254558 90.617532 
L 307.25278 90.461314 
L 307.171185 90.515011 
L 307.066641 90.534541 
L 307.254783 90.40273 
L 307.217162 90.451549 
L 307.103403 90.334384 
L 307.202204 90.368563 
L 307.290155 90.266041 
L 307.164789 90.300214 
L 307.044654 90.217222 
L 307.258563 90.222103 
L 307.143618 90.187933 
L 307.080271 90.15376 
L 307.220391 90.124466 
L 307.242971 90.080539 
L 307.206782 90.080539 
L 307.091837 90.134236 
L 307.292157 90.104942 
L 307.1926 90.031715 
L 307.026058 90.007306 
L 307.259156 89.982902 
L 307.1578 89.968252 
L 307.186797 89.826683 
L 307.240969 89.851086 
L 307.335315 89.846212 
L 307.027244 89.826683 
L 307.100828 89.802272 
L 307.287539 89.621645 
L 307.011039 89.480076 
L 307.189392 89.445908 
L 307.139613 89.299446 
L 307.257153 89.323857 
L 307.099643 89.240869 
L 307.150628 89.192052 
L 307.071239 89.138353 
L 307.204166 89.143239 
L 307.304336 89.123704 
L 307.087239 89.113944 
L 307.114417 89.055361 
L 307.186797 88.933315 
L 307.070442 89.113944 
L 307.146827 88.933315 
L 307.169999 88.904028 
L 307.275973 88.972369 
L 307.153202 88.791747 
L 307.257153 88.747807 
L 307.062044 88.777096 
L 307.109227 88.786861 
L 307.060266 88.664816 
L 307.167384 88.664816 
L 307.21518 88.640413 
L 307.104016 88.645291 
L 307.131828 88.586708 
L 307.144824 88.542775 
L 307.348332 88.454905 
L 307.066641 88.503722 
L 307.095025 88.459784 
L 307.270762 88.357268 
L 307.176396 88.386562 
L 306.092342 88.508608 
L 297.899673 91.750094 
L 290.805791 94.93301 
L 271.528063 104.07657 
L 265.448451 106.839657 
L 228.932119 124.165058 
L 179.847668 147.17285 
L 146.648511 161.881628 
L 144.327256 162.7994 
L 142.59182 163.717174 
L 138.553024 165.201234 
L 135.024122 166.636472 
L 107.179542 177.439832 
L 104.364777 178.513823 
L 84.565489 185.694909 
L 83.920487 185.777899 
L 83.75629 185.943879 
L 78.598222 187.652499 
L 78.555577 187.78919 
L 78.203176 187.774543 
L 77.806701 188.01375 
L 77.34616 188.140676 
L 77.208036 188.17485 
L 76.375801 188.438465 
L 76.295683 188.511692 
L 76.102048 188.467756 
L 76.173474 188.516572 
L 72.610204 189.644263 
L 72.507357 189.531982 
L 72.631939 189.658908 
L 72.56487 189.605209 
L 71.904292 189.727253 
L 71.988392 189.71749 
L 71.863551 189.619854 
L 71.973652 189.683317 
L 71.594731 189.722372 
L 71.630373 189.707727 
L 71.462489 189.624735 
L 71.787895 189.663791 
L 71.519965 189.654026 
" style="fill:none;stroke:#ff7f0e;stroke-linecap:square;"/>
   </g>
   <g id="line2d_16">
    <path clip-path="url(#p655a5590b9)" d="M 56.0625 204.560509 
L 307.1625 87.608239 
" style="fill:none;stroke:#000000;stroke-dasharray:1,1.65;stroke-dashoffset:0;"/>
   </g>
   <g id="line2d_17">
    <path clip-path="url(#p655a5590b9)" d="M 366.696598 121.184463 
L 365.325949 122.016873 
L 364.755824 122.457565 
L 363.533183 123.103916 
L 361.514922 124.132193 
L 361.05964 124.636546 
L 359.493023 125.782341 
L 358.683814 126.242617 
L 356.588678 127.378616 
L 355.436434 127.951518 
L 354.24561 128.896555 
L 353.803344 129.07773 
L 353.461801 129.356831 
L 352.322185 129.988489 
L 350.812827 130.909046 
L 350.184096 131.335049 
L 348.535945 132.231114 
L 347.673504 132.85788 
L 346.537485 133.567882 
L 346.246599 133.798017 
L 343.188321 135.252297 
L 342.370202 135.903545 
L 341.812604 136.295269 
L 341.014246 136.956302 
L 337.259945 139.056928 
L 336.404901 139.732656 
L 333.707272 141.319142 
L 332.562937 142.004663 
L 330.934179 143.096593 
L 328.618738 144.541082 
L 327.796859 144.932808 
L 326.8781 145.647705 
L 324.987065 146.75433 
L 323.781691 147.469229 
L 321.126218 149.320132 
L 319.026198 150.323923 
L 318.708482 150.593236 
L 318.268669 150.769515 
L 317.141375 151.572552 
L 315.52545 152.600831 
L 312.254713 154.6378 
L 312.034388 154.853251 
L 311.034974 155.470213 
L 310.347739 155.954975 
L 309.660871 156.278148 
L 309.488771 156.601324 
L 308.734511 157.105669 
L 308.32018 157.198703 
L 300.390606 162.095269 
L 300.020311 162.242165 
L 299.272508 162.775891 
L 298.579408 163.20189 
L 298.362025 163.495687 
L 293.486214 166.409143 
L 290.189096 168.656665 
L 289.384526 169.072876 
L 289.084935 169.332392 
L 288.165563 169.77798 
L 287.037922 170.380256 
L 285.925035 171.354673 
L 284.859147 171.966744 
L 283.676558 172.657158 
L 281.329055 174.189784 
L 279.38963 175.345374 
L 279.146009 175.604892 
L 278.49993 175.977031 
L 277.666056 176.461791 
L 274.65823 178.180485 
L 274.240323 178.493865 
L 273.526012 178.895384 
L 272.763312 179.605385 
L 272.288372 179.786559 
L 271.804951 180.246835 
L 269.007786 182.04877 
L 268.617792 182.200565 
L 267.486943 182.87629 
L 266.357156 183.512845 
L 266.204612 183.791948 
L 265.509898 184.188569 
L 264.720224 184.555811 
L 259.423482 188.027477 
L 258.623203 188.424099 
L 257.06051 189.481757 
L 256.327562 189.888171 
L 248.882962 194.48115 
L 244.915897 196.924536 
L 244.263053 197.296675 
L 242.634582 198.334747 
L 241.982964 198.65792 
L 240.338839 199.793924 
L 239.19056 200.347236 
L 238.529849 200.758547 
L 237.986514 201.169858 
L 237.258021 201.600756 
L 236.673 201.992482 
L 232.04459 204.577868 
L 231.532337 205.077317 
L 231.249645 205.204628 
L 231.018285 205.513113 
L 226.867237 207.892843 
L 226.241969 208.377603 
L 225.769532 208.509809 
L 221.934556 210.909127 
L 221.497828 211.202922 
L 221.137189 211.540782 
L 219.904852 212.020649 
L 219.299907 212.652303 
L 218.96951 212.760028 
L 218.77578 213.009754 
L 217.328195 213.802997 
L 213.762353 215.830175 
L 209.200355 218.053214 
L 208.128501 218.420458 
L 207.82708 218.3617 
L 207.438926 218.606527 
L 206.29837 218.807285 
L 206.025109 218.895423 
L 205.677895 218.875836 
L 205.507512 219.012941 
L 203.756269 218.949289 
L 203.455503 218.939494 
L 201.620151 218.552663 
L 201.434983 218.351906 
L 200.472822 218.28825 
L 199.020465 217.916111 
L 196.324798 217.206109 
L 195.784631 217.059212 
L 195.085247 216.726246 
L 194.663202 216.501005 
L 194.30667 216.481418 
L 193.993643 216.339417 
L 193.709755 216.579349 
L 193.43159 216.52059 
L 193.173031 215.844865 
L 192.625037 216.300243 
L 192.262099 215.399277 
L 192.06842 215.384589 
L 191.782694 215.502103 
L 191.464711 215.002655 
L 191.135255 215.076104 
L 190.766431 213.656099 
L 190.56841 213.812789 
L 190.283767 213.342719 
L 190.04835 213.342719 
L 189.886631 212.902028 
L 189.658541 210.835678 
L 189.396007 211.281264 
L 188.869 210.948301 
L 188.548463 206.844975 
L 188.156651 205.664906 
L 187.630093 209.474432 
L 187.389935 209.57726 
L 187.257611 209.484226 
L 191.217402 205.620836 
L 191.431178 204.768836 
L 191.268274 204.382005 
L 190.761915 204.004971 
L 190.368979 203.985382 
L 189.381989 203.451658 
L 189.19817 203.260693 
L 188.513397 202.800415 
L 187.89049 202.320552 
L 187.40896 202.070826 
L 187.198893 201.757446 
L 186.773261 201.595859 
L 186.220373 200.954411 
L 184.573898 199.500131 
L 183.967002 198.765645 
L 183.951747 198.506127 
L 183.121532 197.908746 
L 182.886943 197.561089 
L 181.931494 196.601364 
L 179.612538 193.873976 
L 179.417081 193.570389 
L 179.003159 193.281491 
L 178.174772 192.174868 
L 177.899201 191.959419 
L 176.733654 190.593277 
L 176.121527 190.025276 
L 175.63218 189.285895 
L 174.774378 188.316375 
L 172.534626 185.936644 
L 172.36742 185.637954 
L 171.965636 185.4274 
L 171.530318 184.830019 
L 169.814488 183.135808 
L 169.553937 182.484566 
L 169.893264 181.245733 
L 169.843332 181.040078 
L 169.947191 180.785457 
L 169.856206 180.614077 
L 169.851526 180.42801 
L 169.806989 180.310492 
L 169.959819 180.124422 
L 169.863705 180.109732 
L 169.78118 180.002007 
L 169.983513 179.781662 
L 170.02287 179.698421 
L 169.818228 179.580903 
L 169.95233 179.424213 
L 169.814488 179.311592 
L 169.853876 179.3018 
L 169.972019 179.037384 
L 169.757742 178.978625 
L 169.806039 178.983522 
L 169.931936 178.841522 
L 169.903103 178.856212 
L 169.78868 178.768073 
L 169.859261 178.724004 
L 169.845682 178.67014 
L 170.054513 178.640763 
L 169.844027 178.572209 
L 169.769941 178.557521 
L 170.018895 178.488968 
L 169.964529 178.449796 
L 169.771341 178.371452 
L 170.10233 178.371452 
L 169.814488 178.351865 
L 169.935686 178.185382 
L 169.884804 178.160898 
L 169.845437 178.077657 
L 169.86677 178.077657 
L 169.997797 178.053174 
L 169.845437 178.04338 
L 169.927951 178.009105 
L 169.756791 177.999312 
L 169.994752 177.935658 
L 169.809083 177.925864 
L 169.87192 177.803449 
L 170.040924 177.81814 
L 169.842382 177.720207 
L 170.001546 177.739794 
L 170.02194 177.68593 
L 169.837222 177.739794 
L 169.971068 177.617381 
L 169.806754 177.617381 
L 170.094585 177.583104 
L 169.842361 177.553725 
L 170.059897 177.514553 
L 169.975768 177.470483 
L 169.727243 177.455794 
L 170.02333 177.362758 
L 169.833237 177.406829 
L 169.962874 177.308898 
L 169.854571 177.431311 
L 169.921852 177.333378 
L 169.790795 177.284414 
L 169.964294 177.299103 
L 169.888554 177.284414 
L 170.108879 177.284414 
L 169.763596 177.245242 
L 169.892314 177.201172 
L 170.027795 177.093447 
L 169.962639 177.108137 
L 169.797589 177.083654 
L 170.014911 177.04938 
L 169.827832 176.995516 
L 170.021 177.04938 
L 169.866525 177.034688 
L 169.800644 177.064067 
L 170.771552 176.682136 
L 172.534381 176.158204 
L 172.767008 175.957444 
L 173.265969 175.854616 
L 173.540365 175.570615 
L 173.916923 175.536341 
L 174.27369 175.325789 
L 174.65412 175.271925 
L 176.018966 174.537441 
L 177.025348 174.170199 
L 178.657528 173.357367 
L 179.304589 173.097851 
L 180.23566 172.632676 
L 181.325261 172.191985 
L 182.362081 171.668053 
L 183.64105 171.031501 
L 185.117724 170.404738 
L 185.254451 170.218671 
L 185.728973 170.115842 
L 185.932358 169.880808 
L 186.755994 169.547839 
L 189.053371 168.446113 
L 200.228986 163.167616 
L 201.53829 162.648581 
L 202.212703 162.320511 
L 212.612223 157.487599 
L 215.326701 156.229181 
L 215.86366 155.9207 
L 217.683042 155.112766 
L 218.057842 155.044214 
L 218.269871 154.843455 
L 218.68408 154.696557 
L 219.022119 154.441936 
L 220.012337 154.118763 
L 220.938003 153.634004 
L 222.95041 152.625312 
L 223.669778 152.444137 
L 224.339909 152.106273 
L 229.776455 149.594338 
L 230.354427 149.344613 
L 231.061831 148.982266 
L 234.860556 147.27826 
L 234.988987 147.101985 
L 235.397515 146.984471 
L 236.000294 146.578055 
L 236.75574 146.318535 
L 237.050999 146.11288 
L 237.851768 145.770117 
L 239.441067 145.065016 
L 239.803474 144.761427 
L 240.821933 144.350115 
L 241.877338 143.992668 
L 242.102568 143.782114 
L 242.906402 143.473631 
L 246.191382 141.84797 
L 246.609371 141.710866 
L 247.23896 141.319142 
L 248.557051 140.638518 
L 249.326944 140.359417 
L 249.840506 139.98238 
L 250.644443 139.698378 
L 252.861124 138.459549 
L 253.384433 138.293064 
L 253.86534 137.969892 
L 254.540845 137.69079 
L 255.990004 137.07382 
L 256.230008 136.824095 
L 261.455352 134.258298 
L 261.531226 134.018365 
L 262.328889 133.734366 
L 263.474308 133.16147 
L 264.312473 132.627739 
L 264.780874 132.471053 
L 264.986671 132.240912 
L 265.535155 132.084224 
L 265.65061 131.907947 
L 268.632546 130.321459 
L 269.224515 130.174558 
L 269.381248 129.944418 
L 270.768285 129.224625 
L 271.153742 129.116905 
L 271.489401 128.876972 
L 271.48797 128.725176 
L 272.122831 128.573383 
L 273.84941 127.594067 
L 277.207709 125.772548 
L 277.405045 125.522824 
L 279.829995 124.269296 
L 280.547617 123.848195 
L 281.195413 123.515229 
L 282.441472 122.72688 
L 287.568649 119.823215 
L 288.574459 119.211143 
L 288.877606 118.9908 
L 289.324714 118.843905 
L 290.131757 118.22204 
L 291.165399 117.69811 
L 303.016407 110.196573 
L 303.303125 109.941946 
L 304.250512 109.515949 
L 304.266124 109.334775 
L 304.771839 109.119328 
L 304.990407 108.879395 
L 305.651813 108.453392 
L 306.438973 107.953942 
L 308.665565 106.328286 
L 309.758487 105.66235 
L 311.790297 104.252141 
L 316.210805 101.113439 
L 316.399804 100.824545 
L 317.228855 100.354473 
L 318.067102 99.605297 
L 321.706438 97.06888 
L 321.837178 96.770188 
L 322.165909 96.618397 
L 326.461194 93.229976 
L 326.961433 93.014525 
L 327.164082 92.715833 
L 327.603936 92.500391 
L 328.154873 91.96176 
L 328.644383 91.75121 
L 328.839145 91.477004 
L 329.616558 90.957969 
L 330.240302 90.424241 
L 331.884918 89.082576 
L 332.724349 88.602723 
L 333.546064 87.804579 
L 335.053747 86.795887 
L 335.840887 85.948782 
L 336.389698 85.708845 
L 337.232502 84.905812 
L 337.770789 84.641398 
L 338.576013 83.823671 
L 339.106474 83.578842 
L 340.3218 82.545663 
L 343.712569 79.906417 
L 345.090248 78.868348 
L 346.979158 77.301451 
L 347.846401 76.782405 
L 348.346599 76.327024 
L 357.858503 69.178044 
L 357.708391 69.138864 
L 357.620747 68.952798 
L 357.767773 68.879362 
L 357.603173 68.810816 
L 357.725372 68.742259 
L 357.47374 68.468042 
L 357.341447 67.635622 
L 357.21136 67.557283 
L 357.244158 67.503421 
L 357.440943 67.410378 
L 357.375368 67.425083 
L 357.391205 67.312454 
L 357.271336 67.25369 
L 357.366622 67.190034 
L 357.517307 67.141073 
L 357.350193 67.092112 
L 357.405652 66.700388 
L 357.268782 66.63672 
L 357.430256 66.607344 
L 357.487043 66.524105 
L 357.410128 66.50452 
L 357.437857 65.951206 
L 357.511646 65.867967 
L 357.336359 65.853283 
L 357.350786 65.828797 
L 357.391798 65.554581 
L 357.435896 65.608454 
L 357.291423 65.525215 
L 357.386117 65.505619 
L 357.336931 65.407697 
L 357.208254 65.392992 
L 357.454246 65.344029 
L 357.293977 65.250997 
L 357.412661 65.250997 
L 357.34255 64.967 
L 357.437285 64.854383 
L 357.312307 64.864165 
L 357.396273 64.849481 
L 357.451712 64.820105 
L 357.337503 64.678099 
L 357.404488 64.668319 
L 357.444887 64.599751 
L 357.375368 64.599751 
L 357.285783 64.555691 
L 357.303561 64.531194 
L 357.465567 64.423478 
L 357.302151 64.315752 
L 357.367767 64.252107 
L 357.49017 64.232513 
L 357.299045 64.193343 
L 357.281492 64.080727 
L 357.309753 64.070924 
L 357.438409 63.953406 
L 357.419527 63.924028 
L 357.252393 63.860372 
L 357.424595 63.821204 
L 357.48643 63.777132 
L 357.337503 63.826095 
L 357.411926 63.718379 
L 357.416381 63.6792 
L 357.437857 63.713478 
L 357.282085 63.757538 
L 357.425903 63.644932 
L 357.293977 63.458857 
L 357.369728 63.507829 
L 357.38299 63.360922 
L 357.478256 63.297268 
L 357.346351 63.321754 
L 357.34063 63.27278 
L 357.277568 63.287464 
L 357.448565 63.194443 
L 357.437857 63.209126 
L 357.487043 63.120994 
L 357.359593 63.14548 
L 357.59929 63.204245 
L 357.32561 63.032865 
L 357.346351 63.076923 
L 357.428253 62.783134 
L 357.356487 62.876155 
L 357.468121 62.788035 
L 357.359 62.827194 
L 357.323076 62.504027 
L 357.389264 62.533403 
L 357.449811 62.469748 
L 357.307239 62.474649 
L 357.441556 62.459956 
L 357.300251 62.445273 
L 357.435323 62.371825 
L 357.466752 62.308159 
L 357.413867 62.406092 
L 357.304113 62.259198 
L 357.485674 62.362021 
L 357.355261 62.264099 
L 357.47182 62.234721 
L 357.258074 62.288585 
L 357.34063 62.185738 
L 357.413867 62.18086 
L 357.383583 62.112302 
L 357.464994 62.122095 
L 357.281288 62.141678 
L 357.337503 62.097618 
L 357.454859 61.931128 
L 357.367767 61.965396 
L 357.471227 61.989882 
L 357.276976 61.921336 
L 357.351399 61.877276 
L 357.441556 61.705894 
L 357.353932 61.931128 
L 357.307239 61.749954 
L 357.319929 61.696092 
L 357.319929 61.745053 
L 357.451712 61.686289 
L 357.37968 61.617754 
L 357.299617 61.514929 
L 357.457965 61.617754 
L 357.398623 61.583464 
L 357.393719 61.377826 
L 357.442741 61.407204 
L 357.430235 61.353329 
L 357.338096 61.436568 
L 357.291995 61.387607 
L 357.393759 61.3974 
L 357.484509 61.372925 
L 357.351399 61.328843 
L 357.359572 61.333744 
L 357.521006 61.240723 
L 357.280715 61.314161 
L 357.403691 61.206433 
L 357.320522 61.196641 
L 357.454879 61.230919 
L 357.427701 61.157472 
L 357.487656 61.118302 
L 357.224479 61.123194 
L 357.405652 61.025259 
L 357.259218 60.981201 
L 357.47748 60.981201 
L 357.319173 60.873474 
L 357.52356 60.795124 
L 357.232081 60.800027 
L 357.280123 60.804916 
L 357.215141 60.770649 
L 357.539948 60.770649 
L 357.412478 60.69229 
L 357.301395 60.623744 
L 357.39801 60.746152 
L 357.40177 60.638426 
L 357.521006 60.643327 
L 357.29455 60.589465 
L 357.381049 60.574781 
L 357.452877 60.535602 
L 357.264286 60.550306 
L 357.244771 60.535602 
L 357.382214 60.535602 
L 357.395476 60.516028 
L 357.499549 60.496445 
L 357.293405 60.545405 
L 357.152611 60.471946 
L 357.508316 60.344635 
L 357.472433 60.398499 
L 357.305911 60.344635 
L 357.488208 60.383816 
L 357.345697 60.310356 
L 357.498936 60.251603 
L 357.251044 60.285882 
L 357.302785 60.23202 
L 357.384768 60.036152 
L 357.187391 60.202642 
L 357.413847 60.10961 
L 357.280123 60.085113 
L 357.480014 60.060638 
L 357.463605 60.050857 
L 357.336175 60.001874 
L 357.353136 60.041053 
L 357.269967 60.075332 
L 357.42574 59.982288 
L 357.370893 59.962714 
L 357.540561 59.972496 
L 357.237169 59.923535 
L 357.387874 59.884365 
L 357.462849 59.810907 
L 357.295163 59.957814 
L 357.374612 59.850086 
L 357.260587 59.835393 
L 357.546201 59.923535 
L 357.269374 59.806017 
L 357.472433 59.69829 
L 357.226421 59.77665 
L 357.309589 59.742361 
L 357.334213 59.639547 
L 357.50521 59.761946 
L 357.240888 59.639547 
L 357.464831 59.644428 
L 357.47182 59.590564 
L 357.368359 59.644428 
L 357.245956 59.659121 
L 357.483712 59.624843 
L 357.393535 59.570979 
L 357.299617 59.453461 
L 357.42574 59.590564 
L 357.474966 59.536701 
L 355.827531 59.835393 
L 350.495232 61.887057 
L 329.429132 71.40109 
L 325.641114 73.217707 
L 317.926757 76.704066 
L 314.365523 78.412967 
L 307.166812 81.713253 
L 300.260785 84.891118 
L 296.922921 86.369884 
L 293.824672 87.897611 
L 290.440646 89.337208 
L 284.226105 92.304524 
L 281.040887 93.636385 
L 245.556562 110.162295 
L 240.642252 112.404918 
L 236.044474 114.583888 
L 224.695011 119.7008 
L 216.460594 123.53482 
L 206.817327 127.892753 
L 205.110764 128.783935 
L 201.35113 130.394906 
L 194.419969 133.602155 
L 175.766129 141.887145 
L 174.260949 142.469835 
L 168.850569 144.976876 
L 164.886927 146.617227 
L 159.946747 148.845163 
L 157.513214 149.814685 
L 155.262489 150.867446 
L 150.763339 152.772209 
L 148.773859 153.66828 
L 130.425362 161.458716 
L 129.313512 161.767201 
L 128.686207 162.173613 
L 122.795824 164.60231 
L 122.339275 164.915691 
L 121.380025 165.077276 
L 120.906316 165.405346 
L 115.145709 167.7508 
L 114.471399 167.878114 
L 114.110182 168.171907 
L 112.907423 168.63708 
L 105.874703 171.526051 
L 104.417815 172.020606 
L 104.035004 172.236055 
L 103.503838 172.392745 
L 103.19734 172.617986 
L 90.267996 177.769174 
L 89.739086 178.062967 
L 89.274291 178.111933 
L 89.323061 178.224554 
L 88.831247 178.371452 
L 86.802526 179.179384 
L 86.859272 179.213661 
L 85.974351 179.434005 
L 84.852171 179.89918 
L 84.433303 180.080353 
L 84.382901 180.085248 
L 84.321884 180.217458 
L 84.046604 180.334974 
L 83.501683 180.525941 
L 83.104124 180.525941 
L 82.866932 180.75118 
L 82.250848 180.991112 
L 82.119601 181.098837 
L 81.398207 181.324079 
L 80.696612 181.647252 
L 78.670394 182.411117 
L 78.720819 182.440496 
L 78.18797 182.553117 
L 78.330715 182.655945 
L 78.165699 182.587394 
L 76.395623 183.282706 
L 76.238347 183.400222 
L 74.687234 183.948638 
L 74.769866 184.01719 
L 74.581124 183.968225 
L 74.550712 184.026984 
L 74.589033 184.01719 
L 74.15747 184.056362 
L 74.179097 184.198362 
L 73.842438 184.237536 
L 73.751635 184.379536 
L 73.822655 184.355054 
L 73.52405 184.379536 
L 73.608872 184.408916 
L 73.353449 184.438295 
L 73.295382 184.438295 
L 73.41477 184.531329 
L 72.926964 184.590088 
L 73.020803 184.526432 
L 72.179211 184.898571 
L 72.224835 184.795745 
L 72.211024 184.81533 
L 72.382268 184.78595 
L 72.165396 184.825124 
L 72.393038 184.903468 
L 71.973195 184.869193 
L 72.197002 184.869193 
L 71.7155 185.001399 
L 72.053504 185.001399 
L 71.594311 185.020986 
L 71.810633 185.11402 
L 71.777839 185.104228 
L 71.103879 185.177676 
L 71.166378 185.236435 
L 71.190276 185.319677 
L 71.196192 185.30009 
L 71.398724 185.202159 
L 71.071964 185.290297 
L 71.080894 185.216848 
L 71.109783 185.236435 
L 71.325275 185.216848 
L 71.085831 185.241331 
L 71.065887 185.329469 
L 71.119626 185.368641 
L 71.175288 185.216848 
L 71.15041 185.309884 
L 70.891064 185.280505 
L 71.185164 185.265815 
L 71.060948 185.280505 
L 70.974482 185.383331 
L 70.84223 185.334366 
L 71.141485 185.334366 
L 71.141485 185.334366 
" style="fill:none;stroke:#2ca02c;stroke-linecap:square;"/>
   </g>
   <g id="patch_3">
    <path d="M 56.0625 232.46 
L 56.0625 10.7 
" style="fill:none;stroke:#000000;stroke-linecap:square;stroke-linejoin:miter;stroke-width:0.8;"/>
   </g>
   <g id="patch_4">
    <path d="M 390.8625 232.46 
L 390.8625 10.7 
" style="fill:none;stroke:#000000;stroke-linecap:square;stroke-linejoin:miter;stroke-width:0.8;"/>
   </g>
   <g id="patch_5">
    <path d="M 56.0625 232.46 
L 390.8625 232.46 
" style="fill:none;stroke:#000000;stroke-linecap:square;stroke-linejoin:miter;stroke-width:0.8;"/>
   </g>
   <g id="patch_6">
    <path d="M 56.0625 10.7 
L 390.8625 10.7 
" style="fill:none;stroke:#000000;stroke-linecap:square;stroke-linejoin:miter;stroke-width:0.8;"/>
   </g>
   <g id="patch_7">
    <path d="M 163.1985 229.344566 
Q 163.1985 204.773352 163.1985 179.084104 
" style="fill:none;stroke:#000000;stroke-linecap:round;"/>
    <path d="M 165.7985 224.144566 
L 163.1985 229.344566 
L 160.5985 224.144566 
" style="fill:none;stroke:#000000;stroke-linecap:round;"/>
   </g>
   <g id="text_15">
    <!-- 160 °C -->
    <g transform="translate(169.8945 229.87625)scale(0.13 -0.13)">
     <use xlink:href="#ArialMT-31"/>
     <use x="55.615234" xlink:href="#ArialMT-36"/>
     <use x="111.230469" xlink:href="#ArialMT-30"/>
     <use x="166.845703" xlink:href="#ArialMT-20"/>
     <use x="194.628906" xlink:href="#ArialMT-b0"/>
     <use x="234.619141" xlink:href="#ArialMT-43"/>
    </g>
   </g>
   <g id="patch_8">
    <path d="M 143.1105 229.341042 
Q 143.1105 197.951064 143.1105 165.443052 
" style="fill:none;stroke:#000000;stroke-linecap:round;"/>
    <path d="M 145.7105 224.141042 
L 143.1105 229.341042 
L 140.5105 224.141042 
" style="fill:none;stroke:#000000;stroke-linecap:round;"/>
   </g>
   <g id="text_16">
    <!-- 130 °C -->
    <g transform="translate(96.528875 229.87625)scale(0.13 -0.13)">
     <use xlink:href="#ArialMT-31"/>
     <use x="55.615234" xlink:href="#ArialMT-33"/>
     <use x="111.230469" xlink:href="#ArialMT-30"/>
     <use x="166.845703" xlink:href="#ArialMT-20"/>
     <use x="194.628906" xlink:href="#ArialMT-b0"/>
     <use x="234.619141" xlink:href="#ArialMT-43"/>
    </g>
   </g>
   <g id="text_17">
    <!-- $T_T =$170 °C -->
    <defs>
     <path d="M 5.90625 72.90625 
L 67.578125 72.90625 
L 66.015625 64.59375 
L 39.984375 64.59375 
L 27.484375 0 
L 17.578125 0 
L 30.078125 64.59375 
L 4.296875 64.59375 
z
" id="DejaVuSans-Oblique-54"/>
     <path d="M 10.59375 45.40625 
L 73.1875 45.40625 
L 73.1875 37.203125 
L 10.59375 37.203125 
z
M 10.59375 25.484375 
L 73.1875 25.484375 
L 73.1875 17.1875 
L 10.59375 17.1875 
z
" id="DejaVuSans-3d"/>
     <path d="M 4.734375 62.203125 
L 4.734375 70.65625 
L 51.078125 70.65625 
L 51.078125 63.8125 
Q 44.234375 56.546875 37.515625 44.484375 
Q 30.8125 32.421875 27.15625 19.671875 
Q 24.515625 10.6875 23.78125 0 
L 14.75 0 
Q 14.890625 8.453125 18.0625 20.40625 
Q 21.234375 32.375 27.171875 43.484375 
Q 33.109375 54.59375 39.796875 62.203125 
z
" id="ArialMT-37"/>
    </defs>
    <g transform="translate(314.3565 225.44105)scale(0.13 -0.13)">
     <use transform="translate(0 0.09375)" xlink:href="#DejaVuSans-Oblique-54"/>
     <use transform="translate(61.083984 -16.3125)scale(0.7)" xlink:href="#DejaVuSans-Oblique-54"/>
     <use transform="translate(126.05957 0.09375)" xlink:href="#DejaVuSans-3d"/>
     <use transform="translate(229.331055 0.09375)" xlink:href="#ArialMT-31"/>
     <use transform="translate(284.946289 0.09375)" xlink:href="#ArialMT-37"/>
     <use transform="translate(340.561523 0.09375)" xlink:href="#ArialMT-30"/>
     <use transform="translate(396.176758 0.09375)" xlink:href="#ArialMT-20"/>
     <use transform="translate(423.959961 0.09375)" xlink:href="#ArialMT-b0"/>
     <use transform="translate(463.950195 0.09375)" xlink:href="#ArialMT-43"/>
    </g>
   </g>
   <g id="legend_1">
    <g id="patch_9">
     <path d="M 62.5625 76.266719 
L 179.0425 76.266719 
L 179.0425 17.2 
L 62.5625 17.2 
z
" style="fill:#ffffff;opacity:0.8;stroke:#cccccc;stroke-linejoin:miter;"/>
    </g>
    <g id="line2d_18">
     <path d="M 67.7625 27.155156 
L 93.7625 27.155156 
" style="fill:none;stroke:#1f77b4;stroke-linecap:square;"/>
    </g>
    <g id="line2d_19"/>
    <g id="text_18">
     <!-- $T_P =$300 °C -->
     <defs>
      <path d="M 16.890625 72.90625 
L 39.703125 72.90625 
Q 49.65625 72.90625 54.875 68.265625 
Q 60.109375 63.625 60.109375 54.6875 
Q 60.109375 42.671875 52.390625 35.984375 
Q 44.671875 29.296875 30.71875 29.296875 
L 18.3125 29.296875 
L 12.59375 0 
L 2.6875 0 
z
M 25.203125 64.796875 
L 19.921875 37.40625 
L 32.328125 37.40625 
Q 40.71875 37.40625 45.203125 41.703125 
Q 49.703125 46 49.703125 54 
Q 49.703125 59.125 46.65625 61.953125 
Q 43.609375 64.796875 38.09375 64.796875 
z
" id="DejaVuSans-Oblique-50"/>
     </defs>
     <g transform="translate(104.1625 31.705156)scale(0.13 -0.13)">
      <use transform="translate(0 0.09375)" xlink:href="#DejaVuSans-Oblique-54"/>
      <use transform="translate(61.083984 -16.3125)scale(0.7)" xlink:href="#DejaVuSans-Oblique-50"/>
      <use transform="translate(125.512695 0.09375)" xlink:href="#DejaVuSans-3d"/>
      <use transform="translate(228.78418 0.09375)" xlink:href="#ArialMT-33"/>
      <use transform="translate(284.399414 0.09375)" xlink:href="#ArialMT-30"/>
      <use transform="translate(340.014648 0.09375)" xlink:href="#ArialMT-30"/>
      <use transform="translate(395.629883 0.09375)" xlink:href="#ArialMT-20"/>
      <use transform="translate(423.413086 0.09375)" xlink:href="#ArialMT-b0"/>
      <use transform="translate(463.40332 0.09375)" xlink:href="#ArialMT-43"/>
     </g>
    </g>
    <g id="line2d_20">
     <path d="M 67.7625 45.544062 
L 93.7625 45.544062 
" style="fill:none;stroke:#ff7f0e;stroke-linecap:square;"/>
    </g>
    <g id="line2d_21"/>
    <g id="text_19">
     <!-- $T_P =$375 °C -->
     <g transform="translate(104.1625 50.094062)scale(0.13 -0.13)">
      <use transform="translate(0 0.09375)" xlink:href="#DejaVuSans-Oblique-54"/>
      <use transform="translate(61.083984 -16.3125)scale(0.7)" xlink:href="#DejaVuSans-Oblique-50"/>
      <use transform="translate(125.512695 0.09375)" xlink:href="#DejaVuSans-3d"/>
      <use transform="translate(228.78418 0.09375)" xlink:href="#ArialMT-33"/>
      <use transform="translate(284.399414 0.09375)" xlink:href="#ArialMT-37"/>
      <use transform="translate(340.014648 0.09375)" xlink:href="#ArialMT-35"/>
      <use transform="translate(395.629883 0.09375)" xlink:href="#ArialMT-20"/>
      <use transform="translate(423.413086 0.09375)" xlink:href="#ArialMT-b0"/>
      <use transform="translate(463.40332 0.09375)" xlink:href="#ArialMT-43"/>
     </g>
    </g>
    <g id="line2d_22">
     <path d="M 67.7625 63.932969 
L 93.7625 63.932969 
" style="fill:none;stroke:#2ca02c;stroke-linecap:square;"/>
    </g>
    <g id="line2d_23"/>
    <g id="text_20">
     <!-- $T_P =$450 °C -->
     <g transform="translate(104.1625 68.482969)scale(0.13 -0.13)">
      <use transform="translate(0 0.09375)" xlink:href="#DejaVuSans-Oblique-54"/>
      <use transform="translate(61.083984 -16.3125)scale(0.7)" xlink:href="#DejaVuSans-Oblique-50"/>
      <use transform="translate(125.512695 0.09375)" xlink:href="#DejaVuSans-3d"/>
      <use transform="translate(228.78418 0.09375)" xlink:href="#ArialMT-34"/>
      <use transform="translate(284.399414 0.09375)" xlink:href="#ArialMT-35"/>
      <use transform="translate(340.014648 0.09375)" xlink:href="#ArialMT-30"/>
      <use transform="translate(395.629883 0.09375)" xlink:href="#ArialMT-20"/>
      <use transform="translate(423.413086 0.09375)" xlink:href="#ArialMT-b0"/>
      <use transform="translate(463.40332 0.09375)" xlink:href="#ArialMT-43"/>
     </g>
    </g>
   </g>
  </g>
 </g>
 <defs>
  <clipPath id="p655a5590b9">
   <rect height="221.76" width="334.8" x="56.0625" y="10.7"/>
  </clipPath>
 </defs>
</svg>
