<?xml version="1.0" encoding="utf-8" standalone="no"?>
<!DOCTYPE svg PUBLIC "-//W3C//DTD SVG 1.1//EN"
  "http://www.w3.org/Graphics/SVG/1.1/DTD/svg11.dtd">
<!-- Created with matplotlib (http://matplotlib.org/) -->
<svg height="274pt" version="1.1" viewBox="0 0 393 274" width="393pt" xmlns="http://www.w3.org/2000/svg" xmlns:xlink="http://www.w3.org/1999/xlink">
 <defs>
  <style type="text/css">
*{stroke-linecap:butt;stroke-linejoin:round;}
  </style>
 </defs>
 <g id="figure_1">
  <g id="patch_1">
   <path d="M 0 274.748594 
L 393.969687 274.748594 
L 393.969687 0 
L 0 0 
z
" style="fill:#ffffff;"/>
  </g>
  <g id="axes_1">
   <g id="patch_2">
    <path d="M 48.469688 232.46 
L 383.269688 232.46 
L 383.269688 10.7 
L 48.469688 10.7 
z
" style="fill:#ffffff;"/>
   </g>
   <g id="matplotlib.axis_1">
    <g id="xtick_1">
     <g id="line2d_1">
      <defs>
       <path d="M 0 0 
L 0 3.5 
" id="m73ae90bb4f" style="stroke:#000000;stroke-width:0.8;"/>
      </defs>
      <g>
       <use style="stroke:#000000;stroke-width:0.8;" x="63.687869" xlink:href="#m73ae90bb4f" y="232.46"/>
      </g>
     </g>
     <g id="text_1">
      <!-- 0.0 -->
      <defs>
       <path d="M 4.15625 35.296875 
Q 4.15625 48 6.765625 55.734375 
Q 9.375 63.484375 14.515625 67.671875 
Q 19.671875 71.875 27.484375 71.875 
Q 33.25 71.875 37.59375 69.546875 
Q 41.9375 67.234375 44.765625 62.859375 
Q 47.609375 58.5 49.21875 52.21875 
Q 50.828125 45.953125 50.828125 35.296875 
Q 50.828125 22.703125 48.234375 14.96875 
Q 45.65625 7.234375 40.5 3 
Q 35.359375 -1.21875 27.484375 -1.21875 
Q 17.140625 -1.21875 11.234375 6.203125 
Q 4.15625 15.140625 4.15625 35.296875 
z
M 13.1875 35.296875 
Q 13.1875 17.671875 17.3125 11.828125 
Q 21.4375 6 27.484375 6 
Q 33.546875 6 37.671875 11.859375 
Q 41.796875 17.71875 41.796875 35.296875 
Q 41.796875 52.984375 37.671875 58.78125 
Q 33.546875 64.59375 27.390625 64.59375 
Q 21.34375 64.59375 17.71875 59.46875 
Q 13.1875 52.9375 13.1875 35.296875 
z
" id="ArialMT-30"/>
       <path d="M 9.078125 0 
L 9.078125 10.015625 
L 19.09375 10.015625 
L 19.09375 0 
z
" id="ArialMT-2e"/>
      </defs>
      <g transform="translate(54.652869 248.765156)scale(0.13 -0.13)">
       <use xlink:href="#ArialMT-30"/>
       <use x="55.615234" xlink:href="#ArialMT-2e"/>
       <use x="83.398438" xlink:href="#ArialMT-30"/>
      </g>
     </g>
    </g>
    <g id="xtick_2">
     <g id="line2d_2">
      <g>
       <use style="stroke:#000000;stroke-width:0.8;" x="114.511084" xlink:href="#m73ae90bb4f" y="232.46"/>
      </g>
     </g>
     <g id="text_2">
      <!-- 2.5 -->
      <defs>
       <path d="M 50.34375 8.453125 
L 50.34375 0 
L 3.03125 0 
Q 2.9375 3.171875 4.046875 6.109375 
Q 5.859375 10.9375 9.828125 15.625 
Q 13.8125 20.3125 21.34375 26.46875 
Q 33.015625 36.03125 37.109375 41.625 
Q 41.21875 47.21875 41.21875 52.203125 
Q 41.21875 57.421875 37.46875 61 
Q 33.734375 64.59375 27.734375 64.59375 
Q 21.390625 64.59375 17.578125 60.78125 
Q 13.765625 56.984375 13.71875 50.25 
L 4.6875 51.171875 
Q 5.609375 61.28125 11.65625 66.578125 
Q 17.71875 71.875 27.9375 71.875 
Q 38.234375 71.875 44.234375 66.15625 
Q 50.25 60.453125 50.25 52 
Q 50.25 47.703125 48.484375 43.546875 
Q 46.734375 39.40625 42.65625 34.8125 
Q 38.578125 30.21875 29.109375 22.21875 
Q 21.1875 15.578125 18.9375 13.203125 
Q 16.703125 10.84375 15.234375 8.453125 
z
" id="ArialMT-32"/>
       <path d="M 4.15625 18.75 
L 13.375 19.53125 
Q 14.40625 12.796875 18.140625 9.390625 
Q 21.875 6 27.15625 6 
Q 33.5 6 37.890625 10.78125 
Q 42.28125 15.578125 42.28125 23.484375 
Q 42.28125 31 38.0625 35.34375 
Q 33.84375 39.703125 27 39.703125 
Q 22.75 39.703125 19.328125 37.765625 
Q 15.921875 35.84375 13.96875 32.765625 
L 5.71875 33.84375 
L 12.640625 70.609375 
L 48.25 70.609375 
L 48.25 62.203125 
L 19.671875 62.203125 
L 15.828125 42.96875 
Q 22.265625 47.46875 29.34375 47.46875 
Q 38.71875 47.46875 45.15625 40.96875 
Q 51.609375 34.46875 51.609375 24.265625 
Q 51.609375 14.546875 45.953125 7.46875 
Q 39.0625 -1.21875 27.15625 -1.21875 
Q 17.390625 -1.21875 11.203125 4.25 
Q 5.03125 9.71875 4.15625 18.75 
z
" id="ArialMT-35"/>
      </defs>
      <g transform="translate(105.476084 248.765156)scale(0.13 -0.13)">
       <use xlink:href="#ArialMT-32"/>
       <use x="55.615234" xlink:href="#ArialMT-2e"/>
       <use x="83.398438" xlink:href="#ArialMT-35"/>
      </g>
     </g>
    </g>
    <g id="xtick_3">
     <g id="line2d_3">
      <g>
       <use style="stroke:#000000;stroke-width:0.8;" x="165.334298" xlink:href="#m73ae90bb4f" y="232.46"/>
      </g>
     </g>
     <g id="text_3">
      <!-- 5.0 -->
      <g transform="translate(156.299298 248.765156)scale(0.13 -0.13)">
       <use xlink:href="#ArialMT-35"/>
       <use x="55.615234" xlink:href="#ArialMT-2e"/>
       <use x="83.398438" xlink:href="#ArialMT-30"/>
      </g>
     </g>
    </g>
    <g id="xtick_4">
     <g id="line2d_4">
      <g>
       <use style="stroke:#000000;stroke-width:0.8;" x="216.157512" xlink:href="#m73ae90bb4f" y="232.46"/>
      </g>
     </g>
     <g id="text_4">
      <!-- 7.5 -->
      <defs>
       <path d="M 4.734375 62.203125 
L 4.734375 70.65625 
L 51.078125 70.65625 
L 51.078125 63.8125 
Q 44.234375 56.546875 37.515625 44.484375 
Q 30.8125 32.421875 27.15625 19.671875 
Q 24.515625 10.6875 23.78125 0 
L 14.75 0 
Q 14.890625 8.453125 18.0625 20.40625 
Q 21.234375 32.375 27.171875 43.484375 
Q 33.109375 54.59375 39.796875 62.203125 
z
" id="ArialMT-37"/>
      </defs>
      <g transform="translate(207.122512 248.765156)scale(0.13 -0.13)">
       <use xlink:href="#ArialMT-37"/>
       <use x="55.615234" xlink:href="#ArialMT-2e"/>
       <use x="83.398438" xlink:href="#ArialMT-35"/>
      </g>
     </g>
    </g>
    <g id="xtick_5">
     <g id="line2d_5">
      <g>
       <use style="stroke:#000000;stroke-width:0.8;" x="266.980726" xlink:href="#m73ae90bb4f" y="232.46"/>
      </g>
     </g>
     <g id="text_5">
      <!-- 10.0 -->
      <defs>
       <path d="M 37.25 0 
L 28.46875 0 
L 28.46875 56 
Q 25.296875 52.984375 20.140625 49.953125 
Q 14.984375 46.921875 10.890625 45.40625 
L 10.890625 53.90625 
Q 18.265625 57.375 23.78125 62.296875 
Q 29.296875 67.234375 31.59375 71.875 
L 37.25 71.875 
z
" id="ArialMT-31"/>
      </defs>
      <g transform="translate(254.331117 248.765156)scale(0.13 -0.13)">
       <use xlink:href="#ArialMT-31"/>
       <use x="55.615234" xlink:href="#ArialMT-30"/>
       <use x="111.230469" xlink:href="#ArialMT-2e"/>
       <use x="139.013672" xlink:href="#ArialMT-30"/>
      </g>
     </g>
    </g>
    <g id="xtick_6">
     <g id="line2d_6">
      <g>
       <use style="stroke:#000000;stroke-width:0.8;" x="317.80394" xlink:href="#m73ae90bb4f" y="232.46"/>
      </g>
     </g>
     <g id="text_6">
      <!-- 12.5 -->
      <g transform="translate(305.154331 248.765156)scale(0.13 -0.13)">
       <use xlink:href="#ArialMT-31"/>
       <use x="55.615234" xlink:href="#ArialMT-32"/>
       <use x="111.230469" xlink:href="#ArialMT-2e"/>
       <use x="139.013672" xlink:href="#ArialMT-35"/>
      </g>
     </g>
    </g>
    <g id="xtick_7">
     <g id="line2d_7">
      <g>
       <use style="stroke:#000000;stroke-width:0.8;" x="368.627155" xlink:href="#m73ae90bb4f" y="232.46"/>
      </g>
     </g>
     <g id="text_7">
      <!-- 15.0 -->
      <g transform="translate(355.977545 248.765156)scale(0.13 -0.13)">
       <use xlink:href="#ArialMT-31"/>
       <use x="55.615234" xlink:href="#ArialMT-35"/>
       <use x="111.230469" xlink:href="#ArialMT-2e"/>
       <use x="139.013672" xlink:href="#ArialMT-30"/>
      </g>
     </g>
    </g>
    <g id="text_8">
     <!-- Tempo (min) -->
     <defs>
      <path d="M 25.921875 0 
L 25.921875 63.140625 
L 2.34375 63.140625 
L 2.34375 71.578125 
L 59.078125 71.578125 
L 59.078125 63.140625 
L 35.40625 63.140625 
L 35.40625 0 
z
" id="ArialMT-54"/>
      <path d="M 42.09375 16.703125 
L 51.171875 15.578125 
Q 49.03125 7.625 43.21875 3.21875 
Q 37.40625 -1.171875 28.375 -1.171875 
Q 17 -1.171875 10.328125 5.828125 
Q 3.65625 12.84375 3.65625 25.484375 
Q 3.65625 38.578125 10.390625 45.796875 
Q 17.140625 53.03125 27.875 53.03125 
Q 38.28125 53.03125 44.875 45.953125 
Q 51.46875 38.875 51.46875 26.03125 
Q 51.46875 25.25 51.421875 23.6875 
L 12.75 23.6875 
Q 13.234375 15.140625 17.578125 10.59375 
Q 21.921875 6.0625 28.421875 6.0625 
Q 33.25 6.0625 36.671875 8.59375 
Q 40.09375 11.140625 42.09375 16.703125 
z
M 13.234375 30.90625 
L 42.1875 30.90625 
Q 41.609375 37.453125 38.875 40.71875 
Q 34.671875 45.796875 27.984375 45.796875 
Q 21.921875 45.796875 17.796875 41.75 
Q 13.671875 37.703125 13.234375 30.90625 
z
" id="ArialMT-65"/>
      <path d="M 6.59375 0 
L 6.59375 51.859375 
L 14.453125 51.859375 
L 14.453125 44.578125 
Q 16.890625 48.390625 20.9375 50.703125 
Q 25 53.03125 30.171875 53.03125 
Q 35.9375 53.03125 39.625 50.640625 
Q 43.3125 48.25 44.828125 43.953125 
Q 50.984375 53.03125 60.84375 53.03125 
Q 68.5625 53.03125 72.703125 48.75 
Q 76.859375 44.484375 76.859375 35.59375 
L 76.859375 0 
L 68.109375 0 
L 68.109375 32.671875 
Q 68.109375 37.9375 67.25 40.25 
Q 66.40625 42.578125 64.15625 43.984375 
Q 61.921875 45.40625 58.890625 45.40625 
Q 53.421875 45.40625 49.796875 41.765625 
Q 46.1875 38.140625 46.1875 30.125 
L 46.1875 0 
L 37.40625 0 
L 37.40625 33.6875 
Q 37.40625 39.546875 35.25 42.46875 
Q 33.109375 45.40625 28.21875 45.40625 
Q 24.515625 45.40625 21.359375 43.453125 
Q 18.21875 41.5 16.796875 37.734375 
Q 15.375 33.984375 15.375 26.90625 
L 15.375 0 
z
" id="ArialMT-6d"/>
      <path d="M 6.59375 -19.875 
L 6.59375 51.859375 
L 14.59375 51.859375 
L 14.59375 45.125 
Q 17.4375 49.078125 21 51.046875 
Q 24.5625 53.03125 29.640625 53.03125 
Q 36.28125 53.03125 41.359375 49.609375 
Q 46.4375 46.1875 49.015625 39.953125 
Q 51.609375 33.734375 51.609375 26.3125 
Q 51.609375 18.359375 48.75 11.984375 
Q 45.90625 5.609375 40.453125 2.21875 
Q 35.015625 -1.171875 29 -1.171875 
Q 24.609375 -1.171875 21.109375 0.6875 
Q 17.625 2.546875 15.375 5.375 
L 15.375 -19.875 
z
M 14.546875 25.640625 
Q 14.546875 15.625 18.59375 10.84375 
Q 22.65625 6.0625 28.421875 6.0625 
Q 34.28125 6.0625 38.453125 11.015625 
Q 42.625 15.96875 42.625 26.375 
Q 42.625 36.28125 38.546875 41.203125 
Q 34.46875 46.140625 28.8125 46.140625 
Q 23.1875 46.140625 18.859375 40.890625 
Q 14.546875 35.640625 14.546875 25.640625 
z
" id="ArialMT-70"/>
      <path d="M 3.328125 25.921875 
Q 3.328125 40.328125 11.328125 47.265625 
Q 18.015625 53.03125 27.640625 53.03125 
Q 38.328125 53.03125 45.109375 46.015625 
Q 51.90625 39.015625 51.90625 26.65625 
Q 51.90625 16.65625 48.90625 10.90625 
Q 45.90625 5.171875 40.15625 2 
Q 34.421875 -1.171875 27.640625 -1.171875 
Q 16.75 -1.171875 10.03125 5.8125 
Q 3.328125 12.796875 3.328125 25.921875 
z
M 12.359375 25.921875 
Q 12.359375 15.96875 16.703125 11.015625 
Q 21.046875 6.0625 27.640625 6.0625 
Q 34.1875 6.0625 38.53125 11.03125 
Q 42.875 16.015625 42.875 26.21875 
Q 42.875 35.84375 38.5 40.796875 
Q 34.125 45.75 27.640625 45.75 
Q 21.046875 45.75 16.703125 40.8125 
Q 12.359375 35.890625 12.359375 25.921875 
z
" id="ArialMT-6f"/>
      <path id="ArialMT-20"/>
      <path d="M 23.390625 -21.046875 
Q 16.109375 -11.859375 11.078125 0.4375 
Q 6.0625 12.75 6.0625 25.921875 
Q 6.0625 37.546875 9.8125 48.1875 
Q 14.203125 60.546875 23.390625 72.796875 
L 29.6875 72.796875 
Q 23.78125 62.640625 21.875 58.296875 
Q 18.890625 51.5625 17.1875 44.234375 
Q 15.09375 35.109375 15.09375 25.875 
Q 15.09375 2.390625 29.6875 -21.046875 
z
" id="ArialMT-28"/>
      <path d="M 6.640625 61.46875 
L 6.640625 71.578125 
L 15.4375 71.578125 
L 15.4375 61.46875 
z
M 6.640625 0 
L 6.640625 51.859375 
L 15.4375 51.859375 
L 15.4375 0 
z
" id="ArialMT-69"/>
      <path d="M 6.59375 0 
L 6.59375 51.859375 
L 14.5 51.859375 
L 14.5 44.484375 
Q 20.21875 53.03125 31 53.03125 
Q 35.6875 53.03125 39.625 51.34375 
Q 43.5625 49.65625 45.515625 46.921875 
Q 47.46875 44.1875 48.25 40.4375 
Q 48.734375 37.984375 48.734375 31.890625 
L 48.734375 0 
L 39.9375 0 
L 39.9375 31.546875 
Q 39.9375 36.921875 38.90625 39.578125 
Q 37.890625 42.234375 35.28125 43.8125 
Q 32.671875 45.40625 29.15625 45.40625 
Q 23.53125 45.40625 19.453125 41.84375 
Q 15.375 38.28125 15.375 28.328125 
L 15.375 0 
z
" id="ArialMT-6e"/>
      <path d="M 12.359375 -21.046875 
L 6.0625 -21.046875 
Q 20.65625 2.390625 20.65625 25.875 
Q 20.65625 35.0625 18.5625 44.09375 
Q 16.890625 51.421875 13.921875 58.15625 
Q 12.015625 62.546875 6.0625 72.796875 
L 12.359375 72.796875 
Q 21.53125 60.546875 25.921875 48.1875 
Q 29.6875 37.546875 29.6875 25.921875 
Q 29.6875 12.75 24.625 0.4375 
Q 19.578125 -11.859375 12.359375 -21.046875 
z
" id="ArialMT-29"/>
     </defs>
     <g transform="translate(179.045156 264.8125)scale(0.13 -0.13)">
      <use xlink:href="#ArialMT-54"/>
      <use x="60.912109" xlink:href="#ArialMT-65"/>
      <use x="116.527344" xlink:href="#ArialMT-6d"/>
      <use x="199.828125" xlink:href="#ArialMT-70"/>
      <use x="255.443359" xlink:href="#ArialMT-6f"/>
      <use x="311.058594" xlink:href="#ArialMT-20"/>
      <use x="338.841797" xlink:href="#ArialMT-28"/>
      <use x="372.142578" xlink:href="#ArialMT-6d"/>
      <use x="455.443359" xlink:href="#ArialMT-69"/>
      <use x="477.660156" xlink:href="#ArialMT-6e"/>
      <use x="533.275391" xlink:href="#ArialMT-29"/>
     </g>
    </g>
   </g>
   <g id="matplotlib.axis_2">
    <g id="ytick_1">
     <g id="line2d_8">
      <defs>
       <path d="M 0 0 
L -3.5 0 
" id="m8d85d94ae6" style="stroke:#000000;stroke-width:0.8;"/>
      </defs>
      <g>
       <use style="stroke:#000000;stroke-width:0.8;" x="48.469688" xlink:href="#m8d85d94ae6" y="220.168678"/>
      </g>
     </g>
     <g id="text_9">
      <!-- 0.0 -->
      <g transform="translate(23.399688 224.821257)scale(0.13 -0.13)">
       <use xlink:href="#ArialMT-30"/>
       <use x="55.615234" xlink:href="#ArialMT-2e"/>
       <use x="83.398438" xlink:href="#ArialMT-30"/>
      </g>
     </g>
    </g>
    <g id="ytick_2">
     <g id="line2d_9">
      <g>
       <use style="stroke:#000000;stroke-width:0.8;" x="48.469688" xlink:href="#m8d85d94ae6" y="177.791339"/>
      </g>
     </g>
     <g id="text_10">
      <!-- 0.1 -->
      <g transform="translate(23.399688 182.443917)scale(0.13 -0.13)">
       <use xlink:href="#ArialMT-30"/>
       <use x="55.615234" xlink:href="#ArialMT-2e"/>
       <use x="83.398438" xlink:href="#ArialMT-31"/>
      </g>
     </g>
    </g>
    <g id="ytick_3">
     <g id="line2d_10">
      <g>
       <use style="stroke:#000000;stroke-width:0.8;" x="48.469688" xlink:href="#m8d85d94ae6" y="135.414"/>
      </g>
     </g>
     <g id="text_11">
      <!-- 0.2 -->
      <g transform="translate(23.399688 140.066578)scale(0.13 -0.13)">
       <use xlink:href="#ArialMT-30"/>
       <use x="55.615234" xlink:href="#ArialMT-2e"/>
       <use x="83.398438" xlink:href="#ArialMT-32"/>
      </g>
     </g>
    </g>
    <g id="ytick_4">
     <g id="line2d_11">
      <g>
       <use style="stroke:#000000;stroke-width:0.8;" x="48.469688" xlink:href="#m8d85d94ae6" y="93.03666"/>
      </g>
     </g>
     <g id="text_12">
      <!-- 0.3 -->
      <defs>
       <path d="M 4.203125 18.890625 
L 12.984375 20.0625 
Q 14.5 12.59375 18.140625 9.296875 
Q 21.78125 6 27 6 
Q 33.203125 6 37.46875 10.296875 
Q 41.75 14.59375 41.75 20.953125 
Q 41.75 27 37.796875 30.921875 
Q 33.84375 34.859375 27.734375 34.859375 
Q 25.25 34.859375 21.53125 33.890625 
L 22.515625 41.609375 
Q 23.390625 41.5 23.921875 41.5 
Q 29.546875 41.5 34.03125 44.421875 
Q 38.53125 47.359375 38.53125 53.46875 
Q 38.53125 58.296875 35.25 61.46875 
Q 31.984375 64.65625 26.8125 64.65625 
Q 21.6875 64.65625 18.265625 61.421875 
Q 14.84375 58.203125 13.875 51.765625 
L 5.078125 53.328125 
Q 6.6875 62.15625 12.390625 67.015625 
Q 18.109375 71.875 26.609375 71.875 
Q 32.46875 71.875 37.390625 69.359375 
Q 42.328125 66.84375 44.9375 62.5 
Q 47.5625 58.15625 47.5625 53.265625 
Q 47.5625 48.640625 45.0625 44.828125 
Q 42.578125 41.015625 37.703125 38.765625 
Q 44.046875 37.3125 47.5625 32.6875 
Q 51.078125 28.078125 51.078125 21.140625 
Q 51.078125 11.765625 44.234375 5.25 
Q 37.40625 -1.265625 26.953125 -1.265625 
Q 17.53125 -1.265625 11.296875 4.34375 
Q 5.078125 9.96875 4.203125 18.890625 
z
" id="ArialMT-33"/>
      </defs>
      <g transform="translate(23.399688 97.689239)scale(0.13 -0.13)">
       <use xlink:href="#ArialMT-30"/>
       <use x="55.615234" xlink:href="#ArialMT-2e"/>
       <use x="83.398438" xlink:href="#ArialMT-33"/>
      </g>
     </g>
    </g>
    <g id="ytick_5">
     <g id="line2d_12">
      <g>
       <use style="stroke:#000000;stroke-width:0.8;" x="48.469688" xlink:href="#m8d85d94ae6" y="50.659321"/>
      </g>
     </g>
     <g id="text_13">
      <!-- 0.4 -->
      <defs>
       <path d="M 32.328125 0 
L 32.328125 17.140625 
L 1.265625 17.140625 
L 1.265625 25.203125 
L 33.9375 71.578125 
L 41.109375 71.578125 
L 41.109375 25.203125 
L 50.78125 25.203125 
L 50.78125 17.140625 
L 41.109375 17.140625 
L 41.109375 0 
z
M 32.328125 25.203125 
L 32.328125 57.46875 
L 9.90625 25.203125 
z
" id="ArialMT-34"/>
      </defs>
      <g transform="translate(23.399688 55.311899)scale(0.13 -0.13)">
       <use xlink:href="#ArialMT-30"/>
       <use x="55.615234" xlink:href="#ArialMT-2e"/>
       <use x="83.398438" xlink:href="#ArialMT-34"/>
      </g>
     </g>
    </g>
    <g id="text_14">
     <!-- Dilatação relativa (%) -->
     <defs>
      <path d="M 7.71875 0 
L 7.71875 71.578125 
L 32.375 71.578125 
Q 40.71875 71.578125 45.125 70.5625 
Q 51.265625 69.140625 55.609375 65.4375 
Q 61.28125 60.640625 64.078125 53.1875 
Q 66.890625 45.75 66.890625 36.1875 
Q 66.890625 28.03125 64.984375 21.734375 
Q 63.09375 15.4375 60.109375 11.296875 
Q 57.125 7.171875 53.578125 4.796875 
Q 50.046875 2.4375 45.046875 1.21875 
Q 40.046875 0 33.546875 0 
z
M 17.1875 8.453125 
L 32.46875 8.453125 
Q 39.546875 8.453125 43.578125 9.765625 
Q 47.609375 11.078125 50 13.484375 
Q 53.375 16.84375 55.25 22.53125 
Q 57.125 28.21875 57.125 36.328125 
Q 57.125 47.5625 53.4375 53.59375 
Q 49.75 59.625 44.484375 61.671875 
Q 40.671875 63.140625 32.234375 63.140625 
L 17.1875 63.140625 
z
" id="ArialMT-44"/>
      <path d="M 6.390625 0 
L 6.390625 71.578125 
L 15.1875 71.578125 
L 15.1875 0 
z
" id="ArialMT-6c"/>
      <path d="M 40.4375 6.390625 
Q 35.546875 2.25 31.03125 0.53125 
Q 26.515625 -1.171875 21.34375 -1.171875 
Q 12.796875 -1.171875 8.203125 3 
Q 3.609375 7.171875 3.609375 13.671875 
Q 3.609375 17.484375 5.34375 20.625 
Q 7.078125 23.78125 9.890625 25.6875 
Q 12.703125 27.59375 16.21875 28.5625 
Q 18.796875 29.25 24.03125 29.890625 
Q 34.671875 31.15625 39.703125 32.90625 
Q 39.75 34.71875 39.75 35.203125 
Q 39.75 40.578125 37.25 42.78125 
Q 33.890625 45.75 27.25 45.75 
Q 21.046875 45.75 18.09375 43.578125 
Q 15.140625 41.40625 13.71875 35.890625 
L 5.125 37.0625 
Q 6.296875 42.578125 8.984375 45.96875 
Q 11.671875 49.359375 16.75 51.1875 
Q 21.828125 53.03125 28.515625 53.03125 
Q 35.15625 53.03125 39.296875 51.46875 
Q 43.453125 49.90625 45.40625 47.53125 
Q 47.359375 45.171875 48.140625 41.546875 
Q 48.578125 39.3125 48.578125 33.453125 
L 48.578125 21.734375 
Q 48.578125 9.46875 49.140625 6.21875 
Q 49.703125 2.984375 51.375 0 
L 42.1875 0 
Q 40.828125 2.734375 40.4375 6.390625 
z
M 39.703125 26.03125 
Q 34.90625 24.078125 25.34375 22.703125 
Q 19.921875 21.921875 17.671875 20.9375 
Q 15.4375 19.96875 14.203125 18.09375 
Q 12.984375 16.21875 12.984375 13.921875 
Q 12.984375 10.40625 15.640625 8.0625 
Q 18.3125 5.71875 23.4375 5.71875 
Q 28.515625 5.71875 32.46875 7.9375 
Q 36.421875 10.15625 38.28125 14.015625 
Q 39.703125 17 39.703125 22.796875 
z
" id="ArialMT-61"/>
      <path d="M 25.78125 7.859375 
L 27.046875 0.09375 
Q 23.34375 -0.6875 20.40625 -0.6875 
Q 15.625 -0.6875 12.984375 0.828125 
Q 10.359375 2.34375 9.28125 4.8125 
Q 8.203125 7.28125 8.203125 15.1875 
L 8.203125 45.015625 
L 1.765625 45.015625 
L 1.765625 51.859375 
L 8.203125 51.859375 
L 8.203125 64.703125 
L 16.9375 69.96875 
L 16.9375 51.859375 
L 25.78125 51.859375 
L 25.78125 45.015625 
L 16.9375 45.015625 
L 16.9375 14.703125 
Q 16.9375 10.9375 17.40625 9.859375 
Q 17.875 8.796875 18.921875 8.15625 
Q 19.96875 7.515625 21.921875 7.515625 
Q 23.390625 7.515625 25.78125 7.859375 
z
" id="ArialMT-74"/>
      <path d="M 40.4375 19 
L 49.078125 17.875 
Q 47.65625 8.9375 41.8125 3.875 
Q 35.984375 -1.171875 27.484375 -1.171875 
Q 16.84375 -1.171875 10.375 5.78125 
Q 3.90625 12.75 3.90625 25.734375 
Q 3.90625 34.125 6.6875 40.421875 
Q 9.46875 46.734375 15.15625 49.875 
Q 20.84375 53.03125 27.546875 53.03125 
Q 35.984375 53.03125 41.359375 48.75 
Q 46.734375 44.484375 48.25 36.625 
L 39.703125 35.296875 
Q 38.484375 40.53125 35.375 43.15625 
Q 32.28125 45.796875 27.875 45.796875 
Q 21.234375 45.796875 17.078125 41.03125 
Q 12.9375 36.28125 12.9375 25.984375 
Q 12.9375 15.53125 16.9375 10.796875 
Q 20.953125 6.0625 27.390625 6.0625 
Q 32.5625 6.0625 36.03125 9.234375 
Q 39.5 12.40625 40.4375 19 
z
M 20.046875 -6.515625 
L 22.59375 2.125 
L 29.125 2.125 
L 27.515625 -3.109375 
Q 31.671875 -3.59375 33.765625 -5.65625 
Q 35.875 -7.734375 35.875 -10.28125 
Q 35.875 -13.9375 32.359375 -16.75 
Q 28.84375 -19.5625 21.75 -19.5625 
Q 17.75 -19.5625 14.71875 -18.96875 
L 15.265625 -13.265625 
Q 18.390625 -13.453125 19.859375 -13.453125 
Q 24.4375 -13.453125 26.296875 -12.1875 
Q 27.71875 -11.203125 27.71875 -9.796875 
Q 27.71875 -8.90625 27.15625 -8.21875 
Q 26.59375 -7.546875 25.078125 -7.046875 
Q 23.5625 -6.5625 20.046875 -6.515625 
z
" id="ArialMT-e7"/>
      <path d="M 40.4375 6.390625 
Q 35.546875 2.25 31.03125 0.53125 
Q 26.515625 -1.171875 21.34375 -1.171875 
Q 12.796875 -1.171875 8.203125 3 
Q 3.609375 7.171875 3.609375 13.671875 
Q 3.609375 17.484375 5.34375 20.625 
Q 7.078125 23.78125 9.890625 25.6875 
Q 12.703125 27.59375 16.21875 28.5625 
Q 18.796875 29.25 24.03125 29.890625 
Q 34.671875 31.15625 39.703125 32.90625 
Q 39.75 34.71875 39.75 35.203125 
Q 39.75 40.578125 37.25 42.78125 
Q 33.890625 45.75 27.25 45.75 
Q 21.046875 45.75 18.09375 43.578125 
Q 15.140625 41.40625 13.71875 35.890625 
L 5.125 37.0625 
Q 6.296875 42.578125 8.984375 45.96875 
Q 11.671875 49.359375 16.75 51.1875 
Q 21.828125 53.03125 28.515625 53.03125 
Q 35.15625 53.03125 39.296875 51.46875 
Q 43.453125 49.90625 45.40625 47.53125 
Q 47.359375 45.171875 48.140625 41.546875 
Q 48.578125 39.3125 48.578125 33.453125 
L 48.578125 21.734375 
Q 48.578125 9.46875 49.140625 6.21875 
Q 49.703125 2.984375 51.375 0 
L 42.1875 0 
Q 40.828125 2.734375 40.4375 6.390625 
z
M 39.703125 26.03125 
Q 34.90625 24.078125 25.34375 22.703125 
Q 19.921875 21.921875 17.671875 20.9375 
Q 15.4375 19.96875 14.203125 18.09375 
Q 12.984375 16.21875 12.984375 13.921875 
Q 12.984375 10.40625 15.640625 8.0625 
Q 18.3125 5.71875 23.4375 5.71875 
Q 28.515625 5.71875 32.46875 7.9375 
Q 36.421875 10.15625 38.28125 14.015625 
Q 39.703125 17 39.703125 22.796875 
z
M 11.21875 59.515625 
Q 11.171875 64.59375 14 67.625 
Q 16.78125 70.65625 21.125 70.65625 
Q 24.15625 70.65625 29.375 68.015625 
Q 32.265625 66.546875 33.96875 66.546875 
Q 35.53125 66.546875 36.359375 67.40625 
Q 37.1875 68.265625 37.53125 70.796875 
L 43.890625 70.796875 
Q 43.734375 65.234375 41.078125 62.453125 
Q 38.421875 59.671875 34.3125 59.671875 
Q 31.234375 59.671875 26.203125 62.40625 
Q 22.9375 64.15625 21.421875 64.15625 
Q 19.765625 64.15625 18.734375 62.984375 
Q 17.65625 61.8125 17.71875 59.515625 
z
" id="ArialMT-e3"/>
      <path d="M 6.5 0 
L 6.5 51.859375 
L 14.40625 51.859375 
L 14.40625 44 
Q 17.4375 49.515625 20 51.265625 
Q 22.5625 53.03125 25.640625 53.03125 
Q 30.078125 53.03125 34.671875 50.203125 
L 31.640625 42.046875 
Q 28.421875 43.953125 25.203125 43.953125 
Q 22.3125 43.953125 20.015625 42.21875 
Q 17.71875 40.484375 16.75 37.40625 
Q 15.28125 32.71875 15.28125 27.15625 
L 15.28125 0 
z
" id="ArialMT-72"/>
      <path d="M 21 0 
L 1.265625 51.859375 
L 10.546875 51.859375 
L 21.6875 20.796875 
Q 23.484375 15.765625 25 10.359375 
Q 26.171875 14.453125 28.265625 20.21875 
L 39.796875 51.859375 
L 48.828125 51.859375 
L 29.203125 0 
z
" id="ArialMT-76"/>
      <path d="M 5.8125 54.390625 
Q 5.8125 62.0625 9.671875 67.421875 
Q 13.53125 72.796875 20.84375 72.796875 
Q 27.59375 72.796875 32 67.984375 
Q 36.421875 63.1875 36.421875 53.859375 
Q 36.421875 44.78125 31.953125 39.875 
Q 27.484375 34.96875 20.953125 34.96875 
Q 14.453125 34.96875 10.125 39.796875 
Q 5.8125 44.625 5.8125 54.390625 
z
M 21.09375 66.75 
Q 17.828125 66.75 15.65625 63.90625 
Q 13.484375 61.078125 13.484375 53.515625 
Q 13.484375 46.625 15.671875 43.8125 
Q 17.875 41.015625 21.09375 41.015625 
Q 24.421875 41.015625 26.59375 43.84375 
Q 28.765625 46.6875 28.765625 54.203125 
Q 28.765625 61.140625 26.5625 63.9375 
Q 24.359375 66.75 21.09375 66.75 
z
M 21.140625 -2.640625 
L 60.296875 72.796875 
L 67.4375 72.796875 
L 28.421875 -2.640625 
z
M 52.09375 16.796875 
Q 52.09375 24.515625 55.953125 29.859375 
Q 59.8125 35.203125 67.1875 35.203125 
Q 73.921875 35.203125 78.34375 30.390625 
Q 82.765625 25.59375 82.765625 16.265625 
Q 82.765625 7.171875 78.296875 2.265625 
Q 73.828125 -2.640625 67.234375 -2.640625 
Q 60.75 -2.640625 56.421875 2.21875 
Q 52.09375 7.078125 52.09375 16.796875 
z
M 67.4375 29.15625 
Q 64.109375 29.15625 61.9375 26.3125 
Q 59.765625 23.484375 59.765625 15.921875 
Q 59.765625 9.078125 61.953125 6.25 
Q 64.15625 3.421875 67.390625 3.421875 
Q 70.75 3.421875 72.921875 6.25 
Q 75.09375 9.078125 75.09375 16.609375 
Q 75.09375 23.53125 72.890625 26.34375 
Q 70.703125 29.15625 67.4375 29.15625 
z
" id="ArialMT-25"/>
     </defs>
     <g transform="translate(16.663594 183.349297)rotate(-90)scale(0.13 -0.13)">
      <use xlink:href="#ArialMT-44"/>
      <use x="72.216797" xlink:href="#ArialMT-69"/>
      <use x="94.433594" xlink:href="#ArialMT-6c"/>
      <use x="116.650391" xlink:href="#ArialMT-61"/>
      <use x="172.265625" xlink:href="#ArialMT-74"/>
      <use x="200.048828" xlink:href="#ArialMT-61"/>
      <use x="255.664062" xlink:href="#ArialMT-e7"/>
      <use x="305.664062" xlink:href="#ArialMT-e3"/>
      <use x="361.279297" xlink:href="#ArialMT-6f"/>
      <use x="416.894531" xlink:href="#ArialMT-20"/>
      <use x="444.677734" xlink:href="#ArialMT-72"/>
      <use x="477.978516" xlink:href="#ArialMT-65"/>
      <use x="533.59375" xlink:href="#ArialMT-6c"/>
      <use x="555.810547" xlink:href="#ArialMT-61"/>
      <use x="611.425781" xlink:href="#ArialMT-74"/>
      <use x="639.208984" xlink:href="#ArialMT-69"/>
      <use x="661.425781" xlink:href="#ArialMT-76"/>
      <use x="711.425781" xlink:href="#ArialMT-61"/>
      <use x="767.041016" xlink:href="#ArialMT-20"/>
      <use x="794.824219" xlink:href="#ArialMT-28"/>
      <use x="828.125" xlink:href="#ArialMT-25"/>
      <use x="917.041016" xlink:href="#ArialMT-29"/>
     </g>
    </g>
   </g>
   <g id="line2d_13">
    <path clip-path="url(#p7e6c3340c8)" d="M 63.687869 220.168678 
L 63.992734 219.775811 
L 64.297764 219.730908 
L 64.602629 220.280936 
L 65.2124 220.25848 
L 65.517348 220.662574 
L 65.822171 220.280936 
L 66.127408 220.763601 
L 66.432066 220.516651 
L 66.737014 220.909523 
L 67.041962 220.864629 
L 67.346868 221.066675 
L 67.956763 221.032994 
L 68.26171 221.257501 
L 68.871854 221.05545 
L 69.176553 221.066675 
L 69.481459 221.358524 
L 69.786614 221.201376 
L 70.701456 221.392193 
L 71.311227 222.099373 
L 71.61634 222.020797 
L 71.921247 221.706497 
L 72.530894 221.874871 
L 72.836089 222.110599 
L 73.140954 221.740174 
L 73.445943 222.38 
L 73.75056 221.998341 
L 74.055549 221.953451 
L 74.665444 222.278964 
L 74.970433 222.009571 
L 75.275422 222.335088 
L 76.190306 221.818746 
L 76.495046 221.919769 
L 76.800283 221.886101 
L 77.410054 222.323871 
L 78.019908 222.211618 
L 78.324938 221.942217 
L 78.934544 222.166723 
L 79.239698 221.919769 
L 80.154582 221.897326 
L 80.459365 222.323871 
L 80.764188 221.953451 
L 81.374249 221.964672 
L 81.98402 221.583026 
L 82.289009 221.728944 
L 82.593956 221.549341 
L 83.204017 221.684054 
L 83.813912 221.122796 
L 84.118735 221.515672 
L 85.33865 221.05545 
L 86.558109 220.875846 
L 86.863139 220.628901 
L 87.168169 220.875846 
L 87.472952 220.449301 
L 87.777941 220.673799 
L 88.083054 220.303371 
L 88.387794 220.438084 
L 89.607584 219.775811 
L 89.912573 220.202356 
L 90.827375 219.506405 
L 91.132364 219.472737 
L 91.437187 219.237008 
L 92.657101 218.776782 
L 92.962049 218.597183 
L 93.571903 218.451265 
L 93.876768 218.406362 
L 94.486663 217.901241 
L 94.791445 217.609396 
L 95.401423 217.586941 
L 95.706287 217.283871 
L 96.011152 217.283871 
L 96.316224 216.902225 
L 96.621089 216.778746 
L 96.925995 216.846092 
L 97.231191 216.318528 
L 97.536138 216.610376 
L 97.841127 216.251177 
L 98.145827 216.105255 
L 98.450898 215.746056 
L 98.755639 215.689923 
L 99.670688 214.780713 
L 99.975429 214.993986 
L 100.280501 214.623557 
L 100.890479 214.208238 
L 102.110228 213.366361 
L 102.41501 213.422486 
L 103.634965 212.356119 
L 104.244654 212.131621 
L 104.854466 211.222403 
L 105.159579 211.446896 
L 105.464609 211.087702 
L 106.074339 210.784628 
L 106.684069 209.695805 
L 106.989058 209.886635 
L 107.293964 209.403957 
L 107.598911 209.370288 
L 107.903859 208.842712 
L 108.208724 208.674338 
L 108.513795 208.27024 
L 109.123525 208.056959 
L 110.03845 207.080395 
L 110.648221 206.28343 
L 110.953169 206.429347 
L 111.258406 205.935457 
L 111.868094 205.464004 
L 112.173001 204.880303 
L 112.47799 205.059903 
L 112.782896 204.498657 
L 113.087885 204.17314 
L 113.392915 204.038435 
L 113.697904 203.634337 
L 114.00281 203.028193 
L 114.307634 203.016963 
L 114.612622 202.792465 
L 114.917529 202.175095 
L 115.222518 202.085297 
L 116.137153 200.749525 
L 116.442225 200.670945 
L 116.747297 200.177054 
L 117.052037 200.008681 
L 118.576651 198.14534 
L 118.881806 197.943294 
L 119.186877 197.303468 
L 119.491452 197.168767 
L 120.10143 196.540176 
L 120.406419 195.642179 
L 120.711325 195.586054 
L 121.016149 195.339105 
L 122.541011 193.363515 
L 122.845834 192.981865 
L 123.150989 192.375721 
L 123.455729 192.274697 
L 124.370696 190.950151 
L 124.675685 190.186859 
L 124.980509 189.996034 
L 125.28558 189.457236 
L 125.590404 189.344987 
L 125.89531 188.727617 
L 126.200133 188.514336 
L 126.505288 188.143915 
L 127.115265 187.099996 
L 127.420089 186.785701 
L 127.72483 186.71835 
L 128.33489 185.191753 
L 129.249692 184.203963 
L 129.554763 183.55292 
L 131.079377 181.588548 
L 131.689189 180.724232 
L 132.299167 179.871134 
L 132.908814 178.995589 
L 133.213968 178.299643 
L 133.823781 177.693498 
L 134.128853 177.031225 
L 134.433511 176.817949 
L 134.738582 176.391404 
L 135.043406 175.583204 
L 135.348395 175.369932 
L 135.958455 174.438262 
L 136.263279 173.97804 
L 136.568433 173.820892 
L 136.873174 172.788198 
L 137.178245 172.687167 
L 137.78814 171.744275 
L 138.092964 171.351403 
L 139.0076 169.577861 
L 139.617495 168.982938 
L 139.922649 168.522716 
L 140.227473 167.759419 
L 140.532296 167.433898 
L 141.142274 166.33385 
L 141.752335 165.738931 
L 142.057241 164.930732 
L 143.581855 162.753092 
L 143.886595 162.158173 
L 144.19175 161.956122 
L 144.801562 160.979554 
L 147.546049 156.646725 
L 147.851038 156.309978 
L 148.460685 155.277284 
L 150.290453 152.291449 
L 150.595524 152.055725 
L 151.510243 150.630156 
L 152.120055 149.541338 
L 152.730033 148.699465 
L 153.339846 147.734118 
L 153.949741 146.57795 
L 154.254812 146.39835 
L 154.864542 145.354431 
L 155.169614 144.84931 
L 155.474602 144.692162 
L 156.084498 143.524768 
L 156.69431 142.548195 
L 157.609029 141.347128 
L 157.913935 140.494034 
L 158.218758 140.348108 
L 158.52383 139.753185 
L 159.13389 138.94499 
L 159.743703 137.912292 
L 160.35335 137.238798 
L 160.658421 136.801027 
L 161.268234 135.644855 
L 161.573305 135.195858 
L 161.878046 135.061158 
L 162.487941 133.97234 
L 163.098002 133.34374 
L 163.402825 132.524323 
L 164.317709 131.581427 
L 164.622698 131.053855 
L 164.927687 130.054834 
L 165.232676 129.852783 
L 166.147477 128.595592 
L 166.452136 128.595592 
L 166.757124 127.82107 
L 167.97708 126.159776 
L 168.281821 125.665881 
L 168.586727 125.677107 
L 168.891964 125.003608 
L 169.196788 124.812783 
L 170.721484 122.477995 
L 172.551087 120.221783 
L 173.160816 119.436039 
L 173.771042 118.268641 
L 174.380772 117.797193 
L 174.99075 116.7645 
L 175.295656 116.438978 
L 175.600562 116.382854 
L 178.649707 112.061251 
L 178.954861 111.92655 
L 179.259767 111.275503 
L 179.86958 110.781608 
L 180.174569 110.220362 
L 180.47931 110.287708 
L 181.394442 108.839692 
L 181.699348 108.413142 
L 182.004171 108.19987 
L 182.614232 107.470247 
L 182.91889 107.290647 
L 183.528702 106.246732 
L 184.138598 105.52833 
L 184.443835 105.562012 
L 185.053647 104.428291 
L 185.35847 104.484416 
L 185.968448 103.575193 
L 186.273355 103.530294 
L 186.883084 102.43025 
L 187.188073 102.374126 
L 187.798216 101.464903 
L 188.102874 101.11693 
L 188.408111 101.195502 
L 189.017841 99.848513 
L 189.32283 99.81484 
L 189.627736 99.601567 
L 189.932642 99.107664 
L 190.54262 98.681119 
L 190.847361 97.962721 
L 191.152267 98.052523 
L 191.457173 97.4576 
L 191.762245 97.154526 
L 192.371975 96.840226 
L 192.676881 96.27898 
L 192.98187 96.211634 
L 193.591765 95.336085 
L 193.896671 95.302412 
L 195.421533 93.483966 
L 195.726274 93.41662 
L 196.031263 92.776798 
L 196.3365 92.686997 
L 196.641406 92.249226 
L 196.946395 92.237996 
L 197.556042 91.418579 
L 197.861114 90.85733 
L 198.166102 90.587937 
L 198.470843 90.599163 
L 199.080986 89.633815 
L 199.385645 89.701161 
L 199.995457 89.151142 
L 200.300529 88.556219 
L 200.910424 88.073541 
L 201.215495 87.456175 
L 201.825308 87.433724 
L 202.435286 86.434707 
L 202.740109 86.412256 
L 203.044932 85.985707 
L 203.349756 85.940804 
L 203.65491 85.323438 
L 203.959899 85.390788 
L 204.26464 84.638718 
L 204.874452 84.447888 
L 205.179441 84.189713 
L 205.484596 83.650923 
L 206.094325 83.179475 
L 206.399314 83.201918 
L 206.70422 82.674346 
L 207.924093 81.877381 
L 209.143718 80.676309 
L 209.448542 80.597738 
L 209.753531 79.868114 
L 210.058602 80.002815 
L 210.363426 79.710958 
L 210.668332 79.228293 
L 210.973238 79.374215 
L 211.278227 78.745623 
L 211.583216 78.723167 
L 211.888453 78.521121 
L 212.193276 78.1507 
L 212.497935 78.1507 
L 212.803254 77.488423 
L 213.108078 77.533322 
L 214.022714 76.781251 
L 214.632609 76.20878 
L 214.937763 76.19755 
L 215.242504 75.928162 
L 215.54741 75.220985 
L 215.852482 75.299562 
L 216.462542 74.873008 
L 217.377178 73.806642 
L 217.682084 73.907674 
L 217.986991 73.458669 
L 218.291979 73.413766 
L 218.597051 72.908645 
L 218.901957 72.886202 
L 219.511687 72.616801 
L 219.816759 72.156583 
L 220.121499 72.223929 
L 220.426571 71.584103 
L 220.731477 71.595329 
L 221.036301 71.426959 
L 221.341455 71.011627 
L 221.646444 70.977959 
L 221.95135 70.641207 
L 222.561245 70.192206 
L 223.476129 69.294218 
L 223.781035 69.305439 
L 224.695506 68.710521 
L 225.00066 68.75542 
L 225.305484 68.272746 
L 225.610638 68.104372 
L 225.915379 68.081925 
L 226.525439 67.430878 
L 227.135086 66.892071 
L 228.354794 66.173678 
L 228.660031 65.769589 
L 228.96502 65.94918 
L 229.57475 65.376713 
L 230.18481 65.02874 
L 231.404187 63.984816 
L 231.709341 64.018493 
L 232.624308 63.277649 
L 232.929049 63.344995 
L 233.538861 62.817422 
L 233.843933 62.626601 
L 234.148839 62.828648 
L 234.45391 62.435772 
L 234.758734 62.402103 
L 235.368381 61.751056 
L 235.673618 61.706153 
L 235.978441 61.504106 
L 236.283513 61.1 
L 236.893408 60.909183 
L 237.198149 60.639786 
L 237.503055 60.729588 
L 237.80821 60.359164 
L 238.113116 60.370381 
L 239.027669 59.753015 
L 239.332823 59.32647 
L 239.637812 59.124424 
L 239.942801 59.236668 
L 240.247459 58.899921 
L 240.552696 58.888695 
L 241.16226 58.439695 
L 241.467167 58.585621 
L 241.772404 58.215201 
L 242.077227 58.091726 
L 242.68704 57.407006 
L 242.991863 57.227402 
L 243.296935 57.182503 
L 243.601924 57.272305 
L 243.906995 56.812074 
L 244.516725 56.677382 
L 245.12662 56.048778 
L 245.431444 55.846731 
L 245.73635 56.071234 
L 246.041256 55.566109 
L 246.651399 55.420186 
L 246.956305 54.971186 
L 247.261046 54.937513 
L 247.871107 54.611991 
L 248.17593 54.533415 
L 248.480836 54.331364 
L 248.785991 54.477291 
L 249.090731 53.815018 
L 249.700709 53.826243 
L 250.005533 53.826243 
L 250.310522 53.231321 
L 250.920417 53.074173 
L 251.225406 53.163974 
L 251.530395 52.816006 
L 252.445196 52.299655 
L 252.750102 52.400674 
L 253.054926 51.906779 
L 253.359832 52.019024 
L 253.664903 51.558806 
L 253.969975 51.61493 
L 254.274881 51.222054 
L 254.579705 51.278183 
L 254.884611 51.121035 
L 255.1896 50.817956 
L 255.494754 51.188385 
L 256.104318 50.694486 
L 256.714296 50.537338 
L 257.019285 50.110793 
L 257.629015 50.122006 
L 257.934087 49.571991 
L 258.543982 49.437294 
L 258.848888 49.639337 
L 259.153877 49.156659 
L 259.458948 49.268912 
L 260.068513 48.999515 
L 260.373419 48.651551 
L 260.678573 48.651551 
L 261.593457 48.236219 
L 262.508176 48.022946 
L 262.812999 47.731102 
L 263.423143 47.652522 
L 263.728049 47.259646 
L 264.032707 47.349448 
L 264.337613 47.023926 
L 265.252497 46.574938 
L 265.557403 46.451463 
L 266.167381 46.429012 
L 266.472287 45.822859 
L 266.777276 45.867754 
L 267.0821 45.609587 
L 267.69216 45.38508 
L 267.996984 45.575918 
L 268.301973 45.239166 
L 268.912033 45.239166 
L 269.216691 45.025894 
L 269.521597 44.621783 
L 269.826834 44.790166 
L 270.131741 44.475874 
L 270.436399 44.655461 
L 270.741388 44.386072 
L 271.046377 44.318709 
L 271.656189 44.004418 
L 271.961261 43.948293 
L 272.26625 44.049329 
L 272.571238 43.611542 
L 272.876062 43.76869 
L 273.485874 43.016632 
L 274.095852 42.960503 
L 274.705582 42.6013 
L 275.010653 42.758448 
L 275.620714 42.219645 
L 275.925537 42.028829 
L 276.230278 42.298226 
L 276.535515 42.253322 
L 277.145328 41.849225 
L 277.450068 41.972704 
L 278.060129 41.456353 
L 278.669859 41.175735 
L 279.279837 41.42268 
L 280.80445 40.535909 
L 281.109274 40.749181 
L 281.414511 40.446115 
L 281.719169 40.513461 
L 282.024158 40.266512 
L 282.329147 40.277746 
L 282.939042 40.019562 
L 283.548937 39.772617 
L 284.158749 39.514433 
L 284.768893 39.525667 
L 285.073551 39.166468 
L 285.37854 39.099122 
L 285.683611 39.211358 
L 285.9886 38.807269 
L 286.59833 38.695012 
L 286.903236 38.537864 
L 287.20839 38.549102 
L 287.818203 38.290918 
L 288.123192 38.414393 
L 288.428015 38.189899 
L 288.732839 38.122557 
L 289.03791 38.234794 
L 289.342734 38.189899 
L 289.647971 37.740894 
L 289.952877 37.76335 
L 290.257535 37.325571 
L 290.867513 37.381696 
L 291.172667 37.31435 
L 291.477491 37.056187 
L 291.78248 37.011275 
L 292.087386 37.370483 
L 292.697198 36.652076 
L 293.002104 36.84291 
L 293.307011 36.674528 
L 293.612082 36.786786 
L 293.916988 36.4388 
L 294.221812 36.4388 
L 294.526718 36.012255 
L 294.831624 36.236762 
L 295.13653 35.944909 
L 295.441437 36.034711 
L 295.746756 35.978586 
L 296.051332 35.574489 
L 296.356238 35.776527 
L 296.661227 35.798982 
L 296.966133 35.451014 
L 297.271122 35.641835 
L 297.576194 35.170395 
L 297.881265 35.181617 
L 298.186254 35.046925 
L 298.49083 35.170395 
L 300.015857 34.642814 
L 300.32068 34.350974 
L 300.625587 34.541791 
L 300.930327 34.261172 
L 301.235482 34.137702 
L 301.540305 34.137702 
L 301.845211 33.958098 
L 302.1502 34.227504 
L 302.455189 33.800955 
L 303.674897 33.576444 
L 303.979886 33.217241 
L 304.284792 33.486646 
L 304.894687 33.385623 
L 305.504417 32.914166 
L 305.809654 33.026424 
L 306.724455 32.420275 
L 307.029196 32.745805 
L 307.33435 32.757018 
L 307.639174 32.498856 
L 307.943997 32.465183 
L 308.55414 32.184547 
L 308.858798 32.274349 
L 309.468942 31.937602 
L 309.773848 32.195781 
L 310.383743 32.049855 
L 310.688566 31.948836 
L 311.298462 31.398812 
L 311.603285 31.544726 
L 311.908274 31.421255 
L 312.213346 31.668196 
L 312.518252 31.488601 
L 313.433053 31.443711 
L 313.737877 31.264107 
L 314.043031 30.949811 
L 314.347937 31.028379 
L 314.652843 30.803885 
L 315.262738 30.815107 
L 315.567645 30.613064 
L 315.872634 30.624286 
L 316.177292 30.489593 
L 316.482529 30.545705 
L 316.787187 30.478359 
L 317.092341 30.085483 
L 317.397164 30.343667 
L 317.701988 29.860989 
L 318.007225 30.018137 
L 318.312049 30.040593 
L 318.617037 29.816078 
L 319.226767 29.771187 
L 319.531756 29.445666 
L 319.836745 29.580371 
L 320.141651 29.580371 
L 320.446557 29.74874 
L 320.751464 29.703841 
L 321.056701 29.535459 
L 321.361276 29.20995 
L 321.66643 29.344642 
L 322.276243 29.05279 
L 322.581397 28.884425 
L 322.886221 28.940549 
L 323.800856 28.772167 
L 324.106011 29.019112 
L 324.410752 28.727277 
L 324.715658 28.73849 
L 325.020895 28.873186 
L 325.325636 28.558895 
L 325.630707 28.704821 
L 325.935531 28.087459 
L 326.54526 28.267055 
L 326.850249 28.098672 
L 327.155155 28.334401 
L 327.460062 28.267055 
L 327.765299 28.020092 
L 328.070122 28.042548 
L 328.984841 27.761929 
L 329.28983 27.795598 
L 329.594736 27.526197 
L 329.899559 27.683349 
L 330.204879 27.33538 
L 330.509785 27.51498 
L 330.814609 27.324159 
L 331.119515 27.268034 
L 331.424421 27.33538 
L 332.034234 27.043519 
L 332.339223 27.178232 
L 332.644211 27.077196 
L 332.949118 26.71801 
L 333.254189 26.96496 
L 333.559013 26.942504 
L 333.864002 26.381267 
L 334.168908 26.616974 
L 334.473814 26.59454 
L 335.083792 26.302687 
L 335.388781 26.448613 
L 335.998593 26.212885 
L 336.303499 26.235337 
L 336.913477 26.022064 
L 337.523124 25.820013 
L 337.82803 25.999608 
L 338.132937 25.741446 
L 338.74308 25.909807 
L 339.048069 25.696534 
L 339.35281 25.314875 
L 339.657633 25.494479 
L 340.267694 25.359783 
L 340.877754 25.64041 
L 341.18266 25.202635 
L 341.487401 25.0455 
L 341.79239 25.15774 
L 343.317086 24.798546 
L 344.536711 24.922025 
L 344.841866 24.428113 
L 345.451513 24.506693 
L 345.756584 24.293416 
L 346.366397 24.439351 
L 346.671303 24.293416 
L 346.976457 24.428113 
L 347.281281 24.046475 
L 348.196082 24.057688 
L 348.805977 23.720941 
L 349.110966 23.799534 
L 349.415872 23.563801 
L 349.720861 23.799534 
L 350.025602 23.563801 
L 350.330508 23.518894 
L 350.635497 23.743392 
L 350.940486 23.54135 
L 351.24564 23.720941 
L 351.85537 23.04745 
L 352.160359 23.081119 
L 352.770254 23.339303 
L 353.075077 23.058663 
L 353.380232 23.069906 
L 353.989961 22.733155 
L 354.295033 22.609688 
L 354.599857 22.834178 
L 354.90468 22.620901 
L 355.514741 22.6658 
L 355.819564 22.822961 
L 356.124718 22.362717 
L 356.429542 22.598446 
L 356.734614 22.351504 
L 357.344178 22.418846 
L 357.649084 22.362717 
L 357.954073 22.115776 
L 358.258979 22.127002 
L 358.86904 21.981084 
L 359.173946 22.216812 
L 359.478935 21.958628 
L 359.783758 21.981084 
L 360.088582 21.767812 
L 360.393736 22.02597 
L 360.698642 21.588208 
L 361.003466 21.767812 
L 361.30862 21.655558 
L 361.613526 21.678001 
L 361.918433 21.464729 
L 362.223173 21.487185 
L 362.528328 21.700457 
L 363.13814 21.588208 
L 363.443129 21.554535 
L 363.74787 20.993285 
L 364.053024 21.116752 
L 364.357765 21.015728 
L 364.967825 21.35248 
L 365.272732 21.453516 
L 365.577555 21.083078 
L 365.882461 21.150446 
L 366.187698 20.869806 
L 366.797511 21.083078 
L 367.407323 20.78 
L 367.712312 20.982055 
L 368.051133 20.982055 
L 368.051133 20.982055 
" style="fill:none;stroke:#1f77b4;stroke-linecap:square;"/>
   </g>
   <g id="line2d_14">
    <path clip-path="url(#p7e6c3340c8)" d="M 63.687869 220.168678 
L 63.993065 220.976874 
L 64.297764 220.24725 
L 64.602753 220.482974 
L 65.517886 220.651344 
L 65.822544 220.415628 
L 67.652436 220.662569 
L 67.957052 220.482974 
L 68.567196 220.516651 
L 68.871895 220.718702 
L 69.176925 220.393177 
L 69.786986 220.438071 
L 70.701498 220.067651 
L 71.006487 220.157448 
L 71.616671 219.854374 
L 71.921453 219.461507 
L 72.226484 219.38293 
L 72.531183 219.461507 
L 72.836255 219.225783 
L 73.141244 218.68698 
L 74.360744 218.417587 
L 74.665816 217.957361 
L 74.970805 217.69919 
L 75.275876 217.710416 
L 75.885648 217.093037 
L 76.190719 216.935889 
L 76.495336 216.52057 
L 76.80049 216.397099 
L 77.410509 215.779725 
L 77.715167 215.566448 
L 78.324938 214.870498 
L 78.629927 214.72458 
L 78.934958 214.197008 
L 79.54477 213.534735 
L 80.154789 212.838789 
L 80.459778 212.681637 
L 80.764767 212.378562 
L 81.069797 211.794865 
L 81.679568 211.300974 
L 84.119025 208.157987 
L 84.728796 207.338566 
L 85.33865 206.597717 
L 85.643721 205.924227 
L 86.253451 205.374203 
L 87.77823 203.140442 
L 88.083343 202.545511 
L 88.388042 202.354694 
L 88.693155 201.591398 
L 88.997855 201.344452 
L 89.912946 199.761735 
L 90.827788 198.482083 
L 91.437559 197.51674 
L 93.877016 193.644138 
L 94.182087 192.925736 
L 94.791817 192.409398 
L 95.09693 191.702222 
L 95.401588 191.399156 
L 96.316762 189.670504 
L 96.621461 189.300079 
L 98.756135 185.483606 
L 99.061207 185.146854 
L 102.720454 178.928234 
L 103.330183 177.974108 
L 107.29446 171.216681 
L 107.599118 170.87993 
L 107.904107 170.251326 
L 108.209137 169.937043 
L 109.73371 167.332841 
L 110.343936 166.311386 
L 114.612829 159.385594 
L 114.917901 159.172321 
L 115.527879 157.903895 
L 115.832537 157.679393 
L 116.137608 156.893653 
L 117.357564 155.165014 
L 117.662222 154.626216 
L 117.967294 154.32315 
L 118.272283 153.728215 
L 118.577023 153.413931 
L 119.186836 152.40369 
L 119.491907 152.156723 
L 120.71178 150.125026 
L 121.626664 148.946394 
L 122.846455 146.645274 
L 123.15103 146.58915 
L 124.37082 144.86051 
L 124.980881 144.041098 
L 126.505412 141.796103 
L 126.810566 141.515476 
L 129.555053 137.564311 
L 129.859794 137.351038 
L 130.469606 136.486706 
L 131.079749 135.801986 
L 131.38449 135.207063 
L 131.689479 134.960122 
L 132.299457 134.163152 
L 132.909269 133.523322 
L 133.519081 132.580435 
L 134.128894 131.839577 
L 134.433966 131.177317 
L 134.738954 131.143635 
L 135.348601 130.189518 
L 135.958662 129.549696 
L 136.263734 129.044559 
L 136.56864 128.808856 
L 137.178535 128.112897 
L 138.093253 127.001623 
L 138.398242 126.485281 
L 139.007972 126.002607 
L 139.313126 125.519925 
L 139.617867 125.317891 
L 139.922856 124.925015 
L 140.22801 124.801536 
L 140.83774 123.82498 
L 141.44747 123.353523 
L 142.05753 122.500429 
L 142.362188 122.275927 
L 142.972414 121.546312 
L 144.802017 119.548263 
L 145.106675 119.323773 
L 145.411747 118.874773 
L 145.716818 118.695169 
L 147.241597 117.157359 
L 147.851327 116.562436 
L 148.156316 116.079754 
L 148.460974 115.967505 
L 150.290825 114.115382 
L 151.815439 112.701051 
L 152.120593 112.386755 
L 152.425582 112.252051 
L 153.950196 110.871388 
L 154.254936 110.691785 
L 154.560008 110.26524 
L 154.86508 110.130535 
L 155.169738 109.715229 
L 156.999506 108.244743 
L 157.609235 107.661051 
L 157.914307 107.223288 
L 158.219048 107.054902 
L 158.829108 106.549785 
L 159.438838 106.336513 
L 159.74391 105.865057 
L 160.048981 105.831388 
L 160.35397 105.517092 
L 160.658546 105.382383 
L 163.098126 103.418028 
L 163.403115 103.272097 
L 164.317916 102.486354 
L 164.622905 102.385335 
L 165.842778 101.36385 
L 166.452508 101.072023 
L 166.757497 100.802613 
L 167.062651 100.802613 
L 167.367309 100.443418 
L 167.672298 100.342395 
L 168.892005 99.388269 
L 169.502149 99.073969 
L 169.806724 98.725992 
L 170.111713 98.748448 
L 170.416785 98.557631 
L 170.721856 98.209637 
L 171.026514 98.131082 
L 171.331586 97.861672 
L 171.636658 97.435127 
L 172.551211 97.176943 
L 174.380896 95.998349 
L 174.685968 95.90853 
L 175.905758 94.988099 
L 176.210747 95.077892 
L 176.515488 94.774814 
L 176.820559 94.640105 
L 177.125548 94.191104 
L 177.430537 94.045211 
L 177.735195 94.033969 
L 178.040349 93.697217 
L 178.345338 93.641093 
L 178.649996 93.293128 
L 178.955068 93.158423 
L 179.565129 93.091081 
L 179.869787 92.799241 
L 180.174776 92.776786 
L 180.47993 92.48492 
L 180.784919 92.642081 
L 181.089577 92.237987 
L 182.004295 91.687951 
L 182.614356 91.575702 
L 183.224417 91.036929 
L 183.529157 91.13794 
L 183.834229 90.834857 
L 184.74903 90.486892 
L 185.35876 90.037892 
L 185.663832 90.015436 
L 185.968903 89.746052 
L 186.273644 89.723596 
L 186.578716 89.431756 
L 186.883374 89.465425 
L 187.493517 89.218466 
L 187.798506 88.982751 
L 188.103164 89.027662 
L 188.408236 88.589875 
L 188.713142 88.623548 
L 189.627943 88.16333 
L 190.237755 87.972501 
L 190.542827 87.994956 
L 190.847899 87.703112 
L 191.152722 87.646988 
L 191.457794 87.2092 
L 192.067606 87.197987 
L 192.372264 86.906147 
L 193.287314 86.715288 
L 193.592385 86.35611 
L 195.116999 85.738732 
L 195.421657 85.794856 
L 195.726729 85.514229 
L 196.336789 85.334638 
L 196.946519 84.997891 
L 197.251591 85.009104 
L 197.86132 84.717264 
L 198.166392 84.537673 
L 198.47105 84.582559 
L 199.385851 84.279502 
L 199.69084 84.088673 
L 199.995829 84.055 
L 200.605642 83.774377 
L 201.215702 83.583543 
L 201.520774 83.336589 
L 201.825432 83.561113 
L 202.435244 83.145785 
L 202.740233 82.954952 
L 203.045305 83.067205 
L 203.960189 82.584531 
L 204.569918 82.32636 
L 205.179731 82.292691 
L 205.789791 81.911028 
L 206.094532 81.978395 
L 206.399521 81.720199 
L 206.704593 81.652857 
L 207.009333 81.417142 
L 207.924217 81.226312 
L 208.534361 81.147732 
L 208.839019 80.900774 
L 209.448831 80.777312 
L 209.753986 80.867105 
L 210.058892 80.608934 
L 212.803461 79.946673 
L 213.108119 79.677259 
L 213.413439 79.632378 
L 213.718014 79.475217 
L 214.328158 79.362964 
L 217.072644 78.655792 
L 217.377385 78.296614 
L 217.682457 78.509874 
L 218.292104 78.296614 
L 218.597175 78.330283 
L 219.207153 78.038417 
L 219.816883 77.881282 
L 220.731601 77.589413 
L 221.646733 77.533313 
L 221.95164 77.174106 
L 222.256298 77.275117 
L 222.866441 77.196537 
L 223.476088 76.99452 
L 223.78116 76.960846 
L 224.086231 76.747561 
L 224.390972 76.803686 
L 225.001115 76.545515 
L 225.305773 76.579188 
L 225.915586 76.332229 
L 226.220575 76.399571 
L 226.830635 76.141426 
L 227.135624 76.017934 
L 227.440448 76.130183 
L 227.745436 75.894467 
L 228.050508 75.973022 
L 228.355249 75.681182 
L 228.660403 75.883229 
L 229.27005 75.535264 
L 229.87978 75.490353 
L 230.489923 75.288332 
L 230.794581 75.153601 
L 232.014537 75.108715 
L 232.319278 74.884217 
L 234.454035 74.401543 
L 234.759106 74.255625 
L 235.063764 74.569921 
L 235.368919 74.468911 
L 235.67399 74.177045 
L 235.978648 74.345419 
L 236.283803 74.132159 
L 236.893367 74.177045 
L 237.198356 73.862745 
L 237.503345 73.952543 
L 237.808499 73.896418 
L 238.113488 73.604578 
L 238.418229 73.784165 
L 238.723218 73.514781 
L 241.467622 73.178029 
L 241.772693 73.020868 
L 242.382671 72.998413 
L 242.687329 72.818847 
L 242.992401 72.785153 
L 243.297141 72.605537 
L 243.60213 72.616779 
L 243.907119 72.807609 
L 244.516849 72.627992 
L 244.821838 72.69536 
L 245.12691 72.257572 
L 245.432064 72.347391 
L 246.041876 72.11165 
L 246.346617 72.369847 
L 246.95676 72.055525 
L 248.481374 71.932059 
L 248.786032 71.707561 
L 249.700916 71.44939 
L 250.310811 71.550426 
L 252.140497 71.022845 
L 252.750309 71.090182 
L 253.665028 70.832011 
L 254.884901 70.674876 
L 255.495044 70.540171 
L 255.799619 70.57384 
L 256.409845 70.405466 
L 256.714586 70.461591 
L 257.934293 70.304456 
L 258.239365 70.293217 
L 258.544106 70.124839 
L 258.849095 70.169725 
L 259.154166 69.978917 
L 259.459238 70.113626 
L 259.763896 70.046259 
L 260.06905 69.799305 
L 260.373708 69.810543 
L 260.678863 69.608497 
L 261.28851 69.799305 
L 262.203725 69.496248 
L 263.118526 69.664621 
L 263.728338 69.395212 
L 264.337985 69.372756 
L 264.642974 69.406454 
L 264.947963 69.215621 
L 265.253035 69.305418 
L 265.862682 69.024791 
L 266.472742 68.957449 
L 266.777731 69.148283 
L 268.607168 68.542118 
L 268.91224 68.732951 
L 269.216981 68.631941 
L 269.827124 68.732951 
L 270.131782 68.710496 
L 270.436771 68.47478 
L 270.741843 68.620698 
L 271.046914 68.272733 
L 271.351572 68.463537 
L 271.656644 68.49721 
L 271.961633 68.283946 
L 272.266374 68.485993 
L 272.571528 68.149242 
L 272.8766 68.138029 
L 273.181258 68.295189 
L 273.791318 68.003324 
L 274.401131 67.958438 
L 275.316015 68.048231 
L 275.620673 67.857402 
L 276.23065 67.913526 
L 276.535722 67.790064 
L 277.145617 67.857402 
L 278.060419 67.509437 
L 278.365159 67.689028 
L 278.670231 67.509437 
L 278.975303 67.621686 
L 279.890187 67.240023 
L 280.194845 67.341059 
L 280.499916 67.172685 
L 280.804988 67.139017 
L 281.109646 67.363515 
L 281.414718 67.172685 
L 281.719789 67.273696 
L 282.024778 67.161443 
L 282.939579 67.183898 
L 283.549226 66.9594 
L 283.854298 67.105344 
L 284.159039 67.105344 
L 284.464028 66.948183 
L 284.769017 67.026763 
L 285.074171 66.734898 
L 285.378746 66.824695 
L 286.293548 66.768592 
L 286.598537 66.746136 
L 286.903691 66.835934 
L 288.123233 66.510395 
L 288.428222 66.589001 
L 288.733294 66.386933 
L 289.952836 66.342047 
L 290.257907 66.241011 
L 290.562979 66.443058 
L 291.172709 66.487969 
L 291.477863 66.285923 
L 292.69757 66.162431 
L 293.307217 66.038964 
L 293.612372 66.196125 
L 293.91703 66.196125 
L 294.222101 65.949171 
L 294.832162 66.050182 
L 295.136903 66.027726 
L 295.442057 65.848135 
L 295.747046 65.971601 
L 296.051704 65.881804 
L 296.356776 66.027726 
L 296.661847 65.825705 
L 298.186213 65.702213 
L 298.491367 65.870591 
L 299.710909 65.444046 
L 300.016064 65.42159 
L 300.321053 65.545052 
L 301.235688 65.556295 
L 301.540843 65.376704 
L 302.15049 65.39916 
L 302.455561 65.500171 
L 302.760302 65.208305 
L 303.065374 65.286885 
L 303.370445 65.163419 
L 304.894976 65.140963 
L 305.200131 65.006284 
L 306.114684 65.107294 
L 306.419838 64.871579 
L 306.724579 64.882792 
L 307.029651 65.084839 
L 307.33464 65.039953 
L 308.249193 64.579735 
L 308.859253 64.837881 
L 309.468983 64.512372 
L 310.078961 64.456247 
L 310.384115 64.849123 
L 310.993845 64.54604 
L 311.908646 64.680745 
L 312.213718 64.46746 
L 312.518376 64.54604 
L 313.128188 64.411336 
L 313.433177 64.478699 
L 314.043155 64.332755 
L 315.263028 64.44503 
L 315.5681 64.242983 
L 316.482653 64.231745 
L 318.007349 64.007242 
L 318.312421 64.209289 
L 318.922233 63.962335 
L 319.226974 64.07461 
L 319.532046 64.007242 
L 319.837117 64.097065 
L 320.446847 63.917449 
L 320.752001 63.88378 
L 321.056659 63.996029 
L 322.581604 63.928662 
L 322.886262 63.659278 
L 323.191334 63.962335 
L 323.496405 63.838869 
L 323.801063 63.535786 
L 324.106135 63.704189 
L 324.411124 63.625609 
L 324.716195 63.715402 
L 325.020853 63.614366 
L 325.630997 63.625609 
L 325.935655 63.524573 
L 326.240809 63.569459 
L 326.545881 63.457231 
L 327.460682 63.558242 
L 327.76534 63.367438 
L 328.070329 63.311313 
L 328.375401 63.479661 
L 328.985213 63.14291 
L 329.595108 63.490904 
L 329.90018 63.344982 
L 330.204838 63.356195 
L 330.814733 63.131697 
L 332.034689 63.154153 
L 332.33976 63.187821 
L 332.949573 63.120479 
L 333.254396 63.27764 
L 333.559468 63.075572 
L 333.864126 63.064355 
L 334.169115 63.176608 
L 334.474186 62.92965 
L 334.779175 62.851095 
L 335.083833 63.030686 
L 335.388905 62.851095 
L 335.693977 63.131697 
L 336.303706 62.716365 
L 336.608778 62.895981 
L 336.91385 62.761276 
L 337.523331 62.918437 
L 337.828403 62.750059 
L 338.133392 62.940889 
L 338.438546 62.682696 
L 338.743204 62.806184 
L 339.658005 62.649023 
L 339.96316 62.783728 
L 341.792514 62.536774 
L 342.40274 62.592899 
L 343.01247 62.525561 
L 343.927354 62.604141 
L 344.537166 62.402095 
L 344.842238 62.55923 
L 346.062028 62.424525 
L 346.366603 62.514344 
L 346.671758 62.132685 
L 347.891548 62.345945 
L 348.196206 62.121468 
L 348.501195 62.087799 
L 348.806184 62.278603 
L 351.24593 62.143898 
L 351.550919 62.042887 
L 351.855577 62.200022 
L 352.160648 61.908182 
L 352.770378 62.065343 
L 353.07545 61.930638 
L 353.380521 62.099012 
L 353.68551 61.930638 
L 354.600312 62.042887 
L 354.905052 61.784716 
L 355.210041 62.009219 
L 356.125008 61.840841 
L 356.429749 62.020432 
L 356.734903 61.795933 
L 357.649539 61.885727 
L 357.95428 61.751047 
L 358.869164 61.863271 
L 359.174153 61.68368 
L 359.479307 61.717353 
L 360.088954 61.481638 
L 360.394026 61.638798 
L 361.003673 61.593887 
L 361.613816 61.751047 
L 362.223628 61.537762 
L 362.833689 61.447965 
L 364.968032 61.492851 
L 365.577762 61.380602 
L 366.492563 61.31326 
L 367.712602 61.39184 
L 368.01759 61.39184 
L 368.051506 62.031674 
L 368.051506 62.031674 
" style="fill:none;stroke:#ff7f0e;stroke-linecap:square;"/>
   </g>
   <g id="line2d_15">
    <path clip-path="url(#p7e6c3340c8)" d="M 63.687869 220.168678 
L 63.99261 220.438063 
L 64.602753 219.888039 
L 65.212648 219.158411 
L 65.517431 219.0574 
L 66.127326 218.260431 
L 66.432149 218.058376 
L 66.737304 217.497135 
L 67.042003 217.261406 
L 69.786407 212.490803 
L 72.531018 206.55281 
L 73.141037 205.138466 
L 74.665609 201.423016 
L 75.580617 199.312726 
L 75.885399 198.324927 
L 76.495377 196.933035 
L 77.105314 195.395212 
L 80.1545 188.009206 
L 81.374455 184.821312 
L 81.67932 184.2713 
L 82.289298 182.755921 
L 85.643473 174.617853 
L 86.253451 173.304532 
L 87.473076 170.543195 
L 88.082929 169.387023 
L 88.388084 168.444135 
L 88.692866 167.983918 
L 90.217521 164.492953 
L 96.011235 153.155764 
L 98.451064 148.778024 
L 98.755804 148.08207 
L 99.060587 147.846354 
L 99.975471 146.185078 
L 100.585366 145.275859 
L 101.195426 144.243149 
L 101.500291 143.726811 
L 101.805115 143.457397 
L 102.109979 142.817592 
L 102.415258 142.559421 
L 103.024822 141.212415 
L 103.330018 140.99913 
L 103.634841 140.639948 
L 104.854425 138.675593 
L 106.379204 136.744881 
L 106.6844 136.206109 
L 106.989182 135.925456 
L 107.294047 135.409114 
L 107.598911 135.24074 
L 108.208889 134.353977 
L 110.038492 132.501871 
L 110.343688 131.89571 
L 110.648511 131.727332 
L 111.563354 130.402807 
L 111.868094 130.256864 
L 112.173249 129.751739 
L 112.478031 129.594599 
L 112.782896 129.134386 
L 114.612788 127.540451 
L 114.917611 126.990414 
L 116.747131 125.463817 
L 117.052286 124.925019 
L 117.662181 124.476019 
L 117.967087 124.36377 
L 118.27191 124.027018 
L 118.576734 123.881096 
L 119.796524 122.63513 
L 120.101678 122.511664 
L 120.406585 122.152456 
L 120.711325 122.231037 
L 121.321303 121.613658 
L 121.626127 121.490196 
L 121.931281 121.187113 
L 122.541259 120.895273 
L 123.45606 120.075848 
L 124.370613 119.649303 
L 124.675768 119.16663 
L 124.980509 118.987017 
L 125.285663 118.942131 
L 126.200464 118.39212 
L 126.505205 118.044126 
L 126.810442 117.988001 
L 127.115348 117.673706 
L 127.420089 117.572695 
L 127.724995 117.314498 
L 128.029819 117.314498 
L 128.334973 117.056331 
L 128.639714 117.078783 
L 128.944868 116.708363 
L 129.554515 116.506316 
L 129.859752 116.349181 
L 130.16441 115.956305 
L 130.469647 116.012429 
L 130.774388 115.743019 
L 131.384366 115.563429 
L 131.689107 115.271563 
L 131.994344 115.350143 
L 132.299084 115.013392 
L 132.604239 114.957267 
L 132.909145 114.665427 
L 133.213968 114.620516 
L 133.518792 114.328676 
L 133.823946 114.339914 
L 134.433759 114.160298 
L 134.738665 113.868458 
L 135.348725 113.688841 
L 136.873091 113.150048 
L 137.178328 112.959239 
L 137.483069 112.914332 
L 137.787892 112.644944 
L 138.093047 112.701068 
L 139.31292 112.027569 
L 139.922649 111.926533 
L 142.362312 111.03977 
L 142.971959 110.725475 
L 143.581855 110.680563 
L 144.191832 110.478516 
L 144.496739 110.164221 
L 144.80181 110.388723 
L 145.411457 110.040754 
L 146.936236 109.760132 
L 147.240977 109.546842 
L 147.546131 109.63664 
L 147.851038 109.356038 
L 148.460933 109.322369 
L 148.765839 109.187639 
L 149.070993 109.255002 
L 150.290453 108.727421 
L 150.900348 108.626411 
L 151.510326 108.39067 
L 151.815232 108.413125 
L 152.424961 108.244752 
L 153.034939 108.199866 
L 153.339763 108.166193 
L 153.949823 107.885545 
L 154.254812 107.952908 
L 154.559636 107.773317 
L 154.864459 107.896783 
L 155.169696 107.773317 
L 155.474354 107.773317 
L 155.779591 107.548818 
L 156.084415 107.593705 
L 156.694475 107.481451 
L 156.999299 107.414114 
L 157.30404 107.167155 
L 157.609277 107.268191 
L 160.048774 106.796735 
L 160.353598 106.875315 
L 160.963328 106.549781 
L 161.268482 106.448771 
L 161.878129 106.482439 
L 164.012886 106.078346 
L 164.317709 106.168144 
L 164.622781 105.932428 
L 165.232428 105.977314 
L 165.537582 105.876278 
L 165.842323 105.932428 
L 166.147477 105.786481 
L 166.757207 105.820154 
L 167.367102 105.719143 
L 167.97708 105.663018 
L 168.282152 105.562008 
L 168.891799 105.595677 
L 169.501942 105.359936 
L 170.721567 105.303811 
L 171.02639 105.101764 
L 171.331545 105.258925 
L 171.636368 105.169132 
L 171.941109 105.214039 
L 172.246346 105.034423 
L 172.551169 105.146676 
L 173.770711 104.787469 
L 174.685595 104.843593 
L 175.295656 104.7538 
L 175.60048 104.765038 
L 176.21054 104.54051 
L 176.515198 104.67522 
L 177.735071 104.439504 
L 178.040143 104.551753 
L 178.344966 104.428287 
L 178.64979 104.574184 
L 179.869497 104.293582 
L 180.174652 104.394618 
L 180.479723 104.192546 
L 181.089453 104.316038 
L 181.394276 104.012955 
L 182.00442 104.080297 
L 182.614149 104.001742 
L 182.91889 104.035411 
L 183.224044 103.923162 
L 184.443669 103.990499 
L 185.35847 103.754784 
L 186.273272 103.822126 
L 186.578178 103.72109 
L 186.883332 103.911944 
L 187.798051 103.66499 
L 188.102957 103.766001 
L 189.627736 103.66499 
L 189.932477 103.384338 
L 190.237631 103.519068 
L 190.542455 103.440488 
L 190.847609 103.676203 
L 191.152433 103.552741 
L 191.457256 103.642535 
L 191.762493 103.597623 
L 192.067234 103.361908 
L 193.28719 103.272114 
L 193.592013 103.159861 
L 194.201908 103.283327 
L 194.506814 103.519068 
L 194.811555 103.339452 
L 195.116792 103.42925 
L 195.726439 103.137409 
L 196.641489 103.0027 
L 197.861279 103.148648 
L 198.16602 103.272114 
L 198.77608 103.013943 
L 200.605517 103.227203 
L 201.215578 102.969032 
L 201.825225 103.114954 
L 202.130048 102.969032 
L 202.435286 103.025156 
L 203.350004 102.890451 
L 203.654828 103.013943 
L 203.959899 102.755772 
L 204.874701 102.879238 
L 205.179441 102.957793 
L 205.484761 102.811896 
L 205.789585 102.969032 
L 206.094656 102.800658 
L 206.39948 103.036373 
L 207.009127 102.856783 
L 207.314281 102.912907 
L 207.924259 102.800658 
L 208.838895 102.744533 
L 209.448955 102.755772 
L 209.753696 102.733316 
L 210.058519 102.5537 
L 210.363757 102.688405 
L 211.278227 102.643523 
L 211.583464 102.789441 
L 211.888288 102.63228 
L 213.107995 102.621067 
L 214.022714 102.5537 
L 214.327951 102.744533 
L 214.632774 102.542487 
L 215.242504 102.564942 
L 216.462377 102.744533 
L 217.072355 102.587373 
L 217.377178 102.407782 
L 217.68225 102.475119 
L 217.987156 102.329227 
L 218.597134 102.63228 
L 218.901957 102.463906 
L 219.206781 102.621067 
L 219.511604 102.531244 
L 219.816759 102.654736 
L 220.426488 102.407782 
L 221.036466 102.576156 
L 221.95135 102.374109 
L 222.866234 102.497575 
L 223.170975 102.407782 
L 223.475881 102.508818 
L 223.780953 102.351653 
L 224.085859 102.441451 
L 224.391013 102.317984 
L 224.69592 102.329227 
L 225.00066 102.463906 
L 225.610638 102.34044 
L 225.915462 102.452689 
L 227.135252 102.407782 
L 227.440406 102.216974 
L 227.74523 102.463906 
L 228.355207 102.463906 
L 228.964772 102.385326 
L 229.270009 102.497575 
L 229.879573 102.317984 
L 230.18481 102.441451 
L 230.489634 102.317984 
L 230.794374 102.486362 
L 232.014413 102.497575 
L 232.929214 102.317984 
L 233.844015 102.542487 
L 234.453662 102.194518 
L 235.063557 102.317984 
L 235.368712 102.284315 
L 235.673453 102.374109 
L 236.283513 102.127155 
L 236.588419 102.41902 
L 239.027752 102.273098 
L 239.332658 102.385326 
L 240.24779 102.239404 
L 240.552531 102.306771 
L 240.857685 102.520031 
L 241.162509 102.34044 
L 243.906913 102.149611 
L 244.211736 102.362896 
L 244.51689 102.374109 
L 245.126868 102.138368 
L 245.736515 102.172066 
L 246.651482 102.160824 
L 246.956305 102.104699 
L 247.26146 102.34044 
L 247.566283 102.351653 
L 247.871024 102.205735 
L 248.481002 102.407782 
L 249.395969 102.228191 
L 249.700709 102.407782 
L 250.310687 102.205735 
L 250.920582 102.239404 
L 251.225406 102.138368 
L 252.140124 102.362896 
L 252.445196 102.07103 
L 253.055174 102.306771 
L 253.969727 102.239404 
L 254.274881 102.284315 
L 254.579953 101.981233 
L 254.884694 102.250647 
L 255.189848 102.317984 
L 255.494672 102.239404 
L 255.799743 102.362896 
L 256.104401 102.205735 
L 256.409638 102.374109 
L 256.714462 102.194518 
L 257.019285 102.295554 
L 257.32444 102.07103 
L 257.62918 102.037357 
L 257.934335 102.160824 
L 258.239075 102.048575 
L 258.543982 102.216974 
L 259.459031 102.26186 
L 259.763772 102.048575 
L 260.678573 102.250647 
L 261.593292 102.127155 
L 261.898446 102.26186 
L 262.203187 102.172066 
L 262.508341 102.295554 
L 262.813247 102.037357 
L 263.117906 102.26186 
L 263.423225 102.250647 
L 263.727966 102.048575 
L 264.03312 102.26186 
L 264.947839 102.138368 
L 265.862558 102.149611 
L 266.167381 102.250647 
L 268.302138 102.093486 
L 270.131575 102.239404 
L 270.43673 102.149611 
L 270.74147 102.228191 
L 271.046707 102.183279 
L 271.351365 102.317984 
L 271.65652 102.194518 
L 271.961261 102.239404 
L 272.266415 102.149611 
L 272.571238 102.317984 
L 273.181216 102.014906 
L 273.485874 102.26186 
L 274.095769 102.172066 
L 274.70583 102.306771 
L 275.315477 102.115938 
L 276.535515 102.362896 
L 276.840256 102.250647 
L 277.14541 102.273098 
L 277.75514 102.115938 
L 278.059964 102.216974 
L 278.365118 102.172066 
L 278.669859 102.317984 
L 278.97493 102.183279 
L 279.279837 102.351653 
L 279.58466 102.138368 
L 280.194638 102.317984 
L 280.499461 102.284315 
L 280.804533 102.093486 
L 281.109356 102.407782 
L 282.329312 102.216974 
L 282.939207 102.486362 
L 283.549102 102.26186 
L 284.158997 102.306771 
L 284.463821 102.407782 
L 285.683694 102.250647 
L 285.988435 102.34044 
L 286.903484 102.306771 
L 287.20839 102.41902 
L 287.513131 102.138368 
L 288.733004 102.475119 
L 289.342899 102.295554 
L 289.647805 102.362896 
L 289.95296 102.194518 
L 290.562441 102.41902 
L 290.867678 102.284315 
L 291.172502 102.430238 
L 293.307176 102.441451 
L 293.611999 102.486362 
L 293.917071 102.273098 
L 294.526966 102.362896 
L 294.831707 102.351653 
L 295.13653 102.486362 
L 295.746426 102.396565 
L 296.05158 102.205735 
L 296.966299 102.508818 
L 297.271122 102.194518 
L 297.576276 102.407782 
L 298.491243 102.26186 
L 298.795984 102.463906 
L 299.101138 102.295554 
L 299.405879 102.385326 
L 300.015857 102.273098 
L 300.320598 102.430238 
L 300.625752 102.430238 
L 300.930575 102.194518 
L 301.235399 102.531244 
L 301.845294 102.407782 
L 302.150448 102.508818 
L 303.675228 102.430238 
L 304.89477 102.284315 
L 305.199676 102.497575 
L 305.504665 102.374109 
L 305.809405 102.374109 
L 306.419383 102.564942 
L 307.029444 102.160824 
L 307.334185 102.385326 
L 308.249317 102.26186 
L 308.55414 102.430238 
L 309.468776 102.475119 
L 309.773931 102.396565 
L 310.383577 102.441451 
L 311.298627 102.520031 
L 311.603285 102.385326 
L 311.908522 102.486362 
L 312.518086 102.508818 
L 313.128064 102.520031 
L 313.433218 102.407782 
L 314.652678 102.441451 
L 314.957832 102.407782 
L 315.262656 102.587373 
L 315.56781 102.463906 
L 316.177374 102.63228 
L 316.482611 102.463906 
L 317.092424 102.621067 
L 317.397164 102.396565 
L 318.006977 102.688405 
L 318.616872 102.542487 
L 319.226933 102.564942 
L 319.531756 102.430238 
L 319.836828 102.587373 
L 320.446805 102.317984 
L 320.751464 102.486362 
L 321.056701 102.396565 
L 321.666265 102.508818 
L 321.971502 102.362896 
L 322.581397 102.463906 
L 322.886221 102.385326 
L 324.105763 102.598611 
L 324.411 102.273098 
L 324.715906 102.463906 
L 326.240437 102.5537 
L 326.545674 102.407782 
L 327.460393 102.63228 
L 327.765133 102.407782 
L 328.070288 102.508818 
L 328.984924 102.430238 
L 329.289747 102.609824 
L 329.594819 102.463906 
L 332.034565 102.587373 
L 332.644129 102.441451 
L 333.254107 102.508818 
L 333.559178 102.407782 
L 333.863919 102.5537 
L 334.473814 102.508818 
L 335.083709 102.63228 
L 335.388533 102.486362 
L 336.608654 102.71086 
L 336.913395 102.520031 
L 337.218466 102.463906 
L 337.52329 102.587373 
L 337.82803 102.497575 
L 338.438256 102.654736 
L 338.742997 102.621067 
L 339.048152 102.374109 
L 339.352892 102.699647 
L 339.657964 102.542487 
L 340.267859 102.609824 
L 340.5726 102.654736 
L 340.877671 102.542487 
L 341.182412 102.654736 
L 341.487567 102.385326 
L 341.792307 102.542487 
L 342.097462 102.306771 
L 342.402285 102.5537 
L 342.70744 102.486362 
L 343.622158 102.598611 
L 343.926982 102.497575 
L 344.232136 102.564942 
L 344.536877 102.463906 
L 344.842031 102.643523 
L 345.451595 102.351653 
L 345.756832 102.688405 
L 346.671468 102.564942 
L 346.976209 102.362896 
L 347.281363 102.609824 
L 347.891424 102.63228 
L 348.500905 102.531244 
L 348.806142 102.609824 
L 349.110966 102.531244 
L 349.720944 102.789441 
L 350.63558 102.621067 
L 350.940734 102.587373 
L 351.550298 102.733316 
L 351.855453 102.576156 
L 352.160276 102.800658 
L 352.465182 102.800658 
L 352.770337 102.598611 
L 353.07516 102.643523 
L 353.380232 102.845565 
L 353.684973 102.811896 
L 353.99021 102.63228 
L 355.209834 102.71086 
L 355.81973 102.789441 
L 356.429625 102.63228 
L 356.734448 102.744533 
L 357.039272 102.665979 
L 357.344426 102.778202 
L 357.649167 102.722103 
L 357.954321 102.789441 
L 358.564216 102.643523 
L 358.868957 102.665979 
L 359.17378 102.800658 
L 359.783758 102.733316 
L 360.088913 102.609824 
L 360.393571 102.789441 
L 361.613444 102.733316 
L 361.918598 102.766985 
L 362.52841 102.621067 
L 362.833151 102.834327 
L 363.443212 102.576156 
L 364.053189 102.778202 
L 364.358013 102.609824 
L 364.662754 102.789441 
L 364.967825 102.789441 
L 365.272566 102.665979 
L 365.882792 102.789441 
L 366.187533 102.722103 
L 366.492687 102.834327 
L 367.102251 102.755772 
L 367.407406 102.688405 
L 367.712229 102.935363 
L 368.017384 102.665979 
L 368.051382 103.552741 
L 368.051382 103.552741 
" style="fill:none;stroke:#2ca02c;stroke-linecap:square;"/>
   </g>
   <g id="patch_3">
    <path d="M 48.469688 232.46 
L 48.469688 10.7 
" style="fill:none;stroke:#000000;stroke-linecap:square;stroke-linejoin:miter;stroke-width:0.8;"/>
   </g>
   <g id="patch_4">
    <path d="M 383.269688 232.46 
L 383.269688 10.7 
" style="fill:none;stroke:#000000;stroke-linecap:square;stroke-linejoin:miter;stroke-width:0.8;"/>
   </g>
   <g id="patch_5">
    <path d="M 48.469688 232.46 
L 383.269688 232.46 
" style="fill:none;stroke:#000000;stroke-linecap:square;stroke-linejoin:miter;stroke-width:0.8;"/>
   </g>
   <g id="patch_6">
    <path d="M 48.469688 10.7 
L 383.269688 10.7 
" style="fill:none;stroke:#000000;stroke-linecap:square;stroke-linejoin:miter;stroke-width:0.8;"/>
   </g>
   <g id="text_15">
    <!-- Austêmpera -->
    <defs>
     <path d="M -0.140625 0 
L 27.34375 71.578125 
L 37.546875 71.578125 
L 66.84375 0 
L 56.0625 0 
L 47.703125 21.6875 
L 17.78125 21.6875 
L 9.90625 0 
z
M 20.515625 29.390625 
L 44.78125 29.390625 
L 37.3125 49.21875 
Q 33.890625 58.25 32.234375 64.0625 
Q 30.859375 57.171875 28.375 50.390625 
z
" id="ArialMT-41"/>
     <path d="M 40.578125 0 
L 40.578125 7.625 
Q 34.515625 -1.171875 24.125 -1.171875 
Q 19.53125 -1.171875 15.546875 0.578125 
Q 11.578125 2.34375 9.640625 5 
Q 7.71875 7.671875 6.9375 11.53125 
Q 6.390625 14.109375 6.390625 19.734375 
L 6.390625 51.859375 
L 15.1875 51.859375 
L 15.1875 23.09375 
Q 15.1875 16.21875 15.71875 13.8125 
Q 16.546875 10.359375 19.234375 8.375 
Q 21.921875 6.390625 25.875 6.390625 
Q 29.828125 6.390625 33.296875 8.421875 
Q 36.765625 10.453125 38.203125 13.9375 
Q 39.65625 17.4375 39.65625 24.078125 
L 39.65625 51.859375 
L 48.4375 51.859375 
L 48.4375 0 
z
" id="ArialMT-75"/>
     <path d="M 3.078125 15.484375 
L 11.765625 16.84375 
Q 12.5 11.625 15.84375 8.84375 
Q 19.1875 6.0625 25.203125 6.0625 
Q 31.25 6.0625 34.171875 8.515625 
Q 37.109375 10.984375 37.109375 14.3125 
Q 37.109375 17.28125 34.515625 19 
Q 32.71875 20.171875 25.53125 21.96875 
Q 15.875 24.421875 12.140625 26.203125 
Q 8.40625 27.984375 6.46875 31.125 
Q 4.546875 34.28125 4.546875 38.09375 
Q 4.546875 41.546875 6.125 44.5 
Q 7.71875 47.46875 10.453125 49.421875 
Q 12.5 50.921875 16.03125 51.96875 
Q 19.578125 53.03125 23.640625 53.03125 
Q 29.734375 53.03125 34.34375 51.265625 
Q 38.96875 49.515625 41.15625 46.5 
Q 43.359375 43.5 44.1875 38.484375 
L 35.59375 37.3125 
Q 35.015625 41.3125 32.203125 43.546875 
Q 29.390625 45.796875 24.265625 45.796875 
Q 18.21875 45.796875 15.625 43.796875 
Q 13.03125 41.796875 13.03125 39.109375 
Q 13.03125 37.40625 14.109375 36.03125 
Q 15.1875 34.625 17.484375 33.6875 
Q 18.796875 33.203125 25.25 31.453125 
Q 34.578125 28.953125 38.25 27.359375 
Q 41.9375 25.78125 44.03125 22.75 
Q 46.140625 19.734375 46.140625 15.234375 
Q 46.140625 10.84375 43.578125 6.953125 
Q 41.015625 3.078125 36.171875 0.953125 
Q 31.34375 -1.171875 25.25 -1.171875 
Q 15.140625 -1.171875 9.84375 3.03125 
Q 4.546875 7.234375 3.078125 15.484375 
z
" id="ArialMT-73"/>
     <path d="M 42.09375 16.703125 
L 51.171875 15.578125 
Q 49.03125 7.625 43.21875 3.21875 
Q 37.40625 -1.171875 28.375 -1.171875 
Q 17 -1.171875 10.328125 5.828125 
Q 3.65625 12.84375 3.65625 25.484375 
Q 3.65625 38.578125 10.390625 45.796875 
Q 17.140625 53.03125 27.875 53.03125 
Q 38.28125 53.03125 44.875 45.953125 
Q 51.46875 38.875 51.46875 26.03125 
Q 51.46875 25.25 51.421875 23.6875 
L 12.75 23.6875 
Q 13.234375 15.140625 17.578125 10.59375 
Q 21.921875 6.0625 28.421875 6.0625 
Q 33.25 6.0625 36.671875 8.59375 
Q 40.09375 11.140625 42.09375 16.703125 
z
M 13.234375 30.90625 
L 42.1875 30.90625 
Q 41.609375 37.453125 38.875 40.71875 
Q 34.671875 45.796875 27.984375 45.796875 
Q 21.921875 45.796875 17.796875 41.75 
Q 13.671875 37.703125 13.234375 30.90625 
z
M 27.671875 66.609375 
L 22.15625 58.296875 
L 12.09375 58.296875 
L 22.640625 71.96875 
L 32.015625 71.96875 
L 43 58.296875 
L 33.046875 58.296875 
z
" id="ArialMT-ea"/>
    </defs>
    <g transform="translate(306.487437 225.44105)scale(0.13 -0.13)">
     <use xlink:href="#ArialMT-41"/>
     <use x="66.699219" xlink:href="#ArialMT-75"/>
     <use x="122.314453" xlink:href="#ArialMT-73"/>
     <use x="172.314453" xlink:href="#ArialMT-74"/>
     <use x="200.097656" xlink:href="#ArialMT-ea"/>
     <use x="255.712891" xlink:href="#ArialMT-6d"/>
     <use x="339.013672" xlink:href="#ArialMT-70"/>
     <use x="394.628906" xlink:href="#ArialMT-65"/>
     <use x="450.244141" xlink:href="#ArialMT-72"/>
     <use x="483.544922" xlink:href="#ArialMT-61"/>
    </g>
   </g>
   <g id="legend_1">
    <g id="patch_7">
     <path d="M 54.969688 76.266719 
L 141.655313 76.266719 
L 141.655313 17.2 
L 54.969688 17.2 
z
" style="fill:#ffffff;opacity:0.8;stroke:#cccccc;stroke-linejoin:miter;"/>
    </g>
    <g id="line2d_16">
     <path d="M 60.169688 27.155156 
L 86.169688 27.155156 
" style="fill:none;stroke:#1f77b4;stroke-linecap:square;"/>
    </g>
    <g id="line2d_17"/>
    <g id="text_16">
     <!-- 300 °C -->
     <defs>
      <path d="M 6.25 59.28125 
Q 6.25 64.890625 10.21875 68.84375 
Q 14.203125 72.796875 19.78125 72.796875 
Q 25.4375 72.796875 29.390625 68.84375 
Q 33.34375 64.890625 33.34375 59.28125 
Q 33.34375 53.65625 29.359375 49.671875 
Q 25.390625 45.703125 19.78125 45.703125 
Q 14.203125 45.703125 10.21875 49.65625 
Q 6.25 53.609375 6.25 59.28125 
z
M 11.578125 59.28125 
Q 11.578125 55.859375 13.984375 53.4375 
Q 16.40625 51.03125 19.828125 51.03125 
Q 23.1875 51.03125 25.609375 53.4375 
Q 28.03125 55.859375 28.03125 59.28125 
Q 28.03125 62.703125 25.609375 65.109375 
Q 23.1875 67.53125 19.828125 67.53125 
Q 16.40625 67.53125 13.984375 65.109375 
Q 11.578125 62.703125 11.578125 59.28125 
z
" id="ArialMT-b0"/>
      <path d="M 58.796875 25.09375 
L 68.265625 22.703125 
Q 65.28125 11.03125 57.546875 4.90625 
Q 49.8125 -1.21875 38.625 -1.21875 
Q 27.046875 -1.21875 19.796875 3.484375 
Q 12.546875 8.203125 8.765625 17.140625 
Q 4.984375 26.078125 4.984375 36.328125 
Q 4.984375 47.515625 9.25 55.828125 
Q 13.53125 64.15625 21.40625 68.46875 
Q 29.296875 72.796875 38.765625 72.796875 
Q 49.515625 72.796875 56.828125 67.328125 
Q 64.15625 61.859375 67.046875 51.953125 
L 57.71875 49.75 
Q 55.21875 57.5625 50.484375 61.125 
Q 45.75 64.703125 38.578125 64.703125 
Q 30.328125 64.703125 24.78125 60.734375 
Q 19.234375 56.78125 16.984375 50.109375 
Q 14.75 43.453125 14.75 36.375 
Q 14.75 27.25 17.40625 20.4375 
Q 20.0625 13.625 25.671875 10.25 
Q 31.296875 6.890625 37.84375 6.890625 
Q 45.796875 6.890625 51.3125 11.46875 
Q 56.84375 16.0625 58.796875 25.09375 
z
" id="ArialMT-43"/>
     </defs>
     <g transform="translate(96.569688 31.705156)scale(0.13 -0.13)">
      <use xlink:href="#ArialMT-33"/>
      <use x="55.615234" xlink:href="#ArialMT-30"/>
      <use x="111.230469" xlink:href="#ArialMT-30"/>
      <use x="166.845703" xlink:href="#ArialMT-20"/>
      <use x="194.628906" xlink:href="#ArialMT-b0"/>
      <use x="234.619141" xlink:href="#ArialMT-43"/>
     </g>
    </g>
    <g id="line2d_18">
     <path d="M 60.169688 45.544062 
L 86.169688 45.544062 
" style="fill:none;stroke:#ff7f0e;stroke-linecap:square;"/>
    </g>
    <g id="line2d_19"/>
    <g id="text_17">
     <!-- 375 °C -->
     <g transform="translate(96.569688 50.094062)scale(0.13 -0.13)">
      <use xlink:href="#ArialMT-33"/>
      <use x="55.615234" xlink:href="#ArialMT-37"/>
      <use x="111.230469" xlink:href="#ArialMT-35"/>
      <use x="166.845703" xlink:href="#ArialMT-20"/>
      <use x="194.628906" xlink:href="#ArialMT-b0"/>
      <use x="234.619141" xlink:href="#ArialMT-43"/>
     </g>
    </g>
    <g id="line2d_20">
     <path d="M 60.169688 63.932969 
L 86.169688 63.932969 
" style="fill:none;stroke:#2ca02c;stroke-linecap:square;"/>
    </g>
    <g id="line2d_21"/>
    <g id="text_18">
     <!-- 450 °C -->
     <g transform="translate(96.569688 68.482969)scale(0.13 -0.13)">
      <use xlink:href="#ArialMT-34"/>
      <use x="55.615234" xlink:href="#ArialMT-35"/>
      <use x="111.230469" xlink:href="#ArialMT-30"/>
      <use x="166.845703" xlink:href="#ArialMT-20"/>
      <use x="194.628906" xlink:href="#ArialMT-b0"/>
      <use x="234.619141" xlink:href="#ArialMT-43"/>
     </g>
    </g>
   </g>
  </g>
 </g>
 <defs>
  <clipPath id="p7e6c3340c8">
   <rect height="221.76" width="334.8" x="48.469688" y="10.7"/>
  </clipPath>
 </defs>
</svg>
