<?xml version="1.0" encoding="utf-8" standalone="no"?>
<!DOCTYPE svg PUBLIC "-//W3C//DTD SVG 1.1//EN"
  "http://www.w3.org/Graphics/SVG/1.1/DTD/svg11.dtd">
<!-- Created with matplotlib (http://matplotlib.org/) -->
<svg height="274pt" version="1.1" viewBox="0 0 408 274" width="408pt" xmlns="http://www.w3.org/2000/svg" xmlns:xlink="http://www.w3.org/1999/xlink">
 <defs>
  <style type="text/css">
*{stroke-linecap:butt;stroke-linejoin:round;}
  </style>
 </defs>
 <g id="figure_1">
  <g id="patch_1">
   <path d="M 0 274.748594 
L 408.906328 274.748594 
L 408.906328 0 
L 0 0 
z
" style="fill:#ffffff;"/>
  </g>
  <g id="axes_1">
   <g id="patch_2">
    <path d="M 56.0625 232.46 
L 390.8625 232.46 
L 390.8625 10.7 
L 56.0625 10.7 
z
" style="fill:#ffffff;"/>
   </g>
   <g id="matplotlib.axis_1">
    <g id="xtick_1">
     <g id="line2d_1">
      <defs>
       <path d="M 0 0 
L 0 3.5 
" id="m3b978d5be7" style="stroke:#000000;stroke-width:0.8;"/>
      </defs>
      <g>
       <use style="stroke:#000000;stroke-width:0.8;" x="56.0625" xlink:href="#m3b978d5be7" y="232.46"/>
      </g>
     </g>
     <g id="text_1">
      <!-- 0 -->
      <defs>
       <path d="M 4.15625 35.296875 
Q 4.15625 48 6.765625 55.734375 
Q 9.375 63.484375 14.515625 67.671875 
Q 19.671875 71.875 27.484375 71.875 
Q 33.25 71.875 37.59375 69.546875 
Q 41.9375 67.234375 44.765625 62.859375 
Q 47.609375 58.5 49.21875 52.21875 
Q 50.828125 45.953125 50.828125 35.296875 
Q 50.828125 22.703125 48.234375 14.96875 
Q 45.65625 7.234375 40.5 3 
Q 35.359375 -1.21875 27.484375 -1.21875 
Q 17.140625 -1.21875 11.234375 6.203125 
Q 4.15625 15.140625 4.15625 35.296875 
z
M 13.1875 35.296875 
Q 13.1875 17.671875 17.3125 11.828125 
Q 21.4375 6 27.484375 6 
Q 33.546875 6 37.671875 11.859375 
Q 41.796875 17.71875 41.796875 35.296875 
Q 41.796875 52.984375 37.671875 58.78125 
Q 33.546875 64.59375 27.390625 64.59375 
Q 21.34375 64.59375 17.71875 59.46875 
Q 13.1875 52.9375 13.1875 35.296875 
z
" id="ArialMT-30"/>
      </defs>
      <g transform="translate(52.447891 248.765156)scale(0.13 -0.13)">
       <use xlink:href="#ArialMT-30"/>
      </g>
     </g>
    </g>
    <g id="xtick_2">
     <g id="line2d_2">
      <g>
       <use style="stroke:#000000;stroke-width:0.8;" x="123.0225" xlink:href="#m3b978d5be7" y="232.46"/>
      </g>
     </g>
     <g id="text_2">
      <!-- 100 -->
      <defs>
       <path d="M 37.25 0 
L 28.46875 0 
L 28.46875 56 
Q 25.296875 52.984375 20.140625 49.953125 
Q 14.984375 46.921875 10.890625 45.40625 
L 10.890625 53.90625 
Q 18.265625 57.375 23.78125 62.296875 
Q 29.296875 67.234375 31.59375 71.875 
L 37.25 71.875 
z
" id="ArialMT-31"/>
      </defs>
      <g transform="translate(112.178672 248.765156)scale(0.13 -0.13)">
       <use xlink:href="#ArialMT-31"/>
       <use x="55.615234" xlink:href="#ArialMT-30"/>
       <use x="111.230469" xlink:href="#ArialMT-30"/>
      </g>
     </g>
    </g>
    <g id="xtick_3">
     <g id="line2d_3">
      <g>
       <use style="stroke:#000000;stroke-width:0.8;" x="189.9825" xlink:href="#m3b978d5be7" y="232.46"/>
      </g>
     </g>
     <g id="text_3">
      <!-- 200 -->
      <defs>
       <path d="M 50.34375 8.453125 
L 50.34375 0 
L 3.03125 0 
Q 2.9375 3.171875 4.046875 6.109375 
Q 5.859375 10.9375 9.828125 15.625 
Q 13.8125 20.3125 21.34375 26.46875 
Q 33.015625 36.03125 37.109375 41.625 
Q 41.21875 47.21875 41.21875 52.203125 
Q 41.21875 57.421875 37.46875 61 
Q 33.734375 64.59375 27.734375 64.59375 
Q 21.390625 64.59375 17.578125 60.78125 
Q 13.765625 56.984375 13.71875 50.25 
L 4.6875 51.171875 
Q 5.609375 61.28125 11.65625 66.578125 
Q 17.71875 71.875 27.9375 71.875 
Q 38.234375 71.875 44.234375 66.15625 
Q 50.25 60.453125 50.25 52 
Q 50.25 47.703125 48.484375 43.546875 
Q 46.734375 39.40625 42.65625 34.8125 
Q 38.578125 30.21875 29.109375 22.21875 
Q 21.1875 15.578125 18.9375 13.203125 
Q 16.703125 10.84375 15.234375 8.453125 
z
" id="ArialMT-32"/>
      </defs>
      <g transform="translate(179.138672 248.765156)scale(0.13 -0.13)">
       <use xlink:href="#ArialMT-32"/>
       <use x="55.615234" xlink:href="#ArialMT-30"/>
       <use x="111.230469" xlink:href="#ArialMT-30"/>
      </g>
     </g>
    </g>
    <g id="xtick_4">
     <g id="line2d_4">
      <g>
       <use style="stroke:#000000;stroke-width:0.8;" x="256.9425" xlink:href="#m3b978d5be7" y="232.46"/>
      </g>
     </g>
     <g id="text_4">
      <!-- 300 -->
      <defs>
       <path d="M 4.203125 18.890625 
L 12.984375 20.0625 
Q 14.5 12.59375 18.140625 9.296875 
Q 21.78125 6 27 6 
Q 33.203125 6 37.46875 10.296875 
Q 41.75 14.59375 41.75 20.953125 
Q 41.75 27 37.796875 30.921875 
Q 33.84375 34.859375 27.734375 34.859375 
Q 25.25 34.859375 21.53125 33.890625 
L 22.515625 41.609375 
Q 23.390625 41.5 23.921875 41.5 
Q 29.546875 41.5 34.03125 44.421875 
Q 38.53125 47.359375 38.53125 53.46875 
Q 38.53125 58.296875 35.25 61.46875 
Q 31.984375 64.65625 26.8125 64.65625 
Q 21.6875 64.65625 18.265625 61.421875 
Q 14.84375 58.203125 13.875 51.765625 
L 5.078125 53.328125 
Q 6.6875 62.15625 12.390625 67.015625 
Q 18.109375 71.875 26.609375 71.875 
Q 32.46875 71.875 37.390625 69.359375 
Q 42.328125 66.84375 44.9375 62.5 
Q 47.5625 58.15625 47.5625 53.265625 
Q 47.5625 48.640625 45.0625 44.828125 
Q 42.578125 41.015625 37.703125 38.765625 
Q 44.046875 37.3125 47.5625 32.6875 
Q 51.078125 28.078125 51.078125 21.140625 
Q 51.078125 11.765625 44.234375 5.25 
Q 37.40625 -1.265625 26.953125 -1.265625 
Q 17.53125 -1.265625 11.296875 4.34375 
Q 5.078125 9.96875 4.203125 18.890625 
z
" id="ArialMT-33"/>
      </defs>
      <g transform="translate(246.098672 248.765156)scale(0.13 -0.13)">
       <use xlink:href="#ArialMT-33"/>
       <use x="55.615234" xlink:href="#ArialMT-30"/>
       <use x="111.230469" xlink:href="#ArialMT-30"/>
      </g>
     </g>
    </g>
    <g id="xtick_5">
     <g id="line2d_5">
      <g>
       <use style="stroke:#000000;stroke-width:0.8;" x="323.9025" xlink:href="#m3b978d5be7" y="232.46"/>
      </g>
     </g>
     <g id="text_5">
      <!-- 400 -->
      <defs>
       <path d="M 32.328125 0 
L 32.328125 17.140625 
L 1.265625 17.140625 
L 1.265625 25.203125 
L 33.9375 71.578125 
L 41.109375 71.578125 
L 41.109375 25.203125 
L 50.78125 25.203125 
L 50.78125 17.140625 
L 41.109375 17.140625 
L 41.109375 0 
z
M 32.328125 25.203125 
L 32.328125 57.46875 
L 9.90625 25.203125 
z
" id="ArialMT-34"/>
      </defs>
      <g transform="translate(313.058672 248.765156)scale(0.13 -0.13)">
       <use xlink:href="#ArialMT-34"/>
       <use x="55.615234" xlink:href="#ArialMT-30"/>
       <use x="111.230469" xlink:href="#ArialMT-30"/>
      </g>
     </g>
    </g>
    <g id="xtick_6">
     <g id="line2d_6">
      <g>
       <use style="stroke:#000000;stroke-width:0.8;" x="390.8625" xlink:href="#m3b978d5be7" y="232.46"/>
      </g>
     </g>
     <g id="text_6">
      <!-- 500 -->
      <defs>
       <path d="M 4.15625 18.75 
L 13.375 19.53125 
Q 14.40625 12.796875 18.140625 9.390625 
Q 21.875 6 27.15625 6 
Q 33.5 6 37.890625 10.78125 
Q 42.28125 15.578125 42.28125 23.484375 
Q 42.28125 31 38.0625 35.34375 
Q 33.84375 39.703125 27 39.703125 
Q 22.75 39.703125 19.328125 37.765625 
Q 15.921875 35.84375 13.96875 32.765625 
L 5.71875 33.84375 
L 12.640625 70.609375 
L 48.25 70.609375 
L 48.25 62.203125 
L 19.671875 62.203125 
L 15.828125 42.96875 
Q 22.265625 47.46875 29.34375 47.46875 
Q 38.71875 47.46875 45.15625 40.96875 
Q 51.609375 34.46875 51.609375 24.265625 
Q 51.609375 14.546875 45.953125 7.46875 
Q 39.0625 -1.21875 27.15625 -1.21875 
Q 17.390625 -1.21875 11.203125 4.25 
Q 5.03125 9.71875 4.15625 18.75 
z
" id="ArialMT-35"/>
      </defs>
      <g transform="translate(380.018672 248.765156)scale(0.13 -0.13)">
       <use xlink:href="#ArialMT-35"/>
       <use x="55.615234" xlink:href="#ArialMT-30"/>
       <use x="111.230469" xlink:href="#ArialMT-30"/>
      </g>
     </g>
    </g>
    <g id="text_7">
     <!-- Temperatura de partição (°C) -->
     <defs>
      <path d="M 25.921875 0 
L 25.921875 63.140625 
L 2.34375 63.140625 
L 2.34375 71.578125 
L 59.078125 71.578125 
L 59.078125 63.140625 
L 35.40625 63.140625 
L 35.40625 0 
z
" id="ArialMT-54"/>
      <path d="M 42.09375 16.703125 
L 51.171875 15.578125 
Q 49.03125 7.625 43.21875 3.21875 
Q 37.40625 -1.171875 28.375 -1.171875 
Q 17 -1.171875 10.328125 5.828125 
Q 3.65625 12.84375 3.65625 25.484375 
Q 3.65625 38.578125 10.390625 45.796875 
Q 17.140625 53.03125 27.875 53.03125 
Q 38.28125 53.03125 44.875 45.953125 
Q 51.46875 38.875 51.46875 26.03125 
Q 51.46875 25.25 51.421875 23.6875 
L 12.75 23.6875 
Q 13.234375 15.140625 17.578125 10.59375 
Q 21.921875 6.0625 28.421875 6.0625 
Q 33.25 6.0625 36.671875 8.59375 
Q 40.09375 11.140625 42.09375 16.703125 
z
M 13.234375 30.90625 
L 42.1875 30.90625 
Q 41.609375 37.453125 38.875 40.71875 
Q 34.671875 45.796875 27.984375 45.796875 
Q 21.921875 45.796875 17.796875 41.75 
Q 13.671875 37.703125 13.234375 30.90625 
z
" id="ArialMT-65"/>
      <path d="M 6.59375 0 
L 6.59375 51.859375 
L 14.453125 51.859375 
L 14.453125 44.578125 
Q 16.890625 48.390625 20.9375 50.703125 
Q 25 53.03125 30.171875 53.03125 
Q 35.9375 53.03125 39.625 50.640625 
Q 43.3125 48.25 44.828125 43.953125 
Q 50.984375 53.03125 60.84375 53.03125 
Q 68.5625 53.03125 72.703125 48.75 
Q 76.859375 44.484375 76.859375 35.59375 
L 76.859375 0 
L 68.109375 0 
L 68.109375 32.671875 
Q 68.109375 37.9375 67.25 40.25 
Q 66.40625 42.578125 64.15625 43.984375 
Q 61.921875 45.40625 58.890625 45.40625 
Q 53.421875 45.40625 49.796875 41.765625 
Q 46.1875 38.140625 46.1875 30.125 
L 46.1875 0 
L 37.40625 0 
L 37.40625 33.6875 
Q 37.40625 39.546875 35.25 42.46875 
Q 33.109375 45.40625 28.21875 45.40625 
Q 24.515625 45.40625 21.359375 43.453125 
Q 18.21875 41.5 16.796875 37.734375 
Q 15.375 33.984375 15.375 26.90625 
L 15.375 0 
z
" id="ArialMT-6d"/>
      <path d="M 6.59375 -19.875 
L 6.59375 51.859375 
L 14.59375 51.859375 
L 14.59375 45.125 
Q 17.4375 49.078125 21 51.046875 
Q 24.5625 53.03125 29.640625 53.03125 
Q 36.28125 53.03125 41.359375 49.609375 
Q 46.4375 46.1875 49.015625 39.953125 
Q 51.609375 33.734375 51.609375 26.3125 
Q 51.609375 18.359375 48.75 11.984375 
Q 45.90625 5.609375 40.453125 2.21875 
Q 35.015625 -1.171875 29 -1.171875 
Q 24.609375 -1.171875 21.109375 0.6875 
Q 17.625 2.546875 15.375 5.375 
L 15.375 -19.875 
z
M 14.546875 25.640625 
Q 14.546875 15.625 18.59375 10.84375 
Q 22.65625 6.0625 28.421875 6.0625 
Q 34.28125 6.0625 38.453125 11.015625 
Q 42.625 15.96875 42.625 26.375 
Q 42.625 36.28125 38.546875 41.203125 
Q 34.46875 46.140625 28.8125 46.140625 
Q 23.1875 46.140625 18.859375 40.890625 
Q 14.546875 35.640625 14.546875 25.640625 
z
" id="ArialMT-70"/>
      <path d="M 6.5 0 
L 6.5 51.859375 
L 14.40625 51.859375 
L 14.40625 44 
Q 17.4375 49.515625 20 51.265625 
Q 22.5625 53.03125 25.640625 53.03125 
Q 30.078125 53.03125 34.671875 50.203125 
L 31.640625 42.046875 
Q 28.421875 43.953125 25.203125 43.953125 
Q 22.3125 43.953125 20.015625 42.21875 
Q 17.71875 40.484375 16.75 37.40625 
Q 15.28125 32.71875 15.28125 27.15625 
L 15.28125 0 
z
" id="ArialMT-72"/>
      <path d="M 40.4375 6.390625 
Q 35.546875 2.25 31.03125 0.53125 
Q 26.515625 -1.171875 21.34375 -1.171875 
Q 12.796875 -1.171875 8.203125 3 
Q 3.609375 7.171875 3.609375 13.671875 
Q 3.609375 17.484375 5.34375 20.625 
Q 7.078125 23.78125 9.890625 25.6875 
Q 12.703125 27.59375 16.21875 28.5625 
Q 18.796875 29.25 24.03125 29.890625 
Q 34.671875 31.15625 39.703125 32.90625 
Q 39.75 34.71875 39.75 35.203125 
Q 39.75 40.578125 37.25 42.78125 
Q 33.890625 45.75 27.25 45.75 
Q 21.046875 45.75 18.09375 43.578125 
Q 15.140625 41.40625 13.71875 35.890625 
L 5.125 37.0625 
Q 6.296875 42.578125 8.984375 45.96875 
Q 11.671875 49.359375 16.75 51.1875 
Q 21.828125 53.03125 28.515625 53.03125 
Q 35.15625 53.03125 39.296875 51.46875 
Q 43.453125 49.90625 45.40625 47.53125 
Q 47.359375 45.171875 48.140625 41.546875 
Q 48.578125 39.3125 48.578125 33.453125 
L 48.578125 21.734375 
Q 48.578125 9.46875 49.140625 6.21875 
Q 49.703125 2.984375 51.375 0 
L 42.1875 0 
Q 40.828125 2.734375 40.4375 6.390625 
z
M 39.703125 26.03125 
Q 34.90625 24.078125 25.34375 22.703125 
Q 19.921875 21.921875 17.671875 20.9375 
Q 15.4375 19.96875 14.203125 18.09375 
Q 12.984375 16.21875 12.984375 13.921875 
Q 12.984375 10.40625 15.640625 8.0625 
Q 18.3125 5.71875 23.4375 5.71875 
Q 28.515625 5.71875 32.46875 7.9375 
Q 36.421875 10.15625 38.28125 14.015625 
Q 39.703125 17 39.703125 22.796875 
z
" id="ArialMT-61"/>
      <path d="M 25.78125 7.859375 
L 27.046875 0.09375 
Q 23.34375 -0.6875 20.40625 -0.6875 
Q 15.625 -0.6875 12.984375 0.828125 
Q 10.359375 2.34375 9.28125 4.8125 
Q 8.203125 7.28125 8.203125 15.1875 
L 8.203125 45.015625 
L 1.765625 45.015625 
L 1.765625 51.859375 
L 8.203125 51.859375 
L 8.203125 64.703125 
L 16.9375 69.96875 
L 16.9375 51.859375 
L 25.78125 51.859375 
L 25.78125 45.015625 
L 16.9375 45.015625 
L 16.9375 14.703125 
Q 16.9375 10.9375 17.40625 9.859375 
Q 17.875 8.796875 18.921875 8.15625 
Q 19.96875 7.515625 21.921875 7.515625 
Q 23.390625 7.515625 25.78125 7.859375 
z
" id="ArialMT-74"/>
      <path d="M 40.578125 0 
L 40.578125 7.625 
Q 34.515625 -1.171875 24.125 -1.171875 
Q 19.53125 -1.171875 15.546875 0.578125 
Q 11.578125 2.34375 9.640625 5 
Q 7.71875 7.671875 6.9375 11.53125 
Q 6.390625 14.109375 6.390625 19.734375 
L 6.390625 51.859375 
L 15.1875 51.859375 
L 15.1875 23.09375 
Q 15.1875 16.21875 15.71875 13.8125 
Q 16.546875 10.359375 19.234375 8.375 
Q 21.921875 6.390625 25.875 6.390625 
Q 29.828125 6.390625 33.296875 8.421875 
Q 36.765625 10.453125 38.203125 13.9375 
Q 39.65625 17.4375 39.65625 24.078125 
L 39.65625 51.859375 
L 48.4375 51.859375 
L 48.4375 0 
z
" id="ArialMT-75"/>
      <path id="ArialMT-20"/>
      <path d="M 40.234375 0 
L 40.234375 6.546875 
Q 35.296875 -1.171875 25.734375 -1.171875 
Q 19.53125 -1.171875 14.328125 2.25 
Q 9.125 5.671875 6.265625 11.796875 
Q 3.421875 17.921875 3.421875 25.875 
Q 3.421875 33.640625 6 39.96875 
Q 8.59375 46.296875 13.765625 49.65625 
Q 18.953125 53.03125 25.34375 53.03125 
Q 30.03125 53.03125 33.6875 51.046875 
Q 37.359375 49.078125 39.65625 45.90625 
L 39.65625 71.578125 
L 48.390625 71.578125 
L 48.390625 0 
z
M 12.453125 25.875 
Q 12.453125 15.921875 16.640625 10.984375 
Q 20.84375 6.0625 26.5625 6.0625 
Q 32.328125 6.0625 36.34375 10.765625 
Q 40.375 15.484375 40.375 25.140625 
Q 40.375 35.796875 36.265625 40.765625 
Q 32.171875 45.75 26.171875 45.75 
Q 20.3125 45.75 16.375 40.96875 
Q 12.453125 36.1875 12.453125 25.875 
z
" id="ArialMT-64"/>
      <path d="M 6.640625 61.46875 
L 6.640625 71.578125 
L 15.4375 71.578125 
L 15.4375 61.46875 
z
M 6.640625 0 
L 6.640625 51.859375 
L 15.4375 51.859375 
L 15.4375 0 
z
" id="ArialMT-69"/>
      <path d="M 40.4375 19 
L 49.078125 17.875 
Q 47.65625 8.9375 41.8125 3.875 
Q 35.984375 -1.171875 27.484375 -1.171875 
Q 16.84375 -1.171875 10.375 5.78125 
Q 3.90625 12.75 3.90625 25.734375 
Q 3.90625 34.125 6.6875 40.421875 
Q 9.46875 46.734375 15.15625 49.875 
Q 20.84375 53.03125 27.546875 53.03125 
Q 35.984375 53.03125 41.359375 48.75 
Q 46.734375 44.484375 48.25 36.625 
L 39.703125 35.296875 
Q 38.484375 40.53125 35.375 43.15625 
Q 32.28125 45.796875 27.875 45.796875 
Q 21.234375 45.796875 17.078125 41.03125 
Q 12.9375 36.28125 12.9375 25.984375 
Q 12.9375 15.53125 16.9375 10.796875 
Q 20.953125 6.0625 27.390625 6.0625 
Q 32.5625 6.0625 36.03125 9.234375 
Q 39.5 12.40625 40.4375 19 
z
M 20.046875 -6.515625 
L 22.59375 2.125 
L 29.125 2.125 
L 27.515625 -3.109375 
Q 31.671875 -3.59375 33.765625 -5.65625 
Q 35.875 -7.734375 35.875 -10.28125 
Q 35.875 -13.9375 32.359375 -16.75 
Q 28.84375 -19.5625 21.75 -19.5625 
Q 17.75 -19.5625 14.71875 -18.96875 
L 15.265625 -13.265625 
Q 18.390625 -13.453125 19.859375 -13.453125 
Q 24.4375 -13.453125 26.296875 -12.1875 
Q 27.71875 -11.203125 27.71875 -9.796875 
Q 27.71875 -8.90625 27.15625 -8.21875 
Q 26.59375 -7.546875 25.078125 -7.046875 
Q 23.5625 -6.5625 20.046875 -6.515625 
z
" id="ArialMT-e7"/>
      <path d="M 40.4375 6.390625 
Q 35.546875 2.25 31.03125 0.53125 
Q 26.515625 -1.171875 21.34375 -1.171875 
Q 12.796875 -1.171875 8.203125 3 
Q 3.609375 7.171875 3.609375 13.671875 
Q 3.609375 17.484375 5.34375 20.625 
Q 7.078125 23.78125 9.890625 25.6875 
Q 12.703125 27.59375 16.21875 28.5625 
Q 18.796875 29.25 24.03125 29.890625 
Q 34.671875 31.15625 39.703125 32.90625 
Q 39.75 34.71875 39.75 35.203125 
Q 39.75 40.578125 37.25 42.78125 
Q 33.890625 45.75 27.25 45.75 
Q 21.046875 45.75 18.09375 43.578125 
Q 15.140625 41.40625 13.71875 35.890625 
L 5.125 37.0625 
Q 6.296875 42.578125 8.984375 45.96875 
Q 11.671875 49.359375 16.75 51.1875 
Q 21.828125 53.03125 28.515625 53.03125 
Q 35.15625 53.03125 39.296875 51.46875 
Q 43.453125 49.90625 45.40625 47.53125 
Q 47.359375 45.171875 48.140625 41.546875 
Q 48.578125 39.3125 48.578125 33.453125 
L 48.578125 21.734375 
Q 48.578125 9.46875 49.140625 6.21875 
Q 49.703125 2.984375 51.375 0 
L 42.1875 0 
Q 40.828125 2.734375 40.4375 6.390625 
z
M 39.703125 26.03125 
Q 34.90625 24.078125 25.34375 22.703125 
Q 19.921875 21.921875 17.671875 20.9375 
Q 15.4375 19.96875 14.203125 18.09375 
Q 12.984375 16.21875 12.984375 13.921875 
Q 12.984375 10.40625 15.640625 8.0625 
Q 18.3125 5.71875 23.4375 5.71875 
Q 28.515625 5.71875 32.46875 7.9375 
Q 36.421875 10.15625 38.28125 14.015625 
Q 39.703125 17 39.703125 22.796875 
z
M 11.21875 59.515625 
Q 11.171875 64.59375 14 67.625 
Q 16.78125 70.65625 21.125 70.65625 
Q 24.15625 70.65625 29.375 68.015625 
Q 32.265625 66.546875 33.96875 66.546875 
Q 35.53125 66.546875 36.359375 67.40625 
Q 37.1875 68.265625 37.53125 70.796875 
L 43.890625 70.796875 
Q 43.734375 65.234375 41.078125 62.453125 
Q 38.421875 59.671875 34.3125 59.671875 
Q 31.234375 59.671875 26.203125 62.40625 
Q 22.9375 64.15625 21.421875 64.15625 
Q 19.765625 64.15625 18.734375 62.984375 
Q 17.65625 61.8125 17.71875 59.515625 
z
" id="ArialMT-e3"/>
      <path d="M 3.328125 25.921875 
Q 3.328125 40.328125 11.328125 47.265625 
Q 18.015625 53.03125 27.640625 53.03125 
Q 38.328125 53.03125 45.109375 46.015625 
Q 51.90625 39.015625 51.90625 26.65625 
Q 51.90625 16.65625 48.90625 10.90625 
Q 45.90625 5.171875 40.15625 2 
Q 34.421875 -1.171875 27.640625 -1.171875 
Q 16.75 -1.171875 10.03125 5.8125 
Q 3.328125 12.796875 3.328125 25.921875 
z
M 12.359375 25.921875 
Q 12.359375 15.96875 16.703125 11.015625 
Q 21.046875 6.0625 27.640625 6.0625 
Q 34.1875 6.0625 38.53125 11.03125 
Q 42.875 16.015625 42.875 26.21875 
Q 42.875 35.84375 38.5 40.796875 
Q 34.125 45.75 27.640625 45.75 
Q 21.046875 45.75 16.703125 40.8125 
Q 12.359375 35.890625 12.359375 25.921875 
z
" id="ArialMT-6f"/>
      <path d="M 23.390625 -21.046875 
Q 16.109375 -11.859375 11.078125 0.4375 
Q 6.0625 12.75 6.0625 25.921875 
Q 6.0625 37.546875 9.8125 48.1875 
Q 14.203125 60.546875 23.390625 72.796875 
L 29.6875 72.796875 
Q 23.78125 62.640625 21.875 58.296875 
Q 18.890625 51.5625 17.1875 44.234375 
Q 15.09375 35.109375 15.09375 25.875 
Q 15.09375 2.390625 29.6875 -21.046875 
z
" id="ArialMT-28"/>
      <path d="M 6.25 59.28125 
Q 6.25 64.890625 10.21875 68.84375 
Q 14.203125 72.796875 19.78125 72.796875 
Q 25.4375 72.796875 29.390625 68.84375 
Q 33.34375 64.890625 33.34375 59.28125 
Q 33.34375 53.65625 29.359375 49.671875 
Q 25.390625 45.703125 19.78125 45.703125 
Q 14.203125 45.703125 10.21875 49.65625 
Q 6.25 53.609375 6.25 59.28125 
z
M 11.578125 59.28125 
Q 11.578125 55.859375 13.984375 53.4375 
Q 16.40625 51.03125 19.828125 51.03125 
Q 23.1875 51.03125 25.609375 53.4375 
Q 28.03125 55.859375 28.03125 59.28125 
Q 28.03125 62.703125 25.609375 65.109375 
Q 23.1875 67.53125 19.828125 67.53125 
Q 16.40625 67.53125 13.984375 65.109375 
Q 11.578125 62.703125 11.578125 59.28125 
z
" id="ArialMT-b0"/>
      <path d="M 58.796875 25.09375 
L 68.265625 22.703125 
Q 65.28125 11.03125 57.546875 4.90625 
Q 49.8125 -1.21875 38.625 -1.21875 
Q 27.046875 -1.21875 19.796875 3.484375 
Q 12.546875 8.203125 8.765625 17.140625 
Q 4.984375 26.078125 4.984375 36.328125 
Q 4.984375 47.515625 9.25 55.828125 
Q 13.53125 64.15625 21.40625 68.46875 
Q 29.296875 72.796875 38.765625 72.796875 
Q 49.515625 72.796875 56.828125 67.328125 
Q 64.15625 61.859375 67.046875 51.953125 
L 57.71875 49.75 
Q 55.21875 57.5625 50.484375 61.125 
Q 45.75 64.703125 38.578125 64.703125 
Q 30.328125 64.703125 24.78125 60.734375 
Q 19.234375 56.78125 16.984375 50.109375 
Q 14.75 43.453125 14.75 36.375 
Q 14.75 27.25 17.40625 20.4375 
Q 20.0625 13.625 25.671875 10.25 
Q 31.296875 6.890625 37.84375 6.890625 
Q 45.796875 6.890625 51.3125 11.46875 
Q 56.84375 16.0625 58.796875 25.09375 
z
" id="ArialMT-43"/>
      <path d="M 12.359375 -21.046875 
L 6.0625 -21.046875 
Q 20.65625 2.390625 20.65625 25.875 
Q 20.65625 35.0625 18.5625 44.09375 
Q 16.890625 51.421875 13.921875 58.15625 
Q 12.015625 62.546875 6.0625 72.796875 
L 12.359375 72.796875 
Q 21.53125 60.546875 25.921875 48.1875 
Q 29.6875 37.546875 29.6875 25.921875 
Q 29.6875 12.75 24.625 0.4375 
Q 19.578125 -11.859375 12.359375 -21.046875 
z
" id="ArialMT-29"/>
     </defs>
     <g transform="translate(138.876172 264.8125)scale(0.13 -0.13)">
      <use xlink:href="#ArialMT-54"/>
      <use x="60.912109" xlink:href="#ArialMT-65"/>
      <use x="116.527344" xlink:href="#ArialMT-6d"/>
      <use x="199.828125" xlink:href="#ArialMT-70"/>
      <use x="255.443359" xlink:href="#ArialMT-65"/>
      <use x="311.058594" xlink:href="#ArialMT-72"/>
      <use x="344.359375" xlink:href="#ArialMT-61"/>
      <use x="399.974609" xlink:href="#ArialMT-74"/>
      <use x="427.757812" xlink:href="#ArialMT-75"/>
      <use x="483.373047" xlink:href="#ArialMT-72"/>
      <use x="516.673828" xlink:href="#ArialMT-61"/>
      <use x="572.289062" xlink:href="#ArialMT-20"/>
      <use x="600.072266" xlink:href="#ArialMT-64"/>
      <use x="655.6875" xlink:href="#ArialMT-65"/>
      <use x="711.302734" xlink:href="#ArialMT-20"/>
      <use x="739.085938" xlink:href="#ArialMT-70"/>
      <use x="794.701172" xlink:href="#ArialMT-61"/>
      <use x="850.316406" xlink:href="#ArialMT-72"/>
      <use x="883.617188" xlink:href="#ArialMT-74"/>
      <use x="911.400391" xlink:href="#ArialMT-69"/>
      <use x="933.617188" xlink:href="#ArialMT-e7"/>
      <use x="983.617188" xlink:href="#ArialMT-e3"/>
      <use x="1039.232422" xlink:href="#ArialMT-6f"/>
      <use x="1094.847656" xlink:href="#ArialMT-20"/>
      <use x="1122.630859" xlink:href="#ArialMT-28"/>
      <use x="1155.931641" xlink:href="#ArialMT-b0"/>
      <use x="1195.921875" xlink:href="#ArialMT-43"/>
      <use x="1268.138672" xlink:href="#ArialMT-29"/>
     </g>
    </g>
   </g>
   <g id="matplotlib.axis_2">
    <g id="ytick_1">
     <g id="line2d_7">
      <defs>
       <path d="M 0 0 
L -3.5 0 
" id="m31406301f9" style="stroke:#000000;stroke-width:0.8;"/>
      </defs>
      <g>
       <use style="stroke:#000000;stroke-width:0.8;" x="56.0625" xlink:href="#m31406301f9" y="213.98"/>
      </g>
     </g>
     <g id="text_8">
      <!-- −0.2 -->
      <defs>
       <path d="M 52.828125 31.203125 
L 5.5625 31.203125 
L 5.5625 39.40625 
L 52.828125 39.40625 
z
" id="ArialMT-2212"/>
       <path d="M 9.078125 0 
L 9.078125 10.015625 
L 19.09375 10.015625 
L 19.09375 0 
z
" id="ArialMT-2e"/>
      </defs>
      <g transform="translate(23.399688 218.632578)scale(0.13 -0.13)">
       <use xlink:href="#ArialMT-2212"/>
       <use x="58.398438" xlink:href="#ArialMT-30"/>
       <use x="114.013672" xlink:href="#ArialMT-2e"/>
       <use x="141.796875" xlink:href="#ArialMT-32"/>
      </g>
     </g>
    </g>
    <g id="ytick_2">
     <g id="line2d_8">
      <g>
       <use style="stroke:#000000;stroke-width:0.8;" x="56.0625" xlink:href="#m31406301f9" y="177.02"/>
      </g>
     </g>
     <g id="text_9">
      <!-- 0.0 -->
      <g transform="translate(30.9925 181.672578)scale(0.13 -0.13)">
       <use xlink:href="#ArialMT-30"/>
       <use x="55.615234" xlink:href="#ArialMT-2e"/>
       <use x="83.398438" xlink:href="#ArialMT-30"/>
      </g>
     </g>
    </g>
    <g id="ytick_3">
     <g id="line2d_9">
      <g>
       <use style="stroke:#000000;stroke-width:0.8;" x="56.0625" xlink:href="#m31406301f9" y="140.06"/>
      </g>
     </g>
     <g id="text_10">
      <!-- 0.2 -->
      <g transform="translate(30.9925 144.712578)scale(0.13 -0.13)">
       <use xlink:href="#ArialMT-30"/>
       <use x="55.615234" xlink:href="#ArialMT-2e"/>
       <use x="83.398438" xlink:href="#ArialMT-32"/>
      </g>
     </g>
    </g>
    <g id="ytick_4">
     <g id="line2d_10">
      <g>
       <use style="stroke:#000000;stroke-width:0.8;" x="56.0625" xlink:href="#m31406301f9" y="103.1"/>
      </g>
     </g>
     <g id="text_11">
      <!-- 0.4 -->
      <g transform="translate(30.9925 107.752578)scale(0.13 -0.13)">
       <use xlink:href="#ArialMT-30"/>
       <use x="55.615234" xlink:href="#ArialMT-2e"/>
       <use x="83.398438" xlink:href="#ArialMT-34"/>
      </g>
     </g>
    </g>
    <g id="ytick_5">
     <g id="line2d_11">
      <g>
       <use style="stroke:#000000;stroke-width:0.8;" x="56.0625" xlink:href="#m31406301f9" y="66.14"/>
      </g>
     </g>
     <g id="text_12">
      <!-- 0.6 -->
      <defs>
       <path d="M 49.75 54.046875 
L 41.015625 53.375 
Q 39.84375 58.546875 37.703125 60.890625 
Q 34.125 64.65625 28.90625 64.65625 
Q 24.703125 64.65625 21.53125 62.3125 
Q 17.390625 59.28125 14.984375 53.46875 
Q 12.59375 47.65625 12.5 36.921875 
Q 15.671875 41.75 20.265625 44.09375 
Q 24.859375 46.4375 29.890625 46.4375 
Q 38.671875 46.4375 44.84375 39.96875 
Q 51.03125 33.5 51.03125 23.25 
Q 51.03125 16.5 48.125 10.71875 
Q 45.21875 4.9375 40.140625 1.859375 
Q 35.0625 -1.21875 28.609375 -1.21875 
Q 17.625 -1.21875 10.6875 6.859375 
Q 3.765625 14.9375 3.765625 33.5 
Q 3.765625 54.25 11.421875 63.671875 
Q 18.109375 71.875 29.4375 71.875 
Q 37.890625 71.875 43.28125 67.140625 
Q 48.6875 62.40625 49.75 54.046875 
z
M 13.875 23.1875 
Q 13.875 18.65625 15.796875 14.5 
Q 17.71875 10.359375 21.1875 8.171875 
Q 24.65625 6 28.46875 6 
Q 34.03125 6 38.03125 10.484375 
Q 42.046875 14.984375 42.046875 22.703125 
Q 42.046875 30.125 38.078125 34.390625 
Q 34.125 38.671875 28.125 38.671875 
Q 22.171875 38.671875 18.015625 34.390625 
Q 13.875 30.125 13.875 23.1875 
z
" id="ArialMT-36"/>
      </defs>
      <g transform="translate(30.9925 70.792578)scale(0.13 -0.13)">
       <use xlink:href="#ArialMT-30"/>
       <use x="55.615234" xlink:href="#ArialMT-2e"/>
       <use x="83.398438" xlink:href="#ArialMT-36"/>
      </g>
     </g>
    </g>
    <g id="ytick_6">
     <g id="line2d_12">
      <g>
       <use style="stroke:#000000;stroke-width:0.8;" x="56.0625" xlink:href="#m31406301f9" y="29.18"/>
      </g>
     </g>
     <g id="text_13">
      <!-- 0.8 -->
      <defs>
       <path d="M 17.671875 38.8125 
Q 12.203125 40.828125 9.5625 44.53125 
Q 6.9375 48.25 6.9375 53.421875 
Q 6.9375 61.234375 12.546875 66.546875 
Q 18.171875 71.875 27.484375 71.875 
Q 36.859375 71.875 42.578125 66.421875 
Q 48.296875 60.984375 48.296875 53.171875 
Q 48.296875 48.1875 45.671875 44.5 
Q 43.0625 40.828125 37.75 38.8125 
Q 44.34375 36.671875 47.78125 31.875 
Q 51.21875 27.09375 51.21875 20.453125 
Q 51.21875 11.28125 44.71875 5.03125 
Q 38.234375 -1.21875 27.640625 -1.21875 
Q 17.046875 -1.21875 10.546875 5.046875 
Q 4.046875 11.328125 4.046875 20.703125 
Q 4.046875 27.6875 7.59375 32.390625 
Q 11.140625 37.109375 17.671875 38.8125 
z
M 15.921875 53.71875 
Q 15.921875 48.640625 19.1875 45.40625 
Q 22.46875 42.1875 27.6875 42.1875 
Q 32.765625 42.1875 36.015625 45.375 
Q 39.265625 48.578125 39.265625 53.21875 
Q 39.265625 58.0625 35.90625 61.359375 
Q 32.5625 64.65625 27.59375 64.65625 
Q 22.5625 64.65625 19.234375 61.421875 
Q 15.921875 58.203125 15.921875 53.71875 
z
M 13.09375 20.65625 
Q 13.09375 16.890625 14.875 13.375 
Q 16.65625 9.859375 20.171875 7.921875 
Q 23.6875 6 27.734375 6 
Q 34.03125 6 38.125 10.046875 
Q 42.234375 14.109375 42.234375 20.359375 
Q 42.234375 26.703125 38.015625 30.859375 
Q 33.796875 35.015625 27.4375 35.015625 
Q 21.234375 35.015625 17.15625 30.90625 
Q 13.09375 26.8125 13.09375 20.65625 
z
" id="ArialMT-38"/>
      </defs>
      <g transform="translate(30.9925 33.832578)scale(0.13 -0.13)">
       <use xlink:href="#ArialMT-30"/>
       <use x="55.615234" xlink:href="#ArialMT-2e"/>
       <use x="83.398438" xlink:href="#ArialMT-38"/>
      </g>
     </g>
    </g>
    <g id="text_14">
     <!-- Dilatação relativa (%) -->
     <defs>
      <path d="M 7.71875 0 
L 7.71875 71.578125 
L 32.375 71.578125 
Q 40.71875 71.578125 45.125 70.5625 
Q 51.265625 69.140625 55.609375 65.4375 
Q 61.28125 60.640625 64.078125 53.1875 
Q 66.890625 45.75 66.890625 36.1875 
Q 66.890625 28.03125 64.984375 21.734375 
Q 63.09375 15.4375 60.109375 11.296875 
Q 57.125 7.171875 53.578125 4.796875 
Q 50.046875 2.4375 45.046875 1.21875 
Q 40.046875 0 33.546875 0 
z
M 17.1875 8.453125 
L 32.46875 8.453125 
Q 39.546875 8.453125 43.578125 9.765625 
Q 47.609375 11.078125 50 13.484375 
Q 53.375 16.84375 55.25 22.53125 
Q 57.125 28.21875 57.125 36.328125 
Q 57.125 47.5625 53.4375 53.59375 
Q 49.75 59.625 44.484375 61.671875 
Q 40.671875 63.140625 32.234375 63.140625 
L 17.1875 63.140625 
z
" id="ArialMT-44"/>
      <path d="M 6.390625 0 
L 6.390625 71.578125 
L 15.1875 71.578125 
L 15.1875 0 
z
" id="ArialMT-6c"/>
      <path d="M 21 0 
L 1.265625 51.859375 
L 10.546875 51.859375 
L 21.6875 20.796875 
Q 23.484375 15.765625 25 10.359375 
Q 26.171875 14.453125 28.265625 20.21875 
L 39.796875 51.859375 
L 48.828125 51.859375 
L 29.203125 0 
z
" id="ArialMT-76"/>
      <path d="M 5.8125 54.390625 
Q 5.8125 62.0625 9.671875 67.421875 
Q 13.53125 72.796875 20.84375 72.796875 
Q 27.59375 72.796875 32 67.984375 
Q 36.421875 63.1875 36.421875 53.859375 
Q 36.421875 44.78125 31.953125 39.875 
Q 27.484375 34.96875 20.953125 34.96875 
Q 14.453125 34.96875 10.125 39.796875 
Q 5.8125 44.625 5.8125 54.390625 
z
M 21.09375 66.75 
Q 17.828125 66.75 15.65625 63.90625 
Q 13.484375 61.078125 13.484375 53.515625 
Q 13.484375 46.625 15.671875 43.8125 
Q 17.875 41.015625 21.09375 41.015625 
Q 24.421875 41.015625 26.59375 43.84375 
Q 28.765625 46.6875 28.765625 54.203125 
Q 28.765625 61.140625 26.5625 63.9375 
Q 24.359375 66.75 21.09375 66.75 
z
M 21.140625 -2.640625 
L 60.296875 72.796875 
L 67.4375 72.796875 
L 28.421875 -2.640625 
z
M 52.09375 16.796875 
Q 52.09375 24.515625 55.953125 29.859375 
Q 59.8125 35.203125 67.1875 35.203125 
Q 73.921875 35.203125 78.34375 30.390625 
Q 82.765625 25.59375 82.765625 16.265625 
Q 82.765625 7.171875 78.296875 2.265625 
Q 73.828125 -2.640625 67.234375 -2.640625 
Q 60.75 -2.640625 56.421875 2.21875 
Q 52.09375 7.078125 52.09375 16.796875 
z
M 67.4375 29.15625 
Q 64.109375 29.15625 61.9375 26.3125 
Q 59.765625 23.484375 59.765625 15.921875 
Q 59.765625 9.078125 61.953125 6.25 
Q 64.15625 3.421875 67.390625 3.421875 
Q 70.75 3.421875 72.921875 6.25 
Q 75.09375 9.078125 75.09375 16.609375 
Q 75.09375 23.53125 72.890625 26.34375 
Q 70.703125 29.15625 67.4375 29.15625 
z
" id="ArialMT-25"/>
     </defs>
     <g transform="translate(16.663594 183.349297)rotate(-90)scale(0.13 -0.13)">
      <use xlink:href="#ArialMT-44"/>
      <use x="72.216797" xlink:href="#ArialMT-69"/>
      <use x="94.433594" xlink:href="#ArialMT-6c"/>
      <use x="116.650391" xlink:href="#ArialMT-61"/>
      <use x="172.265625" xlink:href="#ArialMT-74"/>
      <use x="200.048828" xlink:href="#ArialMT-61"/>
      <use x="255.664062" xlink:href="#ArialMT-e7"/>
      <use x="305.664062" xlink:href="#ArialMT-e3"/>
      <use x="361.279297" xlink:href="#ArialMT-6f"/>
      <use x="416.894531" xlink:href="#ArialMT-20"/>
      <use x="444.677734" xlink:href="#ArialMT-72"/>
      <use x="477.978516" xlink:href="#ArialMT-65"/>
      <use x="533.59375" xlink:href="#ArialMT-6c"/>
      <use x="555.810547" xlink:href="#ArialMT-61"/>
      <use x="611.425781" xlink:href="#ArialMT-74"/>
      <use x="639.208984" xlink:href="#ArialMT-69"/>
      <use x="661.425781" xlink:href="#ArialMT-76"/>
      <use x="711.425781" xlink:href="#ArialMT-61"/>
      <use x="767.041016" xlink:href="#ArialMT-20"/>
      <use x="794.824219" xlink:href="#ArialMT-28"/>
      <use x="828.125" xlink:href="#ArialMT-25"/>
      <use x="917.041016" xlink:href="#ArialMT-29"/>
     </g>
    </g>
   </g>
   <g id="line2d_13">
    <path clip-path="url(#p013d753033)" d="M 409.906328 90.327779 
L 408.286241 91.475031 
L 406.553267 92.277807 
L 405.880438 92.81136 
L 399.927561 96.575614 
L 399.651817 96.903588 
L 397.837044 97.95111 
L 397.129435 98.460187 
L 396.733761 98.655996 
L 396.442016 98.944802 
L 395.647009 99.311915 
L 395.272423 99.61052 
L 393.685229 100.413296 
L 392.70578 101.176919 
L 392.301891 101.328667 
L 390.983738 102.337037 
L 390.511455 102.513247 
L 389.868195 102.96848 
L 387.26949 104.559354 
L 386.572977 105.048862 
L 384.849955 106.297085 
L 384.177085 106.688688 
L 383.3991 107.109646 
L 382.670526 107.628521 
L 381.03055 108.543893 
L 379.637893 109.429881 
L 378.610238 110.129861 
L 377.820299 110.541047 
L 377.547252 110.869007 
L 376.843486 111.226349 
L 375.162252 112.420728 
L 374.773137 112.562678 
L 373.319748 113.600416 
L 372.511643 114.031172 
L 369.306889 116.082185 
L 368.564419 116.527633 
L 368.213394 116.58637 
L 367.447629 117.203136 
L 366.749237 117.682844 
L 365.302122 118.617785 
L 361.291572 121.114232 
L 360.590176 121.589048 
L 360.308138 121.760381 
L 360.03785 122.063864 
L 359.16323 122.440776 
L 357.387404 123.615585 
L 356.556698 124.046342 
L 355.88109 124.506466 
L 355.653041 124.746321 
L 354.891955 125.123247 
L 354.598882 125.421838 
L 353.805285 125.808534 
L 353.181581 126.312719 
L 351.282127 127.516897 
L 350.441265 127.98682 
L 349.732941 128.422469 
L 346.767252 130.267889 
L 346.186705 130.762275 
L 345.508543 131.193031 
L 344.839148 131.711907 
L 344.082476 132.093711 
L 343.684983 132.406994 
L 343.384595 132.490207 
L 342.579207 133.038451 
L 341.481482 133.713968 
L 340.425791 134.462896 
L 339.735818 134.849599 
L 336.192974 137.111091 
L 335.849592 137.40479 
L 335.391265 137.561431 
L 333.462895 139.044617 
L 328.956051 141.800494 
L 328.521203 142.015879 
L 327.485232 142.794179 
L 324.127055 144.869661 
L 323.26204 145.320001 
L 322.781337 145.887822 
L 318.861435 148.159099 
L 306.047508 156.495278 
L 305.654694 156.529543 
L 304.649211 157.440011 
L 303.034206 158.419012 
L 302.347196 158.89872 
L 300.538818 160.058835 
L 298.363476 161.429435 
L 297.23042 162.21753 
L 296.40094 162.633606 
L 294.526804 164.013994 
L 292.470984 165.389487 
L 291.663144 165.722346 
L 290.458322 166.554497 
L 288.840946 167.646083 
L 285.828747 169.540444 
L 283.392109 171.077474 
L 282.433993 171.733404 
L 281.261764 172.345278 
L 280.670306 172.898415 
L 279.206373 173.803987 
L 278.810372 173.965524 
L 278.092791 174.474601 
L 277.807954 174.557818 
L 275.600325 176.129112 
L 270.875873 179.261908 
L 270.676166 179.51645 
L 268.1 180.896839 
L 267.529753 181.420604 
L 267.072775 181.596823 
L 266.139548 182.267437 
L 265.784109 182.453447 
L 265.147327 182.962528 
L 264.514387 183.300283 
L 263.865201 183.809361 
L 262.610457 184.367392 
L 256.354475 188.601564 
L 254.926241 189.394554 
L 254.262874 189.908528 
L 253.522202 190.265863 
L 253.236078 190.608513 
L 252.250416 191.137173 
L 251.608832 191.577721 
L 250.940703 192.013377 
L 250.269448 192.473507 
L 249.043599 193.144121 
L 246.815147 194.641991 
L 246.091968 195.01401 
L 245.758619 195.258761 
L 245.595755 195.52309 
L 244.596239 196.134964 
L 243.00316 197.030749 
L 242.295041 197.412559 
L 241.2229 198.323028 
L 238.297753 200.031383 
L 226.340209 207.275978 
L 225.546908 207.613733 
L 222.800553 209.322087 
L 221.448448 210.257032 
L 221.099416 210.374511 
L 218.872068 211.705951 
L 218.168863 212.107341 
L 216.597557 213.032495 
L 215.488951 213.561154 
L 215.089384 213.727583 
L 214.250953 214.407989 
L 213.511201 214.711478 
L 212.788993 215.205873 
L 212.479531 215.298878 
L 211.494289 215.959703 
L 207.015021 218.089027 
L 205.905526 218.377831 
L 202.980491 218.833066 
L 201.931186 218.798801 
L 200.28749 218.446362 
L 199.898988 218.275036 
L 199.275693 217.966652 
L 199.014887 217.996022 
L 198.774596 217.829592 
L 197.482876 217.217717 
L 197.329402 217.065973 
L 197.099932 217.002337 
L 196.604874 216.610737 
L 195.452865 215.866699 
L 194.823235 215.298878 
L 194.012984 214.750639 
L 190.341668 213.19403 
L 187.831261 211.808746 
L 186.394241 210.589891 
L 185.928169 210.291296 
L 185.02681 209.263347 
L 191.919932 205.440354 
L 192.125218 204.769739 
L 191.554501 204.197025 
L 190.999447 204.040385 
L 188.925001 202.875375 
L 185.806256 200.163547 
L 185.602881 199.762157 
L 185.046683 199.223707 
L 184.83918 198.876163 
L 184.2199 198.303448 
L 182.805215 196.727259 
L 182.029621 195.83637 
L 180.430278 193.927321 
L 179.850499 193.379082 
L 179.326525 192.747626 
L 174.695245 187.583405 
L 174.454219 187.45124 
L 174.222849 187.089011 
L 172.909049 185.845681 
L 172.20754 184.930315 
L 171.702816 184.538716 
L 170.677236 183.633142 
L 170.225305 183.075113 
L 169.89028 182.918473 
L 169.746196 182.629668 
L 169.779852 181.312913 
L 169.927951 180.891943 
L 169.885437 180.37797 
L 169.865207 180.074479 
L 169.849432 179.74162 
L 169.964325 179.687776 
L 169.861437 179.491974 
L 169.87379 179.354913 
L 169.848389 178.791988 
L 169.859434 178.816464 
L 169.956795 178.723459 
L 169.8964 178.694091 
L 169.857677 178.268223 
L 169.937597 178.08711 
L 169.822356 178.013685 
L 169.901938 178.028369 
L 169.905003 177.842359 
L 169.861794 177.910892 
L 169.857309 176.936787 
L 169.956795 176.946575 
L 170.090519 176.990632 
L 170.298992 176.81441 
L 172.082072 176.334702 
L 183.704438 170.989365 
L 183.988039 170.759299 
L 186.3867 169.706874 
L 186.705153 169.52576 
L 187.123601 169.422967 
L 188.407465 168.649556 
L 188.662825 168.6055 
L 204.551266 161.076996 
L 205.624305 160.616864 
L 223.461509 152.510751 
L 223.789913 152.476486 
L 224.715415 151.94293 
L 225.509247 151.639442 
L 226.466954 151.154835 
L 226.838965 151.076517 
L 227.7284 150.601701 
L 229.202285 150.009404 
L 229.781973 149.622701 
L 234.505301 147.552118 
L 235.205818 147.199675 
L 235.868961 146.969613 
L 236.19289 146.729758 
L 236.535373 146.651438 
L 237.536586 146.142361 
L 238.623173 145.721389 
L 239.238254 145.42769 
L 239.560793 145.222097 
L 239.931783 145.138884 
L 240.903528 144.566171 
L 241.595668 144.326316 
L 242.307956 143.993457 
L 243.314889 143.543117 
L 243.594802 143.288579 
L 244.003841 143.224943 
L 244.982534 142.68649 
L 246.995176 141.736865 
L 247.328791 141.497004 
L 247.673134 141.428475 
L 248.314595 141.046671 
L 248.70277 140.92919 
L 248.978514 140.70402 
L 249.71281 140.429897 
L 250.002961 140.165567 
L 251.006809 139.822916 
L 253.035574 138.799863 
L 253.434967 138.697066 
L 253.736909 138.471896 
L 254.19591 138.349523 
L 254.702585 137.967712 
L 256.038699 137.262833 
L 256.757853 136.983819 
L 256.932569 135.593638 
L 256.898586 135.069877 
L 256.886101 134.830023 
L 256.952431 134.379683 
L 256.924497 133.180401 
L 256.959522 131.961546 
L 256.892803 131.819596 
L 256.994526 131.760859 
L 256.912706 129.685384 
L 256.916752 129.376994 
L 256.877682 127.888916 
L 256.900221 127.888916 
L 256.943685 127.609894 
L 256.955108 127.198722 
L 256.889125 127.061664 
L 257.006297 126.826702 
L 256.931179 126.723906 
L 256.958827 126.479159 
L 256.947731 126.312719 
L 256.954781 125.965176 
L 257.025485 125.75469 
L 256.916405 125.73512 
L 256.971292 125.328826 
L 257.001209 125.343517 
L 256.880685 125.177091 
L 256.927154 124.951914 
L 256.977647 124.785488 
L 256.981346 124.19809 
L 256.919062 123.507896 
L 257.036581 123.4051 
L 256.90866 123.336564 
L 256.977974 123.116293 
L 256.877682 122.685537 
L 256.977647 122.166661 
L 256.907271 122.1324 
L 256.943665 121.735905 
L 256.903572 120.693275 
L 256.989438 120.605155 
L 256.927133 120.340825 
L 256.946342 119.846439 
L 256.896522 119.812164 
L 256.973928 119.400991 
L 256.935614 119.205197 
L 256.990501 118.872331 
L 256.888083 118.681429 
L 256.927133 118.549263 
L 256.892476 118.500311 
L 256.97025 118.368146 
L 256.906903 118.187029 
L 256.957765 117.58494 
L 256.97117 106.737626 
L 256.819995 106.713164 
L 256.948283 106.659305 
L 256.988396 106.326453 
L 256.960769 106.355822 
L 256.881952 106.16492 
L 256.99845 106.086599 
L 256.963425 105.97891 
L 256.988743 106.042539 
L 256.854713 106.032755 
L 256.987701 105.841853 
L 256.952349 105.817376 
L 256.878254 105.75864 
L 256.952002 105.690104 
L 256.951634 105.582415 
L 256.874555 105.621568 
L 256.948303 105.435558 
L 256.932446 105.259347 
L 256.952349 105.499202 
L 256.924375 105.26424 
L 256.9914 105.254455 
L 256.908558 105.185919 
L 256.913279 105.171228 
L 257.014961 105.117383 
L 256.945279 105.053754 
L 257.006542 105.014587 
L 256.929442 104.926481 
L 257.006889 104.887328 
L 256.928768 104.862852 
L 256.932119 104.725794 
L 256.982613 104.784531 
L 256.9914 104.554462 
L 256.90112 104.574045 
L 256.893375 104.593629 
L 256.8964 104.309715 
L 256.959379 103.076169 
L 256.908885 104.314608 
L 256.905881 103.105537 
L 256.896747 103.01254 
L 256.955353 103.130013 
L 256.924701 103.056599 
L 256.978914 102.978279 
L 256.884241 102.880374 
L 257.002108 102.983171 
L 256.905534 102.875482 
L 257.021316 102.865683 
L 256.955353 102.811839 
L 256.922965 100.43288 
L 257.001781 102.841221 
L 256.958684 100.491617 
L 256.844475 100.516093 
L 256.973131 100.491617 
L 256.946219 100.442665 
L 256.934755 100.325191 
L 256.927378 100.393712 
L 257.089956 100.300715 
L 256.876169 100.408404 
L 257.000759 100.286023 
L 256.872471 100.290916 
L 257.03137 100.207703 
L 256.969453 100.217502 
L 256.887613 100.075538 
L 257.016228 100.227286 
L 256.958684 100.139181 
L 256.358071 100.173442 
L 250.69604 102.381082 
L 236.658144 108.578154 
L 232.416929 110.589999 
L 224.138108 114.197612 
L 209.317813 120.747119 
L 202.590282 123.66943 
L 199.380103 125.172185 
L 196.242998 126.46936 
L 187.423652 130.429423 
L 176.884799 135.064977 
L 172.139503 137.233465 
L 169.713102 138.192882 
L 165.292778 140.175359 
L 161.131175 141.97182 
L 135.541453 152.735921 
L 134.120081 153.254789 
L 131.556385 154.45896 
L 127.655232 155.858929 
L 124.173697 157.356798 
L 120.95704 158.526701 
L 119.94793 158.996621 
L 117.980132 159.613391 
L 117.064459 160.15184 
L 115.306769 160.861614 
L 114.386815 161.287482 
L 111.895631 162.153894 
L 108.879514 163.382541 
L 107.492058 163.94057 
L 106.819158 164.111895 
L 105.541032 164.655236 
L 99.974491 166.720927 
L 99.533094 167.014626 
L 99.091774 167.107631 
L 98.220142 167.548182 
L 97.367048 167.802721 
L 93.122943 169.408279 
L 92.239919 169.77051 
L 90.988486 170.211059 
L 90.474012 170.441125 
L 90.032133 170.563501 
L 89.888388 170.548814 
L 88.995428 171.013838 
L 88.16205 171.336909 
L 87.814361 171.444598 
L 87.595458 171.444598 
L 87.288889 171.674664 
L 86.365162 171.987943 
L 86.217164 172.1299 
L 85.858533 172.16906 
L 85.247388 172.487235 
L 84.940701 172.482339 
L 84.904427 172.59982 
L 84.787307 172.560659 
L 84.784637 172.575344 
L 83.908382 172.922887 
L 83.896865 172.820094 
L 83.853534 172.869043 
L 83.730037 173.011 
L 83.706338 172.947363 
L 83.628546 172.908203 
L 83.456967 173.079528 
L 83.122007 173.069736 
L 83.044544 173.221482 
L 82.907855 173.280222 
L 82.907855 173.280222 
" style="fill:none;stroke:#1f77b4;stroke-linecap:square;"/>
   </g>
   <g id="line2d_14">
    <path clip-path="url(#p013d753033)" d="M 409.906328 85.836479 
L 409.710081 85.928994 
L 409.512683 86.149279 
L 408.767597 86.599619 
L 407.234882 87.75483 
L 406.279607 88.156218 
L 403.713556 89.688356 
L 403.515096 89.967363 
L 402.805158 90.42261 
L 401.574016 91.289015 
L 401.079622 91.484823 
L 400.356728 92.018376 
L 399.173117 92.669403 
L 398.458112 93.090375 
L 397.501774 93.790368 
L 395.771783 94.69594 
L 392.551233 96.732248 
L 392.410541 97.025961 
L 390.434825 98.445503 
L 385.949171 101.323768 
L 384.595033 102.009056 
L 384.18109 102.239125 
L 383.854873 102.576884 
L 383.11459 103.032116 
L 382.313371 103.560777 
L 381.482154 104.016009 
L 380.851032 104.485933 
L 378.200178 106.03764 
L 377.789811 106.551623 
L 377.417697 106.722942 
L 377.140686 106.992165 
L 376.359125 107.422935 
L 375.60607 107.907536 
L 373.610961 109.008903 
L 373.374799 109.287924 
L 372.632513 109.659944 
L 366.745109 113.536779 
L 366.435056 113.850062 
L 363.432134 115.631838 
L 361.697035 116.81154 
L 358.853687 118.510103 
L 358.321489 118.960443 
L 356.825229 119.890492 
L 355.549192 120.649208 
L 354.916844 121.040811 
L 354.585457 121.128916 
L 350.946264 123.468736 
L 350.4354 123.997382 
L 350.111553 124.237251 
L 349.682284 124.374308 
L 347.548997 125.862386 
L 346.151721 126.518319 
L 345.391024 127.027396 
L 343.820076 128.006397 
L 341.246812 129.866494 
L 340.696018 130.047611 
L 340.300282 130.380467 
L 339.906345 130.507736 
L 338.786959 131.183246 
L 337.969127 131.677646 
L 337.537263 131.848971 
L 335.393921 133.469214 
L 332.393718 135.236306 
L 332.108594 135.549589 
L 331.022272 136.185939 
L 330.077459 136.89571 
L 329.362249 137.331365 
L 328.182725 138.192885 
L 327.094032 138.956501 
L 325.939091 139.465585 
L 324.927294 140.243891 
L 322.918187 141.590012 
L 321.999388 142.03056 
L 318.081856 144.551483 
L 316.256415 145.687125 
L 316.029305 145.922087 
L 314.174848 147.003877 
L 313.517754 147.478693 
L 313.009566 147.904557 
L 312.742486 148.183572 
L 303.283814 154.06736 
L 302.87968 154.126101 
L 299.22792 156.6715 
L 298.615925 157.072888 
L 295.515367 159.363748 
L 294.445393 159.975622 
L 291.910382 161.600761 
L 291.538657 161.718242 
L 290.236893 162.711926 
L 288.149747 163.96015 
L 287.486011 164.39091 
L 281.725567 168.160056 
L 280.922141 168.6055 
L 280.580475 168.943255 
L 279.46673 169.491496 
L 278.623865 170.22085 
L 278.052678 170.636926 
L 276.844627 171.302644 
L 276.32189 171.748088 
L 274.212879 172.88373 
L 273.309017 173.285118 
L 272.341543 174.043845 
L 270.796791 174.875992 
L 270.535433 175.115847 
L 269.131558 175.996947 
L 268.1583 176.711617 
L 267.828302 176.956367 
L 267.338199 177.113005 
L 267.057081 177.367547 
L 266.652415 177.524185 
L 266.351046 177.817887 
L 263.195417 179.359811 
L 262.654105 179.834625 
L 261.792134 180.32902 
L 260.779969 180.99474 
L 258.838379 182.081429 
L 258.210833 182.531768 
L 257.391407 182.942947 
L 255.601543 184.367392 
L 253.00627 185.689042 
L 251.986483 186.36455 
L 251.590952 186.521192 
L 250.842965 186.99111 
L 245.66368 190.280549 
L 245.431625 190.574248 
L 244.37056 191.176334 
L 242.802983 192.067222 
L 241.738076 192.772102 
L 240.185539 193.628727 
L 238.831381 194.676256 
L 238.546299 194.852476 
L 238.219591 194.891636 
L 237.800089 195.258761 
L 236.006527 196.12028 
L 234.896786 196.810475 
L 233.832084 197.437034 
L 231.87104 198.695049 
L 231.664119 198.964274 
L 227.213521 201.720157 
L 226.170714 202.322242 
L 224.678367 203.208236 
L 222.938588 204.27045 
L 222.574761 204.402615 
L 221.937826 204.94596 
L 221.347399 205.327769 
L 219.953884 206.233344 
L 219.425763 206.316558 
L 218.677357 206.796269 
L 217.892097 207.182974 
L 217.135181 207.579468 
L 216.857362 207.887853 
L 215.553667 208.573153 
L 214.872062 209.038177 
L 213.076987 210.066126 
L 212.943386 210.276612 
L 209.46672 212.376565 
L 208.74493 212.748586 
L 206.629073 214.04576 
L 205.232759 214.740849 
L 204.595629 215.054129 
L 204.314715 215.245033 
L 203.935592 215.34783 
L 203.692493 215.538734 
L 202.164477 216.150609 
L 201.886455 216.385567 
L 201.657189 216.429624 
L 201.473431 216.625423 
L 197.28088 217.521208 
L 196.897896 217.442889 
L 196.690751 217.560368 
L 195.60543 217.291143 
L 194.392975 216.968073 
L 193.236807 216.243614 
L 192.406837 215.866699 
L 190.808465 215.127554 
L 190.466605 214.721268 
L 190.154784 214.593999 
L 190.046378 214.403093 
L 189.900568 214.373725 
L 189.324435 213.756955 
L 187.121936 213.15487 
L 186.076442 212.983545 
L 185.616225 212.748586 
L 185.084364 212.631105 
L 193.370562 209.601102 
L 193.999262 208.768953 
L 194.008928 208.436093 
L 193.146497 207.682263 
L 191.434734 206.536834 
L 191.095581 206.306768 
L 190.549079 205.636154 
L 189.888225 205.14176 
L 188.086366 203.311031 
L 187.825447 202.890061 
L 187.216058 202.341821 
L 186.336697 201.264923 
L 185.738843 200.648153 
L 185.456008 200.388718 
L 185.206634 200.006908 
L 184.836758 199.718103 
L 184.676194 199.390139 
L 183.521181 198.102754 
L 182.445904 196.771315 
L 182.249997 196.44335 
L 181.082683 195.165756 
L 175.392595 188.57709 
L 174.765202 188.004375 
L 174.059699 187.147751 
L 173.243021 186.437977 
L 172.538498 185.576457 
L 172.218227 185.395341 
L 170.440348 183.515662 
L 169.888594 183.050638 
L 169.670445 182.428973 
L 169.745563 181.880734 
L 169.646782 181.675144 
L 169.931824 180.867469 
L 169.819965 180.446499 
L 169.944892 180.35839 
L 169.860456 180.054899 
L 169.879991 179.575191 
L 169.876579 178.973105 
L 169.904033 178.698985 
L 169.876947 178.5864 
L 169.888615 178.610876 
L 169.884467 177.95984 
L 169.9119 178.028373 
L 169.944534 177.842359 
L 169.848819 177.749355 
L 169.961393 177.602505 
L 169.832675 177.494816 
L 169.98055 177.460552 
L 169.865309 177.401811 
L 169.944534 177.367547 
L 169.770299 177.338175 
L 169.869406 177.30391 
L 169.908855 177.005316 
L 169.933234 177.396915 
L 169.921228 177.02 
L 170.031647 177.024896 
L 170.220585 176.912311 
L 171.037068 176.770357 
L 171.954928 176.432602 
L 173.939819 175.634719 
L 174.179067 175.424233 
L 174.904822 175.179483 
L 178.456554 173.53966 
L 178.893844 173.466232 
L 179.14947 173.206798 
L 181.213617 172.266961 
L 181.820381 171.978154 
L 182.87692 171.51313 
L 183.279828 171.22922 
L 183.992995 171.057894 
L 184.560177 170.59287 
L 185.654713 170.137634 
L 196.720595 164.846142 
L 198.390907 164.033574 
L 199.317431 163.475545 
L 200.730869 162.883248 
L 201.655942 162.40354 
L 203.12198 161.781874 
L 204.071963 161.311954 
L 211.122778 158.056784 
L 211.805712 157.743502 
L 212.495654 157.430223 
L 213.88306 156.808557 
L 214.509277 156.475698 
L 217.184683 155.330268 
L 217.881615 154.982725 
L 218.527715 154.742871 
L 219.241474 154.390431 
L 220.55415 153.778554 
L 221.246739 153.489751 
L 221.587965 153.284161 
L 221.991364 153.181365 
L 222.277019 152.990459 
L 222.600008 152.951302 
L 223.945318 152.295372 
L 224.92726 151.825452 
L 227.645988 150.528277 
L 229.653112 149.622704 
L 243.428976 143.20047 
L 246.482268 141.687909 
L 246.831475 141.643856 
L 248.088814 140.997715 
L 248.833776 140.664856 
L 249.540813 140.263468 
L 250.4487 139.896341 
L 251.264285 139.470477 
L 251.518511 139.382372 
L 251.794378 139.142517 
L 252.892797 138.677486 
L 253.507837 138.290782 
L 254.480625 137.830658 
L 255.240627 137.443947 
L 255.922631 137.155148 
L 256.533032 136.802705 
L 258.620832 135.794336 
L 259.61524 135.260783 
L 261.61748 134.276889 
L 262.282625 133.846126 
L 262.915648 133.572004 
L 269.045467 130.453892 
L 270.359532 129.734329 
L 274.04597 127.820387 
L 274.333791 127.536473 
L 275.735234 126.9246 
L 276.743762 126.278451 
L 278.073848 125.519735 
L 278.750355 125.177084 
L 279.808335 124.638639 
L 280.091578 124.34494 
L 280.42127 124.305773 
L 281.750027 123.478521 
L 282.483812 123.130977 
L 283.077845 122.758958 
L 283.535069 122.607209 
L 283.757561 122.323295 
L 284.474507 122.019812 
L 301.88235 111.3634 
L 306.691054 108.230603 
L 307.030799 107.96138 
L 307.183098 106.091485 
L 307.132052 103.017425 
L 307.259952 102.160805 
L 307.12582 101.269924 
L 307.159925 95.513407 
L 307.143986 94.064483 
L 307.183098 87.764629 
L 307.090693 87.500299 
L 307.187798 87.250646 
L 307.174781 85.395441 
L 307.096088 85.380764 
L 307.218225 85.2388 
L 307.096067 85.184955 
L 307.141064 83.412978 
L 307.118545 83.393394 
L 307.256642 83.305289 
L 307.156267 83.25143 
L 307.183466 82.708092 
L 307.145723 82.159848 
L 307.183793 82.189216 
L 307.118586 82.125587 
L 307.164973 82.110896 
L 307.244708 81.915101 
L 307.141738 81.900424 
L 307.171839 81.822103 
L 307.236759 81.797627 
L 307.107286 81.645879 
L 307.244708 81.601819 
L 307.11922 81.596926 
L 307.122183 81.30812 
L 307.169264 81.332596 
L 307.12255 81.195539 
L 307.145723 81.224907 
L 307.180503 80.985053 
L 307.300781 81.034005 
L 307.142454 80.852888 
L 307.200794 80.833304 
L 307.146765 80.867579 
L 307.165994 80.813734 
L 307.153325 80.691354 
L 307.146071 80.71583 
L 307.268923 80.691354 
L 307.141738 80.735414 
L 307.185182 80.637509 
L 307.206312 80.642402 
L 307.172901 80.539605 
L 307.139123 79.849411 
L 307.097457 79.888578 
L 307.200427 79.658509 
L 307.131521 79.599772 
L 307.193499 79.580188 
L 307.110433 79.472499 
L 307.177908 79.604664 
L 307.159782 79.467607 
L 307.220309 79.350119 
L 307.181525 79.423547 
L 307.142781 79.291382 
L 307.20907 79.139633 
L 307.142781 79.325643 
L 307.151792 79.188585 
L 307.148482 78.91447 
L 307.252167 78.963422 
L 307.098499 78.909578 
L 307.129662 78.855733 
L 307.225704 78.679508 
L 307.152834 78.924255 
L 307.1644 78.659924 
L 307.083582 78.655032 
L 307.230363 78.615879 
L 307.210133 78.581604 
L 307.14088 78.429869 
L 307.218429 78.58651 
L 307.180687 78.459237 
L 307.192661 78.023575 
L 307.145887 78.478821 
L 307.185366 78.087218 
L 307.269843 78.038266 
L 307.120466 78.087218 
L 307.174495 77.60751 
L 307.120466 77.617294 
L 307.09431 77.56345 
L 307.1672 77.661354 
L 307.144354 77.64177 
L 307.273112 77.597711 
L 307.125146 77.690723 
L 307.14039 77.583033 
L 307.134505 77.181646 
L 307.145049 77.680924 
L 307.164257 77.250167 
L 307.141759 77.132693 
L 307.210971 77.269751 
L 307.137795 77.19143 
L 307.284556 77.171847 
L 307.108389 77.201215 
L 307.129825 77.088634 
L 307.134505 76.995636 
L 307.131215 77.240383 
L 307.146438 77.029897 
L 307.28523 77.078849 
L 307.119608 77.039682 
L 307.151098 76.97116 
L 307.162357 76.829196 
L 307.108389 76.985837 
L 307.08914 76.892839 
L 306.217994 77.064158 
L 298.530038 80.059897 
L 222.130922 114.486411 
L 214.559546 117.839479 
L 200.677688 124.090394 
L 197.439769 125.446307 
L 191.365185 128.280512 
L 161.127456 141.565536 
L 159.057782 142.559221 
L 155.07303 144.174571 
L 149.397594 146.661226 
L 127.679983 155.643551 
L 122.704569 157.630917 
L 117.262669 159.828772 
L 116.234504 160.17142 
L 113.389102 161.341326 
L 109.029954 163.064366 
L 106.596789 163.965046 
L 82.95546 173.201905 
L 82.713555 173.304698 
L 82.373542 173.559237 
L 81.935987 173.70609 
L 81.472336 173.838255 
L 79.517246 174.650822 
L 79.423985 174.528449 
L 79.105367 174.768303 
L 78.977682 174.758512 
L 78.798279 174.812356 
L 78.817863 174.812356 
L 78.592541 174.895573 
L 78.471252 174.885784 
L 78.51148 174.939629 
" style="fill:none;stroke:#ff7f0e;stroke-linecap:square;"/>
   </g>
   <g id="line2d_15">
    <path clip-path="url(#p013d753033)" d="M 409.906328 78.036933 
L 408.62852 78.669717 
L 408.482208 78.919371 
L 408.136987 79.183698 
L 407.6674 79.359914 
L 407.405225 79.790675 
L 406.205797 80.794147 
L 405.208508 81.264067 
L 404.715749 81.778046 
L 404.413072 81.998322 
L 403.197624 82.46334 
L 402.852566 82.776616 
L 402.110587 82.9871 
L 400.682701 84.181483 
L 400.534386 84.421333 
L 399.868628 84.852105 
L 398.436369 85.532498 
L 398.012066 85.806627 
L 397.476006 86.002428 
L 397.459392 86.266755 
L 396.884364 86.648564 
L 396.656232 86.961841 
L 395.927883 87.373028 
L 395.902176 87.671621 
L 392.809445 89.027537 
L 392.053652 89.238023 
L 391.249163 90.378553 
L 391.185101 90.65267 
L 389.685796 91.264539 
L 389.492852 91.519085 
L 386.843797 92.923951 
L 386.335957 93.614148 
L 385.667174 94.26518 
L 383.771438 94.999431 
L 383.435637 95.205024 
L 382.810625 95.405715 
L 382.490927 95.694523 
L 382.343021 96.174228 
L 380.38167 97.495872 
L 378.645161 98.254603 
L 378.460412 98.773473 
L 378.031531 98.979062 
L 376.714891 99.444085 
L 376.282128 99.918899 
L 376.192195 100.13428 
L 375.616471 100.589516 
L 374.407235 101.2895 
L 373.906404 101.514667 
L 373.552927 101.813265 
L 372.737527 102.302764 
L 371.276353 103.541195 
L 370.444441 103.971962 
L 368.553262 104.990118 
L 367.518803 105.704782 
L 365.890188 106.571207 
L 365.612012 106.904062 
L 364.174011 107.755792 
L 364.098444 107.985855 
L 363.719505 108.206131 
L 363.057487 108.450878 
L 362.812783 108.720106 
L 360.345697 110.012383 
L 359.950308 110.242453 
L 359.832646 110.457832 
L 359.883344 110.63894 
L 359.57891 110.859218 
L 358.550274 111.294875 
L 357.298902 112.185762 
L 356.038232 112.807429 
L 355.927456 113.057072 
L 355.497064 113.443779 
L 355.356045 113.727684 
L 354.918765 113.854955 
L 352.856427 115.303878 
L 351.621954 115.739529 
L 350.473694 116.52762 
L 349.501683 117.212927 
L 349.090008 117.349991 
L 348.162136 117.94228 
L 347.465276 118.373042 
L 346.179002 119.063237 
L 345.941797 119.327569 
L 345.391024 119.533152 
L 344.502774 120.629633 
L 344.395104 120.864599 
L 343.923291 121.040815 
L 343.694526 121.329622 
L 342.80977 121.872967 
L 341.877157 122.313514 
L 339.999588 123.31209 
L 339.436002 123.806485 
L 337.64765 124.790383 
L 337.05703 125.191772 
L 335.943734 125.999448 
L 335.828422 126.239305 
L 335.218756 126.665164 
L 333.604527 127.44837 
L 332.171921 128.133664 
L 331.795925 128.833648 
L 330.947788 129.323151 
L 329.886192 129.7637 
L 329.236475 129.949708 
L 328.416885 130.982552 
L 327.650936 131.359466 
L 327.326006 131.638481 
L 326.055915 132.269939 
L 325.291193 132.754542 
L 325.105688 133.219565 
L 323.847245 133.919552 
L 323.558627 134.134928 
L 321.963566 134.874074 
L 321.10513 135.241196 
L 320.527118 135.950972 
L 320.165589 136.151668 
L 319.846279 136.636277 
L 316.260665 138.506163 
L 314.87183 139.382368 
L 314.38187 139.822915 
L 314.157253 140.043192 
L 314.092415 140.302628 
L 313.306399 140.733387 
L 312.174364 141.124988 
L 305.889467 145.471744 
L 305.060621 145.931874 
L 304.727741 146.205995 
L 303.11903 147.087094 
L 302.485558 147.630439 
L 301.877671 148.06609 
L 301.720365 148.301053 
L 300.871207 148.756287 
L 299.738805 149.226206 
L 297.843457 150.36674 
L 296.983938 151.066725 
L 295.686956 151.663915 
L 295.410293 152.187679 
L 295.277754 152.427535 
L 293.791343 153.289054 
L 292.767347 154.013512 
L 292.202474 154.179943 
L 291.029856 154.870138 
L 289.912984 155.550542 
L 289.511936 155.966617 
L 287.717331 157.082676 
L 287.264235 157.542806 
L 286.793974 157.978463 
L 286.801923 158.22321 
L 285.777743 158.849771 
L 285.202387 159.358851 
L 284.162206 159.789612 
L 282.354891 160.411276 
L 282.119055 160.709868 
L 280.727155 161.546916 
L 280.43398 161.752504 
L 280.370531 162.021728 
L 279.419812 162.662973 
L 278.186504 163.318902 
L 278.091994 163.563653 
L 277.83787 163.798613 
L 276.476478 164.361538 
L 273.795381 166.158003 
L 271.7066 167.254481 
L 270.798222 167.895725 
L 268.417063 169.476811 
L 268.031933 170.118054 
L 267.722083 170.304065 
L 265.288816 171.185164 
L 264.317009 171.870463 
L 264.087734 172.286538 
L 263.030142 172.678137 
L 262.906493 172.829882 
L 262.934529 173.177426 
L 262.47753 173.534763 
L 261.918727 173.715876 
L 260.261299 174.875991 
L 260.019762 175.076686 
L 258.294533 175.923521 
L 257.363677 176.58924 
L 256.561314 177.03958 
L 255.757785 177.695511 
L 254.711147 178.185009 
L 254.465278 178.385703 
L 254.355361 179.056319 
L 253.904717 179.712248 
L 253.452275 179.912942 
L 252.618177 180.094059 
L 251.568535 180.784252 
L 251.675428 181.029003 
L 251.4512 181.308018 
L 250.806162 181.694723 
L 250.147556 182.208696 
L 249.170906 182.561137 
L 248.873992 182.805887 
L 248.826931 183.070217 
L 248.337298 183.491186 
L 247.281669 183.970895 
L 246.528777 184.440816 
L 246.181676 184.979266 
L 245.264429 185.42471 
L 244.503977 185.870155 
L 243.592248 186.633775 
L 241.905619 187.563823 
L 240.909904 187.994585 
L 239.404734 188.978478 
L 238.844623 188.978478 
L 238.384232 189.188964 
L 237.941885 187.984794 
L 237.550236 189.653987 
L 237.21376 190.432292 
L 236.590281 191.000113 
L 236.011288 191.098012 
L 230.822215 194.460873 
L 229.183199 195.15107 
L 228.181557 195.885319 
L 226.634814 196.927953 
L 224.818977 198.112543 
L 224.610085 198.381768 
L 224.171774 198.660782 
L 223.23539 199.071962 
L 221.463682 200.016697 
L 221.265109 200.339766 
L 219.704807 201.269815 
L 219.074237 201.734842 
L 214.410159 204.666945 
L 214.163575 204.926378 
L 213.148478 205.337558 
L 210.942831 206.766897 
L 203.850411 211.250715 
L 203.215172 211.637422 
L 202.590272 212.053495 
L 201.950292 212.484257 
L 200.795657 213.296826 
L 199.326248 214.163238 
L 196.769311 215.484887 
L 195.221587 216.033128 
L 195.023913 216.140818 
L 194.457007 216.170185 
L 194.209187 216.346407 
L 193.664452 216.414936 
L 193.356881 216.458994 
L 191.525208 216.488362 
L 191.349348 216.400252 
L 190.880497 216.370883 
L 190.590357 216.351304 
L 190.423059 216.248507 
L 190.006071 216.165293 
L 189.43422 215.989072 
L 188.91697 215.719848 
L 188.669701 215.710057 
L 188.572474 215.568103 
L 186.691993 214.593996 
L 186.607404 214.486309 
L 186.079732 214.329669 
L 185.371449 213.903803 
L 185.25627 213.737372 
L 184.94829 213.649262 
L 184.845556 213.492623 
L 184.318538 213.066759 
L 184.087198 212.905225 
L 193.172153 210.736742 
L 193.996514 209.929066 
L 194.17927 209.557045 
L 194.246766 209.145867 
L 193.667977 208.651471 
L 193.285728 208.147287 
L 192.89552 207.863377 
L 192.378464 207.633314 
L 190.588508 205.802585 
L 189.515938 204.779529 
L 187.071555 202.062806 
L 186.018316 200.809685 
L 185.227631 200.114596 
L 185.02584 199.727891 
L 184.629348 199.399927 
L 183.23195 197.667098 
L 182.582856 197.030748 
L 182.451492 196.648937 
L 182.012793 196.291604 
L 181.869924 195.963639 
L 181.183068 195.253863 
L 181.089242 194.925898 
L 180.377925 194.323815 
L 179.543735 193.28118 
L 179.187765 192.977691 
L 179.006009 192.590987 
L 177.746126 191.430872 
L 177.595431 191.102908 
L 176.93989 190.373552 
L 176.819183 190.119012 
L 176.284646 189.536508 
L 176.010843 189.174278 
L 175.55085 188.885474 
L 175.092861 188.268704 
L 174.69595 187.955424 
L 174.617348 187.666618 
L 174.257281 187.451239 
L 172.436366 185.37576 
L 172.00486 185.135906 
L 171.891611 184.83731 
L 171.218691 184.386971 
L 171.097238 184.049215 
L 170.747449 183.882786 
L 169.905075 183.094692 
L 169.705163 182.776516 
L 169.671927 182.414286 
L 169.823286 182.125483 
L 169.528578 181.861152 
L 169.85406 181.587033 
L 169.78634 181.112219 
L 169.960391 180.784252 
L 169.833115 180.500344 
L 169.858954 180.373074 
L 170.000392 180.284963 
L 169.76615 179.976578 
L 169.971518 179.917838 
L 169.734702 179.829729 
L 169.81407 179.741618 
L 169.992974 179.555609 
L 169.887184 179.447919 
L 170.039728 179.389179 
L 169.924753 179.305963 
L 169.959768 178.909469 
L 169.718088 178.870308 
L 169.99796 178.752829 
L 169.963467 178.767513 
L 169.828782 178.640243 
L 169.842954 178.664718 
L 169.931497 178.424864 
L 169.898301 178.464024 
L 169.653515 178.395494 
L 170.032331 178.361229 
L 169.909417 178.307383 
L 169.840532 178.131164 
L 169.748883 178.219274 
L 169.948131 177.950049 
L 169.786984 177.959839 
L 170.048934 177.87173 
L 169.868783 177.86194 
L 169.818412 177.65635 
L 169.882331 177.661245 
L 169.975738 177.641664 
L 169.816501 177.641664 
L 169.876824 177.631875 
L 169.95796 177.553555 
L 169.78212 177.602504 
L 169.862643 177.489921 
L 169.839889 177.548659 
L 169.974573 177.533975 
L 169.781487 177.568239 
L 169.906342 177.440969 
L 169.938291 177.357755 
L 169.853427 177.504603 
L 170.04217 177.445864 
L 169.758722 177.30391 
L 169.80423 177.299015 
L 170.026201 177.230485 
L 169.78824 177.264749 
L 169.909417 177.22559 
L 169.90814 177.171745 
L 170.10987 177.161956 
L 169.765507 177.171745 
L 169.938925 177.113004 
L 169.825196 177.054266 
L 169.970864 177.113004 
L 169.92602 177.010209 
L 170.337164 176.97105 
L 173.706028 175.810935 
L 175.4676 174.968997 
L 176.662174 174.557815 
L 177.259896 174.239641 
L 177.612412 174.141742 
L 178.661217 173.603292 
L 179.778436 173.187217 
L 180.20934 172.854357 
L 181.79308 172.242482 
L 182.727993 171.743195 
L 184.037614 171.111739 
L 184.474024 171.048103 
L 184.668817 170.793563 
L 185.734071 170.387279 
L 186.262683 170.025048 
L 187.157175 169.746035 
L 188.665635 168.923675 
L 189.199733 168.757246 
L 189.441975 168.522286 
L 190.136863 168.243271 
L 190.733419 167.988732 
L 201.880743 162.819615 
L 203.204832 162.212634 
L 203.894386 161.869983 
L 205.328597 161.267899 
L 205.462964 161.076994 
L 207.245318 160.26932 
L 207.680064 160.191001 
L 208.18866 159.86793 
L 209.606145 159.187526 
L 210.31266 158.893827 
L 211.344442 158.433697 
L 211.66972 158.360271 
L 211.874321 158.144892 
L 218.435259 155.325373 
L 218.650424 155.158942 
L 223.151067 153.142203 
L 223.723756 152.853397 
L 224.254922 152.70655 
L 224.367946 152.554805 
L 225.841043 151.947825 
L 226.39387 151.668813 
L 227.856076 151.086306 
L 228.250953 150.929666 
L 228.490876 150.694706 
L 229.903007 150.146465 
L 230.158582 149.931088 
L 230.878614 149.681442 
L 231.128345 149.515011 
L 231.573512 149.412214 
L 232.392039 148.868871 
L 233.286992 148.580067 
L 233.752185 148.242312 
L 236.976351 146.876609 
L 239.901662 145.481535 
L 240.955718 145.006719 
L 243.321245 143.895554 
L 248.031944 141.663438 
L 248.198895 141.45295 
L 249.418103 140.968347 
L 253.372826 139.044611 
L 254.137712 138.711756 
L 254.756941 138.359311 
L 255.203968 138.241836 
L 255.377396 138.060717 
L 257.419627 137.047453 
L 273.64817 128.623162 
L 273.940057 128.383307 
L 274.345949 128.32457 
L 274.925044 127.893808 
L 276.393166 127.179137 
L 276.945349 126.78754 
L 279.114744 125.647004 
L 279.951091 125.10856 
L 281.00108 124.530947 
L 282.263957 123.86033 
L 282.834 123.654742 
L 282.984092 123.463842 
L 284.795371 122.494621 
L 285.131275 122.34288 
L 285.642404 121.882752 
L 286.146423 121.770168 
L 286.919381 121.084869 
L 287.663853 120.742217 
L 289.346211 119.787689 
L 293.937267 117.100343 
L 294.152361 116.889857 
L 294.558089 116.723423 
L 294.813174 116.498255 
L 295.292119 116.322037 
L 295.73134 115.88638 
L 296.461815 115.499679 
L 297.786159 114.643048 
L 298.527218 114.285717 
L 299.11788 113.825591 
L 300.239145 113.179448 
L 300.47122 112.920008 
L 302.558775 111.652211 
L 303.265791 111.245925 
L 303.944178 110.731946 
L 304.238374 110.501881 
L 305.02766 110.154339 
L 305.590959 109.606104 
L 306.34665 109.234085 
L 306.583752 108.969754 
L 310.019866 106.727844 
L 310.298982 106.463513 
L 310.809887 106.282395 
L 310.952255 106.01807 
L 312.768561 104.755158 
L 312.964099 104.436985 
L 313.700091 104.055174 
L 314.363724 103.595042 
L 315.015097 103.134914 
L 315.313707 102.80695 
L 316.081802 102.3615 
L 317.787414 101.152441 
L 320.041224 99.502827 
L 320.544937 99.228704 
L 321.116144 98.631518 
L 321.460814 98.479776 
L 322.701519 97.432245 
L 323.610674 96.972111 
L 324.339207 96.223173 
L 324.911416 95.998007 
L 325.760472 95.160964 
L 326.258606 94.926004 
L 326.422185 94.627406 
L 327.146999 94.177065 
L 327.910107 93.633722 
L 329.190987 92.684101 
L 331.965981 90.574345 
L 332.100604 90.314921 
L 332.97314 89.766684 
L 333.542059 89.262498 
L 338.006829 85.821309 
L 338.235103 85.537399 
L 338.588356 85.385658 
L 341.23216 83.217168 
L 341.796931 83.001782 
L 341.882511 82.722775 
L 342.976945 81.98364 
L 344.361285 80.901841 
L 346.074152 79.634031 
L 346.682918 79.061321 
L 347.385132 78.606085 
L 347.997147 78.072532 
L 348.796139 77.617296 
L 350.652149 76.104736 
L 350.999844 75.776777 
L 351.847531 75.316649 
L 352.450637 74.734135 
L 352.828349 74.592187 
L 353.733274 73.769821 
L 354.434425 73.290121 
L 355.691396 72.291539 
L 356.85962 71.53771 
L 357.08861 71.351702 
L 357.391246 69.207687 
L 357.347761 67.98883 
L 357.428641 67.13221 
L 357.29549 66.407746 
L 357.366663 64.81688 
L 357.296 63.123201 
L 357.46242 62.824597 
L 357.405652 62.545588 
L 357.381029 61.532335 
L 357.452202 61.419729 
L 357.320175 60.905762 
L 357.486103 60.90087 
L 357.376451 60.812763 
L 357.408697 60.484793 
L 357.470777 60.519071 
L 357.297594 60.465219 
L 357.377003 60.396684 
L 357.511728 60.161724 
L 357.295081 60.416269 
L 357.409371 60.14214 
L 357.24708 60.205784 
L 357.513874 60.137249 
L 357.320256 60.230259 
L 357.541522 60.249833 
L 357.207192 60.298784 
L 357.438123 60.313478 
L 357.319888 60.455426 
L 357.487432 60.372209 
L 357.312777 60.396684 
L 357.361452 60.494597 
L 357.564245 60.377099 
L 357.230324 60.509268 
L 357.419854 60.548436 
L 357.386546 60.636545 
L 357.370668 60.61207 
L 357.272358 60.636545 
L 357.45774 60.66102 
L 357.327163 60.65613 
L 357.455697 60.709972 
L 357.305114 60.70508 
L 357.398357 60.685497 
L 357.272358 60.783396 
L 357.43988 60.729544 
L 357.35336 60.84703 
L 357.383624 60.758922 
L 357.320052 60.822556 
L 357.398929 60.832335 
L 357.499794 60.817664 
L 357.196218 60.920455 
L 357.515754 60.94493 
L 357.332415 60.988979 
L 357.321666 61.116245 
L 357.310938 61.062406 
L 357.458435 61.062406 
L 357.411292 61.111355 
L 357.391941 61.473593 
L 357.228607 61.55681 
L 357.468243 61.473593 
L 357.395599 61.576373 
L 357.507212 61.561702 
L 357.223499 61.620433 
L 357.389407 61.635127 
L 357.417627 61.688968 
L 357.417075 61.532335 
L 357.313104 61.733017 
L 357.357161 61.718344 
L 357.505189 61.786857 
L 357.281982 61.781967 
L 357.350091 61.733017 
L 357.321871 61.840709 
L 357.512832 61.742821 
L 357.350091 61.909244 
L 357.472412 61.87988 
L 357.31619 61.953304 
L 357.497526 62.031621 
L 357.387936 62.065888 
L 357.298923 62.114838 
L 357.339322 62.168679 
L 357.553435 62.227422 
L 357.31478 62.173569 
L 357.351153 62.202936 
L 357.351153 62.349798 
L 357.337871 62.413432 
L 357.552904 62.447689 
L 357.305094 62.555381 
L 357.494645 62.540698 
L 357.334417 62.682647 
L 357.487554 62.692428 
L 357.260097 62.667976 
L 357.480811 62.69734 
L 357.274483 62.819706 
L 357.346249 62.721817 
L 357.446011 62.981239 
L 357.432749 62.912716 
L 357.306749 63.039995 
L 357.395394 63.02041 
L 357.517777 63.049774 
L 357.396866 63.079141 
L 357.28891 63.16725 
L 357.34114 63.157468 
L 357.44458 63.206418 
L 357.327306 63.093834 
L 357.373938 63.284735 
L 357.385749 63.431575 
L 357.440922 63.230893 
L 357.382663 63.372844 
L 357.474251 63.397319 
L 357.361187 63.465853 
L 357.252087 63.539269 
L 357.418526 63.441379 
L 357.318805 63.544181 
L 357.472249 63.617595 
L 357.364845 63.656754 
L 357.32841 63.695911 
L 357.391982 63.754664 
L 357.383808 63.82808 
L 357.25885 63.764446 
L 357.535269 63.82808 
L 357.36791 63.891725 
L 357.313125 63.945565 
L 357.507233 63.955346 
L 357.307464 63.97004 
L 357.404917 64.014089 
L 357.308016 64.121771 
L 357.477582 64.053259 
L 357.440248 64.097297 
L 357.461153 64.293109 
L 357.36791 64.239267 
L 357.336808 64.229464 
L 357.450956 64.322474 
L 357.391062 64.317584 
L 357.26449 64.435057 
L 357.306054 64.454642 
L 357.340793 64.493791 
L 357.469367 64.444861 
L 357.368502 64.577019 
L 357.380865 64.630871 
L 357.39472 64.625958 
L 357.549267 64.650433 
L 357.368134 64.718967 
L 357.403466 64.733652 
L 357.241563 64.723859 
L 357.542768 64.807076 
L 357.305135 64.924561 
L 357.378331 64.978414 
L 357.433116 65.05673 
L 357.27295 65.090986 
L 357.520209 65.135047 
L 357.278018 65.213374 
L 357.313329 65.237838 
L 357.16385 65.228045 
L 357.519616 65.223155 
L 357.275484 65.374908 
L 357.387077 65.409164 
L 357.496116 65.379797 
L 357.325181 65.409164 
L 357.381437 65.414054 
L 357.334458 65.727342 
L 357.390735 65.624539 
L 357.224868 65.668599 
L 357.433116 65.688173 
L 357.318969 65.756708 
L 357.371792 65.835034 
L 357.249451 65.825243 
L 357.350316 65.91335 
L 357.459927 65.82034 
L 357.611428 65.893767 
L 357.340098 65.844815 
L 357.391307 65.90846 
L 357.38111 65.976984 
L 357.383093 65.903569 
L 357.399461 65.962302 
L 357.412232 65.981885 
L 357.307342 66.094469 
L 357.483958 66.14831 
L 357.187534 66.143421 
L 357.282779 66.133617 
L 357.425147 66.275588 
L 357.33503 66.280479 
L 357.329942 66.329429 
L 357.534819 66.363686 
L 357.30117 66.383271 
L 357.258707 66.535012 
L 357.488147 66.481159 
L 357.393535 66.530122 
L 357.376022 66.681863 
L 357.476908 66.706338 
L 357.318642 66.730813 
L 357.415543 66.745497 
L 357.330514 66.828703 
L 357.329064 66.818922 
L 357.534819 66.838507 
L 357.390408 66.872763 
L 357.447748 66.965784 
L 357.401708 66.970674 
L 357.285865 67.019626 
L 357.344328 67.083247 
L 357.540439 67.18116 
L 357.383338 67.166466 
L 357.529159 67.215416 
L 357.300823 67.254573 
L 357.35054 67.367168 
L 357.524071 67.33289 
L 357.355097 67.411217 
L 357.430501 67.430791 
L 357.272276 67.562958 
L 357.323955 67.553179 
L 357.501143 67.685346 
L 357.186676 67.700019 
L 357.421755 67.773444 
L 357.397131 67.944781 
L 357.387854 67.930087 
L 357.536454 67.954562 
L 357.310693 67.949671 
L 357.365539 68.03778 
L 357.254477 68.057365 
L 357.435589 68.052473 
L 357.414112 68.135681 
L 357.385892 68.174838 
L 357.267208 68.140571 
L 357.433627 68.199313 
L 357.398827 68.233581 
L 357.371159 68.346165 
L 357.53249 68.46364 
L 357.374224 68.414688 
L 357.483876 68.551758 
L 357.342346 68.5077 
L 357.253313 68.546857 
L 357.436161 68.566442 
L 357.336359 68.581125 
L 357.462399 68.664342 
L 357.307587 68.595807 
L 357.330739 68.69372 
L 357.224214 68.718184 
L 357.399951 68.713294 
L 357.284108 68.781829 
L 357.443477 68.98252 
L 357.34204 69.070629 
L 357.442905 69.085311 
L 357.42905 69.320271 
L 357.225889 69.339856 
L 357.459845 69.344746 
L 357.266309 69.447537 
L 357.477929 69.560132 
L 357.291995 69.770618 
L 357.476254 69.780399 
L 357.42198 69.853824 
L 357.303847 69.966408 
L 357.34114 69.9762 
L 357.492867 70.010468 
L 357.314616 70.034943 
L 357.440636 70.054528 
L 357.336624 70.181794 
L 357.509583 70.083893 
L 357.445704 70.172002 
L 357.344267 70.534228 
L 357.371956 70.499972 
L 357.525644 70.617456 
L 357.29878 70.524447 
L 357.4248 70.612555 
L 357.280388 70.793674 
L 357.474496 70.837721 
L 357.369994 70.88177 
L 357.394536 70.989475 
L 357.320788 71.121631 
L 357.405877 71.244008 
L 357.337197 71.224425 
L 357.218513 71.219533 
L 357.395129 71.273374 
L 356.403439 71.385969 
L 346.844842 74.822255 
L 309.412714 90.354078 
L 302.636917 92.982693 
L 296.359274 95.665145 
L 247.289802 115.401777 
L 242.570131 117.193347 
L 233.819169 120.68837 
L 229.41648 122.303721 
L 217.480933 126.993134 
L 206.343091 131.212621 
L 170.359846 144.673861 
L 165.316768 146.45564 
L 163.038313 147.351424 
L 156.166964 149.798921 
L 149.994243 152.031039 
L 126.253972 160.401487 
L 124.889596 160.797979 
L 123.569477 161.370696 
L 121.067325 162.232215 
L 118.470919 163.123103 
L 109.018015 166.427227 
L 108.159477 166.764982 
L 106.280651 167.337698 
L 97.200302 170.490074 
L 96.10355 170.847408 
L 93.830156 171.645293 
L 93.1188 171.831304 
L 92.798887 172.051578 
L 91.703068 172.350172 
L 90.774204 172.673242 
L 89.482974 173.152951 
L 88.602009 173.373227 
L 88.063415 173.510288 
L 87.332465 173.896991 
L 85.779313 174.362016 
L 84.645603 174.797671 
L 82.157661 175.649399 
L 81.984892 175.776671 
L 81.589559 175.761985 
L 81.522404 175.91373 
L 80.487845 176.182956 
L 80.067708 176.329805 
L 80.172795 176.45218 
L 79.521818 176.550079 
L 78.34153 176.926994 
L 78.298038 176.980839 
L 76.355996 177.612293 
L 76.02978 177.671034 
L 76.15681 177.68572 
L 76.181334 177.768935 
L 75.770744 177.754249 
L 75.866304 177.87173 
L 74.496124 178.292699 
L 74.315539 178.317174 
L 74.06698 178.30249 
L 74.093417 178.429758 
L 73.927189 178.366124 
L 73.948801 178.47871 
L 73.640796 178.542344 
L 73.850415 178.650034 
L 73.540122 178.517869 
L 73.551161 178.527659 
L 73.435878 178.640243 
L 73.488888 178.635348 
L 73.172469 178.601084 
L 73.219759 178.713668 
L 73.311277 178.752829 
L 73.01945 178.723459 
L 73.032278 178.772409 
L 73.010601 178.713668 
L 72.675548 178.777304 
L 72.775609 178.821358 
L 72.88804 178.850729 
L 72.699455 178.811569 
L 72.720266 178.865413 
L 72.781368 178.894783 
L 72.323718 178.924153 
L 72.36626 179.017158 
L 72.391969 178.987789 
L 72.535134 178.845833 
L 72.420366 178.958419 
L 72.302884 178.880099 
L 72.458925 178.929049 
L 72.372044 178.904574 
" style="fill:none;stroke:#2ca02c;stroke-linecap:square;"/>
   </g>
   <g id="patch_3">
    <path d="M 56.0625 232.46 
L 56.0625 10.7 
" style="fill:none;stroke:#000000;stroke-linecap:square;stroke-linejoin:miter;stroke-width:0.8;"/>
   </g>
   <g id="patch_4">
    <path d="M 390.8625 232.46 
L 390.8625 10.7 
" style="fill:none;stroke:#000000;stroke-linecap:square;stroke-linejoin:miter;stroke-width:0.8;"/>
   </g>
   <g id="patch_5">
    <path d="M 56.0625 232.46 
L 390.8625 232.46 
" style="fill:none;stroke:#000000;stroke-linecap:square;stroke-linejoin:miter;stroke-width:0.8;"/>
   </g>
   <g id="patch_6">
    <path d="M 56.0625 10.7 
L 390.8625 10.7 
" style="fill:none;stroke:#000000;stroke-linecap:square;stroke-linejoin:miter;stroke-width:0.8;"/>
   </g>
   <g id="text_15">
    <!-- $T_T =$170 °C -->
    <defs>
     <path d="M 5.90625 72.90625 
L 67.578125 72.90625 
L 66.015625 64.59375 
L 39.984375 64.59375 
L 27.484375 0 
L 17.578125 0 
L 30.078125 64.59375 
L 4.296875 64.59375 
z
" id="DejaVuSans-Oblique-54"/>
     <path d="M 10.59375 45.40625 
L 73.1875 45.40625 
L 73.1875 37.203125 
L 10.59375 37.203125 
z
M 10.59375 25.484375 
L 73.1875 25.484375 
L 73.1875 17.1875 
L 10.59375 17.1875 
z
" id="DejaVuSans-3d"/>
     <path d="M 4.734375 62.203125 
L 4.734375 70.65625 
L 51.078125 70.65625 
L 51.078125 63.8125 
Q 44.234375 56.546875 37.515625 44.484375 
Q 30.8125 32.421875 27.15625 19.671875 
Q 24.515625 10.6875 23.78125 0 
L 14.75 0 
Q 14.890625 8.453125 18.0625 20.40625 
Q 21.234375 32.375 27.171875 43.484375 
Q 33.109375 54.59375 39.796875 62.203125 
z
" id="ArialMT-37"/>
    </defs>
    <g transform="translate(314.3565 225.44105)scale(0.13 -0.13)">
     <use transform="translate(0 0.09375)" xlink:href="#DejaVuSans-Oblique-54"/>
     <use transform="translate(61.083984 -16.3125)scale(0.7)" xlink:href="#DejaVuSans-Oblique-54"/>
     <use transform="translate(126.05957 0.09375)" xlink:href="#DejaVuSans-3d"/>
     <use transform="translate(229.331055 0.09375)" xlink:href="#ArialMT-31"/>
     <use transform="translate(284.946289 0.09375)" xlink:href="#ArialMT-37"/>
     <use transform="translate(340.561523 0.09375)" xlink:href="#ArialMT-30"/>
     <use transform="translate(396.176758 0.09375)" xlink:href="#ArialMT-20"/>
     <use transform="translate(423.959961 0.09375)" xlink:href="#ArialMT-b0"/>
     <use transform="translate(463.950195 0.09375)" xlink:href="#ArialMT-43"/>
    </g>
   </g>
   <g id="legend_1">
    <g id="patch_7">
     <path d="M 62.5625 76.266719 
L 179.0425 76.266719 
L 179.0425 17.2 
L 62.5625 17.2 
z
" style="fill:#ffffff;opacity:0.8;stroke:#cccccc;stroke-linejoin:miter;"/>
    </g>
    <g id="line2d_16">
     <path d="M 67.7625 27.155156 
L 93.7625 27.155156 
" style="fill:none;stroke:#1f77b4;stroke-linecap:square;"/>
    </g>
    <g id="line2d_17"/>
    <g id="text_16">
     <!-- $T_P =$300 °C -->
     <defs>
      <path d="M 16.890625 72.90625 
L 39.703125 72.90625 
Q 49.65625 72.90625 54.875 68.265625 
Q 60.109375 63.625 60.109375 54.6875 
Q 60.109375 42.671875 52.390625 35.984375 
Q 44.671875 29.296875 30.71875 29.296875 
L 18.3125 29.296875 
L 12.59375 0 
L 2.6875 0 
z
M 25.203125 64.796875 
L 19.921875 37.40625 
L 32.328125 37.40625 
Q 40.71875 37.40625 45.203125 41.703125 
Q 49.703125 46 49.703125 54 
Q 49.703125 59.125 46.65625 61.953125 
Q 43.609375 64.796875 38.09375 64.796875 
z
" id="DejaVuSans-Oblique-50"/>
     </defs>
     <g transform="translate(104.1625 31.705156)scale(0.13 -0.13)">
      <use transform="translate(0 0.09375)" xlink:href="#DejaVuSans-Oblique-54"/>
      <use transform="translate(61.083984 -16.3125)scale(0.7)" xlink:href="#DejaVuSans-Oblique-50"/>
      <use transform="translate(125.512695 0.09375)" xlink:href="#DejaVuSans-3d"/>
      <use transform="translate(228.78418 0.09375)" xlink:href="#ArialMT-33"/>
      <use transform="translate(284.399414 0.09375)" xlink:href="#ArialMT-30"/>
      <use transform="translate(340.014648 0.09375)" xlink:href="#ArialMT-30"/>
      <use transform="translate(395.629883 0.09375)" xlink:href="#ArialMT-20"/>
      <use transform="translate(423.413086 0.09375)" xlink:href="#ArialMT-b0"/>
      <use transform="translate(463.40332 0.09375)" xlink:href="#ArialMT-43"/>
     </g>
    </g>
    <g id="line2d_18">
     <path d="M 67.7625 45.544062 
L 93.7625 45.544062 
" style="fill:none;stroke:#ff7f0e;stroke-linecap:square;"/>
    </g>
    <g id="line2d_19"/>
    <g id="text_17">
     <!-- $T_P =$375 °C -->
     <g transform="translate(104.1625 50.094062)scale(0.13 -0.13)">
      <use transform="translate(0 0.09375)" xlink:href="#DejaVuSans-Oblique-54"/>
      <use transform="translate(61.083984 -16.3125)scale(0.7)" xlink:href="#DejaVuSans-Oblique-50"/>
      <use transform="translate(125.512695 0.09375)" xlink:href="#DejaVuSans-3d"/>
      <use transform="translate(228.78418 0.09375)" xlink:href="#ArialMT-33"/>
      <use transform="translate(284.399414 0.09375)" xlink:href="#ArialMT-37"/>
      <use transform="translate(340.014648 0.09375)" xlink:href="#ArialMT-35"/>
      <use transform="translate(395.629883 0.09375)" xlink:href="#ArialMT-20"/>
      <use transform="translate(423.413086 0.09375)" xlink:href="#ArialMT-b0"/>
      <use transform="translate(463.40332 0.09375)" xlink:href="#ArialMT-43"/>
     </g>
    </g>
    <g id="line2d_20">
     <path d="M 67.7625 63.932969 
L 93.7625 63.932969 
" style="fill:none;stroke:#2ca02c;stroke-linecap:square;"/>
    </g>
    <g id="line2d_21"/>
    <g id="text_18">
     <!-- $T_P =$450 °C -->
     <g transform="translate(104.1625 68.482969)scale(0.13 -0.13)">
      <use transform="translate(0 0.09375)" xlink:href="#DejaVuSans-Oblique-54"/>
      <use transform="translate(61.083984 -16.3125)scale(0.7)" xlink:href="#DejaVuSans-Oblique-50"/>
      <use transform="translate(125.512695 0.09375)" xlink:href="#DejaVuSans-3d"/>
      <use transform="translate(228.78418 0.09375)" xlink:href="#ArialMT-34"/>
      <use transform="translate(284.399414 0.09375)" xlink:href="#ArialMT-35"/>
      <use transform="translate(340.014648 0.09375)" xlink:href="#ArialMT-30"/>
      <use transform="translate(395.629883 0.09375)" xlink:href="#ArialMT-20"/>
      <use transform="translate(423.413086 0.09375)" xlink:href="#ArialMT-b0"/>
      <use transform="translate(463.40332 0.09375)" xlink:href="#ArialMT-43"/>
     </g>
    </g>
   </g>
  </g>
 </g>
 <defs>
  <clipPath id="p013d753033">
   <rect height="221.76" width="334.8" x="56.0625" y="10.7"/>
  </clipPath>
 </defs>
</svg>
