<?xml version="1.0" encoding="utf-8" standalone="no"?>
<!DOCTYPE svg PUBLIC "-//W3C//DTD SVG 1.1//EN"
  "http://www.w3.org/Graphics/SVG/1.1/DTD/svg11.dtd">
<!-- Created with matplotlib (http://matplotlib.org/) -->
<svg height="310pt" version="1.1" viewBox="0 0 315 310" width="315pt" xmlns="http://www.w3.org/2000/svg" xmlns:xlink="http://www.w3.org/1999/xlink">
 <defs>
  <style type="text/css">
*{stroke-linecap:butt;stroke-linejoin:round;}
  </style>
 </defs>
 <g id="figure_1">
  <g id="patch_1">
   <path d="M 0 310.942969 
L 315.804688 310.942969 
L 315.804688 0 
L 0 0 
z
" style="fill:#ffffff;"/>
  </g>
  <g id="axes_1">
   <g id="patch_2">
    <path d="M 48.469688 268.654375 
L 299.569688 268.654375 
L 299.569688 19.174375 
L 48.469688 19.174375 
z
" style="fill:#ffffff;"/>
   </g>
   <g id="matplotlib.axis_1">
    <g id="xtick_1">
     <g id="line2d_1">
      <defs>
       <path d="M 0 0 
L 0 3.5 
" id="m7870ddac0b" style="stroke:#000000;stroke-width:0.8;"/>
      </defs>
      <g>
       <use style="stroke:#000000;stroke-width:0.8;" x="83.10417" xlink:href="#m7870ddac0b" y="268.654375"/>
      </g>
     </g>
     <g id="text_1">
      <!-- −1.0 -->
      <defs>
       <path d="M 52.828125 31.203125 
L 5.5625 31.203125 
L 5.5625 39.40625 
L 52.828125 39.40625 
z
" id="ArialMT-2212"/>
       <path d="M 37.25 0 
L 28.46875 0 
L 28.46875 56 
Q 25.296875 52.984375 20.140625 49.953125 
Q 14.984375 46.921875 10.890625 45.40625 
L 10.890625 53.90625 
Q 18.265625 57.375 23.78125 62.296875 
Q 29.296875 67.234375 31.59375 71.875 
L 37.25 71.875 
z
" id="ArialMT-31"/>
       <path d="M 9.078125 0 
L 9.078125 10.015625 
L 19.09375 10.015625 
L 19.09375 0 
z
" id="ArialMT-2e"/>
       <path d="M 4.15625 35.296875 
Q 4.15625 48 6.765625 55.734375 
Q 9.375 63.484375 14.515625 67.671875 
Q 19.671875 71.875 27.484375 71.875 
Q 33.25 71.875 37.59375 69.546875 
Q 41.9375 67.234375 44.765625 62.859375 
Q 47.609375 58.5 49.21875 52.21875 
Q 50.828125 45.953125 50.828125 35.296875 
Q 50.828125 22.703125 48.234375 14.96875 
Q 45.65625 7.234375 40.5 3 
Q 35.359375 -1.21875 27.484375 -1.21875 
Q 17.140625 -1.21875 11.234375 6.203125 
Q 4.15625 15.140625 4.15625 35.296875 
z
M 13.1875 35.296875 
Q 13.1875 17.671875 17.3125 11.828125 
Q 21.4375 6 27.484375 6 
Q 33.546875 6 37.671875 11.859375 
Q 41.796875 17.71875 41.796875 35.296875 
Q 41.796875 52.984375 37.671875 58.78125 
Q 33.546875 64.59375 27.390625 64.59375 
Q 21.34375 64.59375 17.71875 59.46875 
Q 13.1875 52.9375 13.1875 35.296875 
z
" id="ArialMT-30"/>
      </defs>
      <g transform="translate(70.272764 284.959531)scale(0.13 -0.13)">
       <use xlink:href="#ArialMT-2212"/>
       <use x="58.398438" xlink:href="#ArialMT-31"/>
       <use x="114.013672" xlink:href="#ArialMT-2e"/>
       <use x="141.796875" xlink:href="#ArialMT-30"/>
      </g>
     </g>
    </g>
    <g id="xtick_2">
     <g id="line2d_2">
      <g>
       <use style="stroke:#000000;stroke-width:0.8;" x="126.397274" xlink:href="#m7870ddac0b" y="268.654375"/>
      </g>
     </g>
     <g id="text_2">
      <!-- −0.8 -->
      <defs>
       <path d="M 17.671875 38.8125 
Q 12.203125 40.828125 9.5625 44.53125 
Q 6.9375 48.25 6.9375 53.421875 
Q 6.9375 61.234375 12.546875 66.546875 
Q 18.171875 71.875 27.484375 71.875 
Q 36.859375 71.875 42.578125 66.421875 
Q 48.296875 60.984375 48.296875 53.171875 
Q 48.296875 48.1875 45.671875 44.5 
Q 43.0625 40.828125 37.75 38.8125 
Q 44.34375 36.671875 47.78125 31.875 
Q 51.21875 27.09375 51.21875 20.453125 
Q 51.21875 11.28125 44.71875 5.03125 
Q 38.234375 -1.21875 27.640625 -1.21875 
Q 17.046875 -1.21875 10.546875 5.046875 
Q 4.046875 11.328125 4.046875 20.703125 
Q 4.046875 27.6875 7.59375 32.390625 
Q 11.140625 37.109375 17.671875 38.8125 
z
M 15.921875 53.71875 
Q 15.921875 48.640625 19.1875 45.40625 
Q 22.46875 42.1875 27.6875 42.1875 
Q 32.765625 42.1875 36.015625 45.375 
Q 39.265625 48.578125 39.265625 53.21875 
Q 39.265625 58.0625 35.90625 61.359375 
Q 32.5625 64.65625 27.59375 64.65625 
Q 22.5625 64.65625 19.234375 61.421875 
Q 15.921875 58.203125 15.921875 53.71875 
z
M 13.09375 20.65625 
Q 13.09375 16.890625 14.875 13.375 
Q 16.65625 9.859375 20.171875 7.921875 
Q 23.6875 6 27.734375 6 
Q 34.03125 6 38.125 10.046875 
Q 42.234375 14.109375 42.234375 20.359375 
Q 42.234375 26.703125 38.015625 30.859375 
Q 33.796875 35.015625 27.4375 35.015625 
Q 21.234375 35.015625 17.15625 30.90625 
Q 13.09375 26.8125 13.09375 20.65625 
z
" id="ArialMT-38"/>
      </defs>
      <g transform="translate(113.565867 284.959531)scale(0.13 -0.13)">
       <use xlink:href="#ArialMT-2212"/>
       <use x="58.398438" xlink:href="#ArialMT-30"/>
       <use x="114.013672" xlink:href="#ArialMT-2e"/>
       <use x="141.796875" xlink:href="#ArialMT-38"/>
      </g>
     </g>
    </g>
    <g id="xtick_3">
     <g id="line2d_3">
      <g>
       <use style="stroke:#000000;stroke-width:0.8;" x="169.690377" xlink:href="#m7870ddac0b" y="268.654375"/>
      </g>
     </g>
     <g id="text_3">
      <!-- −0.6 -->
      <defs>
       <path d="M 49.75 54.046875 
L 41.015625 53.375 
Q 39.84375 58.546875 37.703125 60.890625 
Q 34.125 64.65625 28.90625 64.65625 
Q 24.703125 64.65625 21.53125 62.3125 
Q 17.390625 59.28125 14.984375 53.46875 
Q 12.59375 47.65625 12.5 36.921875 
Q 15.671875 41.75 20.265625 44.09375 
Q 24.859375 46.4375 29.890625 46.4375 
Q 38.671875 46.4375 44.84375 39.96875 
Q 51.03125 33.5 51.03125 23.25 
Q 51.03125 16.5 48.125 10.71875 
Q 45.21875 4.9375 40.140625 1.859375 
Q 35.0625 -1.21875 28.609375 -1.21875 
Q 17.625 -1.21875 10.6875 6.859375 
Q 3.765625 14.9375 3.765625 33.5 
Q 3.765625 54.25 11.421875 63.671875 
Q 18.109375 71.875 29.4375 71.875 
Q 37.890625 71.875 43.28125 67.140625 
Q 48.6875 62.40625 49.75 54.046875 
z
M 13.875 23.1875 
Q 13.875 18.65625 15.796875 14.5 
Q 17.71875 10.359375 21.1875 8.171875 
Q 24.65625 6 28.46875 6 
Q 34.03125 6 38.03125 10.484375 
Q 42.046875 14.984375 42.046875 22.703125 
Q 42.046875 30.125 38.078125 34.390625 
Q 34.125 38.671875 28.125 38.671875 
Q 22.171875 38.671875 18.015625 34.390625 
Q 13.875 30.125 13.875 23.1875 
z
" id="ArialMT-36"/>
      </defs>
      <g transform="translate(156.858971 284.959531)scale(0.13 -0.13)">
       <use xlink:href="#ArialMT-2212"/>
       <use x="58.398438" xlink:href="#ArialMT-30"/>
       <use x="114.013672" xlink:href="#ArialMT-2e"/>
       <use x="141.796875" xlink:href="#ArialMT-36"/>
      </g>
     </g>
    </g>
    <g id="xtick_4">
     <g id="line2d_4">
      <g>
       <use style="stroke:#000000;stroke-width:0.8;" x="212.983481" xlink:href="#m7870ddac0b" y="268.654375"/>
      </g>
     </g>
     <g id="text_4">
      <!-- −0.4 -->
      <defs>
       <path d="M 32.328125 0 
L 32.328125 17.140625 
L 1.265625 17.140625 
L 1.265625 25.203125 
L 33.9375 71.578125 
L 41.109375 71.578125 
L 41.109375 25.203125 
L 50.78125 25.203125 
L 50.78125 17.140625 
L 41.109375 17.140625 
L 41.109375 0 
z
M 32.328125 25.203125 
L 32.328125 57.46875 
L 9.90625 25.203125 
z
" id="ArialMT-34"/>
      </defs>
      <g transform="translate(200.152074 284.959531)scale(0.13 -0.13)">
       <use xlink:href="#ArialMT-2212"/>
       <use x="58.398438" xlink:href="#ArialMT-30"/>
       <use x="114.013672" xlink:href="#ArialMT-2e"/>
       <use x="141.796875" xlink:href="#ArialMT-34"/>
      </g>
     </g>
    </g>
    <g id="xtick_5">
     <g id="line2d_5">
      <g>
       <use style="stroke:#000000;stroke-width:0.8;" x="256.276584" xlink:href="#m7870ddac0b" y="268.654375"/>
      </g>
     </g>
     <g id="text_5">
      <!-- −0.2 -->
      <defs>
       <path d="M 50.34375 8.453125 
L 50.34375 0 
L 3.03125 0 
Q 2.9375 3.171875 4.046875 6.109375 
Q 5.859375 10.9375 9.828125 15.625 
Q 13.8125 20.3125 21.34375 26.46875 
Q 33.015625 36.03125 37.109375 41.625 
Q 41.21875 47.21875 41.21875 52.203125 
Q 41.21875 57.421875 37.46875 61 
Q 33.734375 64.59375 27.734375 64.59375 
Q 21.390625 64.59375 17.578125 60.78125 
Q 13.765625 56.984375 13.71875 50.25 
L 4.6875 51.171875 
Q 5.609375 61.28125 11.65625 66.578125 
Q 17.71875 71.875 27.9375 71.875 
Q 38.234375 71.875 44.234375 66.15625 
Q 50.25 60.453125 50.25 52 
Q 50.25 47.703125 48.484375 43.546875 
Q 46.734375 39.40625 42.65625 34.8125 
Q 38.578125 30.21875 29.109375 22.21875 
Q 21.1875 15.578125 18.9375 13.203125 
Q 16.703125 10.84375 15.234375 8.453125 
z
" id="ArialMT-32"/>
      </defs>
      <g transform="translate(243.445178 284.959531)scale(0.13 -0.13)">
       <use xlink:href="#ArialMT-2212"/>
       <use x="58.398438" xlink:href="#ArialMT-30"/>
       <use x="114.013672" xlink:href="#ArialMT-2e"/>
       <use x="141.796875" xlink:href="#ArialMT-32"/>
      </g>
     </g>
    </g>
    <g id="xtick_6">
     <g id="line2d_6">
      <g>
       <use style="stroke:#000000;stroke-width:0.8;" x="299.569688" xlink:href="#m7870ddac0b" y="268.654375"/>
      </g>
     </g>
     <g id="text_6">
      <!-- 0.0 -->
      <g transform="translate(290.534688 284.959531)scale(0.13 -0.13)">
       <use xlink:href="#ArialMT-30"/>
       <use x="55.615234" xlink:href="#ArialMT-2e"/>
       <use x="83.398438" xlink:href="#ArialMT-30"/>
      </g>
     </g>
    </g>
    <g id="text_7">
     <!-- Posição (μm) -->
     <defs>
      <path d="M 7.71875 0 
L 7.71875 71.578125 
L 34.71875 71.578125 
Q 41.84375 71.578125 45.609375 70.90625 
Q 50.875 70.015625 54.4375 67.546875 
Q 58.015625 65.09375 60.1875 60.640625 
Q 62.359375 56.203125 62.359375 50.875 
Q 62.359375 41.75 56.546875 35.421875 
Q 50.734375 29.109375 35.546875 29.109375 
L 17.1875 29.109375 
L 17.1875 0 
z
M 17.1875 37.546875 
L 35.6875 37.546875 
Q 44.875 37.546875 48.734375 40.96875 
Q 52.59375 44.390625 52.59375 50.59375 
Q 52.59375 55.078125 50.3125 58.265625 
Q 48.046875 61.46875 44.34375 62.5 
Q 41.9375 63.140625 35.5 63.140625 
L 17.1875 63.140625 
z
" id="ArialMT-50"/>
      <path d="M 3.328125 25.921875 
Q 3.328125 40.328125 11.328125 47.265625 
Q 18.015625 53.03125 27.640625 53.03125 
Q 38.328125 53.03125 45.109375 46.015625 
Q 51.90625 39.015625 51.90625 26.65625 
Q 51.90625 16.65625 48.90625 10.90625 
Q 45.90625 5.171875 40.15625 2 
Q 34.421875 -1.171875 27.640625 -1.171875 
Q 16.75 -1.171875 10.03125 5.8125 
Q 3.328125 12.796875 3.328125 25.921875 
z
M 12.359375 25.921875 
Q 12.359375 15.96875 16.703125 11.015625 
Q 21.046875 6.0625 27.640625 6.0625 
Q 34.1875 6.0625 38.53125 11.03125 
Q 42.875 16.015625 42.875 26.21875 
Q 42.875 35.84375 38.5 40.796875 
Q 34.125 45.75 27.640625 45.75 
Q 21.046875 45.75 16.703125 40.8125 
Q 12.359375 35.890625 12.359375 25.921875 
z
" id="ArialMT-6f"/>
      <path d="M 3.078125 15.484375 
L 11.765625 16.84375 
Q 12.5 11.625 15.84375 8.84375 
Q 19.1875 6.0625 25.203125 6.0625 
Q 31.25 6.0625 34.171875 8.515625 
Q 37.109375 10.984375 37.109375 14.3125 
Q 37.109375 17.28125 34.515625 19 
Q 32.71875 20.171875 25.53125 21.96875 
Q 15.875 24.421875 12.140625 26.203125 
Q 8.40625 27.984375 6.46875 31.125 
Q 4.546875 34.28125 4.546875 38.09375 
Q 4.546875 41.546875 6.125 44.5 
Q 7.71875 47.46875 10.453125 49.421875 
Q 12.5 50.921875 16.03125 51.96875 
Q 19.578125 53.03125 23.640625 53.03125 
Q 29.734375 53.03125 34.34375 51.265625 
Q 38.96875 49.515625 41.15625 46.5 
Q 43.359375 43.5 44.1875 38.484375 
L 35.59375 37.3125 
Q 35.015625 41.3125 32.203125 43.546875 
Q 29.390625 45.796875 24.265625 45.796875 
Q 18.21875 45.796875 15.625 43.796875 
Q 13.03125 41.796875 13.03125 39.109375 
Q 13.03125 37.40625 14.109375 36.03125 
Q 15.1875 34.625 17.484375 33.6875 
Q 18.796875 33.203125 25.25 31.453125 
Q 34.578125 28.953125 38.25 27.359375 
Q 41.9375 25.78125 44.03125 22.75 
Q 46.140625 19.734375 46.140625 15.234375 
Q 46.140625 10.84375 43.578125 6.953125 
Q 41.015625 3.078125 36.171875 0.953125 
Q 31.34375 -1.171875 25.25 -1.171875 
Q 15.140625 -1.171875 9.84375 3.03125 
Q 4.546875 7.234375 3.078125 15.484375 
z
" id="ArialMT-73"/>
      <path d="M 6.640625 61.46875 
L 6.640625 71.578125 
L 15.4375 71.578125 
L 15.4375 61.46875 
z
M 6.640625 0 
L 6.640625 51.859375 
L 15.4375 51.859375 
L 15.4375 0 
z
" id="ArialMT-69"/>
      <path d="M 40.4375 19 
L 49.078125 17.875 
Q 47.65625 8.9375 41.8125 3.875 
Q 35.984375 -1.171875 27.484375 -1.171875 
Q 16.84375 -1.171875 10.375 5.78125 
Q 3.90625 12.75 3.90625 25.734375 
Q 3.90625 34.125 6.6875 40.421875 
Q 9.46875 46.734375 15.15625 49.875 
Q 20.84375 53.03125 27.546875 53.03125 
Q 35.984375 53.03125 41.359375 48.75 
Q 46.734375 44.484375 48.25 36.625 
L 39.703125 35.296875 
Q 38.484375 40.53125 35.375 43.15625 
Q 32.28125 45.796875 27.875 45.796875 
Q 21.234375 45.796875 17.078125 41.03125 
Q 12.9375 36.28125 12.9375 25.984375 
Q 12.9375 15.53125 16.9375 10.796875 
Q 20.953125 6.0625 27.390625 6.0625 
Q 32.5625 6.0625 36.03125 9.234375 
Q 39.5 12.40625 40.4375 19 
z
M 20.046875 -6.515625 
L 22.59375 2.125 
L 29.125 2.125 
L 27.515625 -3.109375 
Q 31.671875 -3.59375 33.765625 -5.65625 
Q 35.875 -7.734375 35.875 -10.28125 
Q 35.875 -13.9375 32.359375 -16.75 
Q 28.84375 -19.5625 21.75 -19.5625 
Q 17.75 -19.5625 14.71875 -18.96875 
L 15.265625 -13.265625 
Q 18.390625 -13.453125 19.859375 -13.453125 
Q 24.4375 -13.453125 26.296875 -12.1875 
Q 27.71875 -11.203125 27.71875 -9.796875 
Q 27.71875 -8.90625 27.15625 -8.21875 
Q 26.59375 -7.546875 25.078125 -7.046875 
Q 23.5625 -6.5625 20.046875 -6.515625 
z
" id="ArialMT-e7"/>
      <path d="M 40.4375 6.390625 
Q 35.546875 2.25 31.03125 0.53125 
Q 26.515625 -1.171875 21.34375 -1.171875 
Q 12.796875 -1.171875 8.203125 3 
Q 3.609375 7.171875 3.609375 13.671875 
Q 3.609375 17.484375 5.34375 20.625 
Q 7.078125 23.78125 9.890625 25.6875 
Q 12.703125 27.59375 16.21875 28.5625 
Q 18.796875 29.25 24.03125 29.890625 
Q 34.671875 31.15625 39.703125 32.90625 
Q 39.75 34.71875 39.75 35.203125 
Q 39.75 40.578125 37.25 42.78125 
Q 33.890625 45.75 27.25 45.75 
Q 21.046875 45.75 18.09375 43.578125 
Q 15.140625 41.40625 13.71875 35.890625 
L 5.125 37.0625 
Q 6.296875 42.578125 8.984375 45.96875 
Q 11.671875 49.359375 16.75 51.1875 
Q 21.828125 53.03125 28.515625 53.03125 
Q 35.15625 53.03125 39.296875 51.46875 
Q 43.453125 49.90625 45.40625 47.53125 
Q 47.359375 45.171875 48.140625 41.546875 
Q 48.578125 39.3125 48.578125 33.453125 
L 48.578125 21.734375 
Q 48.578125 9.46875 49.140625 6.21875 
Q 49.703125 2.984375 51.375 0 
L 42.1875 0 
Q 40.828125 2.734375 40.4375 6.390625 
z
M 39.703125 26.03125 
Q 34.90625 24.078125 25.34375 22.703125 
Q 19.921875 21.921875 17.671875 20.9375 
Q 15.4375 19.96875 14.203125 18.09375 
Q 12.984375 16.21875 12.984375 13.921875 
Q 12.984375 10.40625 15.640625 8.0625 
Q 18.3125 5.71875 23.4375 5.71875 
Q 28.515625 5.71875 32.46875 7.9375 
Q 36.421875 10.15625 38.28125 14.015625 
Q 39.703125 17 39.703125 22.796875 
z
M 11.21875 59.515625 
Q 11.171875 64.59375 14 67.625 
Q 16.78125 70.65625 21.125 70.65625 
Q 24.15625 70.65625 29.375 68.015625 
Q 32.265625 66.546875 33.96875 66.546875 
Q 35.53125 66.546875 36.359375 67.40625 
Q 37.1875 68.265625 37.53125 70.796875 
L 43.890625 70.796875 
Q 43.734375 65.234375 41.078125 62.453125 
Q 38.421875 59.671875 34.3125 59.671875 
Q 31.234375 59.671875 26.203125 62.40625 
Q 22.9375 64.15625 21.421875 64.15625 
Q 19.765625 64.15625 18.734375 62.984375 
Q 17.65625 61.8125 17.71875 59.515625 
z
" id="ArialMT-e3"/>
      <path id="ArialMT-20"/>
      <path d="M 23.390625 -21.046875 
Q 16.109375 -11.859375 11.078125 0.4375 
Q 6.0625 12.75 6.0625 25.921875 
Q 6.0625 37.546875 9.8125 48.1875 
Q 14.203125 60.546875 23.390625 72.796875 
L 29.6875 72.796875 
Q 23.78125 62.640625 21.875 58.296875 
Q 18.890625 51.5625 17.1875 44.234375 
Q 15.09375 35.109375 15.09375 25.875 
Q 15.09375 2.390625 29.6875 -21.046875 
z
" id="ArialMT-28"/>
      <path d="M 49.703125 51.859375 
L 49.703125 0 
L 41.84375 0 
L 41.84375 6.15625 
Q 39.3125 2.25 36.8125 0.78125 
Q 33.40625 -1.21875 28.859375 -1.21875 
Q 24.8125 -1.21875 21.6875 0.390625 
Q 19.34375 1.609375 16.5 5.21875 
L 16.5 -19.875 
L 7.8125 -19.875 
L 7.8125 51.859375 
L 16.5 51.859375 
L 16.5 29.890625 
Q 16.5 17.921875 17.765625 14.375 
Q 19.046875 10.84375 21.890625 8.78125 
Q 24.75 6.734375 28.46875 6.734375 
Q 32.375 6.734375 35.453125 8.875 
Q 38.53125 11.03125 39.796875 14.421875 
Q 41.0625 17.828125 41.0625 29.734375 
L 41.0625 51.859375 
z
" id="ArialMT-3bc"/>
      <path d="M 6.59375 0 
L 6.59375 51.859375 
L 14.453125 51.859375 
L 14.453125 44.578125 
Q 16.890625 48.390625 20.9375 50.703125 
Q 25 53.03125 30.171875 53.03125 
Q 35.9375 53.03125 39.625 50.640625 
Q 43.3125 48.25 44.828125 43.953125 
Q 50.984375 53.03125 60.84375 53.03125 
Q 68.5625 53.03125 72.703125 48.75 
Q 76.859375 44.484375 76.859375 35.59375 
L 76.859375 0 
L 68.109375 0 
L 68.109375 32.671875 
Q 68.109375 37.9375 67.25 40.25 
Q 66.40625 42.578125 64.15625 43.984375 
Q 61.921875 45.40625 58.890625 45.40625 
Q 53.421875 45.40625 49.796875 41.765625 
Q 46.1875 38.140625 46.1875 30.125 
L 46.1875 0 
L 37.40625 0 
L 37.40625 33.6875 
Q 37.40625 39.546875 35.25 42.46875 
Q 33.109375 45.40625 28.21875 45.40625 
Q 24.515625 45.40625 21.359375 43.453125 
Q 18.21875 41.5 16.796875 37.734375 
Q 15.375 33.984375 15.375 26.90625 
L 15.375 0 
z
" id="ArialMT-6d"/>
      <path d="M 12.359375 -21.046875 
L 6.0625 -21.046875 
Q 20.65625 2.390625 20.65625 25.875 
Q 20.65625 35.0625 18.5625 44.09375 
Q 16.890625 51.421875 13.921875 58.15625 
Q 12.015625 62.546875 6.0625 72.796875 
L 12.359375 72.796875 
Q 21.53125 60.546875 25.921875 48.1875 
Q 29.6875 37.546875 29.6875 25.921875 
Q 29.6875 12.75 24.625 0.4375 
Q 19.578125 -11.859375 12.359375 -21.046875 
z
" id="ArialMT-29"/>
     </defs>
     <g transform="translate(135.601641 301.006875)scale(0.13 -0.13)">
      <use xlink:href="#ArialMT-50"/>
      <use x="66.699219" xlink:href="#ArialMT-6f"/>
      <use x="122.314453" xlink:href="#ArialMT-73"/>
      <use x="172.314453" xlink:href="#ArialMT-69"/>
      <use x="194.53125" xlink:href="#ArialMT-e7"/>
      <use x="244.53125" xlink:href="#ArialMT-e3"/>
      <use x="300.146484" xlink:href="#ArialMT-6f"/>
      <use x="355.761719" xlink:href="#ArialMT-20"/>
      <use x="383.544922" xlink:href="#ArialMT-28"/>
      <use x="416.845703" xlink:href="#ArialMT-3bc"/>
      <use x="474.462891" xlink:href="#ArialMT-6d"/>
      <use x="557.763672" xlink:href="#ArialMT-29"/>
     </g>
    </g>
   </g>
   <g id="matplotlib.axis_2">
    <g id="ytick_1">
     <g id="line2d_7">
      <defs>
       <path d="M 0 0 
L -3.5 0 
" id="m60451204b0" style="stroke:#000000;stroke-width:0.8;"/>
      </defs>
      <g>
       <use style="stroke:#000000;stroke-width:0.8;" x="48.469688" xlink:href="#m60451204b0" y="257.438123"/>
      </g>
     </g>
     <g id="text_8">
      <!-- 0.0 -->
      <g transform="translate(23.399688 262.090701)scale(0.13 -0.13)">
       <use xlink:href="#ArialMT-30"/>
       <use x="55.615234" xlink:href="#ArialMT-2e"/>
       <use x="83.398438" xlink:href="#ArialMT-30"/>
      </g>
     </g>
    </g>
    <g id="ytick_2">
     <g id="line2d_8">
      <g>
       <use style="stroke:#000000;stroke-width:0.8;" x="48.469688" xlink:href="#m60451204b0" y="228.898117"/>
      </g>
     </g>
     <g id="text_9">
      <!-- 0.2 -->
      <g transform="translate(23.399688 233.550695)scale(0.13 -0.13)">
       <use xlink:href="#ArialMT-30"/>
       <use x="55.615234" xlink:href="#ArialMT-2e"/>
       <use x="83.398438" xlink:href="#ArialMT-32"/>
      </g>
     </g>
    </g>
    <g id="ytick_3">
     <g id="line2d_9">
      <g>
       <use style="stroke:#000000;stroke-width:0.8;" x="48.469688" xlink:href="#m60451204b0" y="200.358111"/>
      </g>
     </g>
     <g id="text_10">
      <!-- 0.4 -->
      <g transform="translate(23.399688 205.010689)scale(0.13 -0.13)">
       <use xlink:href="#ArialMT-30"/>
       <use x="55.615234" xlink:href="#ArialMT-2e"/>
       <use x="83.398438" xlink:href="#ArialMT-34"/>
      </g>
     </g>
    </g>
    <g id="ytick_4">
     <g id="line2d_10">
      <g>
       <use style="stroke:#000000;stroke-width:0.8;" x="48.469688" xlink:href="#m60451204b0" y="171.818105"/>
      </g>
     </g>
     <g id="text_11">
      <!-- 0.6 -->
      <g transform="translate(23.399688 176.470683)scale(0.13 -0.13)">
       <use xlink:href="#ArialMT-30"/>
       <use x="55.615234" xlink:href="#ArialMT-2e"/>
       <use x="83.398438" xlink:href="#ArialMT-36"/>
      </g>
     </g>
    </g>
    <g id="ytick_5">
     <g id="line2d_11">
      <g>
       <use style="stroke:#000000;stroke-width:0.8;" x="48.469688" xlink:href="#m60451204b0" y="143.278098"/>
      </g>
     </g>
     <g id="text_12">
      <!-- 0.8 -->
      <g transform="translate(23.399688 147.930676)scale(0.13 -0.13)">
       <use xlink:href="#ArialMT-30"/>
       <use x="55.615234" xlink:href="#ArialMT-2e"/>
       <use x="83.398438" xlink:href="#ArialMT-38"/>
      </g>
     </g>
    </g>
    <g id="ytick_6">
     <g id="line2d_12">
      <g>
       <use style="stroke:#000000;stroke-width:0.8;" x="48.469688" xlink:href="#m60451204b0" y="114.738092"/>
      </g>
     </g>
     <g id="text_13">
      <!-- 1.0 -->
      <g transform="translate(23.399688 119.39067)scale(0.13 -0.13)">
       <use xlink:href="#ArialMT-31"/>
       <use x="55.615234" xlink:href="#ArialMT-2e"/>
       <use x="83.398438" xlink:href="#ArialMT-30"/>
      </g>
     </g>
    </g>
    <g id="ytick_7">
     <g id="line2d_13">
      <g>
       <use style="stroke:#000000;stroke-width:0.8;" x="48.469688" xlink:href="#m60451204b0" y="86.198086"/>
      </g>
     </g>
     <g id="text_14">
      <!-- 1.2 -->
      <g transform="translate(23.399688 90.850664)scale(0.13 -0.13)">
       <use xlink:href="#ArialMT-31"/>
       <use x="55.615234" xlink:href="#ArialMT-2e"/>
       <use x="83.398438" xlink:href="#ArialMT-32"/>
      </g>
     </g>
    </g>
    <g id="ytick_8">
     <g id="line2d_14">
      <g>
       <use style="stroke:#000000;stroke-width:0.8;" x="48.469688" xlink:href="#m60451204b0" y="57.65808"/>
      </g>
     </g>
     <g id="text_15">
      <!-- 1.4 -->
      <g transform="translate(23.399688 62.310658)scale(0.13 -0.13)">
       <use xlink:href="#ArialMT-31"/>
       <use x="55.615234" xlink:href="#ArialMT-2e"/>
       <use x="83.398438" xlink:href="#ArialMT-34"/>
      </g>
     </g>
    </g>
    <g id="ytick_9">
     <g id="line2d_15">
      <g>
       <use style="stroke:#000000;stroke-width:0.8;" x="48.469688" xlink:href="#m60451204b0" y="29.118074"/>
      </g>
     </g>
     <g id="text_16">
      <!-- 1.6 -->
      <g transform="translate(23.399688 33.770652)scale(0.13 -0.13)">
       <use xlink:href="#ArialMT-31"/>
       <use x="55.615234" xlink:href="#ArialMT-2e"/>
       <use x="83.398438" xlink:href="#ArialMT-36"/>
      </g>
     </g>
    </g>
    <g id="text_17">
     <!-- Teor de carbono (%) -->
     <defs>
      <path d="M 25.921875 0 
L 25.921875 63.140625 
L 2.34375 63.140625 
L 2.34375 71.578125 
L 59.078125 71.578125 
L 59.078125 63.140625 
L 35.40625 63.140625 
L 35.40625 0 
z
" id="ArialMT-54"/>
      <path d="M 42.09375 16.703125 
L 51.171875 15.578125 
Q 49.03125 7.625 43.21875 3.21875 
Q 37.40625 -1.171875 28.375 -1.171875 
Q 17 -1.171875 10.328125 5.828125 
Q 3.65625 12.84375 3.65625 25.484375 
Q 3.65625 38.578125 10.390625 45.796875 
Q 17.140625 53.03125 27.875 53.03125 
Q 38.28125 53.03125 44.875 45.953125 
Q 51.46875 38.875 51.46875 26.03125 
Q 51.46875 25.25 51.421875 23.6875 
L 12.75 23.6875 
Q 13.234375 15.140625 17.578125 10.59375 
Q 21.921875 6.0625 28.421875 6.0625 
Q 33.25 6.0625 36.671875 8.59375 
Q 40.09375 11.140625 42.09375 16.703125 
z
M 13.234375 30.90625 
L 42.1875 30.90625 
Q 41.609375 37.453125 38.875 40.71875 
Q 34.671875 45.796875 27.984375 45.796875 
Q 21.921875 45.796875 17.796875 41.75 
Q 13.671875 37.703125 13.234375 30.90625 
z
" id="ArialMT-65"/>
      <path d="M 6.5 0 
L 6.5 51.859375 
L 14.40625 51.859375 
L 14.40625 44 
Q 17.4375 49.515625 20 51.265625 
Q 22.5625 53.03125 25.640625 53.03125 
Q 30.078125 53.03125 34.671875 50.203125 
L 31.640625 42.046875 
Q 28.421875 43.953125 25.203125 43.953125 
Q 22.3125 43.953125 20.015625 42.21875 
Q 17.71875 40.484375 16.75 37.40625 
Q 15.28125 32.71875 15.28125 27.15625 
L 15.28125 0 
z
" id="ArialMT-72"/>
      <path d="M 40.234375 0 
L 40.234375 6.546875 
Q 35.296875 -1.171875 25.734375 -1.171875 
Q 19.53125 -1.171875 14.328125 2.25 
Q 9.125 5.671875 6.265625 11.796875 
Q 3.421875 17.921875 3.421875 25.875 
Q 3.421875 33.640625 6 39.96875 
Q 8.59375 46.296875 13.765625 49.65625 
Q 18.953125 53.03125 25.34375 53.03125 
Q 30.03125 53.03125 33.6875 51.046875 
Q 37.359375 49.078125 39.65625 45.90625 
L 39.65625 71.578125 
L 48.390625 71.578125 
L 48.390625 0 
z
M 12.453125 25.875 
Q 12.453125 15.921875 16.640625 10.984375 
Q 20.84375 6.0625 26.5625 6.0625 
Q 32.328125 6.0625 36.34375 10.765625 
Q 40.375 15.484375 40.375 25.140625 
Q 40.375 35.796875 36.265625 40.765625 
Q 32.171875 45.75 26.171875 45.75 
Q 20.3125 45.75 16.375 40.96875 
Q 12.453125 36.1875 12.453125 25.875 
z
" id="ArialMT-64"/>
      <path d="M 40.4375 19 
L 49.078125 17.875 
Q 47.65625 8.9375 41.8125 3.875 
Q 35.984375 -1.171875 27.484375 -1.171875 
Q 16.84375 -1.171875 10.375 5.78125 
Q 3.90625 12.75 3.90625 25.734375 
Q 3.90625 34.125 6.6875 40.421875 
Q 9.46875 46.734375 15.15625 49.875 
Q 20.84375 53.03125 27.546875 53.03125 
Q 35.984375 53.03125 41.359375 48.75 
Q 46.734375 44.484375 48.25 36.625 
L 39.703125 35.296875 
Q 38.484375 40.53125 35.375 43.15625 
Q 32.28125 45.796875 27.875 45.796875 
Q 21.234375 45.796875 17.078125 41.03125 
Q 12.9375 36.28125 12.9375 25.984375 
Q 12.9375 15.53125 16.9375 10.796875 
Q 20.953125 6.0625 27.390625 6.0625 
Q 32.5625 6.0625 36.03125 9.234375 
Q 39.5 12.40625 40.4375 19 
z
" id="ArialMT-63"/>
      <path d="M 40.4375 6.390625 
Q 35.546875 2.25 31.03125 0.53125 
Q 26.515625 -1.171875 21.34375 -1.171875 
Q 12.796875 -1.171875 8.203125 3 
Q 3.609375 7.171875 3.609375 13.671875 
Q 3.609375 17.484375 5.34375 20.625 
Q 7.078125 23.78125 9.890625 25.6875 
Q 12.703125 27.59375 16.21875 28.5625 
Q 18.796875 29.25 24.03125 29.890625 
Q 34.671875 31.15625 39.703125 32.90625 
Q 39.75 34.71875 39.75 35.203125 
Q 39.75 40.578125 37.25 42.78125 
Q 33.890625 45.75 27.25 45.75 
Q 21.046875 45.75 18.09375 43.578125 
Q 15.140625 41.40625 13.71875 35.890625 
L 5.125 37.0625 
Q 6.296875 42.578125 8.984375 45.96875 
Q 11.671875 49.359375 16.75 51.1875 
Q 21.828125 53.03125 28.515625 53.03125 
Q 35.15625 53.03125 39.296875 51.46875 
Q 43.453125 49.90625 45.40625 47.53125 
Q 47.359375 45.171875 48.140625 41.546875 
Q 48.578125 39.3125 48.578125 33.453125 
L 48.578125 21.734375 
Q 48.578125 9.46875 49.140625 6.21875 
Q 49.703125 2.984375 51.375 0 
L 42.1875 0 
Q 40.828125 2.734375 40.4375 6.390625 
z
M 39.703125 26.03125 
Q 34.90625 24.078125 25.34375 22.703125 
Q 19.921875 21.921875 17.671875 20.9375 
Q 15.4375 19.96875 14.203125 18.09375 
Q 12.984375 16.21875 12.984375 13.921875 
Q 12.984375 10.40625 15.640625 8.0625 
Q 18.3125 5.71875 23.4375 5.71875 
Q 28.515625 5.71875 32.46875 7.9375 
Q 36.421875 10.15625 38.28125 14.015625 
Q 39.703125 17 39.703125 22.796875 
z
" id="ArialMT-61"/>
      <path d="M 14.703125 0 
L 6.546875 0 
L 6.546875 71.578125 
L 15.328125 71.578125 
L 15.328125 46.046875 
Q 20.90625 53.03125 29.546875 53.03125 
Q 34.328125 53.03125 38.59375 51.09375 
Q 42.875 49.171875 45.625 45.671875 
Q 48.390625 42.1875 49.953125 37.25 
Q 51.515625 32.328125 51.515625 26.703125 
Q 51.515625 13.375 44.921875 6.09375 
Q 38.328125 -1.171875 29.109375 -1.171875 
Q 19.921875 -1.171875 14.703125 6.5 
z
M 14.59375 26.3125 
Q 14.59375 17 17.140625 12.84375 
Q 21.296875 6.0625 28.375 6.0625 
Q 34.125 6.0625 38.328125 11.0625 
Q 42.53125 16.0625 42.53125 25.984375 
Q 42.53125 36.140625 38.5 40.96875 
Q 34.46875 45.796875 28.765625 45.796875 
Q 23 45.796875 18.796875 40.796875 
Q 14.59375 35.796875 14.59375 26.3125 
z
" id="ArialMT-62"/>
      <path d="M 6.59375 0 
L 6.59375 51.859375 
L 14.5 51.859375 
L 14.5 44.484375 
Q 20.21875 53.03125 31 53.03125 
Q 35.6875 53.03125 39.625 51.34375 
Q 43.5625 49.65625 45.515625 46.921875 
Q 47.46875 44.1875 48.25 40.4375 
Q 48.734375 37.984375 48.734375 31.890625 
L 48.734375 0 
L 39.9375 0 
L 39.9375 31.546875 
Q 39.9375 36.921875 38.90625 39.578125 
Q 37.890625 42.234375 35.28125 43.8125 
Q 32.671875 45.40625 29.15625 45.40625 
Q 23.53125 45.40625 19.453125 41.84375 
Q 15.375 38.28125 15.375 28.328125 
L 15.375 0 
z
" id="ArialMT-6e"/>
      <path d="M 5.8125 54.390625 
Q 5.8125 62.0625 9.671875 67.421875 
Q 13.53125 72.796875 20.84375 72.796875 
Q 27.59375 72.796875 32 67.984375 
Q 36.421875 63.1875 36.421875 53.859375 
Q 36.421875 44.78125 31.953125 39.875 
Q 27.484375 34.96875 20.953125 34.96875 
Q 14.453125 34.96875 10.125 39.796875 
Q 5.8125 44.625 5.8125 54.390625 
z
M 21.09375 66.75 
Q 17.828125 66.75 15.65625 63.90625 
Q 13.484375 61.078125 13.484375 53.515625 
Q 13.484375 46.625 15.671875 43.8125 
Q 17.875 41.015625 21.09375 41.015625 
Q 24.421875 41.015625 26.59375 43.84375 
Q 28.765625 46.6875 28.765625 54.203125 
Q 28.765625 61.140625 26.5625 63.9375 
Q 24.359375 66.75 21.09375 66.75 
z
M 21.140625 -2.640625 
L 60.296875 72.796875 
L 67.4375 72.796875 
L 28.421875 -2.640625 
z
M 52.09375 16.796875 
Q 52.09375 24.515625 55.953125 29.859375 
Q 59.8125 35.203125 67.1875 35.203125 
Q 73.921875 35.203125 78.34375 30.390625 
Q 82.765625 25.59375 82.765625 16.265625 
Q 82.765625 7.171875 78.296875 2.265625 
Q 73.828125 -2.640625 67.234375 -2.640625 
Q 60.75 -2.640625 56.421875 2.21875 
Q 52.09375 7.078125 52.09375 16.796875 
z
M 67.4375 29.15625 
Q 64.109375 29.15625 61.9375 26.3125 
Q 59.765625 23.484375 59.765625 15.921875 
Q 59.765625 9.078125 61.953125 6.25 
Q 64.15625 3.421875 67.390625 3.421875 
Q 70.75 3.421875 72.921875 6.25 
Q 75.09375 9.078125 75.09375 16.609375 
Q 75.09375 23.53125 72.890625 26.34375 
Q 70.703125 29.15625 67.4375 29.15625 
z
" id="ArialMT-25"/>
     </defs>
     <g transform="translate(16.663594 203.509219)rotate(-90)scale(0.13 -0.13)">
      <use xlink:href="#ArialMT-54"/>
      <use x="60.912109" xlink:href="#ArialMT-65"/>
      <use x="116.527344" xlink:href="#ArialMT-6f"/>
      <use x="172.142578" xlink:href="#ArialMT-72"/>
      <use x="205.443359" xlink:href="#ArialMT-20"/>
      <use x="233.226562" xlink:href="#ArialMT-64"/>
      <use x="288.841797" xlink:href="#ArialMT-65"/>
      <use x="344.457031" xlink:href="#ArialMT-20"/>
      <use x="372.240234" xlink:href="#ArialMT-63"/>
      <use x="422.240234" xlink:href="#ArialMT-61"/>
      <use x="477.855469" xlink:href="#ArialMT-72"/>
      <use x="511.15625" xlink:href="#ArialMT-62"/>
      <use x="566.771484" xlink:href="#ArialMT-6f"/>
      <use x="622.386719" xlink:href="#ArialMT-6e"/>
      <use x="678.001953" xlink:href="#ArialMT-6f"/>
      <use x="733.617188" xlink:href="#ArialMT-20"/>
      <use x="761.400391" xlink:href="#ArialMT-28"/>
      <use x="794.701172" xlink:href="#ArialMT-25"/>
      <use x="883.617188" xlink:href="#ArialMT-29"/>
     </g>
    </g>
   </g>
   <g id="line2d_16">
    <path clip-path="url(#pa9136c6614)" d="M 48.469688 149.803693 
L 54.166194 149.816958 
L 59.862701 149.856819 
L 65.558991 149.92417 
L 71.255497 150.020533 
L 76.952004 150.147861 
L 82.64851 150.308468 
L 88.344909 150.504801 
L 94.041372 150.739335 
L 99.737835 151.014178 
L 105.434298 151.331004 
L 111.130762 151.690623 
L 116.827225 152.09288 
L 122.523688 152.536159 
L 128.220151 153.017422 
L 133.916593 153.531875 
L 139.613056 154.072841 
L 145.30952 154.63183 
L 151.005983 155.198541 
L 156.702446 155.761029 
L 156.702446 30.514375 
L 158.145557 89.729608 
L 159.588646 138.763662 
L 161.031756 148.387824 
L 162.474867 149.333492 
L 163.917956 149.403148 
L 165.361067 149.407361 
L 166.804177 149.407593 
L 168.247266 149.407593 
L 169.690377 149.407593 
L 171.133488 149.407593 
L 172.576577 149.407593 
L 174.019688 149.407593 
L 175.462798 149.407593 
L 176.905887 149.407593 
L 178.348998 149.407593 
L 179.792109 149.407593 
L 181.235198 149.407593 
L 182.678308 149.407593 
L 184.121419 149.407593 
L 185.564508 149.407593 
L 187.007619 149.407593 
L 188.450729 149.407593 
L 189.893818 149.407593 
L 191.336929 149.407593 
L 192.78004 149.407593 
L 194.223129 149.407593 
L 195.666239 149.407593 
L 197.10935 149.407593 
L 198.552439 149.407593 
L 199.99555 149.407593 
L 201.43866 149.407593 
L 202.881749 149.407593 
L 204.32486 149.407593 
L 205.767971 149.407593 
L 207.21106 149.407593 
L 208.65417 149.407593 
L 210.097281 149.407593 
L 211.54037 149.407593 
L 212.983481 149.407593 
L 214.426591 149.407593 
L 215.86968 149.407593 
L 217.312791 149.407593 
L 218.755902 149.407593 
L 220.198991 149.407593 
L 221.642101 149.407593 
L 223.085212 149.407593 
L 224.528301 149.407593 
L 225.971412 149.407593 
L 227.414522 149.407593 
L 228.857611 149.407593 
L 230.300722 149.407593 
L 231.743833 149.407593 
L 233.186922 149.407593 
L 234.630032 149.407593 
L 236.073143 149.407593 
L 237.516232 149.407593 
L 238.959343 149.407593 
L 240.402453 149.407593 
L 241.845542 149.407593 
L 243.288653 149.407593 
L 244.731764 149.407593 
L 246.174853 149.407593 
L 247.617963 149.407593 
L 249.061074 149.407593 
L 250.504163 149.407593 
L 251.947274 149.407593 
L 253.390384 149.407593 
L 254.833473 149.407593 
L 256.276584 149.407593 
L 257.719695 149.407593 
L 259.162784 149.407593 
L 260.605894 149.407593 
L 262.049005 149.407593 
L 263.492094 149.407593 
L 264.935205 149.407593 
L 266.378315 149.407593 
L 267.821404 149.407593 
L 269.264515 149.407593 
L 270.707626 149.407593 
L 272.150715 149.407593 
L 273.593825 149.407593 
L 275.036936 149.407593 
L 276.480025 149.407593 
L 277.923136 149.407593 
L 279.36624 149.407593 
L 280.809342 149.407593 
L 282.252446 149.407593 
L 283.69555 149.407593 
L 285.138652 149.407593 
L 286.581756 149.407593 
L 288.024861 149.407593 
L 289.467963 149.407593 
L 290.911067 149.407593 
L 292.354171 149.407593 
L 293.797273 149.407593 
L 295.240377 149.407593 
L 296.683481 149.407593 
L 298.126584 149.407593 
L 299.569688 149.407593 
" style="fill:none;stroke:#1f77b4;stroke-linecap:square;"/>
   </g>
   <g id="line2d_17">
    <path clip-path="url(#pa9136c6614)" d="M 48.469688 155.165497 
L 54.166194 155.168739 
L 59.862701 155.178562 
L 65.558991 155.194902 
L 71.255497 155.217758 
L 76.952004 155.247096 
L 82.64851 155.282851 
L 88.344909 155.324988 
L 94.041372 155.373475 
L 99.737835 155.428211 
L 105.434298 155.48913 
L 111.130762 155.556165 
L 116.827225 155.629217 
L 122.523688 155.708186 
L 128.220151 155.793005 
L 133.916593 155.883507 
L 139.613056 155.979626 
L 145.30952 156.081229 
L 151.005983 156.188183 
L 156.702446 156.300388 
L 156.702446 30.514375 
L 158.145557 45.172812 
L 159.588646 62.494371 
L 161.031756 82.484041 
L 162.474867 104.081182 
L 163.917956 124.071531 
L 165.361067 138.08759 
L 166.804177 145.225963 
L 168.247266 148.061054 
L 169.690377 149.016194 
L 171.133488 149.303074 
L 172.576577 149.381721 
L 174.019688 149.401622 
L 175.462798 149.406299 
L 176.905887 149.407327 
L 178.348998 149.407526 
L 179.792109 149.407593 
L 181.235198 149.407593 
L 182.678308 149.407593 
L 184.121419 149.407593 
L 185.564508 149.407593 
L 187.007619 149.407593 
L 188.450729 149.407593 
L 189.893818 149.407593 
L 191.336929 149.407593 
L 192.78004 149.407593 
L 194.223129 149.407593 
L 195.666239 149.407593 
L 197.10935 149.407593 
L 198.552439 149.407593 
L 199.99555 149.407593 
L 201.43866 149.407593 
L 202.881749 149.407593 
L 204.32486 149.407593 
L 205.767971 149.407593 
L 207.21106 149.407593 
L 208.65417 149.407593 
L 210.097281 149.407593 
L 211.54037 149.407593 
L 212.983481 149.407593 
L 214.426591 149.407593 
L 215.86968 149.407593 
L 217.312791 149.407593 
L 218.755902 149.407593 
L 220.198991 149.407593 
L 221.642101 149.407593 
L 223.085212 149.407593 
L 224.528301 149.407593 
L 225.971412 149.407593 
L 227.414522 149.407593 
L 228.857611 149.407593 
L 230.300722 149.407593 
L 231.743833 149.407593 
L 233.186922 149.407593 
L 234.630032 149.407593 
L 236.073143 149.407593 
L 237.516232 149.407593 
L 238.959343 149.407593 
L 240.402453 149.407593 
L 241.845542 149.407593 
L 243.288653 149.407593 
L 244.731764 149.407593 
L 246.174853 149.407593 
L 247.617963 149.407593 
L 249.061074 149.407593 
L 250.504163 149.407593 
L 251.947274 149.407593 
L 253.390384 149.407593 
L 254.833473 149.407593 
L 256.276584 149.407593 
L 257.719695 149.407593 
L 259.162784 149.407593 
L 260.605894 149.407593 
L 262.049005 149.407593 
L 263.492094 149.407593 
L 264.935205 149.407593 
L 266.378315 149.407593 
L 267.821404 149.407593 
L 269.264515 149.407593 
L 270.707626 149.407593 
L 272.150715 149.407593 
L 273.593825 149.407593 
L 275.036936 149.407593 
L 276.480025 149.407593 
L 277.923136 149.407593 
L 279.36624 149.407593 
L 280.809342 149.407593 
L 282.252446 149.407593 
L 283.69555 149.407593 
L 285.138652 149.407593 
L 286.581756 149.407593 
L 288.024861 149.407593 
L 289.467963 149.407593 
L 290.911067 149.407593 
L 292.354171 149.407593 
L 293.797273 149.407593 
L 295.240377 149.407593 
L 296.683481 149.407593 
L 298.126584 149.407593 
L 299.569688 149.407593 
" style="fill:none;stroke:#ff7f0e;stroke-linecap:square;"/>
   </g>
   <g id="line2d_18">
    <path clip-path="url(#pa9136c6614)" d="M 48.469688 166.907393 
L 54.166194 166.908314 
L 59.862701 166.911176 
L 65.558991 166.915912 
L 71.255497 166.922522 
L 76.952004 166.931041 
L 82.64851 166.941434 
L 88.344909 166.953734 
L 94.041372 166.967909 
L 99.737835 166.983992 
L 105.434298 167.001949 
L 111.130762 167.02178 
L 116.827225 167.043486 
L 122.523688 167.067066 
L 128.220151 167.09252 
L 133.916593 167.119849 
L 139.613056 167.149052 
L 145.30952 167.180128 
L 151.005983 167.213046 
L 156.702446 167.247805 
L 156.702446 30.514375 
L 158.145557 34.847014 
L 159.588646 39.420924 
L 161.031756 44.247148 
L 162.474867 49.335173 
L 163.917956 54.692034 
L 165.361067 60.320875 
L 166.804177 66.218996 
L 168.247266 72.375377 
L 169.690377 78.767587 
L 171.133488 85.357936 
L 172.576577 92.089655 
L 174.019688 98.883199 
L 175.462798 105.634417 
L 176.905887 112.216145 
L 178.348998 118.484748 
L 179.792109 124.293557 
L 181.235198 129.511276 
L 182.678308 134.041535 
L 184.121419 137.837912 
L 185.564508 140.908364 
L 187.007619 143.308187 
L 188.450729 145.124923 
L 189.893818 146.460813 
L 191.336929 147.417686 
L 192.78004 148.087109 
L 194.223129 148.545614 
L 195.666239 148.853628 
L 197.10935 149.056866 
L 198.552439 149.188732 
L 199.99555 149.272955 
L 201.43866 149.325896 
L 202.881749 149.358701 
L 204.32486 149.378702 
L 205.767971 149.390776 
L 207.21106 149.397907 
L 208.65417 149.40212 
L 210.097281 149.404508 
L 211.54037 149.405901 
L 212.983481 149.406664 
L 214.426591 149.407095 
L 215.86968 149.407327 
L 217.312791 149.40746 
L 218.755902 149.407526 
L 220.198991 149.40756 
L 221.642101 149.40756 
L 223.085212 149.407593 
L 224.528301 149.407593 
L 225.971412 149.407593 
L 227.414522 149.407593 
L 228.857611 149.407593 
L 230.300722 149.407593 
L 231.743833 149.407593 
L 233.186922 149.407593 
L 234.630032 149.407593 
L 236.073143 149.407593 
L 237.516232 149.407593 
L 238.959343 149.407593 
L 240.402453 149.407593 
L 241.845542 149.407593 
L 243.288653 149.407593 
L 244.731764 149.407593 
L 246.174853 149.407593 
L 247.617963 149.407593 
L 249.061074 149.407593 
L 250.504163 149.407593 
L 251.947274 149.407593 
L 253.390384 149.407593 
L 254.833473 149.407593 
L 256.276584 149.407593 
L 257.719695 149.407593 
L 259.162784 149.407593 
L 260.605894 149.407593 
L 262.049005 149.407593 
L 263.492094 149.407593 
L 264.935205 149.407593 
L 266.378315 149.407593 
L 267.821404 149.407593 
L 269.264515 149.407593 
L 270.707626 149.407593 
L 272.150715 149.407593 
L 273.593825 149.407593 
L 275.036936 149.407593 
L 276.480025 149.407593 
L 277.923136 149.407593 
L 279.36624 149.407593 
L 280.809342 149.407593 
L 282.252446 149.407593 
L 283.69555 149.407593 
L 285.138652 149.407593 
L 286.581756 149.407593 
L 288.024861 149.407593 
L 289.467963 149.407593 
L 290.911067 149.407593 
L 292.354171 149.407593 
L 293.797273 149.407593 
L 295.240377 149.407593 
L 296.683481 149.407593 
L 298.126584 149.407593 
L 299.569688 149.407593 
" style="fill:none;stroke:#2ca02c;stroke-linecap:square;"/>
   </g>
   <g id="line2d_19">
    <path clip-path="url(#pa9136c6614)" d="M 48.469688 202.838893 
L 54.166194 202.839184 
L 59.862701 202.840025 
L 65.558991 202.841447 
L 71.255497 202.843418 
L 76.952004 202.845939 
L 82.64851 202.849009 
L 88.344909 202.852661 
L 94.041372 202.856863 
L 99.737835 202.861646 
L 105.434298 202.866979 
L 111.130762 202.872893 
L 116.827225 202.879325 
L 122.523688 202.886338 
L 128.220151 202.893933 
L 133.916593 202.902077 
L 139.613056 202.91077 
L 145.30952 202.920046 
L 151.005983 202.929838 
L 156.702446 202.940244 
L 156.702446 30.514375 
L 158.145557 31.857178 
L 159.588646 33.223219 
L 161.031756 34.612907 
L 162.474867 36.026615 
L 163.917956 37.46468 
L 165.361067 38.927434 
L 166.804177 40.415247 
L 168.247266 41.928448 
L 169.690377 43.467331 
L 171.133488 45.032188 
L 172.576577 46.623307 
L 174.019688 48.240873 
L 175.462798 49.885172 
L 176.905887 51.556349 
L 178.348998 53.254512 
L 179.792109 54.979803 
L 181.235198 56.732223 
L 182.678308 58.511774 
L 184.121419 60.318349 
L 185.564508 62.151809 
L 187.007619 64.011909 
L 188.450729 65.898336 
L 189.893818 67.810602 
L 191.336929 69.748222 
L 192.78004 71.710504 
L 194.223129 73.696689 
L 195.666239 75.705779 
L 197.10935 77.736677 
L 198.552439 79.788151 
L 199.99555 81.858698 
L 201.43866 83.946686 
L 202.881749 86.050213 
L 204.32486 88.167283 
L 205.767971 90.295497 
L 207.21106 92.432364 
L 208.65417 94.575061 
L 210.097281 96.720541 
L 211.54037 98.865562 
L 212.983481 101.006524 
L 214.426591 103.139707 
L 215.86968 105.261098 
L 217.312791 107.366533 
L 218.755902 109.451628 
L 220.198991 111.511914 
L 221.642101 113.542737 
L 223.085212 115.53946 
L 224.528301 117.497395 
L 225.971412 119.411937 
L 227.414522 121.278564 
L 228.857611 123.093001 
L 230.300722 124.851119 
L 231.743833 126.549168 
L 233.186922 128.183676 
L 234.630032 129.751742 
L 236.073143 131.250804 
L 237.516232 132.678838 
L 238.959343 134.034384 
L 240.402453 135.316514 
L 241.845542 136.524829 
L 243.288653 137.659558 
L 244.731764 138.72132 
L 246.174853 139.71136 
L 247.617963 140.631278 
L 249.061074 141.4831 
L 250.504163 142.269271 
L 251.947274 142.992394 
L 253.390384 143.65543 
L 254.833473 144.261461 
L 256.276584 144.813728 
L 257.719695 145.315466 
L 259.162784 145.769999 
L 260.605894 146.180648 
L 262.049005 146.550628 
L 263.492094 146.883082 
L 264.935205 147.181083 
L 266.378315 147.447534 
L 267.821404 147.685169 
L 269.264515 147.896621 
L 270.707626 148.084321 
L 272.150715 148.250597 
L 273.593825 148.397481 
L 275.036936 148.526965 
L 276.480025 148.640847 
L 277.923136 148.740754 
L 279.36624 148.828114 
L 280.809342 148.904357 
L 282.252446 148.97061 
L 283.69555 149.027971 
L 285.138652 149.077435 
L 286.581756 149.119831 
L 288.024861 149.155924 
L 289.467963 149.18631 
L 290.911067 149.211554 
L 292.354171 149.232187 
L 293.797273 149.248541 
L 295.240377 149.260947 
L 296.683481 149.269638 
L 298.126584 149.274813 
L 299.569688 149.276504 
" style="fill:none;stroke:#d62728;stroke-linecap:square;"/>
   </g>
   <g id="line2d_20">
    <path clip-path="url(#pa9136c6614)" d="M 48.469688 257.314375 
L 54.166194 257.314375 
L 59.862701 257.314375 
L 65.558991 257.314375 
L 71.255497 257.314375 
L 76.952004 257.314375 
L 82.64851 257.314375 
L 88.344909 257.314375 
L 94.041372 257.314375 
L 99.737835 257.314375 
L 105.434298 257.314375 
L 111.130762 257.314375 
L 116.827225 257.314375 
L 122.523688 257.314375 
L 128.220151 257.314375 
L 133.916593 257.314375 
L 139.613056 257.314375 
L 145.30952 257.314375 
L 151.005983 257.314375 
L 156.702446 257.314375 
L 156.702446 62.745474 
L 158.145557 62.745612 
L 159.588646 62.74582 
L 161.031756 62.746131 
L 162.474867 62.746546 
L 163.917956 62.74703 
L 165.361067 62.747583 
L 166.804177 62.748239 
L 168.247266 62.748965 
L 169.690377 62.749795 
L 171.133488 62.750694 
L 172.576577 62.751697 
L 174.019688 62.752768 
L 175.462798 62.753909 
L 176.905887 62.755119 
L 178.348998 62.756433 
L 179.792109 62.757816 
L 181.235198 62.759268 
L 182.678308 62.760789 
L 184.121419 62.762413 
L 185.564508 62.764073 
L 187.007619 62.765801 
L 188.450729 62.767634 
L 189.893818 62.7695 
L 191.336929 62.771436 
L 192.78004 62.773441 
L 194.223129 62.775481 
L 195.666239 62.77759 
L 197.10935 62.779768 
L 198.552439 62.782015 
L 199.99555 62.784262 
L 201.43866 62.786613 
L 202.881749 62.788964 
L 204.32486 62.791383 
L 205.767971 62.793838 
L 207.21106 62.796362 
L 208.65417 62.798885 
L 210.097281 62.801478 
L 211.54037 62.804071 
L 212.983481 62.806698 
L 214.426591 62.80936 
L 215.86968 62.812056 
L 217.312791 62.814753 
L 218.755902 62.817484 
L 220.198991 62.820215 
L 221.642101 62.82298 
L 223.085212 62.825746 
L 224.528301 62.828511 
L 225.971412 62.831312 
L 227.414522 62.834077 
L 228.857611 62.836877 
L 230.300722 62.839643 
L 231.743833 62.842408 
L 233.186922 62.845208 
L 234.630032 62.847939 
L 236.073143 62.850705 
L 237.516232 62.853436 
L 238.959343 62.856132 
L 240.402453 62.858829 
L 241.845542 62.86149 
L 243.288653 62.864118 
L 244.731764 62.86671 
L 246.174853 62.869303 
L 247.617963 62.871827 
L 249.061074 62.87435 
L 250.504163 62.876804 
L 251.947274 62.879224 
L 253.390384 62.881609 
L 254.833473 62.883926 
L 256.276584 62.886207 
L 257.719695 62.888419 
L 259.162784 62.890597 
L 260.605894 62.892741 
L 262.049005 62.89478 
L 263.492094 62.896785 
L 264.935205 62.898721 
L 266.378315 62.900622 
L 267.821404 62.90242 
L 269.264515 62.904148 
L 270.707626 62.905842 
L 272.150715 62.907432 
L 273.593825 62.908988 
L 275.036936 62.91044 
L 276.480025 62.911822 
L 277.923136 62.913101 
L 279.36624 62.914346 
L 280.809342 62.915486 
L 282.252446 62.916558 
L 283.69555 62.917561 
L 285.138652 62.918459 
L 286.581756 62.919254 
L 288.024861 62.920015 
L 289.467963 62.920672 
L 290.911067 62.921225 
L 292.354171 62.921709 
L 293.797273 62.922089 
L 295.240377 62.9224 
L 296.683481 62.922607 
L 298.126584 62.922746 
L 299.569688 62.92278 
" style="fill:none;stroke:#9467bd;stroke-linecap:square;"/>
   </g>
   <g id="line2d_21">
    <path clip-path="url(#pa9136c6614)" d="M 156.702446 268.654375 
L 156.702446 19.174375 
" style="fill:none;stroke:#000000;stroke-dasharray:0.8,1.32;stroke-dashoffset:0;stroke-width:0.8;"/>
   </g>
   <g id="patch_3">
    <path d="M 48.469688 268.654375 
L 48.469688 19.174375 
" style="fill:none;stroke:#000000;stroke-linecap:square;stroke-linejoin:miter;stroke-width:0.8;"/>
   </g>
   <g id="patch_4">
    <path d="M 299.569688 268.654375 
L 299.569688 19.174375 
" style="fill:none;stroke:#000000;stroke-linecap:square;stroke-linejoin:miter;stroke-width:0.8;"/>
   </g>
   <g id="patch_5">
    <path d="M 48.469688 268.654375 
L 299.569688 268.654375 
" style="fill:none;stroke:#000000;stroke-linecap:square;stroke-linejoin:miter;stroke-width:0.8;"/>
   </g>
   <g id="patch_6">
    <path d="M 48.469688 19.174375 
L 299.569688 19.174375 
" style="fill:none;stroke:#000000;stroke-linecap:square;stroke-linejoin:miter;stroke-width:0.8;"/>
   </g>
   <g id="text_18">
    <!-- $\gamma$ -->
    <defs>
     <path d="M 23.296875 46.09375 
L 28.71875 12.3125 
L 54 54.6875 
L 63.53125 54.6875 
L 30.8125 0 
L 26.765625 -20.796875 
L 17.78125 -20.796875 
L 21.828125 0 
L 15.4375 40.828125 
Q 14.453125 46.96875 9.8125 46.96875 
L 7.421875 46.96875 
L 8.890625 54.6875 
L 12.3125 54.6875 
Q 21.921875 54.6875 23.296875 46.09375 
z
" id="DejaVuSans-Oblique-3b3"/>
    </defs>
    <g transform="translate(224.536067 15.654375)scale(0.12 -0.12)">
     <use transform="translate(0 0.3125)" xlink:href="#DejaVuSans-Oblique-3b3"/>
    </g>
   </g>
   <g id="text_19">
    <!-- $\alpha' + \theta$ -->
    <defs>
     <path d="M 40.921875 25.4375 
L 40.96875 36.71875 
Q 41.015625 48.25 32.328125 48.296875 
Q 25.828125 48.34375 21.78125 42.921875 
Q 16.703125 36.234375 14.984375 27.296875 
Q 12.890625 16.546875 15.53125 11.421875 
Q 18.265625 6.203125 24.171875 6.203125 
Q 30.71875 6.203125 36.234375 16.609375 
z
M 33.84375 55.90625 
Q 49.078125 56.15625 48.875 40.375 
Q 48.875 40.375 56.5 54.6875 
L 64.5 54.6875 
L 48.734375 25.046875 
L 48.578125 14.359375 
Q 48.578125 11.96875 49.90625 9.96875 
Q 51.421875 7.625 52.984375 7.625 
L 57.328125 7.625 
L 55.859375 0 
L 50.4375 0 
Q 45.84375 0 42.53125 4.109375 
Q 40.96875 6.15625 40.921875 10.453125 
Q 37.75 5.21875 32.28125 0.78125 
Q 29.6875 -1.265625 22.703125 -1.21875 
Q 11.28125 -1.125 7.125 6.203125 
Q 2.875 13.8125 5.515625 27.296875 
Q 8.34375 41.796875 15.765625 48.390625 
Q 24.125 55.765625 33.84375 55.90625 
z
" id="DejaVuSans-Oblique-3b1"/>
     <path d="M 3.515625 5.421875 
Q 2.875 5.609375 2.875 6.390625 
L 15.09375 51.8125 
Q 15.671875 53.65625 17.078125 54.78125 
Q 18.5 55.90625 20.3125 55.90625 
Q 22.65625 55.90625 24.4375 54.359375 
Q 26.21875 52.828125 26.21875 50.484375 
Q 26.21875 49.46875 25.6875 48.1875 
L 7.625 4.984375 
Q 7.28125 4.296875 6.6875 4.296875 
Q 6.15625 4.296875 5 4.78125 
Q 3.859375 5.28125 3.515625 5.421875 
z
" id="Cmsy10-30"/>
     <path d="M 46 62.703125 
L 46 35.5 
L 73.1875 35.5 
L 73.1875 27.203125 
L 46 27.203125 
L 46 0 
L 37.796875 0 
L 37.796875 27.203125 
L 10.59375 27.203125 
L 10.59375 35.5 
L 37.796875 35.5 
L 37.796875 62.703125 
z
" id="DejaVuSans-2b"/>
     <path d="M 45.515625 34.671875 
L 14.453125 34.671875 
Q 12.359375 20.0625 14.5 13.875 
Q 17.1875 6.25 24.46875 6.25 
Q 31.78125 6.25 37.359375 13.921875 
Q 42.234375 20.65625 45.515625 34.671875 
z
M 47.015625 42.96875 
Q 48.34375 56.84375 46.625 61.71875 
Q 43.953125 69.4375 36.765625 69.4375 
Q 29.296875 69.4375 23.828125 61.8125 
Q 19.53125 55.671875 16.15625 42.96875 
z
M 38.1875 76.765625 
Q 49.90625 76.765625 54.59375 66.40625 
Q 59.28125 56.109375 55.71875 37.84375 
Q 52.203125 19.625 43.453125 9.28125 
Q 34.765625 -1.125 23.046875 -1.125 
Q 11.28125 -1.125 6.640625 9.28125 
Q 2 19.625 5.515625 37.84375 
Q 9.078125 56.109375 17.71875 66.40625 
Q 26.421875 76.765625 38.1875 76.765625 
z
" id="DejaVuSans-Oblique-3b8"/>
    </defs>
    <g transform="translate(85.966067 15.789375)scale(0.12 -0.12)">
     <use transform="translate(0 0.584375)" xlink:href="#DejaVuSans-Oblique-3b1"/>
     <use transform="translate(70.58974 38.865625)scale(0.7)" xlink:href="#Cmsy10-30"/>
     <use transform="translate(112.049701 0.584375)" xlink:href="#DejaVuSans-2b"/>
     <use transform="translate(215.321185 0.584375)" xlink:href="#DejaVuSans-Oblique-3b8"/>
    </g>
   </g>
   <g id="legend_1">
    <g id="patch_7">
     <path d="M 188.81375 262.154375 
L 293.069688 262.154375 
L 293.069688 166.309844 
L 188.81375 166.309844 
z
" style="fill:#ffffff;opacity:0.8;stroke:#cccccc;stroke-linejoin:miter;"/>
    </g>
    <g id="line2d_22">
     <path d="M 194.01375 176.265 
L 220.01375 176.265 
" style="fill:none;stroke:#1f77b4;stroke-linecap:square;"/>
    </g>
    <g id="line2d_23"/>
    <g id="text_20">
     <!-- t = 0.1 s -->
     <defs>
      <path d="M 25.78125 7.859375 
L 27.046875 0.09375 
Q 23.34375 -0.6875 20.40625 -0.6875 
Q 15.625 -0.6875 12.984375 0.828125 
Q 10.359375 2.34375 9.28125 4.8125 
Q 8.203125 7.28125 8.203125 15.1875 
L 8.203125 45.015625 
L 1.765625 45.015625 
L 1.765625 51.859375 
L 8.203125 51.859375 
L 8.203125 64.703125 
L 16.9375 69.96875 
L 16.9375 51.859375 
L 25.78125 51.859375 
L 25.78125 45.015625 
L 16.9375 45.015625 
L 16.9375 14.703125 
Q 16.9375 10.9375 17.40625 9.859375 
Q 17.875 8.796875 18.921875 8.15625 
Q 19.96875 7.515625 21.921875 7.515625 
Q 23.390625 7.515625 25.78125 7.859375 
z
" id="ArialMT-74"/>
      <path d="M 52.828125 42.09375 
L 5.5625 42.09375 
L 5.5625 50.296875 
L 52.828125 50.296875 
z
M 52.828125 20.359375 
L 5.5625 20.359375 
L 5.5625 28.5625 
L 52.828125 28.5625 
z
" id="ArialMT-3d"/>
     </defs>
     <g transform="translate(230.41375 180.815)scale(0.13 -0.13)">
      <use xlink:href="#ArialMT-74"/>
      <use x="27.783203" xlink:href="#ArialMT-20"/>
      <use x="55.566406" xlink:href="#ArialMT-3d"/>
      <use x="113.964844" xlink:href="#ArialMT-20"/>
      <use x="141.748047" xlink:href="#ArialMT-30"/>
      <use x="197.363281" xlink:href="#ArialMT-2e"/>
      <use x="225.146484" xlink:href="#ArialMT-31"/>
      <use x="280.761719" xlink:href="#ArialMT-20"/>
      <use x="308.544922" xlink:href="#ArialMT-73"/>
     </g>
    </g>
    <g id="line2d_24">
     <path d="M 194.01375 194.653906 
L 220.01375 194.653906 
" style="fill:none;stroke:#ff7f0e;stroke-linecap:square;"/>
    </g>
    <g id="line2d_25"/>
    <g id="text_21">
     <!-- t = 1 s -->
     <g transform="translate(230.41375 199.203906)scale(0.13 -0.13)">
      <use xlink:href="#ArialMT-74"/>
      <use x="27.783203" xlink:href="#ArialMT-20"/>
      <use x="55.566406" xlink:href="#ArialMT-3d"/>
      <use x="113.964844" xlink:href="#ArialMT-20"/>
      <use x="141.748047" xlink:href="#ArialMT-31"/>
      <use x="197.363281" xlink:href="#ArialMT-20"/>
      <use x="225.146484" xlink:href="#ArialMT-73"/>
     </g>
    </g>
    <g id="line2d_26">
     <path d="M 194.01375 213.042813 
L 220.01375 213.042813 
" style="fill:none;stroke:#2ca02c;stroke-linecap:square;"/>
    </g>
    <g id="line2d_27"/>
    <g id="text_22">
     <!-- t = 10 s -->
     <g transform="translate(230.41375 217.592813)scale(0.13 -0.13)">
      <use xlink:href="#ArialMT-74"/>
      <use x="27.783203" xlink:href="#ArialMT-20"/>
      <use x="55.566406" xlink:href="#ArialMT-3d"/>
      <use x="113.964844" xlink:href="#ArialMT-20"/>
      <use x="141.748047" xlink:href="#ArialMT-31"/>
      <use x="197.363281" xlink:href="#ArialMT-30"/>
      <use x="252.978516" xlink:href="#ArialMT-20"/>
      <use x="280.761719" xlink:href="#ArialMT-73"/>
     </g>
    </g>
    <g id="line2d_28">
     <path d="M 194.01375 231.431719 
L 220.01375 231.431719 
" style="fill:none;stroke:#d62728;stroke-linecap:square;"/>
    </g>
    <g id="line2d_29"/>
    <g id="text_23">
     <!-- t = 100 s -->
     <g transform="translate(230.41375 235.981719)scale(0.13 -0.13)">
      <use xlink:href="#ArialMT-74"/>
      <use x="27.783203" xlink:href="#ArialMT-20"/>
      <use x="55.566406" xlink:href="#ArialMT-3d"/>
      <use x="113.964844" xlink:href="#ArialMT-20"/>
      <use x="141.748047" xlink:href="#ArialMT-31"/>
      <use x="197.363281" xlink:href="#ArialMT-30"/>
      <use x="252.978516" xlink:href="#ArialMT-30"/>
      <use x="308.59375" xlink:href="#ArialMT-20"/>
      <use x="336.376953" xlink:href="#ArialMT-73"/>
     </g>
    </g>
    <g id="line2d_30">
     <path d="M 194.01375 249.820625 
L 220.01375 249.820625 
" style="fill:none;stroke:#9467bd;stroke-linecap:square;"/>
    </g>
    <g id="line2d_31"/>
    <g id="text_24">
     <!-- t = 1000 s -->
     <g transform="translate(230.41375 254.370625)scale(0.13 -0.13)">
      <use xlink:href="#ArialMT-74"/>
      <use x="27.783203" xlink:href="#ArialMT-20"/>
      <use x="55.566406" xlink:href="#ArialMT-3d"/>
      <use x="113.964844" xlink:href="#ArialMT-20"/>
      <use x="141.748047" xlink:href="#ArialMT-31"/>
      <use x="197.363281" xlink:href="#ArialMT-30"/>
      <use x="252.978516" xlink:href="#ArialMT-30"/>
      <use x="308.59375" xlink:href="#ArialMT-30"/>
      <use x="364.208984" xlink:href="#ArialMT-20"/>
      <use x="391.992188" xlink:href="#ArialMT-73"/>
     </g>
    </g>
   </g>
  </g>
 </g>
 <defs>
  <clipPath id="pa9136c6614">
   <rect height="249.48" width="251.1" x="48.469688" y="19.174375"/>
  </clipPath>
 </defs>
</svg>
