<?xml version="1.0" encoding="utf-8" standalone="no"?>
<!DOCTYPE svg PUBLIC "-//W3C//DTD SVG 1.1//EN"
  "http://www.w3.org/Graphics/SVG/1.1/DTD/svg11.dtd">
<!-- Created with matplotlib (http://matplotlib.org/) -->
<svg height="338pt" version="1.1" viewBox="0 0 340 338" width="340pt" xmlns="http://www.w3.org/2000/svg" xmlns:xlink="http://www.w3.org/1999/xlink">
 <defs>
  <style type="text/css">
*{stroke-linecap:butt;stroke-linejoin:round;}
  </style>
 </defs>
 <g id="figure_1">
  <g id="patch_1">
   <path d="M 0 338.662969 
L 340.243437 338.662969 
L 340.243437 0 
L 0 0 
z
" style="fill:#ffffff;"/>
  </g>
  <g id="axes_1">
   <g id="patch_2">
    <path d="M 45.008438 296.374375 
L 324.008438 296.374375 
L 324.008438 19.174375 
L 45.008438 19.174375 
z
" style="fill:#ffffff;"/>
   </g>
   <g id="matplotlib.axis_1">
    <g id="xtick_1">
     <g id="line2d_1">
      <defs>
       <path d="M 0 0 
L 0 3.5 
" id="m9ed88d0156" style="stroke:#000000;stroke-width:0.8;"/>
      </defs>
      <g>
       <use style="stroke:#000000;stroke-width:0.8;" x="83.491196" xlink:href="#m9ed88d0156" y="296.374375"/>
      </g>
     </g>
     <g id="text_1">
      <!-- −1.0 -->
      <defs>
       <path d="M 52.828125 31.203125 
L 5.5625 31.203125 
L 5.5625 39.40625 
L 52.828125 39.40625 
z
" id="ArialMT-2212"/>
       <path d="M 37.25 0 
L 28.46875 0 
L 28.46875 56 
Q 25.296875 52.984375 20.140625 49.953125 
Q 14.984375 46.921875 10.890625 45.40625 
L 10.890625 53.90625 
Q 18.265625 57.375 23.78125 62.296875 
Q 29.296875 67.234375 31.59375 71.875 
L 37.25 71.875 
z
" id="ArialMT-31"/>
       <path d="M 9.078125 0 
L 9.078125 10.015625 
L 19.09375 10.015625 
L 19.09375 0 
z
" id="ArialMT-2e"/>
       <path d="M 4.15625 35.296875 
Q 4.15625 48 6.765625 55.734375 
Q 9.375 63.484375 14.515625 67.671875 
Q 19.671875 71.875 27.484375 71.875 
Q 33.25 71.875 37.59375 69.546875 
Q 41.9375 67.234375 44.765625 62.859375 
Q 47.609375 58.5 49.21875 52.21875 
Q 50.828125 45.953125 50.828125 35.296875 
Q 50.828125 22.703125 48.234375 14.96875 
Q 45.65625 7.234375 40.5 3 
Q 35.359375 -1.21875 27.484375 -1.21875 
Q 17.140625 -1.21875 11.234375 6.203125 
Q 4.15625 15.140625 4.15625 35.296875 
z
M 13.1875 35.296875 
Q 13.1875 17.671875 17.3125 11.828125 
Q 21.4375 6 27.484375 6 
Q 33.546875 6 37.671875 11.859375 
Q 41.796875 17.71875 41.796875 35.296875 
Q 41.796875 52.984375 37.671875 58.78125 
Q 33.546875 64.59375 27.390625 64.59375 
Q 21.34375 64.59375 17.71875 59.46875 
Q 13.1875 52.9375 13.1875 35.296875 
z
" id="ArialMT-30"/>
      </defs>
      <g transform="translate(70.65979 312.679531)scale(0.13 -0.13)">
       <use xlink:href="#ArialMT-2212"/>
       <use x="58.398438" xlink:href="#ArialMT-31"/>
       <use x="114.013672" xlink:href="#ArialMT-2e"/>
       <use x="141.796875" xlink:href="#ArialMT-30"/>
      </g>
     </g>
    </g>
    <g id="xtick_2">
     <g id="line2d_2">
      <g>
       <use style="stroke:#000000;stroke-width:0.8;" x="131.594644" xlink:href="#m9ed88d0156" y="296.374375"/>
      </g>
     </g>
     <g id="text_2">
      <!-- −0.8 -->
      <defs>
       <path d="M 17.671875 38.8125 
Q 12.203125 40.828125 9.5625 44.53125 
Q 6.9375 48.25 6.9375 53.421875 
Q 6.9375 61.234375 12.546875 66.546875 
Q 18.171875 71.875 27.484375 71.875 
Q 36.859375 71.875 42.578125 66.421875 
Q 48.296875 60.984375 48.296875 53.171875 
Q 48.296875 48.1875 45.671875 44.5 
Q 43.0625 40.828125 37.75 38.8125 
Q 44.34375 36.671875 47.78125 31.875 
Q 51.21875 27.09375 51.21875 20.453125 
Q 51.21875 11.28125 44.71875 5.03125 
Q 38.234375 -1.21875 27.640625 -1.21875 
Q 17.046875 -1.21875 10.546875 5.046875 
Q 4.046875 11.328125 4.046875 20.703125 
Q 4.046875 27.6875 7.59375 32.390625 
Q 11.140625 37.109375 17.671875 38.8125 
z
M 15.921875 53.71875 
Q 15.921875 48.640625 19.1875 45.40625 
Q 22.46875 42.1875 27.6875 42.1875 
Q 32.765625 42.1875 36.015625 45.375 
Q 39.265625 48.578125 39.265625 53.21875 
Q 39.265625 58.0625 35.90625 61.359375 
Q 32.5625 64.65625 27.59375 64.65625 
Q 22.5625 64.65625 19.234375 61.421875 
Q 15.921875 58.203125 15.921875 53.71875 
z
M 13.09375 20.65625 
Q 13.09375 16.890625 14.875 13.375 
Q 16.65625 9.859375 20.171875 7.921875 
Q 23.6875 6 27.734375 6 
Q 34.03125 6 38.125 10.046875 
Q 42.234375 14.109375 42.234375 20.359375 
Q 42.234375 26.703125 38.015625 30.859375 
Q 33.796875 35.015625 27.4375 35.015625 
Q 21.234375 35.015625 17.15625 30.90625 
Q 13.09375 26.8125 13.09375 20.65625 
z
" id="ArialMT-38"/>
      </defs>
      <g transform="translate(118.763238 312.679531)scale(0.13 -0.13)">
       <use xlink:href="#ArialMT-2212"/>
       <use x="58.398438" xlink:href="#ArialMT-30"/>
       <use x="114.013672" xlink:href="#ArialMT-2e"/>
       <use x="141.796875" xlink:href="#ArialMT-38"/>
      </g>
     </g>
    </g>
    <g id="xtick_3">
     <g id="line2d_3">
      <g>
       <use style="stroke:#000000;stroke-width:0.8;" x="179.698093" xlink:href="#m9ed88d0156" y="296.374375"/>
      </g>
     </g>
     <g id="text_3">
      <!-- −0.6 -->
      <defs>
       <path d="M 49.75 54.046875 
L 41.015625 53.375 
Q 39.84375 58.546875 37.703125 60.890625 
Q 34.125 64.65625 28.90625 64.65625 
Q 24.703125 64.65625 21.53125 62.3125 
Q 17.390625 59.28125 14.984375 53.46875 
Q 12.59375 47.65625 12.5 36.921875 
Q 15.671875 41.75 20.265625 44.09375 
Q 24.859375 46.4375 29.890625 46.4375 
Q 38.671875 46.4375 44.84375 39.96875 
Q 51.03125 33.5 51.03125 23.25 
Q 51.03125 16.5 48.125 10.71875 
Q 45.21875 4.9375 40.140625 1.859375 
Q 35.0625 -1.21875 28.609375 -1.21875 
Q 17.625 -1.21875 10.6875 6.859375 
Q 3.765625 14.9375 3.765625 33.5 
Q 3.765625 54.25 11.421875 63.671875 
Q 18.109375 71.875 29.4375 71.875 
Q 37.890625 71.875 43.28125 67.140625 
Q 48.6875 62.40625 49.75 54.046875 
z
M 13.875 23.1875 
Q 13.875 18.65625 15.796875 14.5 
Q 17.71875 10.359375 21.1875 8.171875 
Q 24.65625 6 28.46875 6 
Q 34.03125 6 38.03125 10.484375 
Q 42.046875 14.984375 42.046875 22.703125 
Q 42.046875 30.125 38.078125 34.390625 
Q 34.125 38.671875 28.125 38.671875 
Q 22.171875 38.671875 18.015625 34.390625 
Q 13.875 30.125 13.875 23.1875 
z
" id="ArialMT-36"/>
      </defs>
      <g transform="translate(166.866686 312.679531)scale(0.13 -0.13)">
       <use xlink:href="#ArialMT-2212"/>
       <use x="58.398438" xlink:href="#ArialMT-30"/>
       <use x="114.013672" xlink:href="#ArialMT-2e"/>
       <use x="141.796875" xlink:href="#ArialMT-36"/>
      </g>
     </g>
    </g>
    <g id="xtick_4">
     <g id="line2d_4">
      <g>
       <use style="stroke:#000000;stroke-width:0.8;" x="227.801541" xlink:href="#m9ed88d0156" y="296.374375"/>
      </g>
     </g>
     <g id="text_4">
      <!-- −0.4 -->
      <defs>
       <path d="M 32.328125 0 
L 32.328125 17.140625 
L 1.265625 17.140625 
L 1.265625 25.203125 
L 33.9375 71.578125 
L 41.109375 71.578125 
L 41.109375 25.203125 
L 50.78125 25.203125 
L 50.78125 17.140625 
L 41.109375 17.140625 
L 41.109375 0 
z
M 32.328125 25.203125 
L 32.328125 57.46875 
L 9.90625 25.203125 
z
" id="ArialMT-34"/>
      </defs>
      <g transform="translate(214.970135 312.679531)scale(0.13 -0.13)">
       <use xlink:href="#ArialMT-2212"/>
       <use x="58.398438" xlink:href="#ArialMT-30"/>
       <use x="114.013672" xlink:href="#ArialMT-2e"/>
       <use x="141.796875" xlink:href="#ArialMT-34"/>
      </g>
     </g>
    </g>
    <g id="xtick_5">
     <g id="line2d_5">
      <g>
       <use style="stroke:#000000;stroke-width:0.8;" x="275.904989" xlink:href="#m9ed88d0156" y="296.374375"/>
      </g>
     </g>
     <g id="text_5">
      <!-- −0.2 -->
      <defs>
       <path d="M 50.34375 8.453125 
L 50.34375 0 
L 3.03125 0 
Q 2.9375 3.171875 4.046875 6.109375 
Q 5.859375 10.9375 9.828125 15.625 
Q 13.8125 20.3125 21.34375 26.46875 
Q 33.015625 36.03125 37.109375 41.625 
Q 41.21875 47.21875 41.21875 52.203125 
Q 41.21875 57.421875 37.46875 61 
Q 33.734375 64.59375 27.734375 64.59375 
Q 21.390625 64.59375 17.578125 60.78125 
Q 13.765625 56.984375 13.71875 50.25 
L 4.6875 51.171875 
Q 5.609375 61.28125 11.65625 66.578125 
Q 17.71875 71.875 27.9375 71.875 
Q 38.234375 71.875 44.234375 66.15625 
Q 50.25 60.453125 50.25 52 
Q 50.25 47.703125 48.484375 43.546875 
Q 46.734375 39.40625 42.65625 34.8125 
Q 38.578125 30.21875 29.109375 22.21875 
Q 21.1875 15.578125 18.9375 13.203125 
Q 16.703125 10.84375 15.234375 8.453125 
z
" id="ArialMT-32"/>
      </defs>
      <g transform="translate(263.073583 312.679531)scale(0.13 -0.13)">
       <use xlink:href="#ArialMT-2212"/>
       <use x="58.398438" xlink:href="#ArialMT-30"/>
       <use x="114.013672" xlink:href="#ArialMT-2e"/>
       <use x="141.796875" xlink:href="#ArialMT-32"/>
      </g>
     </g>
    </g>
    <g id="xtick_6">
     <g id="line2d_6">
      <g>
       <use style="stroke:#000000;stroke-width:0.8;" x="324.008438" xlink:href="#m9ed88d0156" y="296.374375"/>
      </g>
     </g>
     <g id="text_6">
      <!-- 0.0 -->
      <g transform="translate(314.973437 312.679531)scale(0.13 -0.13)">
       <use xlink:href="#ArialMT-30"/>
       <use x="55.615234" xlink:href="#ArialMT-2e"/>
       <use x="83.398438" xlink:href="#ArialMT-30"/>
      </g>
     </g>
    </g>
    <g id="text_7">
     <!-- Posição (µm) -->
     <defs>
      <path d="M 7.71875 0 
L 7.71875 71.578125 
L 34.71875 71.578125 
Q 41.84375 71.578125 45.609375 70.90625 
Q 50.875 70.015625 54.4375 67.546875 
Q 58.015625 65.09375 60.1875 60.640625 
Q 62.359375 56.203125 62.359375 50.875 
Q 62.359375 41.75 56.546875 35.421875 
Q 50.734375 29.109375 35.546875 29.109375 
L 17.1875 29.109375 
L 17.1875 0 
z
M 17.1875 37.546875 
L 35.6875 37.546875 
Q 44.875 37.546875 48.734375 40.96875 
Q 52.59375 44.390625 52.59375 50.59375 
Q 52.59375 55.078125 50.3125 58.265625 
Q 48.046875 61.46875 44.34375 62.5 
Q 41.9375 63.140625 35.5 63.140625 
L 17.1875 63.140625 
z
" id="ArialMT-50"/>
      <path d="M 3.328125 25.921875 
Q 3.328125 40.328125 11.328125 47.265625 
Q 18.015625 53.03125 27.640625 53.03125 
Q 38.328125 53.03125 45.109375 46.015625 
Q 51.90625 39.015625 51.90625 26.65625 
Q 51.90625 16.65625 48.90625 10.90625 
Q 45.90625 5.171875 40.15625 2 
Q 34.421875 -1.171875 27.640625 -1.171875 
Q 16.75 -1.171875 10.03125 5.8125 
Q 3.328125 12.796875 3.328125 25.921875 
z
M 12.359375 25.921875 
Q 12.359375 15.96875 16.703125 11.015625 
Q 21.046875 6.0625 27.640625 6.0625 
Q 34.1875 6.0625 38.53125 11.03125 
Q 42.875 16.015625 42.875 26.21875 
Q 42.875 35.84375 38.5 40.796875 
Q 34.125 45.75 27.640625 45.75 
Q 21.046875 45.75 16.703125 40.8125 
Q 12.359375 35.890625 12.359375 25.921875 
z
" id="ArialMT-6f"/>
      <path d="M 3.078125 15.484375 
L 11.765625 16.84375 
Q 12.5 11.625 15.84375 8.84375 
Q 19.1875 6.0625 25.203125 6.0625 
Q 31.25 6.0625 34.171875 8.515625 
Q 37.109375 10.984375 37.109375 14.3125 
Q 37.109375 17.28125 34.515625 19 
Q 32.71875 20.171875 25.53125 21.96875 
Q 15.875 24.421875 12.140625 26.203125 
Q 8.40625 27.984375 6.46875 31.125 
Q 4.546875 34.28125 4.546875 38.09375 
Q 4.546875 41.546875 6.125 44.5 
Q 7.71875 47.46875 10.453125 49.421875 
Q 12.5 50.921875 16.03125 51.96875 
Q 19.578125 53.03125 23.640625 53.03125 
Q 29.734375 53.03125 34.34375 51.265625 
Q 38.96875 49.515625 41.15625 46.5 
Q 43.359375 43.5 44.1875 38.484375 
L 35.59375 37.3125 
Q 35.015625 41.3125 32.203125 43.546875 
Q 29.390625 45.796875 24.265625 45.796875 
Q 18.21875 45.796875 15.625 43.796875 
Q 13.03125 41.796875 13.03125 39.109375 
Q 13.03125 37.40625 14.109375 36.03125 
Q 15.1875 34.625 17.484375 33.6875 
Q 18.796875 33.203125 25.25 31.453125 
Q 34.578125 28.953125 38.25 27.359375 
Q 41.9375 25.78125 44.03125 22.75 
Q 46.140625 19.734375 46.140625 15.234375 
Q 46.140625 10.84375 43.578125 6.953125 
Q 41.015625 3.078125 36.171875 0.953125 
Q 31.34375 -1.171875 25.25 -1.171875 
Q 15.140625 -1.171875 9.84375 3.03125 
Q 4.546875 7.234375 3.078125 15.484375 
z
" id="ArialMT-73"/>
      <path d="M 6.640625 61.46875 
L 6.640625 71.578125 
L 15.4375 71.578125 
L 15.4375 61.46875 
z
M 6.640625 0 
L 6.640625 51.859375 
L 15.4375 51.859375 
L 15.4375 0 
z
" id="ArialMT-69"/>
      <path d="M 40.4375 19 
L 49.078125 17.875 
Q 47.65625 8.9375 41.8125 3.875 
Q 35.984375 -1.171875 27.484375 -1.171875 
Q 16.84375 -1.171875 10.375 5.78125 
Q 3.90625 12.75 3.90625 25.734375 
Q 3.90625 34.125 6.6875 40.421875 
Q 9.46875 46.734375 15.15625 49.875 
Q 20.84375 53.03125 27.546875 53.03125 
Q 35.984375 53.03125 41.359375 48.75 
Q 46.734375 44.484375 48.25 36.625 
L 39.703125 35.296875 
Q 38.484375 40.53125 35.375 43.15625 
Q 32.28125 45.796875 27.875 45.796875 
Q 21.234375 45.796875 17.078125 41.03125 
Q 12.9375 36.28125 12.9375 25.984375 
Q 12.9375 15.53125 16.9375 10.796875 
Q 20.953125 6.0625 27.390625 6.0625 
Q 32.5625 6.0625 36.03125 9.234375 
Q 39.5 12.40625 40.4375 19 
z
M 20.046875 -6.515625 
L 22.59375 2.125 
L 29.125 2.125 
L 27.515625 -3.109375 
Q 31.671875 -3.59375 33.765625 -5.65625 
Q 35.875 -7.734375 35.875 -10.28125 
Q 35.875 -13.9375 32.359375 -16.75 
Q 28.84375 -19.5625 21.75 -19.5625 
Q 17.75 -19.5625 14.71875 -18.96875 
L 15.265625 -13.265625 
Q 18.390625 -13.453125 19.859375 -13.453125 
Q 24.4375 -13.453125 26.296875 -12.1875 
Q 27.71875 -11.203125 27.71875 -9.796875 
Q 27.71875 -8.90625 27.15625 -8.21875 
Q 26.59375 -7.546875 25.078125 -7.046875 
Q 23.5625 -6.5625 20.046875 -6.515625 
z
" id="ArialMT-e7"/>
      <path d="M 40.4375 6.390625 
Q 35.546875 2.25 31.03125 0.53125 
Q 26.515625 -1.171875 21.34375 -1.171875 
Q 12.796875 -1.171875 8.203125 3 
Q 3.609375 7.171875 3.609375 13.671875 
Q 3.609375 17.484375 5.34375 20.625 
Q 7.078125 23.78125 9.890625 25.6875 
Q 12.703125 27.59375 16.21875 28.5625 
Q 18.796875 29.25 24.03125 29.890625 
Q 34.671875 31.15625 39.703125 32.90625 
Q 39.75 34.71875 39.75 35.203125 
Q 39.75 40.578125 37.25 42.78125 
Q 33.890625 45.75 27.25 45.75 
Q 21.046875 45.75 18.09375 43.578125 
Q 15.140625 41.40625 13.71875 35.890625 
L 5.125 37.0625 
Q 6.296875 42.578125 8.984375 45.96875 
Q 11.671875 49.359375 16.75 51.1875 
Q 21.828125 53.03125 28.515625 53.03125 
Q 35.15625 53.03125 39.296875 51.46875 
Q 43.453125 49.90625 45.40625 47.53125 
Q 47.359375 45.171875 48.140625 41.546875 
Q 48.578125 39.3125 48.578125 33.453125 
L 48.578125 21.734375 
Q 48.578125 9.46875 49.140625 6.21875 
Q 49.703125 2.984375 51.375 0 
L 42.1875 0 
Q 40.828125 2.734375 40.4375 6.390625 
z
M 39.703125 26.03125 
Q 34.90625 24.078125 25.34375 22.703125 
Q 19.921875 21.921875 17.671875 20.9375 
Q 15.4375 19.96875 14.203125 18.09375 
Q 12.984375 16.21875 12.984375 13.921875 
Q 12.984375 10.40625 15.640625 8.0625 
Q 18.3125 5.71875 23.4375 5.71875 
Q 28.515625 5.71875 32.46875 7.9375 
Q 36.421875 10.15625 38.28125 14.015625 
Q 39.703125 17 39.703125 22.796875 
z
M 11.21875 59.515625 
Q 11.171875 64.59375 14 67.625 
Q 16.78125 70.65625 21.125 70.65625 
Q 24.15625 70.65625 29.375 68.015625 
Q 32.265625 66.546875 33.96875 66.546875 
Q 35.53125 66.546875 36.359375 67.40625 
Q 37.1875 68.265625 37.53125 70.796875 
L 43.890625 70.796875 
Q 43.734375 65.234375 41.078125 62.453125 
Q 38.421875 59.671875 34.3125 59.671875 
Q 31.234375 59.671875 26.203125 62.40625 
Q 22.9375 64.15625 21.421875 64.15625 
Q 19.765625 64.15625 18.734375 62.984375 
Q 17.65625 61.8125 17.71875 59.515625 
z
" id="ArialMT-e3"/>
      <path id="ArialMT-20"/>
      <path d="M 23.390625 -21.046875 
Q 16.109375 -11.859375 11.078125 0.4375 
Q 6.0625 12.75 6.0625 25.921875 
Q 6.0625 37.546875 9.8125 48.1875 
Q 14.203125 60.546875 23.390625 72.796875 
L 29.6875 72.796875 
Q 23.78125 62.640625 21.875 58.296875 
Q 18.890625 51.5625 17.1875 44.234375 
Q 15.09375 35.109375 15.09375 25.875 
Q 15.09375 2.390625 29.6875 -21.046875 
z
" id="ArialMT-28"/>
      <path d="M 49.703125 51.859375 
L 49.703125 0 
L 41.84375 0 
L 41.84375 6.15625 
Q 39.3125 2.25 36.8125 0.78125 
Q 33.40625 -1.21875 28.859375 -1.21875 
Q 24.8125 -1.21875 21.6875 0.390625 
Q 19.34375 1.609375 16.5 5.21875 
L 16.5 -19.875 
L 7.8125 -19.875 
L 7.8125 51.859375 
L 16.5 51.859375 
L 16.5 29.890625 
Q 16.5 17.921875 17.765625 14.375 
Q 19.046875 10.84375 21.890625 8.78125 
Q 24.75 6.734375 28.46875 6.734375 
Q 32.375 6.734375 35.453125 8.875 
Q 38.53125 11.03125 39.796875 14.421875 
Q 41.0625 17.828125 41.0625 29.734375 
L 41.0625 51.859375 
z
" id="ArialMT-b5"/>
      <path d="M 6.59375 0 
L 6.59375 51.859375 
L 14.453125 51.859375 
L 14.453125 44.578125 
Q 16.890625 48.390625 20.9375 50.703125 
Q 25 53.03125 30.171875 53.03125 
Q 35.9375 53.03125 39.625 50.640625 
Q 43.3125 48.25 44.828125 43.953125 
Q 50.984375 53.03125 60.84375 53.03125 
Q 68.5625 53.03125 72.703125 48.75 
Q 76.859375 44.484375 76.859375 35.59375 
L 76.859375 0 
L 68.109375 0 
L 68.109375 32.671875 
Q 68.109375 37.9375 67.25 40.25 
Q 66.40625 42.578125 64.15625 43.984375 
Q 61.921875 45.40625 58.890625 45.40625 
Q 53.421875 45.40625 49.796875 41.765625 
Q 46.1875 38.140625 46.1875 30.125 
L 46.1875 0 
L 37.40625 0 
L 37.40625 33.6875 
Q 37.40625 39.546875 35.25 42.46875 
Q 33.109375 45.40625 28.21875 45.40625 
Q 24.515625 45.40625 21.359375 43.453125 
Q 18.21875 41.5 16.796875 37.734375 
Q 15.375 33.984375 15.375 26.90625 
L 15.375 0 
z
" id="ArialMT-6d"/>
      <path d="M 12.359375 -21.046875 
L 6.0625 -21.046875 
Q 20.65625 2.390625 20.65625 25.875 
Q 20.65625 35.0625 18.5625 44.09375 
Q 16.890625 51.421875 13.921875 58.15625 
Q 12.015625 62.546875 6.0625 72.796875 
L 12.359375 72.796875 
Q 21.53125 60.546875 25.921875 48.1875 
Q 29.6875 37.546875 29.6875 25.921875 
Q 29.6875 12.75 24.625 0.4375 
Q 19.578125 -11.859375 12.359375 -21.046875 
z
" id="ArialMT-29"/>
     </defs>
     <g transform="translate(146.090391 328.726875)scale(0.13 -0.13)">
      <use xlink:href="#ArialMT-50"/>
      <use x="66.699219" xlink:href="#ArialMT-6f"/>
      <use x="122.314453" xlink:href="#ArialMT-73"/>
      <use x="172.314453" xlink:href="#ArialMT-69"/>
      <use x="194.53125" xlink:href="#ArialMT-e7"/>
      <use x="244.53125" xlink:href="#ArialMT-e3"/>
      <use x="300.146484" xlink:href="#ArialMT-6f"/>
      <use x="355.761719" xlink:href="#ArialMT-20"/>
      <use x="383.544922" xlink:href="#ArialMT-28"/>
      <use x="416.845703" xlink:href="#ArialMT-b5"/>
      <use x="474.462891" xlink:href="#ArialMT-6d"/>
      <use x="557.763672" xlink:href="#ArialMT-29"/>
     </g>
    </g>
   </g>
   <g id="matplotlib.axis_2">
    <g id="ytick_1">
     <g id="line2d_7">
      <defs>
       <path d="M 0 0 
L -3.5 0 
" id="maaf2de4975" style="stroke:#000000;stroke-width:0.8;"/>
      </defs>
      <g>
       <use style="stroke:#000000;stroke-width:0.8;" x="45.008438" xlink:href="#maaf2de4975" y="289.519706"/>
      </g>
     </g>
     <g id="text_8">
      <!-- 8 -->
      <g transform="translate(30.779219 294.172284)scale(0.13 -0.13)">
       <use xlink:href="#ArialMT-38"/>
      </g>
     </g>
    </g>
    <g id="ytick_2">
     <g id="line2d_8">
      <g>
       <use style="stroke:#000000;stroke-width:0.8;" x="45.008438" xlink:href="#maaf2de4975" y="228.399163"/>
      </g>
     </g>
     <g id="text_9">
      <!-- 10 -->
      <g transform="translate(23.55 233.051741)scale(0.13 -0.13)">
       <use xlink:href="#ArialMT-31"/>
       <use x="55.615234" xlink:href="#ArialMT-30"/>
      </g>
     </g>
    </g>
    <g id="ytick_3">
     <g id="line2d_9">
      <g>
       <use style="stroke:#000000;stroke-width:0.8;" x="45.008438" xlink:href="#maaf2de4975" y="167.278619"/>
      </g>
     </g>
     <g id="text_10">
      <!-- 12 -->
      <g transform="translate(23.55 171.931198)scale(0.13 -0.13)">
       <use xlink:href="#ArialMT-31"/>
       <use x="55.615234" xlink:href="#ArialMT-32"/>
      </g>
     </g>
    </g>
    <g id="ytick_4">
     <g id="line2d_10">
      <g>
       <use style="stroke:#000000;stroke-width:0.8;" x="45.008438" xlink:href="#maaf2de4975" y="106.158076"/>
      </g>
     </g>
     <g id="text_11">
      <!-- 14 -->
      <g transform="translate(23.55 110.810654)scale(0.13 -0.13)">
       <use xlink:href="#ArialMT-31"/>
       <use x="55.615234" xlink:href="#ArialMT-34"/>
      </g>
     </g>
    </g>
    <g id="ytick_5">
     <g id="line2d_11">
      <g>
       <use style="stroke:#000000;stroke-width:0.8;" x="45.008438" xlink:href="#maaf2de4975" y="45.037533"/>
      </g>
     </g>
     <g id="text_12">
      <!-- 16 -->
      <g transform="translate(23.55 49.690111)scale(0.13 -0.13)">
       <use xlink:href="#ArialMT-31"/>
       <use x="55.615234" xlink:href="#ArialMT-36"/>
      </g>
     </g>
    </g>
    <g id="text_13">
     <!-- $\mu_C$ (kJ/mol) -->
     <defs>
      <path d="M -1.3125 -20.796875 
L 13.375 54.6875 
L 22.40625 54.6875 
L 15.765625 20.65625 
Q 15.578125 19.625 15.421875 18.359375 
Q 15.28125 17.09375 15.28125 15.828125 
Q 15.28125 11.28125 18.140625 8.828125 
Q 21 6.390625 26.3125 6.390625 
Q 33.546875 6.390625 37.984375 10.484375 
Q 42.4375 14.59375 44 22.796875 
L 50.203125 54.6875 
L 59.1875 54.6875 
L 51.03125 12.640625 
Q 50.828125 11.71875 50.75 11.03125 
Q 50.6875 10.359375 50.6875 9.8125 
Q 50.6875 8.296875 51.296875 7.59375 
Q 51.90625 6.890625 53.21875 6.890625 
Q 53.71875 6.890625 54.5625 7.125 
Q 55.421875 7.375 56.984375 8.015625 
L 55.609375 0.78125 
Q 53.46875 -0.296875 51.515625 -0.859375 
Q 49.5625 -1.421875 47.703125 -1.421875 
Q 44.484375 -1.421875 42.65625 0.625 
Q 40.828125 2.6875 40.828125 6.296875 
Q 38.09375 2.390625 34.296875 0.484375 
Q 30.515625 -1.421875 25.390625 -1.421875 
Q 20.84375 -1.421875 17.453125 0.671875 
Q 14.0625 2.78125 12.984375 6.203125 
L 7.71875 -20.796875 
z
" id="DejaVuSans-Oblique-3bc"/>
      <path d="M 69.484375 67.28125 
L 67.484375 56.890625 
Q 62.796875 61.625 57.546875 63.921875 
Q 52.296875 66.21875 46.1875 66.21875 
Q 37.84375 66.21875 31.515625 62.203125 
Q 25.203125 58.203125 20.609375 50 
Q 17.671875 44.734375 16.125 38.84375 
Q 14.59375 32.953125 14.59375 27 
Q 14.59375 17.046875 19.75 11.8125 
Q 24.90625 6.59375 34.71875 6.59375 
Q 41.5 6.59375 47.75 8.765625 
Q 54 10.9375 59.90625 15.28125 
L 57.625 3.609375 
Q 51.8125 1.125 45.875 -0.140625 
Q 39.9375 -1.421875 33.984375 -1.421875 
Q 19.96875 -1.421875 12.078125 6.1875 
Q 4.203125 13.8125 4.203125 27.390625 
Q 4.203125 36.078125 7.203125 44.46875 
Q 10.203125 52.875 15.828125 59.8125 
Q 21.78125 67.1875 29.421875 70.703125 
Q 37.0625 74.21875 47.21875 74.21875 
Q 53.46875 74.21875 59.0625 72.484375 
Q 64.65625 70.75 69.484375 67.28125 
z
" id="DejaVuSans-Oblique-43"/>
      <path d="M 6.640625 0 
L 6.640625 71.578125 
L 15.4375 71.578125 
L 15.4375 30.765625 
L 36.234375 51.859375 
L 47.609375 51.859375 
L 27.78125 32.625 
L 49.609375 0 
L 38.765625 0 
L 21.625 26.515625 
L 15.4375 20.5625 
L 15.4375 0 
z
" id="ArialMT-6b"/>
      <path d="M 2.875 20.3125 
L 11.421875 21.484375 
Q 11.765625 13.28125 14.5 10.25 
Q 17.234375 7.234375 22.078125 7.234375 
Q 25.640625 7.234375 28.21875 8.859375 
Q 30.8125 10.5 31.78125 13.296875 
Q 32.765625 16.109375 32.765625 22.265625 
L 32.765625 71.578125 
L 42.234375 71.578125 
L 42.234375 22.796875 
Q 42.234375 13.8125 40.0625 8.875 
Q 37.890625 3.953125 33.171875 1.359375 
Q 28.46875 -1.21875 22.125 -1.21875 
Q 12.703125 -1.21875 7.6875 4.203125 
Q 2.6875 9.625 2.875 20.3125 
z
" id="ArialMT-4a"/>
      <path d="M 0 -1.21875 
L 20.75 72.796875 
L 27.78125 72.796875 
L 7.078125 -1.21875 
z
" id="ArialMT-2f"/>
      <path d="M 6.390625 0 
L 6.390625 71.578125 
L 15.1875 71.578125 
L 15.1875 0 
z
" id="ArialMT-6c"/>
     </defs>
     <g transform="translate(16.69 190.209375)rotate(-90)scale(0.13 -0.13)">
      <use transform="translate(0 0.203125)" xlink:href="#DejaVuSans-Oblique-3bc"/>
      <use transform="translate(63.623047 -16.203125)scale(0.7)" xlink:href="#DejaVuSans-Oblique-43"/>
      <use transform="translate(115.234375 0.203125)" xlink:href="#ArialMT-20"/>
      <use transform="translate(143.017578 0.203125)" xlink:href="#ArialMT-28"/>
      <use transform="translate(176.318359 0.203125)" xlink:href="#ArialMT-6b"/>
      <use transform="translate(226.318359 0.203125)" xlink:href="#ArialMT-4a"/>
      <use transform="translate(276.318359 0.203125)" xlink:href="#ArialMT-2f"/>
      <use transform="translate(304.101562 0.203125)" xlink:href="#ArialMT-6d"/>
      <use transform="translate(387.402344 0.203125)" xlink:href="#ArialMT-6f"/>
      <use transform="translate(443.017578 0.203125)" xlink:href="#ArialMT-6c"/>
      <use transform="translate(465.234375 0.203125)" xlink:href="#ArialMT-29"/>
     </g>
    </g>
   </g>
   <g id="line2d_12">
    <path clip-path="url(#p46821ca634)" d="M 45.008438 283.743815 
L 51.337889 283.743815 
L 57.667341 283.743815 
L 63.996552 283.743815 
L 70.326004 283.743815 
L 76.655456 283.743815 
L 82.984907 283.743815 
L 89.314239 283.743815 
L 95.643642 283.743815 
L 101.973046 283.743815 
L 108.30245 283.743815 
L 114.631853 283.743815 
L 120.961257 283.743815 
L 127.290661 283.743815 
L 133.620064 283.743815 
L 139.949444 283.743815 
L 146.278847 283.743815 
L 152.608251 283.743815 
L 158.937655 283.743815 
L 165.267058 283.743815 
L 165.267058 283.774375 
L 166.870514 63.923781 
L 168.473947 36.052813 
L 170.077403 32.232779 
L 171.680859 31.835496 
L 173.284292 31.804935 
L 174.887748 31.774375 
L 176.491204 31.774375 
L 178.094636 31.774375 
L 179.698093 31.774375 
L 181.301549 31.774375 
L 182.904981 31.774375 
L 184.508438 31.774375 
L 186.111894 31.774375 
L 187.715326 31.774375 
L 189.318782 31.774375 
L 190.922239 31.774375 
L 192.525671 31.774375 
L 194.129127 31.774375 
L 195.732583 31.774375 
L 197.336016 31.774375 
L 198.939472 31.774375 
L 200.542928 31.774375 
L 202.146361 31.774375 
L 203.749817 31.774375 
L 205.353273 31.774375 
L 206.956705 31.774375 
L 208.560162 31.774375 
L 210.163618 31.774375 
L 211.76705 31.774375 
L 213.370506 31.774375 
L 214.973963 31.774375 
L 216.577395 31.774375 
L 218.180851 31.774375 
L 219.784308 31.774375 
L 221.38774 31.774375 
L 222.991196 31.774375 
L 224.594652 31.774375 
L 226.198085 31.774375 
L 227.801541 31.774375 
L 229.404997 31.774375 
L 231.008429 31.774375 
L 232.611886 31.774375 
L 234.215342 31.774375 
L 235.818774 31.774375 
L 237.422231 31.774375 
L 239.025687 31.774375 
L 240.629119 31.774375 
L 242.232575 31.774375 
L 243.836032 31.774375 
L 245.439464 31.774375 
L 247.04292 31.774375 
L 248.646377 31.774375 
L 250.249809 31.774375 
L 251.853265 31.774375 
L 253.456721 31.774375 
L 255.060154 31.774375 
L 256.66361 31.774375 
L 258.267066 31.774375 
L 259.870498 31.774375 
L 261.473955 31.774375 
L 263.077411 31.774375 
L 264.680843 31.774375 
L 266.2843 31.774375 
L 267.887756 31.774375 
L 269.491188 31.774375 
L 271.094644 31.774375 
L 272.698101 31.774375 
L 274.301533 31.774375 
L 275.904989 31.774375 
L 277.508446 31.774375 
L 279.111878 31.774375 
L 280.715334 31.774375 
L 282.31879 31.774375 
L 283.922223 31.774375 
L 285.525679 31.774375 
L 287.129135 31.774375 
L 288.732567 31.774375 
L 290.336024 31.774375 
L 291.93948 31.774375 
L 293.542912 31.774375 
L 295.146369 31.774375 
L 296.749825 31.774375 
L 298.353257 31.774375 
L 299.956713 31.774375 
L 301.560162 31.774375 
L 303.163609 31.774375 
L 304.767058 31.774375 
L 306.370507 31.774375 
L 307.973954 31.774375 
L 309.577403 31.774375 
L 311.180852 31.774375 
L 312.784299 31.774375 
L 314.387748 31.774375 
L 315.991197 31.774375 
L 317.594644 31.774375 
L 319.198093 31.774375 
L 320.801542 31.774375 
L 322.404989 31.774375 
L 324.008438 31.774375 
" style="fill:none;stroke:#1f77b4;stroke-linecap:square;"/>
   </g>
   <g id="line2d_13">
    <path clip-path="url(#p46821ca634)" d="M 45.008438 283.743815 
L 51.337889 283.743815 
L 57.667341 283.743815 
L 63.996552 283.743815 
L 70.326004 283.743815 
L 76.655456 283.743815 
L 82.984907 283.743815 
L 89.314239 283.743815 
L 95.643642 283.743815 
L 101.973046 283.743815 
L 108.30245 283.743815 
L 114.631853 283.743815 
L 120.961257 283.743815 
L 127.290661 283.743815 
L 133.620064 283.743815 
L 139.949444 283.743815 
L 146.278847 283.743815 
L 152.608251 283.743815 
L 158.937655 283.743815 
L 165.267058 283.743815 
L 165.267058 283.774375 
L 166.870514 138.368603 
L 168.473947 83.696277 
L 170.077403 57.10884 
L 171.680859 43.57064 
L 173.284292 36.87794 
L 174.887748 33.821913 
L 176.491204 32.538382 
L 178.094636 32.049417 
L 179.698093 31.866056 
L 181.301549 31.804935 
L 182.904981 31.804935 
L 184.508438 31.804935 
L 186.111894 31.774375 
L 187.715326 31.774375 
L 189.318782 31.774375 
L 190.922239 31.774375 
L 192.525671 31.774375 
L 194.129127 31.774375 
L 195.732583 31.774375 
L 197.336016 31.774375 
L 198.939472 31.774375 
L 200.542928 31.774375 
L 202.146361 31.774375 
L 203.749817 31.774375 
L 205.353273 31.774375 
L 206.956705 31.774375 
L 208.560162 31.774375 
L 210.163618 31.774375 
L 211.76705 31.774375 
L 213.370506 31.774375 
L 214.973963 31.774375 
L 216.577395 31.774375 
L 218.180851 31.774375 
L 219.784308 31.774375 
L 221.38774 31.774375 
L 222.991196 31.774375 
L 224.594652 31.774375 
L 226.198085 31.774375 
L 227.801541 31.774375 
L 229.404997 31.774375 
L 231.008429 31.774375 
L 232.611886 31.774375 
L 234.215342 31.774375 
L 235.818774 31.774375 
L 237.422231 31.774375 
L 239.025687 31.774375 
L 240.629119 31.774375 
L 242.232575 31.774375 
L 243.836032 31.774375 
L 245.439464 31.774375 
L 247.04292 31.774375 
L 248.646377 31.774375 
L 250.249809 31.774375 
L 251.853265 31.774375 
L 253.456721 31.774375 
L 255.060154 31.774375 
L 256.66361 31.774375 
L 258.267066 31.774375 
L 259.870498 31.774375 
L 261.473955 31.774375 
L 263.077411 31.774375 
L 264.680843 31.774375 
L 266.2843 31.774375 
L 267.887756 31.774375 
L 269.491188 31.774375 
L 271.094644 31.774375 
L 272.698101 31.774375 
L 274.301533 31.774375 
L 275.904989 31.774375 
L 277.508446 31.774375 
L 279.111878 31.774375 
L 280.715334 31.774375 
L 282.31879 31.774375 
L 283.922223 31.774375 
L 285.525679 31.774375 
L 287.129135 31.774375 
L 288.732567 31.774375 
L 290.336024 31.774375 
L 291.93948 31.774375 
L 293.542912 31.774375 
L 295.146369 31.774375 
L 296.749825 31.774375 
L 298.353257 31.774375 
L 299.956713 31.774375 
L 301.560162 31.774375 
L 303.163609 31.774375 
L 304.767058 31.774375 
L 306.370507 31.774375 
L 307.973954 31.774375 
L 309.577403 31.774375 
L 311.180852 31.774375 
L 312.784299 31.774375 
L 314.387748 31.774375 
L 315.991197 31.774375 
L 317.594644 31.774375 
L 319.198093 31.774375 
L 320.801542 31.774375 
L 322.404989 31.774375 
L 324.008438 31.774375 
" style="fill:none;stroke:#ff7f0e;stroke-linecap:square;"/>
   </g>
   <g id="line2d_14">
    <path clip-path="url(#p46821ca634)" d="M 45.008438 283.743815 
L 51.337889 283.743815 
L 57.667341 283.743815 
L 63.996552 283.743815 
L 70.326004 283.743815 
L 76.655456 283.743815 
L 82.984907 283.743815 
L 89.314239 283.743815 
L 95.643642 283.743815 
L 101.973046 283.743815 
L 108.30245 283.743815 
L 114.631853 283.743815 
L 120.961257 283.743815 
L 127.290661 283.743815 
L 133.620064 283.743815 
L 139.949444 283.743815 
L 146.278847 283.743815 
L 152.608251 283.743815 
L 158.937655 283.743815 
L 165.267058 283.743815 
L 165.267058 283.774375 
L 166.870514 213.974715 
L 168.473947 169.876243 
L 170.077403 138.857567 
L 171.680859 115.876243 
L 173.284292 98.242966 
L 174.887748 84.429723 
L 176.491204 73.489146 
L 178.094636 64.748908 
L 179.698093 57.720046 
L 181.301549 52.066395 
L 182.904981 47.574035 
L 184.508438 43.937363 
L 186.111894 41.095258 
L 187.715326 38.833798 
L 189.318782 37.061302 
L 190.922239 35.71665 
L 192.525671 34.677601 
L 194.129127 33.883034 
L 195.732583 33.271828 
L 197.336016 32.843985 
L 198.939472 32.538382 
L 200.542928 32.2939 
L 202.146361 32.141098 
L 203.749817 32.018857 
L 205.353273 31.957737 
L 206.956705 31.896616 
L 208.560162 31.866056 
L 210.163618 31.835496 
L 211.76705 31.804935 
L 213.370506 31.804935 
L 214.973963 31.804935 
L 216.577395 31.804935 
L 218.180851 31.804935 
L 219.784308 31.804935 
L 221.38774 31.804935 
L 222.991196 31.774375 
L 224.594652 31.774375 
L 226.198085 31.774375 
L 227.801541 31.774375 
L 229.404997 31.774375 
L 231.008429 31.774375 
L 232.611886 31.774375 
L 234.215342 31.774375 
L 235.818774 31.774375 
L 237.422231 31.774375 
L 239.025687 31.774375 
L 240.629119 31.774375 
L 242.232575 31.774375 
L 243.836032 31.774375 
L 245.439464 31.774375 
L 247.04292 31.774375 
L 248.646377 31.774375 
L 250.249809 31.774375 
L 251.853265 31.774375 
L 253.456721 31.774375 
L 255.060154 31.774375 
L 256.66361 31.774375 
L 258.267066 31.774375 
L 259.870498 31.774375 
L 261.473955 31.774375 
L 263.077411 31.774375 
L 264.680843 31.774375 
L 266.2843 31.774375 
L 267.887756 31.774375 
L 269.491188 31.774375 
L 271.094644 31.774375 
L 272.698101 31.774375 
L 274.301533 31.774375 
L 275.904989 31.774375 
L 277.508446 31.774375 
L 279.111878 31.774375 
L 280.715334 31.774375 
L 282.31879 31.774375 
L 283.922223 31.774375 
L 285.525679 31.774375 
L 287.129135 31.774375 
L 288.732567 31.774375 
L 290.336024 31.774375 
L 291.93948 31.774375 
L 293.542912 31.774375 
L 295.146369 31.774375 
L 296.749825 31.774375 
L 298.353257 31.774375 
L 299.956713 31.774375 
L 301.560162 31.774375 
L 303.163609 31.774375 
L 304.767058 31.774375 
L 306.370507 31.774375 
L 307.973954 31.774375 
L 309.577403 31.774375 
L 311.180852 31.774375 
L 312.784299 31.774375 
L 314.387748 31.774375 
L 315.991197 31.774375 
L 317.594644 31.774375 
L 319.198093 31.774375 
L 320.801542 31.774375 
L 322.404989 31.774375 
L 324.008438 31.774375 
" style="fill:none;stroke:#2ca02c;stroke-linecap:square;"/>
   </g>
   <g id="line2d_15">
    <path clip-path="url(#p46821ca634)" d="M 45.008438 283.743815 
L 51.337889 283.743815 
L 57.667341 283.743815 
L 63.996552 283.743815 
L 70.326004 283.743815 
L 76.655456 283.743815 
L 82.984907 283.743815 
L 89.314239 283.743815 
L 95.643642 283.743815 
L 101.973046 283.743815 
L 108.30245 283.743815 
L 114.631853 283.743815 
L 120.961257 283.743815 
L 127.290661 283.743815 
L 133.620064 283.743815 
L 139.949444 283.743815 
L 146.278847 283.743815 
L 152.608251 283.743815 
L 158.937655 283.743815 
L 165.267058 283.743815 
L 165.267058 283.774375 
L 166.870514 257.186939 
L 168.473947 235.214103 
L 170.077403 216.388976 
L 171.680859 200.039231 
L 173.284292 185.737024 
L 174.887748 173.085071 
L 176.491204 161.74721 
L 178.094636 151.57064 
L 179.698093 142.402558 
L 181.301549 134.059604 
L 182.904981 126.450097 
L 184.508438 119.451794 
L 186.111894 113.064698 
L 187.715326 107.197125 
L 189.318782 101.726837 
L 190.922239 96.745513 
L 192.525671 92.100351 
L 194.129127 87.791353 
L 195.732583 83.787957 
L 197.336016 80.090164 
L 198.939472 76.606294 
L 200.542928 73.397465 
L 202.146361 70.402558 
L 203.749817 67.621574 
L 205.353273 65.023951 
L 206.956705 62.609689 
L 208.560162 60.317669 
L 210.163618 58.23957 
L 211.76705 56.283713 
L 213.370506 54.419536 
L 214.973963 52.708161 
L 216.577395 51.119027 
L 218.180851 49.652134 
L 219.784308 48.276922 
L 221.38774 46.96283 
L 222.991196 45.770979 
L 224.594652 44.640249 
L 226.198085 43.63176 
L 227.801541 42.653832 
L 229.404997 41.767584 
L 231.008429 40.942456 
L 232.611886 40.17845 
L 234.215342 39.475563 
L 235.818774 38.803237 
L 237.422231 38.192032 
L 239.025687 37.611387 
L 240.629119 37.091862 
L 242.232575 36.633458 
L 243.836032 36.175054 
L 245.439464 35.777771 
L 247.04292 35.411047 
L 248.646377 35.074884 
L 250.249809 34.769282 
L 251.853265 34.494239 
L 253.456721 34.219197 
L 255.060154 33.974715 
L 256.66361 33.760793 
L 258.267066 33.577431 
L 259.870498 33.394069 
L 261.473955 33.210708 
L 263.077411 33.057906 
L 264.680843 32.935665 
L 266.2843 32.813424 
L 267.887756 32.691183 
L 269.491188 32.599502 
L 271.094644 32.507822 
L 272.698101 32.446701 
L 274.301533 32.35502 
L 275.904989 32.2939 
L 277.508446 32.232779 
L 279.111878 32.171659 
L 280.715334 32.141098 
L 282.31879 32.110538 
L 283.922223 32.049417 
L 285.525679 32.018857 
L 287.129135 31.988297 
L 288.732567 31.957737 
L 290.336024 31.957737 
L 291.93948 31.927176 
L 293.542912 31.896616 
L 295.146369 31.896616 
L 296.749825 31.896616 
L 298.353257 31.866056 
L 299.956713 31.866056 
L 301.560162 31.835496 
L 303.163609 31.835496 
L 304.767058 31.835496 
L 306.370507 31.835496 
L 307.973954 31.835496 
L 309.577403 31.804935 
L 311.180852 31.804935 
L 312.784299 31.804935 
L 314.387748 31.804935 
L 315.991197 31.804935 
L 317.594644 31.804935 
L 319.198093 31.804935 
L 320.801542 31.804935 
L 322.404989 31.804935 
L 324.008438 31.804935 
" style="fill:none;stroke:#d62728;stroke-linecap:square;"/>
   </g>
   <g id="line2d_16">
    <path clip-path="url(#p46821ca634)" d="M 45.008438 283.743815 
L 51.337889 283.743815 
L 57.667341 283.743815 
L 63.996552 283.743815 
L 70.326004 283.743815 
L 76.655456 283.743815 
L 82.984907 283.743815 
L 89.314239 283.743815 
L 95.643642 283.743815 
L 101.973046 283.743815 
L 108.30245 283.743815 
L 114.631853 283.743815 
L 120.961257 283.743815 
L 127.290661 283.743815 
L 133.620064 283.743815 
L 139.949444 283.743815 
L 146.278847 283.743815 
L 152.608251 283.743815 
L 158.937655 283.743815 
L 165.267058 283.743815 
L 165.267058 283.774375 
L 166.870514 274.973017 
L 168.473947 266.935665 
L 170.077403 259.173356 
L 171.680859 251.961132 
L 173.284292 245.054511 
L 174.887748 238.484052 
L 176.491204 232.310878 
L 178.094636 226.290504 
L 179.698093 220.759095 
L 181.301549 215.319367 
L 182.904981 210.154681 
L 184.508438 205.234477 
L 186.111894 200.467074 
L 187.715326 195.944154 
L 189.318782 191.574035 
L 190.922239 187.326158 
L 192.525671 183.322762 
L 194.129127 179.472168 
L 195.732583 175.682694 
L 197.336016 172.076582 
L 198.939472 168.623271 
L 200.542928 165.231081 
L 202.146361 161.961132 
L 203.749817 158.874545 
L 205.353273 155.849078 
L 206.956705 152.884732 
L 208.560162 150.042626 
L 210.163618 147.322762 
L 211.76705 144.664018 
L 213.370506 142.066395 
L 214.973963 139.591013 
L 216.577395 137.207312 
L 218.180851 134.854171 
L 219.784308 132.562151 
L 221.38774 130.361811 
L 222.991196 128.253153 
L 224.594652 126.175054 
L 226.198085 124.188636 
L 227.801541 122.202219 
L 229.404997 120.338042 
L 231.008429 118.504426 
L 232.611886 116.73193 
L 234.215342 115.020555 
L 235.818774 113.30918 
L 237.422231 111.689485 
L 239.025687 110.130912 
L 240.629119 108.602898 
L 242.232575 107.105445 
L 243.836032 105.669112 
L 245.439464 104.263339 
L 247.04292 102.888127 
L 248.646377 101.604596 
L 250.249809 100.321064 
L 251.853265 99.098653 
L 253.456721 97.906803 
L 255.060154 96.745513 
L 256.66361 95.614782 
L 258.267066 94.514613 
L 259.870498 93.445003 
L 261.473955 92.436514 
L 263.077411 91.458586 
L 264.680843 90.511217 
L 266.2843 89.594409 
L 267.887756 88.677601 
L 269.491188 87.821913 
L 271.094644 86.996786 
L 272.698101 86.171659 
L 274.301533 85.407652 
L 275.904989 84.674205 
L 277.508446 83.940759 
L 279.111878 83.268433 
L 280.715334 82.626667 
L 282.31879 81.984901 
L 283.922223 81.373696 
L 285.525679 80.793051 
L 287.129135 80.242966 
L 288.732567 79.723441 
L 290.336024 79.203917 
L 291.93948 78.745513 
L 293.542912 78.287108 
L 295.146369 77.859265 
L 296.749825 77.431421 
L 298.353257 77.064698 
L 299.956713 76.697974 
L 301.560162 76.361811 
L 303.163609 76.056209 
L 304.767058 75.781166 
L 306.370507 75.536684 
L 307.973954 75.292202 
L 309.577403 75.07828 
L 311.180852 74.894918 
L 312.784299 74.711557 
L 314.387748 74.589316 
L 315.991197 74.467074 
L 317.594644 74.344833 
L 319.198093 74.283713 
L 320.801542 74.222592 
L 322.404989 74.192032 
L 324.008438 74.161472 
" style="fill:none;stroke:#9467bd;stroke-linecap:square;"/>
   </g>
   <g id="line2d_17">
    <path clip-path="url(#p46821ca634)" d="M 45.008438 283.743815 
L 51.337889 283.743815 
L 57.667341 283.743815 
L 63.996552 283.743815 
L 70.326004 283.743815 
L 76.655456 283.743815 
L 82.984907 283.743815 
L 89.314239 283.743815 
L 95.643642 283.743815 
L 101.973046 283.743815 
L 108.30245 283.743815 
L 114.631853 283.743815 
L 120.961257 283.743815 
L 127.290661 283.743815 
L 133.620064 283.743815 
L 139.949444 283.743815 
L 146.278847 283.743815 
L 152.608251 283.743815 
L 158.937655 283.743815 
L 165.267058 283.743815 
L 165.267058 283.774375 
L 166.870514 283.407652 
L 168.473947 283.010368 
L 170.077403 282.643645 
L 171.680859 282.276922 
L 173.284292 281.910198 
L 174.887748 281.543475 
L 176.491204 281.176752 
L 178.094636 280.810029 
L 179.698093 280.443305 
L 181.301549 280.076582 
L 182.904981 279.709859 
L 184.508438 279.343136 
L 186.111894 278.976412 
L 187.715326 278.609689 
L 189.318782 278.273526 
L 190.922239 277.906803 
L 192.525671 277.54008 
L 194.129127 277.203917 
L 195.732583 276.837193 
L 197.336016 276.50103 
L 198.939472 276.164867 
L 200.542928 275.798144 
L 202.146361 275.461981 
L 203.749817 275.125818 
L 205.353273 274.789655 
L 206.956705 274.453492 
L 208.560162 274.117329 
L 210.163618 273.811726 
L 211.76705 273.506124 
L 213.370506 273.200521 
L 214.973963 272.894918 
L 216.577395 272.619876 
L 218.180851 272.314273 
L 219.784308 272.039231 
L 221.38774 271.764188 
L 222.991196 271.489146 
L 224.594652 271.214103 
L 226.198085 270.939061 
L 227.801541 270.664018 
L 229.404997 270.388976 
L 231.008429 270.113934 
L 232.611886 269.869451 
L 234.215342 269.594409 
L 235.818774 269.349927 
L 237.422231 269.105445 
L 239.025687 268.860962 
L 240.629119 268.61648 
L 242.232575 268.371998 
L 243.836032 268.127516 
L 245.439464 267.913594 
L 247.04292 267.669112 
L 248.646377 267.45519 
L 250.249809 267.241268 
L 251.853265 267.027346 
L 253.456721 266.813424 
L 255.060154 266.599502 
L 256.66361 266.38558 
L 258.267066 266.202219 
L 259.870498 265.988297 
L 261.473955 265.804935 
L 263.077411 265.621574 
L 264.680843 265.438212 
L 266.2843 265.25485 
L 267.887756 265.102049 
L 269.491188 264.918687 
L 271.094644 264.765886 
L 272.698101 264.613085 
L 274.301533 264.429723 
L 275.904989 264.307482 
L 277.508446 264.154681 
L 279.111878 264.001879 
L 280.715334 263.879638 
L 282.31879 263.726837 
L 283.922223 263.604596 
L 285.525679 263.482355 
L 287.129135 263.360114 
L 288.732567 263.268433 
L 290.336024 263.146192 
L 291.93948 263.054511 
L 293.542912 262.96283 
L 295.146369 262.871149 
L 296.749825 262.779468 
L 298.353257 262.687788 
L 299.956713 262.596107 
L 301.560162 262.534986 
L 303.163609 262.473866 
L 304.767058 262.412745 
L 306.370507 262.351625 
L 307.973954 262.290504 
L 309.577403 262.259944 
L 311.180852 262.198823 
L 312.784299 262.168263 
L 314.387748 262.137703 
L 315.991197 262.107142 
L 317.594644 262.076582 
L 319.198093 262.076582 
L 320.801542 262.046022 
L 322.404989 262.046022 
L 324.008438 262.046022 
" style="fill:none;stroke:#8c564b;stroke-linecap:square;"/>
   </g>
   <g id="line2d_18">
    <path clip-path="url(#p46821ca634)" d="M 165.267058 296.374375 
L 165.267058 19.174375 
" style="fill:none;stroke:#000000;stroke-dasharray:0.8,1.32;stroke-dashoffset:0;stroke-width:0.8;"/>
   </g>
   <g id="patch_3">
    <path d="M 45.008438 296.374375 
L 45.008438 19.174375 
" style="fill:none;stroke:#000000;stroke-linecap:square;stroke-linejoin:miter;stroke-width:0.8;"/>
   </g>
   <g id="patch_4">
    <path d="M 324.008438 296.374375 
L 324.008438 19.174375 
" style="fill:none;stroke:#000000;stroke-linecap:square;stroke-linejoin:miter;stroke-width:0.8;"/>
   </g>
   <g id="patch_5">
    <path d="M 45.008438 296.374375 
L 324.008438 296.374375 
" style="fill:none;stroke:#000000;stroke-linecap:square;stroke-linejoin:miter;stroke-width:0.8;"/>
   </g>
   <g id="patch_6">
    <path d="M 45.008438 19.174375 
L 324.008438 19.174375 
" style="fill:none;stroke:#000000;stroke-linecap:square;stroke-linejoin:miter;stroke-width:0.8;"/>
   </g>
   <g id="text_14">
    <!-- $\gamma$ -->
    <defs>
     <path d="M 23.296875 46.09375 
L 28.71875 12.3125 
L 54 54.6875 
L 63.53125 54.6875 
L 30.8125 0 
L 26.765625 -20.796875 
L 17.78125 -20.796875 
L 21.828125 0 
L 15.4375 40.828125 
Q 14.453125 46.96875 9.8125 46.96875 
L 7.421875 46.96875 
L 8.890625 54.6875 
L 12.3125 54.6875 
Q 21.921875 54.6875 23.296875 46.09375 
z
" id="DejaVuSans-Oblique-3b3"/>
    </defs>
    <g transform="translate(241.037748 15.654375)scale(0.12 -0.12)">
     <use transform="translate(0 0.3125)" xlink:href="#DejaVuSans-Oblique-3b3"/>
    </g>
   </g>
   <g id="text_15">
    <!-- $\alpha' + \theta$ -->
    <defs>
     <path d="M 40.921875 25.4375 
L 40.96875 36.71875 
Q 41.015625 48.25 32.328125 48.296875 
Q 25.828125 48.34375 21.78125 42.921875 
Q 16.703125 36.234375 14.984375 27.296875 
Q 12.890625 16.546875 15.53125 11.421875 
Q 18.265625 6.203125 24.171875 6.203125 
Q 30.71875 6.203125 36.234375 16.609375 
z
M 33.84375 55.90625 
Q 49.078125 56.15625 48.875 40.375 
Q 48.875 40.375 56.5 54.6875 
L 64.5 54.6875 
L 48.734375 25.046875 
L 48.578125 14.359375 
Q 48.578125 11.96875 49.90625 9.96875 
Q 51.421875 7.625 52.984375 7.625 
L 57.328125 7.625 
L 55.859375 0 
L 50.4375 0 
Q 45.84375 0 42.53125 4.109375 
Q 40.96875 6.15625 40.921875 10.453125 
Q 37.75 5.21875 32.28125 0.78125 
Q 29.6875 -1.265625 22.703125 -1.21875 
Q 11.28125 -1.125 7.125 6.203125 
Q 2.875 13.8125 5.515625 27.296875 
Q 8.34375 41.796875 15.765625 48.390625 
Q 24.125 55.765625 33.84375 55.90625 
z
" id="DejaVuSans-Oblique-3b1"/>
     <path d="M 3.515625 5.421875 
Q 2.875 5.609375 2.875 6.390625 
L 15.09375 51.8125 
Q 15.671875 53.65625 17.078125 54.78125 
Q 18.5 55.90625 20.3125 55.90625 
Q 22.65625 55.90625 24.4375 54.359375 
Q 26.21875 52.828125 26.21875 50.484375 
Q 26.21875 49.46875 25.6875 48.1875 
L 7.625 4.984375 
Q 7.28125 4.296875 6.6875 4.296875 
Q 6.15625 4.296875 5 4.78125 
Q 3.859375 5.28125 3.515625 5.421875 
z
" id="Cmsy10-30"/>
     <path d="M 46 62.703125 
L 46 35.5 
L 73.1875 35.5 
L 73.1875 27.203125 
L 46 27.203125 
L 46 0 
L 37.796875 0 
L 37.796875 27.203125 
L 10.59375 27.203125 
L 10.59375 35.5 
L 37.796875 35.5 
L 37.796875 62.703125 
z
" id="DejaVuSans-2b"/>
     <path d="M 45.515625 34.671875 
L 14.453125 34.671875 
Q 12.359375 20.0625 14.5 13.875 
Q 17.1875 6.25 24.46875 6.25 
Q 31.78125 6.25 37.359375 13.921875 
Q 42.234375 20.65625 45.515625 34.671875 
z
M 47.015625 42.96875 
Q 48.34375 56.84375 46.625 61.71875 
Q 43.953125 69.4375 36.765625 69.4375 
Q 29.296875 69.4375 23.828125 61.8125 
Q 19.53125 55.671875 16.15625 42.96875 
z
M 38.1875 76.765625 
Q 49.90625 76.765625 54.59375 66.40625 
Q 59.28125 56.109375 55.71875 37.84375 
Q 52.203125 19.625 43.453125 9.28125 
Q 34.765625 -1.125 23.046875 -1.125 
Q 11.28125 -1.125 6.640625 9.28125 
Q 2 19.625 5.515625 37.84375 
Q 9.078125 56.109375 17.71875 66.40625 
Q 26.421875 76.765625 38.1875 76.765625 
z
" id="DejaVuSans-Oblique-3b8"/>
    </defs>
    <g transform="translate(88.517748 15.789375)scale(0.12 -0.12)">
     <use transform="translate(0 0.584375)" xlink:href="#DejaVuSans-Oblique-3b1"/>
     <use transform="translate(70.58974 38.865625)scale(0.7)" xlink:href="#Cmsy10-30"/>
     <use transform="translate(112.049701 0.584375)" xlink:href="#DejaVuSans-2b"/>
     <use transform="translate(215.321185 0.584375)" xlink:href="#DejaVuSans-Oblique-3b8"/>
    </g>
   </g>
   <g id="legend_1">
    <g id="patch_7">
     <path d="M 51.508438 139.907812 
L 162.993594 139.907812 
L 162.993594 25.674375 
L 51.508438 25.674375 
z
" style="fill:#ffffff;opacity:0.8;stroke:#cccccc;stroke-linejoin:miter;"/>
    </g>
    <g id="line2d_19">
     <path d="M 56.708438 35.629531 
L 82.708438 35.629531 
" style="fill:none;stroke:#1f77b4;stroke-linecap:square;"/>
    </g>
    <g id="line2d_20"/>
    <g id="text_16">
     <!-- t = 0.1 s -->
     <defs>
      <path d="M 25.78125 7.859375 
L 27.046875 0.09375 
Q 23.34375 -0.6875 20.40625 -0.6875 
Q 15.625 -0.6875 12.984375 0.828125 
Q 10.359375 2.34375 9.28125 4.8125 
Q 8.203125 7.28125 8.203125 15.1875 
L 8.203125 45.015625 
L 1.765625 45.015625 
L 1.765625 51.859375 
L 8.203125 51.859375 
L 8.203125 64.703125 
L 16.9375 69.96875 
L 16.9375 51.859375 
L 25.78125 51.859375 
L 25.78125 45.015625 
L 16.9375 45.015625 
L 16.9375 14.703125 
Q 16.9375 10.9375 17.40625 9.859375 
Q 17.875 8.796875 18.921875 8.15625 
Q 19.96875 7.515625 21.921875 7.515625 
Q 23.390625 7.515625 25.78125 7.859375 
z
" id="ArialMT-74"/>
      <path d="M 52.828125 42.09375 
L 5.5625 42.09375 
L 5.5625 50.296875 
L 52.828125 50.296875 
z
M 52.828125 20.359375 
L 5.5625 20.359375 
L 5.5625 28.5625 
L 52.828125 28.5625 
z
" id="ArialMT-3d"/>
     </defs>
     <g transform="translate(93.108438 40.179531)scale(0.13 -0.13)">
      <use xlink:href="#ArialMT-74"/>
      <use x="27.783203" xlink:href="#ArialMT-20"/>
      <use x="55.566406" xlink:href="#ArialMT-3d"/>
      <use x="113.964844" xlink:href="#ArialMT-20"/>
      <use x="141.748047" xlink:href="#ArialMT-30"/>
      <use x="197.363281" xlink:href="#ArialMT-2e"/>
      <use x="225.146484" xlink:href="#ArialMT-31"/>
      <use x="280.761719" xlink:href="#ArialMT-20"/>
      <use x="308.544922" xlink:href="#ArialMT-73"/>
     </g>
    </g>
    <g id="line2d_21">
     <path d="M 56.708438 54.018437 
L 82.708438 54.018437 
" style="fill:none;stroke:#ff7f0e;stroke-linecap:square;"/>
    </g>
    <g id="line2d_22"/>
    <g id="text_17">
     <!-- t = 1 s -->
     <g transform="translate(93.108438 58.568437)scale(0.13 -0.13)">
      <use xlink:href="#ArialMT-74"/>
      <use x="27.783203" xlink:href="#ArialMT-20"/>
      <use x="55.566406" xlink:href="#ArialMT-3d"/>
      <use x="113.964844" xlink:href="#ArialMT-20"/>
      <use x="141.748047" xlink:href="#ArialMT-31"/>
      <use x="197.363281" xlink:href="#ArialMT-20"/>
      <use x="225.146484" xlink:href="#ArialMT-73"/>
     </g>
    </g>
    <g id="line2d_23">
     <path d="M 56.708438 72.407344 
L 82.708438 72.407344 
" style="fill:none;stroke:#2ca02c;stroke-linecap:square;"/>
    </g>
    <g id="line2d_24"/>
    <g id="text_18">
     <!-- t = 10 s -->
     <g transform="translate(93.108438 76.957344)scale(0.13 -0.13)">
      <use xlink:href="#ArialMT-74"/>
      <use x="27.783203" xlink:href="#ArialMT-20"/>
      <use x="55.566406" xlink:href="#ArialMT-3d"/>
      <use x="113.964844" xlink:href="#ArialMT-20"/>
      <use x="141.748047" xlink:href="#ArialMT-31"/>
      <use x="197.363281" xlink:href="#ArialMT-30"/>
      <use x="252.978516" xlink:href="#ArialMT-20"/>
      <use x="280.761719" xlink:href="#ArialMT-73"/>
     </g>
    </g>
    <g id="line2d_25">
     <path d="M 56.708438 90.79625 
L 82.708438 90.79625 
" style="fill:none;stroke:#d62728;stroke-linecap:square;"/>
    </g>
    <g id="line2d_26"/>
    <g id="text_19">
     <!-- t = 100 s -->
     <g transform="translate(93.108438 95.34625)scale(0.13 -0.13)">
      <use xlink:href="#ArialMT-74"/>
      <use x="27.783203" xlink:href="#ArialMT-20"/>
      <use x="55.566406" xlink:href="#ArialMT-3d"/>
      <use x="113.964844" xlink:href="#ArialMT-20"/>
      <use x="141.748047" xlink:href="#ArialMT-31"/>
      <use x="197.363281" xlink:href="#ArialMT-30"/>
      <use x="252.978516" xlink:href="#ArialMT-30"/>
      <use x="308.59375" xlink:href="#ArialMT-20"/>
      <use x="336.376953" xlink:href="#ArialMT-73"/>
     </g>
    </g>
    <g id="line2d_27">
     <path d="M 56.708438 109.185156 
L 82.708438 109.185156 
" style="fill:none;stroke:#9467bd;stroke-linecap:square;"/>
    </g>
    <g id="line2d_28"/>
    <g id="text_20">
     <!-- t = 1000 s -->
     <g transform="translate(93.108438 113.735156)scale(0.13 -0.13)">
      <use xlink:href="#ArialMT-74"/>
      <use x="27.783203" xlink:href="#ArialMT-20"/>
      <use x="55.566406" xlink:href="#ArialMT-3d"/>
      <use x="113.964844" xlink:href="#ArialMT-20"/>
      <use x="141.748047" xlink:href="#ArialMT-31"/>
      <use x="197.363281" xlink:href="#ArialMT-30"/>
      <use x="252.978516" xlink:href="#ArialMT-30"/>
      <use x="308.59375" xlink:href="#ArialMT-30"/>
      <use x="364.208984" xlink:href="#ArialMT-20"/>
      <use x="391.992188" xlink:href="#ArialMT-73"/>
     </g>
    </g>
    <g id="line2d_29">
     <path d="M 56.708438 127.574062 
L 82.708438 127.574062 
" style="fill:none;stroke:#8c564b;stroke-linecap:square;"/>
    </g>
    <g id="line2d_30"/>
    <g id="text_21">
     <!-- t = 10000 s -->
     <g transform="translate(93.108438 132.124062)scale(0.13 -0.13)">
      <use xlink:href="#ArialMT-74"/>
      <use x="27.783203" xlink:href="#ArialMT-20"/>
      <use x="55.566406" xlink:href="#ArialMT-3d"/>
      <use x="113.964844" xlink:href="#ArialMT-20"/>
      <use x="141.748047" xlink:href="#ArialMT-31"/>
      <use x="197.363281" xlink:href="#ArialMT-30"/>
      <use x="252.978516" xlink:href="#ArialMT-30"/>
      <use x="308.59375" xlink:href="#ArialMT-30"/>
      <use x="364.208984" xlink:href="#ArialMT-30"/>
      <use x="419.824219" xlink:href="#ArialMT-20"/>
      <use x="447.607422" xlink:href="#ArialMT-73"/>
     </g>
    </g>
   </g>
  </g>
 </g>
 <defs>
  <clipPath id="p46821ca634">
   <rect height="277.2" width="279" x="45.008438" y="19.174375"/>
  </clipPath>
 </defs>
</svg>
