<?xml version="1.0" encoding="UTF-8" standalone="no"?>
<!-- Created with Inkscape (http://www.inkscape.org/) -->

<svg
   xmlns:dc="http://purl.org/dc/elements/1.1/"
   xmlns:cc="http://creativecommons.org/ns#"
   xmlns:rdf="http://www.w3.org/1999/02/22-rdf-syntax-ns#"
   xmlns:svg="http://www.w3.org/2000/svg"
   xmlns="http://www.w3.org/2000/svg"
   xmlns:sodipodi="http://sodipodi.sourceforge.net/DTD/sodipodi-0.dtd"
   xmlns:inkscape="http://www.inkscape.org/namespaces/inkscape"
   id="svg2"
   version="1.1"
   inkscape:version="0.48.4 r9939"
   width="540"
   height="315"
   xml:space="preserve"
   sodipodi:docname="170-250_close.pdf"><metadata
     id="metadata8"><rdf:RDF><cc:Work
         rdf:about=""><dc:format>image/svg+xml</dc:format><dc:type
           rdf:resource="http://purl.org/dc/dcmitype/StillImage" /><dc:title></dc:title></cc:Work></rdf:RDF></metadata><defs
     id="defs6"><marker
       inkscape:stockid="Arrow1Mstart"
       orient="auto"
       refY="0.0"
       refX="0.0"
       id="Arrow1Mstart"
       style="overflow:visible"><path
         id="path4049"
         d="M 0.0,0.0 L 5.0,-5.0 L -12.5,0.0 L 5.0,5.0 L 0.0,0.0 z "
         style="fill-rule:evenodd;stroke:#000000;stroke-width:1.0pt"
         transform="scale(0.4) translate(10,0)" /></marker><marker
       inkscape:stockid="Arrow1Mend"
       orient="auto"
       refY="0.0"
       refX="0.0"
       id="Arrow1Mend"
       style="overflow:visible;"><path
         id="path4052"
         d="M 0.0,0.0 L 5.0,-5.0 L -12.5,0.0 L 5.0,5.0 L 0.0,0.0 z "
         style="fill-rule:evenodd;stroke:#000000;stroke-width:1.0pt;"
         transform="scale(0.4) rotate(180) translate(10,0)" /></marker><marker
       inkscape:stockid="Arrow1Send"
       orient="auto"
       refY="0.0"
       refX="0.0"
       id="Arrow1Send"
       style="overflow:visible;"><path
         id="path4058"
         d="M 0.0,0.0 L 5.0,-5.0 L -12.5,0.0 L 5.0,5.0 L 0.0,0.0 z "
         style="fill-rule:evenodd;stroke:#000000;stroke-width:1.0pt;"
         transform="scale(0.2) rotate(180) translate(6,0)" /></marker><marker
       inkscape:stockid="Arrow1Lend"
       orient="auto"
       refY="0.0"
       refX="0.0"
       id="Arrow1Lend"
       style="overflow:visible;"><path
         id="path4046"
         d="M 0.0,0.0 L 5.0,-5.0 L -12.5,0.0 L 5.0,5.0 L 0.0,0.0 z "
         style="fill-rule:evenodd;stroke:#000000;stroke-width:1.0pt;"
         transform="scale(0.8) rotate(180) translate(12.5,0)" /></marker></defs><sodipodi:namedview
     pagecolor="#ffffff"
     bordercolor="#666666"
     borderopacity="1"
     objecttolerance="10"
     gridtolerance="10"
     guidetolerance="10"
     inkscape:pageopacity="0"
     inkscape:pageshadow="2"
     inkscape:window-width="1317"
     inkscape:window-height="744"
     id="namedview4"
     showgrid="false"
     showguides="true"
     inkscape:guide-bbox="true"
     inkscape:zoom="4.9481481"
     inkscape:cx="225.2692"
     inkscape:cy="215.00261"
     inkscape:window-x="49"
     inkscape:window-y="24"
     inkscape:window-maximized="1"
     inkscape:current-layer="g10"><sodipodi:guide
       orientation="0,1"
       position="268.38323,153.99701"
       id="guide3253" /><sodipodi:guide
       orientation="0,1"
       position="192.7994,177.03593"
       id="guide3255" /><sodipodi:guide
       orientation="1,0"
       position="174.61078,196.43713"
       id="guide3257" /><sodipodi:guide
       orientation="1,0"
       position="192.63367,190.91883"
       id="guide4857" /><sodipodi:guide
       orientation="1,0"
       position="271.5163,130.89944"
       id="guide4859" /><sodipodi:guide
       orientation="1,0"
       position="282.37695,201.77948"
       id="guide4861" /><sodipodi:guide
       orientation="0,1"
       position="192.63367,296.66729"
       id="guide4863" /><sodipodi:guide
       orientation="0,1"
       position="174.61078,47.443901"
       id="guide4865" /><sodipodi:guide
       orientation="0,1"
       position="226.93047,229.78853"
       id="guide4885" /></sodipodi:namedview><g
     id="g10"
     inkscape:groupmode="layer"
     inkscape:label="ink_ext_XXXXXX"
     transform="matrix(1.25,0,0,-1.25,0,315)"><path
       inkscape:connector-curvature="0"
       id="path14"
       style="fill:none;stroke:#000000;stroke-width:0.125;stroke-linecap:butt;stroke-linejoin:miter;stroke-miterlimit:3.79999995;stroke-opacity:1;stroke-dasharray:0.5, 1;stroke-dashoffset:0"
       d="m 46.8,38.4 315.5,0" /><path
       inkscape:connector-curvature="0"
       id="path16"
       style="fill:none;stroke:#000000;stroke-width:0.5;stroke-linecap:butt;stroke-linejoin:miter;stroke-miterlimit:3.79999995;stroke-opacity:1;stroke-dasharray:none"
       d="m 46.8,38.4 3.15,0" /><g
       id="g18"><text
         id="text20"
         transform="matrix(1,0,0,-1,15.9125,34.4)"><tspan
           id="tspan22"
           sodipodi:role="line"
           y="0"
           x="0 7.0079999 13.68 17.016001"
           style="font-size:12px;font-variant:normal;font-weight:normal;writing-mode:lr-tb;fill:#000000;fill-opacity:1;fill-rule:nonzero;stroke:none;font-family:Helvetica;-inkscape-font-specification:Helvetica">−0.2</tspan></text>
</g><path
       inkscape:connector-curvature="0"
       id="path26"
       style="fill:none;stroke:#000000;stroke-width:0.5;stroke-linecap:butt;stroke-linejoin:miter;stroke-miterlimit:3.79999995;stroke-opacity:1;stroke-dasharray:none"
       d="m 46.8,71.6 3.15,0" /><g
       id="g28"><text
         id="text30"
         transform="matrix(1,0,0,-1,15.9125,67.6)"><tspan
           id="tspan32"
           sodipodi:role="line"
           y="0"
           x="0 7.0079999 13.68 17.016001"
           style="font-size:12px;font-variant:normal;font-weight:normal;writing-mode:lr-tb;fill:#000000;fill-opacity:1;fill-rule:nonzero;stroke:none;font-family:Helvetica;-inkscape-font-specification:Helvetica">−0.1</tspan></text>
</g><path
       inkscape:connector-curvature="0"
       id="path36"
       style="fill:none;stroke:#000000;stroke-width:0.5;stroke-linecap:butt;stroke-linejoin:miter;stroke-miterlimit:3.79999995;stroke-opacity:1;stroke-dasharray:none"
       d="m 46.8,104.8 3.15,0" /><g
       id="g38"><text
         id="text40"
         transform="matrix(1,0,0,-1,32.9282,100.8)"><tspan
           id="tspan42"
           y="0"
           x="0"
           style="font-size:12px;font-variant:normal;font-weight:normal;writing-mode:lr-tb;fill:#000000;fill-opacity:1;fill-rule:nonzero;stroke:none;font-family:Helvetica;-inkscape-font-specification:Helvetica">0</tspan></text>
</g><path
       inkscape:connector-curvature="0"
       id="path46"
       style="fill:none;stroke:#000000;stroke-width:0.5;stroke-linecap:butt;stroke-linejoin:miter;stroke-miterlimit:3.79999995;stroke-opacity:1;stroke-dasharray:none"
       d="m 46.8,138 3.15,0" /><g
       id="g48"><text
         id="text50"
         transform="matrix(1,0,0,-1,22.9204,134)"><tspan
           id="tspan52"
           sodipodi:role="line"
           y="0"
           x="0 6.6719999 10.008"
           style="font-size:12px;font-variant:normal;font-weight:normal;writing-mode:lr-tb;fill:#000000;fill-opacity:1;fill-rule:nonzero;stroke:none;font-family:Helvetica;-inkscape-font-specification:Helvetica">0.1</tspan></text>
</g><path
       inkscape:connector-curvature="0"
       id="path56"
       style="fill:none;stroke:#000000;stroke-width:0.5;stroke-linecap:butt;stroke-linejoin:miter;stroke-miterlimit:3.79999995;stroke-opacity:1;stroke-dasharray:none"
       d="m 46.8,171.15 3.15,0" /><g
       id="g58"><text
         id="text60"
         transform="matrix(1,0,0,-1,22.9204,167.15)"><tspan
           id="tspan62"
           sodipodi:role="line"
           y="0"
           x="0 6.6719999 10.008"
           style="font-size:12px;font-variant:normal;font-weight:normal;writing-mode:lr-tb;fill:#000000;fill-opacity:1;fill-rule:nonzero;stroke:none;font-family:Helvetica;-inkscape-font-specification:Helvetica">0.2</tspan></text>
</g><path
       inkscape:connector-curvature="0"
       id="path66"
       style="fill:none;stroke:#000000;stroke-width:0.5;stroke-linecap:butt;stroke-linejoin:miter;stroke-miterlimit:3.79999995;stroke-opacity:1;stroke-dasharray:none"
       d="m 46.8,204.35 3.15,0" /><g
       id="g68"><text
         id="text70"
         transform="matrix(1,0,0,-1,22.9204,200.35)"><tspan
           id="tspan72"
           sodipodi:role="line"
           y="0"
           x="0 6.6719999 10.008"
           style="font-size:12px;font-variant:normal;font-weight:normal;writing-mode:lr-tb;fill:#000000;fill-opacity:1;fill-rule:nonzero;stroke:none;font-family:Helvetica;-inkscape-font-specification:Helvetica">0.3</tspan></text>
</g><path
       inkscape:connector-curvature="0"
       id="path74"
       style="fill:none;stroke:#000000;stroke-width:0.125;stroke-linecap:butt;stroke-linejoin:miter;stroke-miterlimit:3.79999995;stroke-opacity:1;stroke-dasharray:0.5, 1;stroke-dashoffset:0"
       d="m 46.8,237.55 315.5,0" /><path
       inkscape:connector-curvature="0"
       id="path76"
       style="fill:none;stroke:#000000;stroke-width:0.5;stroke-linecap:butt;stroke-linejoin:miter;stroke-miterlimit:3.79999995;stroke-opacity:1;stroke-dasharray:none"
       d="m 46.8,237.55 3.15,0" /><g
       id="g78"><text
         id="text80"
         transform="matrix(1,0,0,-1,22.9204,233.55)"><tspan
           id="tspan82"
           sodipodi:role="line"
           y="0"
           x="0 6.6719999 10.008"
           style="font-size:12px;font-variant:normal;font-weight:normal;writing-mode:lr-tb;fill:#000000;fill-opacity:1;fill-rule:nonzero;stroke:none;font-family:Helvetica;-inkscape-font-specification:Helvetica">0.4</tspan></text>
</g><path
       inkscape:connector-curvature="0"
       id="path84"
       style="fill:none;stroke:#000000;stroke-width:0.125;stroke-linecap:butt;stroke-linejoin:miter;stroke-miterlimit:3.79999995;stroke-opacity:1;stroke-dasharray:0.5, 1;stroke-dashoffset:0"
       d="m 46.8,38.4 0,199.15" /><path
       inkscape:connector-curvature="0"
       id="path86"
       style="fill:none;stroke:#000000;stroke-width:0.5;stroke-linecap:butt;stroke-linejoin:miter;stroke-miterlimit:3.79999995;stroke-opacity:1;stroke-dasharray:none"
       d="m 46.8,38.4 0,3.15 m 0,196 0,-3.15" /><g
       id="g88"><text
         id="text90"
         transform="matrix(1,0,0,-1,41.7962,22.4)"><tspan
           id="tspan92"
           sodipodi:role="line"
           y="0"
           x="0 6.6719999"
           style="font-size:12px;font-variant:normal;font-weight:normal;writing-mode:lr-tb;fill:#000000;fill-opacity:1;fill-rule:nonzero;stroke:none;font-family:Helvetica;-inkscape-font-specification:Helvetica">30</tspan></text>
</g><path
       inkscape:connector-curvature="0"
       id="path96"
       style="fill:none;stroke:#000000;stroke-width:0.5;stroke-linecap:butt;stroke-linejoin:miter;stroke-miterlimit:3.79999995;stroke-opacity:1;stroke-dasharray:none"
       d="m 109.9,38.4 0,3.15 m 0,196 0,-3.15" /><g
       id="g98"><text
         id="text100"
         transform="matrix(1,0,0,-1,104.896,22.4)"><tspan
           id="tspan102"
           sodipodi:role="line"
           y="0"
           x="0 6.6719999"
           style="font-size:12px;font-variant:normal;font-weight:normal;writing-mode:lr-tb;fill:#000000;fill-opacity:1;fill-rule:nonzero;stroke:none;font-family:Helvetica;-inkscape-font-specification:Helvetica">31</tspan></text>
</g><path
       inkscape:connector-curvature="0"
       id="path106"
       style="fill:none;stroke:#000000;stroke-width:0.5;stroke-linecap:butt;stroke-linejoin:miter;stroke-miterlimit:3.79999995;stroke-opacity:1;stroke-dasharray:none"
       d="m 173,38.4 0,3.15 m 0,196 0,-3.15" /><g
       id="g108"><text
         id="text110"
         transform="matrix(1,0,0,-1,167.996,22.4)"><tspan
           id="tspan112"
           sodipodi:role="line"
           y="0"
           x="0 6.6719999"
           style="font-size:12px;font-variant:normal;font-weight:normal;writing-mode:lr-tb;fill:#000000;fill-opacity:1;fill-rule:nonzero;stroke:none;font-family:Helvetica;-inkscape-font-specification:Helvetica">32</tspan></text>
</g><path
       inkscape:connector-curvature="0"
       id="path116"
       style="fill:none;stroke:#000000;stroke-width:0.5;stroke-linecap:butt;stroke-linejoin:miter;stroke-miterlimit:3.79999995;stroke-opacity:1;stroke-dasharray:none"
       d="m 236.1,38.4 0,3.15 m 0,196 0,-3.15" /><g
       id="g118"><text
         id="text120"
         transform="matrix(1,0,0,-1,231.096,22.4)"><tspan
           id="tspan122"
           sodipodi:role="line"
           y="0"
           x="0 6.6719999"
           style="font-size:12px;font-variant:normal;font-weight:normal;writing-mode:lr-tb;fill:#000000;fill-opacity:1;fill-rule:nonzero;stroke:none;font-family:Helvetica;-inkscape-font-specification:Helvetica">33</tspan></text>
</g><path
       inkscape:connector-curvature="0"
       id="path126"
       style="fill:none;stroke:#000000;stroke-width:0.5;stroke-linecap:butt;stroke-linejoin:miter;stroke-miterlimit:3.79999995;stroke-opacity:1;stroke-dasharray:none"
       d="m 299.2,38.4 0,3.15 m 0,196 0,-3.15" /><g
       id="g128"><text
         id="text130"
         transform="matrix(1,0,0,-1,294.196,22.4)"><tspan
           id="tspan132"
           sodipodi:role="line"
           y="0"
           x="0 6.6719999"
           style="font-size:12px;font-variant:normal;font-weight:normal;writing-mode:lr-tb;fill:#000000;fill-opacity:1;fill-rule:nonzero;stroke:none;font-family:Helvetica;-inkscape-font-specification:Helvetica">34</tspan></text>
</g><path
       inkscape:connector-curvature="0"
       id="path134"
       style="fill:none;stroke:#000000;stroke-width:0.125;stroke-linecap:butt;stroke-linejoin:miter;stroke-miterlimit:3.79999995;stroke-opacity:1;stroke-dasharray:0.5, 1;stroke-dashoffset:0"
       d="m 362.3,38.4 0,199.15" /><path
       inkscape:connector-curvature="0"
       id="path136"
       style="fill:none;stroke:#000000;stroke-width:0.5;stroke-linecap:butt;stroke-linejoin:miter;stroke-miterlimit:3.79999995;stroke-opacity:1;stroke-dasharray:none"
       d="m 362.3,38.4 0,3.15 m 0,196 0,-3.15" /><g
       id="g138"><text
         id="text140"
         transform="matrix(1,0,0,-1,357.296,22.4)"><tspan
           id="tspan142"
           sodipodi:role="line"
           y="0"
           x="0 6.6719999"
           style="font-size:12px;font-variant:normal;font-weight:normal;writing-mode:lr-tb;fill:#000000;fill-opacity:1;fill-rule:nonzero;stroke:none;font-family:Helvetica;-inkscape-font-specification:Helvetica">35</tspan></text>
</g><path
       inkscape:connector-curvature="0"
       id="path144"
       style="fill:none;stroke:#000000;stroke-width:0.5;stroke-linecap:butt;stroke-linejoin:miter;stroke-miterlimit:3.79999995;stroke-opacity:1;stroke-dasharray:none"
       d="m 362.3,38.4 -3.15,0" /><g
       id="g146"><text
         id="text148"
         transform="matrix(1,0,0,-1,372.836,34.4)"><tspan
           id="tspan150"
           y="0"
           x="0"
           style="font-size:12px;font-variant:normal;font-weight:normal;writing-mode:lr-tb;fill:#000000;fill-opacity:1;fill-rule:nonzero;stroke:none;font-family:Helvetica;-inkscape-font-specification:Helvetica">0</tspan></text>
</g><path
       inkscape:connector-curvature="0"
       id="path152"
       style="fill:none;stroke:#000000;stroke-width:0.5;stroke-linecap:butt;stroke-linejoin:miter;stroke-miterlimit:3.79999995;stroke-opacity:1;stroke-dasharray:none"
       d="m 362.3,63.3 -3.15,0" /><g
       id="g154"><text
         id="text156"
         transform="matrix(1,0,0,-1,372.836,59.3)"><tspan
           id="tspan158"
           sodipodi:role="line"
           y="0"
           x="0 6.6719999"
           style="font-size:12px;font-variant:normal;font-weight:normal;writing-mode:lr-tb;fill:#000000;fill-opacity:1;fill-rule:nonzero;stroke:none;font-family:Helvetica;-inkscape-font-specification:Helvetica">50</tspan></text>
</g><path
       inkscape:connector-curvature="0"
       id="path160"
       style="fill:none;stroke:#000000;stroke-width:0.5;stroke-linecap:butt;stroke-linejoin:miter;stroke-miterlimit:3.79999995;stroke-opacity:1;stroke-dasharray:none"
       d="m 362.3,88.2 -3.15,0" /><g
       id="g162"><text
         id="text164"
         transform="matrix(1,0,0,-1,372.836,84.2)"><tspan
           id="tspan166"
           sodipodi:role="line"
           y="0"
           x="0 6.6719999 13.344"
           style="font-size:12px;font-variant:normal;font-weight:normal;writing-mode:lr-tb;fill:#000000;fill-opacity:1;fill-rule:nonzero;stroke:none;font-family:Helvetica;-inkscape-font-specification:Helvetica">100</tspan></text>
</g><path
       inkscape:connector-curvature="0"
       id="path168"
       style="fill:none;stroke:#000000;stroke-width:0.5;stroke-linecap:butt;stroke-linejoin:miter;stroke-miterlimit:3.79999995;stroke-opacity:1;stroke-dasharray:none"
       d="m 362.3,113.1 -3.15,0" /><g
       id="g170"><text
         id="text172"
         transform="matrix(1,0,0,-1,372.836,109.1)"><tspan
           id="tspan174"
           sodipodi:role="line"
           y="0"
           x="0 6.6719999 13.344"
           style="font-size:12px;font-variant:normal;font-weight:normal;writing-mode:lr-tb;fill:#000000;fill-opacity:1;fill-rule:nonzero;stroke:none;font-family:Helvetica;-inkscape-font-specification:Helvetica">150</tspan></text>
</g><path
       inkscape:connector-curvature="0"
       id="path176"
       style="fill:none;stroke:#000000;stroke-width:0.5;stroke-linecap:butt;stroke-linejoin:miter;stroke-miterlimit:3.79999995;stroke-opacity:1;stroke-dasharray:none"
       d="m 362.3,138 -3.15,0" /><g
       id="g178"><text
         id="text180"
         transform="matrix(1,0,0,-1,372.836,134)"><tspan
           id="tspan182"
           sodipodi:role="line"
           y="0"
           x="0 6.6719999 13.344"
           style="font-size:12px;font-variant:normal;font-weight:normal;writing-mode:lr-tb;fill:#000000;fill-opacity:1;fill-rule:nonzero;stroke:none;font-family:Helvetica;-inkscape-font-specification:Helvetica">200</tspan></text>
</g><path
       inkscape:connector-curvature="0"
       id="path184"
       style="fill:none;stroke:#000000;stroke-width:0.5;stroke-linecap:butt;stroke-linejoin:miter;stroke-miterlimit:3.79999995;stroke-opacity:1;stroke-dasharray:none"
       d="m 362.3,162.85 -3.15,0" /><g
       id="g186"><text
         id="text188"
         transform="matrix(1,0,0,-1,372.836,158.85)"><tspan
           id="tspan190"
           sodipodi:role="line"
           y="0"
           x="0 6.6719999 13.344"
           style="font-size:12px;font-variant:normal;font-weight:normal;writing-mode:lr-tb;fill:#000000;fill-opacity:1;fill-rule:nonzero;stroke:none;font-family:Helvetica;-inkscape-font-specification:Helvetica">250</tspan></text>
</g><path
       inkscape:connector-curvature="0"
       id="path192"
       style="fill:none;stroke:#000000;stroke-width:0.5;stroke-linecap:butt;stroke-linejoin:miter;stroke-miterlimit:3.79999995;stroke-opacity:1;stroke-dasharray:none"
       d="m 362.3,187.75 -3.15,0" /><g
       id="g194"><text
         id="text196"
         transform="matrix(1,0,0,-1,372.836,183.75)"><tspan
           id="tspan198"
           sodipodi:role="line"
           y="0"
           x="0 6.6719999 13.344"
           style="font-size:12px;font-variant:normal;font-weight:normal;writing-mode:lr-tb;fill:#000000;fill-opacity:1;fill-rule:nonzero;stroke:none;font-family:Helvetica;-inkscape-font-specification:Helvetica">300</tspan></text>
</g><path
       inkscape:connector-curvature="0"
       id="path200"
       style="fill:none;stroke:#000000;stroke-width:0.5;stroke-linecap:butt;stroke-linejoin:miter;stroke-miterlimit:3.79999995;stroke-opacity:1;stroke-dasharray:none"
       d="m 362.3,212.65 -3.15,0" /><g
       id="g202"><text
         id="text204"
         transform="matrix(1,0,0,-1,372.836,208.65)"><tspan
           id="tspan206"
           sodipodi:role="line"
           y="0"
           x="0 6.6719999 13.344"
           style="font-size:12px;font-variant:normal;font-weight:normal;writing-mode:lr-tb;fill:#000000;fill-opacity:1;fill-rule:nonzero;stroke:none;font-family:Helvetica;-inkscape-font-specification:Helvetica">350</tspan></text>
</g><path
       inkscape:connector-curvature="0"
       id="path208"
       style="fill:none;stroke:#000000;stroke-width:0.5;stroke-linecap:butt;stroke-linejoin:miter;stroke-miterlimit:3.79999995;stroke-opacity:1;stroke-dasharray:none"
       d="m 362.3,237.55 -3.15,0" /><g
       id="g210"><text
         id="text212"
         transform="matrix(1,0,0,-1,372.836,233.55)"><tspan
           id="tspan214"
           sodipodi:role="line"
           y="0"
           x="0 6.6719999 13.344"
           style="font-size:12px;font-variant:normal;font-weight:normal;writing-mode:lr-tb;fill:#000000;fill-opacity:1;fill-rule:nonzero;stroke:none;font-family:Helvetica;-inkscape-font-specification:Helvetica">400</tspan></text>
</g><path
       inkscape:connector-curvature="0"
       id="path216"
       style="fill:none;stroke:#000000;stroke-width:0.5;stroke-linecap:butt;stroke-linejoin:miter;stroke-miterlimit:3.79999995;stroke-opacity:1;stroke-dasharray:none"
       d="m 46.8,38.4 315.5,0 0,199.15 -315.5,0 0,-199.15 z" /><g
       id="g218"><text
         id="text220"
         transform="matrix(0,1,1,0,16,81.5996)"><tspan
           id="tspan222"
           sodipodi:role="line"
           y="0"
           x="0 8.6639996 11.328 13.992 20.664 24 30.672001 36.672001 43.344002 50.015999 53.352001 57.348 64.019997 66.683998 73.356003 76.692001 79.356003 85.356003 92.028 95.363998 98.699997 109.368"
           style="font-size:12px;font-variant:normal;font-weight:normal;writing-mode:lr-tb;fill:#000000;fill-opacity:1;fill-rule:nonzero;stroke:none;font-family:Helvetica;-inkscape-font-specification:Helvetica">Dilatação relativa [%]</tspan><tspan
           id="tspan224"
           sodipodi:role="line"
           y="392.25"
           x="9.0359402 16.367941 23.03994 33.035938 39.707939 46.37994 50.375938 57.047939 60.383942 67.055939 71.051941 77.723938 81.059937 84.395943 89.195938 97.85994"
           style="font-size:12px;font-variant:normal;font-weight:normal;writing-mode:lr-tb;fill:#000000;fill-opacity:1;fill-rule:nonzero;stroke:none;font-family:Helvetica;-inkscape-font-specification:Helvetica">Temperatura [°C]</tspan></text>
<text
         id="text226"
         transform="matrix(1,0,0,-1,171.209,4.4)"><tspan
           id="tspan228"
           sodipodi:role="line"
           y="0"
           x="0 7.3319998 14.004 24 30.672001 37.344002 40.68 44.015999 54.012001 56.675999 63.348"
           style="font-size:12px;font-variant:normal;font-weight:normal;writing-mode:lr-tb;fill:#000000;fill-opacity:1;fill-rule:nonzero;stroke:none;font-family:Helvetica;-inkscape-font-specification:Helvetica">Tempo [min]</tspan><tspan
           id="tspan230"
           sodipodi:role="line"
           y="-220"
           x="87.526604 96.190598 98.854599 101.5186 108.1906 111.5266 118.1986 124.1986 130.87061"
           style="font-size:12px;font-variant:normal;font-weight:normal;writing-mode:lr-tb;fill:#000000;fill-opacity:1;fill-rule:nonzero;stroke:none;font-family:Helvetica;-inkscape-font-specification:Helvetica">Dilatação</tspan></text>
</g><path
       inkscape:connector-curvature="0"
       id="path232"
       style="fill:none;stroke:#000000;stroke-width:0.5;stroke-linecap:butt;stroke-linejoin:miter;stroke-miterlimit:3.79999995;stroke-opacity:1;stroke-dasharray:none"
       d="m 315.95,228.4 31.95,0 m -199.65,9.15 0,-1.4 0.05,-0.3 0,-1.75 0.05,-0.4 0,-1.1 0.05,-0.65 0,-1.55 0.05,-0.4 0,-1.3 0.05,-0.65 0,-0.95 0.05,-0.5 0,-1.7 0.05,-0.3 0,-1.25 0.05,-0.4 0,-1.65 0.05,-0.4 0,-1.3 0.05,-0.4 0,-1.5 0.05,-0.5 0,-1.25 0.05,-0.4 0,-1.15 0.05,-0.5 0,-1.5 0.05,-0.35 0,-1.35 0.05,-0.3 0,-1.6 0.05,-0.35 0,-1.25 0.05,-0.45 0,-1.15 0.05,-0.35 0,-1.75 0.05,-0.25 0,-1.15 0.05,-0.6 0,-1.4 0.05,-0.4 0,-1.2 0.05,-0.5 0,-1.45" /><path
       inkscape:connector-curvature="0"
       id="path234"
       style="fill:none;stroke:#000000;stroke-width:0.5;stroke-linecap:butt;stroke-linejoin:miter;stroke-miterlimit:3.79999995;stroke-opacity:1;stroke-dasharray:none"
       d="m 149.35,196.55 0.05,-0.35 0,-1.25 0.05,-0.4 0,-1.25 0.05,-0.35 0,-1.45 0.05,-0.3 0,-1.25 0.05,-0.4 0,-1.55 0.05,-0.4 0,-1.25 0.05,-0.45 0,-1.15 0.05,-0.25 0,-1.55 0.05,-0.4 0,-1.15 0.05,-0.35 0,-1.65 0.05,-0.35 0,-1.05 0.05,-0.5 0,-1.65 0.05,-0.4 0,-1.05 0.05,-0.5 0,-1.05 0.05,-0.4 0,-1.6 0.05,-0.5 0,-1.2 0.05,-0.45 0,-1.4 0.05,-0.5 0,-1.2 0.05,-0.3 0,-1.3 0.05,-0.4 0,-1.65 0.05,-0.35 0,-1.25 0.05,-0.45 0,-1.55 0.05,-0.45 0,-1.25 0.05,-0.35 0,-0.85" /><path
       inkscape:connector-curvature="0"
       id="path236"
       style="fill:none;stroke:#000000;stroke-width:0.5;stroke-linecap:butt;stroke-linejoin:miter;stroke-miterlimit:3.79999995;stroke-opacity:1;stroke-dasharray:none"
       d="m 150.55,155.45 0,-0.8 0.05,-0.5 0,-1.1 0.05,-0.55 0,-1.15 0.05,-0.3 0,-1.8 0.05,-0.45 0,-1.25 0.05,-0.35 0,-1.6 0.05,-0.5 0,-1.25 0.05,-0.2 0,-1.4 0.05,-0.5 0,-1.65 0.05,-0.4 0,-1.15 0.05,-0.5 0,-1.45 0.05,-0.6 0,-1.25 0.05,-0.3 0,-1.7 0.05,-0.3 0,-1.35 0.05,-0.3 0,-1.35 0.05,-0.35 0,-1.6 0.05,-0.4 0,-1.2 0.05,-0.4 0,-1.5 0.05,-0.45 0,-1.35 0.05,-0.3 0,-1.15 0.05,-0.5 0,-1.55 0.05,-0.35 0,-1.25 0.05,-0.35 0,-1.55 0.05,-0.4 0,-1.25 0.05,-0.3" /><path
       inkscape:connector-curvature="0"
       id="path238"
       style="fill:none;stroke:#000000;stroke-width:0.5;stroke-linecap:butt;stroke-linejoin:miter;stroke-miterlimit:3.79999995;stroke-opacity:1;stroke-dasharray:none"
       d="m 151.75,113.25 0,-1.55 0.05,-0.45 0,-1 0.05,-0.4 0,-1.2 0.05,-0.35 0,-1.65 0.05,-0.3 0,-1.15 0.05,-0.5 0,-1.45 0.05,-0.3 0,-1.2 0.05,-0.35 0,-1.15 0.05,-0.3 0,-1.6 0.05,-0.35 0,-1.1 0.05,-0.4 0,-1.45 0.05,-0.4 0,-1.1 0.05,-0.4 0,-1.45 0.05,-0.45 0,-1.15 0.05,-0.25 0,-1.1 0.05,-0.15 0,-1.65 0.05,-0.3 0,-1.1 0.05,-0.45 0,-1.35 0.05,-0.25 0,-1.25 0.05,-0.25 0,-1.2 0.05,-0.4 0,-1.55 0.05,-0.25 0,-1.05 0.05,-0.4 0,-1.5 0.05,-0.4 0,-0.6" /><path
       inkscape:connector-curvature="0"
       id="path240"
       style="fill:none;stroke:#000000;stroke-width:0.5;stroke-linecap:butt;stroke-linejoin:miter;stroke-miterlimit:3.79999995;stroke-opacity:1;stroke-dasharray:none"
       d="m 152.9,74.65 0,-0.45 0.05,-0.4 0,-1.4 0.05,-0.35 0,-1.1 0.05,-0.35 0,-1.05 0.05,-0.35 0,-1.4 0.05,-0.4 0,-1.1 0.05,-0.35 0,-1.35 0.05,-0.3 0,-1 0.05,-0.3 0,-1 0.05,-0.25 0,-1.25 0.05,-0.3 0,-0.9 0.05,-0.25 0,-0.85 0.05,-0.3 0,-0.65 0.05,-0.3 0,-0.65 0.05,-0.15 0,-0.55 0.05,-0.15 0,-0.1 0.05,0.1 0,-0.3 0.05,0 0,-0.2 0,0.2 0.05,0.05 0,0.1 0,-0.05 0,0.05 0.05,0.05 0,0.15 0,-0.1 0,0.2 0.05,0.05 0,0.4 0.05,0.05 0,0.15 0,-0.1 0,0.5 0.05,0.05 0,0.35 0.05,0.05 0,0.85 0.05,-0.1 0,0.55 0.05,0.35" /><path
       inkscape:connector-curvature="0"
       id="path242"
       style="fill:none;stroke:#000000;stroke-width:0.5;stroke-linecap:butt;stroke-linejoin:miter;stroke-miterlimit:3.79999995;stroke-opacity:1;stroke-dasharray:none"
       d="m 154.15,58.75 0,0.4 0.05,0.2 0,0.8 0.05,0.2 0,0.45 0.05,0.1 0.2,4.15 0.2,1.05 0.2,0.55 0.2,0.5 0.25,0.3 0.2,0.25 0.2,0.4 0.2,0.4 0.2,0.45 0.25,0.45 0.2,0.5 0.2,0.45 0.2,0.5 0.2,0.65 0.25,0.45 0.2,0.6 0.2,0.4 0.2,0.7 0.2,0.7 0.25,0.4 0.2,0.55 0.2,0.75 0.2,0.4 0.25,0.65 0.2,0.55 0.2,0.6 0.2,0.7 0.2,0.5 0.25,0.6 0.2,0.5 0.2,0.55 0.2,0.75 0.2,0.5 0.25,0.5 0.2,0.7 0.2,0.4 0.2,0.7 0.2,0.55 0.25,0.55 0.2,0.65 0.2,0.5 0.2,0.65 0.2,0.55 0.25,0.55 0.2,0.7 0.2,0.35 0.2,0.85 0.2,0.4 0.25,0.6 0.2,0.45 0.2,0.55 0.2,0.5 0.2,0.75 0.25,0.45 0.2,0.65 0.2,0.55 0.2,0.55 0.25,0.45 0.2,0.55 0.2,0.65 0.2,0.4 0.2,0.65 0.25,0.55 0.2,0.6 0.2,0.35 0.2,0.6 0.2,0.55 0.25,0.4 0.2,0.65 0.2,0.65 0.2,0.4 0.2,0.45 0.25,0.6 0.2,0.5 0.2,0.55 0.2,0.55 0.2,0.35 0.25,0.5 0.2,0.55 0.2,0.45 0.2,0.6 0.25,0.45 0.2,0.45 0.2,0.45 0.2,0.4 0.2,0.55 0.25,0.45 0.2,0.5 0.2,0.55 0.2,0.35 0.2,0.5 0.25,0.4" /><path
       inkscape:connector-curvature="0"
       id="path244"
       style="fill:none;stroke:#000000;stroke-width:0.5;stroke-linecap:butt;stroke-linejoin:miter;stroke-miterlimit:3.79999995;stroke-opacity:1;stroke-dasharray:none"
       d="m 173.65,113.6 0.2,0.5 0.2,0.3 0.2,0.55 0.2,0.45 0.25,0.45 0.2,0.4 0.2,0.55 0.2,0.6 0.2,0.35 0.25,0.4 0.2,0.35 0.2,0.35 0.2,0.4 0.2,0.3 0.25,0.2 0.2,0.15 0.2,0.25 0.2,0.15 0.2,0.2 0.25,0.05 0.2,0.25 0.2,0.25 0.2,0.05 0.25,0 0.2,0.2 0.2,0.3 0.2,-0.1 0.2,0.2 0.25,0.2 0.2,0.05 0.2,-0.05 0.2,0.3 0.2,0.15 0.25,0.05 0.2,0.1 0.2,0.1 0.2,0.2 0.2,-0.15 0.25,0.15 0.2,-0.05 0.2,0.2 0.2,0.05 0.2,-0.05 0.25,0.2 0.2,0.05 0.2,0.05 0.2,-0.1 0.2,0.15 0.25,-0.05 0.2,0.2 0.65,0 0.2,0.1 0.2,0.05 0.2,0.15 0.2,-0.25 0.25,0.35 0.2,-0.2 0.4,0 0.2,0.25 0.25,-0.1 0.2,0.05 0.2,0.05 0.2,0.05 0.2,-0.1 0.25,0.15 0.2,0 0.2,0.2 0.2,-0.15 0.2,0.2 0.25,0 0.2,-0.05 0.4,0 0.2,0.1 0.25,0.1 0.2,0 0.2,-0.05 0.2,0.05 0.25,-0.05 0.2,0.05 0.2,0.2 0.2,-0.05 0.2,-0.05 0.25,0.05 0.2,0.1 0.2,0.05 0.2,-0.05 0.2,0.05 0.25,0.1 0.2,-0.1 0.2,0 0.2,0.1 0.2,0.1 0.25,-0.1 0.2,0.05 0.2,-0.05 0.2,0.15 0.2,-0.2 0.25,0.15 0.2,-0.15 0.2,0.15" /><path
       inkscape:connector-curvature="0"
       id="path246"
       style="fill:none;stroke:#000000;stroke-width:0.5;stroke-linecap:butt;stroke-linejoin:miter;stroke-miterlimit:3.79999995;stroke-opacity:1;stroke-dasharray:none"
       d="m 195.5,124.9 0.2,0.05 0.2,-0.05 0.25,0.05 0.2,0.1 0.2,-0.05 0.2,0 0.25,-0.1 0.2,0.05 0.2,-0.15 0.2,0.35 0.2,-0.15 0.25,0 0.2,0.1 0.2,-0.05 0.2,-0.05 0.2,-0.1 0.25,0.15 0.2,-0.25 0.2,0.4 0.2,0.2 0.2,-0.45 0.25,0.15 0.2,0.15 0.2,0.1 0.2,-0.15 0.2,0.15 0.25,-0.1 0.2,0.15 0.2,-0.15 0.2,-0.1 0.2,0.15 0.25,0.05 0.2,-0.1 0.2,0.2 0.2,-0.05 0.2,0.1 0.25,-0.05 0.2,-0.05 0.2,0.1 0.2,-0.05 0.25,0 0.2,0.1 0.2,-0.15 0.2,0.05 0.2,0.05 0.25,0.05 0.2,-0.15 0.2,0.15 0.2,-0.1 0.2,0.1 0.25,0 0.2,0.05 0.2,-0.2 0.2,0.05 0.2,-0.1 0.25,0.2 0.2,0.05 0.2,0.2 0.2,-0.05 0.2,-0.1 0.25,0.05 0.2,0.05 0.2,0.05 0.2,0 0.2,-0.05 0.25,0 0.2,0.05 0.2,0 0.2,0.1 0.25,-0.15 0.2,0.05 0.2,0.15 0.2,0.05 0.2,-0.1 0.25,-0.1 0.2,0.05 0.2,-0.05 0.2,-0.15 0.2,0.1 0.25,0 0.2,-0.1 0.2,0.05 0.2,-0.2 0.2,0.15 0.25,-0.05 0.2,0 0.2,0.1 0.2,0.15 0.2,0 0.25,-0.05 0.2,-0.05 0.2,-0.1 0.2,0.15 0.2,0.25 0.25,-0.15 0.2,0.05 0.2,-0.3 0.2,0.05 0.25,0.05 0.2,0.15 0.2,0 0.2,0.1 0.2,0.2 0.25,-0.3" /><path
       inkscape:connector-curvature="0"
       id="path248"
       style="fill:none;stroke:#000000;stroke-width:0.5;stroke-linecap:butt;stroke-linejoin:miter;stroke-miterlimit:3.79999995;stroke-opacity:1;stroke-dasharray:none"
       d="m 217.4,125.9 0.05,0.1 0.05,0 0.05,0.3 0.05,0.2 0.05,0.2 0.05,0.2 0.05,0.3 0.05,0.3 0.05,0.15 0.1,0.45 0.05,0.5 0.05,-0.1 0.05,0.35 0.05,0.35 0.05,0.05 0.05,0.55 0.05,0.25 0.05,0.35 0.05,0.25 0.05,0.15 0.05,0.35 0.05,0.4 0.05,0.2 0.05,0.3 0.05,0.15 0.05,0.15 0.05,0.3 0.1,0.3 0.05,0.55 0.05,0.25 0.05,0.1 0.05,0.3 0.05,0.1 0.05,0.5 0.05,0.15 0.05,0.45 0.05,0.35 0.05,0.1 0.05,0.55 0.05,0.15 0.05,0.2 0.05,0.1 0.05,0.35 0.05,0.5 0.05,0 0.1,0.45 0.05,0.25 0.05,0.35 0.05,0.25 0.05,0.3 0.05,0.25 0.05,0.25 0.05,0.4 0.05,0.35 0.05,0.35 0.05,0.25 0.05,0.35 0.05,0.4 0.05,0.1 0.05,0.25 0.05,0.35 0.05,0.35 0.1,0.05 0.05,0.45 0.05,0.3 0.05,0.3 0.05,0.2 0.05,0.25 0.05,0.6 0.05,0.05 0.05,0.25 0.05,0.35 0.05,0.25 0.05,0.2 0.05,0.3 0.05,0.5 0.05,0.15 0.05,0.1 0.05,0.45 0.05,0.25 0.1,0.65 0.05,0.15 0.05,0.15 0.05,0.25 0.05,0.4 0.05,0.05 0.05,0.5 0.05,0.15 0.05,0.4 0.05,0.15 0.05,0.2 0.05,0.4 0.05,0.3 0.05,0.35 0.05,0.1 0.05,0.4 0.05,0.25 0.05,0.1 0.1,0.5 0.05,0.25 0.05,0.35 0.05,0.1 0.05,0.5 0.05,0.3" /><path
       inkscape:connector-curvature="0"
       id="path250"
       style="fill:none;stroke:#000000;stroke-width:0.5;stroke-linecap:butt;stroke-linejoin:miter;stroke-miterlimit:3.79999995;stroke-opacity:1;stroke-dasharray:none"
       d="m 222.9,154.85 0.05,0.35 0.05,0.2 0.05,0.25 0.05,0.4 0.05,0.2 0.05,0.25 0.05,0.25 0.05,0.2 0.05,0.05 0.05,0.45 0.05,0.25 0.1,0.4 0.05,0.2 0.05,0.5 0.05,0.2 0.05,0.05 0.05,0.4 0.05,0.3 0.05,0.3 0.05,0.2 0.05,0.4 0.05,0.05 0.05,0.6 0.05,0.25 0.05,0.15 0.05,0.45 0.05,0.5 0.05,-0.05 0.05,0.05 0.1,0.5 0.05,0.25 0.05,0.3 0.05,0.05 0.05,0.5 0.05,0.2 0.05,0.4 0.05,0.35 0.05,0.15 0.05,0.15 0.05,0.3 0.05,0.45 0.05,0.4 0.05,0.15 0.05,0.25 0.05,0.2 0.05,0.25 0.05,0.35 0.1,0.3 0.05,0.35 0.05,0.2 0.05,0.05 0.05,0.55 0.05,0.1 0.05,0.4 7.55,0.05 7.6,0.15 7.55,0.1 7.6,0.15 7.55,0.2 7.6,0.1 7.55,0.35 7.55,0.3 7.6,0.3 7.55,0.25 7.6,0.4 7.55,0.2 7.6,0.35 7.55,0.4 7.6,0.25 7.55,0.35 7.55,0.25 7.6,0.25 0.25,0" /><g
       id="g252"><text
         id="text254"
         transform="matrix(1,0,0,-1,240.064,212.4)"><tspan
           id="tspan256"
           sodipodi:role="line"
           y="0"
           x="0 7.3319998 14.004 24 30.672001 37.344002 41.34 48.012001 51.348 58.02 62.015999"
           style="font-size:12px;font-variant:normal;font-weight:normal;writing-mode:lr-tb;fill:#000000;fill-opacity:1;fill-rule:nonzero;stroke:none;font-family:Helvetica;-inkscape-font-specification:Helvetica">Temperatura</tspan></text>
</g><path
       inkscape:connector-curvature="0"
       id="path258"
       style="fill:none;stroke:#000000;stroke-width:0.5;stroke-linecap:butt;stroke-linejoin:miter;stroke-miterlimit:3.79999995;stroke-opacity:1;stroke-dasharray:2, 1;stroke-dashoffset:0"
       d="m 315.95,216.4 31.95,0 m -198.45,21.15 0,-0.05 0.05,-0.2 0,-1 0.05,-0.25 0,-0.85 0.05,-0.3 0,-0.9 0.05,-0.25 0,-0.85 0.05,-0.25 0,-0.65 0.05,-0.25 0,-0.85 0.05,-0.2 0,-0.65 0.05,-0.25 0,-1.1 0.05,-0.25 0,-0.75 0.05,-0.25 0,-1.05 0.05,-0.25 0,-0.7 0.05,-0.3 0,-0.85 0.05,-0.25 0,-0.95 0.05,-0.2 0,-0.85 0.05,-0.25 0,-1.1 0.05,-0.25 0,-0.7 0.05,-0.3 0,-1 0.05,-0.2 0,-1 0.05,-0.2 0,-0.8 0.05,-0.25 0,-0.95 0.05,-0.25 0,-0.95 0.05,-0.3 0,-0.85 0.05,-0.25 0,-0.35" /><path
       inkscape:connector-curvature="0"
       id="path260"
       style="fill:none;stroke:#000000;stroke-width:0.5;stroke-linecap:butt;stroke-linejoin:miter;stroke-miterlimit:3.79999995;stroke-opacity:1;stroke-dasharray:2, 1;stroke-dashoffset:0"
       d="m 150.6,212.1 0,-0.3 0.05,-0.35 0,-0.95 0.05,-0.25 0,-1.1 0.05,-0.45 0,-1.15 0.05,-0.2 0,-0.9 0.05,-0.25 0,-0.8 0.05,-0.35 0,-0.8 0.05,-0.25 0,-1.3 0.05,-0.25 0,-0.95 0.05,-0.15 0,-1.15 0.05,-0.3 0,-0.8 0.05,-0.25 0,-1.35 0.05,-0.35 0,-0.7 0.05,-0.15 0,-0.85 0.05,-0.25 0,-1.05 0.05,-0.25 0,-0.8 0.05,-0.3 0,-1.2 0.05,-0.25 0,-1.05 0.05,-0.3 0,-0.5 0.05,-0.25 0,-1.2 0.05,-0.3 0,-0.75 0.05,-0.2 0,-0.9 0.05,-0.35 0,-0.8 0.05,-0.3 0,-0.85 0.05,-0.25" /><path
       inkscape:connector-curvature="0"
       id="path262"
       style="fill:none;stroke:#000000;stroke-width:0.5;stroke-linecap:butt;stroke-linejoin:miter;stroke-miterlimit:3.79999995;stroke-opacity:1;stroke-dasharray:2, 1;stroke-dashoffset:0"
       d="m 151.8,183.35 0,-0.95 0.05,-0.25 0,-0.8 0.05,-0.4 0,-1.05 0.05,-0.25 0,-0.65 0.05,-0.25 0,-1.1 0.05,-0.25 0,-0.6 0.05,-0.3 0,-0.8 0.05,-0.25 0,-1.1 0.05,-0.2 0,-0.9 0.05,-0.25 0,-1 0.05,-0.2 0,-0.75 0.05,-0.2 0,-0.95 0.05,-0.3 0,-0.75 0.05,-0.2 0,-0.7 0.05,-0.25 0,-0.95 0.05,-0.2 0,-0.8 0.05,-0.2 0,-1.15 0.05,-0.3 0,-1.1 0.05,-0.2 0,-0.55 0.05,-0.25 0,-1.25 0.05,-0.25 0,-0.65 0.05,-0.35 0,-0.95 0.05,-0.2 0,-0.8 0.05,-0.3 0,-0.75" /><path
       inkscape:connector-curvature="0"
       id="path264"
       style="fill:none;stroke:#000000;stroke-width:0.5;stroke-linecap:butt;stroke-linejoin:miter;stroke-miterlimit:3.79999995;stroke-opacity:1;stroke-dasharray:2, 1;stroke-dashoffset:0"
       d="m 152.95,156.5 0,-0.35 0.05,-0.4 0,-0.85 0.05,-0.25 0,-0.75 0.05,-0.15 0,-0.9 0.05,-0.25 0,-0.95 0.05,-0.25 0,-0.95 0.05,-0.25 0,-0.7 0.05,-0.25 0,-0.7 0.05,-0.3 0,-0.95 0.05,-0.35 0,-0.65 0.05,-0.2 0,-0.85 0.05,-0.3 0,-0.6 0.05,-0.15 0,-0.75 0.05,-0.15 0,-0.6 0.05,-0.2 0,-0.45 0.05,-0.15 0,-0.7 0.05,-0.15 0,-0.45 0.05,-0.2 0,-0.4 0.05,-0.2 0,-0.35 0.05,-0.1 0,-0.25 0.05,-0.2 0,0.05 0,-0.45 0.05,-0.25 0,-0.5 0.05,-0.15 0,-0.3 0,0.05 0.05,-0.15 0,-0.35 0.05,-0.25 0,-0.1" /><path
       inkscape:connector-curvature="0"
       id="path266"
       style="fill:none;stroke:#000000;stroke-width:0.5;stroke-linecap:butt;stroke-linejoin:miter;stroke-miterlimit:3.79999995;stroke-opacity:1;stroke-dasharray:2, 1;stroke-dashoffset:0"
       d="m 154.15,136.5 0,-0.1 0.05,-0.1 0,-0.5 0.05,-0.1 0,-0.5 0.05,-0.3 0.2,6.4 0.2,0.45 0.2,-0.05 0.2,-0.2 0.25,-0.15 0.2,-0.25 0.2,-0.25 0.2,-0.2 0.2,-0.25 0.25,-0.25 0.2,-0.2 0.2,-0.25 0.2,-0.15 0.2,-0.3 0.25,-0.25 0.2,-0.15 0.2,-0.3 0.2,-0.25 0.2,-0.2 0.25,-0.2 0.2,-0.2 0.2,-0.25 0.2,-0.2 0.25,-0.25 0.2,-0.2 0.2,-0.2 0.2,-0.25 0.2,-0.2 0.25,-0.2 0.2,-0.2 0.2,-0.2 0.2,-0.25 0.2,-0.2 0.25,-0.15 0.2,-0.25 0.2,-0.2 0.2,-0.15 0.2,-0.25 0.25,-0.15 0.2,-0.25 0.2,-0.2 0.2,-0.15 0.2,-0.2 0.25,-0.2 0.2,-0.25 0.2,-0.15 0.2,-0.2 0.2,-0.25 0.25,-0.2 0.2,-0.2 0.2,-0.2 0.2,-0.15 0.2,-0.15 0.25,-0.25 0.2,-0.15 0.2,-0.2 0.2,-0.2 0.25,-0.2 0.2,-0.2 0.2,-0.2 0.2,-0.15 0.2,-0.15 0.25,-0.25 0.2,-0.2 0.2,-0.15 0.2,-0.2 0.2,-0.15 0.25,-0.2 0.2,-0.2 0.2,-0.25 0.2,-0.15 0.2,-0.2 0.25,-0.2 0.2,-0.2 0.2,-0.2 0.2,-0.15 0.2,-0.2 0.25,-0.15 0.2,-0.25 0.2,-0.1 0.2,-0.2 0.25,-0.25 0.2,-0.1 0.2,-0.15 0.2,-0.25 0.2,-0.15 0.25,-0.15 0.2,-0.2 0.2,-0.25 0.2,-0.1 0.2,-0.3 0.25,-0.15 0.2,-0.15" /><path
       inkscape:connector-curvature="0"
       id="path268"
       style="fill:none;stroke:#000000;stroke-width:0.5;stroke-linecap:butt;stroke-linejoin:miter;stroke-miterlimit:3.79999995;stroke-opacity:1;stroke-dasharray:2, 1;stroke-dashoffset:0"
       d="m 173.85,123.7 0.2,-0.25 0.2,-0.1 0.2,-0.2 0.25,-0.2 0.2,-0.1 0.2,0.1 0.4,0 0.25,-0.05 0.2,0.15 0.85,0 0.2,-0.05 0.2,0.05 0.65,0 0.2,-0.05 0.2,0.05 0.85,0 0.2,-0.05 0.2,0.05 0.45,0 0.2,0.05 0.2,-0.1 0.2,0.1 0.25,-0.05 0.2,0.05 0.2,-0.05 0.2,0 0.2,-0.05 0.25,0.1 0.2,-0.05 0.2,-0.05 0.2,0.05 0.2,0 0.25,-0.05 0.2,0.05 0.4,0 0.2,-0.05 0.25,0.05 0.2,-0.05 0.2,0 0.2,0.05 0.65,0 0.2,-0.05 0.2,0 0.25,0.05 0.2,-0.05 0.2,0.05 0.2,-0.05 0.2,0.05 1.5,0 0.2,-0.05 0.2,0.05 0.65,0 0.2,-0.05 0.2,0 0.2,0.05 0.25,0.05 0.2,-0.05 0.85,0 0.2,-0.05 0.4,0 0.25,0.05 0.2,0 0.2,-0.05 0.2,0.05 0.2,0 0.25,-0.05 0.2,0.05 0.4,0 0.2,-0.05 0.25,0.05 0.2,-0.05 0.2,0.05 0.4,0 0.25,-0.05 0.2,0 0.2,0.05 0.2,0" /><path
       inkscape:connector-curvature="0"
       id="path270"
       style="fill:none;stroke:#000000;stroke-width:0.5;stroke-linecap:butt;stroke-linejoin:miter;stroke-miterlimit:3.79999995;stroke-opacity:1;stroke-dasharray:2, 1;stroke-dashoffset:0"
       d="m 195.7,123.05 1.05,0 0.25,-0.05 0.2,0.05 0.2,0 0.2,-0.05 0.2,0 0.25,0.05 0.2,0 0.2,-0.05 0.2,0.05 0.2,0 0.25,-0.05 0.2,0.1 0.2,-0.1 0.2,0.1 0.2,-0.05 0.85,0 0.2,-0.05 0.25,0.05 0.8,0 0.25,-0.05 0.2,0.05 0.2,0 0.2,-0.05 0.2,0 0.25,0.05 0.4,0 0.2,-0.05 0.25,0.05 0.2,0 0.2,-0.05 0.2,0.05 0.45,0 0.2,0.05 0.2,-0.1 0.4,0 0.25,0.05 0.2,0 0.2,-0.05 0.2,0.05 0.2,-0.05 0.25,0.05 0.2,0 0.2,-0.05 0.2,0.1 0.2,-0.1 0.25,0.05 0.4,0 0.2,-0.05 0.2,0.05 0.25,0.05 0.2,-0.05 0.2,-0.05 0.2,0.05 0.25,-0.05 0.2,0.05 1.25,0 0.2,0.05 0.2,-0.05 0.25,-0.05 0.2,0.05 0.4,0 0.2,0.05 0.25,-0.05 0.2,-0.05 0.6,0 0.25,0.05 1.05,0 0.2,-0.05 0.2,0 0.2,0.05 0.25,-0.05 0.2,0 0.2,0.05 0.2,-0.05 0.2,0.05 0.3,0" /><path
       inkscape:connector-curvature="0"
       id="path272"
       style="fill:none;stroke:#000000;stroke-width:0.5;stroke-linecap:butt;stroke-linejoin:miter;stroke-miterlimit:3.79999995;stroke-opacity:1;stroke-dasharray:2, 1;stroke-dashoffset:0"
       d="m 217.45,123.05 0.05,0.2 0.05,0.15 0.05,0.4 0.05,0.4 0.05,0.25 0.05,0.3 0.05,0.3 0.05,0.25 0.1,0.35 0.05,0.25 0.05,0.2 0.05,0.3 0.05,0.2 0.05,0.3 0.05,0.25 0.05,0.2 0.05,0.3 0.05,0.25 0.05,0.2 0.05,0.3 0.05,0.25 0.05,0.25 0.05,0.2 0.05,0.25 0.05,0.25 0.05,0.25 0.1,0.25 0.05,0.25 0.05,0.3 0.05,0.2 0.05,0.25 0.05,0.35 0.05,0.2 0.05,0.15 0.05,0.35 0.05,0.2 0.05,0.25 0.05,0.25 0.05,0.25 0.05,0.3 0.05,0.2 0.05,0.25 0.05,0.25 0.05,0.3 0.1,0.25 0.05,0.2 0.05,0.25 0.05,0.25 0.05,0.3 0.05,0.25 0.05,0.2 0.05,0.3 0.05,0.2 0.05,0.3 0.05,0.2 0.05,0.3 0.05,0.2 0.05,0.25 0.05,0.3 0.05,0.25 0.05,0.25 0.1,0.25 0.05,0.2 0.05,0.25 0.05,0.25 0.05,0.2 0.05,0.35 0.05,0.3 0.05,0.2 0.05,0.2 0.05,0.25 0.05,0.25 0.05,0.3 0.05,0.25 0.05,0.25 0.05,0.2 0.05,0.25 0.05,0.2 0.05,0.3 0.1,0.3 0.05,0.2 0.05,0.3 0.05,0.25 0.05,0.25 0.05,0.2 0.05,0.25 0.05,0.3 0.05,0.25 0.05,0.2 0.05,0.3 0.05,0.25 0.05,0.2 0.05,0.3 0.05,0.25 0.05,0.25 0.05,0.2 0.05,0.25 0.1,0.3 0.05,0.2 0.05,0.3 0.05,0.25 0.05,0.25 0.05,0.2 0.05,0.3" /><path
       inkscape:connector-curvature="0"
       id="path274"
       style="fill:none;stroke:#000000;stroke-width:0.5;stroke-linecap:butt;stroke-linejoin:miter;stroke-miterlimit:3.79999995;stroke-opacity:1;stroke-dasharray:2, 1;stroke-dashoffset:0"
       d="m 222.95,149.4 0.05,0.25 0.05,0.25 0.05,0.25 0.05,0.25 0.05,0.25 0.05,0.25 0.05,0.2 0.05,0.25 0.05,0.25 0.05,0.25 0.1,0.3 0.05,0.25 0.05,0.2 0.05,0.25 0.05,0.2 0.05,0.35 0.05,0.3 0.05,0.2 0.05,0.25 0.05,0.2 0.05,0.35 0.05,0.15 0.05,0.3 0.05,0.25 0.05,0.25 0.05,0.25 0.05,0.25 0.05,0.25 0.1,0.3 0.05,0.15 0.05,0.3 0.05,0.25 0.05,0.2 0.05,0.3 0.05,0.25 0.05,0.25 0.05,0.25 0.05,0.25 0.05,0.2 0.05,0.25 0.05,0.25 0.05,0.25 0.05,0.3 0.05,0.2 0.05,0.35 0.05,0.15 0.1,0.25 0.05,0.25 0.05,0.3 0.05,0.25 0.05,0.25 0.05,0.25 0.05,0.2 7.55,0.3 15.15,0 7.6,-0.05 7.55,0 7.6,0.05 7.55,-0.05 7.55,0.05 7.6,-0.05 22.7,0 7.6,-0.05 7.55,0.05 7.6,0.05 15.1,0 7.6,-0.05 0.25,0" /><path
       inkscape:connector-curvature="0"
       id="path276"
       style="fill:none;stroke:#000000;stroke-width:0.5;stroke-linecap:butt;stroke-linejoin:miter;stroke-miterlimit:3.79999995;stroke-opacity:1;stroke-dasharray:none"
       d="m 46.8,38.4 315.5,0 0,199.15 -315.5,0 0,-199.15 z" /><path
       style="fill:none;stroke:#000000;stroke-width:1px;stroke-linecap:butt;stroke-linejoin:miter;stroke-opacity:1"
       d="m 174.61078,137.96407 19.23757,0"
       id="path3261"
       inkscape:connector-curvature="0"
       transform="matrix(0.8,0,0,-0.8,0,252)" /><path
       style="fill:none;stroke:#000000;stroke-width:1px;stroke-linecap:butt;stroke-linejoin:miter;stroke-opacity:1"
       d="m 174.61078,161.00299 43.45968,0"
       id="path3263"
       inkscape:connector-curvature="0"
       transform="matrix(0.8,0,0,-0.8,0,252)" /><path
       style="fill:none;stroke:#000000;stroke-width:1px;stroke-linecap:butt;stroke-linejoin:miter;stroke-opacity:1;marker-end:url(#Arrow1Mend)"
       d="m 174.61078,110.27695 0,24.65568"
       id="path3265"
       inkscape:connector-curvature="0"
       transform="matrix(0.8,0,0,-0.8,0,252)" /><path
       style="fill:none;stroke:#000000;stroke-width:1px;stroke-linecap:butt;stroke-linejoin:miter;stroke-opacity:1;marker-end:url(#Arrow1Mend)"
       d="m 174.61078,185.52959 0,-22.15001"
       id="path3269"
       inkscape:connector-curvature="0"
       transform="matrix(0.8,0,0,-0.8,0,252)" /><path
       style="fill:none;stroke:#000000;stroke-width:0.2;stroke-linecap:butt;stroke-linejoin:miter;stroke-opacity:1;stroke-miterlimit:4;stroke-dasharray:0.8,0.8;stroke-dashoffset:0"
       d="m 192.63367,18.33271 0,249.22339"
       id="path4869"
       inkscape:connector-curvature="0"
       transform="matrix(0.8,0,0,-0.8,0,252)" /><path
       style="fill:none;stroke:#000000;stroke-width:0.2;stroke-linecap:butt;stroke-linejoin:miter;stroke-opacity:1;stroke-miterlimit:4;stroke-dasharray:0.8,0.8;stroke-dashoffset:0"
       d="m 271.5163,18.33271 0,249.22339"
       id="path4871"
       inkscape:connector-curvature="0"
       transform="matrix(0.8,0,0,-0.8,0,252)" /><path
       style="fill:none;stroke:#000000;stroke-width:0.2;stroke-linecap:butt;stroke-linejoin:miter;stroke-opacity:1;stroke-miterlimit:4;stroke-dasharray:0.8,0.8;stroke-dashoffset:0"
       d="m 282.37695,18.33271 0,249.22339"
       id="path4873"
       inkscape:connector-curvature="0"
       transform="matrix(0.8,0,0,-0.8,0,252)" /><text
       xml:space="preserve"
       style="font-size:9.60000038px;font-style:normal;font-variant:normal;font-weight:normal;font-stretch:normal;line-height:125%;letter-spacing:0px;word-spacing:0px;fill:#000000;fill-opacity:1;stroke:none;font-family:Arial;-inkscape-font-specification:Arial"
       x="60.195248"
       y="-141.62874"
       id="text4877"
       sodipodi:linespacing="125%"
       transform="scale(1,-1)"><tspan
         sodipodi:role="line"
         id="tspan4879"
         x="60.195248"
         y="-141.62874">Homozeneização</tspan><tspan
         sodipodi:role="line"
         x="60.195248"
         y="-129.62874"
         id="tspan4881">do gradiente de</tspan><tspan
         sodipodi:role="line"
         x="60.195248"
         y="-117.62874"
         id="tspan4883">temperatura</tspan></text>
<path
       style="fill:none;stroke:#000000;stroke-width:0.79999995px;stroke-linecap:butt;stroke-linejoin:miter;stroke-opacity:1;marker-start:url(#Arrow1Mstart);marker-end:url(#Arrow1Mend)"
       d="m 155.52093,183.83082 60.59535,0"
       id="path4887"
       inkscape:connector-curvature="0" /><path
       style="fill:none;stroke:#000000;stroke-width:1px;stroke-linecap:butt;stroke-linejoin:miter;stroke-opacity:1;marker-end:url(#Arrow1Mend)"
       d="m 282.37695,85.21147 57.5482,0"
       id="path4889"
       inkscape:connector-curvature="0"
       transform="matrix(0.8,0,0,-0.8,0,252)" /><text
       xml:space="preserve"
       style="font-size:9.60000038px;font-style:normal;font-variant:normal;font-weight:normal;font-stretch:normal;line-height:125%;letter-spacing:0px;word-spacing:0px;fill:#000000;fill-opacity:1;stroke:none;font-family:Arial;-inkscape-font-specification:Arial"
       x="165.13832"
       y="-197.90781"
       id="text5829"
       sodipodi:linespacing="125%"
       transform="scale(1,-1)"><tspan
         sodipodi:role="line"
         id="tspan5831"
         x="165.13832"
         y="-197.90781">Etapa de</tspan><tspan
         sodipodi:role="line"
         x="165.13832"
         y="-185.90781"
         id="tspan5833">têmpera</tspan></text>
<text
       xml:space="preserve"
       style="font-size:9.60000038px;font-style:normal;font-variant:normal;font-weight:normal;font-stretch:normal;line-height:125%;letter-spacing:0px;word-spacing:0px;fill:#000000;fill-opacity:1;stroke:none;font-family:Arial;-inkscape-font-specification:Arial"
       x="228.36107"
       y="-198.17567"
       id="text5835"
       sodipodi:linespacing="125%"
       transform="scale(1,-1)"><tspan
         sodipodi:role="line"
         id="tspan5837"
         x="228.36107"
         y="-198.17567">Etapa de</tspan><tspan
         sodipodi:role="line"
         x="228.36107"
         y="-186.17567"
         id="tspan5839">partição</tspan></text>
</g></svg>