<?xml version="1.0" encoding="utf-8" standalone="no"?>
<!DOCTYPE svg PUBLIC "-//W3C//DTD SVG 1.1//EN"
  "http://www.w3.org/Graphics/SVG/1.1/DTD/svg11.dtd">
<!-- Created with matplotlib (http://matplotlib.org/) -->
<svg height="274.748594pt" version="1.1" viewBox="0 0 390.508437 274.748594" width="390.508437pt" xmlns="http://www.w3.org/2000/svg" xmlns:xlink="http://www.w3.org/1999/xlink">
 <defs>
  <style type="text/css">
*{stroke-linecap:butt;stroke-linejoin:round;}
  </style>
 </defs>
 <g id="figure_1">
  <g id="patch_1">
   <path d="M 0 274.748594 
L 390.508437 274.748594 
L 390.508437 0 
L 0 0 
z
" style="fill:#ffffff;"/>
  </g>
  <g id="axes_1">
   <g id="patch_2">
    <path d="M 45.008438 232.46 
L 379.808438 232.46 
L 379.808438 10.7 
L 45.008438 10.7 
z
" style="fill:#ffffff;"/>
   </g>
   <g id="matplotlib.axis_1">
    <g id="xtick_1">
     <g id="line2d_1">
      <defs>
       <path d="M 0 0 
L 0 3.5 
" id="m76751d4fdc" style="stroke:#000000;stroke-width:0.8;"/>
      </defs>
      <g>
       <use style="stroke:#000000;stroke-width:0.8;" x="68.098093" xlink:href="#m76751d4fdc" y="232.46"/>
      </g>
     </g>
     <g id="text_1">
      <!-- −1.0 -->
      <defs>
       <path d="M 52.828125 31.203125 
L 5.5625 31.203125 
L 5.5625 39.40625 
L 52.828125 39.40625 
z
" id="ArialMT-2212"/>
       <path d="M 37.25 0 
L 28.46875 0 
L 28.46875 56 
Q 25.296875 52.984375 20.140625 49.953125 
Q 14.984375 46.921875 10.890625 45.40625 
L 10.890625 53.90625 
Q 18.265625 57.375 23.78125 62.296875 
Q 29.296875 67.234375 31.59375 71.875 
L 37.25 71.875 
z
" id="ArialMT-31"/>
       <path d="M 9.078125 0 
L 9.078125 10.015625 
L 19.09375 10.015625 
L 19.09375 0 
z
" id="ArialMT-2e"/>
       <path d="M 4.15625 35.296875 
Q 4.15625 48 6.765625 55.734375 
Q 9.375 63.484375 14.515625 67.671875 
Q 19.671875 71.875 27.484375 71.875 
Q 33.25 71.875 37.59375 69.546875 
Q 41.9375 67.234375 44.765625 62.859375 
Q 47.609375 58.5 49.21875 52.21875 
Q 50.828125 45.953125 50.828125 35.296875 
Q 50.828125 22.703125 48.234375 14.96875 
Q 45.65625 7.234375 40.5 3 
Q 35.359375 -1.21875 27.484375 -1.21875 
Q 17.140625 -1.21875 11.234375 6.203125 
Q 4.15625 15.140625 4.15625 35.296875 
z
M 13.1875 35.296875 
Q 13.1875 17.671875 17.3125 11.828125 
Q 21.4375 6 27.484375 6 
Q 33.546875 6 37.671875 11.859375 
Q 41.796875 17.71875 41.796875 35.296875 
Q 41.796875 52.984375 37.671875 58.78125 
Q 33.546875 64.59375 27.390625 64.59375 
Q 21.34375 64.59375 17.71875 59.46875 
Q 13.1875 52.9375 13.1875 35.296875 
z
" id="ArialMT-30"/>
      </defs>
      <g transform="translate(55.266686 248.765156)scale(0.13 -0.13)">
       <use xlink:href="#ArialMT-2212"/>
       <use x="58.398438" xlink:href="#ArialMT-31"/>
       <use x="114.013672" xlink:href="#ArialMT-2e"/>
       <use x="141.796875" xlink:href="#ArialMT-30"/>
      </g>
     </g>
    </g>
    <g id="xtick_2">
     <g id="line2d_2">
      <g>
       <use style="stroke:#000000;stroke-width:0.8;" x="140.253265" xlink:href="#m76751d4fdc" y="232.46"/>
      </g>
     </g>
     <g id="text_2">
      <!-- −0.5 -->
      <defs>
       <path d="M 4.15625 18.75 
L 13.375 19.53125 
Q 14.40625 12.796875 18.140625 9.390625 
Q 21.875 6 27.15625 6 
Q 33.5 6 37.890625 10.78125 
Q 42.28125 15.578125 42.28125 23.484375 
Q 42.28125 31 38.0625 35.34375 
Q 33.84375 39.703125 27 39.703125 
Q 22.75 39.703125 19.328125 37.765625 
Q 15.921875 35.84375 13.96875 32.765625 
L 5.71875 33.84375 
L 12.640625 70.609375 
L 48.25 70.609375 
L 48.25 62.203125 
L 19.671875 62.203125 
L 15.828125 42.96875 
Q 22.265625 47.46875 29.34375 47.46875 
Q 38.71875 47.46875 45.15625 40.96875 
Q 51.609375 34.46875 51.609375 24.265625 
Q 51.609375 14.546875 45.953125 7.46875 
Q 39.0625 -1.21875 27.15625 -1.21875 
Q 17.390625 -1.21875 11.203125 4.25 
Q 5.03125 9.71875 4.15625 18.75 
z
" id="ArialMT-35"/>
      </defs>
      <g transform="translate(127.421859 248.765156)scale(0.13 -0.13)">
       <use xlink:href="#ArialMT-2212"/>
       <use x="58.398438" xlink:href="#ArialMT-30"/>
       <use x="114.013672" xlink:href="#ArialMT-2e"/>
       <use x="141.796875" xlink:href="#ArialMT-35"/>
      </g>
     </g>
    </g>
    <g id="xtick_3">
     <g id="line2d_3">
      <g>
       <use style="stroke:#000000;stroke-width:0.8;" x="212.408438" xlink:href="#m76751d4fdc" y="232.46"/>
      </g>
     </g>
     <g id="text_3">
      <!-- 0.0 -->
      <g transform="translate(203.373438 248.765156)scale(0.13 -0.13)">
       <use xlink:href="#ArialMT-30"/>
       <use x="55.615234" xlink:href="#ArialMT-2e"/>
       <use x="83.398438" xlink:href="#ArialMT-30"/>
      </g>
     </g>
    </g>
    <g id="xtick_4">
     <g id="line2d_4">
      <g>
       <use style="stroke:#000000;stroke-width:0.8;" x="284.56361" xlink:href="#m76751d4fdc" y="232.46"/>
      </g>
     </g>
     <g id="text_4">
      <!-- 0.5 -->
      <g transform="translate(275.52861 248.765156)scale(0.13 -0.13)">
       <use xlink:href="#ArialMT-30"/>
       <use x="55.615234" xlink:href="#ArialMT-2e"/>
       <use x="83.398438" xlink:href="#ArialMT-35"/>
      </g>
     </g>
    </g>
    <g id="xtick_5">
     <g id="line2d_5">
      <g>
       <use style="stroke:#000000;stroke-width:0.8;" x="356.718782" xlink:href="#m76751d4fdc" y="232.46"/>
      </g>
     </g>
     <g id="text_5">
      <!-- 1.0 -->
      <g transform="translate(347.683782 248.765156)scale(0.13 -0.13)">
       <use xlink:href="#ArialMT-31"/>
       <use x="55.615234" xlink:href="#ArialMT-2e"/>
       <use x="83.398438" xlink:href="#ArialMT-30"/>
      </g>
     </g>
    </g>
    <g id="text_6">
     <!-- Posição (µm) -->
     <defs>
      <path d="M 7.71875 0 
L 7.71875 71.578125 
L 34.71875 71.578125 
Q 41.84375 71.578125 45.609375 70.90625 
Q 50.875 70.015625 54.4375 67.546875 
Q 58.015625 65.09375 60.1875 60.640625 
Q 62.359375 56.203125 62.359375 50.875 
Q 62.359375 41.75 56.546875 35.421875 
Q 50.734375 29.109375 35.546875 29.109375 
L 17.1875 29.109375 
L 17.1875 0 
z
M 17.1875 37.546875 
L 35.6875 37.546875 
Q 44.875 37.546875 48.734375 40.96875 
Q 52.59375 44.390625 52.59375 50.59375 
Q 52.59375 55.078125 50.3125 58.265625 
Q 48.046875 61.46875 44.34375 62.5 
Q 41.9375 63.140625 35.5 63.140625 
L 17.1875 63.140625 
z
" id="ArialMT-50"/>
      <path d="M 3.328125 25.921875 
Q 3.328125 40.328125 11.328125 47.265625 
Q 18.015625 53.03125 27.640625 53.03125 
Q 38.328125 53.03125 45.109375 46.015625 
Q 51.90625 39.015625 51.90625 26.65625 
Q 51.90625 16.65625 48.90625 10.90625 
Q 45.90625 5.171875 40.15625 2 
Q 34.421875 -1.171875 27.640625 -1.171875 
Q 16.75 -1.171875 10.03125 5.8125 
Q 3.328125 12.796875 3.328125 25.921875 
z
M 12.359375 25.921875 
Q 12.359375 15.96875 16.703125 11.015625 
Q 21.046875 6.0625 27.640625 6.0625 
Q 34.1875 6.0625 38.53125 11.03125 
Q 42.875 16.015625 42.875 26.21875 
Q 42.875 35.84375 38.5 40.796875 
Q 34.125 45.75 27.640625 45.75 
Q 21.046875 45.75 16.703125 40.8125 
Q 12.359375 35.890625 12.359375 25.921875 
z
" id="ArialMT-6f"/>
      <path d="M 3.078125 15.484375 
L 11.765625 16.84375 
Q 12.5 11.625 15.84375 8.84375 
Q 19.1875 6.0625 25.203125 6.0625 
Q 31.25 6.0625 34.171875 8.515625 
Q 37.109375 10.984375 37.109375 14.3125 
Q 37.109375 17.28125 34.515625 19 
Q 32.71875 20.171875 25.53125 21.96875 
Q 15.875 24.421875 12.140625 26.203125 
Q 8.40625 27.984375 6.46875 31.125 
Q 4.546875 34.28125 4.546875 38.09375 
Q 4.546875 41.546875 6.125 44.5 
Q 7.71875 47.46875 10.453125 49.421875 
Q 12.5 50.921875 16.03125 51.96875 
Q 19.578125 53.03125 23.640625 53.03125 
Q 29.734375 53.03125 34.34375 51.265625 
Q 38.96875 49.515625 41.15625 46.5 
Q 43.359375 43.5 44.1875 38.484375 
L 35.59375 37.3125 
Q 35.015625 41.3125 32.203125 43.546875 
Q 29.390625 45.796875 24.265625 45.796875 
Q 18.21875 45.796875 15.625 43.796875 
Q 13.03125 41.796875 13.03125 39.109375 
Q 13.03125 37.40625 14.109375 36.03125 
Q 15.1875 34.625 17.484375 33.6875 
Q 18.796875 33.203125 25.25 31.453125 
Q 34.578125 28.953125 38.25 27.359375 
Q 41.9375 25.78125 44.03125 22.75 
Q 46.140625 19.734375 46.140625 15.234375 
Q 46.140625 10.84375 43.578125 6.953125 
Q 41.015625 3.078125 36.171875 0.953125 
Q 31.34375 -1.171875 25.25 -1.171875 
Q 15.140625 -1.171875 9.84375 3.03125 
Q 4.546875 7.234375 3.078125 15.484375 
z
" id="ArialMT-73"/>
      <path d="M 6.640625 61.46875 
L 6.640625 71.578125 
L 15.4375 71.578125 
L 15.4375 61.46875 
z
M 6.640625 0 
L 6.640625 51.859375 
L 15.4375 51.859375 
L 15.4375 0 
z
" id="ArialMT-69"/>
      <path d="M 40.4375 19 
L 49.078125 17.875 
Q 47.65625 8.9375 41.8125 3.875 
Q 35.984375 -1.171875 27.484375 -1.171875 
Q 16.84375 -1.171875 10.375 5.78125 
Q 3.90625 12.75 3.90625 25.734375 
Q 3.90625 34.125 6.6875 40.421875 
Q 9.46875 46.734375 15.15625 49.875 
Q 20.84375 53.03125 27.546875 53.03125 
Q 35.984375 53.03125 41.359375 48.75 
Q 46.734375 44.484375 48.25 36.625 
L 39.703125 35.296875 
Q 38.484375 40.53125 35.375 43.15625 
Q 32.28125 45.796875 27.875 45.796875 
Q 21.234375 45.796875 17.078125 41.03125 
Q 12.9375 36.28125 12.9375 25.984375 
Q 12.9375 15.53125 16.9375 10.796875 
Q 20.953125 6.0625 27.390625 6.0625 
Q 32.5625 6.0625 36.03125 9.234375 
Q 39.5 12.40625 40.4375 19 
z
M 20.046875 -6.515625 
L 22.59375 2.125 
L 29.125 2.125 
L 27.515625 -3.109375 
Q 31.671875 -3.59375 33.765625 -5.65625 
Q 35.875 -7.734375 35.875 -10.28125 
Q 35.875 -13.9375 32.359375 -16.75 
Q 28.84375 -19.5625 21.75 -19.5625 
Q 17.75 -19.5625 14.71875 -18.96875 
L 15.265625 -13.265625 
Q 18.390625 -13.453125 19.859375 -13.453125 
Q 24.4375 -13.453125 26.296875 -12.1875 
Q 27.71875 -11.203125 27.71875 -9.796875 
Q 27.71875 -8.90625 27.15625 -8.21875 
Q 26.59375 -7.546875 25.078125 -7.046875 
Q 23.5625 -6.5625 20.046875 -6.515625 
z
" id="ArialMT-e7"/>
      <path d="M 40.4375 6.390625 
Q 35.546875 2.25 31.03125 0.53125 
Q 26.515625 -1.171875 21.34375 -1.171875 
Q 12.796875 -1.171875 8.203125 3 
Q 3.609375 7.171875 3.609375 13.671875 
Q 3.609375 17.484375 5.34375 20.625 
Q 7.078125 23.78125 9.890625 25.6875 
Q 12.703125 27.59375 16.21875 28.5625 
Q 18.796875 29.25 24.03125 29.890625 
Q 34.671875 31.15625 39.703125 32.90625 
Q 39.75 34.71875 39.75 35.203125 
Q 39.75 40.578125 37.25 42.78125 
Q 33.890625 45.75 27.25 45.75 
Q 21.046875 45.75 18.09375 43.578125 
Q 15.140625 41.40625 13.71875 35.890625 
L 5.125 37.0625 
Q 6.296875 42.578125 8.984375 45.96875 
Q 11.671875 49.359375 16.75 51.1875 
Q 21.828125 53.03125 28.515625 53.03125 
Q 35.15625 53.03125 39.296875 51.46875 
Q 43.453125 49.90625 45.40625 47.53125 
Q 47.359375 45.171875 48.140625 41.546875 
Q 48.578125 39.3125 48.578125 33.453125 
L 48.578125 21.734375 
Q 48.578125 9.46875 49.140625 6.21875 
Q 49.703125 2.984375 51.375 0 
L 42.1875 0 
Q 40.828125 2.734375 40.4375 6.390625 
z
M 39.703125 26.03125 
Q 34.90625 24.078125 25.34375 22.703125 
Q 19.921875 21.921875 17.671875 20.9375 
Q 15.4375 19.96875 14.203125 18.09375 
Q 12.984375 16.21875 12.984375 13.921875 
Q 12.984375 10.40625 15.640625 8.0625 
Q 18.3125 5.71875 23.4375 5.71875 
Q 28.515625 5.71875 32.46875 7.9375 
Q 36.421875 10.15625 38.28125 14.015625 
Q 39.703125 17 39.703125 22.796875 
z
M 11.21875 59.515625 
Q 11.171875 64.59375 14 67.625 
Q 16.78125 70.65625 21.125 70.65625 
Q 24.15625 70.65625 29.375 68.015625 
Q 32.265625 66.546875 33.96875 66.546875 
Q 35.53125 66.546875 36.359375 67.40625 
Q 37.1875 68.265625 37.53125 70.796875 
L 43.890625 70.796875 
Q 43.734375 65.234375 41.078125 62.453125 
Q 38.421875 59.671875 34.3125 59.671875 
Q 31.234375 59.671875 26.203125 62.40625 
Q 22.9375 64.15625 21.421875 64.15625 
Q 19.765625 64.15625 18.734375 62.984375 
Q 17.65625 61.8125 17.71875 59.515625 
z
" id="ArialMT-e3"/>
      <path id="ArialMT-20"/>
      <path d="M 23.390625 -21.046875 
Q 16.109375 -11.859375 11.078125 0.4375 
Q 6.0625 12.75 6.0625 25.921875 
Q 6.0625 37.546875 9.8125 48.1875 
Q 14.203125 60.546875 23.390625 72.796875 
L 29.6875 72.796875 
Q 23.78125 62.640625 21.875 58.296875 
Q 18.890625 51.5625 17.1875 44.234375 
Q 15.09375 35.109375 15.09375 25.875 
Q 15.09375 2.390625 29.6875 -21.046875 
z
" id="ArialMT-28"/>
      <path d="M 49.703125 51.859375 
L 49.703125 0 
L 41.84375 0 
L 41.84375 6.15625 
Q 39.3125 2.25 36.8125 0.78125 
Q 33.40625 -1.21875 28.859375 -1.21875 
Q 24.8125 -1.21875 21.6875 0.390625 
Q 19.34375 1.609375 16.5 5.21875 
L 16.5 -19.875 
L 7.8125 -19.875 
L 7.8125 51.859375 
L 16.5 51.859375 
L 16.5 29.890625 
Q 16.5 17.921875 17.765625 14.375 
Q 19.046875 10.84375 21.890625 8.78125 
Q 24.75 6.734375 28.46875 6.734375 
Q 32.375 6.734375 35.453125 8.875 
Q 38.53125 11.03125 39.796875 14.421875 
Q 41.0625 17.828125 41.0625 29.734375 
L 41.0625 51.859375 
z
" id="ArialMT-b5"/>
      <path d="M 6.59375 0 
L 6.59375 51.859375 
L 14.453125 51.859375 
L 14.453125 44.578125 
Q 16.890625 48.390625 20.9375 50.703125 
Q 25 53.03125 30.171875 53.03125 
Q 35.9375 53.03125 39.625 50.640625 
Q 43.3125 48.25 44.828125 43.953125 
Q 50.984375 53.03125 60.84375 53.03125 
Q 68.5625 53.03125 72.703125 48.75 
Q 76.859375 44.484375 76.859375 35.59375 
L 76.859375 0 
L 68.109375 0 
L 68.109375 32.671875 
Q 68.109375 37.9375 67.25 40.25 
Q 66.40625 42.578125 64.15625 43.984375 
Q 61.921875 45.40625 58.890625 45.40625 
Q 53.421875 45.40625 49.796875 41.765625 
Q 46.1875 38.140625 46.1875 30.125 
L 46.1875 0 
L 37.40625 0 
L 37.40625 33.6875 
Q 37.40625 39.546875 35.25 42.46875 
Q 33.109375 45.40625 28.21875 45.40625 
Q 24.515625 45.40625 21.359375 43.453125 
Q 18.21875 41.5 16.796875 37.734375 
Q 15.375 33.984375 15.375 26.90625 
L 15.375 0 
z
" id="ArialMT-6d"/>
      <path d="M 12.359375 -21.046875 
L 6.0625 -21.046875 
Q 20.65625 2.390625 20.65625 25.875 
Q 20.65625 35.0625 18.5625 44.09375 
Q 16.890625 51.421875 13.921875 58.15625 
Q 12.015625 62.546875 6.0625 72.796875 
L 12.359375 72.796875 
Q 21.53125 60.546875 25.921875 48.1875 
Q 29.6875 37.546875 29.6875 25.921875 
Q 29.6875 12.75 24.625 0.4375 
Q 19.578125 -11.859375 12.359375 -21.046875 
z
" id="ArialMT-29"/>
     </defs>
     <g transform="translate(173.990391 264.8125)scale(0.13 -0.13)">
      <use xlink:href="#ArialMT-50"/>
      <use x="66.699219" xlink:href="#ArialMT-6f"/>
      <use x="122.314453" xlink:href="#ArialMT-73"/>
      <use x="172.314453" xlink:href="#ArialMT-69"/>
      <use x="194.53125" xlink:href="#ArialMT-e7"/>
      <use x="244.53125" xlink:href="#ArialMT-e3"/>
      <use x="300.146484" xlink:href="#ArialMT-6f"/>
      <use x="355.761719" xlink:href="#ArialMT-20"/>
      <use x="383.544922" xlink:href="#ArialMT-28"/>
      <use x="416.845703" xlink:href="#ArialMT-b5"/>
      <use x="474.462891" xlink:href="#ArialMT-6d"/>
      <use x="557.763672" xlink:href="#ArialMT-29"/>
     </g>
    </g>
   </g>
   <g id="matplotlib.axis_2">
    <g id="ytick_1">
     <g id="line2d_6">
      <defs>
       <path d="M 0 0 
L -3.5 0 
" id="m7e5a5e2828" style="stroke:#000000;stroke-width:0.8;"/>
      </defs>
      <g>
       <use style="stroke:#000000;stroke-width:0.8;" x="45.008438" xlink:href="#m7e5a5e2828" y="184.695584"/>
      </g>
     </g>
     <g id="text_7">
      <!-- 20 -->
      <defs>
       <path d="M 50.34375 8.453125 
L 50.34375 0 
L 3.03125 0 
Q 2.9375 3.171875 4.046875 6.109375 
Q 5.859375 10.9375 9.828125 15.625 
Q 13.8125 20.3125 21.34375 26.46875 
Q 33.015625 36.03125 37.109375 41.625 
Q 41.21875 47.21875 41.21875 52.203125 
Q 41.21875 57.421875 37.46875 61 
Q 33.734375 64.59375 27.734375 64.59375 
Q 21.390625 64.59375 17.578125 60.78125 
Q 13.765625 56.984375 13.71875 50.25 
L 4.6875 51.171875 
Q 5.609375 61.28125 11.65625 66.578125 
Q 17.71875 71.875 27.9375 71.875 
Q 38.234375 71.875 44.234375 66.15625 
Q 50.25 60.453125 50.25 52 
Q 50.25 47.703125 48.484375 43.546875 
Q 46.734375 39.40625 42.65625 34.8125 
Q 38.578125 30.21875 29.109375 22.21875 
Q 21.1875 15.578125 18.9375 13.203125 
Q 16.703125 10.84375 15.234375 8.453125 
z
" id="ArialMT-32"/>
      </defs>
      <g transform="translate(23.55 189.348162)scale(0.13 -0.13)">
       <use xlink:href="#ArialMT-32"/>
       <use x="55.615234" xlink:href="#ArialMT-30"/>
      </g>
     </g>
    </g>
    <g id="ytick_2">
     <g id="line2d_7">
      <g>
       <use style="stroke:#000000;stroke-width:0.8;" x="45.008438" xlink:href="#m7e5a5e2828" y="131.857088"/>
      </g>
     </g>
     <g id="text_8">
      <!-- 25 -->
      <g transform="translate(23.55 136.509666)scale(0.13 -0.13)">
       <use xlink:href="#ArialMT-32"/>
       <use x="55.615234" xlink:href="#ArialMT-35"/>
      </g>
     </g>
    </g>
    <g id="ytick_3">
     <g id="line2d_8">
      <g>
       <use style="stroke:#000000;stroke-width:0.8;" x="45.008438" xlink:href="#m7e5a5e2828" y="79.018591"/>
      </g>
     </g>
     <g id="text_9">
      <!-- 30 -->
      <defs>
       <path d="M 4.203125 18.890625 
L 12.984375 20.0625 
Q 14.5 12.59375 18.140625 9.296875 
Q 21.78125 6 27 6 
Q 33.203125 6 37.46875 10.296875 
Q 41.75 14.59375 41.75 20.953125 
Q 41.75 27 37.796875 30.921875 
Q 33.84375 34.859375 27.734375 34.859375 
Q 25.25 34.859375 21.53125 33.890625 
L 22.515625 41.609375 
Q 23.390625 41.5 23.921875 41.5 
Q 29.546875 41.5 34.03125 44.421875 
Q 38.53125 47.359375 38.53125 53.46875 
Q 38.53125 58.296875 35.25 61.46875 
Q 31.984375 64.65625 26.8125 64.65625 
Q 21.6875 64.65625 18.265625 61.421875 
Q 14.84375 58.203125 13.875 51.765625 
L 5.078125 53.328125 
Q 6.6875 62.15625 12.390625 67.015625 
Q 18.109375 71.875 26.609375 71.875 
Q 32.46875 71.875 37.390625 69.359375 
Q 42.328125 66.84375 44.9375 62.5 
Q 47.5625 58.15625 47.5625 53.265625 
Q 47.5625 48.640625 45.0625 44.828125 
Q 42.578125 41.015625 37.703125 38.765625 
Q 44.046875 37.3125 47.5625 32.6875 
Q 51.078125 28.078125 51.078125 21.140625 
Q 51.078125 11.765625 44.234375 5.25 
Q 37.40625 -1.265625 26.953125 -1.265625 
Q 17.53125 -1.265625 11.296875 4.34375 
Q 5.078125 9.96875 4.203125 18.890625 
z
" id="ArialMT-33"/>
      </defs>
      <g transform="translate(23.55 83.671169)scale(0.13 -0.13)">
       <use xlink:href="#ArialMT-33"/>
       <use x="55.615234" xlink:href="#ArialMT-30"/>
      </g>
     </g>
    </g>
    <g id="ytick_4">
     <g id="line2d_9">
      <g>
       <use style="stroke:#000000;stroke-width:0.8;" x="45.008438" xlink:href="#m7e5a5e2828" y="26.180094"/>
      </g>
     </g>
     <g id="text_10">
      <!-- 35 -->
      <g transform="translate(23.55 30.832672)scale(0.13 -0.13)">
       <use xlink:href="#ArialMT-33"/>
       <use x="55.615234" xlink:href="#ArialMT-35"/>
      </g>
     </g>
    </g>
    <g id="text_11">
     <!-- $\mu_C$ (kJ/mol) -->
     <defs>
      <path d="M -1.3125 -20.796875 
L 13.375 54.6875 
L 22.40625 54.6875 
L 15.765625 20.65625 
Q 15.578125 19.625 15.421875 18.359375 
Q 15.28125 17.09375 15.28125 15.828125 
Q 15.28125 11.28125 18.140625 8.828125 
Q 21 6.390625 26.3125 6.390625 
Q 33.546875 6.390625 37.984375 10.484375 
Q 42.4375 14.59375 44 22.796875 
L 50.203125 54.6875 
L 59.1875 54.6875 
L 51.03125 12.640625 
Q 50.828125 11.71875 50.75 11.03125 
Q 50.6875 10.359375 50.6875 9.8125 
Q 50.6875 8.296875 51.296875 7.59375 
Q 51.90625 6.890625 53.21875 6.890625 
Q 53.71875 6.890625 54.5625 7.125 
Q 55.421875 7.375 56.984375 8.015625 
L 55.609375 0.78125 
Q 53.46875 -0.296875 51.515625 -0.859375 
Q 49.5625 -1.421875 47.703125 -1.421875 
Q 44.484375 -1.421875 42.65625 0.625 
Q 40.828125 2.6875 40.828125 6.296875 
Q 38.09375 2.390625 34.296875 0.484375 
Q 30.515625 -1.421875 25.390625 -1.421875 
Q 20.84375 -1.421875 17.453125 0.671875 
Q 14.0625 2.78125 12.984375 6.203125 
L 7.71875 -20.796875 
z
" id="DejaVuSans-Oblique-3bc"/>
      <path d="M 69.484375 67.28125 
L 67.484375 56.890625 
Q 62.796875 61.625 57.546875 63.921875 
Q 52.296875 66.21875 46.1875 66.21875 
Q 37.84375 66.21875 31.515625 62.203125 
Q 25.203125 58.203125 20.609375 50 
Q 17.671875 44.734375 16.125 38.84375 
Q 14.59375 32.953125 14.59375 27 
Q 14.59375 17.046875 19.75 11.8125 
Q 24.90625 6.59375 34.71875 6.59375 
Q 41.5 6.59375 47.75 8.765625 
Q 54 10.9375 59.90625 15.28125 
L 57.625 3.609375 
Q 51.8125 1.125 45.875 -0.140625 
Q 39.9375 -1.421875 33.984375 -1.421875 
Q 19.96875 -1.421875 12.078125 6.1875 
Q 4.203125 13.8125 4.203125 27.390625 
Q 4.203125 36.078125 7.203125 44.46875 
Q 10.203125 52.875 15.828125 59.8125 
Q 21.78125 67.1875 29.421875 70.703125 
Q 37.0625 74.21875 47.21875 74.21875 
Q 53.46875 74.21875 59.0625 72.484375 
Q 64.65625 70.75 69.484375 67.28125 
z
" id="DejaVuSans-Oblique-43"/>
      <path d="M 6.640625 0 
L 6.640625 71.578125 
L 15.4375 71.578125 
L 15.4375 30.765625 
L 36.234375 51.859375 
L 47.609375 51.859375 
L 27.78125 32.625 
L 49.609375 0 
L 38.765625 0 
L 21.625 26.515625 
L 15.4375 20.5625 
L 15.4375 0 
z
" id="ArialMT-6b"/>
      <path d="M 2.875 20.3125 
L 11.421875 21.484375 
Q 11.765625 13.28125 14.5 10.25 
Q 17.234375 7.234375 22.078125 7.234375 
Q 25.640625 7.234375 28.21875 8.859375 
Q 30.8125 10.5 31.78125 13.296875 
Q 32.765625 16.109375 32.765625 22.265625 
L 32.765625 71.578125 
L 42.234375 71.578125 
L 42.234375 22.796875 
Q 42.234375 13.8125 40.0625 8.875 
Q 37.890625 3.953125 33.171875 1.359375 
Q 28.46875 -1.21875 22.125 -1.21875 
Q 12.703125 -1.21875 7.6875 4.203125 
Q 2.6875 9.625 2.875 20.3125 
z
" id="ArialMT-4a"/>
      <path d="M 0 -1.21875 
L 20.75 72.796875 
L 27.78125 72.796875 
L 7.078125 -1.21875 
z
" id="ArialMT-2f"/>
      <path d="M 6.390625 0 
L 6.390625 71.578125 
L 15.1875 71.578125 
L 15.1875 0 
z
" id="ArialMT-6c"/>
     </defs>
     <g transform="translate(16.69 154.015)rotate(-90)scale(0.13 -0.13)">
      <use transform="translate(0 0.203125)" xlink:href="#DejaVuSans-Oblique-3bc"/>
      <use transform="translate(63.623047 -16.203125)scale(0.7)" xlink:href="#DejaVuSans-Oblique-43"/>
      <use transform="translate(115.234375 0.203125)" xlink:href="#ArialMT-20"/>
      <use transform="translate(143.017578 0.203125)" xlink:href="#ArialMT-28"/>
      <use transform="translate(176.318359 0.203125)" xlink:href="#ArialMT-6b"/>
      <use transform="translate(226.318359 0.203125)" xlink:href="#ArialMT-4a"/>
      <use transform="translate(276.318359 0.203125)" xlink:href="#ArialMT-2f"/>
      <use transform="translate(304.101562 0.203125)" xlink:href="#ArialMT-6d"/>
      <use transform="translate(387.402344 0.203125)" xlink:href="#ArialMT-6f"/>
      <use transform="translate(443.017578 0.203125)" xlink:href="#ArialMT-6c"/>
      <use transform="translate(465.234375 0.203125)" xlink:href="#ArialMT-29"/>
     </g>
    </g>
   </g>
   <g id="line2d_10">
    <path clip-path="url(#pd4c458f6d0)" d="M 45.008438 20.78 
L 117.16361 20.78 
L 117.16361 20.78 
L 118.118136 26.084985 
L 119.072663 32.541849 
L 120.027203 40.731816 
L 120.98173 51.78563 
L 121.458993 59.066775 
L 121.936256 68.302944 
L 122.413519 80.719991 
L 122.890782 99.023246 
L 123.368046 130.821453 
L 123.845323 197.514203 
L 124.322586 220.530653 
L 124.79985 222.274323 
L 125.754376 222.38 
L 162.026492 222.316594 
L 162.50377 221.946724 
L 162.981033 219.917726 
L 163.458296 211.717191 
L 164.495758 173.747448 
L 165.159225 173.747448 
L 165.159225 173.747448 
L 166.106074 211.474134 
L 166.579513 219.801481 
L 167.052937 221.915021 
L 167.526362 222.316594 
L 168.473211 222.38 
L 209.661219 222.316594 
L 210.134643 221.946724 
L 210.608069 219.907158 
L 211.081495 211.748894 
L 212.155043 173.884828 
L 212.78853 173.884828 
L 212.78853 173.884828 
L 213.73538 211.748894 
L 214.208806 219.907158 
L 214.682232 221.946724 
L 215.155656 222.316594 
L 216.102508 222.38 
L 257.290513 222.316594 
L 257.763938 221.915021 
L 258.237362 219.801481 
L 258.710801 211.474134 
L 259.740585 173.747448 
L 260.404052 173.747448 
L 260.404052 173.747448 
L 261.358579 211.717191 
L 261.835842 219.917726 
L 262.313105 221.946724 
L 262.790383 222.316594 
L 263.744909 222.38 
L 300.017025 222.274323 
L 300.494289 220.530653 
L 300.971552 197.514203 
L 301.448829 130.821453 
L 301.926093 99.023246 
L 302.403356 80.719991 
L 302.880619 68.302944 
L 303.835145 51.78563 
L 304.789672 40.731816 
L 305.744212 32.541849 
L 306.698739 26.084985 
L 307.653265 20.78 
L 307.653265 20.78 
L 379.808438 20.78 
L 379.808438 20.78 
" style="fill:none;stroke:#1f77b4;stroke-linecap:square;"/>
   </g>
   <g id="line2d_11">
    <path clip-path="url(#pd4c458f6d0)" d="M 45.008438 20.78 
L 117.16361 20.78 
L 117.16361 20.78 
L 119.468405 24.753455 
L 121.312229 28.378176 
L 123.156068 32.489011 
L 124.999907 37.255043 
L 126.382775 41.376446 
L 127.765658 46.100208 
L 129.148526 51.627114 
L 130.531409 58.253062 
L 131.453321 63.494641 
L 132.375233 69.666177 
L 133.29716 77.09527 
L 134.219072 86.37371 
L 135.140985 98.537132 
L 136.062911 115.699075 
L 136.523867 127.503195 
L 136.984823 142.815792 
L 137.445779 163.232587 
L 138.367692 209.878412 
L 138.828662 218.913795 
L 139.289618 221.524016 
L 139.750574 222.179214 
L 140.211531 222.337729 
L 142.055369 222.38 
L 155.884125 222.284891 
L 156.345081 222.179214 
L 156.806037 221.957292 
L 157.266993 221.513449 
L 157.727949 220.699736 
L 158.188905 219.230826 
L 158.649876 216.800255 
L 159.110832 213.059289 
L 159.571788 207.870549 
L 160.4937 194.111404 
L 161.876583 172.13059 
L 162.798495 159.840355 
L 162.798495 159.840355 
L 166.772153 159.81922 
L 166.772153 159.81922 
L 167.653773 171.528231 
L 170.298621 211.379025 
L 170.739432 215.468725 
L 171.180242 218.2903 
L 171.621052 220.076242 
L 172.061863 221.143579 
L 172.502673 221.73537 
L 172.943483 222.052401 
L 173.82509 222.306026 
L 175.588331 222.38 
L 203.359273 222.306026 
L 204.24089 222.062969 
L 204.681699 221.73537 
L 205.122507 221.143579 
L 205.563316 220.097377 
L 206.004125 218.311436 
L 206.444934 215.500428 
L 206.885741 211.410728 
L 207.767359 199.553769 
L 209.971402 165.420101 
L 210.412211 159.829788 
L 210.412211 159.829788 
L 214.404664 159.829788 
L 214.404664 159.829788 
L 215.286282 171.538799 
L 217.931134 211.410728 
L 218.371941 215.500428 
L 218.81275 218.311436 
L 219.253559 220.097377 
L 219.694368 221.143579 
L 220.135176 221.73537 
L 220.575985 222.062969 
L 221.457602 222.306026 
L 223.220837 222.38 
L 250.991785 222.306026 
L 251.873392 222.052401 
L 252.314202 221.73537 
L 252.755012 221.143579 
L 253.195823 220.076242 
L 253.636633 218.2903 
L 254.077443 215.468725 
L 254.518254 211.379025 
L 255.39986 199.511499 
L 257.603912 165.409533 
L 258.044722 159.81922 
L 258.044722 159.81922 
L 262.01838 159.840355 
L 262.01838 159.840355 
L 262.940292 172.13059 
L 265.706043 213.059289 
L 266.166999 216.800255 
L 266.62797 219.230826 
L 267.088926 220.699736 
L 267.549882 221.513449 
L 268.010838 221.957292 
L 268.93275 222.284891 
L 270.315633 222.38 
L 284.605344 222.337729 
L 285.066301 222.179214 
L 285.527257 221.524016 
L 285.988213 218.913795 
L 286.449183 209.878412 
L 288.293008 127.503195 
L 289.214934 106.283255 
L 290.136847 91.995726 
L 291.058759 81.45973 
L 291.980685 73.195789 
L 292.902598 66.453596 
L 294.285466 58.253062 
L 295.668349 51.627114 
L 297.051217 46.100208 
L 298.4341 41.376446 
L 299.816968 37.255043 
L 301.660807 32.489011 
L 303.504646 28.378176 
L 305.34847 24.753455 
L 307.653265 20.78 
L 307.653265 20.78 
L 379.808438 20.78 
L 379.808438 20.78 
" style="fill:none;stroke:#ff7f0e;stroke-linecap:square;"/>
   </g>
   <g id="line2d_12">
    <path clip-path="url(#pd4c458f6d0)" d="M 45.008438 98.790756 
L 70.041866 98.885866 
L 119.848259 99.710146 
L 122.532922 100.05888 
L 125.21757 100.650671 
L 127.45477 101.316437 
L 130.139433 102.362639 
L 132.824082 103.673033 
L 135.061296 104.983428 
L 137.298496 106.505177 
L 139.983159 108.660988 
L 142.220359 110.742824 
L 144.457574 113.131124 
L 146.24734 115.276367 
L 148.484554 118.309297 
L 150.721768 121.775502 
L 152.511534 124.914109 
L 154.3013 128.443721 
L 156.091066 132.417176 
L 157.880831 136.929583 
L 159.670612 142.065485 
L 161.460377 147.983397 
L 161.460377 147.983397 
L 168.615097 151.502441 
L 172.192464 153.351788 
L 172.192464 153.351788 
L 173.83903 159.354241 
L 175.485582 166.107001 
L 177.461451 175.248061 
L 179.766635 187.126155 
L 182.730438 202.470454 
L 184.047688 208.219283 
L 185.035622 211.717191 
L 186.023557 214.390819 
L 186.682189 215.701214 
L 187.340807 216.610036 
L 187.999439 217.148989 
L 188.658057 217.307504 
L 189.316675 217.075015 
L 189.975308 216.462088 
L 190.633926 215.479292 
L 191.292558 214.094924 
L 192.280492 211.305051 
L 193.268427 207.690898 
L 194.585677 201.825825 
L 196.561545 191.627995 
L 199.854663 174.42378 
L 201.830534 165.272153 
L 203.806405 157.261837 
L 204.794341 153.647684 
L 204.794341 153.647684 
L 220.022534 153.647684 
L 220.022534 153.647684 
L 221.998405 161.129615 
L 223.974277 169.710587 
L 225.950148 179.390599 
L 231.219132 206.327665 
L 232.207081 210.184875 
L 233.195015 213.260075 
L 234.182949 215.479292 
L 234.841567 216.462088 
L 235.5002 217.075015 
L 236.158818 217.307504 
L 236.817436 217.148989 
L 237.476068 216.610036 
L 238.134686 215.701214 
L 238.793318 214.390819 
L 239.451936 212.710555 
L 240.439871 209.466271 
L 241.427805 205.482249 
L 242.745055 199.247306 
L 245.379556 185.371917 
L 248.014042 172.077751 
L 249.989911 163.306561 
L 251.636477 156.860264 
L 252.624411 153.351788 
L 252.624411 153.351788 
L 259.779131 149.716499 
L 263.356498 147.983397 
L 263.356498 147.983397 
L 265.146263 142.065485 
L 266.936044 136.929583 
L 268.725809 132.417176 
L 270.515575 128.443721 
L 272.75279 124.100396 
L 274.542555 121.046331 
L 276.332321 118.309297 
L 278.569535 115.276367 
L 280.806735 112.623875 
L 283.04395 110.298981 
L 285.728598 107.900113 
L 288.413262 105.871115 
L 290.650462 104.433908 
L 293.335125 102.975565 
L 296.019773 101.813118 
L 298.256988 101.031109 
L 300.494188 100.42875 
L 302.731402 99.984906 
L 305.863499 99.64674 
L 307.653265 99.583334 
L 307.653265 99.583334 
L 334.159251 99.107787 
L 379.808438 98.790756 
L 379.808438 98.790756 
" style="fill:none;stroke:#2ca02c;stroke-linecap:square;"/>
   </g>
   <g id="line2d_13">
    <path clip-path="url(#pd4c458f6d0)" d="M 45.008438 140.522601 
L 121.066296 140.628278 
L 125.526495 140.818497 
L 131.101752 141.241205 
L 136.677009 141.875267 
L 142.252266 142.720682 
L 147.827538 143.777452 
L 153.960309 145.161821 
L 160.093095 146.778679 
L 167.340937 148.945057 
L 172.775824 150.593618 
L 176.836082 150.794405 
L 250.372405 150.699295 
L 252.458209 150.572483 
L 252.458209 150.572483 
L 258.590995 148.596323 
L 263.608723 147.09571 
L 270.299037 145.299201 
L 276.431823 143.893697 
L 282.564609 142.720682 
L 288.139866 141.875267 
L 293.715123 141.241205 
L 299.29038 140.818497 
L 304.865637 140.607143 
L 312.070922 140.564872 
L 379.808438 140.522601 
L 379.808438 140.522601 
" style="fill:none;stroke:#d62728;stroke-linecap:square;"/>
   </g>
   <g id="line2d_14">
    <path clip-path="url(#pd4c458f6d0)" d="M 45.008438 150.826108 
L 379.808438 150.826108 
L 379.808438 150.826108 
" style="fill:none;stroke:#9467bd;stroke-linecap:square;"/>
   </g>
   <g id="patch_3">
    <path d="M 45.008438 232.46 
L 45.008438 10.7 
" style="fill:none;stroke:#000000;stroke-linecap:square;stroke-linejoin:miter;stroke-width:0.8;"/>
   </g>
   <g id="patch_4">
    <path d="M 379.808438 232.46 
L 379.808438 10.7 
" style="fill:none;stroke:#000000;stroke-linecap:square;stroke-linejoin:miter;stroke-width:0.8;"/>
   </g>
   <g id="patch_5">
    <path d="M 45.008438 232.46 
L 379.808438 232.46 
" style="fill:none;stroke:#000000;stroke-linecap:square;stroke-linejoin:miter;stroke-width:0.8;"/>
   </g>
   <g id="patch_6">
    <path d="M 45.008438 10.7 
L 379.808438 10.7 
" style="fill:none;stroke:#000000;stroke-linecap:square;stroke-linejoin:miter;stroke-width:0.8;"/>
   </g>
   <g id="legend_1">
    <g id="patch_7">
     <path d="M 160.280469 113.044531 
L 264.536406 113.044531 
L 264.536406 17.2 
L 160.280469 17.2 
z
" style="fill:#ffffff;opacity:0.8;stroke:#cccccc;stroke-linejoin:miter;"/>
    </g>
    <g id="line2d_15">
     <path d="M 165.480469 27.155156 
L 191.480469 27.155156 
" style="fill:none;stroke:#1f77b4;stroke-linecap:square;"/>
    </g>
    <g id="line2d_16"/>
    <g id="text_12">
     <!-- t = 0.1 s -->
     <defs>
      <path d="M 25.78125 7.859375 
L 27.046875 0.09375 
Q 23.34375 -0.6875 20.40625 -0.6875 
Q 15.625 -0.6875 12.984375 0.828125 
Q 10.359375 2.34375 9.28125 4.8125 
Q 8.203125 7.28125 8.203125 15.1875 
L 8.203125 45.015625 
L 1.765625 45.015625 
L 1.765625 51.859375 
L 8.203125 51.859375 
L 8.203125 64.703125 
L 16.9375 69.96875 
L 16.9375 51.859375 
L 25.78125 51.859375 
L 25.78125 45.015625 
L 16.9375 45.015625 
L 16.9375 14.703125 
Q 16.9375 10.9375 17.40625 9.859375 
Q 17.875 8.796875 18.921875 8.15625 
Q 19.96875 7.515625 21.921875 7.515625 
Q 23.390625 7.515625 25.78125 7.859375 
z
" id="ArialMT-74"/>
      <path d="M 52.828125 42.09375 
L 5.5625 42.09375 
L 5.5625 50.296875 
L 52.828125 50.296875 
z
M 52.828125 20.359375 
L 5.5625 20.359375 
L 5.5625 28.5625 
L 52.828125 28.5625 
z
" id="ArialMT-3d"/>
     </defs>
     <g transform="translate(201.880469 31.705156)scale(0.13 -0.13)">
      <use xlink:href="#ArialMT-74"/>
      <use x="27.783203" xlink:href="#ArialMT-20"/>
      <use x="55.566406" xlink:href="#ArialMT-3d"/>
      <use x="113.964844" xlink:href="#ArialMT-20"/>
      <use x="141.748047" xlink:href="#ArialMT-30"/>
      <use x="197.363281" xlink:href="#ArialMT-2e"/>
      <use x="225.146484" xlink:href="#ArialMT-31"/>
      <use x="280.761719" xlink:href="#ArialMT-20"/>
      <use x="308.544922" xlink:href="#ArialMT-73"/>
     </g>
    </g>
    <g id="line2d_17">
     <path d="M 165.480469 45.544063 
L 191.480469 45.544063 
" style="fill:none;stroke:#ff7f0e;stroke-linecap:square;"/>
    </g>
    <g id="line2d_18"/>
    <g id="text_13">
     <!-- t = 1 s -->
     <g transform="translate(201.880469 50.094063)scale(0.13 -0.13)">
      <use xlink:href="#ArialMT-74"/>
      <use x="27.783203" xlink:href="#ArialMT-20"/>
      <use x="55.566406" xlink:href="#ArialMT-3d"/>
      <use x="113.964844" xlink:href="#ArialMT-20"/>
      <use x="141.748047" xlink:href="#ArialMT-31"/>
      <use x="197.363281" xlink:href="#ArialMT-20"/>
      <use x="225.146484" xlink:href="#ArialMT-73"/>
     </g>
    </g>
    <g id="line2d_19">
     <path d="M 165.480469 63.932969 
L 191.480469 63.932969 
" style="fill:none;stroke:#2ca02c;stroke-linecap:square;"/>
    </g>
    <g id="line2d_20"/>
    <g id="text_14">
     <!-- t = 10 s -->
     <g transform="translate(201.880469 68.482969)scale(0.13 -0.13)">
      <use xlink:href="#ArialMT-74"/>
      <use x="27.783203" xlink:href="#ArialMT-20"/>
      <use x="55.566406" xlink:href="#ArialMT-3d"/>
      <use x="113.964844" xlink:href="#ArialMT-20"/>
      <use x="141.748047" xlink:href="#ArialMT-31"/>
      <use x="197.363281" xlink:href="#ArialMT-30"/>
      <use x="252.978516" xlink:href="#ArialMT-20"/>
      <use x="280.761719" xlink:href="#ArialMT-73"/>
     </g>
    </g>
    <g id="line2d_21">
     <path d="M 165.480469 82.321875 
L 191.480469 82.321875 
" style="fill:none;stroke:#d62728;stroke-linecap:square;"/>
    </g>
    <g id="line2d_22"/>
    <g id="text_15">
     <!-- t = 100 s -->
     <g transform="translate(201.880469 86.871875)scale(0.13 -0.13)">
      <use xlink:href="#ArialMT-74"/>
      <use x="27.783203" xlink:href="#ArialMT-20"/>
      <use x="55.566406" xlink:href="#ArialMT-3d"/>
      <use x="113.964844" xlink:href="#ArialMT-20"/>
      <use x="141.748047" xlink:href="#ArialMT-31"/>
      <use x="197.363281" xlink:href="#ArialMT-30"/>
      <use x="252.978516" xlink:href="#ArialMT-30"/>
      <use x="308.59375" xlink:href="#ArialMT-20"/>
      <use x="336.376953" xlink:href="#ArialMT-73"/>
     </g>
    </g>
    <g id="line2d_23">
     <path d="M 165.480469 100.710781 
L 191.480469 100.710781 
" style="fill:none;stroke:#9467bd;stroke-linecap:square;"/>
    </g>
    <g id="line2d_24"/>
    <g id="text_16">
     <!-- t = 1000 s -->
     <g transform="translate(201.880469 105.260781)scale(0.13 -0.13)">
      <use xlink:href="#ArialMT-74"/>
      <use x="27.783203" xlink:href="#ArialMT-20"/>
      <use x="55.566406" xlink:href="#ArialMT-3d"/>
      <use x="113.964844" xlink:href="#ArialMT-20"/>
      <use x="141.748047" xlink:href="#ArialMT-31"/>
      <use x="197.363281" xlink:href="#ArialMT-30"/>
      <use x="252.978516" xlink:href="#ArialMT-30"/>
      <use x="308.59375" xlink:href="#ArialMT-30"/>
      <use x="364.208984" xlink:href="#ArialMT-20"/>
      <use x="391.992188" xlink:href="#ArialMT-73"/>
     </g>
    </g>
   </g>
  </g>
 </g>
 <defs>
  <clipPath id="pd4c458f6d0">
   <rect height="221.76" width="334.8" x="45.008438" y="10.7"/>
  </clipPath>
 </defs>
</svg>
