<?xml version="1.0" encoding="utf-8" standalone="no"?>
<!DOCTYPE svg PUBLIC "-//W3C//DTD SVG 1.1//EN"
  "http://www.w3.org/Graphics/SVG/1.1/DTD/svg11.dtd">
<!-- Created with matplotlib (http://matplotlib.org/) -->
<svg height="274.748594pt" version="1.1" viewBox="0 0 401.349219 274.748594" width="401.349219pt" xmlns="http://www.w3.org/2000/svg" xmlns:xlink="http://www.w3.org/1999/xlink">
 <defs>
  <style type="text/css">
*{stroke-linecap:butt;stroke-linejoin:round;}
  </style>
 </defs>
 <g id="figure_1">
  <g id="patch_1">
   <path d="M 0 274.748594 
L 401.349219 274.748594 
L 401.349219 0 
L 0 0 
z
" style="fill:#ffffff;"/>
  </g>
  <g id="axes_1">
   <g id="patch_2">
    <path d="M 55.849219 232.46 
L 390.649219 232.46 
L 390.649219 10.7 
L 55.849219 10.7 
z
" style="fill:#ffffff;"/>
   </g>
   <g id="matplotlib.axis_1">
    <g id="xtick_1">
     <g id="line2d_1">
      <defs>
       <path d="M 0 0 
L 0 3.5 
" id="mbc8b09b1ab" style="stroke:#000000;stroke-width:0.8;"/>
      </defs>
      <g>
       <use style="stroke:#000000;stroke-width:0.8;" x="78.938874" xlink:href="#mbc8b09b1ab" y="232.46"/>
      </g>
     </g>
     <g id="text_1">
      <!-- −1.0 -->
      <defs>
       <path d="M 52.828125 31.203125 
L 5.5625 31.203125 
L 5.5625 39.40625 
L 52.828125 39.40625 
z
" id="ArialMT-2212"/>
       <path d="M 37.25 0 
L 28.46875 0 
L 28.46875 56 
Q 25.296875 52.984375 20.140625 49.953125 
Q 14.984375 46.921875 10.890625 45.40625 
L 10.890625 53.90625 
Q 18.265625 57.375 23.78125 62.296875 
Q 29.296875 67.234375 31.59375 71.875 
L 37.25 71.875 
z
" id="ArialMT-31"/>
       <path d="M 9.078125 0 
L 9.078125 10.015625 
L 19.09375 10.015625 
L 19.09375 0 
z
" id="ArialMT-2e"/>
       <path d="M 4.15625 35.296875 
Q 4.15625 48 6.765625 55.734375 
Q 9.375 63.484375 14.515625 67.671875 
Q 19.671875 71.875 27.484375 71.875 
Q 33.25 71.875 37.59375 69.546875 
Q 41.9375 67.234375 44.765625 62.859375 
Q 47.609375 58.5 49.21875 52.21875 
Q 50.828125 45.953125 50.828125 35.296875 
Q 50.828125 22.703125 48.234375 14.96875 
Q 45.65625 7.234375 40.5 3 
Q 35.359375 -1.21875 27.484375 -1.21875 
Q 17.140625 -1.21875 11.234375 6.203125 
Q 4.15625 15.140625 4.15625 35.296875 
z
M 13.1875 35.296875 
Q 13.1875 17.671875 17.3125 11.828125 
Q 21.4375 6 27.484375 6 
Q 33.546875 6 37.671875 11.859375 
Q 41.796875 17.71875 41.796875 35.296875 
Q 41.796875 52.984375 37.671875 58.78125 
Q 33.546875 64.59375 27.390625 64.59375 
Q 21.34375 64.59375 17.71875 59.46875 
Q 13.1875 52.9375 13.1875 35.296875 
z
" id="ArialMT-30"/>
      </defs>
      <g transform="translate(66.107468 248.765156)scale(0.13 -0.13)">
       <use xlink:href="#ArialMT-2212"/>
       <use x="58.398438" xlink:href="#ArialMT-31"/>
       <use x="114.013672" xlink:href="#ArialMT-2e"/>
       <use x="141.796875" xlink:href="#ArialMT-30"/>
      </g>
     </g>
    </g>
    <g id="xtick_2">
     <g id="line2d_2">
      <g>
       <use style="stroke:#000000;stroke-width:0.8;" x="151.094046" xlink:href="#mbc8b09b1ab" y="232.46"/>
      </g>
     </g>
     <g id="text_2">
      <!-- −0.5 -->
      <defs>
       <path d="M 4.15625 18.75 
L 13.375 19.53125 
Q 14.40625 12.796875 18.140625 9.390625 
Q 21.875 6 27.15625 6 
Q 33.5 6 37.890625 10.78125 
Q 42.28125 15.578125 42.28125 23.484375 
Q 42.28125 31 38.0625 35.34375 
Q 33.84375 39.703125 27 39.703125 
Q 22.75 39.703125 19.328125 37.765625 
Q 15.921875 35.84375 13.96875 32.765625 
L 5.71875 33.84375 
L 12.640625 70.609375 
L 48.25 70.609375 
L 48.25 62.203125 
L 19.671875 62.203125 
L 15.828125 42.96875 
Q 22.265625 47.46875 29.34375 47.46875 
Q 38.71875 47.46875 45.15625 40.96875 
Q 51.609375 34.46875 51.609375 24.265625 
Q 51.609375 14.546875 45.953125 7.46875 
Q 39.0625 -1.21875 27.15625 -1.21875 
Q 17.390625 -1.21875 11.203125 4.25 
Q 5.03125 9.71875 4.15625 18.75 
z
" id="ArialMT-35"/>
      </defs>
      <g transform="translate(138.26264 248.765156)scale(0.13 -0.13)">
       <use xlink:href="#ArialMT-2212"/>
       <use x="58.398438" xlink:href="#ArialMT-30"/>
       <use x="114.013672" xlink:href="#ArialMT-2e"/>
       <use x="141.796875" xlink:href="#ArialMT-35"/>
      </g>
     </g>
    </g>
    <g id="xtick_3">
     <g id="line2d_3">
      <g>
       <use style="stroke:#000000;stroke-width:0.8;" x="223.249219" xlink:href="#mbc8b09b1ab" y="232.46"/>
      </g>
     </g>
     <g id="text_3">
      <!-- 0.0 -->
      <g transform="translate(214.214219 248.765156)scale(0.13 -0.13)">
       <use xlink:href="#ArialMT-30"/>
       <use x="55.615234" xlink:href="#ArialMT-2e"/>
       <use x="83.398438" xlink:href="#ArialMT-30"/>
      </g>
     </g>
    </g>
    <g id="xtick_4">
     <g id="line2d_4">
      <g>
       <use style="stroke:#000000;stroke-width:0.8;" x="295.404391" xlink:href="#mbc8b09b1ab" y="232.46"/>
      </g>
     </g>
     <g id="text_4">
      <!-- 0.5 -->
      <g transform="translate(286.369391 248.765156)scale(0.13 -0.13)">
       <use xlink:href="#ArialMT-30"/>
       <use x="55.615234" xlink:href="#ArialMT-2e"/>
       <use x="83.398438" xlink:href="#ArialMT-35"/>
      </g>
     </g>
    </g>
    <g id="xtick_5">
     <g id="line2d_5">
      <g>
       <use style="stroke:#000000;stroke-width:0.8;" x="367.559564" xlink:href="#mbc8b09b1ab" y="232.46"/>
      </g>
     </g>
     <g id="text_5">
      <!-- 1.0 -->
      <g transform="translate(358.524564 248.765156)scale(0.13 -0.13)">
       <use xlink:href="#ArialMT-31"/>
       <use x="55.615234" xlink:href="#ArialMT-2e"/>
       <use x="83.398438" xlink:href="#ArialMT-30"/>
      </g>
     </g>
    </g>
    <g id="text_6">
     <!-- Posição (µm) -->
     <defs>
      <path d="M 7.71875 0 
L 7.71875 71.578125 
L 34.71875 71.578125 
Q 41.84375 71.578125 45.609375 70.90625 
Q 50.875 70.015625 54.4375 67.546875 
Q 58.015625 65.09375 60.1875 60.640625 
Q 62.359375 56.203125 62.359375 50.875 
Q 62.359375 41.75 56.546875 35.421875 
Q 50.734375 29.109375 35.546875 29.109375 
L 17.1875 29.109375 
L 17.1875 0 
z
M 17.1875 37.546875 
L 35.6875 37.546875 
Q 44.875 37.546875 48.734375 40.96875 
Q 52.59375 44.390625 52.59375 50.59375 
Q 52.59375 55.078125 50.3125 58.265625 
Q 48.046875 61.46875 44.34375 62.5 
Q 41.9375 63.140625 35.5 63.140625 
L 17.1875 63.140625 
z
" id="ArialMT-50"/>
      <path d="M 3.328125 25.921875 
Q 3.328125 40.328125 11.328125 47.265625 
Q 18.015625 53.03125 27.640625 53.03125 
Q 38.328125 53.03125 45.109375 46.015625 
Q 51.90625 39.015625 51.90625 26.65625 
Q 51.90625 16.65625 48.90625 10.90625 
Q 45.90625 5.171875 40.15625 2 
Q 34.421875 -1.171875 27.640625 -1.171875 
Q 16.75 -1.171875 10.03125 5.8125 
Q 3.328125 12.796875 3.328125 25.921875 
z
M 12.359375 25.921875 
Q 12.359375 15.96875 16.703125 11.015625 
Q 21.046875 6.0625 27.640625 6.0625 
Q 34.1875 6.0625 38.53125 11.03125 
Q 42.875 16.015625 42.875 26.21875 
Q 42.875 35.84375 38.5 40.796875 
Q 34.125 45.75 27.640625 45.75 
Q 21.046875 45.75 16.703125 40.8125 
Q 12.359375 35.890625 12.359375 25.921875 
z
" id="ArialMT-6f"/>
      <path d="M 3.078125 15.484375 
L 11.765625 16.84375 
Q 12.5 11.625 15.84375 8.84375 
Q 19.1875 6.0625 25.203125 6.0625 
Q 31.25 6.0625 34.171875 8.515625 
Q 37.109375 10.984375 37.109375 14.3125 
Q 37.109375 17.28125 34.515625 19 
Q 32.71875 20.171875 25.53125 21.96875 
Q 15.875 24.421875 12.140625 26.203125 
Q 8.40625 27.984375 6.46875 31.125 
Q 4.546875 34.28125 4.546875 38.09375 
Q 4.546875 41.546875 6.125 44.5 
Q 7.71875 47.46875 10.453125 49.421875 
Q 12.5 50.921875 16.03125 51.96875 
Q 19.578125 53.03125 23.640625 53.03125 
Q 29.734375 53.03125 34.34375 51.265625 
Q 38.96875 49.515625 41.15625 46.5 
Q 43.359375 43.5 44.1875 38.484375 
L 35.59375 37.3125 
Q 35.015625 41.3125 32.203125 43.546875 
Q 29.390625 45.796875 24.265625 45.796875 
Q 18.21875 45.796875 15.625 43.796875 
Q 13.03125 41.796875 13.03125 39.109375 
Q 13.03125 37.40625 14.109375 36.03125 
Q 15.1875 34.625 17.484375 33.6875 
Q 18.796875 33.203125 25.25 31.453125 
Q 34.578125 28.953125 38.25 27.359375 
Q 41.9375 25.78125 44.03125 22.75 
Q 46.140625 19.734375 46.140625 15.234375 
Q 46.140625 10.84375 43.578125 6.953125 
Q 41.015625 3.078125 36.171875 0.953125 
Q 31.34375 -1.171875 25.25 -1.171875 
Q 15.140625 -1.171875 9.84375 3.03125 
Q 4.546875 7.234375 3.078125 15.484375 
z
" id="ArialMT-73"/>
      <path d="M 6.640625 61.46875 
L 6.640625 71.578125 
L 15.4375 71.578125 
L 15.4375 61.46875 
z
M 6.640625 0 
L 6.640625 51.859375 
L 15.4375 51.859375 
L 15.4375 0 
z
" id="ArialMT-69"/>
      <path d="M 40.4375 19 
L 49.078125 17.875 
Q 47.65625 8.9375 41.8125 3.875 
Q 35.984375 -1.171875 27.484375 -1.171875 
Q 16.84375 -1.171875 10.375 5.78125 
Q 3.90625 12.75 3.90625 25.734375 
Q 3.90625 34.125 6.6875 40.421875 
Q 9.46875 46.734375 15.15625 49.875 
Q 20.84375 53.03125 27.546875 53.03125 
Q 35.984375 53.03125 41.359375 48.75 
Q 46.734375 44.484375 48.25 36.625 
L 39.703125 35.296875 
Q 38.484375 40.53125 35.375 43.15625 
Q 32.28125 45.796875 27.875 45.796875 
Q 21.234375 45.796875 17.078125 41.03125 
Q 12.9375 36.28125 12.9375 25.984375 
Q 12.9375 15.53125 16.9375 10.796875 
Q 20.953125 6.0625 27.390625 6.0625 
Q 32.5625 6.0625 36.03125 9.234375 
Q 39.5 12.40625 40.4375 19 
z
M 20.046875 -6.515625 
L 22.59375 2.125 
L 29.125 2.125 
L 27.515625 -3.109375 
Q 31.671875 -3.59375 33.765625 -5.65625 
Q 35.875 -7.734375 35.875 -10.28125 
Q 35.875 -13.9375 32.359375 -16.75 
Q 28.84375 -19.5625 21.75 -19.5625 
Q 17.75 -19.5625 14.71875 -18.96875 
L 15.265625 -13.265625 
Q 18.390625 -13.453125 19.859375 -13.453125 
Q 24.4375 -13.453125 26.296875 -12.1875 
Q 27.71875 -11.203125 27.71875 -9.796875 
Q 27.71875 -8.90625 27.15625 -8.21875 
Q 26.59375 -7.546875 25.078125 -7.046875 
Q 23.5625 -6.5625 20.046875 -6.515625 
z
" id="ArialMT-e7"/>
      <path d="M 40.4375 6.390625 
Q 35.546875 2.25 31.03125 0.53125 
Q 26.515625 -1.171875 21.34375 -1.171875 
Q 12.796875 -1.171875 8.203125 3 
Q 3.609375 7.171875 3.609375 13.671875 
Q 3.609375 17.484375 5.34375 20.625 
Q 7.078125 23.78125 9.890625 25.6875 
Q 12.703125 27.59375 16.21875 28.5625 
Q 18.796875 29.25 24.03125 29.890625 
Q 34.671875 31.15625 39.703125 32.90625 
Q 39.75 34.71875 39.75 35.203125 
Q 39.75 40.578125 37.25 42.78125 
Q 33.890625 45.75 27.25 45.75 
Q 21.046875 45.75 18.09375 43.578125 
Q 15.140625 41.40625 13.71875 35.890625 
L 5.125 37.0625 
Q 6.296875 42.578125 8.984375 45.96875 
Q 11.671875 49.359375 16.75 51.1875 
Q 21.828125 53.03125 28.515625 53.03125 
Q 35.15625 53.03125 39.296875 51.46875 
Q 43.453125 49.90625 45.40625 47.53125 
Q 47.359375 45.171875 48.140625 41.546875 
Q 48.578125 39.3125 48.578125 33.453125 
L 48.578125 21.734375 
Q 48.578125 9.46875 49.140625 6.21875 
Q 49.703125 2.984375 51.375 0 
L 42.1875 0 
Q 40.828125 2.734375 40.4375 6.390625 
z
M 39.703125 26.03125 
Q 34.90625 24.078125 25.34375 22.703125 
Q 19.921875 21.921875 17.671875 20.9375 
Q 15.4375 19.96875 14.203125 18.09375 
Q 12.984375 16.21875 12.984375 13.921875 
Q 12.984375 10.40625 15.640625 8.0625 
Q 18.3125 5.71875 23.4375 5.71875 
Q 28.515625 5.71875 32.46875 7.9375 
Q 36.421875 10.15625 38.28125 14.015625 
Q 39.703125 17 39.703125 22.796875 
z
M 11.21875 59.515625 
Q 11.171875 64.59375 14 67.625 
Q 16.78125 70.65625 21.125 70.65625 
Q 24.15625 70.65625 29.375 68.015625 
Q 32.265625 66.546875 33.96875 66.546875 
Q 35.53125 66.546875 36.359375 67.40625 
Q 37.1875 68.265625 37.53125 70.796875 
L 43.890625 70.796875 
Q 43.734375 65.234375 41.078125 62.453125 
Q 38.421875 59.671875 34.3125 59.671875 
Q 31.234375 59.671875 26.203125 62.40625 
Q 22.9375 64.15625 21.421875 64.15625 
Q 19.765625 64.15625 18.734375 62.984375 
Q 17.65625 61.8125 17.71875 59.515625 
z
" id="ArialMT-e3"/>
      <path id="ArialMT-20"/>
      <path d="M 23.390625 -21.046875 
Q 16.109375 -11.859375 11.078125 0.4375 
Q 6.0625 12.75 6.0625 25.921875 
Q 6.0625 37.546875 9.8125 48.1875 
Q 14.203125 60.546875 23.390625 72.796875 
L 29.6875 72.796875 
Q 23.78125 62.640625 21.875 58.296875 
Q 18.890625 51.5625 17.1875 44.234375 
Q 15.09375 35.109375 15.09375 25.875 
Q 15.09375 2.390625 29.6875 -21.046875 
z
" id="ArialMT-28"/>
      <path d="M 49.703125 51.859375 
L 49.703125 0 
L 41.84375 0 
L 41.84375 6.15625 
Q 39.3125 2.25 36.8125 0.78125 
Q 33.40625 -1.21875 28.859375 -1.21875 
Q 24.8125 -1.21875 21.6875 0.390625 
Q 19.34375 1.609375 16.5 5.21875 
L 16.5 -19.875 
L 7.8125 -19.875 
L 7.8125 51.859375 
L 16.5 51.859375 
L 16.5 29.890625 
Q 16.5 17.921875 17.765625 14.375 
Q 19.046875 10.84375 21.890625 8.78125 
Q 24.75 6.734375 28.46875 6.734375 
Q 32.375 6.734375 35.453125 8.875 
Q 38.53125 11.03125 39.796875 14.421875 
Q 41.0625 17.828125 41.0625 29.734375 
L 41.0625 51.859375 
z
" id="ArialMT-b5"/>
      <path d="M 6.59375 0 
L 6.59375 51.859375 
L 14.453125 51.859375 
L 14.453125 44.578125 
Q 16.890625 48.390625 20.9375 50.703125 
Q 25 53.03125 30.171875 53.03125 
Q 35.9375 53.03125 39.625 50.640625 
Q 43.3125 48.25 44.828125 43.953125 
Q 50.984375 53.03125 60.84375 53.03125 
Q 68.5625 53.03125 72.703125 48.75 
Q 76.859375 44.484375 76.859375 35.59375 
L 76.859375 0 
L 68.109375 0 
L 68.109375 32.671875 
Q 68.109375 37.9375 67.25 40.25 
Q 66.40625 42.578125 64.15625 43.984375 
Q 61.921875 45.40625 58.890625 45.40625 
Q 53.421875 45.40625 49.796875 41.765625 
Q 46.1875 38.140625 46.1875 30.125 
L 46.1875 0 
L 37.40625 0 
L 37.40625 33.6875 
Q 37.40625 39.546875 35.25 42.46875 
Q 33.109375 45.40625 28.21875 45.40625 
Q 24.515625 45.40625 21.359375 43.453125 
Q 18.21875 41.5 16.796875 37.734375 
Q 15.375 33.984375 15.375 26.90625 
L 15.375 0 
z
" id="ArialMT-6d"/>
      <path d="M 12.359375 -21.046875 
L 6.0625 -21.046875 
Q 20.65625 2.390625 20.65625 25.875 
Q 20.65625 35.0625 18.5625 44.09375 
Q 16.890625 51.421875 13.921875 58.15625 
Q 12.015625 62.546875 6.0625 72.796875 
L 12.359375 72.796875 
Q 21.53125 60.546875 25.921875 48.1875 
Q 29.6875 37.546875 29.6875 25.921875 
Q 29.6875 12.75 24.625 0.4375 
Q 19.578125 -11.859375 12.359375 -21.046875 
z
" id="ArialMT-29"/>
     </defs>
     <g transform="translate(184.831172 264.8125)scale(0.13 -0.13)">
      <use xlink:href="#ArialMT-50"/>
      <use x="66.699219" xlink:href="#ArialMT-6f"/>
      <use x="122.314453" xlink:href="#ArialMT-73"/>
      <use x="172.314453" xlink:href="#ArialMT-69"/>
      <use x="194.53125" xlink:href="#ArialMT-e7"/>
      <use x="244.53125" xlink:href="#ArialMT-e3"/>
      <use x="300.146484" xlink:href="#ArialMT-6f"/>
      <use x="355.761719" xlink:href="#ArialMT-20"/>
      <use x="383.544922" xlink:href="#ArialMT-28"/>
      <use x="416.845703" xlink:href="#ArialMT-b5"/>
      <use x="474.462891" xlink:href="#ArialMT-6d"/>
      <use x="557.763672" xlink:href="#ArialMT-29"/>
     </g>
    </g>
   </g>
   <g id="matplotlib.axis_2">
    <g id="ytick_1">
     <g id="line2d_6">
      <defs>
       <path d="M 0 0 
L -3.5 0 
" id="m39d177614e" style="stroke:#000000;stroke-width:0.8;"/>
      </defs>
      <g>
       <use style="stroke:#000000;stroke-width:0.8;" x="55.849219" xlink:href="#m39d177614e" y="231.616252"/>
      </g>
     </g>
     <g id="text_7">
      <!-- 7.5 -->
      <defs>
       <path d="M 4.734375 62.203125 
L 4.734375 70.65625 
L 51.078125 70.65625 
L 51.078125 63.8125 
Q 44.234375 56.546875 37.515625 44.484375 
Q 30.8125 32.421875 27.15625 19.671875 
Q 24.515625 10.6875 23.78125 0 
L 14.75 0 
Q 14.890625 8.453125 18.0625 20.40625 
Q 21.234375 32.375 27.171875 43.484375 
Q 33.109375 54.59375 39.796875 62.203125 
z
" id="ArialMT-37"/>
      </defs>
      <g transform="translate(30.779219 236.26883)scale(0.13 -0.13)">
       <use xlink:href="#ArialMT-37"/>
       <use x="55.615234" xlink:href="#ArialMT-2e"/>
       <use x="83.398438" xlink:href="#ArialMT-35"/>
      </g>
     </g>
    </g>
    <g id="ytick_2">
     <g id="line2d_7">
      <g>
       <use style="stroke:#000000;stroke-width:0.8;" x="55.849219" xlink:href="#m39d177614e" y="198.054289"/>
      </g>
     </g>
     <g id="text_8">
      <!-- 10.0 -->
      <g transform="translate(23.55 202.706867)scale(0.13 -0.13)">
       <use xlink:href="#ArialMT-31"/>
       <use x="55.615234" xlink:href="#ArialMT-30"/>
       <use x="111.230469" xlink:href="#ArialMT-2e"/>
       <use x="139.013672" xlink:href="#ArialMT-30"/>
      </g>
     </g>
    </g>
    <g id="ytick_3">
     <g id="line2d_8">
      <g>
       <use style="stroke:#000000;stroke-width:0.8;" x="55.849219" xlink:href="#m39d177614e" y="164.492326"/>
      </g>
     </g>
     <g id="text_9">
      <!-- 12.5 -->
      <defs>
       <path d="M 50.34375 8.453125 
L 50.34375 0 
L 3.03125 0 
Q 2.9375 3.171875 4.046875 6.109375 
Q 5.859375 10.9375 9.828125 15.625 
Q 13.8125 20.3125 21.34375 26.46875 
Q 33.015625 36.03125 37.109375 41.625 
Q 41.21875 47.21875 41.21875 52.203125 
Q 41.21875 57.421875 37.46875 61 
Q 33.734375 64.59375 27.734375 64.59375 
Q 21.390625 64.59375 17.578125 60.78125 
Q 13.765625 56.984375 13.71875 50.25 
L 4.6875 51.171875 
Q 5.609375 61.28125 11.65625 66.578125 
Q 17.71875 71.875 27.9375 71.875 
Q 38.234375 71.875 44.234375 66.15625 
Q 50.25 60.453125 50.25 52 
Q 50.25 47.703125 48.484375 43.546875 
Q 46.734375 39.40625 42.65625 34.8125 
Q 38.578125 30.21875 29.109375 22.21875 
Q 21.1875 15.578125 18.9375 13.203125 
Q 16.703125 10.84375 15.234375 8.453125 
z
" id="ArialMT-32"/>
      </defs>
      <g transform="translate(23.55 169.144904)scale(0.13 -0.13)">
       <use xlink:href="#ArialMT-31"/>
       <use x="55.615234" xlink:href="#ArialMT-32"/>
       <use x="111.230469" xlink:href="#ArialMT-2e"/>
       <use x="139.013672" xlink:href="#ArialMT-35"/>
      </g>
     </g>
    </g>
    <g id="ytick_4">
     <g id="line2d_9">
      <g>
       <use style="stroke:#000000;stroke-width:0.8;" x="55.849219" xlink:href="#m39d177614e" y="130.930363"/>
      </g>
     </g>
     <g id="text_10">
      <!-- 15.0 -->
      <g transform="translate(23.55 135.582941)scale(0.13 -0.13)">
       <use xlink:href="#ArialMT-31"/>
       <use x="55.615234" xlink:href="#ArialMT-35"/>
       <use x="111.230469" xlink:href="#ArialMT-2e"/>
       <use x="139.013672" xlink:href="#ArialMT-30"/>
      </g>
     </g>
    </g>
    <g id="ytick_5">
     <g id="line2d_10">
      <g>
       <use style="stroke:#000000;stroke-width:0.8;" x="55.849219" xlink:href="#m39d177614e" y="97.3684"/>
      </g>
     </g>
     <g id="text_11">
      <!-- 17.5 -->
      <g transform="translate(23.55 102.020978)scale(0.13 -0.13)">
       <use xlink:href="#ArialMT-31"/>
       <use x="55.615234" xlink:href="#ArialMT-37"/>
       <use x="111.230469" xlink:href="#ArialMT-2e"/>
       <use x="139.013672" xlink:href="#ArialMT-35"/>
      </g>
     </g>
    </g>
    <g id="ytick_6">
     <g id="line2d_11">
      <g>
       <use style="stroke:#000000;stroke-width:0.8;" x="55.849219" xlink:href="#m39d177614e" y="63.806437"/>
      </g>
     </g>
     <g id="text_12">
      <!-- 20.0 -->
      <g transform="translate(23.55 68.459015)scale(0.13 -0.13)">
       <use xlink:href="#ArialMT-32"/>
       <use x="55.615234" xlink:href="#ArialMT-30"/>
       <use x="111.230469" xlink:href="#ArialMT-2e"/>
       <use x="139.013672" xlink:href="#ArialMT-30"/>
      </g>
     </g>
    </g>
    <g id="ytick_7">
     <g id="line2d_12">
      <g>
       <use style="stroke:#000000;stroke-width:0.8;" x="55.849219" xlink:href="#m39d177614e" y="30.244474"/>
      </g>
     </g>
     <g id="text_13">
      <!-- 22.5 -->
      <g transform="translate(23.55 34.897052)scale(0.13 -0.13)">
       <use xlink:href="#ArialMT-32"/>
       <use x="55.615234" xlink:href="#ArialMT-32"/>
       <use x="111.230469" xlink:href="#ArialMT-2e"/>
       <use x="139.013672" xlink:href="#ArialMT-35"/>
      </g>
     </g>
    </g>
    <g id="text_14">
     <!-- $\mu_C$ (kJ/mol) -->
     <defs>
      <path d="M -1.3125 -20.796875 
L 13.375 54.6875 
L 22.40625 54.6875 
L 15.765625 20.65625 
Q 15.578125 19.625 15.421875 18.359375 
Q 15.28125 17.09375 15.28125 15.828125 
Q 15.28125 11.28125 18.140625 8.828125 
Q 21 6.390625 26.3125 6.390625 
Q 33.546875 6.390625 37.984375 10.484375 
Q 42.4375 14.59375 44 22.796875 
L 50.203125 54.6875 
L 59.1875 54.6875 
L 51.03125 12.640625 
Q 50.828125 11.71875 50.75 11.03125 
Q 50.6875 10.359375 50.6875 9.8125 
Q 50.6875 8.296875 51.296875 7.59375 
Q 51.90625 6.890625 53.21875 6.890625 
Q 53.71875 6.890625 54.5625 7.125 
Q 55.421875 7.375 56.984375 8.015625 
L 55.609375 0.78125 
Q 53.46875 -0.296875 51.515625 -0.859375 
Q 49.5625 -1.421875 47.703125 -1.421875 
Q 44.484375 -1.421875 42.65625 0.625 
Q 40.828125 2.6875 40.828125 6.296875 
Q 38.09375 2.390625 34.296875 0.484375 
Q 30.515625 -1.421875 25.390625 -1.421875 
Q 20.84375 -1.421875 17.453125 0.671875 
Q 14.0625 2.78125 12.984375 6.203125 
L 7.71875 -20.796875 
z
" id="DejaVuSans-Oblique-3bc"/>
      <path d="M 69.484375 67.28125 
L 67.484375 56.890625 
Q 62.796875 61.625 57.546875 63.921875 
Q 52.296875 66.21875 46.1875 66.21875 
Q 37.84375 66.21875 31.515625 62.203125 
Q 25.203125 58.203125 20.609375 50 
Q 17.671875 44.734375 16.125 38.84375 
Q 14.59375 32.953125 14.59375 27 
Q 14.59375 17.046875 19.75 11.8125 
Q 24.90625 6.59375 34.71875 6.59375 
Q 41.5 6.59375 47.75 8.765625 
Q 54 10.9375 59.90625 15.28125 
L 57.625 3.609375 
Q 51.8125 1.125 45.875 -0.140625 
Q 39.9375 -1.421875 33.984375 -1.421875 
Q 19.96875 -1.421875 12.078125 6.1875 
Q 4.203125 13.8125 4.203125 27.390625 
Q 4.203125 36.078125 7.203125 44.46875 
Q 10.203125 52.875 15.828125 59.8125 
Q 21.78125 67.1875 29.421875 70.703125 
Q 37.0625 74.21875 47.21875 74.21875 
Q 53.46875 74.21875 59.0625 72.484375 
Q 64.65625 70.75 69.484375 67.28125 
z
" id="DejaVuSans-Oblique-43"/>
      <path d="M 6.640625 0 
L 6.640625 71.578125 
L 15.4375 71.578125 
L 15.4375 30.765625 
L 36.234375 51.859375 
L 47.609375 51.859375 
L 27.78125 32.625 
L 49.609375 0 
L 38.765625 0 
L 21.625 26.515625 
L 15.4375 20.5625 
L 15.4375 0 
z
" id="ArialMT-6b"/>
      <path d="M 2.875 20.3125 
L 11.421875 21.484375 
Q 11.765625 13.28125 14.5 10.25 
Q 17.234375 7.234375 22.078125 7.234375 
Q 25.640625 7.234375 28.21875 8.859375 
Q 30.8125 10.5 31.78125 13.296875 
Q 32.765625 16.109375 32.765625 22.265625 
L 32.765625 71.578125 
L 42.234375 71.578125 
L 42.234375 22.796875 
Q 42.234375 13.8125 40.0625 8.875 
Q 37.890625 3.953125 33.171875 1.359375 
Q 28.46875 -1.21875 22.125 -1.21875 
Q 12.703125 -1.21875 7.6875 4.203125 
Q 2.6875 9.625 2.875 20.3125 
z
" id="ArialMT-4a"/>
      <path d="M 0 -1.21875 
L 20.75 72.796875 
L 27.78125 72.796875 
L 7.078125 -1.21875 
z
" id="ArialMT-2f"/>
      <path d="M 6.390625 0 
L 6.390625 71.578125 
L 15.1875 71.578125 
L 15.1875 0 
z
" id="ArialMT-6c"/>
     </defs>
     <g transform="translate(16.69 154.015)rotate(-90)scale(0.13 -0.13)">
      <use transform="translate(0 0.203125)" xlink:href="#DejaVuSans-Oblique-3bc"/>
      <use transform="translate(63.623047 -16.203125)scale(0.7)" xlink:href="#DejaVuSans-Oblique-43"/>
      <use transform="translate(115.234375 0.203125)" xlink:href="#ArialMT-20"/>
      <use transform="translate(143.017578 0.203125)" xlink:href="#ArialMT-28"/>
      <use transform="translate(176.318359 0.203125)" xlink:href="#ArialMT-6b"/>
      <use transform="translate(226.318359 0.203125)" xlink:href="#ArialMT-4a"/>
      <use transform="translate(276.318359 0.203125)" xlink:href="#ArialMT-2f"/>
      <use transform="translate(304.101562 0.203125)" xlink:href="#ArialMT-6d"/>
      <use transform="translate(387.402344 0.203125)" xlink:href="#ArialMT-6f"/>
      <use transform="translate(443.017578 0.203125)" xlink:href="#ArialMT-6c"/>
      <use transform="translate(465.234375 0.203125)" xlink:href="#ArialMT-29"/>
     </g>
    </g>
   </g>
   <g id="line2d_13">
    <path clip-path="url(#p24795d09da)" d="M 55.849219 222.38 
L 128.004391 222.38 
L 128.004391 222.38 
L 128.480731 144.368573 
L 128.957056 122.888917 
L 129.433395 115.223364 
L 129.909721 112.65923 
L 130.38606 111.920867 
L 130.862385 111.73292 
L 132.767715 111.679221 
L 172.779663 111.652371 
L 173.255988 111.451 
L 173.732328 110.16222 
L 174.208653 103.610925 
L 174.684992 83.782517 
L 175.264759 56.12746 
L 176.09222 56.10061 
L 176.09222 56.10061 
L 176.563639 83.460322 
L 177.035043 103.329004 
L 177.506462 110.054822 
L 177.977866 111.42415 
L 178.44927 111.652371 
L 180.806334 111.679221 
L 220.40482 111.665796 
L 220.87623 111.491274 
L 221.347641 110.336742 
L 221.819051 104.335863 
L 222.290462 85.16527 
L 222.870172 57.241717 
L 223.736565 57.241717 
L 223.736565 57.241717 
L 224.207976 85.16527 
L 224.679386 104.335863 
L 225.150796 110.336742 
L 225.622208 111.491274 
L 226.093617 111.665796 
L 230.336313 111.679221 
L 268.049168 111.652371 
L 268.520572 111.42415 
L 268.991976 110.054822 
L 269.463394 103.329004 
L 269.934799 83.460322 
L 270.509644 56.10061 
L 271.33712 56.140884 
L 271.33712 56.140884 
L 271.813445 83.782517 
L 272.289785 103.610925 
L 272.76611 110.16222 
L 273.242449 111.451 
L 273.718775 111.652371 
L 276.100444 111.679221 
L 315.636052 111.73292 
L 316.112377 111.920867 
L 316.588717 112.65923 
L 317.065042 115.223364 
L 317.541382 122.888917 
L 318.017707 144.368573 
L 318.494046 222.38 
L 318.494046 222.38 
L 390.649219 222.38 
L 390.649219 222.38 
" style="fill:none;stroke:#1f77b4;stroke-linecap:square;"/>
   </g>
   <g id="line2d_14">
    <path clip-path="url(#p24795d09da)" d="M 55.849219 222.38 
L 128.004391 222.38 
L 128.004391 222.38 
L 128.463774 181.219608 
L 128.923157 158.853916 
L 129.382555 144.623644 
L 129.841938 134.917524 
L 130.301321 128.057459 
L 130.760704 123.157412 
L 131.220102 119.613269 
L 131.679485 117.089409 
L 132.138868 115.290488 
L 132.598251 114.041983 
L 133.057649 113.196222 
L 133.517032 112.632381 
L 133.976415 112.256487 
L 134.895196 111.880593 
L 136.273345 111.719495 
L 141.326603 111.679221 
L 166.592862 111.585247 
L 167.052245 111.451 
L 167.511628 111.195929 
L 167.971026 110.685787 
L 168.430409 109.705777 
L 168.889792 107.947131 
L 169.349175 104.953403 
L 169.808558 100.281578 
L 170.267956 93.730283 
L 171.186722 76.07669 
L 172.564886 47.763818 
L 173.483652 31.989696 
L 173.483652 31.989696 
L 177.767692 31.989696 
L 177.767692 31.989696 
L 178.642401 46.918057 
L 181.266511 97.932241 
L 181.703858 103.114208 
L 182.141205 106.658351 
L 182.578566 108.886866 
L 183.015913 110.18907 
L 183.45326 110.914008 
L 183.890621 111.303327 
L 184.765315 111.598672 
L 186.514732 111.679221 
L 214.067892 111.598672 
L 214.942596 111.316752 
L 215.379947 110.940858 
L 215.817298 110.242769 
L 216.254651 108.967414 
L 216.692002 106.792599 
L 217.129353 103.31558 
L 217.566706 98.173887 
L 218.44141 83.071004 
L 220.628169 39.198805 
L 221.06552 32.02997 
L 221.06552 32.02997 
L 225.432917 32.02997 
L 225.432917 32.02997 
L 226.307621 47.052305 
L 228.931732 98.173887 
L 229.369084 103.31558 
L 229.806435 106.792599 
L 230.243787 108.967414 
L 230.681139 110.242769 
L 231.118491 110.940858 
L 231.555842 111.316752 
L 232.430546 111.598672 
L 233.742601 111.679221 
L 261.733122 111.598672 
L 262.607816 111.303327 
L 263.045177 110.914008 
L 263.482524 110.18907 
L 263.919871 108.886866 
L 264.357233 106.658351 
L 264.79458 103.114208 
L 265.231927 97.932241 
L 266.106635 82.789083 
L 268.293398 39.104832 
L 268.730745 31.989696 
L 268.730745 31.989696 
L 273.014785 31.989696 
L 273.014785 31.989696 
L 273.933552 47.763818 
L 276.689879 100.281578 
L 277.149262 104.953403 
L 277.608646 107.947131 
L 278.068029 109.705777 
L 278.527412 110.685787 
L 278.986809 111.195929 
L 279.905576 111.585247 
L 281.283739 111.679221 
L 310.684476 111.746345 
L 311.603242 111.880593 
L 312.522022 112.256487 
L 312.981406 112.632381 
L 313.440789 113.196222 
L 313.900186 114.041983 
L 314.359569 115.290488 
L 314.818953 117.089409 
L 315.278336 119.613269 
L 315.737733 123.157412 
L 316.197116 128.057459 
L 316.656499 134.917524 
L 317.115883 144.623644 
L 317.57528 158.853916 
L 318.034663 181.219608 
L 318.494046 222.38 
L 318.494046 222.38 
L 390.649219 222.38 
L 390.649219 222.38 
" style="fill:none;stroke:#ff7f0e;stroke-linecap:square;"/>
   </g>
   <g id="line2d_15">
    <path clip-path="url(#p24795d09da)" d="M 55.849219 222.38 
L 128.004391 222.38 
L 128.004391 222.38 
L 128.810206 195.570704 
L 129.61602 177.66204 
L 130.421835 164.5863 
L 131.227664 154.638534 
L 132.033478 146.785034 
L 132.839293 140.502235 
L 134.048022 133.158877 
L 135.256736 127.654715 
L 136.465465 123.506457 
L 137.674194 120.365057 
L 138.882909 117.975445 
L 140.091638 116.189949 
L 141.300367 114.860895 
L 142.509096 113.867461 
L 143.717811 113.142522 
L 145.329454 112.431009 
L 148.955627 111.007982 
L 150.164356 110.202495 
L 150.97017 109.423857 
L 151.775985 108.363299 
L 152.581799 106.940272 
L 153.387614 105.074227 
L 154.193428 102.684615 
L 154.999243 99.717737 
L 156.207972 94.133027 
L 157.416701 87.32666 
L 159.431245 74.183796 
L 163.057417 50.086306 
L 165.071961 38.339619 
L 166.68359 30.016252 
L 167.892319 24.364418 
L 167.892319 24.364418 
L 183.367915 24.364418 
L 183.367915 24.364418 
L 185.312381 33.708068 
L 187.256848 44.407622 
L 189.201314 56.463079 
L 194.71065 92.025335 
L 195.682884 96.683736 
L 196.655117 100.348702 
L 197.303272 102.187898 
L 197.951428 103.543801 
L 198.599583 104.389562 
L 199.247739 104.765456 
L 199.571816 104.765456 
L 199.895894 104.644633 
L 200.54405 104.040518 
L 201.192205 102.939686 
L 201.840361 101.355561 
L 202.488516 99.274719 
L 203.460749 95.274133 
L 204.432983 90.320388 
L 205.729293 82.547437 
L 208.32193 65.13549 
L 210.914547 48.30081 
L 212.859017 37.131388 
L 214.803485 27.34472 
L 215.45164 24.377842 
L 215.45164 24.377842 
L 231.046797 24.377842 
L 231.046797 24.377842 
L 232.991265 33.721493 
L 234.935733 44.421047 
L 236.880201 56.489929 
L 242.389533 92.06561 
L 243.361766 96.72401 
L 244.333999 100.375552 
L 244.982155 102.214747 
L 245.63031 103.557226 
L 246.278466 104.402987 
L 246.926621 104.765456 
L 247.250699 104.765456 
L 247.898854 104.389562 
L 248.54701 103.543801 
L 249.195165 102.187898 
L 249.843321 100.348702 
L 250.815554 96.683736 
L 251.787787 92.025335 
L 253.084098 84.54773 
L 255.028565 71.713635 
L 258.269356 50.274253 
L 260.213823 38.876611 
L 262.158289 28.875146 
L 263.130523 24.364418 
L 263.130523 24.364418 
L 278.606119 24.364418 
L 278.606119 24.364418 
L 280.217762 32.00312 
L 281.829391 40.568133 
L 283.843935 52.610166 
L 286.664293 71.431715 
L 289.081736 87.32666 
L 290.290465 94.133027 
L 291.499194 99.717737 
L 292.707909 103.946545 
L 293.513724 106.067661 
L 294.319553 107.69206 
L 295.125367 108.92714 
L 295.931182 109.840025 
L 297.139911 110.77976 
L 298.75154 111.571823 
L 302.780627 113.142522 
L 303.989341 113.867461 
L 305.19807 114.860895 
L 306.406799 116.189949 
L 307.615528 117.975445 
L 308.824243 120.365057 
L 310.032972 123.506457 
L 311.241701 127.654715 
L 312.450416 133.158877 
L 313.256245 137.803853 
L 314.062059 143.482537 
L 314.867874 150.490275 
L 315.673688 159.310359 
L 316.479503 170.654302 
L 317.285317 185.82431 
L 318.091132 207.451639 
L 318.494046 222.38 
L 390.649219 222.38 
L 390.649219 222.38 
" style="fill:none;stroke:#2ca02c;stroke-linecap:square;"/>
   </g>
   <g id="line2d_16">
    <path clip-path="url(#p24795d09da)" d="M 55.849219 222.38 
L 128.004391 222.38 
L 128.004391 222.38 
L 128.378963 191.395596 
L 129.128121 156.397181 
L 129.87728 135.065197 
L 130.626438 119.84149 
L 131.375582 108.027679 
L 132.499312 94.186726 
L 133.623042 83.272375 
L 134.746773 74.25092 
L 136.245089 64.222605 
L 137.743391 55.805265 
L 139.241708 48.529031 
L 141.114596 40.635257 
L 142.98747 33.721493 
L 145.234945 26.41841 
L 146.358676 23.089063 
L 146.358676 23.089063 
L 190.095851 20.793425 
L 258.219353 20.793425 
L 258.219353 20.793425 
L 300.139762 23.089063 
L 300.139762 23.089063 
L 302.387237 29.949128 
L 304.260111 36.3796 
L 306.132999 43.655834 
L 307.631316 50.260828 
L 309.129618 57.792133 
L 310.62792 66.558518 
L 311.751665 74.25092 
L 312.875395 83.272375 
L 313.999125 94.186726 
L 315.122856 108.027679 
L 315.872 119.84149 
L 316.621158 135.065197 
L 317.370316 156.397181 
L 317.744888 171.258418 
L 318.119474 191.395596 
L 318.494046 222.38 
L 390.649219 222.38 
L 390.649219 222.38 
" style="fill:none;stroke:#d62728;stroke-linecap:square;"/>
   </g>
   <g id="line2d_17">
    <path clip-path="url(#p24795d09da)" d="M 55.849219 222.38 
L 128.004391 222.38 
L 128.206657 20.78 
L 318.291781 20.78 
L 318.494046 222.38 
L 390.649219 222.38 
L 390.649219 222.38 
" style="fill:none;stroke:#9467bd;stroke-linecap:square;"/>
   </g>
   <g id="patch_3">
    <path d="M 55.849219 232.46 
L 55.849219 10.7 
" style="fill:none;stroke:#000000;stroke-linecap:square;stroke-linejoin:miter;stroke-width:0.8;"/>
   </g>
   <g id="patch_4">
    <path d="M 390.649219 232.46 
L 390.649219 10.7 
" style="fill:none;stroke:#000000;stroke-linecap:square;stroke-linejoin:miter;stroke-width:0.8;"/>
   </g>
   <g id="patch_5">
    <path d="M 55.849219 232.46 
L 390.649219 232.46 
" style="fill:none;stroke:#000000;stroke-linecap:square;stroke-linejoin:miter;stroke-width:0.8;"/>
   </g>
   <g id="patch_6">
    <path d="M 55.849219 10.7 
L 390.649219 10.7 
" style="fill:none;stroke:#000000;stroke-linecap:square;stroke-linejoin:miter;stroke-width:0.8;"/>
   </g>
   <g id="legend_1">
    <g id="patch_7">
     <path d="M 171.12125 225.96 
L 275.377187 225.96 
L 275.377187 130.115469 
L 171.12125 130.115469 
z
" style="fill:#ffffff;opacity:0.8;stroke:#cccccc;stroke-linejoin:miter;"/>
    </g>
    <g id="line2d_18">
     <path d="M 176.32125 140.070625 
L 202.32125 140.070625 
" style="fill:none;stroke:#1f77b4;stroke-linecap:square;"/>
    </g>
    <g id="line2d_19"/>
    <g id="text_15">
     <!-- t = 0.1 s -->
     <defs>
      <path d="M 25.78125 7.859375 
L 27.046875 0.09375 
Q 23.34375 -0.6875 20.40625 -0.6875 
Q 15.625 -0.6875 12.984375 0.828125 
Q 10.359375 2.34375 9.28125 4.8125 
Q 8.203125 7.28125 8.203125 15.1875 
L 8.203125 45.015625 
L 1.765625 45.015625 
L 1.765625 51.859375 
L 8.203125 51.859375 
L 8.203125 64.703125 
L 16.9375 69.96875 
L 16.9375 51.859375 
L 25.78125 51.859375 
L 25.78125 45.015625 
L 16.9375 45.015625 
L 16.9375 14.703125 
Q 16.9375 10.9375 17.40625 9.859375 
Q 17.875 8.796875 18.921875 8.15625 
Q 19.96875 7.515625 21.921875 7.515625 
Q 23.390625 7.515625 25.78125 7.859375 
z
" id="ArialMT-74"/>
      <path d="M 52.828125 42.09375 
L 5.5625 42.09375 
L 5.5625 50.296875 
L 52.828125 50.296875 
z
M 52.828125 20.359375 
L 5.5625 20.359375 
L 5.5625 28.5625 
L 52.828125 28.5625 
z
" id="ArialMT-3d"/>
     </defs>
     <g transform="translate(212.72125 144.620625)scale(0.13 -0.13)">
      <use xlink:href="#ArialMT-74"/>
      <use x="27.783203" xlink:href="#ArialMT-20"/>
      <use x="55.566406" xlink:href="#ArialMT-3d"/>
      <use x="113.964844" xlink:href="#ArialMT-20"/>
      <use x="141.748047" xlink:href="#ArialMT-30"/>
      <use x="197.363281" xlink:href="#ArialMT-2e"/>
      <use x="225.146484" xlink:href="#ArialMT-31"/>
      <use x="280.761719" xlink:href="#ArialMT-20"/>
      <use x="308.544922" xlink:href="#ArialMT-73"/>
     </g>
    </g>
    <g id="line2d_20">
     <path d="M 176.32125 158.459531 
L 202.32125 158.459531 
" style="fill:none;stroke:#ff7f0e;stroke-linecap:square;"/>
    </g>
    <g id="line2d_21"/>
    <g id="text_16">
     <!-- t = 1 s -->
     <g transform="translate(212.72125 163.009531)scale(0.13 -0.13)">
      <use xlink:href="#ArialMT-74"/>
      <use x="27.783203" xlink:href="#ArialMT-20"/>
      <use x="55.566406" xlink:href="#ArialMT-3d"/>
      <use x="113.964844" xlink:href="#ArialMT-20"/>
      <use x="141.748047" xlink:href="#ArialMT-31"/>
      <use x="197.363281" xlink:href="#ArialMT-20"/>
      <use x="225.146484" xlink:href="#ArialMT-73"/>
     </g>
    </g>
    <g id="line2d_22">
     <path d="M 176.32125 176.848437 
L 202.32125 176.848437 
" style="fill:none;stroke:#2ca02c;stroke-linecap:square;"/>
    </g>
    <g id="line2d_23"/>
    <g id="text_17">
     <!-- t = 10 s -->
     <g transform="translate(212.72125 181.398438)scale(0.13 -0.13)">
      <use xlink:href="#ArialMT-74"/>
      <use x="27.783203" xlink:href="#ArialMT-20"/>
      <use x="55.566406" xlink:href="#ArialMT-3d"/>
      <use x="113.964844" xlink:href="#ArialMT-20"/>
      <use x="141.748047" xlink:href="#ArialMT-31"/>
      <use x="197.363281" xlink:href="#ArialMT-30"/>
      <use x="252.978516" xlink:href="#ArialMT-20"/>
      <use x="280.761719" xlink:href="#ArialMT-73"/>
     </g>
    </g>
    <g id="line2d_24">
     <path d="M 176.32125 195.237344 
L 202.32125 195.237344 
" style="fill:none;stroke:#d62728;stroke-linecap:square;"/>
    </g>
    <g id="line2d_25"/>
    <g id="text_18">
     <!-- t = 100 s -->
     <g transform="translate(212.72125 199.787344)scale(0.13 -0.13)">
      <use xlink:href="#ArialMT-74"/>
      <use x="27.783203" xlink:href="#ArialMT-20"/>
      <use x="55.566406" xlink:href="#ArialMT-3d"/>
      <use x="113.964844" xlink:href="#ArialMT-20"/>
      <use x="141.748047" xlink:href="#ArialMT-31"/>
      <use x="197.363281" xlink:href="#ArialMT-30"/>
      <use x="252.978516" xlink:href="#ArialMT-30"/>
      <use x="308.59375" xlink:href="#ArialMT-20"/>
      <use x="336.376953" xlink:href="#ArialMT-73"/>
     </g>
    </g>
    <g id="line2d_26">
     <path d="M 176.32125 213.62625 
L 202.32125 213.62625 
" style="fill:none;stroke:#9467bd;stroke-linecap:square;"/>
    </g>
    <g id="line2d_27"/>
    <g id="text_19">
     <!-- t = 1000 s -->
     <g transform="translate(212.72125 218.17625)scale(0.13 -0.13)">
      <use xlink:href="#ArialMT-74"/>
      <use x="27.783203" xlink:href="#ArialMT-20"/>
      <use x="55.566406" xlink:href="#ArialMT-3d"/>
      <use x="113.964844" xlink:href="#ArialMT-20"/>
      <use x="141.748047" xlink:href="#ArialMT-31"/>
      <use x="197.363281" xlink:href="#ArialMT-30"/>
      <use x="252.978516" xlink:href="#ArialMT-30"/>
      <use x="308.59375" xlink:href="#ArialMT-30"/>
      <use x="364.208984" xlink:href="#ArialMT-20"/>
      <use x="391.992188" xlink:href="#ArialMT-73"/>
     </g>
    </g>
   </g>
  </g>
 </g>
 <defs>
  <clipPath id="p24795d09da">
   <rect height="221.76" width="334.8" x="55.849219" y="10.7"/>
  </clipPath>
 </defs>
</svg>
