<?xml version="1.0" encoding="utf-8" standalone="no"?>
<!DOCTYPE svg PUBLIC "-//W3C//DTD SVG 1.1//EN"
  "http://www.w3.org/Graphics/SVG/1.1/DTD/svg11.dtd">
<!-- Created with matplotlib (http://matplotlib.org/) -->
<svg height="274.748594pt" version="1.1" viewBox="0 0 390.508437 274.748594" width="390.508437pt" xmlns="http://www.w3.org/2000/svg" xmlns:xlink="http://www.w3.org/1999/xlink">
 <defs>
  <style type="text/css">
*{stroke-linecap:butt;stroke-linejoin:round;}
  </style>
 </defs>
 <g id="figure_1">
  <g id="patch_1">
   <path d="M 0 274.748594 
L 390.508437 274.748594 
L 390.508437 0 
L 0 0 
z
" style="fill:#ffffff;"/>
  </g>
  <g id="axes_1">
   <g id="patch_2">
    <path d="M 45.008438 232.46 
L 379.808438 232.46 
L 379.808438 10.7 
L 45.008438 10.7 
z
" style="fill:#ffffff;"/>
   </g>
   <g id="matplotlib.axis_1">
    <g id="xtick_1">
     <g id="line2d_1">
      <defs>
       <path d="M 0 0 
L 0 3.5 
" id="mc3a54481cf" style="stroke:#000000;stroke-width:0.8;"/>
      </defs>
      <g>
       <use style="stroke:#000000;stroke-width:0.8;" x="68.098093" xlink:href="#mc3a54481cf" y="232.46"/>
      </g>
     </g>
     <g id="text_1">
      <!-- −1.0 -->
      <defs>
       <path d="M 52.828125 31.203125 
L 5.5625 31.203125 
L 5.5625 39.40625 
L 52.828125 39.40625 
z
" id="ArialMT-2212"/>
       <path d="M 37.25 0 
L 28.46875 0 
L 28.46875 56 
Q 25.296875 52.984375 20.140625 49.953125 
Q 14.984375 46.921875 10.890625 45.40625 
L 10.890625 53.90625 
Q 18.265625 57.375 23.78125 62.296875 
Q 29.296875 67.234375 31.59375 71.875 
L 37.25 71.875 
z
" id="ArialMT-31"/>
       <path d="M 9.078125 0 
L 9.078125 10.015625 
L 19.09375 10.015625 
L 19.09375 0 
z
" id="ArialMT-2e"/>
       <path d="M 4.15625 35.296875 
Q 4.15625 48 6.765625 55.734375 
Q 9.375 63.484375 14.515625 67.671875 
Q 19.671875 71.875 27.484375 71.875 
Q 33.25 71.875 37.59375 69.546875 
Q 41.9375 67.234375 44.765625 62.859375 
Q 47.609375 58.5 49.21875 52.21875 
Q 50.828125 45.953125 50.828125 35.296875 
Q 50.828125 22.703125 48.234375 14.96875 
Q 45.65625 7.234375 40.5 3 
Q 35.359375 -1.21875 27.484375 -1.21875 
Q 17.140625 -1.21875 11.234375 6.203125 
Q 4.15625 15.140625 4.15625 35.296875 
z
M 13.1875 35.296875 
Q 13.1875 17.671875 17.3125 11.828125 
Q 21.4375 6 27.484375 6 
Q 33.546875 6 37.671875 11.859375 
Q 41.796875 17.71875 41.796875 35.296875 
Q 41.796875 52.984375 37.671875 58.78125 
Q 33.546875 64.59375 27.390625 64.59375 
Q 21.34375 64.59375 17.71875 59.46875 
Q 13.1875 52.9375 13.1875 35.296875 
z
" id="ArialMT-30"/>
      </defs>
      <g transform="translate(55.266686 248.765156)scale(0.13 -0.13)">
       <use xlink:href="#ArialMT-2212"/>
       <use x="58.398438" xlink:href="#ArialMT-31"/>
       <use x="114.013672" xlink:href="#ArialMT-2e"/>
       <use x="141.796875" xlink:href="#ArialMT-30"/>
      </g>
     </g>
    </g>
    <g id="xtick_2">
     <g id="line2d_2">
      <g>
       <use style="stroke:#000000;stroke-width:0.8;" x="140.253265" xlink:href="#mc3a54481cf" y="232.46"/>
      </g>
     </g>
     <g id="text_2">
      <!-- −0.5 -->
      <defs>
       <path d="M 4.15625 18.75 
L 13.375 19.53125 
Q 14.40625 12.796875 18.140625 9.390625 
Q 21.875 6 27.15625 6 
Q 33.5 6 37.890625 10.78125 
Q 42.28125 15.578125 42.28125 23.484375 
Q 42.28125 31 38.0625 35.34375 
Q 33.84375 39.703125 27 39.703125 
Q 22.75 39.703125 19.328125 37.765625 
Q 15.921875 35.84375 13.96875 32.765625 
L 5.71875 33.84375 
L 12.640625 70.609375 
L 48.25 70.609375 
L 48.25 62.203125 
L 19.671875 62.203125 
L 15.828125 42.96875 
Q 22.265625 47.46875 29.34375 47.46875 
Q 38.71875 47.46875 45.15625 40.96875 
Q 51.609375 34.46875 51.609375 24.265625 
Q 51.609375 14.546875 45.953125 7.46875 
Q 39.0625 -1.21875 27.15625 -1.21875 
Q 17.390625 -1.21875 11.203125 4.25 
Q 5.03125 9.71875 4.15625 18.75 
z
" id="ArialMT-35"/>
      </defs>
      <g transform="translate(127.421859 248.765156)scale(0.13 -0.13)">
       <use xlink:href="#ArialMT-2212"/>
       <use x="58.398438" xlink:href="#ArialMT-30"/>
       <use x="114.013672" xlink:href="#ArialMT-2e"/>
       <use x="141.796875" xlink:href="#ArialMT-35"/>
      </g>
     </g>
    </g>
    <g id="xtick_3">
     <g id="line2d_3">
      <g>
       <use style="stroke:#000000;stroke-width:0.8;" x="212.408438" xlink:href="#mc3a54481cf" y="232.46"/>
      </g>
     </g>
     <g id="text_3">
      <!-- 0.0 -->
      <g transform="translate(203.373438 248.765156)scale(0.13 -0.13)">
       <use xlink:href="#ArialMT-30"/>
       <use x="55.615234" xlink:href="#ArialMT-2e"/>
       <use x="83.398438" xlink:href="#ArialMT-30"/>
      </g>
     </g>
    </g>
    <g id="xtick_4">
     <g id="line2d_4">
      <g>
       <use style="stroke:#000000;stroke-width:0.8;" x="284.56361" xlink:href="#mc3a54481cf" y="232.46"/>
      </g>
     </g>
     <g id="text_4">
      <!-- 0.5 -->
      <g transform="translate(275.52861 248.765156)scale(0.13 -0.13)">
       <use xlink:href="#ArialMT-30"/>
       <use x="55.615234" xlink:href="#ArialMT-2e"/>
       <use x="83.398438" xlink:href="#ArialMT-35"/>
      </g>
     </g>
    </g>
    <g id="xtick_5">
     <g id="line2d_5">
      <g>
       <use style="stroke:#000000;stroke-width:0.8;" x="356.718782" xlink:href="#mc3a54481cf" y="232.46"/>
      </g>
     </g>
     <g id="text_5">
      <!-- 1.0 -->
      <g transform="translate(347.683782 248.765156)scale(0.13 -0.13)">
       <use xlink:href="#ArialMT-31"/>
       <use x="55.615234" xlink:href="#ArialMT-2e"/>
       <use x="83.398438" xlink:href="#ArialMT-30"/>
      </g>
     </g>
    </g>
    <g id="text_6">
     <!-- Posição (µm) -->
     <defs>
      <path d="M 7.71875 0 
L 7.71875 71.578125 
L 34.71875 71.578125 
Q 41.84375 71.578125 45.609375 70.90625 
Q 50.875 70.015625 54.4375 67.546875 
Q 58.015625 65.09375 60.1875 60.640625 
Q 62.359375 56.203125 62.359375 50.875 
Q 62.359375 41.75 56.546875 35.421875 
Q 50.734375 29.109375 35.546875 29.109375 
L 17.1875 29.109375 
L 17.1875 0 
z
M 17.1875 37.546875 
L 35.6875 37.546875 
Q 44.875 37.546875 48.734375 40.96875 
Q 52.59375 44.390625 52.59375 50.59375 
Q 52.59375 55.078125 50.3125 58.265625 
Q 48.046875 61.46875 44.34375 62.5 
Q 41.9375 63.140625 35.5 63.140625 
L 17.1875 63.140625 
z
" id="ArialMT-50"/>
      <path d="M 3.328125 25.921875 
Q 3.328125 40.328125 11.328125 47.265625 
Q 18.015625 53.03125 27.640625 53.03125 
Q 38.328125 53.03125 45.109375 46.015625 
Q 51.90625 39.015625 51.90625 26.65625 
Q 51.90625 16.65625 48.90625 10.90625 
Q 45.90625 5.171875 40.15625 2 
Q 34.421875 -1.171875 27.640625 -1.171875 
Q 16.75 -1.171875 10.03125 5.8125 
Q 3.328125 12.796875 3.328125 25.921875 
z
M 12.359375 25.921875 
Q 12.359375 15.96875 16.703125 11.015625 
Q 21.046875 6.0625 27.640625 6.0625 
Q 34.1875 6.0625 38.53125 11.03125 
Q 42.875 16.015625 42.875 26.21875 
Q 42.875 35.84375 38.5 40.796875 
Q 34.125 45.75 27.640625 45.75 
Q 21.046875 45.75 16.703125 40.8125 
Q 12.359375 35.890625 12.359375 25.921875 
z
" id="ArialMT-6f"/>
      <path d="M 3.078125 15.484375 
L 11.765625 16.84375 
Q 12.5 11.625 15.84375 8.84375 
Q 19.1875 6.0625 25.203125 6.0625 
Q 31.25 6.0625 34.171875 8.515625 
Q 37.109375 10.984375 37.109375 14.3125 
Q 37.109375 17.28125 34.515625 19 
Q 32.71875 20.171875 25.53125 21.96875 
Q 15.875 24.421875 12.140625 26.203125 
Q 8.40625 27.984375 6.46875 31.125 
Q 4.546875 34.28125 4.546875 38.09375 
Q 4.546875 41.546875 6.125 44.5 
Q 7.71875 47.46875 10.453125 49.421875 
Q 12.5 50.921875 16.03125 51.96875 
Q 19.578125 53.03125 23.640625 53.03125 
Q 29.734375 53.03125 34.34375 51.265625 
Q 38.96875 49.515625 41.15625 46.5 
Q 43.359375 43.5 44.1875 38.484375 
L 35.59375 37.3125 
Q 35.015625 41.3125 32.203125 43.546875 
Q 29.390625 45.796875 24.265625 45.796875 
Q 18.21875 45.796875 15.625 43.796875 
Q 13.03125 41.796875 13.03125 39.109375 
Q 13.03125 37.40625 14.109375 36.03125 
Q 15.1875 34.625 17.484375 33.6875 
Q 18.796875 33.203125 25.25 31.453125 
Q 34.578125 28.953125 38.25 27.359375 
Q 41.9375 25.78125 44.03125 22.75 
Q 46.140625 19.734375 46.140625 15.234375 
Q 46.140625 10.84375 43.578125 6.953125 
Q 41.015625 3.078125 36.171875 0.953125 
Q 31.34375 -1.171875 25.25 -1.171875 
Q 15.140625 -1.171875 9.84375 3.03125 
Q 4.546875 7.234375 3.078125 15.484375 
z
" id="ArialMT-73"/>
      <path d="M 6.640625 61.46875 
L 6.640625 71.578125 
L 15.4375 71.578125 
L 15.4375 61.46875 
z
M 6.640625 0 
L 6.640625 51.859375 
L 15.4375 51.859375 
L 15.4375 0 
z
" id="ArialMT-69"/>
      <path d="M 40.4375 19 
L 49.078125 17.875 
Q 47.65625 8.9375 41.8125 3.875 
Q 35.984375 -1.171875 27.484375 -1.171875 
Q 16.84375 -1.171875 10.375 5.78125 
Q 3.90625 12.75 3.90625 25.734375 
Q 3.90625 34.125 6.6875 40.421875 
Q 9.46875 46.734375 15.15625 49.875 
Q 20.84375 53.03125 27.546875 53.03125 
Q 35.984375 53.03125 41.359375 48.75 
Q 46.734375 44.484375 48.25 36.625 
L 39.703125 35.296875 
Q 38.484375 40.53125 35.375 43.15625 
Q 32.28125 45.796875 27.875 45.796875 
Q 21.234375 45.796875 17.078125 41.03125 
Q 12.9375 36.28125 12.9375 25.984375 
Q 12.9375 15.53125 16.9375 10.796875 
Q 20.953125 6.0625 27.390625 6.0625 
Q 32.5625 6.0625 36.03125 9.234375 
Q 39.5 12.40625 40.4375 19 
z
M 20.046875 -6.515625 
L 22.59375 2.125 
L 29.125 2.125 
L 27.515625 -3.109375 
Q 31.671875 -3.59375 33.765625 -5.65625 
Q 35.875 -7.734375 35.875 -10.28125 
Q 35.875 -13.9375 32.359375 -16.75 
Q 28.84375 -19.5625 21.75 -19.5625 
Q 17.75 -19.5625 14.71875 -18.96875 
L 15.265625 -13.265625 
Q 18.390625 -13.453125 19.859375 -13.453125 
Q 24.4375 -13.453125 26.296875 -12.1875 
Q 27.71875 -11.203125 27.71875 -9.796875 
Q 27.71875 -8.90625 27.15625 -8.21875 
Q 26.59375 -7.546875 25.078125 -7.046875 
Q 23.5625 -6.5625 20.046875 -6.515625 
z
" id="ArialMT-e7"/>
      <path d="M 40.4375 6.390625 
Q 35.546875 2.25 31.03125 0.53125 
Q 26.515625 -1.171875 21.34375 -1.171875 
Q 12.796875 -1.171875 8.203125 3 
Q 3.609375 7.171875 3.609375 13.671875 
Q 3.609375 17.484375 5.34375 20.625 
Q 7.078125 23.78125 9.890625 25.6875 
Q 12.703125 27.59375 16.21875 28.5625 
Q 18.796875 29.25 24.03125 29.890625 
Q 34.671875 31.15625 39.703125 32.90625 
Q 39.75 34.71875 39.75 35.203125 
Q 39.75 40.578125 37.25 42.78125 
Q 33.890625 45.75 27.25 45.75 
Q 21.046875 45.75 18.09375 43.578125 
Q 15.140625 41.40625 13.71875 35.890625 
L 5.125 37.0625 
Q 6.296875 42.578125 8.984375 45.96875 
Q 11.671875 49.359375 16.75 51.1875 
Q 21.828125 53.03125 28.515625 53.03125 
Q 35.15625 53.03125 39.296875 51.46875 
Q 43.453125 49.90625 45.40625 47.53125 
Q 47.359375 45.171875 48.140625 41.546875 
Q 48.578125 39.3125 48.578125 33.453125 
L 48.578125 21.734375 
Q 48.578125 9.46875 49.140625 6.21875 
Q 49.703125 2.984375 51.375 0 
L 42.1875 0 
Q 40.828125 2.734375 40.4375 6.390625 
z
M 39.703125 26.03125 
Q 34.90625 24.078125 25.34375 22.703125 
Q 19.921875 21.921875 17.671875 20.9375 
Q 15.4375 19.96875 14.203125 18.09375 
Q 12.984375 16.21875 12.984375 13.921875 
Q 12.984375 10.40625 15.640625 8.0625 
Q 18.3125 5.71875 23.4375 5.71875 
Q 28.515625 5.71875 32.46875 7.9375 
Q 36.421875 10.15625 38.28125 14.015625 
Q 39.703125 17 39.703125 22.796875 
z
M 11.21875 59.515625 
Q 11.171875 64.59375 14 67.625 
Q 16.78125 70.65625 21.125 70.65625 
Q 24.15625 70.65625 29.375 68.015625 
Q 32.265625 66.546875 33.96875 66.546875 
Q 35.53125 66.546875 36.359375 67.40625 
Q 37.1875 68.265625 37.53125 70.796875 
L 43.890625 70.796875 
Q 43.734375 65.234375 41.078125 62.453125 
Q 38.421875 59.671875 34.3125 59.671875 
Q 31.234375 59.671875 26.203125 62.40625 
Q 22.9375 64.15625 21.421875 64.15625 
Q 19.765625 64.15625 18.734375 62.984375 
Q 17.65625 61.8125 17.71875 59.515625 
z
" id="ArialMT-e3"/>
      <path id="ArialMT-20"/>
      <path d="M 23.390625 -21.046875 
Q 16.109375 -11.859375 11.078125 0.4375 
Q 6.0625 12.75 6.0625 25.921875 
Q 6.0625 37.546875 9.8125 48.1875 
Q 14.203125 60.546875 23.390625 72.796875 
L 29.6875 72.796875 
Q 23.78125 62.640625 21.875 58.296875 
Q 18.890625 51.5625 17.1875 44.234375 
Q 15.09375 35.109375 15.09375 25.875 
Q 15.09375 2.390625 29.6875 -21.046875 
z
" id="ArialMT-28"/>
      <path d="M 49.703125 51.859375 
L 49.703125 0 
L 41.84375 0 
L 41.84375 6.15625 
Q 39.3125 2.25 36.8125 0.78125 
Q 33.40625 -1.21875 28.859375 -1.21875 
Q 24.8125 -1.21875 21.6875 0.390625 
Q 19.34375 1.609375 16.5 5.21875 
L 16.5 -19.875 
L 7.8125 -19.875 
L 7.8125 51.859375 
L 16.5 51.859375 
L 16.5 29.890625 
Q 16.5 17.921875 17.765625 14.375 
Q 19.046875 10.84375 21.890625 8.78125 
Q 24.75 6.734375 28.46875 6.734375 
Q 32.375 6.734375 35.453125 8.875 
Q 38.53125 11.03125 39.796875 14.421875 
Q 41.0625 17.828125 41.0625 29.734375 
L 41.0625 51.859375 
z
" id="ArialMT-b5"/>
      <path d="M 6.59375 0 
L 6.59375 51.859375 
L 14.453125 51.859375 
L 14.453125 44.578125 
Q 16.890625 48.390625 20.9375 50.703125 
Q 25 53.03125 30.171875 53.03125 
Q 35.9375 53.03125 39.625 50.640625 
Q 43.3125 48.25 44.828125 43.953125 
Q 50.984375 53.03125 60.84375 53.03125 
Q 68.5625 53.03125 72.703125 48.75 
Q 76.859375 44.484375 76.859375 35.59375 
L 76.859375 0 
L 68.109375 0 
L 68.109375 32.671875 
Q 68.109375 37.9375 67.25 40.25 
Q 66.40625 42.578125 64.15625 43.984375 
Q 61.921875 45.40625 58.890625 45.40625 
Q 53.421875 45.40625 49.796875 41.765625 
Q 46.1875 38.140625 46.1875 30.125 
L 46.1875 0 
L 37.40625 0 
L 37.40625 33.6875 
Q 37.40625 39.546875 35.25 42.46875 
Q 33.109375 45.40625 28.21875 45.40625 
Q 24.515625 45.40625 21.359375 43.453125 
Q 18.21875 41.5 16.796875 37.734375 
Q 15.375 33.984375 15.375 26.90625 
L 15.375 0 
z
" id="ArialMT-6d"/>
      <path d="M 12.359375 -21.046875 
L 6.0625 -21.046875 
Q 20.65625 2.390625 20.65625 25.875 
Q 20.65625 35.0625 18.5625 44.09375 
Q 16.890625 51.421875 13.921875 58.15625 
Q 12.015625 62.546875 6.0625 72.796875 
L 12.359375 72.796875 
Q 21.53125 60.546875 25.921875 48.1875 
Q 29.6875 37.546875 29.6875 25.921875 
Q 29.6875 12.75 24.625 0.4375 
Q 19.578125 -11.859375 12.359375 -21.046875 
z
" id="ArialMT-29"/>
     </defs>
     <g transform="translate(173.990391 264.8125)scale(0.13 -0.13)">
      <use xlink:href="#ArialMT-50"/>
      <use x="66.699219" xlink:href="#ArialMT-6f"/>
      <use x="122.314453" xlink:href="#ArialMT-73"/>
      <use x="172.314453" xlink:href="#ArialMT-69"/>
      <use x="194.53125" xlink:href="#ArialMT-e7"/>
      <use x="244.53125" xlink:href="#ArialMT-e3"/>
      <use x="300.146484" xlink:href="#ArialMT-6f"/>
      <use x="355.761719" xlink:href="#ArialMT-20"/>
      <use x="383.544922" xlink:href="#ArialMT-28"/>
      <use x="416.845703" xlink:href="#ArialMT-b5"/>
      <use x="474.462891" xlink:href="#ArialMT-6d"/>
      <use x="557.763672" xlink:href="#ArialMT-29"/>
     </g>
    </g>
   </g>
   <g id="matplotlib.axis_2">
    <g id="ytick_1">
     <g id="line2d_6">
      <defs>
       <path d="M 0 0 
L -3.5 0 
" id="m92457671e0" style="stroke:#000000;stroke-width:0.8;"/>
      </defs>
      <g>
       <use style="stroke:#000000;stroke-width:0.8;" x="45.008438" xlink:href="#m92457671e0" y="205.527895"/>
      </g>
     </g>
     <g id="text_7">
      <!-- 17 -->
      <defs>
       <path d="M 4.734375 62.203125 
L 4.734375 70.65625 
L 51.078125 70.65625 
L 51.078125 63.8125 
Q 44.234375 56.546875 37.515625 44.484375 
Q 30.8125 32.421875 27.15625 19.671875 
Q 24.515625 10.6875 23.78125 0 
L 14.75 0 
Q 14.890625 8.453125 18.0625 20.40625 
Q 21.234375 32.375 27.171875 43.484375 
Q 33.109375 54.59375 39.796875 62.203125 
z
" id="ArialMT-37"/>
      </defs>
      <g transform="translate(23.55 210.180474)scale(0.13 -0.13)">
       <use xlink:href="#ArialMT-31"/>
       <use x="55.615234" xlink:href="#ArialMT-37"/>
      </g>
     </g>
    </g>
    <g id="ytick_2">
     <g id="line2d_7">
      <g>
       <use style="stroke:#000000;stroke-width:0.8;" x="45.008438" xlink:href="#m92457671e0" y="175.753859"/>
      </g>
     </g>
     <g id="text_8">
      <!-- 18 -->
      <defs>
       <path d="M 17.671875 38.8125 
Q 12.203125 40.828125 9.5625 44.53125 
Q 6.9375 48.25 6.9375 53.421875 
Q 6.9375 61.234375 12.546875 66.546875 
Q 18.171875 71.875 27.484375 71.875 
Q 36.859375 71.875 42.578125 66.421875 
Q 48.296875 60.984375 48.296875 53.171875 
Q 48.296875 48.1875 45.671875 44.5 
Q 43.0625 40.828125 37.75 38.8125 
Q 44.34375 36.671875 47.78125 31.875 
Q 51.21875 27.09375 51.21875 20.453125 
Q 51.21875 11.28125 44.71875 5.03125 
Q 38.234375 -1.21875 27.640625 -1.21875 
Q 17.046875 -1.21875 10.546875 5.046875 
Q 4.046875 11.328125 4.046875 20.703125 
Q 4.046875 27.6875 7.59375 32.390625 
Q 11.140625 37.109375 17.671875 38.8125 
z
M 15.921875 53.71875 
Q 15.921875 48.640625 19.1875 45.40625 
Q 22.46875 42.1875 27.6875 42.1875 
Q 32.765625 42.1875 36.015625 45.375 
Q 39.265625 48.578125 39.265625 53.21875 
Q 39.265625 58.0625 35.90625 61.359375 
Q 32.5625 64.65625 27.59375 64.65625 
Q 22.5625 64.65625 19.234375 61.421875 
Q 15.921875 58.203125 15.921875 53.71875 
z
M 13.09375 20.65625 
Q 13.09375 16.890625 14.875 13.375 
Q 16.65625 9.859375 20.171875 7.921875 
Q 23.6875 6 27.734375 6 
Q 34.03125 6 38.125 10.046875 
Q 42.234375 14.109375 42.234375 20.359375 
Q 42.234375 26.703125 38.015625 30.859375 
Q 33.796875 35.015625 27.4375 35.015625 
Q 21.234375 35.015625 17.15625 30.90625 
Q 13.09375 26.8125 13.09375 20.65625 
z
" id="ArialMT-38"/>
      </defs>
      <g transform="translate(23.55 180.406437)scale(0.13 -0.13)">
       <use xlink:href="#ArialMT-31"/>
       <use x="55.615234" xlink:href="#ArialMT-38"/>
      </g>
     </g>
    </g>
    <g id="ytick_3">
     <g id="line2d_8">
      <g>
       <use style="stroke:#000000;stroke-width:0.8;" x="45.008438" xlink:href="#m92457671e0" y="145.979823"/>
      </g>
     </g>
     <g id="text_9">
      <!-- 19 -->
      <defs>
       <path d="M 5.46875 16.546875 
L 13.921875 17.328125 
Q 14.984375 11.375 18.015625 8.6875 
Q 21.046875 6 25.78125 6 
Q 29.828125 6 32.875 7.859375 
Q 35.9375 9.71875 37.890625 12.8125 
Q 39.84375 15.921875 41.15625 21.1875 
Q 42.484375 26.46875 42.484375 31.9375 
Q 42.484375 32.515625 42.4375 33.6875 
Q 39.796875 29.5 35.234375 26.875 
Q 30.671875 24.265625 25.34375 24.265625 
Q 16.453125 24.265625 10.296875 30.703125 
Q 4.15625 37.15625 4.15625 47.703125 
Q 4.15625 58.59375 10.578125 65.234375 
Q 17 71.875 26.65625 71.875 
Q 33.640625 71.875 39.421875 68.109375 
Q 45.21875 64.359375 48.21875 57.390625 
Q 51.21875 50.4375 51.21875 37.25 
Q 51.21875 23.53125 48.234375 15.40625 
Q 45.265625 7.28125 39.375 3.03125 
Q 33.5 -1.21875 25.59375 -1.21875 
Q 17.1875 -1.21875 11.859375 3.4375 
Q 6.546875 8.109375 5.46875 16.546875 
z
M 41.453125 48.140625 
Q 41.453125 55.71875 37.421875 60.15625 
Q 33.40625 64.59375 27.734375 64.59375 
Q 21.875 64.59375 17.53125 59.8125 
Q 13.1875 55.03125 13.1875 47.40625 
Q 13.1875 40.578125 17.3125 36.296875 
Q 21.4375 32.03125 27.484375 32.03125 
Q 33.59375 32.03125 37.515625 36.296875 
Q 41.453125 40.578125 41.453125 48.140625 
z
" id="ArialMT-39"/>
      </defs>
      <g transform="translate(23.55 150.632401)scale(0.13 -0.13)">
       <use xlink:href="#ArialMT-31"/>
       <use x="55.615234" xlink:href="#ArialMT-39"/>
      </g>
     </g>
    </g>
    <g id="ytick_4">
     <g id="line2d_9">
      <g>
       <use style="stroke:#000000;stroke-width:0.8;" x="45.008438" xlink:href="#m92457671e0" y="116.205786"/>
      </g>
     </g>
     <g id="text_10">
      <!-- 20 -->
      <defs>
       <path d="M 50.34375 8.453125 
L 50.34375 0 
L 3.03125 0 
Q 2.9375 3.171875 4.046875 6.109375 
Q 5.859375 10.9375 9.828125 15.625 
Q 13.8125 20.3125 21.34375 26.46875 
Q 33.015625 36.03125 37.109375 41.625 
Q 41.21875 47.21875 41.21875 52.203125 
Q 41.21875 57.421875 37.46875 61 
Q 33.734375 64.59375 27.734375 64.59375 
Q 21.390625 64.59375 17.578125 60.78125 
Q 13.765625 56.984375 13.71875 50.25 
L 4.6875 51.171875 
Q 5.609375 61.28125 11.65625 66.578125 
Q 17.71875 71.875 27.9375 71.875 
Q 38.234375 71.875 44.234375 66.15625 
Q 50.25 60.453125 50.25 52 
Q 50.25 47.703125 48.484375 43.546875 
Q 46.734375 39.40625 42.65625 34.8125 
Q 38.578125 30.21875 29.109375 22.21875 
Q 21.1875 15.578125 18.9375 13.203125 
Q 16.703125 10.84375 15.234375 8.453125 
z
" id="ArialMT-32"/>
      </defs>
      <g transform="translate(23.55 120.858365)scale(0.13 -0.13)">
       <use xlink:href="#ArialMT-32"/>
       <use x="55.615234" xlink:href="#ArialMT-30"/>
      </g>
     </g>
    </g>
    <g id="ytick_5">
     <g id="line2d_10">
      <g>
       <use style="stroke:#000000;stroke-width:0.8;" x="45.008438" xlink:href="#m92457671e0" y="86.43175"/>
      </g>
     </g>
     <g id="text_11">
      <!-- 21 -->
      <g transform="translate(23.55 91.084328)scale(0.13 -0.13)">
       <use xlink:href="#ArialMT-32"/>
       <use x="55.615234" xlink:href="#ArialMT-31"/>
      </g>
     </g>
    </g>
    <g id="ytick_6">
     <g id="line2d_11">
      <g>
       <use style="stroke:#000000;stroke-width:0.8;" x="45.008438" xlink:href="#m92457671e0" y="56.657714"/>
      </g>
     </g>
     <g id="text_12">
      <!-- 22 -->
      <g transform="translate(23.55 61.310292)scale(0.13 -0.13)">
       <use xlink:href="#ArialMT-32"/>
       <use x="55.615234" xlink:href="#ArialMT-32"/>
      </g>
     </g>
    </g>
    <g id="ytick_7">
     <g id="line2d_12">
      <g>
       <use style="stroke:#000000;stroke-width:0.8;" x="45.008438" xlink:href="#m92457671e0" y="26.883677"/>
      </g>
     </g>
     <g id="text_13">
      <!-- 23 -->
      <defs>
       <path d="M 4.203125 18.890625 
L 12.984375 20.0625 
Q 14.5 12.59375 18.140625 9.296875 
Q 21.78125 6 27 6 
Q 33.203125 6 37.46875 10.296875 
Q 41.75 14.59375 41.75 20.953125 
Q 41.75 27 37.796875 30.921875 
Q 33.84375 34.859375 27.734375 34.859375 
Q 25.25 34.859375 21.53125 33.890625 
L 22.515625 41.609375 
Q 23.390625 41.5 23.921875 41.5 
Q 29.546875 41.5 34.03125 44.421875 
Q 38.53125 47.359375 38.53125 53.46875 
Q 38.53125 58.296875 35.25 61.46875 
Q 31.984375 64.65625 26.8125 64.65625 
Q 21.6875 64.65625 18.265625 61.421875 
Q 14.84375 58.203125 13.875 51.765625 
L 5.078125 53.328125 
Q 6.6875 62.15625 12.390625 67.015625 
Q 18.109375 71.875 26.609375 71.875 
Q 32.46875 71.875 37.390625 69.359375 
Q 42.328125 66.84375 44.9375 62.5 
Q 47.5625 58.15625 47.5625 53.265625 
Q 47.5625 48.640625 45.0625 44.828125 
Q 42.578125 41.015625 37.703125 38.765625 
Q 44.046875 37.3125 47.5625 32.6875 
Q 51.078125 28.078125 51.078125 21.140625 
Q 51.078125 11.765625 44.234375 5.25 
Q 37.40625 -1.265625 26.953125 -1.265625 
Q 17.53125 -1.265625 11.296875 4.34375 
Q 5.078125 9.96875 4.203125 18.890625 
z
" id="ArialMT-33"/>
      </defs>
      <g transform="translate(23.55 31.536256)scale(0.13 -0.13)">
       <use xlink:href="#ArialMT-32"/>
       <use x="55.615234" xlink:href="#ArialMT-33"/>
      </g>
     </g>
    </g>
    <g id="text_14">
     <!-- $\mu_C$ (kJ/mol) -->
     <defs>
      <path d="M -1.3125 -20.796875 
L 13.375 54.6875 
L 22.40625 54.6875 
L 15.765625 20.65625 
Q 15.578125 19.625 15.421875 18.359375 
Q 15.28125 17.09375 15.28125 15.828125 
Q 15.28125 11.28125 18.140625 8.828125 
Q 21 6.390625 26.3125 6.390625 
Q 33.546875 6.390625 37.984375 10.484375 
Q 42.4375 14.59375 44 22.796875 
L 50.203125 54.6875 
L 59.1875 54.6875 
L 51.03125 12.640625 
Q 50.828125 11.71875 50.75 11.03125 
Q 50.6875 10.359375 50.6875 9.8125 
Q 50.6875 8.296875 51.296875 7.59375 
Q 51.90625 6.890625 53.21875 6.890625 
Q 53.71875 6.890625 54.5625 7.125 
Q 55.421875 7.375 56.984375 8.015625 
L 55.609375 0.78125 
Q 53.46875 -0.296875 51.515625 -0.859375 
Q 49.5625 -1.421875 47.703125 -1.421875 
Q 44.484375 -1.421875 42.65625 0.625 
Q 40.828125 2.6875 40.828125 6.296875 
Q 38.09375 2.390625 34.296875 0.484375 
Q 30.515625 -1.421875 25.390625 -1.421875 
Q 20.84375 -1.421875 17.453125 0.671875 
Q 14.0625 2.78125 12.984375 6.203125 
L 7.71875 -20.796875 
z
" id="DejaVuSans-Oblique-3bc"/>
      <path d="M 69.484375 67.28125 
L 67.484375 56.890625 
Q 62.796875 61.625 57.546875 63.921875 
Q 52.296875 66.21875 46.1875 66.21875 
Q 37.84375 66.21875 31.515625 62.203125 
Q 25.203125 58.203125 20.609375 50 
Q 17.671875 44.734375 16.125 38.84375 
Q 14.59375 32.953125 14.59375 27 
Q 14.59375 17.046875 19.75 11.8125 
Q 24.90625 6.59375 34.71875 6.59375 
Q 41.5 6.59375 47.75 8.765625 
Q 54 10.9375 59.90625 15.28125 
L 57.625 3.609375 
Q 51.8125 1.125 45.875 -0.140625 
Q 39.9375 -1.421875 33.984375 -1.421875 
Q 19.96875 -1.421875 12.078125 6.1875 
Q 4.203125 13.8125 4.203125 27.390625 
Q 4.203125 36.078125 7.203125 44.46875 
Q 10.203125 52.875 15.828125 59.8125 
Q 21.78125 67.1875 29.421875 70.703125 
Q 37.0625 74.21875 47.21875 74.21875 
Q 53.46875 74.21875 59.0625 72.484375 
Q 64.65625 70.75 69.484375 67.28125 
z
" id="DejaVuSans-Oblique-43"/>
      <path d="M 6.640625 0 
L 6.640625 71.578125 
L 15.4375 71.578125 
L 15.4375 30.765625 
L 36.234375 51.859375 
L 47.609375 51.859375 
L 27.78125 32.625 
L 49.609375 0 
L 38.765625 0 
L 21.625 26.515625 
L 15.4375 20.5625 
L 15.4375 0 
z
" id="ArialMT-6b"/>
      <path d="M 2.875 20.3125 
L 11.421875 21.484375 
Q 11.765625 13.28125 14.5 10.25 
Q 17.234375 7.234375 22.078125 7.234375 
Q 25.640625 7.234375 28.21875 8.859375 
Q 30.8125 10.5 31.78125 13.296875 
Q 32.765625 16.109375 32.765625 22.265625 
L 32.765625 71.578125 
L 42.234375 71.578125 
L 42.234375 22.796875 
Q 42.234375 13.8125 40.0625 8.875 
Q 37.890625 3.953125 33.171875 1.359375 
Q 28.46875 -1.21875 22.125 -1.21875 
Q 12.703125 -1.21875 7.6875 4.203125 
Q 2.6875 9.625 2.875 20.3125 
z
" id="ArialMT-4a"/>
      <path d="M 0 -1.21875 
L 20.75 72.796875 
L 27.78125 72.796875 
L 7.078125 -1.21875 
z
" id="ArialMT-2f"/>
      <path d="M 6.390625 0 
L 6.390625 71.578125 
L 15.1875 71.578125 
L 15.1875 0 
z
" id="ArialMT-6c"/>
     </defs>
     <g transform="translate(16.69 154.015)rotate(-90)scale(0.13 -0.13)">
      <use transform="translate(0 0.203125)" xlink:href="#DejaVuSans-Oblique-3bc"/>
      <use transform="translate(63.623047 -16.203125)scale(0.7)" xlink:href="#DejaVuSans-Oblique-43"/>
      <use transform="translate(115.234375 0.203125)" xlink:href="#ArialMT-20"/>
      <use transform="translate(143.017578 0.203125)" xlink:href="#ArialMT-28"/>
      <use transform="translate(176.318359 0.203125)" xlink:href="#ArialMT-6b"/>
      <use transform="translate(226.318359 0.203125)" xlink:href="#ArialMT-4a"/>
      <use transform="translate(276.318359 0.203125)" xlink:href="#ArialMT-2f"/>
      <use transform="translate(304.101562 0.203125)" xlink:href="#ArialMT-6d"/>
      <use transform="translate(387.402344 0.203125)" xlink:href="#ArialMT-6f"/>
      <use transform="translate(443.017578 0.203125)" xlink:href="#ArialMT-6c"/>
      <use transform="translate(465.234375 0.203125)" xlink:href="#ArialMT-29"/>
     </g>
    </g>
   </g>
   <g id="line2d_13">
    <path clip-path="url(#pb3fa56abce)" d="M 45.008438 116.205786 
L 117.16361 116.205786 
L 117.16361 116.205786 
L 118.592614 208.326655 
L 119.068939 218.509375 
L 119.545279 221.516553 
L 120.021604 222.23113 
L 120.974269 222.38 
L 161.938882 222.320452 
L 162.415207 221.873841 
L 162.891546 219.015534 
L 163.367872 204.485804 
L 163.844211 160.509553 
L 164.423978 99.175038 
L 165.251439 99.11549 
L 165.251439 99.11549 
L 165.722915 159.794976 
L 166.194392 203.860549 
L 166.665868 218.777342 
L 167.137344 221.814293 
L 167.608821 222.320452 
L 168.551773 222.38 
L 209.570117 222.320452 
L 210.041592 221.844067 
L 210.513067 218.866664 
L 210.984543 204.15829 
L 211.456018 160.092716 
L 211.927493 99.11549 
L 212.03437 99.5621 
L 212.889382 99.5621 
L 212.889382 99.11549 
L 213.360857 160.092716 
L 213.832332 204.15829 
L 214.303808 218.866664 
L 214.775283 221.844067 
L 215.246758 222.320452 
L 216.189709 222.38 
L 257.208054 222.320452 
L 257.679531 221.814293 
L 258.151007 218.777342 
L 258.622483 203.860549 
L 259.09396 159.794976 
L 259.668863 99.11549 
L 260.496339 99.204812 
L 260.496339 99.204812 
L 260.972664 160.509553 
L 261.449003 204.485804 
L 261.925329 219.015534 
L 262.401668 221.873841 
L 262.877993 222.320452 
L 263.830658 222.38 
L 304.318931 222.350226 
L 304.795271 222.23113 
L 305.271596 221.516553 
L 305.747936 218.509375 
L 306.224261 208.326655 
L 306.7006 184.090589 
L 307.653265 116.205786 
L 307.653265 116.205786 
L 379.808438 116.205786 
L 379.808438 116.205786 
" style="fill:none;stroke:#1f77b4;stroke-linecap:square;"/>
   </g>
   <g id="line2d_14">
    <path clip-path="url(#pb3fa56abce)" d="M 45.008438 116.205786 
L 117.16361 116.205786 
L 117.16361 116.205786 
L 118.541774 145.175924 
L 120.379321 187.097767 
L 121.298087 203.354391 
L 121.75747 209.279424 
L 122.216868 213.715755 
L 122.676251 216.871803 
L 123.135634 219.015534 
L 123.595017 220.38514 
L 124.0544 221.248587 
L 124.513798 221.754745 
L 124.973181 222.052486 
L 125.891947 222.290678 
L 127.270111 222.38 
L 155.292683 222.290678 
L 155.752066 222.171582 
L 156.211464 221.873841 
L 156.670847 221.308135 
L 157.13023 220.176721 
L 157.589613 218.003217 
L 158.048996 214.102818 
L 158.508394 207.463208 
L 158.967777 197.101843 
L 159.42716 182.572113 
L 160.345941 143.419256 
L 161.72409 80.625813 
L 162.642871 45.64132 
L 162.642871 45.64132 
L 166.926954 45.64132 
L 166.926954 45.64132 
L 167.802168 78.779823 
L 170.427837 191.980709 
L 170.865443 203.443713 
L 171.30305 211.274284 
L 171.740657 216.187 
L 172.178278 219.075082 
L 172.615885 220.68288 
L 173.053491 221.546327 
L 173.491098 221.992938 
L 174.366326 222.290678 
L 175.67916 222.38 
L 202.810984 222.290678 
L 203.248594 222.201356 
L 203.686205 221.992938 
L 204.123814 221.546327 
L 204.561424 220.68288 
L 204.999035 219.075082 
L 205.436645 216.216774 
L 205.874256 211.304058 
L 206.311865 203.473487 
L 206.749475 191.980709 
L 207.624695 158.395596 
L 209.812746 61.451334 
L 210.250357 45.64132 
L 210.250357 45.64132 
L 214.566518 45.64132 
L 214.566518 45.64132 
L 215.441738 78.779823 
L 218.0674 191.980709 
L 218.50501 203.473487 
L 218.942619 211.304058 
L 219.38023 216.216774 
L 219.81784 219.075082 
L 220.255451 220.68288 
L 220.693061 221.546327 
L 221.13067 221.992938 
L 222.005891 222.290678 
L 223.318721 222.38 
L 250.450549 222.290678 
L 250.888156 222.201356 
L 251.325777 221.992938 
L 251.763384 221.546327 
L 252.20099 220.68288 
L 252.638597 219.075082 
L 253.076218 216.187 
L 253.513825 211.274284 
L 253.951432 203.443713 
L 254.389038 191.980709 
L 255.264266 158.365822 
L 257.452314 61.451334 
L 257.889921 45.64132 
L 257.889921 45.64132 
L 262.174004 45.64132 
L 262.174004 45.64132 
L 263.092785 80.625813 
L 265.849098 197.101843 
L 266.308481 207.463208 
L 266.767879 214.102818 
L 267.227262 218.003217 
L 267.686645 220.176721 
L 268.146028 221.308135 
L 268.605411 221.873841 
L 269.064809 222.171582 
L 269.983575 222.350226 
L 271.821122 222.38 
L 298.924928 222.290678 
L 299.843694 222.052486 
L 300.303077 221.754745 
L 300.762475 221.248587 
L 301.221858 220.38514 
L 301.681241 219.015534 
L 302.140624 216.871803 
L 302.600007 213.715755 
L 303.059405 209.279424 
L 303.518788 203.354391 
L 304.437554 187.097767 
L 306.275101 145.175924 
L 307.653265 116.205786 
L 307.653265 116.205786 
L 379.808438 116.205786 
L 379.808438 116.205786 
" style="fill:none;stroke:#ff7f0e;stroke-linecap:square;"/>
   </g>
   <g id="line2d_15">
    <path clip-path="url(#pb3fa56abce)" d="M 45.008438 116.205786 
L 117.16361 116.205786 
L 117.16361 116.205786 
L 119.182194 128.859752 
L 121.604501 145.682082 
L 127.660254 189.003305 
L 129.275115 198.411901 
L 130.486269 204.336934 
L 131.697422 209.160328 
L 132.504853 211.810217 
L 133.716006 214.906717 
L 134.523437 216.484741 
L 135.330868 217.645928 
L 136.138299 218.449827 
L 136.945744 218.896438 
L 137.753175 218.98576 
L 138.560606 218.658245 
L 139.368037 217.824572 
L 139.771759 217.229092 
L 140.57919 215.472424 
L 141.386621 212.94163 
L 142.194066 209.458068 
L 143.001497 204.813319 
L 143.808928 198.918059 
L 144.616358 191.682969 
L 145.827512 178.373974 
L 147.442374 156.817572 
L 153.901849 64.547833 
L 155.516725 45.611546 
L 157.131587 28.699894 
L 157.131587 28.699894 
L 172.44176 28.699894 
L 172.44176 28.699894 
L 174.072741 45.819965 
L 175.703722 64.96467 
L 177.660916 90.808533 
L 179.944296 124.185228 
L 182.880073 166.91097 
L 184.184855 182.780532 
L 185.163453 192.397545 
L 186.14205 199.692184 
L 186.794434 203.235295 
L 187.446832 205.646992 
L 188.09923 207.016597 
L 188.425429 207.284564 
L 188.751628 207.284564 
L 189.077813 207.016597 
L 189.404012 206.450891 
L 190.05641 204.575126 
L 190.708808 201.597723 
L 191.361207 197.548454 
L 192.33979 189.449916 
L 193.318387 179.118325 
L 194.623169 162.504413 
L 196.580363 134.01066 
L 199.842331 86.312654 
L 201.799516 60.974949 
L 203.7567 38.733744 
L 204.735292 28.699894 
L 204.735292 28.699894 
L 220.081583 28.699894 
L 220.081583 28.699894 
L 221.71257 45.819965 
L 223.343557 64.96467 
L 225.30074 90.808533 
L 227.584128 124.185228 
L 230.519905 166.91097 
L 231.824687 182.780532 
L 232.803285 192.397545 
L 233.781867 199.692184 
L 234.434266 203.235295 
L 235.086664 205.646992 
L 235.739062 207.016597 
L 236.065247 207.284564 
L 236.391446 207.284564 
L 236.717645 207.016597 
L 237.043844 206.450891 
L 237.696242 204.575126 
L 238.34864 201.597723 
L 239.001024 197.548454 
L 239.979622 189.449916 
L 240.958219 179.118325 
L 242.263001 162.504413 
L 244.220181 134.01066 
L 247.482158 86.312654 
L 249.439338 60.974949 
L 251.396532 38.733744 
L 252.375115 28.699894 
L 252.375115 28.699894 
L 267.685288 28.699894 
L 267.685288 28.699894 
L 269.30015 45.611546 
L 270.915026 64.547833 
L 272.93361 91.195596 
L 275.355917 126.745795 
L 278.181932 168.01261 
L 279.393086 183.13782 
L 280.604225 195.494045 
L 281.41167 202.044333 
L 282.219101 207.284564 
L 283.026532 211.333833 
L 283.833962 214.311236 
L 284.641393 216.425193 
L 285.448838 217.824572 
L 286.256269 218.658245 
L 287.0637 218.98576 
L 287.871131 218.896438 
L 288.678576 218.449827 
L 289.486007 217.645928 
L 290.293438 216.484741 
L 291.100869 214.906717 
L 291.908299 212.94163 
L 292.715745 210.559708 
L 293.926884 206.063828 
L 295.138037 200.496083 
L 296.34919 193.916021 
L 297.964052 183.733301 
L 299.982636 169.471537 
L 305.230958 131.569189 
L 307.249542 118.647257 
L 307.653265 116.205786 
L 307.653265 116.205786 
L 379.808438 116.205786 
L 379.808438 116.205786 
" style="fill:none;stroke:#2ca02c;stroke-linecap:square;"/>
   </g>
   <g id="line2d_16">
    <path clip-path="url(#pb3fa56abce)" d="M 45.008438 116.205786 
L 117.16361 116.205786 
L 117.16361 116.205786 
L 119.301207 104.50459 
L 121.438804 93.994355 
L 123.576401 84.43689 
L 125.713998 75.683323 
L 128.920401 63.743934 
L 132.126803 52.965733 
L 135.333191 43.110527 
L 138.539594 33.999672 
L 141.745982 25.543846 
L 142.814788 22.804634 
L 142.814788 22.804634 
L 169.644765 21.256385 
L 178.450871 20.809774 
L 247.506402 20.809774 
L 247.506402 20.809774 
L 274.336379 22.358024 
L 282.002087 22.804634 
L 282.002087 22.804634 
L 286.277281 33.999672 
L 289.483684 43.110527 
L 292.690072 52.965733 
L 295.896474 63.743934 
L 298.034071 71.574506 
L 300.171668 79.970784 
L 302.309265 89.111413 
L 304.446862 99.11549 
L 306.584459 110.191431 
L 307.653265 116.205786 
L 307.653265 116.205786 
L 379.808438 116.205786 
L 379.808438 116.205786 
" style="fill:none;stroke:#d62728;stroke-linecap:square;"/>
   </g>
   <g id="line2d_17">
    <path clip-path="url(#pb3fa56abce)" d="M 45.008438 116.205786 
L 117.16361 116.205786 
L 117.170061 20.78 
L 307.646814 20.78 
L 307.653265 116.205786 
L 379.808438 116.205786 
L 379.808438 116.205786 
" style="fill:none;stroke:#9467bd;stroke-linecap:square;"/>
   </g>
   <g id="patch_3">
    <path d="M 45.008438 232.46 
L 45.008438 10.7 
" style="fill:none;stroke:#000000;stroke-linecap:square;stroke-linejoin:miter;stroke-width:0.8;"/>
   </g>
   <g id="patch_4">
    <path d="M 379.808438 232.46 
L 379.808438 10.7 
" style="fill:none;stroke:#000000;stroke-linecap:square;stroke-linejoin:miter;stroke-width:0.8;"/>
   </g>
   <g id="patch_5">
    <path d="M 45.008438 232.46 
L 379.808438 232.46 
" style="fill:none;stroke:#000000;stroke-linecap:square;stroke-linejoin:miter;stroke-width:0.8;"/>
   </g>
   <g id="patch_6">
    <path d="M 45.008438 10.7 
L 379.808438 10.7 
" style="fill:none;stroke:#000000;stroke-linecap:square;stroke-linejoin:miter;stroke-width:0.8;"/>
   </g>
   <g id="legend_1">
    <g id="patch_7">
     <path d="M 269.0525 113.044531 
L 373.308438 113.044531 
L 373.308438 17.2 
L 269.0525 17.2 
z
" style="fill:#ffffff;opacity:0.8;stroke:#cccccc;stroke-linejoin:miter;"/>
    </g>
    <g id="line2d_18">
     <path d="M 274.2525 27.155156 
L 300.2525 27.155156 
" style="fill:none;stroke:#1f77b4;stroke-linecap:square;"/>
    </g>
    <g id="line2d_19"/>
    <g id="text_15">
     <!-- t = 0.1 s -->
     <defs>
      <path d="M 25.78125 7.859375 
L 27.046875 0.09375 
Q 23.34375 -0.6875 20.40625 -0.6875 
Q 15.625 -0.6875 12.984375 0.828125 
Q 10.359375 2.34375 9.28125 4.8125 
Q 8.203125 7.28125 8.203125 15.1875 
L 8.203125 45.015625 
L 1.765625 45.015625 
L 1.765625 51.859375 
L 8.203125 51.859375 
L 8.203125 64.703125 
L 16.9375 69.96875 
L 16.9375 51.859375 
L 25.78125 51.859375 
L 25.78125 45.015625 
L 16.9375 45.015625 
L 16.9375 14.703125 
Q 16.9375 10.9375 17.40625 9.859375 
Q 17.875 8.796875 18.921875 8.15625 
Q 19.96875 7.515625 21.921875 7.515625 
Q 23.390625 7.515625 25.78125 7.859375 
z
" id="ArialMT-74"/>
      <path d="M 52.828125 42.09375 
L 5.5625 42.09375 
L 5.5625 50.296875 
L 52.828125 50.296875 
z
M 52.828125 20.359375 
L 5.5625 20.359375 
L 5.5625 28.5625 
L 52.828125 28.5625 
z
" id="ArialMT-3d"/>
     </defs>
     <g transform="translate(310.6525 31.705156)scale(0.13 -0.13)">
      <use xlink:href="#ArialMT-74"/>
      <use x="27.783203" xlink:href="#ArialMT-20"/>
      <use x="55.566406" xlink:href="#ArialMT-3d"/>
      <use x="113.964844" xlink:href="#ArialMT-20"/>
      <use x="141.748047" xlink:href="#ArialMT-30"/>
      <use x="197.363281" xlink:href="#ArialMT-2e"/>
      <use x="225.146484" xlink:href="#ArialMT-31"/>
      <use x="280.761719" xlink:href="#ArialMT-20"/>
      <use x="308.544922" xlink:href="#ArialMT-73"/>
     </g>
    </g>
    <g id="line2d_20">
     <path d="M 274.2525 45.544063 
L 300.2525 45.544063 
" style="fill:none;stroke:#ff7f0e;stroke-linecap:square;"/>
    </g>
    <g id="line2d_21"/>
    <g id="text_16">
     <!-- t = 1 s -->
     <g transform="translate(310.6525 50.094063)scale(0.13 -0.13)">
      <use xlink:href="#ArialMT-74"/>
      <use x="27.783203" xlink:href="#ArialMT-20"/>
      <use x="55.566406" xlink:href="#ArialMT-3d"/>
      <use x="113.964844" xlink:href="#ArialMT-20"/>
      <use x="141.748047" xlink:href="#ArialMT-31"/>
      <use x="197.363281" xlink:href="#ArialMT-20"/>
      <use x="225.146484" xlink:href="#ArialMT-73"/>
     </g>
    </g>
    <g id="line2d_22">
     <path d="M 274.2525 63.932969 
L 300.2525 63.932969 
" style="fill:none;stroke:#2ca02c;stroke-linecap:square;"/>
    </g>
    <g id="line2d_23"/>
    <g id="text_17">
     <!-- t = 10 s -->
     <g transform="translate(310.6525 68.482969)scale(0.13 -0.13)">
      <use xlink:href="#ArialMT-74"/>
      <use x="27.783203" xlink:href="#ArialMT-20"/>
      <use x="55.566406" xlink:href="#ArialMT-3d"/>
      <use x="113.964844" xlink:href="#ArialMT-20"/>
      <use x="141.748047" xlink:href="#ArialMT-31"/>
      <use x="197.363281" xlink:href="#ArialMT-30"/>
      <use x="252.978516" xlink:href="#ArialMT-20"/>
      <use x="280.761719" xlink:href="#ArialMT-73"/>
     </g>
    </g>
    <g id="line2d_24">
     <path d="M 274.2525 82.321875 
L 300.2525 82.321875 
" style="fill:none;stroke:#d62728;stroke-linecap:square;"/>
    </g>
    <g id="line2d_25"/>
    <g id="text_18">
     <!-- t = 100 s -->
     <g transform="translate(310.6525 86.871875)scale(0.13 -0.13)">
      <use xlink:href="#ArialMT-74"/>
      <use x="27.783203" xlink:href="#ArialMT-20"/>
      <use x="55.566406" xlink:href="#ArialMT-3d"/>
      <use x="113.964844" xlink:href="#ArialMT-20"/>
      <use x="141.748047" xlink:href="#ArialMT-31"/>
      <use x="197.363281" xlink:href="#ArialMT-30"/>
      <use x="252.978516" xlink:href="#ArialMT-30"/>
      <use x="308.59375" xlink:href="#ArialMT-20"/>
      <use x="336.376953" xlink:href="#ArialMT-73"/>
     </g>
    </g>
    <g id="line2d_26">
     <path d="M 274.2525 100.710781 
L 300.2525 100.710781 
" style="fill:none;stroke:#9467bd;stroke-linecap:square;"/>
    </g>
    <g id="line2d_27"/>
    <g id="text_19">
     <!-- t = 1000 s -->
     <g transform="translate(310.6525 105.260781)scale(0.13 -0.13)">
      <use xlink:href="#ArialMT-74"/>
      <use x="27.783203" xlink:href="#ArialMT-20"/>
      <use x="55.566406" xlink:href="#ArialMT-3d"/>
      <use x="113.964844" xlink:href="#ArialMT-20"/>
      <use x="141.748047" xlink:href="#ArialMT-31"/>
      <use x="197.363281" xlink:href="#ArialMT-30"/>
      <use x="252.978516" xlink:href="#ArialMT-30"/>
      <use x="308.59375" xlink:href="#ArialMT-30"/>
      <use x="364.208984" xlink:href="#ArialMT-20"/>
      <use x="391.992188" xlink:href="#ArialMT-73"/>
     </g>
    </g>
   </g>
  </g>
 </g>
 <defs>
  <clipPath id="pb3fa56abce">
   <rect height="221.76" width="334.8" x="45.008438" y="10.7"/>
  </clipPath>
 </defs>
</svg>
